<?xml version="1.0" standalone="no"?>
<!DOCTYPE svg PUBLIC "-//W3C//DTD SVG 1.1//EN" "http://www.w3.org/Graphics/SVG/1.1/DTD/svg11.dtd" >
<svg xmlns="http://www.w3.org/2000/svg">
<metadata></metadata>
<defs>
<font id="unicreditlight" horiz-adv-x="512" >
<font-face units-per-em="1000" ascent="750" descent="-250" />
<missing-glyph horiz-adv-x="226" />
<glyph unicode="fi" horiz-adv-x="479" d="M134 450v-442q0 -8 -8 -8h-28q-7 0 -7 8v442h-63q-6 0 -6 6v19q0 5 6 7l63 8v37q0 59 18 94q34 65 147 65q65 0 113 -19q9 -4 8 -12l-3 -16q-1 -10 -11 -7q-52 15 -106 15q-62 0 -89 -20q-20 -15 -27 -38.5t-7 -67.5v-31h249q8 0 8 -8v-474q0 -8 -8 -8h-28q-7 0 -7 8v442 h-214z" />
<glyph unicode="fl" horiz-adv-x="509" d="M134 451v-442q0 -8 -8 -8h-28q-7 0 -7 8v442h-63q-6 0 -6 6v19q0 6 6 7l63 8v37q0 59 18 94q34 65 141 65q51 0 103 -16l33 7q8 0 8 -8v-558q0 -42 11 -56.5t40 -14.5h26q7 0 7 -7v-25q0 -8 -8 -8h-23q-53 0 -74.5 23t-21.5 83v524q-43 17 -100 17q-59 0 -83 -20 q-20 -16 -27 -39.5t-7 -66.5v-31h109q8 0 8 -7v-26q0 -7 -8 -7h-109z" />
<glyph unicode=" "  horiz-adv-x="226" />
<glyph unicode="&#x09;" horiz-adv-x="226" />
<glyph unicode="&#xa0;" horiz-adv-x="226" />
<glyph unicode="!" horiz-adv-x="216" d="M94 643h27q10 0 10 -10l-4 -483q0 -10 -8 -10h-23q-8 0 -8 10l-4 483q0 10 10 10zM146 46v-20q0 -35 -32 -35h-12q-32 0 -32 35v20q0 36 32 36h12q32 0 32 -36z" />
<glyph unicode="&#x22;" horiz-adv-x="298" d="M232 452h-17q-11 0 -11 12l-7 210q-1 9 2.5 11.5t12.5 2.5h23q9 0 12 -2.5t3 -11.5l-7 -210q0 -12 -11 -12zM84 452h-17q-11 0 -11 12l-7 210q-1 9 2.5 11.5t12.5 2.5h23q9 0 12 -2.5t3 -11.5l-7 -210q0 -12 -11 -12z" />
<glyph unicode="#" horiz-adv-x="595" d="M397 413h-168l-38 -177h167zM533 197h-139l-40 -187q-2 -10 -12 -10h-23q-9 0 -8 10l39 187h-167l-40 -187q-3 -10 -11 -10h-26q-8 0 -7 10l39 187h-127q-7 0 -9.5 2t-0.5 7l6 24q2 7 14 7h125l39 176h-133q-7 0 -9.5 2t-0.5 7l6 24q2 7 14 7h130l40 183q2 10 10 10h28 q9 0 6 -10l-39 -183h167l40 183q2 10 10 10h26q10 0 7 -10l-39 -183h136q7 0 9.5 -2t0.5 -7l-6 -24q-2 -7 -14 -7h-134l-38 -176h141q7 0 9.5 -2t0.5 -7l-6 -24q-2 -7 -14 -7z" />
<glyph unicode="$" d="M241 2q-89 0 -168 31q-10 4 -6 13l7 23q3 10 14 5q65 -29 152 -29h8v271l-32 8q-73 19 -110.5 54.5t-37.5 94.5v17q0 70 45 110t129 45v90q0 12 10 12h19q10 0 10 -12v-89q79 -3 128 -20q10 -4 8 -15l-4 -20q-3 -10 -16 -6q-48 15 -116 18v-248l16 -4q86 -21 119 -55.5 t33 -102.5v-18q0 -77 -43 -119.5t-120 -51.5v-98q0 -12 -12 -12h-14q-12 0 -12 12v96h-7zM119 480q0 -53 31 -77.5t92 -39.5v240q-123 -8 -123 -113v-10zM399 182q0 56 -25.5 83.5t-87.5 41.5v-259q113 18 113 123v11z" />
<glyph unicode="%" horiz-adv-x="731" d="M170 656q56 0 82 -28q38 -39 38 -141v-12q0 -102 -38 -141q-26 -28 -82 -28t-82 28q-38 39 -38 141v12q0 102 38 141q26 28 82 28zM170 341q39 0 58.5 29.5t19.5 105.5v10q0 76 -19.5 105.5t-58.5 29.5t-58.5 -29.5t-19.5 -105.5v-10q0 -76 19.5 -105.5t58.5 -29.5z M566 648l-354 -651q-4 -6 -11 -6h-33q-9 0 -5 8l354 651q4 6 11 6h33q9 0 5 -8zM561 341q56 0 82 -28q38 -39 38 -141v-12q0 -102 -38 -141q-26 -28 -82 -28t-82 28q-38 39 -38 141v12q0 102 38 141q26 28 82 28zM561 26q39 0 58.5 29.5t19.5 105.5v10q0 76 -19.5 105.5 t-58.5 29.5t-58.5 -29.5t-19.5 -105.5v-10q0 -76 19.5 -105.5t58.5 -29.5z" />
<glyph unicode="&#x26;" horiz-adv-x="607" d="M538 -3l-77 75q-53 -81 -187 -81h-40q-92 0 -138.5 43t-46.5 119v15q0 129 126 185q-79 79 -79 160v4q0 63 39.5 101t109.5 38q72 0 109.5 -37.5t37.5 -98.5v-10q0 -61 -26 -107t-93 -83l172 -171q12 38 12 96v73q0 10 11 10h24q10 0 10 -11v-67q0 -83 -20 -137l90 -88 q8 -8 0 -16l-15 -14q-9 -7 -19 2zM240 32h24q128 0 164 73l-226 222q-57 -28 -80 -65t-23 -94v-11q0 -125 141 -125zM344 512v6q0 49 -27 73.5t-70 24.5q-101 0 -101 -103v-4q0 -35 19 -68t69 -83l12 -12q56 32 77 69t21 97z" />
<glyph unicode="'" horiz-adv-x="150" d="M84 452h-17q-11 0 -11 12l-7 210q-1 9 2.5 11.5t12.5 2.5h23q9 0 12 -2.5t3 -11.5l-7 -210q0 -12 -11 -12z" />
<glyph unicode="(" horiz-adv-x="272" d="M75 288q0 221 141 408q6 7 14 2l16 -10q9 -5 3 -13q-124 -166 -124 -387t124 -387q6 -8 -3 -13l-16 -10q-8 -5 -14 2q-141 186 -141 408z" />
<glyph unicode=")" horiz-adv-x="272" d="M197 288q0 -222 -141 -408q-6 -7 -14 -2l-16 10q-9 5 -3 13q124 166 124 387t-124 387q-6 8 3 13l16 10q8 5 14 -2q141 -187 141 -408z" />
<glyph unicode="*" horiz-adv-x="330" d="M224 444l-59 103l-59 -103q-7 -13 -19 -5l-27 18q-10 7 0 18l85 91l-107 27q-15 3 -10 15l12 29q4 13 17 6l96 -51l-16 117q-3 15 12 15h32q15 0 12 -15l-16 -117l96 51q13 7 17 -6l12 -29q5 -12 -10 -15l-107 -27l85 -91q10 -11 0 -18l-27 -18q-12 -8 -19 5z" />
<glyph unicode="+" d="M452 240h-175v-175q0 -7 -6 -7h-30q-7 0 -7 7v175h-175q-6 0 -6 6v30q0 7 6 7h175v174q0 7 7 7h30q6 0 6 -7v-174h175q6 0 6 -6v-31q0 -6 -6 -6z" />
<glyph unicode="," horiz-adv-x="179" d="M85 87h13q39 0 39 -42v-20q0 -73 -52 -151q-4 -7 -11 -3l-19 11q-6 3 -1 10q27 42 37 77q3 13 -8 18l-12 5q-18 7 -18 29v33q0 33 32 33z" />
<glyph unicode="-" horiz-adv-x="275" d="M233 239h-191q-7 0 -7 7v30q0 7 7 7h191q7 0 7 -7v-30q0 -7 -7 -7z" />
<glyph unicode="." horiz-adv-x="185" d="M132 51v-27q0 -17 -7.5 -25t-27.5 -8h-10q-34 0 -34 33v27q0 33 34 33h10q20 0 27.5 -8t7.5 -25z" />
<glyph unicode="/" horiz-adv-x="308" d="M282 680l-209 -697q-3 -9 -11 -9h-28q-11 0 -8 10l209 697q3 9 11 9h28q10 0 8 -10z" />
<glyph unicode="0" d="M256 32q43 0 71.5 19t44.5 58t22 88.5t6 119.5v13q0 70 -6 119.5t-22 88.5t-44.5 58t-71.5 19t-71.5 -19t-44.5 -58t-22 -88.5t-6 -119.5v-13q0 -70 6 -119.5t22 -88.5t44.5 -58t71.5 -19zM256 -9q-63 0 -103.5 27t-65.5 99t-25 193v27q0 121 25 193t65.5 99t103.5 27 t103.5 -27t65.5 -99t25 -193v-27q0 -121 -25 -193t-65.5 -99t-103.5 -27z" />
<glyph unicode="1" d="M442 0h-353q-9 0 -9 8v22q0 9 9 9h154v562h-4l-117 -72q-7 -4 -11 2l-13 23q-4 7 4 12l117 73q13 8 34 8h20q16 0 16 -15v-593h153q9 0 9 -9v-22q0 -8 -9 -8z" />
<glyph unicode="2" d="M414 0h-316q-10 0 -13.5 3.5t-3.5 13.5v93q0 82 25 127t99 76l72 30q62 26 84.5 57t22.5 83v7q0 70 -32.5 97t-102.5 27q-72 0 -141 -23q-12 -4 -15 8l-4 18q-3 11 8 14q73 25 153 25q93 0 138.5 -36.5t45.5 -126.5v-11q0 -68 -30 -105t-104 -70l-71 -31 q-66 -29 -84 -61.5t-18 -117.5v-58h287q9 0 9 -9v-22q0 -8 -9 -8z" />
<glyph unicode="3" d="M234 30q68 0 107 33t39 103v10q0 87 -44.5 116.5t-138.5 29.5h-27q-10 0 -10 9v26q0 9 10 9h27q93 0 132 30.5t39 95.5v10q0 112 -122 112q-64 0 -127 -21q-11 -4 -14 7l-4 18q-2 10 8 14q63 24 139 24q85 0 127.5 -39.5t42.5 -110.5v-14q0 -113 -103 -145v-4 q51 -11 83 -51t32 -109v-11q0 -93 -50.5 -137t-140.5 -44q-81 0 -155 23q-9 4 -8 14l4 17q2 11 14 7q70 -22 140 -22z" />
<glyph unicode="4" d="M87 213h250v394h-8zM383 174v-163q0 -11 -9 -11h-28q-9 0 -9 11v163h-285q-15 0 -15 16v10q0 12 15 37l240 390q13 20 38 20h34q19 0 19 -18v-416h71q9 0 9 -9v-22q0 -8 -9 -8h-71z" />
<glyph unicode="5" d="M386 604h-224q-9 0 -9 -8l-16 -228q53 34 127 34q83 0 129 -46q49 -50 49 -152v-8q0 -104 -55 -155q-55 -50 -157 -50q-83 0 -152 31q-11 5 -8 15l6 19q3 10 16 4q65 -28 144 -28q76 0 116 39t40 126v8q0 75 -33 116q-31 39 -99 39q-69 0 -130 -37q-10 -5 -17 -4l-14 4 q-8 3 -7 13l20 298q1 13 15 13h259q11 0 11 -11v-20q0 -12 -11 -12z" />
<glyph unicode="6" d="M265 360q-88 0 -150 -67q0 -260 152 -260q61 0 97 44t36 120v13q0 75 -35.5 112.5t-99.5 37.5zM402 643q11 -4 8 -14l-4 -16q-3 -10 -14 -8q-44 10 -86 10q-95 0 -139 -70.5t-51 -200.5q65 58 157 58q82 0 129.5 -50t47.5 -137v-19q0 -92 -53.5 -148.5t-131.5 -56.5 q-200 0 -200 308v9q0 188 75 278q58 70 171 70q52 0 91 -13z" />
<glyph unicode="7" d="M408 604h-331q-11 0 -11 12v20q0 11 11 11h366q9 0 12 -3t3 -11v-13q0 -13 -21 -55l-280 -554q-5 -11 -18 -11h-25q-16 0 -10 12z" />
<glyph unicode="8" d="M78 484v13q0 71 48.5 115t129.5 44q85 0 129 -42t44 -109v-13q0 -103 -107 -166q126 -46 126 -153v-9q0 -83 -53 -128t-139 -45q-88 0 -140.5 42.5t-52.5 131.5v4q0 56 30 100.5t84 69.5q-50 23 -74.5 62t-24.5 83zM114 167v-8q0 -62 39.5 -95t102.5 -33q64 0 102 34.5 t38 97.5v6q0 47 -29.5 77.5t-92.5 53.5l-57 21q-103 -48 -103 -154zM377 492v7q0 53 -31 85t-90 32q-60 0 -92.5 -33t-32.5 -87v-9q0 -49 27.5 -79t85.5 -52l37 -14q50 31 73 66t23 84z" />
<glyph unicode="9" d="M241 287q84 0 155 69q0 261 -143 261q-71 0 -107 -44.5t-36 -123.5v-11q0 -151 131 -151zM212 31q182 0 184 281q-28 -29 -71.5 -48t-92.5 -19q-81 0 -127.5 52t-46.5 138v19q0 89 51.5 145.5t141.5 56.5q56 0 95 -22.5t60.5 -65.5t31 -96.5t9.5 -123.5v-10 q0 -347 -235 -347q-64 0 -109 15q-9 3 -8 13l4 18q3 11 15 8q58 -14 98 -14z" />
<glyph unicode=":" horiz-adv-x="185" d="M132 51v-27q0 -17 -7.5 -25t-27.5 -8h-10q-34 0 -34 33v27q0 33 34 33h10q20 0 27.5 -8t7.5 -25zM132 432v-27q0 -17 -7.5 -25t-27.5 -8h-10q-34 0 -34 33v27q0 33 34 33h10q20 0 27.5 -8t7.5 -25z" />
<glyph unicode=";" horiz-adv-x="179" d="M85 87h13q39 0 39 -42v-20q0 -73 -52 -151q-4 -7 -11 -3l-19 11q-6 3 -1 10q27 42 37 77q3 13 -8 18l-12 5q-18 7 -18 29v33q0 33 32 33zM133 432v-27q0 -17 -7.5 -25t-27.5 -8h-10q-34 0 -34 33v27q0 33 34 33h10q20 0 27.5 -8t7.5 -25z" />
<glyph unicode="&#x3c;" d="M420 408l-273 -146l273 -146q10 -5 4 -15l-11 -21q-5 -8 -15 -2l-308 165q-5 3 -5 9v18q0 6 5 9l308 167q10 6 15 -2l11 -21q6 -10 -4 -15z" />
<glyph unicode="=" d="M452 329h-393q-6 0 -6 6v30q0 7 6 7h393q6 0 6 -6v-31q0 -6 -6 -6zM452 151h-393q-6 0 -6 6v30q0 7 6 7h393q6 0 6 -6v-31q0 -6 -6 -6z" />
<glyph unicode="&#x3e;" d="M365 262l-273 146q-10 5 -4 15l11 21q5 8 15 2l308 -167q5 -3 5 -9v-18q0 -6 -5 -9l-308 -165q-10 -6 -15 2l-11 21q-6 10 4 15z" />
<glyph unicode="?" horiz-adv-x="443" d="M181 170v-28q0 -11 -9 -11h-28q-9 0 -9 11v28q0 61 14.5 92t62.5 63l49 33q49 33 66.5 58.5t17.5 72.5v7q0 121 -143 121q-74 0 -142 -25q-9 -3 -10 6l-5 21q-1 8 5 11q72 26 156 26q187 0 187 -156v-12q0 -92 -96 -157l-50 -34q-43 -29 -54.5 -51.5t-11.5 -75.5zM197 40 v-14q0 -35 -32 -35h-12q-32 0 -32 35v14q0 36 32 36h12q32 0 32 -36z" />
<glyph unicode="@" horiz-adv-x="778" d="M458 210q-14 -27 -42 -45t-63 -18q-48 0 -76 31t-28 90q0 62 17 126q13 49 45.5 77t79.5 28q63 0 89 -50l6 26q3 10 14 10h14q7 0 10 -2t2 -10l-22 -170q-6 -42 -6 -58q0 -66 70 -66q58 0 88.5 52.5t30.5 140.5q0 118 -74.5 190t-204.5 72q-139 0 -224.5 -87t-85.5 -237 q0 -146 85 -221.5t228 -75.5q105 0 191 37q10 4 14 -5l5 -14q4 -11 -7 -16q-87 -42 -210 -42q-166 0 -259 88.5t-93 243.5q0 168 98 269.5t260 101.5q140 0 230 -81t90 -219q0 -113 -46 -174t-118 -61q-44 0 -73 20t-35 49zM460 295l6 49q3 24 3 37q0 80 -74 80 q-72 0 -91 -89q-12 -53 -12 -103q0 -83 66 -83q42 0 68.5 28.5t33.5 80.5z" />
<glyph unicode="A" d="M378 223h-244q-31 -106 -57 -215q-1 -8 -10 -8h-33q-8 0 -6 11q96 383 183 617q4 12 9.5 15.5t17.5 3.5h35q12 0 18 -3.5t10 -15.5q84 -231 183 -617q2 -11 -6 -11h-33q-9 0 -10 8q-26 109 -57 215zM145 265h222q-69 238 -104 342h-14q-35 -104 -104 -342z" />
<glyph unicode="B" horiz-adv-x="500" d="M222 0q-91 0 -131 5q-19 3 -19 20v593q0 16 17 21q51 17 133 17q193 0 193 -150v-15q0 -59 -25 -97t-73 -49v-3q138 -14 138 -148v-14q0 -97 -59 -138.5t-174 -41.5zM405 178v11q0 74 -43.5 101t-150.5 27h-93v-259q0 -12 12 -13q26 -3 89 -3q32 0 55.5 2t49.5 10.5 t42.5 22.5t27.5 39.5t11 61.5zM118 359h83q81 0 122.5 29t41.5 107v9q0 60 -36.5 85t-109.5 25q-59 0 -92 -9q-9 -3 -9 -12v-234z" />
<glyph unicode="C" horiz-adv-x="492" d="M280 656q96 0 166 -41q8 -5 4 -15l-8 -18q-4 -9 -15 -3q-72 35 -146 35q-85 0 -124 -39q-31 -31 -42 -85t-11 -150v-32q0 -105 9 -150.5t37 -79.5q38 -45 139 -45q70 0 144 27q11 4 14 -7l5 -21q2 -9 -6 -12q-72 -29 -162 -29q-128 0 -180 65q-28 35 -38 84.5t-10 154.5 v58q0 109 15.5 167t57.5 93q50 43 151 43z" />
<glyph unicode="D" horiz-adv-x="568" d="M219 616q-58 0 -89 -2q-12 -1 -12 -14v-549q0 -9 8 -9h92q130 0 180 44q66 57 66 228v27q0 87 -14.5 136t-45.5 83q-51 56 -185 56zM92 0q-20 0 -20 18v615q0 17 18 20q49 5 125 5q78 0 129.5 -12.5t91.5 -46t58 -94t18 -152.5v-47q0 -162 -60.5 -234t-208.5 -72h-151z " />
<glyph unicode="E" horiz-adv-x="455" d="M69 96q-6 62 -6 199v57q0 110 6 199q3 49 23 70q25 26 84 26h232q11 0 11 -11v-20q0 -11 -11 -11h-229q-35 0 -47 -12t-15 -49q-6 -84 -6 -188h244q11 0 11 -11v-20q0 -11 -11 -11h-244q0 -103 6 -211q3 -37 15 -49t47 -12h229q11 0 11 -11v-20q0 -11 -11 -11h-232 q-60 0 -83 24q-19 20 -24 72z" />
<glyph unicode="F" horiz-adv-x="428" d="M118 317v-306q0 -11 -9 -11h-28q-9 0 -9 11v533q0 62 27 83q24 20 81 20h205q11 0 11 -11v-19q0 -12 -11 -12h-201q-40 0 -53 -13t-13 -54v-179h231q11 0 11 -11v-20q0 -11 -11 -11h-231z" />
<glyph unicode="G" horiz-adv-x="549" d="M442 294h-112q-11 0 -11 11v20q0 11 11 11h148q10 0 10 -10v-294q0 -19 -19 -23q-72 -18 -161 -18q-139 0 -195.5 72t-56.5 231v58q0 158 58.5 231t190.5 73q89 0 161 -24q12 -4 10 -14l-4 -19q-3 -11 -16 -7q-76 22 -147 22q-110 0 -157.5 -59t-47.5 -216v-30 q0 -152 45.5 -214t160.5 -62q64 0 117 10q15 3 15 18v233z" />
<glyph unicode="H" horiz-adv-x="577" d="M505 636v-625q0 -11 -9 -11h-28q-9 0 -9 11v304h-341v-304q0 -11 -9 -11h-28q-9 0 -9 11v625q0 11 9 11h28q9 0 9 -11v-279h341v279q0 11 9 11h28q9 0 9 -11z" />
<glyph unicode="I" horiz-adv-x="202" d="M124 636v-625q0 -11 -9 -11h-28q-9 0 -9 11v625q0 11 9 11h28q9 0 9 -11z" />
<glyph unicode="J" horiz-adv-x="281" d="M31 42h37q68 0 87 38q4 8 6 16t3 21t1 20.5v26.5v26v446q0 11 9 11h28q9 0 9 -11v-444q0 -6 0.5 -24.5t0 -28t-1.5 -24.5t-3.5 -27.5t-7.5 -23.5q-26 -64 -131 -64h-37q-11 0 -11 11v20q0 11 11 11z" />
<glyph unicode="K" horiz-adv-x="476" d="M118 636v-282h80q21 0 31 15l185 272q4 6 14 6h31q11 0 5 -9l-189 -280q-8 -12 -8 -18q0 -5 8 -19l185 -308q7 -13 -7 -13h-30q-10 0 -15 8l-174 292q-7 12 -32 12h-84v-301q0 -11 -9 -11h-28q-9 0 -9 11v625q0 11 9 11h28q9 0 9 -11z" />
<glyph unicode="L" horiz-adv-x="355" d="M162 42h164q11 0 11 -11v-20q0 -11 -11 -11h-167q-47 0 -66 16q-21 18 -21 62v558q0 11 9 11h28q9 0 9 -11v-549q0 -27 9 -36t35 -9z" />
<glyph unicode="M" horiz-adv-x="726" d="M374 112h-23q-14 0 -20.5 6.5t-14.5 25.5q-95 238 -174 463h-6q-23 -261 -37 -599q0 -8 -10 -8h-30q-8 0 -8 11q13 321 40 610q3 26 29 26h30q15 0 21.5 -5t12.5 -21q107 -297 177 -472h4q70 175 177 472q6 16 12.5 21t21.5 5h30q26 0 29 -26q27 -289 40 -610 q0 -11 -8 -11h-30q-10 0 -10 8q-14 338 -37 599h-6q-79 -225 -174 -463q-8 -19 -15 -25.5t-21 -6.5z" />
<glyph unicode="N" horiz-adv-x="596" d="M435 21l-312 586h-6v-596q0 -11 -9 -11h-26q-10 0 -10 11v604q0 19 7 25.5t24 6.5h20q19 0 28 -6t18 -24l304 -577h6v596q0 11 9 11h26q10 0 10 -11v-606q0 -30 -27 -30h-27q-24 0 -35 21z" />
<glyph unicode="O" horiz-adv-x="568" d="M284 33q95 0 134 51q26 33 36 84.5t10 140.5v29q0 93 -9.5 142.5t-36.5 83.5q-38 50 -134 50t-134 -50q-27 -34 -36.5 -83.5t-9.5 -142.5v-29q0 -89 10 -140.5t36 -84.5q39 -51 134 -51zM284 -9q-117 0 -169 59q-33 36 -46 91.5t-13 153.5v56q0 98 13 154t46 92 q52 59 169 59t169 -59q33 -36 46 -92t13 -154v-56q0 -98 -13 -153.5t-46 -91.5q-52 -59 -169 -59z" />
<glyph unicode="P" horiz-adv-x="484" d="M221 614q-47 0 -89 -7q-14 -3 -14 -18v-289q48 -3 102 -3q95 0 138 34.5t43 121.5v9q0 79 -42 115.5t-138 36.5zM118 256v-245q0 -11 -9 -11h-28q-9 0 -9 11v612q0 18 15 21q63 12 130 12q124 0 178 -44.5t54 -147.5v-12q0 -197 -224 -197q-68 0 -107 1z" />
<glyph unicode="Q" horiz-adv-x="568" d="M411 -161q-84 51 -149 153q-101 5 -147 58q-33 36 -46 91.5t-13 153.5v56q0 98 13 154t46 92q52 59 169 59t169 -59q33 -36 46 -92t13 -154v-56q0 -98 -13 -153.5t-46 -91.5q-43 -49 -137 -57q43 -65 135 -126q11 -7 -1 -16l-16 -12q-10 -7 -23 0zM284 30q95 0 134 51 q26 33 36 86t10 142v29q0 94 -10 144.5t-36 84.5q-38 50 -134 50t-134 -50q-26 -34 -36 -84.5t-10 -144.5v-29q0 -89 10 -142t36 -86q39 -51 134 -51z" />
<glyph unicode="R" horiz-adv-x="503" d="M118 277v-266q0 -11 -9 -11h-28q-9 0 -9 11v612q0 18 15 21q63 12 130 12q126 0 179 -40.5t53 -139.5v-11q0 -156 -136 -182l158 -271q7 -12 -7 -12h-32q-12 0 -17 9l-151 267q-13 -1 -41 -1q-68 0 -105 2zM221 614q-47 0 -89 -7q-14 -3 -14 -18v-269q48 -3 99 -3 q97 0 140.5 32.5t43.5 118.5v9q0 75 -41.5 106t-138.5 31z" />
<glyph unicode="S" horiz-adv-x="447" d="M210 -9q-84 0 -161 32q-10 4 -6 13l7 23q3 10 13 5q65 -31 146 -31q151 0 151 132v12q0 61 -24.5 88.5t-92.5 43.5l-57 14q-142 34 -142 154v18q0 78 49.5 119.5t139.5 41.5q72 0 129 -18q11 -3 8 -15l-4 -20q-3 -10 -15 -6q-56 17 -121 17q-138 0 -138 -119v-11 q0 -54 30 -79.5t86 -39.5l56 -14q83 -21 113.5 -56t30.5 -106v-19q0 -90 -53 -134.5t-145 -44.5z" />
<glyph unicode="T" horiz-adv-x="478" d="M443 605h-181v-594q0 -11 -9 -11h-28q-9 0 -9 11v594h-181q-12 0 -12 10v22q0 10 12 10h408q12 0 12 -10v-22q0 -10 -12 -10z" />
<glyph unicode="U" horiz-adv-x="570" d="M285 -9q-112 0 -164 52q-51 50 -51 163v430q0 11 9 11h28q9 0 9 -11v-425q0 -96 37 -137q39 -45 132 -45t132 45q37 41 37 137v425q0 11 9 11h28q9 0 9 -11v-430q0 -113 -51 -163q-52 -52 -164 -52z" />
<glyph unicode="V" horiz-adv-x="522" d="M255 40h12q90 280 177 599q3 8 10 8h33q10 0 6 -11q-100 -356 -187 -617q-7 -19 -32 -19h-27q-24 0 -31 19q-97 283 -188 617q-2 11 6 11h33q7 0 10 -8q92 -332 178 -599z" />
<glyph unicode="W" horiz-adv-x="786" d="M398 578h-10q-75 -335 -132 -550q-4 -16 -12 -22t-23 -6h-25q-15 0 -22.5 5t-11.5 21q-80 287 -136 610q-2 11 6 11h32q9 0 10 -10q52 -312 130 -597h11q77 298 132 552q3 15 10 20t23 5h26q15 0 22.5 -5t10.5 -20q45 -209 132 -552h11q78 285 130 597q1 10 10 10h32 q8 0 6 -11q-56 -323 -136 -610q-4 -16 -11.5 -21t-22.5 -5h-25q-15 0 -23 6t-12 22q-57 215 -132 550z" />
<glyph unicode="X" horiz-adv-x="514" d="M267 314h-20q-16 0 -24.5 -5t-15.5 -19l-127 -282q-4 -8 -11 -8h-34q-11 0 -7 9l144 309q6 14 6 17q0 6 -6 18l-133 285q-2 3 0.5 6t6.5 3h28q11 0 17 -12l123 -263q9 -18 24 -18h38q15 0 24 18l123 263q6 12 17 12h28q4 0 6.5 -3t0.5 -6l-133 -285q-6 -12 -6 -18 q0 -3 6 -17l144 -309q4 -9 -7 -9h-34q-7 0 -11 8l-127 282q-7 14 -15.5 19t-24.5 5z" />
<glyph unicode="Y" horiz-adv-x="466" d="M256 224v-213q0 -11 -9 -11h-28q-9 0 -9 11v213q-61 108 -100 196t-82 216q-4 11 6 11h33q7 0 10 -8q68 -206 152 -358h8q84 152 152 358q3 8 10 8h33q10 0 6 -11q-43 -128 -82 -216t-100 -196z" />
<glyph unicode="Z" horiz-adv-x="473" d="M86 38h337q8 0 8 -8v-21q0 -9 -8 -9h-374q-13 0 -13 11v10q0 18 20 50l329 538h-325q-8 0 -8 9v20q0 9 8 9h359q12 0 12 -12v-10q0 -16 -5.5 -29.5t-27.5 -48.5z" />
<glyph unicode="[" horiz-adv-x="244" d="M221 -92h-144q-7 0 -7 7v760q0 7 7 7h144q7 0 7 -7v-27q0 -7 -7 -7h-103v-692h103q7 0 7 -7v-27q0 -7 -7 -7z" />
<glyph unicode="\" horiz-adv-x="308" d="M235 -17l-209 697q-2 10 8 10h28q8 0 11 -9l209 -697q3 -10 -8 -10h-28q-8 0 -11 9z" />
<glyph unicode="]" horiz-adv-x="244" d="M167 -92h-144q-7 0 -7 7v27q0 7 7 7h103v692h-103q-7 0 -7 7v27q0 7 7 7h144q7 0 7 -7v-760q0 -7 -7 -7z" />
<glyph unicode="^" d="M239 606h35q15 0 22 -11l150 -231q6 -8 -3 -14l-24 -11q-9 -6 -15 3l-143 212h-9l-142 -212q-6 -9 -15 -3l-25 11q-9 6 -3 14l150 231q7 11 22 11z" />
<glyph unicode="_" horiz-adv-x="467" d="M26 -58h415q6 0 6 -6v-19q0 -6 -6 -6h-415q-6 0 -6 6v19q0 6 6 6z" />
<glyph unicode="`" horiz-adv-x="278" d="M69 713l169 -95q8 -5 4 -16l-7 -16q-6 -11 -22 -3l-166 75q-21 7 -13 21l13 26q7 15 22 8z" />
<glyph unicode="a" horiz-adv-x="453" d="M343 149v91q-36 4 -67 4h-63q-69 0 -98 -22t-29 -74v-25q0 -50 22 -71.5t69 -21.5h39q127 0 127 119zM342 50h-2q-33 -59 -135 -59h-20q-78 0 -110.5 32t-32.5 107v12q0 74 38 107.5t141 33.5h50q28 0 72 -4v59q0 69 -29 95.5t-93 26.5q-58 0 -120 -18q-13 -4 -16 5 l-4 18q-2 10 8 14q62 20 137 20q86 0 123 -40t37 -131v-319q0 -9 -9 -9h-22q-9 0 -10 10z" />
<glyph unicode="b" horiz-adv-x="487" d="M393 229v35q0 105 -34 150t-107 45q-75 0 -109 -36t-34 -107v-147q0 -74 34 -106t104 -32q81 0 113.5 43t32.5 155zM109 669v-230h2q41 60 146 60q93 0 136.5 -55.5t43.5 -175.5v-47q0 -126 -46.5 -178t-144.5 -52q-96 0 -138 42.5t-42 132.5v503q0 8 7 8h28q8 0 8 -8z " />
<glyph unicode="c" horiz-adv-x="406" d="M363 44l4 -13q4 -12 -8 -17q-53 -23 -115 -23q-91 0 -138 44q-56 53 -56 197v34q0 139 54 190q44 43 132 43q85 0 137 -40q8 -5 3 -13l-13 -19q-4 -6 -13 0q-49 32 -115 32t-99 -31q-27 -26 -34.5 -66.5t-7.5 -105.5v-17q0 -122 42 -172q31 -36 108 -36q56 0 105 20 q10 4 14 -7z" />
<glyph unicode="d" horiz-adv-x="485" d="M376 173v137q0 71 -37 110t-107 39q-74 0 -106 -44t-32 -153v-35q0 -110 33.5 -153t111.5 -43q70 0 103.5 32.5t33.5 109.5zM376 435v234q0 8 7 8h28q8 0 8 -8v-510q0 -168 -179 -168q-101 0 -145.5 49.5t-44.5 178.5v49q0 122 41.5 176.5t141.5 54.5q101 0 141 -64h2z " />
<glyph unicode="e" horiz-adv-x="448" d="M396 318v-60q0 -23 -9 -32.5t-32 -9.5h-261q2 -105 34 -145t110 -40q64 0 120 23q10 4 13 -4l6 -16q4 -12 -8 -17q-59 -26 -131 -26q-103 0 -145.5 53t-42.5 178v45q0 122 42 177t137 55q167 0 167 -181zM95 258h244q6 0 8.5 0.5t4 4t1.5 11.5v31q0 82 -29.5 118 t-94.5 36q-72 0 -102.5 -43t-31.5 -158z" />
<glyph unicode="f" horiz-adv-x="264" d="M134 450v-442q0 -8 -8 -8h-28q-7 0 -7 8v442h-63q-6 0 -6 6v19q0 5 6 7l63 8v37q0 59 18 94q34 65 133 65q40 0 77 -10q8 -2 7 -13l-3 -17q-1 -9 -11 -7q-36 8 -65 8q-55 0 -79 -20q-20 -16 -27 -39.5t-7 -66.5v-31h109q8 0 8 -7v-26q0 -7 -8 -7h-109z" />
<glyph unicode="g" horiz-adv-x="461" d="M219 499q15 0 41 -2q34 67 104 67h22q8 0 8 -7v-27q0 -8 -8 -8h-28q-40 0 -55 -35q47 -14 68.5 -51t21.5 -116v-32q0 -125 -70 -163q44 -28 66 -61t22 -82v-17q0 -83 -50 -117.5t-141 -34.5q-105 0 -181 44q-8 5 -5 14l8 19q4 8 14 3q77 -40 168 -40q72 0 107.5 26 t35.5 89v10q0 85 -94 133q-25 -4 -54 -4q-92 0 -132 42.5t-40 138.5v32q0 99 42 139t130 40zM91 316v-25q0 -80 30.5 -112t97.5 -32q71 0 100.5 30t29.5 116v23q0 82 -31 112.5t-99 30.5t-98 -30t-30 -113z" />
<glyph unicode="h" horiz-adv-x="498" d="M431 305v-297q0 -8 -8 -8h-28q-7 0 -7 8v293q0 84 -31 121t-105 37q-65 0 -100.5 -36t-35.5 -108v-307q0 -8 -8 -8h-28q-7 0 -7 8v661q0 8 7 8h28q8 0 8 -8v-237q18 31 55 49.5t87 18.5q94 0 133.5 -47.5t39.5 -147.5z" />
<glyph unicode="i" horiz-adv-x="219" d="M145 624v-6q0 -39 -33 -39h-4q-19 0 -27.5 9t-8.5 30v6q0 38 36 38h4q33 0 33 -38zM131 482v-474q0 -8 -8 -8h-28q-7 0 -7 8v474q0 8 7 8h28q8 0 8 -8z" />
<glyph unicode="j" horiz-adv-x="220" d="M145 624v-6q0 -39 -33 -39h-4q-19 0 -27.5 9t-8.5 30v6q0 38 36 38h4q33 0 33 -38zM131 482v-481q0 -67 -17 -105q-34 -74 -129 -74h-35q-9 0 -9 9v23q0 8 8 8h31q66 0 90 40q18 31 18 95v485q0 8 7 8h28q8 0 8 -8z" />
<glyph unicode="k" horiz-adv-x="404" d="M116 241v-233q0 -8 -8 -8h-28q-7 0 -7 8v661q0 8 7 8h28q8 0 8 -8v-388h53q21 0 35 21l132 182q4 6 13 6h28q13 0 6 -11l-155 -212q-4 -5 0 -12l154 -244q7 -11 -6 -11h-27q-9 0 -14 8l-135 215q-10 18 -29 18h-55z" />
<glyph unicode="l" horiz-adv-x="234" d="M76 106v563q0 8 7 8h28q8 0 8 -8v-558q0 -42 11 -56.5t40 -14.5h26q7 0 7 -7v-25q0 -8 -8 -8h-23q-53 0 -74.5 23t-21.5 83z" />
<glyph unicode="m" horiz-adv-x="802" d="M565 499q109 0 148 -70q22 -40 22 -124v-297q0 -8 -8 -8h-28q-7 0 -7 8v293q0 108 -50 138q-33 20 -82 20q-90 0 -141 -67q7 -38 7 -87v-297q0 -8 -8 -8h-28q-7 0 -7 8v300q0 82 -31.5 116.5t-101.5 34.5q-65 0 -99.5 -36t-34.5 -104v-311q0 -8 -8 -8h-28q-7 0 -7 8v475 q0 7 7 7h22q9 0 9 -8l3 -48h2q37 65 138 65q57 0 92 -17t57 -55h2q51 72 160 72z" />
<glyph unicode="n" horiz-adv-x="498" d="M431 305v-297q0 -8 -8 -8h-28q-7 0 -7 8v293q0 108 -50 138q-31 19 -80 20q-69 2 -105.5 -32.5t-36.5 -111.5v-307q0 -8 -8 -8h-28q-7 0 -7 8v475q0 7 7 7h22q9 0 9 -8l3 -46h1q39 63 143 63q112 0 151 -70q22 -40 22 -124z" />
<glyph unicode="o" horiz-adv-x="470" d="M94 255v-20q0 -113 27 -153q34 -51 114 -51q79 0 114 51q27 41 27 153v20q0 113 -27 153q-35 51 -114 51t-114 -51q-27 -40 -27 -153zM420 267v-44q0 -142 -54 -191q-44 -41 -131 -41t-131 41q-54 49 -54 191v44q0 143 54 191q48 41 131 41q87 0 131 -41q54 -49 54 -191z " />
<glyph unicode="p" horiz-adv-x="495" d="M116 321v-152q0 -66 40 -102t110 -36q74 0 104.5 40t30.5 156v42q0 99 -28.5 144.5t-109.5 45.5q-147 0 -147 -138zM116 56v-226q0 -8 -8 -8h-28q-7 0 -7 8v653q0 7 7 7h22q9 0 9 -8l3 -51h2q41 68 150 68q101 0 140 -53.5t39 -167.5v-58q0 -116 -38.5 -172.5 t-136.5 -56.5q-63 0 -96.5 16.5t-54.5 48.5h-3z" />
<glyph unicode="q" horiz-adv-x="496" d="M423 481v-651q0 -8 -8 -8h-28q-7 0 -7 8v223h-3q-48 -62 -141 -62q-98 0 -142 52t-44 168v52q0 132 43 184t143 52q102 0 142 -62h2l4 43q0 10 10 10h19q10 0 10 -9zM234 459q-76 0 -108 -45t-32 -161v-37q0 -100 32.5 -142.5t114.5 -42.5q63 0 101 34.5t38 95.5v158 q0 69 -38.5 104.5t-107.5 35.5z" />
<glyph unicode="r" horiz-adv-x="284" d="M257 450h-30q-64 0 -89 -40q-22 -35 -22 -88v-314q0 -8 -8 -8h-28q-7 0 -7 8v475q0 7 7 7h20q10 0 11 -8l6 -49h1q31 57 109 57h31q8 0 8 -8v-23q0 -9 -9 -9z" />
<glyph unicode="s" horiz-adv-x="382" d="M179 -9q-72 0 -132 25q-8 4 -6 13l5 17q3 9 15 5q64 -22 122 -22q69 0 92.5 23.5t23.5 75.5v5q0 53 -17.5 72t-76.5 29l-45 8q-66 11 -91.5 41.5t-25.5 84.5v4q0 127 155 127q53 0 107 -14q11 -3 8 -13l-4 -16q-2 -9 -14 -6q-55 11 -100 11q-109 0 -109 -88v-4 q0 -44 22 -63t80 -29l45 -8q59 -11 84 -39.5t25 -90.5v-9q0 -75 -39 -107t-124 -32z" />
<glyph unicode="t" horiz-adv-x="294" d="M85 490v117q0 8 8 8h27q8 0 8 -8v-117h122q8 0 8 -7v-26q0 -7 -8 -7h-122v-291q0 -73 19 -95q23 -26 85 -26h30q8 0 8 -8v-22q0 -8 -8 -8h-36q-84 0 -115 40q-16 20 -21 44.5t-5 69.5v296h-70q-6 0 -6 6v19q0 5 6 7z" />
<glyph unicode="u" horiz-adv-x="482" d="M241 29q71 0 103 28q27 24 27 96v329q0 8 8 8h27q8 0 8 -8v-335q0 -84 -39 -119q-40 -37 -134 -37t-134 37q-39 35 -39 119v335q0 8 8 8h27q8 0 8 -8v-329q0 -72 27 -96q32 -28 103 -28z" />
<glyph unicode="v" horiz-adv-x="421" d="M220 0h-19q-22 0 -33 26q-85 212 -144 454q-3 10 7 10h25q10 0 12 -8q63 -253 137 -440h11q74 187 137 440q2 8 12 8h25q10 0 7 -10q-59 -242 -144 -454q-11 -26 -33 -26z" />
<glyph unicode="w" horiz-adv-x="656" d="M321 466h14q28 0 33 -21q49 -197 105 -403h11q70 243 104 440q1 8 10 8h24q11 0 10 -10q-49 -260 -109 -451q-9 -29 -37 -29h-15q-17 0 -24.5 6.5t-12.5 22.5q-49 164 -101 389h-10q-52 -225 -101 -389q-5 -16 -12.5 -22.5t-24.5 -6.5h-15q-28 0 -37 29q-60 191 -109 451 q-1 7 0.5 8.5t9.5 1.5h24q9 0 11 -8q36 -206 103 -440h11q56 206 105 403q5 21 33 21z" />
<glyph unicode="x" horiz-adv-x="408" d="M335 6l-102 213q-7 14 -23 14h-15q-10 0 -14 -2.5t-8 -11.5l-99 -213q-2 -6 -12 -6h-31q-9 0 -5 9l113 230q7 13 1 24l-106 217q-5 10 5 10h28q8 0 12 -6l92 -196q7 -15 21 -15h22q14 0 21 15l95 196q4 6 12 6h28q10 0 5 -10l-109 -217q-6 -11 1 -24l115 -229 q5 -10 -5 -10h-30q-10 0 -12 6z" />
<glyph unicode="y" horiz-adv-x="406" d="M225 53q72 190 114 429q1 8 10 8h26q10 0 7 -10q-53 -242 -96 -374.5t-112 -285.5q-4 -10 -13 -6l-23 10q-8 4 -4 12q42 83 77 177q-27 1 -43 13.5t-28 45.5q-55 150 -116 408q-3 10 7 10h26q9 0 11 -9q38 -174 99 -365q13 -39 22 -51t31 -12h5z" />
<glyph unicode="z" horiz-adv-x="386" d="M336 428l-243 -388h246q7 0 7 -7v-26q0 -7 -7 -7h-291q-8 0 -8 7v12q0 14 17 41l243 390h-243q-8 0 -8 7v26q0 7 8 7h289q8 0 8 -7v-10q0 -15 -18 -45z" />
<glyph unicode="{" horiz-adv-x="278" d="M139 -1v161q0 52 -18.5 77t-63.5 36q-7 1 -7 10v25q0 9 7 10q45 11 63.5 33t18.5 70v170q0 48 22 69.5t66 21.5h36q7 0 7 -7v-27q0 -7 -7 -7h-32q-28 0 -37.5 -13t-9.5 -56v-143q0 -62 -21 -93.5t-70 -38.5v-3q50 -14 70.5 -45.5t20.5 -93.5v-137q0 -43 9.5 -56t37.5 -13 h32q7 0 7 -7v-27q0 -7 -7 -7h-36q-44 0 -66 21.5t-22 69.5z" />
<glyph unicode="|" horiz-adv-x="181" d="M111 683v-697q0 -9 -8 -9h-25q-8 0 -8 9v697q0 9 8 9h25q8 0 8 -9z" />
<glyph unicode="}" horiz-adv-x="278" d="M139 160v-161q0 -48 -22 -69.5t-66 -21.5h-36q-7 0 -7 7v27q0 7 7 7h32q28 0 37.5 13t9.5 56v137q0 62 20.5 93.5t70.5 45.5v3q-49 7 -70 38.5t-21 93.5v143q0 43 -9.5 56t-37.5 13h-32q-7 0 -7 7v27q0 7 7 7h36q44 0 66 -21.5t22 -69.5v-170q0 -48 18.5 -70t63.5 -33 q7 -1 7 -10v-25q0 -9 -7 -10q-45 -11 -63.5 -36t-18.5 -77z" />
<glyph unicode="~" d="M265 289l-53 36q-38 27 -61 27q-22 0 -42 -17.5t-41 -66.5q-4 -10 -18 -4l-21 10q-8 5 -4 15q47 113 127 113q38 0 84 -32l57 -39q40 -26 66 -26q49 0 90 81q4 8 13 2l20 -12q9 -6 5 -15q-25 -55 -59 -80.5t-67 -25.5q-45 0 -96 34z" />
<glyph unicode="&#xa1;" horiz-adv-x="216" d="M121 -153h-27q-10 0 -10 10l4 483q0 10 8 10h23q8 0 8 -10l4 -483q0 -10 -10 -10zM146 464v-20q0 -36 -32 -36h-12q-32 0 -32 36v20q0 35 32 35h12q32 0 32 -35z" />
<glyph unicode="&#xa2;" d="M298 593v-100q72 -6 117 -38q9 -6 4 -14l-11 -18q-4 -7 -14 -1q-41 25 -96 32v-419q45 2 92 20q10 4 14 -7l4 -13q3 -11 -8 -16q-44 -20 -102 -23v-93q0 -9 -10 -9h-20q-9 0 -9 9v94q-72 4 -113 42q-56 53 -56 193v34q0 136 54 186q41 38 115 41v100q0 9 9 9h20 q10 0 10 -9zM176 71q24 -29 83 -35v418q-53 -3 -83 -29q-27 -26 -34.5 -65.5t-7.5 -103.5v-17q0 -120 42 -168z" />
<glyph unicode="&#xa3;" d="M136 43h311q11 0 11 -11v-20q0 -12 -11 -12h-371q-11 0 -11 11v8q0 13 17 27q39 32 56 75.5t17 109.5v87h-56q-10 0 -10 8v16q0 10 10 11l56 9v115q0 94 41 135q44 44 130 44q70 0 122 -19q11 -4 8 -13l-6 -19q-3 -10 -15 -6q-54 16 -106 16q-74 0 -100 -33t-26 -116 v-105h187q9 0 9 -8v-27q0 -8 -9 -8h-188v-79q0 -135 -66 -193v-3z" />
<glyph unicode="&#xa4;" d="M436 280q0 -58 -37 -108l75 -73q8 -7 0 -15l-17 -17q-8 -8 -16 0l-74 72q-47 -36 -109 -36q-65 0 -113 37l-74 -73q-8 -8 -16 0l-17 17q-8 8 0 15l76 75q-35 46 -35 106t35 106l-76 75q-8 7 0 15l17 17q8 8 16 0l74 -73q48 37 113 37q62 0 109 -36l74 72q8 8 16 0l17 -17 q8 -8 0 -15l-75 -73q37 -50 37 -108zM388 280q0 58 -38 96.5t-92 38.5q-55 0 -93 -38.5t-38 -96.5t38 -96.5t93 -38.5q54 0 92 38.5t38 96.5z" />
<glyph unicode="&#xa5;" d="M411 123h-132v-112q0 -11 -9 -11h-28q-9 0 -9 11v112h-134q-7 0 -7 6v30q0 6 7 6h134v59h-134q-7 0 -7 6v30q0 6 7 6h110q-89 165 -158 370q-4 11 6 11h33q7 0 10 -8q70 -213 153 -373h5q89 174 154 373q3 8 10 8h33q10 0 6 -11q-67 -201 -159 -370h109q7 0 7 -6v-30 q0 -6 -7 -6h-132v-59h132q7 0 7 -6v-30q0 -6 -7 -6z" />
<glyph unicode="&#xa6;" horiz-adv-x="181" d="M111 222v-236q0 -9 -8 -9h-25q-8 0 -8 9v236q0 9 8 9h25q8 0 8 -9zM111 683v-237q0 -9 -8 -9h-25q-8 0 -8 9v237q0 9 8 9h25q8 0 8 -9z" />
<glyph unicode="&#xa7;" horiz-adv-x="430" d="M184 423q-73 -12 -73 -85v-6q0 -36 15.5 -52.5t63.5 -25.5l59 -12q69 27 69 88v6q0 35 -16.5 51t-66.5 26zM321 647q10 -3 8 -13l-4 -17q-2 -10 -14 -6q-42 13 -93 13q-50 0 -74 -13q-32 -17 -32 -64v-6q0 -35 20.5 -53t70.5 -28l55 -11q56 -11 79.5 -36t23.5 -74v-9 q0 -33 -18 -59.5t-51 -39.5q68 -21 68 -107v-9q0 -124 -157 -124q-68 0 -127 23q-9 4 -7 13l5 19q3 10 16 6q57 -21 113 -21q64 0 90 22q24 18 24 61v6q0 39 -16.5 57t-69.5 28l-56 11q-61 12 -84 37.5t-23 75.5v10q0 35 19 61t53 37q-71 21 -71 102v9q0 63 46 91 q37 23 104 23q53 0 102 -15z" />
<glyph unicode="&#xa8;" horiz-adv-x="324" d="M76 686h10q20 0 27.5 -6.5t7.5 -25.5v-21q0 -18 -7.5 -24.5t-27.5 -6.5h-10q-20 0 -27 6.5t-7 24.5v21q0 18 7.5 25t26.5 7zM237 686h10q20 0 27.5 -6.5t7.5 -25.5v-21q0 -18 -7.5 -24.5t-27.5 -6.5h-10q-20 0 -27 6.5t-7 24.5v21q0 18 7.5 25t26.5 7z" />
<glyph unicode="&#xa9;" horiz-adv-x="796" d="M756 348q0 -166 -102 -264t-256 -98t-256 98t-102 264t102 264t256 98t256 -98t102 -264zM710 348q0 145 -88 231.5t-224 86.5t-224 -86.5t-88 -231.5t88 -231.5t224 -86.5t224 86.5t88 231.5zM290 356q0 -98 27.5 -141.5t93.5 -43.5q42 0 91 21q9 4 12 -5l5 -18 q3 -9 -6 -13q-51 -24 -104 -24q-75 0 -115 41q-49 50 -49 175v12q0 121 52 175q40 41 114 41q51 0 103 -25q9 -5 4 -15l-6 -14q-4 -9 -12 -5q-45 20 -87 20q-67 0 -95 -42t-28 -139z" />
<glyph unicode="&#xaa;" horiz-adv-x="297" d="M215 388v54q-16 2 -34 2h-33q-39 0 -54.5 -11.5t-15.5 -38.5v-16q0 -47 47 -47h23q67 0 67 57zM221 310l-3 25h-2q-18 -37 -74 -37h-19q-44 0 -65.5 19.5t-21.5 65.5v10q0 44 26.5 64t87.5 20h20q21 0 45 -2v30q0 32 -15.5 45.5t-51.5 13.5q-39 0 -78 -12q-9 -2 -10 5 l-3 18q-1 6 5 9q40 14 91 14q55 0 78.5 -22.5t23.5 -75.5v-190q0 -7 -7 -7h-18q-8 0 -9 7z" />
<glyph unicode="&#xab;" horiz-adv-x="447" d="M213 338l-114 -106l114 -108q7 -6 1 -12l-16 -16q-5 -5 -12 0l-136 115q-5 5 -5 12v17q0 7 5 12l136 114q7 5 12 0l16 -16q6 -6 -1 -12zM388 338l-114 -106l114 -108q6 -6 1 -12l-16 -16q-5 -5 -12 0l-136 115q-5 5 -5 12v17q0 7 5 12l136 114q7 5 12 0l16 -16 q5 -6 -1 -12z" />
<glyph unicode="&#xac;" d="M458 277v-226q0 -6 -6 -6h-29q-7 0 -7 6v189h-357q-6 0 -6 6v30q0 7 6 7h393q6 0 6 -6z" />
<glyph unicode="&#xad;" horiz-adv-x="275" d="M233 239h-191q-7 0 -7 7v30q0 7 7 7h191q7 0 7 -7v-30q0 -7 -7 -7z" />
<glyph unicode="&#xae;" horiz-adv-x="796" d="M756 348q0 -166 -102 -264t-256 -98t-256 98t-102 264t102 264t256 98t256 -98t102 -264zM710 348q0 145 -88 231.5t-224 86.5t-224 -86.5t-88 -231.5t88 -231.5t224 -86.5t224 86.5t88 231.5zM315 318v-170q0 -9 -10 -9h-22q-10 0 -10 9v394q0 19 18 22q38 8 92 8 q75 0 111 -33q33 -31 33 -92v-6q0 -58 -31 -89q-21 -22 -59 -31l87 -170q6 -12 -7 -12h-21q-8 0 -11 2t-7 9l-85 168h-78zM315 514v-159h67q55 0 80 23q22 22 22 66v2q0 46 -23.5 66.5t-76.5 20.5q-36 0 -58 -4q-7 -1 -9 -4t-2 -11z" />
<glyph unicode="&#xaf;" horiz-adv-x="321" d="M275 622h-229q-11 0 -11 11v21q0 12 11 12h229q11 0 11 -12v-21q0 -11 -11 -11z" />
<glyph unicode="&#xb0;" horiz-adv-x="294" d="M147 526q31 0 50.5 21t19.5 53t-19.5 52.5t-50.5 20.5t-50.5 -20.5t-19.5 -52.5t19.5 -53t50.5 -21zM147 489q-50 0 -81.5 32t-31.5 79t31.5 78.5t81.5 31.5t81.5 -31.5t31.5 -78.5t-31.5 -79t-81.5 -32z" />
<glyph unicode="&#xb1;" d="M452 335h-175v-175q0 -7 -6 -7h-30q-7 0 -7 7v175h-175q-6 0 -6 6v32q0 5 6 5h175v174q0 7 7 7h30q6 0 6 -7v-174h175q6 0 6 -6v-31q0 -6 -6 -6zM452 0h-393q-6 0 -6 6v30q0 7 6 7h393q6 0 6 -6v-31q0 -6 -6 -6z" />
<glyph unicode="&#xb2;" horiz-adv-x="302" d="M84 496v-7h164q6 0 6 -6v-22q0 -6 -6 -6h-199q-8 0 -8 8v18q0 48 14.5 76t50.5 46l53 26q27 13 37 27.5t10 38.5v6q0 30 -15 40.5t-50 10.5q-38 0 -74 -12q-9 -3 -10 4l-4 19q-1 7 5 10q42 14 87 14q53 0 79 -19t26 -62v-6q0 -37 -13.5 -58.5t-49.5 -39.5l-51 -25 q-31 -15 -41.5 -32.5t-10.5 -48.5z" />
<glyph unicode="&#xb3;" horiz-adv-x="302" d="M133 481q76 0 76 55v7q0 31 -19 45.5t-61 14.5h-20q-6 0 -6 7v20q0 8 7 8h19q40 0 55.5 14t15.5 45v7q0 25 -13.5 36.5t-45.5 11.5q-33 0 -68 -11q-9 -3 -10 4l-4 18q-1 7 5 10q40 14 85 14q95 0 95 -80v-8q0 -63 -53 -77v-2q27 -2 44.5 -22t17.5 -51v-10 q0 -44 -31 -67.5t-81 -23.5q-48 0 -89 15q-5 2 -3 8l4 21q2 7 8 4q35 -13 72 -13z" />
<glyph unicode="&#xb4;" horiz-adv-x="278" d="M36 618l169 95q15 7 22 -8l13 -26q8 -14 -13 -21l-166 -75q-16 -8 -22 3l-7 16q-4 11 4 16z" />
<glyph unicode="&#xb6;" horiz-adv-x="557" d="M503 654h-77v-764q0 -11 -11 -11h-25q-12 0 -12 11v764h-103v-764q0 -11 -11 -11h-25q-12 0 -12 11v450q-73 0 -126 47.5t-53 130.5q0 76 52.5 127.5t136.5 51.5h266q13 0 13 -12v-19q0 -12 -13 -12z" />
<glyph unicode="&#xb7;" horiz-adv-x="185" d="M132 306v-27q0 -17 -7.5 -25t-27.5 -8h-10q-34 0 -34 33v27q0 33 34 33h10q20 0 27.5 -8t7.5 -25z" />
<glyph unicode="&#xb8;" horiz-adv-x="224" d="M115 -8l-8 -62q18 4 34 4q30 0 48 -18t18 -54q0 -90 -105 -90q-39 0 -69 10q-7 2 -6 10l4 22q2 8 10 5q29 -8 63 -8q30 0 44 11t14 37q0 37 -39 37q-17 0 -39 -5q-7 -1 -11 1l-7 4q-5 4 -4 10l12 87q1 6 7 6h28q7 0 6 -7z" />
<glyph unicode="&#xb9;" horiz-adv-x="302" d="M256 455h-211q-6 0 -6 6v22q0 6 6 6h84v252h-3l-66 -48q-6 -5 -10 1l-14 19q-4 5 3 10l59 42q18 13 32 13h30q13 0 13 -11v-278h83q6 0 6 -6v-22q0 -6 -6 -6z" />
<glyph unicode="&#xba;" horiz-adv-x="313" d="M78 450v-6q0 -66 17 -89.5t61 -23.5q45 0 62 23.5t17 89.5v6q0 66 -17.5 90.5t-61.5 24.5q-43 0 -60.5 -24.5t-17.5 -90.5zM277 460v-24q0 -77 -28.5 -107.5t-92.5 -30.5t-92 30.5t-28 107.5v24q0 77 28.5 107.5t91.5 30.5q64 0 92.5 -30.5t28.5 -107.5z" />
<glyph unicode="&#xbb;" horiz-adv-x="451" d="M173 232l-114 106q-7 6 -1 12l16 16q5 5 12 0l136 -114q5 -5 5 -12v-17q0 -7 -5 -12l-136 -115q-7 -5 -12 0l-16 16q-6 6 1 12zM352 232l-114 106q-6 6 -1 12l16 16q5 5 12 0l136 -114q5 -5 5 -12v-17q0 -7 -5 -12l-136 -115q-7 -5 -12 0l-16 16q-5 6 1 12z" />
<glyph unicode="&#xbc;" horiz-adv-x="764" d="M660 88h-38v-81q0 -7 -6 -7h-30q-8 0 -8 7v81h-150q-8 0 -8 6v23q0 6 8 17l126 181q6 9 16 9h44q8 0 8 -8v-194h38q6 0 6 -5v-24q0 -5 -6 -5zM574 284l-111 -162h115v162h-4zM585 647l-376 -656q-3 -7 -11 -7h-30q-10 0 -4 9l376 656q4 7 11 7h30q9 0 4 -9zM277 324h-211 q-6 0 -6 6v22q0 6 6 6h84v252h-3l-66 -48q-6 -5 -10 1l-14 19q-4 5 3 10l59 42q18 13 32 13h30q13 0 13 -11v-278h83q6 0 6 -6v-22q0 -6 -6 -6z" />
<glyph unicode="&#xbd;" horiz-adv-x="764" d="M585 647l-376 -656q-3 -7 -11 -7h-30q-10 0 -4 9l376 656q4 7 11 7h30q9 0 4 -9zM277 324h-211q-6 0 -6 6v22q0 6 6 6h84v252h-3l-66 -48q-6 -5 -10 1l-14 19q-4 5 3 10l59 42q18 13 32 13h30q13 0 13 -11v-278h83q6 0 6 -6v-22q0 -6 -6 -6zM526 41v-7h164q6 0 6 -6v-22 q0 -6 -6 -6h-199q-8 0 -8 8v18q0 48 14.5 76t50.5 46l53 26q27 13 37 27.5t10 38.5v6q0 30 -15 40.5t-50 10.5q-38 0 -74 -12q-9 -3 -10 4l-4 19q-1 8 5 10q42 14 87 14q53 0 79 -19t26 -62v-6q0 -37 -13.5 -58.5t-49.5 -39.5l-51 -25q-31 -15 -41.5 -32.5t-10.5 -48.5z" />
<glyph unicode="&#xbe;" horiz-adv-x="764" d="M660 88h-38v-81q0 -7 -6 -7h-30q-8 0 -8 7v81h-150q-8 0 -8 6v23q0 6 8 17l126 181q6 9 16 9h44q8 0 8 -8v-194h38q6 0 6 -5v-24q0 -5 -6 -5zM574 284l-111 -162h115v162h-4zM585 647l-376 -656q-3 -7 -11 -7h-30q-10 0 -4 9l376 656q4 7 11 7h30q9 0 4 -9zM166 350 q76 0 76 55v7q0 31 -19 45.5t-61 14.5h-20q-6 0 -6 7v20q0 8 7 8h19q40 0 55.5 14t15.5 45v7q0 25 -13.5 36.5t-45.5 11.5q-33 0 -68 -11q-9 -3 -10 4l-4 18q-1 8 5 10q40 14 85 14q95 0 95 -80v-8q0 -63 -53 -77v-2q27 -2 44.5 -22t17.5 -51v-10q0 -44 -31 -67.5t-81 -23.5 q-48 0 -89 15q-5 2 -3 8l4 21q2 7 8 4q35 -13 72 -13z" />
<glyph unicode="&#xbf;" horiz-adv-x="443" d="M262 320v28q0 11 9 11h28q9 0 9 -11v-28q0 -61 -14.5 -92t-62.5 -63l-49 -33q-49 -33 -66.5 -58.5t-17.5 -72.5v-7q0 -121 143 -121q74 0 142 25q9 3 10 -6l5 -21q1 -8 -5 -11q-72 -26 -156 -26q-187 0 -187 156v12q0 92 96 157l50 34q43 29 54.5 51.5t11.5 75.5z M246 450v14q0 35 32 35h12q32 0 32 -35v-14q0 -36 -32 -36h-12q-32 0 -32 36z" />
<glyph unicode="&#xc0;" d="M378 223h-244q-31 -106 -57 -215q-1 -8 -10 -8h-33q-8 0 -6 11q96 383 183 617q4 12 9.5 15.5t17.5 3.5h35q12 0 18 -3.5t10 -15.5q84 -231 183 -617q2 -11 -6 -11h-33q-9 0 -10 8q-26 109 -57 215zM145 265h222q-69 238 -104 342h-14q-35 -104 -104 -342zM145 827 l179 -74q9 -4 6 -15l-6 -17q-4 -12 -21 -6l-174 55q-21 6 -15 20l10 27q6 16 21 10z" />
<glyph unicode="&#xc1;" d="M378 223h-244q-31 -106 -57 -215q-1 -8 -10 -8h-33q-8 0 -6 11q96 383 183 617q4 12 9.5 15.5t17.5 3.5h35q12 0 18 -3.5t10 -15.5q84 -231 183 -617q2 -11 -6 -11h-33q-9 0 -10 8q-26 109 -57 215zM145 265h222q-69 238 -104 342h-14q-35 -104 -104 -342zM192 753 l179 74q15 6 21 -10l10 -27q6 -14 -15 -20l-174 -55q-17 -6 -21 6l-6 17q-3 11 6 15z" />
<glyph unicode="&#xc2;" d="M378 223h-244q-31 -106 -57 -215q-1 -8 -10 -8h-33q-8 0 -6 11q96 383 183 617q4 12 9.5 15.5t17.5 3.5h35q12 0 18 -3.5t10 -15.5q84 -231 183 -617q2 -11 -6 -11h-33q-9 0 -10 8q-26 109 -57 215zM145 265h222q-69 238 -104 342h-14q-35 -104 -104 -342zM118 745 l111 122q6 7 15 7h24q9 0 15 -7l111 -122q8 -8 1 -15l-19 -16q-8 -6 -17 3l-100 103h-6l-100 -103q-10 -10 -17 -3l-19 16q-8 6 1 15z" />
<glyph unicode="&#xc3;" d="M378 223h-244q-31 -106 -57 -215q-1 -8 -10 -8h-33q-8 0 -6 11q96 383 183 617q4 12 9.5 15.5t17.5 3.5h35q12 0 18 -3.5t10 -15.5q84 -231 183 -617q2 -11 -6 -11h-33q-9 0 -10 8q-26 109 -57 215zM145 265h222q-69 238 -104 342h-14q-35 -104 -104 -342zM123 735 l-20 13q-8 5 -2 14q35 73 97 73q28 0 59 -23l27 -21q21 -15 37 -15q29 0 59 51q4 5 9 3l21 -14q8 -5 3 -13q-18 -33 -44.5 -54t-53.5 -21q-31 0 -58 22l-26 20q-23 17 -39 17q-29 0 -57 -50q-4 -7 -12 -2z" />
<glyph unicode="&#xc4;" d="M378 223h-244q-31 -106 -57 -215q-1 -8 -10 -8h-33q-8 0 -6 11q96 383 183 617q4 12 9.5 15.5t17.5 3.5h35q12 0 18 -3.5t10 -15.5q84 -231 183 -617q2 -11 -6 -11h-33q-9 0 -10 8q-26 109 -57 215zM145 265h222q-69 238 -104 342h-14q-35 -104 -104 -342zM170 823h10 q20 0 27.5 -6.5t7.5 -25.5v-21q0 -18 -7.5 -24.5t-27.5 -6.5h-10q-20 0 -27 6.5t-7 24.5v21q0 18 7.5 25t26.5 7zM331 823h10q20 0 27.5 -6.5t7.5 -25.5v-21q0 -18 -7.5 -24.5t-27.5 -6.5h-10q-20 0 -27 6.5t-7 24.5v21q0 18 7.5 25t26.5 7z" />
<glyph unicode="&#xc5;" d="M378 223h-244q-31 -106 -57 -215q-1 -8 -10 -8h-33q-8 0 -6 11q96 383 183 617q4 12 9.5 15.5t17.5 3.5h35q12 0 18 -3.5t10 -15.5q84 -231 183 -617q2 -11 -6 -11h-33q-9 0 -10 8q-26 109 -57 215zM145 265h222q-69 238 -104 342h-14q-35 -104 -104 -342zM165 796 q0 42 26 65.5t65 23.5t65 -23.5t26 -65.5t-26 -65.5t-65 -23.5t-65 23.5t-26 65.5zM208 796q0 -23 13.5 -36t34.5 -13q22 0 35 13t13 36t-13 36t-35 13q-21 0 -34.5 -13t-13.5 -36z" />
<glyph unicode="&#xc6;" horiz-adv-x="771" d="M724 605h-295v-249h255q11 0 11 -11v-20q0 -11 -11 -11h-255v-212q0 -34 12.5 -47t48.5 -13h229q11 0 11 -11v-20q0 -11 -11 -11h-234q-54 0 -78.5 22.5t-24.5 73.5v127h-204l-98 -211q-4 -12 -13 -12h-32q-13 0 -6 13q179 375 302 602q10 18 20 25t30 7h343q11 0 11 -11 v-20q0 -11 -11 -11zM374 605q-126 -240 -174 -340h182v340h-8z" />
<glyph unicode="&#xc7;" horiz-adv-x="492" d="M281 614q-85 0 -124 -39q-31 -31 -42 -85t-11 -150v-32q0 -105 9 -150.5t37 -79.5q38 -45 139 -45q77 0 145 28q10 4 13 -5l5 -24q3 -8 -6 -12q-67 -28 -155 -29l-8 -61q18 4 34 4q30 0 48 -18t18 -54q0 -90 -105 -90q-39 0 -69 10q-7 2 -6 10l4 22q2 8 10 5q29 -8 63 -8 q30 0 44 11t14 37q0 37 -39 37q-17 0 -39 -5q-7 -1 -11 1l-7 4q-5 4 -4 10l12 86q-102 7 -146 64q-28 35 -38 84.5t-10 154.5v58q0 109 15.5 167t57.5 93q50 43 151 43q96 0 166 -41q8 -5 4 -15l-8 -18q-4 -9 -15 -3q-72 35 -146 35z" />
<glyph unicode="&#xc8;" horiz-adv-x="455" d="M69 96q-6 62 -6 199v57q0 110 6 199q3 49 23 70q25 26 84 26h232q11 0 11 -11v-20q0 -11 -11 -11h-229q-35 0 -47 -12t-15 -49q-6 -84 -6 -188h244q11 0 11 -11v-20q0 -11 -11 -11h-244q0 -103 6 -211q3 -37 15 -49t47 -12h229q11 0 11 -11v-20q0 -11 -11 -11h-232 q-60 0 -83 24q-19 20 -24 72zM172 813l179 -74q9 -4 6 -15l-6 -17q-4 -12 -21 -6l-174 55q-21 6 -15 20l10 27q6 16 21 10z" />
<glyph unicode="&#xc9;" horiz-adv-x="455" d="M69 96q-6 62 -6 199v57q0 110 6 199q3 49 23 70q25 26 84 26h232q11 0 11 -11v-20q0 -11 -11 -11h-229q-35 0 -47 -12t-15 -49q-6 -84 -6 -188h244q11 0 11 -11v-20q0 -11 -11 -11h-244q0 -103 6 -211q3 -37 15 -49t47 -12h229q11 0 11 -11v-20q0 -11 -11 -11h-232 q-60 0 -83 24q-19 20 -24 72zM178 739l179 74q15 6 21 -10l10 -27q6 -14 -15 -20l-174 -55q-17 -6 -21 6l-6 17q-3 11 6 15z" />
<glyph unicode="&#xca;" horiz-adv-x="455" d="M69 96q-6 62 -6 199v57q0 110 6 199q3 49 23 70q25 26 84 26h232q11 0 11 -11v-20q0 -11 -11 -11h-229q-35 0 -47 -12t-15 -49q-6 -84 -6 -188h244q11 0 11 -11v-20q0 -11 -11 -11h-244q0 -103 6 -211q3 -37 15 -49t47 -12h229q11 0 11 -11v-20q0 -11 -11 -11h-232 q-60 0 -83 24q-19 20 -24 72zM117 731l111 122q6 7 15 7h24q9 0 15 -7l111 -122q8 -8 1 -15l-19 -16q-8 -6 -17 3l-100 103h-6l-100 -103q-10 -10 -17 -3l-19 16q-8 6 1 15z" />
<glyph unicode="&#xcb;" horiz-adv-x="455" d="M69 96q-6 62 -6 199v57q0 110 6 199q3 49 23 70q25 26 84 26h232q11 0 11 -11v-20q0 -11 -11 -11h-229q-35 0 -47 -12t-15 -49q-6 -84 -6 -188h244q11 0 11 -11v-20q0 -11 -11 -11h-244q0 -103 6 -211q3 -37 15 -49t47 -12h229q11 0 11 -11v-20q0 -11 -11 -11h-232 q-60 0 -83 24q-19 20 -24 72zM169 809h10q20 0 27.5 -6.5t7.5 -25.5v-21q0 -18 -7.5 -24.5t-27.5 -6.5h-10q-20 0 -27 6.5t-7 24.5v21q0 18 7.5 25t26.5 7zM330 809h10q20 0 27.5 -6.5t7.5 -25.5v-21q0 -18 -7.5 -24.5t-27.5 -6.5h-10q-20 0 -27 6.5t-7 24.5v21q0 18 7.5 25 t26.5 7z" />
<glyph unicode="&#xcc;" horiz-adv-x="202" d="M124 636v-625q0 -11 -9 -11h-28q-9 0 -9 11v625q0 11 9 11h28q9 0 9 -11zM-10 813l179 -74q9 -4 6 -15l-6 -17q-4 -12 -21 -6l-174 55q-21 6 -15 20l10 27q6 16 21 10z" />
<glyph unicode="&#xcd;" horiz-adv-x="202" d="M124 636v-625q0 -11 -9 -11h-28q-9 0 -9 11v625q0 11 9 11h28q9 0 9 -11zM33 739l179 74q15 6 21 -10l10 -27q6 -14 -15 -20l-174 -55q-17 -6 -21 6l-6 17q-3 11 6 15z" />
<glyph unicode="&#xce;" horiz-adv-x="202" d="M124 636v-625q0 -11 -9 -11h-28q-9 0 -9 11v625q0 11 9 11h28q9 0 9 -11zM-37 731l111 122q6 7 15 7h24q9 0 15 -7l111 -122q8 -8 1 -15l-19 -16q-8 -6 -17 3l-100 103h-6l-100 -103q-10 -10 -17 -3l-19 16q-8 6 1 15z" />
<glyph unicode="&#xcf;" horiz-adv-x="202" d="M124 636v-625q0 -11 -9 -11h-28q-9 0 -9 11v625q0 11 9 11h28q9 0 9 -11zM17 809h10q20 0 27.5 -6.5t7.5 -25.5v-21q0 -18 -7.5 -24.5t-27.5 -6.5h-10q-20 0 -27 6.5t-7 24.5v21q0 18 7.5 25t26.5 7zM178 809h10q20 0 27.5 -6.5t7.5 -25.5v-21q0 -18 -7.5 -24.5 t-27.5 -6.5h-10q-20 0 -27 6.5t-7 24.5v21q0 18 7.5 25t26.5 7z" />
<glyph unicode="&#xd0;" horiz-adv-x="587" d="M262 0h-151q-20 -2 -20 18v297h-71q-10 0 -10 8v22q0 8 10 8h71v280q0 17 18 20q49 5 125 5q78 0 129.5 -12.5t91.5 -46t58 -94t18 -152.5v-47q0 -162 -60.5 -234t-208.5 -72zM238 616q-58 0 -89 -2q-12 -1 -12 -14v-247h153q10 0 10 -8v-22q0 -8 -10 -8h-153v-264 q0 -9 8 -9h92q130 0 180 44q64 55 64 228v27q0 88 -14 137t-44 82q-51 56 -185 56z" />
<glyph unicode="&#xd1;" horiz-adv-x="596" d="M435 21l-312 586h-6v-596q0 -11 -9 -11h-26q-10 0 -10 11v604q0 19 7 25.5t24 6.5h20q19 0 28 -6t18 -24l304 -577h6v596q0 11 9 11h26q10 0 10 -11v-606q0 -30 -27 -30h-27q-24 0 -35 21zM162 721l-20 13q-8 5 -2 14q35 73 97 73q28 0 59 -23l27 -21q21 -15 37 -15 q29 0 59 51q4 5 9 3l21 -14q8 -5 3 -13q-18 -33 -44.5 -54t-53.5 -21q-30 0 -58 22l-26 20q-23 17 -39 17q-29 0 -57 -50q-4 -7 -12 -2z" />
<glyph unicode="&#xd2;" horiz-adv-x="568" d="M284 33q95 0 134 51q26 33 36 84.5t10 140.5v29q0 93 -9.5 142.5t-36.5 83.5q-38 50 -134 50t-134 -50q-27 -34 -36.5 -83.5t-9.5 -142.5v-29q0 -89 10 -140.5t36 -84.5q39 -51 134 -51zM284 -9q-117 0 -169 59q-33 36 -46 91.5t-13 153.5v56q0 98 13 154t46 92 q52 59 169 59t169 -59q33 -36 46 -92t13 -154v-56q0 -98 -13 -153.5t-46 -91.5q-52 -59 -169 -59zM202 813l179 -74q9 -4 6 -15l-6 -17q-4 -12 -21 -6l-174 55q-21 6 -15 20l10 27q6 16 21 10z" />
<glyph unicode="&#xd3;" horiz-adv-x="568" d="M284 33q95 0 134 51q26 33 36 84.5t10 140.5v29q0 93 -9.5 142.5t-36.5 83.5q-38 50 -134 50t-134 -50q-27 -34 -36.5 -83.5t-9.5 -142.5v-29q0 -89 10 -140.5t36 -84.5q39 -51 134 -51zM284 -9q-117 0 -169 59q-33 36 -46 91.5t-13 153.5v56q0 98 13 154t46 92 q52 59 169 59t169 -59q33 -36 46 -92t13 -154v-56q0 -98 -13 -153.5t-46 -91.5q-52 -59 -169 -59zM213 739l179 74q15 6 21 -10l10 -27q6 -14 -15 -20l-174 -55q-17 -6 -21 6l-6 17q-3 11 6 15z" />
<glyph unicode="&#xd4;" horiz-adv-x="568" d="M284 33q95 0 134 51q26 33 36 84.5t10 140.5v29q0 93 -9.5 142.5t-36.5 83.5q-38 50 -134 50t-134 -50q-27 -34 -36.5 -83.5t-9.5 -142.5v-29q0 -89 10 -140.5t36 -84.5q39 -51 134 -51zM284 -9q-117 0 -169 59q-33 36 -46 91.5t-13 153.5v56q0 98 13 154t46 92 q52 59 169 59t169 -59q33 -36 46 -92t13 -154v-56q0 -98 -13 -153.5t-46 -91.5q-52 -59 -169 -59zM148 731l111 122q6 7 15 7h24q9 0 15 -7l111 -122q8 -8 1 -15l-19 -16q-8 -6 -17 3l-100 103h-6l-100 -103q-10 -10 -17 -3l-19 16q-8 6 1 15z" />
<glyph unicode="&#xd5;" horiz-adv-x="568" d="M284 33q95 0 134 51q26 33 36 84.5t10 140.5v29q0 93 -9.5 142.5t-36.5 83.5q-38 50 -134 50t-134 -50q-27 -34 -36.5 -83.5t-9.5 -142.5v-29q0 -89 10 -140.5t36 -84.5q39 -51 134 -51zM284 -9q-117 0 -169 59q-33 36 -46 91.5t-13 153.5v56q0 98 13 154t46 92 q52 59 169 59t169 -59q33 -36 46 -92t13 -154v-56q0 -98 -13 -153.5t-46 -91.5q-52 -59 -169 -59zM156 721l-20 13q-8 5 -2 14q35 73 97 73q28 0 59 -23l27 -21q21 -15 37 -15q29 0 59 51q4 5 9 3l21 -14q8 -5 3 -13q-18 -33 -44.5 -54t-53.5 -21q-30 0 -58 22l-26 20 q-23 17 -39 17q-29 0 -57 -50q-4 -7 -12 -2z" />
<glyph unicode="&#xd6;" horiz-adv-x="568" d="M284 33q95 0 134 51q26 33 36 84.5t10 140.5v29q0 93 -9.5 142.5t-36.5 83.5q-38 50 -134 50t-134 -50q-27 -34 -36.5 -83.5t-9.5 -142.5v-29q0 -89 10 -140.5t36 -84.5q39 -51 134 -51zM284 -9q-117 0 -169 59q-33 36 -46 91.5t-13 153.5v56q0 98 13 154t46 92 q52 59 169 59t169 -59q33 -36 46 -92t13 -154v-56q0 -98 -13 -153.5t-46 -91.5q-52 -59 -169 -59zM201 809h10q20 0 27.5 -6.5t7.5 -25.5v-21q0 -18 -7.5 -24.5t-27.5 -6.5h-10q-20 0 -27 6.5t-7 24.5v21q0 18 7.5 25t26.5 7zM362 809h10q20 0 27.5 -6.5t7.5 -25.5v-21 q0 -18 -7.5 -24.5t-27.5 -6.5h-10q-20 0 -27 6.5t-7 24.5v21q0 18 7.5 25t26.5 7z" />
<glyph unicode="&#xd7;" d="M409 385l-123 -124l123 -123q5 -6 1 -10l-21 -21q-6 -4 -10 0l-124 124l-124 -124q-3 -5 -8 0l-21 21q-6 6 -1 10l124 123l-123 123q-6 6 0 10l21 22q5 3 9 -1l123 -123l124 124q5 3 8 0l22 -22q5 -4 0 -9z" />
<glyph unicode="&#xd8;" horiz-adv-x="568" d="M284 -9q-77 0 -126 25l-31 -60q-4 -6 -12 -2l-19 10q-7 4 -3 11l32 64q-4 3 -10 11q-33 36 -46 91.5t-13 153.5v56q0 98 13 154t46 92q52 59 169 59q88 0 137 -32l32 62q4 6 12 2l19 -10q7 -4 3 -11l-35 -69q33 -36 46.5 -92t13.5 -155v-56q0 -98 -13 -153.5t-46 -91.5 q-52 -59 -169 -59zM104 309q0 -87 10 -138t35 -85l251 495q-40 33 -116 33q-96 0 -134 -50q-27 -34 -36.5 -83.5t-9.5 -142.5v-29zM284 33q95 0 134 51q26 33 36 84.5t10 140.5v29q0 153 -37 211l-248 -491q40 -25 105 -25z" />
<glyph unicode="&#xd9;" horiz-adv-x="570" d="M285 -9q-112 0 -164 52q-51 50 -51 163v430q0 11 9 11h28q9 0 9 -11v-425q0 -96 37 -137q39 -45 132 -45t132 45q37 41 37 137v425q0 11 9 11h28q9 0 9 -11v-430q0 -113 -51 -163q-52 -52 -164 -52zM200 813l179 -74q9 -4 6 -15l-6 -17q-4 -12 -21 -6l-174 55 q-21 6 -15 20l10 27q6 16 21 10z" />
<glyph unicode="&#xda;" horiz-adv-x="570" d="M285 -9q-112 0 -164 52q-51 50 -51 163v430q0 11 9 11h28q9 0 9 -11v-425q0 -96 37 -137q39 -45 132 -45t132 45q37 41 37 137v425q0 11 9 11h28q9 0 9 -11v-430q0 -113 -51 -163q-52 -52 -164 -52zM187 739l179 74q15 6 21 -10l10 -27q6 -14 -15 -20l-174 -55 q-17 -6 -21 6l-6 17q-3 11 6 15z" />
<glyph unicode="&#xdb;" horiz-adv-x="570" d="M285 -9q-112 0 -164 52q-51 50 -51 163v430q0 11 9 11h28q9 0 9 -11v-425q0 -96 37 -137q39 -45 132 -45t132 45q37 41 37 137v425q0 11 9 11h28q9 0 9 -11v-430q0 -113 -51 -163q-52 -52 -164 -52zM149 731l111 122q6 7 15 7h24q9 0 15 -7l111 -122q8 -8 1 -15l-19 -16 q-8 -6 -17 3l-100 103h-6l-100 -103q-10 -10 -17 -3l-19 16q-8 6 1 15z" />
<glyph unicode="&#xdc;" horiz-adv-x="570" d="M285 -9q-112 0 -164 52q-51 50 -51 163v430q0 11 9 11h28q9 0 9 -11v-425q0 -96 37 -137q39 -45 132 -45t132 45q37 41 37 137v425q0 11 9 11h28q9 0 9 -11v-430q0 -113 -51 -163q-52 -52 -164 -52zM198 809h10q20 0 27.5 -6.5t7.5 -25.5v-21q0 -18 -7.5 -24.5 t-27.5 -6.5h-10q-20 0 -27 6.5t-7 24.5v21q0 18 7.5 25t26.5 7zM359 809h10q20 0 27.5 -6.5t7.5 -25.5v-21q0 -18 -7.5 -24.5t-27.5 -6.5h-10q-20 0 -27 6.5t-7 24.5v21q0 18 7.5 25t26.5 7z" />
<glyph unicode="&#xdd;" horiz-adv-x="466" d="M256 11v213q61 108 100 196t82 216q4 11 -6 11h-33q-7 0 -10 -8q-68 -206 -152 -358h-8q-84 152 -152 358q-3 8 -10 8h-33q-10 0 -6 -11q43 -128 82 -216t100 -196v-213q0 -11 9 -11h28q9 0 9 11zM151 739l179 74q15 6 21 -10l10 -27q6 -14 -15 -20l-174 -55 q-17 -6 -21 6l-6 17q-3 11 6 15z" />
<glyph unicode="&#xde;" horiz-adv-x="484" d="M118 649v-100q50 8 99 8q124 0 178 -45t54 -148v-11q0 -197 -224 -197q-66 0 -107 2v-147q0 -11 -9 -11h-28q-9 0 -9 11v638q0 11 9 11h28q9 0 9 -11zM221 515q-51 0 -103 -9v-305q48 -3 102 -3q95 0 137 34.5t42 121.5v13q0 79 -41 113.5t-137 34.5z" />
<glyph unicode="&#xdf;" horiz-adv-x="488" d="M73 -48v564q0 170 167 170q74 0 120 -38.5t46 -115.5v-14q0 -57 -25 -97.5t-72 -55.5v-3q70 -7 102 -48.5t32 -117.5v-11q0 -104 -39 -149t-139 -45q-55 0 -102 15q-7 2 -6 11l4 20q1 8 10 6q42 -12 96 -12q76 0 104 34.5t28 120.5v5q0 81 -37 114t-121 33h-34 q-11 0 -11 10v18q0 12 11 12h23q65 0 98.5 40.5t33.5 98.5v9q0 59 -31.5 89.5t-91.5 30.5q-66 0 -94.5 -34t-28.5 -117v-543q0 -8 -8 -8h-28q-7 0 -7 8z" />
<glyph unicode="&#xe0;" horiz-adv-x="453" d="M343 149v91q-36 4 -67 4h-63q-69 0 -98 -22t-29 -74v-25q0 -50 22 -71.5t69 -21.5h39q127 0 127 119zM342 50h-2q-33 -59 -135 -59h-20q-78 0 -110.5 32t-32.5 107v12q0 74 38 107.5t141 33.5h50q28 0 72 -4v59q0 69 -29 95.5t-93 26.5q-58 0 -120 -18q-13 -4 -16 5 l-4 18q-2 10 8 14q62 20 137 20q86 0 123 -40t37 -131v-319q0 -9 -9 -9h-22q-9 0 -10 10zM154 713l169 -95q8 -5 4 -16l-7 -16q-6 -11 -22 -3l-166 75q-21 7 -13 21l13 26q7 15 22 8z" />
<glyph unicode="&#xe1;" horiz-adv-x="453" d="M343 149v91q-36 4 -67 4h-63q-69 0 -98 -22t-29 -74v-25q0 -50 22 -71.5t69 -21.5h39q127 0 127 119zM342 50h-2q-33 -59 -135 -59h-20q-78 0 -110.5 32t-32.5 107v12q0 74 38 107.5t141 33.5h50q28 0 72 -4v59q0 69 -29 95.5t-93 26.5q-58 0 -120 -18q-13 -4 -16 5 l-4 18q-2 10 8 14q62 20 137 20q86 0 123 -40t37 -131v-319q0 -9 -9 -9h-22q-9 0 -10 10zM150 618l169 95q15 7 22 -8l13 -26q8 -14 -13 -21l-166 -75q-16 -8 -22 3l-7 16q-4 11 4 16z" />
<glyph unicode="&#xe2;" horiz-adv-x="453" d="M343 149v91q-36 4 -67 4h-63q-69 0 -98 -22t-29 -74v-25q0 -50 22 -71.5t69 -21.5h39q127 0 127 119zM342 50h-2q-33 -59 -135 -59h-20q-78 0 -110.5 32t-32.5 107v12q0 74 38 107.5t141 33.5h50q28 0 72 -4v59q0 69 -29 95.5t-93 26.5q-58 0 -120 -18q-13 -4 -16 5 l-4 18q-2 10 8 14q62 20 137 20q86 0 123 -40t37 -131v-319q0 -9 -9 -9h-22q-9 0 -10 10zM96 603l111 122q6 7 15 7h24q9 0 15 -7l111 -122q8 -8 1 -15l-19 -16q-8 -6 -17 3l-100 103h-6l-100 -103q-10 -10 -17 -3l-19 16q-8 6 1 15z" />
<glyph unicode="&#xe3;" horiz-adv-x="453" d="M343 149v91q-36 4 -67 4h-63q-69 0 -98 -22t-29 -74v-25q0 -50 22 -71.5t69 -21.5h39q127 0 127 119zM342 50h-2q-33 -59 -135 -59h-20q-78 0 -110.5 32t-32.5 107v12q0 74 38 107.5t141 33.5h50q28 0 72 -4v59q0 69 -29 95.5t-93 26.5q-58 0 -120 -18q-13 -4 -16 5 l-4 18q-2 10 8 14q62 20 137 20q86 0 123 -40t37 -131v-319q0 -9 -9 -9h-22q-9 0 -10 10zM97 596l-20 13q-8 5 -2 14q35 73 97 73q28 0 59 -23l27 -21q21 -15 37 -15q29 0 59 51q4 5 9 3l21 -14q8 -5 3 -13q-18 -33 -44.5 -54t-53.5 -21q-31 0 -58 22l-26 20q-23 17 -39 17 q-29 0 -57 -50q-4 -7 -12 -2z" />
<glyph unicode="&#xe4;" horiz-adv-x="453" d="M343 149v91q-36 4 -67 4h-63q-69 0 -98 -22t-29 -74v-25q0 -50 22 -71.5t69 -21.5h39q127 0 127 119zM342 50h-2q-33 -59 -135 -59h-20q-78 0 -110.5 32t-32.5 107v12q0 74 38 107.5t141 33.5h50q28 0 72 -4v59q0 69 -29 95.5t-93 26.5q-58 0 -120 -18q-13 -4 -16 5 l-4 18q-2 10 8 14q62 20 137 20q86 0 123 -40t37 -131v-319q0 -9 -9 -9h-22q-9 0 -10 10zM145 686h10q20 0 27.5 -6.5t7.5 -25.5v-21q0 -18 -7.5 -24.5t-27.5 -6.5h-10q-20 0 -27 6.5t-7 24.5v21q0 18 7.5 25t26.5 7zM306 686h10q20 0 27.5 -6.5t7.5 -25.5v-21 q0 -18 -7.5 -24.5t-27.5 -6.5h-10q-20 0 -27 6.5t-7 24.5v21q0 18 7.5 25t26.5 7z" />
<glyph unicode="&#xe5;" horiz-adv-x="453" d="M343 149v91q-36 4 -67 4h-63q-69 0 -98 -22t-29 -74v-25q0 -50 22 -71.5t69 -21.5h39q127 0 127 119zM342 50h-2q-33 -59 -135 -59h-20q-78 0 -110.5 32t-32.5 107v12q0 74 38 107.5t141 33.5h50q28 0 72 -4v59q0 69 -29 95.5t-93 26.5q-58 0 -120 -18q-13 -4 -16 5 l-4 18q-2 10 8 14q62 20 137 20q86 0 123 -40t37 -131v-319q0 -9 -9 -9h-22q-9 0 -10 10zM147 639q0 42 26 65.5t65 23.5t65 -23.5t26 -65.5t-26 -65.5t-65 -23.5t-65 23.5t-26 65.5zM190 639q0 -23 13.5 -36t34.5 -13q22 0 35 13t13 36t-13 36t-35 13q-21 0 -34.5 -13 t-13.5 -36z" />
<glyph unicode="&#xe6;" horiz-adv-x="741" d="M689 322v-64q0 -23 -9 -32.5t-32 -9.5h-261q2 -105 34 -145t110 -40q64 0 120 23q9 4 13 -4l7 -16q5 -10 -9 -16q-61 -27 -131 -27q-66 0 -109 23.5t-54 66.5q-22 -90 -163 -90h-20q-77 0 -110 32t-33 107v12q0 74 38 107.5t141 33.5h50q28 0 72 -4v59q0 69 -29 95.5 t-93 26.5t-120 -18q-13 -4 -16 5l-4 18q-2 10 8 14q62 20 139 20q117 0 144 -79q38 79 150 79q86 0 126.5 -41t40.5 -136zM343 149v61v12v18q-36 4 -67 4h-63q-69 0 -98 -22t-29 -74v-25q0 -50 21.5 -71.5t69.5 -21.5h48q118 0 118 119zM388 258h242q6 0 8.5 0.5t4 4 t1.5 11.5v35q0 83 -28.5 116.5t-93.5 33.5q-73 0 -103 -42t-31 -159z" />
<glyph unicode="&#xe7;" horiz-adv-x="399" d="M235 459q-66 0 -99 -31q-27 -26 -34.5 -66.5t-7.5 -105.5v-17q0 -122 42 -172q31 -36 108 -36q56 0 105 20q10 4 14 -7l4 -13q4 -12 -8 -17q-53 -23 -115 -23h-2l-8 -61q18 4 34 4q30 0 48 -18t18 -54q0 -90 -105 -90q-39 0 -69 10q-7 2 -6 10l4 22q2 8 10 5q29 -8 63 -8 q30 0 44 11t14 37q0 37 -39 37q-16 0 -39 -5q-7 -1 -11 1l-7 4q-5 4 -4 10l12 87v1q-62 9 -95 41q-56 53 -56 197v34q0 139 54 190q44 43 132 43q85 0 137 -40q8 -5 3 -13l-13 -19q-4 -6 -13 0q-49 32 -115 32z" />
<glyph unicode="&#xe8;" horiz-adv-x="448" d="M396 318v-60q0 -23 -9 -32.5t-32 -9.5h-261q2 -105 34 -145t110 -40q64 0 120 23q10 4 13 -4l6 -16q4 -12 -8 -17q-59 -26 -131 -26q-103 0 -145.5 53t-42.5 178v45q0 122 42 177t137 55q167 0 167 -181zM95 258h244q6 0 8.5 0.5t4 4t1.5 11.5v31q0 82 -29.5 118 t-94.5 36q-72 0 -102.5 -43t-31.5 -158zM152 713l169 -95q8 -5 4 -16l-7 -16q-6 -11 -22 -3l-166 75q-21 7 -13 21l13 26q7 15 22 8z" />
<glyph unicode="&#xe9;" horiz-adv-x="448" d="M396 318v-60q0 -23 -9 -32.5t-32 -9.5h-261q2 -105 34 -145t110 -40q64 0 120 23q10 4 13 -4l6 -16q4 -12 -8 -17q-59 -26 -131 -26q-103 0 -145.5 53t-42.5 178v45q0 122 42 177t137 55q167 0 167 -181zM95 258h244q6 0 8.5 0.5t4 4t1.5 11.5v31q0 82 -29.5 118 t-94.5 36q-72 0 -102.5 -43t-31.5 -158zM136 618l169 95q15 7 22 -8l13 -26q8 -14 -13 -21l-166 -75q-16 -8 -22 3l-7 16q-4 11 4 16z" />
<glyph unicode="&#xea;" horiz-adv-x="448" d="M396 318v-60q0 -23 -9 -32.5t-32 -9.5h-261q2 -105 34 -145t110 -40q64 0 120 23q10 4 13 -4l6 -16q4 -12 -8 -17q-59 -26 -131 -26q-103 0 -145.5 53t-42.5 178v45q0 122 42 177t137 55q167 0 167 -181zM95 258h244q6 0 8.5 0.5t4 4t1.5 11.5v31q0 82 -29.5 118 t-94.5 36q-72 0 -102.5 -43t-31.5 -158zM93 603l111 122q6 7 15 7h24q9 0 15 -7l111 -122q8 -8 1 -15l-19 -16q-8 -6 -17 3l-100 103h-6l-100 -103q-10 -10 -17 -3l-19 16q-8 6 1 15z" />
<glyph unicode="&#xeb;" horiz-adv-x="448" d="M396 318v-60q0 -23 -9 -32.5t-32 -9.5h-261q2 -105 34 -145t110 -40q64 0 120 23q10 4 13 -4l6 -16q4 -12 -8 -17q-59 -26 -131 -26q-103 0 -145.5 53t-42.5 178v45q0 122 42 177t137 55q167 0 167 -181zM95 258h244q6 0 8.5 0.5t4 4t1.5 11.5v31q0 82 -29.5 118 t-94.5 36q-72 0 -102.5 -43t-31.5 -158zM147 686h10q20 0 27.5 -6.5t7.5 -25.5v-21q0 -18 -7.5 -24.5t-27.5 -6.5h-10q-20 0 -27 6.5t-7 24.5v21q0 18 7.5 25t26.5 7zM308 686h10q20 0 27.5 -6.5t7.5 -25.5v-21q0 -18 -7.5 -24.5t-27.5 -6.5h-10q-20 0 -27 6.5t-7 24.5v21 q0 18 7.5 25t26.5 7z" />
<glyph unicode="&#xec;" horiz-adv-x="219" d="M16 714l169 -95q8 -5 4 -16l-7 -16q-6 -11 -22 -3l-166 75q-21 7 -13 21l13 26q7 15 22 8zM131 482v-474q0 -8 -8 -8h-28q-7 0 -7 8v474q0 8 7 8h28q8 0 8 -8z" />
<glyph unicode="&#xed;" horiz-adv-x="219" d="M55 618l169 95q15 7 22 -8l13 -26q8 -14 -13 -21l-166 -75q-16 -8 -22 3l-7 16q-4 11 4 16zM131 482v-474q0 -8 -8 -8h-28q-7 0 -7 8v474q0 8 7 8h28q8 0 8 -8z" />
<glyph unicode="&#xee;" horiz-adv-x="219" d="M131 482v-474q0 -8 -8 -8h-28q-7 0 -7 8v474q0 8 7 8h28q8 0 8 -8zM-28 603l111 122q6 7 15 7h24q9 0 15 -7l111 -122q8 -8 1 -15l-19 -16q-8 -6 -17 3l-100 103h-6l-100 -103q-10 -10 -17 -3l-19 16q-8 6 1 15z" />
<glyph unicode="&#xef;" horiz-adv-x="219" d="M24 686h10q20 0 27.5 -6.5t7.5 -25.5v-21q0 -18 -7.5 -24.5t-27.5 -6.5h-10q-20 0 -27 6.5t-7 24.5v21q0 18 7.5 25t26.5 7zM185 686h10q20 0 27.5 -6.5t7.5 -25.5v-21q0 -18 -7.5 -24.5t-27.5 -6.5h-10q-20 0 -27 6.5t-7 24.5v21q0 18 7.5 25t26.5 7zM131 482v-474 q0 -8 -8 -8h-28q-7 0 -7 8v474q0 8 7 8h28q8 0 8 -8z" />
<glyph unicode="&#xf0;" horiz-adv-x="501" d="M358 678l-73 -53q163 -138 163 -375v-28q0 -108 -54.5 -169.5t-145.5 -61.5q-96 0 -147 60.5t-51 157.5v30q0 104 48.5 164t145.5 60q79 0 126 -45l2 2q-36 104 -121 180l-93 -68q-7 -5 -13 4l-9 12q-5 8 2 14l84 60q-39 28 -84 47q-9 3 -6 12l8 19q4 9 12 6 q55 -23 105 -58l79 57q8 6 13 -1l11 -14q4 -7 -2 -12zM247 422q-153 0 -153 -191v-11q0 -188 156 -188q74 0 114 51t40 147v11q0 181 -157 181z" />
<glyph unicode="&#xf1;" horiz-adv-x="498" d="M431 305v-297q0 -8 -8 -8h-28q-7 0 -7 8v293q0 108 -50 138q-31 19 -80 20q-69 2 -105.5 -32.5t-36.5 -111.5v-307q0 -8 -8 -8h-28q-7 0 -7 8v475q0 7 7 7h22q9 0 9 -8l3 -46h1q39 63 143 63q112 0 151 -70q22 -40 22 -124zM118 596l-20 13q-8 5 -2 14q35 73 97 73 q28 0 59 -23l27 -21q21 -15 37 -15q29 0 59 51q4 5 9 3l21 -14q8 -5 3 -13q-18 -33 -44.5 -54t-53.5 -21q-30 0 -58 22l-26 20q-23 17 -39 17q-29 0 -57 -50q-4 -7 -12 -2z" />
<glyph unicode="&#xf2;" horiz-adv-x="470" d="M94 255v-20q0 -113 27 -153q34 -51 114 -51q79 0 114 51q27 41 27 153v20q0 113 -27 153q-35 51 -114 51t-114 -51q-27 -40 -27 -153zM420 267v-44q0 -142 -54 -191q-44 -41 -131 -41t-131 41q-54 49 -54 191v44q0 143 54 191q48 41 131 41q87 0 131 -41q54 -49 54 -191z M153 713l169 -95q8 -5 4 -16l-7 -16q-6 -11 -22 -3l-166 75q-21 7 -13 21l13 26q7 15 22 8z" />
<glyph unicode="&#xf3;" horiz-adv-x="470" d="M94 255v-20q0 -113 27 -153q34 -51 114 -51q79 0 114 51q27 41 27 153v20q0 113 -27 153q-35 51 -114 51t-114 -51q-27 -40 -27 -153zM420 267v-44q0 -142 -54 -191q-44 -41 -131 -41t-131 41q-54 49 -54 191v44q0 143 54 191q48 41 131 41q87 0 131 -41q54 -49 54 -191z M141 618l169 95q15 7 22 -8l13 -26q8 -14 -13 -21l-166 -75q-16 -8 -22 3l-7 16q-4 11 4 16z" />
<glyph unicode="&#xf4;" horiz-adv-x="470" d="M94 255v-20q0 -113 27 -153q34 -51 114 -51q79 0 114 51q27 41 27 153v20q0 113 -27 153q-35 51 -114 51t-114 -51q-27 -40 -27 -153zM420 267v-44q0 -142 -54 -191q-44 -41 -131 -41t-131 41q-54 49 -54 191v44q0 143 54 191q48 41 131 41q87 0 131 -41q54 -49 54 -191z M100 603l111 122q6 7 15 7h24q9 0 15 -7l111 -122q8 -8 1 -15l-19 -16q-8 -6 -17 3l-100 103h-6l-100 -103q-10 -10 -17 -3l-19 16q-8 6 1 15z" />
<glyph unicode="&#xf5;" horiz-adv-x="470" d="M94 255v-20q0 -113 27 -153q34 -51 114 -51q79 0 114 51q27 41 27 153v20q0 113 -27 153q-35 51 -114 51t-114 -51q-27 -40 -27 -153zM420 267v-44q0 -142 -54 -191q-44 -41 -131 -41t-131 41q-54 49 -54 191v44q0 143 54 191q48 41 131 41q87 0 131 -41q54 -49 54 -191z M103 596l-20 13q-8 5 -2 14q35 73 97 73q28 0 59 -23l27 -21q21 -15 37 -15q29 0 59 51q4 5 9 3l21 -14q8 -5 3 -13q-18 -33 -44.5 -54t-53.5 -21q-31 0 -58 22l-26 20q-23 17 -39 17q-29 0 -57 -50q-4 -7 -12 -2z" />
<glyph unicode="&#xf6;" horiz-adv-x="470" d="M94 255v-20q0 -113 27 -153q34 -51 114 -51q79 0 114 51q27 41 27 153v20q0 113 -27 153q-35 51 -114 51t-114 -51q-27 -40 -27 -153zM420 267v-44q0 -142 -54 -191q-44 -41 -131 -41t-131 41q-54 49 -54 191v44q0 143 54 191q48 41 131 41q87 0 131 -41q54 -49 54 -191z M150 686h10q20 0 27.5 -6.5t7.5 -25.5v-21q0 -18 -7.5 -24.5t-27.5 -6.5h-10q-20 0 -27 6.5t-7 24.5v21q0 18 7.5 25t26.5 7zM311 686h10q20 0 27.5 -6.5t7.5 -25.5v-21q0 -18 -7.5 -24.5t-27.5 -6.5h-10q-20 0 -27 6.5t-7 24.5v21q0 18 7.5 25t26.5 7z" />
<glyph unicode="&#xf7;" d="M296 102v-28q0 -17 -8 -25t-30 -8h-12q-37 0 -37 33v28q0 33 37 33h12q22 0 30 -8t8 -25zM296 449v-28q0 -17 -8 -25t-30 -8h-12q-37 0 -37 33v28q0 33 37 33h12q22 0 30 -8t8 -25zM452 240h-393q-6 0 -6 6v30q0 7 6 7h393q6 0 6 -6v-31q0 -6 -6 -6z" />
<glyph unicode="&#xf8;" horiz-adv-x="470" d="M420 267v-44q0 -142 -54 -191q-44 -41 -131 -41q-60 0 -102 20l-29 -58q-3 -7 -12 -3l-16 8q-8 5 -4 12l31 62q-53 49 -53 191v44q0 143 54 191q48 41 131 41q55 0 96 -18l30 60q3 7 12 3l16 -8q8 -5 4 -12l-32 -62l5 -4q54 -49 54 -191zM349 408l-9 11l-187 -368 q32 -20 82 -20q79 0 114 51q27 41 27 153v20q0 113 -27 153zM94 255v-20q0 -113 27 -153l4 -6l186 366q-31 17 -76 17q-79 0 -114 -51q-27 -40 -27 -153z" />
<glyph unicode="&#xf9;" horiz-adv-x="482" d="M241 29q71 0 103 28q27 24 27 96v329q0 8 8 8h27q8 0 8 -8v-335q0 -84 -39 -119q-40 -37 -134 -37t-134 37q-39 35 -39 119v335q0 8 8 8h27q8 0 8 -8v-329q0 -72 27 -96q32 -28 103 -28zM155 713l169 -95q8 -5 4 -16l-7 -16q-6 -11 -22 -3l-166 75q-21 7 -13 21l13 26 q7 15 22 8z" />
<glyph unicode="&#xfa;" horiz-adv-x="482" d="M241 29q71 0 103 28q27 24 27 96v329q0 8 8 8h27q8 0 8 -8v-335q0 -84 -39 -119q-40 -37 -134 -37t-134 37q-39 35 -39 119v335q0 8 8 8h27q8 0 8 -8v-329q0 -72 27 -96q32 -28 103 -28zM159 618l169 95q15 7 22 -8l13 -26q8 -14 -13 -21l-166 -75q-16 -8 -22 3l-7 16 q-4 11 4 16z" />
<glyph unicode="&#xfb;" horiz-adv-x="482" d="M241 29q71 0 103 28q27 24 27 96v329q0 8 8 8h27q8 0 8 -8v-335q0 -84 -39 -119q-40 -37 -134 -37t-134 37q-39 35 -39 119v335q0 8 8 8h27q8 0 8 -8v-329q0 -72 27 -96q32 -28 103 -28zM104 603l111 122q6 7 15 7h24q9 0 15 -7l111 -122q8 -8 1 -15l-19 -16q-8 -6 -17 3 l-100 103h-6l-100 -103q-10 -10 -17 -3l-19 16q-8 6 1 15z" />
<glyph unicode="&#xfc;" horiz-adv-x="482" d="M241 29q71 0 103 28q27 24 27 96v329q0 8 8 8h27q8 0 8 -8v-335q0 -84 -39 -119q-40 -37 -134 -37t-134 37q-39 35 -39 119v335q0 8 8 8h27q8 0 8 -8v-329q0 -72 27 -96q32 -28 103 -28zM157 686h10q20 0 27.5 -6.5t7.5 -25.5v-21q0 -18 -7.5 -24.5t-27.5 -6.5h-10 q-20 0 -27 6.5t-7 24.5v21q0 18 7.5 25t26.5 7zM318 686h10q20 0 27.5 -6.5t7.5 -25.5v-21q0 -18 -7.5 -24.5t-27.5 -6.5h-10q-20 0 -27 6.5t-7 24.5v21q0 18 7.5 25t26.5 7z" />
<glyph unicode="&#xfd;" horiz-adv-x="406" d="M225 53q72 190 114 429q1 8 10 8h26q10 0 7 -10q-53 -242 -96 -374.5t-112 -285.5q-4 -10 -13 -6l-23 10q-8 4 -4 12q42 83 77 177q-27 1 -43 13.5t-28 45.5q-55 150 -116 408q-3 10 7 10h26q9 0 11 -9q38 -174 99 -365q13 -39 22 -51t31 -12h5zM135 618l169 95 q15 7 22 -8l13 -26q8 -14 -13 -21l-166 -75q-16 -8 -22 3l-7 16q-4 11 4 16z" />
<glyph unicode="&#xfe;" horiz-adv-x="495" d="M116 431h2q21 35 54.5 51.5t93.5 16.5q101 0 140 -53.5t39 -167.5v-58q0 -116 -38.5 -172.5t-136.5 -56.5q-63 0 -96.5 16.5t-54.5 48.5h-3v-226q0 -8 -8 -8h-28q-7 0 -7 8v839q0 8 7 8h28q8 0 8 -8v-238zM116 321v-152q0 -66 40 -102t110 -36q74 0 104.5 40t30.5 156v42 q0 99 -28.5 144.5t-109.5 45.5q-147 0 -147 -138z" />
<glyph unicode="&#xff;" horiz-adv-x="406" d="M225 53q72 190 114 429q1 8 10 8h26q10 0 7 -10q-53 -242 -96 -374.5t-112 -285.5q-4 -10 -13 -6l-23 10q-8 4 -4 12q42 83 77 177q-27 1 -43 13.5t-28 45.5q-55 150 -116 408q-3 10 7 10h26q9 0 11 -9q38 -174 99 -365q13 -39 22 -51t31 -12h5zM122 686h10 q20 0 27.5 -6.5t7.5 -25.5v-21q0 -18 -7.5 -24.5t-27.5 -6.5h-10q-20 0 -27 6.5t-7 24.5v21q0 18 7.5 25t26.5 7zM283 686h10q20 0 27.5 -6.5t7.5 -25.5v-21q0 -18 -7.5 -24.5t-27.5 -6.5h-10q-20 0 -27 6.5t-7 24.5v21q0 18 7.5 25t26.5 7z" />
<glyph unicode="&#x100;" d="M378 223h-244q-31 -106 -57 -215q-1 -8 -10 -8h-33q-8 0 -6 11q96 383 183 617q4 12 9.5 15.5t17.5 3.5h35q12 0 18 -3.5t10 -15.5q84 -231 183 -617q2 -11 -6 -11h-33q-9 0 -10 8q-26 109 -57 215zM145 265h222q-69 238 -104 342h-14q-35 -104 -104 -342zM371 733h-229 q-11 0 -11 11v21q0 12 11 12h229q11 0 11 -12v-21q0 -11 -11 -11z" />
<glyph unicode="&#x101;" horiz-adv-x="453" d="M343 149v91q-36 4 -67 4h-63q-69 0 -98 -22t-29 -74v-25q0 -50 22 -71.5t69 -21.5h39q127 0 127 119zM342 50h-2q-33 -59 -135 -59h-20q-78 0 -110.5 32t-32.5 107v12q0 74 38 107.5t141 33.5h50q28 0 72 -4v59q0 69 -29 95.5t-93 26.5q-58 0 -120 -18q-13 -4 -16 5 l-4 18q-2 10 8 14q62 20 137 20q86 0 123 -40t37 -131v-319q0 -9 -9 -9h-22q-9 0 -10 10zM349 622h-229q-11 0 -11 11v21q0 12 11 12h229q11 0 11 -12v-21q0 -11 -11 -11z" />
<glyph unicode="&#x102;" d="M378 223h-244q-31 -106 -57 -215q-1 -8 -10 -8h-33q-8 0 -6 11q96 383 183 617q4 12 9.5 15.5t17.5 3.5h35q12 0 18 -3.5t10 -15.5q84 -231 183 -617q2 -11 -6 -11h-33q-9 0 -10 8q-26 109 -57 215zM145 265h222q-69 238 -104 342h-14q-35 -104 -104 -342zM256 703 q-49 0 -88 27.5t-53 80.5q-4 12 7 15l21 6q12 4 15 -6q23 -81 98 -81q36 0 62.5 20.5t36.5 60.5q3 10 15 6l21 -6q10 -3 7 -15q-14 -53 -53 -80.5t-89 -27.5z" />
<glyph unicode="&#x103;" horiz-adv-x="453" d="M343 149v91q-36 4 -67 4h-63q-69 0 -98 -22t-29 -74v-25q0 -50 22 -71.5t69 -21.5h39q127 0 127 119zM342 50h-2q-33 -59 -135 -59h-20q-78 0 -110.5 32t-32.5 107v12q0 74 38 107.5t141 33.5h50q28 0 72 -4v59q0 69 -29 95.5t-93 26.5q-58 0 -120 -18q-13 -4 -16 5 l-4 18q-2 10 8 14q62 20 137 20q86 0 123 -40t37 -131v-319q0 -9 -9 -9h-22q-9 0 -10 10zM232 571q-49 0 -88 27.5t-53 80.5q-4 12 7 15l21 6q12 4 15 -6q23 -81 98 -81q36 0 62.5 20.5t36.5 60.5q3 10 15 6l21 -6q10 -3 7 -15q-14 -53 -53 -80.5t-89 -27.5z" />
<glyph unicode="&#x104;" horiz-adv-x="513" d="M145 265h222q-69 238 -104 342h-14q-35 -104 -104 -342zM435 8q-26 109 -57 215h-244q-31 -106 -57 -215q-1 -8 -10 -8h-33q-8 0 -6 11q96 383 183 617q4 12 9.5 15.5t17.5 3.5h35q12 0 18 -3.5t10 -15.5q94 -258 182 -613q3 -11 -5 -15q-87 -42 -87 -108q0 -45 51 -45 q32 0 54 10q7 4 10 -4l6 -22q2 -6 -6 -10q-30 -15 -74 -15q-41 0 -64 20t-23 57t24.5 71.5t65.5 53.5z" />
<glyph unicode="&#x105;" horiz-adv-x="452" d="M342 149v91q-36 4 -67 4h-63q-69 0 -98 -22t-29 -74v-25q0 -50 21.5 -71.5t69.5 -21.5h48q57 0 87.5 31t30.5 88zM385 328v-309q0 -14 -8 -20q-70 -49 -70 -107q0 -45 51 -45q32 0 54 10q7 4 10 -4l6 -22q2 -6 -6 -10q-30 -15 -74 -15q-41 0 -64 20t-23 57q0 76 83 124 l-3 40h-2q-18 -31 -47 -43.5t-88 -12.5h-20q-77 0 -110 32t-33 107v12q0 74 38 107.5t141 33.5h50q28 0 72 -4v59q0 69 -29 95.5t-93 26.5t-120 -18q-13 -4 -16 5l-4 18q-2 10 8 14q62 20 139 20q85 0 121.5 -40t36.5 -131z" />
<glyph unicode="&#x106;" horiz-adv-x="492" d="M280 656q96 0 166 -41q8 -5 4 -15l-8 -18q-4 -9 -15 -3q-72 35 -146 35q-85 0 -124 -39q-31 -31 -42 -85t-11 -150v-32q0 -105 9 -150.5t37 -79.5q38 -45 139 -45q70 0 144 27q11 4 14 -7l5 -21q2 -9 -6 -12q-72 -29 -162 -29q-128 0 -180 65q-28 35 -38 84.5t-10 154.5 v58q0 109 15.5 167t57.5 93q50 43 151 43zM204 739l179 74q15 6 21 -10l10 -27q6 -14 -15 -20l-174 -55q-17 -6 -21 6l-6 17q-3 11 6 15z" />
<glyph unicode="&#x107;" horiz-adv-x="406" d="M363 44l4 -13q4 -12 -8 -17q-53 -23 -115 -23q-91 0 -138 44q-56 53 -56 197v34q0 139 54 190q44 43 132 43q85 0 137 -40q8 -5 3 -13l-13 -19q-4 -6 -13 0q-49 32 -115 32t-99 -31q-27 -26 -34.5 -66.5t-7.5 -105.5v-17q0 -122 42 -172q31 -36 108 -36q56 0 105 20 q10 4 14 -7zM162 618l169 95q15 7 22 -8l13 -26q8 -14 -13 -21l-166 -75q-16 -8 -22 3l-7 16q-4 11 4 16z" />
<glyph unicode="&#x108;" horiz-adv-x="492" d="M280 656q96 0 166 -41q8 -5 4 -15l-8 -18q-4 -9 -15 -3q-72 35 -146 35q-85 0 -124 -39q-31 -31 -42 -85t-11 -150v-32q0 -105 9 -150.5t37 -79.5q38 -45 139 -45q70 0 144 27q11 4 14 -7l5 -21q2 -9 -6 -12q-72 -29 -162 -29q-128 0 -180 65q-28 35 -38 84.5t-10 154.5 v58q0 109 15.5 167t57.5 93q50 43 151 43zM135 731l111 122q6 7 15 7h24q9 0 15 -7l111 -122q8 -8 1 -15l-19 -16q-8 -6 -17 3l-100 103h-6l-100 -103q-10 -10 -17 -3l-19 16q-8 6 1 15z" />
<glyph unicode="&#x109;" horiz-adv-x="406" d="M363 44l4 -13q4 -12 -8 -17q-53 -23 -115 -23q-91 0 -138 44q-56 53 -56 197v34q0 139 54 190q44 43 132 43q85 0 137 -40q8 -5 3 -13l-13 -19q-4 -6 -13 0q-49 32 -115 32t-99 -31q-27 -26 -34.5 -66.5t-7.5 -105.5v-17q0 -122 42 -172q31 -36 108 -36q56 0 105 20 q10 4 14 -7zM95 603l111 122q6 7 15 7h24q9 0 15 -7l111 -122q8 -8 1 -15l-19 -16q-8 -6 -17 3l-100 103h-6l-100 -103q-10 -10 -17 -3l-19 16q-8 6 1 15z" />
<glyph unicode="&#x10a;" horiz-adv-x="492" d="M280 656q96 0 166 -41q8 -5 4 -15l-8 -18q-4 -9 -15 -3q-72 35 -146 35q-85 0 -124 -39q-31 -31 -42 -85t-11 -150v-32q0 -105 9 -150.5t37 -79.5q38 -45 139 -45q70 0 144 27q11 4 14 -7l5 -21q2 -9 -6 -12q-72 -29 -162 -29q-128 0 -180 65q-28 35 -38 84.5t-10 154.5 v58q0 109 15.5 167t57.5 93q50 43 151 43zM214 771q0 24 17 40.5t40 16.5t40 -16.5t17 -40.5t-17 -40.5t-40 -16.5t-40 16.5t-17 40.5z" />
<glyph unicode="&#x10b;" horiz-adv-x="406" d="M363 44l4 -13q4 -12 -8 -17q-53 -23 -115 -23q-91 0 -138 44q-56 53 -56 197v34q0 139 54 190q44 43 132 43q85 0 137 -40q8 -5 3 -13l-13 -19q-4 -6 -13 0q-49 32 -115 32t-99 -31q-27 -26 -34.5 -66.5t-7.5 -105.5v-17q0 -122 42 -172q31 -36 108 -36q56 0 105 20 q10 4 14 -7zM175 643q0 24 17 40.5t40 16.5t40 -16.5t17 -40.5t-17 -40.5t-40 -16.5t-40 16.5t-17 40.5z" />
<glyph unicode="&#x10c;" horiz-adv-x="492" d="M280 656q96 0 166 -41q8 -5 4 -15l-8 -18q-4 -9 -15 -3q-72 35 -146 35q-85 0 -124 -39q-31 -31 -42 -85t-11 -150v-32q0 -105 9 -150.5t37 -79.5q38 -45 139 -45q70 0 144 27q11 4 14 -7l5 -21q2 -9 -6 -12q-72 -29 -162 -29q-128 0 -180 65q-28 35 -38 84.5t-10 154.5 v58q0 109 15.5 167t57.5 93q50 43 151 43zM247 709l-111 122q-9 9 -1 15l19 16q7 7 17 -3l100 -103h6l100 103q9 9 17 3l19 -16q7 -7 -1 -15l-111 -122q-6 -7 -15 -7h-24q-9 0 -15 7z" />
<glyph unicode="&#x10d;" horiz-adv-x="406" d="M363 44l4 -13q4 -12 -8 -17q-53 -23 -115 -23q-91 0 -138 44q-56 53 -56 197v34q0 139 54 190q44 43 132 43q85 0 137 -40q8 -5 3 -13l-13 -19q-4 -6 -13 0q-49 32 -115 32t-99 -31q-27 -26 -34.5 -66.5t-7.5 -105.5v-17q0 -122 42 -172q31 -36 108 -36q56 0 105 20 q10 4 14 -7zM207 574l-111 122q-9 9 -1 15l19 16q7 7 17 -3l100 -103h6l100 103q9 9 17 3l19 -16q7 -7 -1 -15l-111 -122q-6 -7 -15 -7h-24q-9 0 -15 7z" />
<glyph unicode="&#x10e;" horiz-adv-x="568" d="M219 616q-58 0 -89 -2q-12 -1 -12 -14v-549q0 -9 8 -9h92q130 0 180 44q66 57 66 228v27q0 87 -14.5 136t-45.5 83q-51 56 -185 56zM92 0q-20 0 -20 18v615q0 17 18 20q49 5 125 5q78 0 129.5 -12.5t91.5 -46t58 -94t18 -152.5v-47q0 -162 -60.5 -234t-208.5 -72h-151z M254 709l-111 122q-9 9 -1 15l19 16q7 7 17 -3l100 -103h6l100 103q9 9 17 3l19 -16q7 -7 -1 -15l-111 -122q-6 -7 -15 -7h-24q-9 0 -15 7z" />
<glyph unicode="&#x10f;" horiz-adv-x="485" d="M376 173v137q0 71 -37 110t-107 39q-74 0 -106 -44t-32 -153v-35q0 -110 33.5 -153t111.5 -43q70 0 103.5 32.5t33.5 109.5zM376 435v234q0 8 7 8h28q8 0 8 -8v-510q0 -168 -179 -168q-101 0 -145.5 49.5t-44.5 178.5v49q0 122 41.5 176.5t141.5 54.5q101 0 141 -64h2z M504 685h13q36 0 36 -37v-17q0 -66 -58 -121q-8 -8 -14 -3l-11 9q-7 5 -2 10q22 22 34 47q4 10 4 14q0 9 -13 16q-20 10 -20 34v18q0 30 31 30z" />
<glyph unicode="&#x110;" horiz-adv-x="587" d="M262 0h-151q-20 -2 -20 18v297h-71q-10 0 -10 8v22q0 8 10 8h71v280q0 17 18 20q49 5 125 5q78 0 129.5 -12.5t91.5 -46t58 -94t18 -152.5v-47q0 -162 -60.5 -234t-208.5 -72zM238 616q-58 0 -89 -2q-12 -1 -12 -14v-247h153q10 0 10 -8v-22q0 -8 -10 -8h-153v-264 q0 -9 8 -9h92q130 0 180 44q64 55 64 228v27q0 88 -14 137t-44 82q-51 56 -185 56z" />
<glyph unicode="&#x111;" horiz-adv-x="485" d="M376 435v126h-129q-9 0 -9 10v14q0 10 9 10h129v74q0 8 7 8h28q8 0 8 -8v-74h75q9 0 9 -10v-14q0 -10 -9 -10h-75v-402q0 -168 -179 -168q-101 0 -145.5 49.5t-44.5 178.5v49q0 122 41.5 176.5t141.5 54.5q101 0 141 -64h2zM376 173v137q0 71 -37 110t-107 39 q-74 0 -106 -44t-32 -153v-35q0 -110 33.5 -153t111.5 -43q70 0 103.5 32.5t33.5 109.5z" />
<glyph unicode="&#x112;" horiz-adv-x="455" d="M69 96q-6 62 -6 199v57q0 110 6 199q3 49 23 70q25 26 84 26h232q11 0 11 -11v-20q0 -11 -11 -11h-229q-35 0 -47 -12t-15 -49q-6 -84 -6 -188h244q11 0 11 -11v-20q0 -11 -11 -11h-244q0 -103 6 -211q3 -37 15 -49t47 -12h229q11 0 11 -11v-20q0 -11 -11 -11h-232 q-60 0 -83 24q-19 20 -24 72zM368 733h-229q-11 0 -11 11v21q0 12 11 12h229q11 0 11 -12v-21q0 -11 -11 -11z" />
<glyph unicode="&#x113;" horiz-adv-x="448" d="M396 318v-60q0 -23 -9 -32.5t-32 -9.5h-261q2 -105 34 -145t110 -40q64 0 120 23q10 4 13 -4l6 -16q4 -12 -8 -17q-59 -26 -131 -26q-103 0 -145.5 53t-42.5 178v45q0 122 42 177t137 55q167 0 167 -181zM95 258h244q6 0 8.5 0.5t4 4t1.5 11.5v31q0 82 -29.5 118 t-94.5 36q-72 0 -102.5 -43t-31.5 -158zM344 622h-229q-11 0 -11 11v21q0 12 11 12h229q11 0 11 -12v-21q0 -11 -11 -11z" />
<glyph unicode="&#x114;" horiz-adv-x="455" d="M69 96q-6 62 -6 199v57q0 110 6 199q3 49 23 70q25 26 84 26h232q11 0 11 -11v-20q0 -11 -11 -11h-229q-35 0 -47 -12t-15 -49q-6 -84 -6 -188h244q11 0 11 -11v-20q0 -11 -11 -11h-244q0 -103 6 -211q3 -37 15 -49t47 -12h229q11 0 11 -11v-20q0 -11 -11 -11h-232 q-60 0 -83 24q-19 20 -24 72zM257 703q-49 0 -88 27.5t-53 80.5q-4 12 7 15l21 6q12 4 15 -6q23 -81 98 -81q36 0 62.5 20.5t36.5 60.5q3 10 15 6l21 -6q10 -3 7 -15q-14 -53 -53 -80.5t-89 -27.5z" />
<glyph unicode="&#x115;" horiz-adv-x="448" d="M396 318v-60q0 -23 -9 -32.5t-32 -9.5h-261q2 -105 34 -145t110 -40q64 0 120 23q10 4 13 -4l6 -16q4 -12 -8 -17q-59 -26 -131 -26q-103 0 -145.5 53t-42.5 178v45q0 122 42 177t137 55q167 0 167 -181zM95 258h244q6 0 8.5 0.5t4 4t1.5 11.5v31q0 82 -29.5 118 t-94.5 36q-72 0 -102.5 -43t-31.5 -158zM234 571q-49 0 -88 27.5t-53 80.5q-4 12 7 15l21 6q12 4 15 -6q23 -81 98 -81q36 0 62.5 20.5t36.5 60.5q3 10 15 6l21 -6q10 -3 7 -15q-14 -53 -53 -80.5t-89 -27.5z" />
<glyph unicode="&#x116;" horiz-adv-x="455" d="M69 96q-6 62 -6 199v57q0 110 6 199q3 49 23 70q25 26 84 26h232q11 0 11 -11v-20q0 -11 -11 -11h-229q-35 0 -47 -12t-15 -49q-6 -84 -6 -188h244q11 0 11 -11v-20q0 -11 -11 -11h-244q0 -103 6 -211q3 -37 15 -49t47 -12h229q11 0 11 -11v-20q0 -11 -11 -11h-232 q-60 0 -83 24q-19 20 -24 72zM205 771q0 24 17 40.5t40 16.5t40 -16.5t17 -40.5t-17 -40.5t-40 -16.5t-40 16.5t-17 40.5z" />
<glyph unicode="&#x117;" horiz-adv-x="448" d="M396 318v-60q0 -23 -9 -32.5t-32 -9.5h-261q2 -105 34 -145t110 -40q64 0 120 23q10 4 13 -4l6 -16q4 -12 -8 -17q-59 -26 -131 -26q-103 0 -145.5 53t-42.5 178v45q0 122 42 177t137 55q167 0 167 -181zM95 258h244q6 0 8.5 0.5t4 4t1.5 11.5v31q0 82 -29.5 118 t-94.5 36q-72 0 -102.5 -43t-31.5 -158zM172 643q0 24 17 40.5t40 16.5t40 -16.5t17 -40.5t-17 -40.5t-40 -16.5t-40 16.5t-17 40.5z" />
<glyph unicode="&#x118;" horiz-adv-x="484" d="M280 -117q0 33 22 65t57 52h-183q-60 0 -83 24q-19 20 -24 72q-6 62 -6 199v57q0 110 6 199q3 49 23 70q25 26 84 26h232q11 0 11 -11v-20q0 -11 -11 -11h-229q-35 0 -47 -12t-15 -49q-4 -56 -4 -188h242q11 0 11 -11v-20q0 -11 -11 -11h-242q0 -139 4 -211q3 -37 15 -49 t47 -12h229q11 0 11 -11v-18q0 -9 -8 -13q-39 -20 -62 -49.5t-23 -58.5q0 -45 51 -45q32 0 54 10q7 4 10 -4l6 -22q2 -6 -6 -10q-30 -15 -74 -15q-41 0 -64 20t-23 57z" />
<glyph unicode="&#x119;" horiz-adv-x="448" d="M95 258h242q6 0 8.5 0.5t4 4t1.5 11.5v35q0 83 -28.5 116.5t-93.5 33.5q-73 0 -103 -42t-31 -159zM217 -117q0 67 66 112q-16 -4 -45 -4q-103 0 -145.5 53t-42.5 178v45q0 123 41.5 177.5t137.5 54.5q86 0 126.5 -41t40.5 -136v-64q0 -23 -9 -32.5t-32 -9.5h-261 q2 -105 34 -145t110 -40q64 0 120 23q9 4 13 -4l7 -16q5 -10 -9 -16q-54 -24 -80 -59t-26 -66q0 -46 51 -46q32 0 54 10q7 4 10 -4l6 -22q2 -6 -6 -10q-30 -15 -74 -15q-41 0 -64 20t-23 57z" />
<glyph unicode="&#x11a;" horiz-adv-x="455" d="M69 96q-6 62 -6 199v57q0 110 6 199q3 49 23 70q25 26 84 26h232q11 0 11 -11v-20q0 -11 -11 -11h-229q-35 0 -47 -12t-15 -49q-6 -84 -6 -188h244q11 0 11 -11v-20q0 -11 -11 -11h-244q0 -103 6 -211q3 -37 15 -49t47 -12h229q11 0 11 -11v-20q0 -11 -11 -11h-232 q-60 0 -83 24q-19 20 -24 72zM229 709l-111 122q-9 9 -1 15l19 16q7 7 17 -3l100 -103h6l100 103q9 9 17 3l19 -16q7 -7 -1 -15l-111 -122q-6 -7 -15 -7h-24q-9 0 -15 7z" />
<glyph unicode="&#x11b;" horiz-adv-x="448" d="M396 318v-60q0 -23 -9 -32.5t-32 -9.5h-261q2 -105 34 -145t110 -40q64 0 120 23q10 4 13 -4l6 -16q4 -12 -8 -17q-59 -26 -131 -26q-103 0 -145.5 53t-42.5 178v45q0 122 42 177t137 55q167 0 167 -181zM95 258h244q6 0 8.5 0.5t4 4t1.5 11.5v31q0 82 -29.5 118 t-94.5 36q-72 0 -102.5 -43t-31.5 -158zM207 574l-111 122q-9 9 -1 15l19 16q7 7 17 -3l100 -103h6l100 103q9 9 17 3l19 -16q7 -7 -1 -15l-111 -122q-6 -7 -15 -7h-24q-9 0 -15 7z" />
<glyph unicode="&#x11c;" horiz-adv-x="549" d="M442 294h-112q-11 0 -11 11v20q0 11 11 11h148q10 0 10 -10v-294q0 -19 -19 -23q-72 -18 -161 -18q-139 0 -195.5 72t-56.5 231v58q0 158 58.5 231t190.5 73q89 0 161 -24q12 -4 10 -14l-4 -19q-3 -11 -16 -7q-76 22 -147 22q-110 0 -157.5 -59t-47.5 -216v-30 q0 -152 45.5 -214t160.5 -62q64 0 117 10q15 3 15 18v233zM164 731l111 122q6 7 15 7h24q9 0 15 -7l111 -122q8 -8 1 -15l-19 -16q-8 -6 -17 3l-100 103h-6l-100 -103q-10 -10 -17 -3l-19 16q-8 6 1 15z" />
<glyph unicode="&#x11d;" horiz-adv-x="461" d="M219 499q15 0 41 -2q34 67 104 67h22q8 0 8 -7v-27q0 -8 -8 -8h-28q-40 0 -55 -35q47 -14 68.5 -51t21.5 -116v-32q0 -125 -70 -163q44 -28 66 -61t22 -82v-17q0 -83 -50 -117.5t-141 -34.5q-105 0 -181 44q-8 5 -5 14l8 19q4 8 14 3q77 -40 168 -40q72 0 107.5 26 t35.5 89v10q0 85 -94 133q-25 -4 -54 -4q-92 0 -132 42.5t-40 138.5v32q0 99 42 139t130 40zM91 316v-25q0 -80 30.5 -112t97.5 -32q71 0 100.5 30t29.5 116v23q0 82 -31 112.5t-99 30.5t-98 -30t-30 -113zM90 631l111 122q6 7 15 7h24q9 0 15 -7l111 -122q8 -8 1 -15 l-19 -16q-8 -6 -17 3l-100 103h-6l-100 -103q-10 -10 -17 -3l-19 16q-8 6 1 15z" />
<glyph unicode="&#x11e;" horiz-adv-x="549" d="M442 294h-112q-11 0 -11 11v20q0 11 11 11h148q10 0 10 -10v-294q0 -19 -19 -23q-72 -18 -161 -18q-139 0 -195.5 72t-56.5 231v58q0 158 58.5 231t190.5 73q89 0 161 -24q12 -4 10 -14l-4 -19q-3 -11 -16 -7q-76 22 -147 22q-110 0 -157.5 -59t-47.5 -216v-30 q0 -152 45.5 -214t160.5 -62q64 0 117 10q15 3 15 18v233zM293 703q-49 0 -88 27.5t-53 80.5q-4 12 7 15l21 6q12 4 15 -6q23 -81 98 -81q36 0 62.5 20.5t36.5 60.5q3 10 15 6l21 -6q10 -3 7 -15q-14 -53 -53 -80.5t-89 -27.5z" />
<glyph unicode="&#x11f;" horiz-adv-x="461" d="M219 499q15 0 41 -2q34 67 104 67h22q8 0 8 -7v-27q0 -8 -8 -8h-28q-40 0 -55 -35q47 -14 68.5 -51t21.5 -116v-32q0 -125 -70 -163q44 -28 66 -61t22 -82v-17q0 -83 -50 -117.5t-141 -34.5q-105 0 -181 44q-8 5 -5 14l8 19q4 8 14 3q77 -40 168 -40q72 0 107.5 26 t35.5 89v10q0 85 -94 133q-25 -4 -54 -4q-92 0 -132 42.5t-40 138.5v32q0 99 42 139t130 40zM91 316v-25q0 -80 30.5 -112t97.5 -32q71 0 100.5 30t29.5 116v23q0 82 -31 112.5t-99 30.5t-98 -30t-30 -113zM224 585q-49 0 -88 27.5t-53 80.5q-4 12 7 15l21 6q12 4 15 -6 q23 -81 98 -81q36 0 62.5 20.5t36.5 60.5q3 10 15 6l21 -6q10 -3 7 -15q-14 -53 -53 -80.5t-89 -27.5z" />
<glyph unicode="&#x120;" horiz-adv-x="549" d="M442 294h-112q-11 0 -11 11v20q0 11 11 11h148q10 0 10 -10v-294q0 -19 -19 -23q-72 -18 -161 -18q-139 0 -195.5 72t-56.5 231v58q0 158 58.5 231t190.5 73q89 0 161 -24q12 -4 10 -14l-4 -19q-3 -11 -16 -7q-76 22 -147 22q-110 0 -157.5 -59t-47.5 -216v-30 q0 -152 45.5 -214t160.5 -62q64 0 117 10q15 3 15 18v233zM242 771q0 24 17 40.5t40 16.5t40 -16.5t17 -40.5t-17 -40.5t-40 -16.5t-40 16.5t-17 40.5z" />
<glyph unicode="&#x121;" horiz-adv-x="461" d="M219 499q15 0 41 -2q34 67 104 67h22q8 0 8 -7v-27q0 -8 -8 -8h-28q-40 0 -55 -35q47 -14 68.5 -51t21.5 -116v-32q0 -125 -70 -163q44 -28 66 -61t22 -82v-17q0 -83 -50 -117.5t-141 -34.5q-105 0 -181 44q-8 5 -5 14l8 19q4 8 14 3q77 -40 168 -40q72 0 107.5 26 t35.5 89v10q0 85 -94 133q-25 -4 -54 -4q-92 0 -132 42.5t-40 138.5v32q0 99 42 139t130 40zM91 316v-25q0 -80 30.5 -112t97.5 -32q71 0 100.5 30t29.5 116v23q0 82 -31 112.5t-99 30.5t-98 -30t-30 -113zM169 663q0 24 17 40.5t40 16.5t40 -16.5t17 -40.5t-17 -40.5 t-40 -16.5t-40 16.5t-17 40.5z" />
<glyph unicode="&#x122;" horiz-adv-x="549" d="M442 294h-112q-11 0 -11 11v20q0 11 11 11h148q10 0 10 -10v-294q0 -19 -19 -23q-72 -18 -161 -18q-139 0 -195.5 72t-56.5 231v58q0 158 58.5 231t190.5 73q89 0 161 -24q12 -4 10 -14l-4 -19q-3 -11 -16 -7q-76 22 -147 22q-110 0 -157.5 -59t-47.5 -216v-30 q0 -152 45.5 -214t160.5 -62q64 0 117 10q15 3 15 18v233zM297 -71h13q36 0 36 -37v-17q0 -66 -58 -121q-8 -8 -14 -3l-11 9q-7 5 -2 10q22 22 34 47q4 10 4 14q0 9 -13 16q-20 10 -20 34v18q0 30 31 30z" />
<glyph unicode="&#x123;" horiz-adv-x="461" d="M219 499q15 0 41 -2q34 67 104 67h22q8 0 8 -7v-27q0 -8 -8 -8h-28q-40 0 -55 -35q47 -14 68.5 -51t21.5 -116v-32q0 -125 -70 -163q44 -28 66 -61t22 -82v-17q0 -83 -50 -117.5t-141 -34.5q-105 0 -181 44q-8 5 -5 14l8 19q4 8 14 3q77 -40 168 -40q72 0 107.5 26 t35.5 89v10q0 85 -94 133q-25 -4 -54 -4q-92 0 -132 42.5t-40 138.5v32q0 99 42 139t130 40zM91 316v-25q0 -80 30.5 -112t97.5 -32q71 0 100.5 30t29.5 116v23q0 82 -31 112.5t-99 30.5t-98 -30t-30 -113zM233 585h-13q-36 0 -36 37v17q0 66 58 121q8 8 14 3l11 -9 q7 -5 2 -10q-22 -22 -34 -47q-4 -10 -4 -14q0 -9 13 -16q20 -10 20 -34v-18q0 -30 -31 -30z" />
<glyph unicode="&#x124;" horiz-adv-x="577" d="M505 636v-625q0 -11 -9 -11h-28q-9 0 -9 11v304h-341v-304q0 -11 -9 -11h-28q-9 0 -9 11v625q0 11 9 11h28q9 0 9 -11v-279h341v279q0 11 9 11h28q9 0 9 -11zM148 731l111 122q6 7 15 7h24q9 0 15 -7l111 -122q8 -8 1 -15l-19 -16q-8 -6 -17 3l-100 103h-6l-100 -103 q-10 -10 -17 -3l-19 16q-8 6 1 15z" />
<glyph unicode="&#x125;" horiz-adv-x="498" d="M431 305v-297q0 -8 -8 -8h-28q-7 0 -7 8v293q0 84 -31 121t-105 37q-65 0 -100.5 -36t-35.5 -108v-307q0 -8 -8 -8h-28q-7 0 -7 8v661q0 8 7 8h28q8 0 8 -8v-237q18 31 55 49.5t87 18.5q94 0 133.5 -47.5t39.5 -147.5zM-44 711l111 122q6 7 15 7h24q9 0 15 -7l111 -122 q8 -8 1 -15l-19 -16q-8 -6 -17 3l-100 103h-6l-100 -103q-10 -10 -17 -3l-19 16q-8 6 1 15z" />
<glyph unicode="&#x126;" horiz-adv-x="589" d="M561 477h-50v-466q0 -11 -9 -11h-28q-9 0 -9 11v304h-341v-304q0 -11 -9 -11h-28q-9 0 -9 11v466h-50q-10 0 -10 8v22q0 8 10 8h50v121q0 11 9 11h28q9 0 9 -11v-121h341v121q0 11 9 11h28q9 0 9 -11v-121h50q10 0 10 -8v-22q0 -8 -10 -8zM124 357h341v120h-341v-120z " />
<glyph unicode="&#x127;" horiz-adv-x="498" d="M431 305v-297q0 -8 -8 -8h-28q-7 0 -7 8v293q0 84 -31 121t-105 37q-65 0 -100.5 -36t-35.5 -108v-307q0 -8 -8 -8h-28q-7 0 -7 8v553h-68q-9 0 -9 10v14q0 10 9 10h68v74q0 8 7 8h28q8 0 8 -8v-74h123q9 0 9 -10v-14q0 -10 -9 -10h-123v-129q18 31 55 49.5t87 18.5 q94 0 133.5 -47.5t39.5 -147.5z" />
<glyph unicode="&#x128;" horiz-adv-x="202" d="M124 636v-625q0 -11 -9 -11h-28q-9 0 -9 11v625q0 11 9 11h28q9 0 9 -11zM-34 721l-20 13q-8 5 -2 14q35 73 97 73q28 0 59 -23l27 -21q21 -15 37 -15q29 0 59 51q4 5 9 3l21 -14q8 -5 3 -13q-18 -33 -44.5 -54t-53.5 -21q-30 0 -58 22l-26 20q-23 17 -39 17 q-29 0 -57 -50q-4 -7 -12 -2z" />
<glyph unicode="&#x129;" horiz-adv-x="219" d="M-26 596l-20 13q-8 5 -2 14q35 73 97 73q28 0 59 -23l27 -21q21 -15 37 -15q29 0 59 51q4 5 9 3l21 -14q8 -5 3 -13q-18 -33 -44.5 -54t-53.5 -21q-30 0 -58 22l-26 20q-23 17 -39 17q-29 0 -57 -50q-4 -7 -12 -2zM131 482v-474q0 -8 -8 -8h-28q-7 0 -7 8v474q0 8 7 8h28 q8 0 8 -8z" />
<glyph unicode="&#x12a;" horiz-adv-x="202" d="M124 636v-625q0 -11 -9 -11h-28q-9 0 -9 11v625q0 11 9 11h28q9 0 9 -11zM217 733h-229q-11 0 -11 11v21q0 12 11 12h229q11 0 11 -12v-21q0 -11 -11 -11z" />
<glyph unicode="&#x12b;" horiz-adv-x="219" d="M225 622h-229q-11 0 -11 11v21q0 12 11 12h229q11 0 11 -12v-21q0 -11 -11 -11zM131 482v-474q0 -8 -8 -8h-28q-7 0 -7 8v474q0 8 7 8h28q8 0 8 -8z" />
<glyph unicode="&#x12c;" horiz-adv-x="202" d="M124 636v-625q0 -11 -9 -11h-28q-9 0 -9 11v625q0 11 9 11h28q9 0 9 -11zM102 703q-49 0 -88 27.5t-53 80.5q-4 12 7 15l21 6q12 4 15 -6q23 -81 98 -81q36 0 62.5 20.5t36.5 60.5q3 10 15 6l21 -6q10 -3 7 -15q-14 -53 -53 -80.5t-89 -27.5z" />
<glyph unicode="&#x12d;" horiz-adv-x="219" d="M108 571q-49 0 -88 27.5t-53 80.5q-4 12 7 15l21 6q12 4 15 -6q23 -81 98 -81q36 0 62.5 20.5t36.5 60.5q3 10 15 6l21 -6q10 -3 7 -15q-14 -53 -53 -80.5t-89 -27.5zM131 482v-474q0 -8 -8 -8h-28q-7 0 -7 8v474q0 8 7 8h28q8 0 8 -8z" />
<glyph unicode="&#x12e;" horiz-adv-x="202" d="M6 -117q0 36 20 68t52 51v634q0 11 9 11h28q9 0 9 -11v-625q0 -8 -11 -15q-61 -41 -61 -104q0 -45 51 -45q32 0 54 10q7 4 10 -4l6 -22q2 -6 -6 -10q-30 -15 -74 -15q-41 0 -64 20t-23 57z" />
<glyph unicode="&#x12f;" horiz-adv-x="219" d="M88 3v479q0 8 7 8h28q8 0 8 -8v-474q0 -8 -8 -13q-67 -45 -67 -103q0 -45 51 -45q32 0 54 10q7 4 10 -4l6 -22q2 -6 -6 -10q-30 -15 -74 -15q-41 0 -64 20t-23 57q0 72 78 120zM145 624v-6q0 -39 -33 -39h-4q-19 0 -27.5 9t-8.5 30v6q0 38 36 38h4q33 0 33 -38z" />
<glyph unicode="&#x130;" horiz-adv-x="202" d="M124 636v-625q0 -11 -9 -11h-28q-9 0 -9 11v625q0 11 9 11h28q9 0 9 -11zM45 771q0 24 17 40.5t40 16.5t40 -16.5t17 -40.5t-17 -40.5t-40 -16.5t-40 16.5t-17 40.5z" />
<glyph unicode="&#x131;" horiz-adv-x="219" d="M131 482v-474q0 -8 -8 -8h-28q-7 0 -7 8v474q0 8 7 8h28q8 0 8 -8z" />
<glyph unicode="&#x132;" horiz-adv-x="483" d="M124 636v-625q0 -11 -9 -11h-28q-9 0 -9 11v625q0 11 9 11h28q9 0 9 -11zM233 42h37q68 0 87 38q4 8 6 16t3 21t1 20.5v26.5v26v446q0 11 9 11h28q9 0 9 -11v-444q0 -6 0.5 -24.5t0 -28t-1.5 -24.5t-3.5 -27.5t-7.5 -23.5q-26 -64 -131 -64h-37q-11 0 -11 11v20 q0 11 11 11z" />
<glyph unicode="&#x133;" horiz-adv-x="440" d="M145 624v-6q0 -39 -33 -39h-4q-19 0 -27.5 9t-8.5 30v6q0 38 36 38h4q33 0 33 -38zM131 482v-474q0 -8 -8 -8h-28q-7 0 -7 8v474q0 8 7 8h28q8 0 8 -8zM365 624v-6q0 -39 -33 -39h-4q-19 0 -27.5 9t-8.5 30v6q0 38 36 38h4q33 0 33 -38zM351 482v-481q0 -67 -17 -105 q-34 -74 -129 -74h-35q-9 0 -9 9v23q0 8 8 8h31q66 0 90 40q18 31 18 95v485q0 8 7 8h28q8 0 8 -8z" />
<glyph unicode="&#x134;" horiz-adv-x="281" d="M31 42h37q68 0 87 38q4 8 6 16t3 21t1 20.5v26.5v26v446q0 11 9 11h28q9 0 9 -11v-444q0 -6 0.5 -24.5t0 -28t-1.5 -24.5t-3.5 -27.5t-7.5 -23.5q-26 -64 -131 -64h-37q-11 0 -11 11v20q0 11 11 11zM49 731l111 122q6 7 15 7h24q9 0 15 -7l111 -122q8 -8 1 -15l-19 -16 q-8 -6 -17 3l-100 103h-6l-100 -103q-10 -10 -17 -3l-19 16q-8 6 1 15z" />
<glyph unicode="&#x135;" horiz-adv-x="220" d="M131 482v-481q0 -67 -17 -105q-34 -74 -129 -74h-35q-9 0 -9 9v23q0 8 8 8h31q66 0 90 40q18 31 18 95v485q0 8 7 8h28q8 0 8 -8zM-30 603l111 122q6 7 15 7h24q9 0 15 -7l111 -122q8 -8 1 -15l-19 -16q-8 -6 -17 3l-100 103h-6l-100 -103q-10 -10 -17 -3l-19 16 q-8 6 1 15z" />
<glyph unicode="&#x136;" horiz-adv-x="476" d="M118 636v-282h80q21 0 31 15l185 272q4 6 14 6h31q11 0 5 -9l-189 -280q-8 -12 -8 -18q0 -5 8 -19l185 -308q7 -13 -7 -13h-30q-10 0 -15 8l-174 292q-7 12 -32 12h-84v-301q0 -11 -9 -11h-28q-9 0 -9 11v625q0 11 9 11h28q9 0 9 -11zM236 -71h13q36 0 36 -37v-17 q0 -66 -58 -121q-8 -8 -14 -3l-11 9q-7 5 -2 10q22 22 34 47q4 10 4 14q0 9 -13 16q-20 10 -20 34v18q0 30 31 30z" />
<glyph unicode="&#x137;" horiz-adv-x="404" d="M116 241v-233q0 -8 -8 -8h-28q-7 0 -7 8v661q0 8 7 8h28q8 0 8 -8v-388h53q21 0 35 21l132 182q4 6 13 6h28q13 0 6 -11l-155 -212q-4 -5 0 -12l154 -244q7 -11 -6 -11h-27q-9 0 -14 8l-135 215q-10 18 -29 18h-55zM217 -71h13q36 0 36 -37v-17q0 -66 -58 -121 q-8 -8 -14 -3l-11 9q-7 5 -2 10q22 22 34 47q4 10 4 14q0 9 -13 16q-20 10 -20 34v18q0 30 31 30z" />
<glyph unicode="&#x138;" horiz-adv-x="404" d="M228 255l154 -244q7 -11 -6 -11h-27q-9 0 -14 8l-135 215q-10 18 -29 18h-55v-233q0 -8 -8 -8h-28q-7 0 -7 8v474q0 8 7 8h28q8 0 8 -8v-201h53q21 0 35 21l132 182q4 6 13 6h28q13 0 6 -11l-155 -212q-5 -6 0 -12z" />
<glyph unicode="&#x139;" horiz-adv-x="355" d="M162 42h164q11 0 11 -11v-20q0 -11 -11 -11h-167q-47 0 -66 16q-21 18 -21 62v558q0 11 9 11h28q9 0 9 -11v-549q0 -27 9 -36t35 -9zM59 739l179 74q15 6 21 -10l10 -27q6 -14 -15 -20l-174 -55q-17 -6 -21 6l-6 17q-3 11 6 15z" />
<glyph unicode="&#x13a;" horiz-adv-x="234" d="M76 106v563q0 8 7 8h28q8 0 8 -8v-558q0 -42 11 -56.5t40 -14.5h26q7 0 7 -7v-25q0 -8 -8 -8h-23q-53 0 -74.5 23t-21.5 83zM56 741l169 95q15 7 22 -8l13 -26q8 -14 -13 -21l-166 -75q-16 -8 -22 3l-7 16q-4 11 4 16z" />
<glyph unicode="&#x13b;" horiz-adv-x="355" d="M162 42h164q11 0 11 -11v-20q0 -11 -11 -11h-167q-47 0 -66 16q-21 18 -21 62v558q0 11 9 11h28q9 0 9 -11v-549q0 -27 9 -36t35 -9zM201 -71h13q36 0 36 -37v-17q0 -66 -58 -121q-8 -8 -14 -3l-11 9q-7 5 -2 10q22 22 34 47q4 10 4 14q0 9 -13 16q-20 10 -20 34v18 q0 30 31 30z" />
<glyph unicode="&#x13c;" horiz-adv-x="234" d="M76 106v563q0 8 7 8h28q8 0 8 -8v-558q0 -42 11 -56.5t40 -14.5h26q7 0 7 -7v-25q0 -8 -8 -8h-23q-53 0 -74.5 23t-21.5 83zM136 -71h13q36 0 36 -37v-17q0 -66 -58 -121q-8 -8 -14 -3l-11 9q-7 5 -2 10q22 22 34 47q4 10 4 14q0 9 -13 16q-20 10 -20 34v18q0 30 31 30z " />
<glyph unicode="&#x13d;" horiz-adv-x="355" d="M162 42h164q11 0 11 -11v-20q0 -11 -11 -11h-167q-47 0 -66 16q-21 18 -21 62v558q0 11 9 11h28q9 0 9 -11v-549q0 -27 9 -36t35 -9zM271 648h13q36 0 36 -37v-17q0 -66 -58 -121q-8 -8 -14 -3l-11 9q-7 5 -2 10q22 22 34 47q4 10 4 14q0 10 -13 16q-20 10 -20 34v18 q0 30 31 30z" />
<glyph unicode="&#x13e;" horiz-adv-x="234" d="M204 691h13q36 0 36 -37v-17q0 -67 -54 -117q-8 -8 -14 -3l-11 9q-7 5 -2 10q18 18 30 43q4 10 4 14q0 9 -13 16q-20 10 -20 34v18q0 30 31 30zM76 106v563q0 8 7 8h28q8 0 8 -8v-558q0 -42 11 -56.5t40 -14.5h26q7 0 7 -7v-25q0 -8 -8 -8h-23q-53 0 -74.5 23t-21.5 83z " />
<glyph unicode="&#x13f;" horiz-adv-x="355" d="M162 42h164q11 0 11 -11v-20q0 -11 -11 -11h-167q-47 0 -66 16q-21 18 -21 62v558q0 11 9 11h28q9 0 9 -11v-549q0 -27 9 -36t35 -9zM212 350q0 24 17 40.5t40 16.5t40 -16.5t17 -40.5t-17 -40.5t-40 -16.5t-40 16.5t-17 40.5z" />
<glyph unicode="&#x140;" horiz-adv-x="299" d="M76 106v563q0 8 7 8h28q8 0 8 -8v-558q0 -42 11 -56.5t40 -14.5h26q7 0 7 -7v-25q0 -8 -8 -8h-23q-53 0 -74.5 23t-21.5 83zM186 376q0 24 17 40.5t40 16.5t40 -16.5t17 -40.5t-17 -40.5t-40 -16.5t-40 16.5t-17 40.5z" />
<glyph unicode="&#x141;" horiz-adv-x="375" d="M182 42h164q11 0 11 -11v-20q0 -11 -11 -11h-167q-47 0 -66 16q-21 18 -21 62v211l-80 -52q-12 -7 -12 10v19q0 16 12 23l80 52v295q0 11 9 11h28q9 0 9 -11v-264l100 66q12 8 12 -10v-19q0 -16 -12 -23l-100 -66v-233q0 -27 9 -36t35 -9z" />
<glyph unicode="&#x142;" horiz-adv-x="234" d="M76 106v205l-75 -50q-13 -9 -13 8v12q0 13 10 21l78 52v315q0 8 7 8h28q8 0 8 -8v-287l112 75q13 9 13 -8v-12q0 -13 -10 -21l-115 -77v-228q0 -42 11 -56.5t40 -14.5h26q7 0 7 -7v-25q0 -8 -8 -8h-23q-53 0 -74.5 23t-21.5 83z" />
<glyph unicode="&#x143;" horiz-adv-x="596" d="M435 21l-312 586h-6v-596q0 -11 -9 -11h-26q-10 0 -10 11v604q0 19 7 25.5t24 6.5h20q19 0 28 -6t18 -24l304 -577h6v596q0 11 9 11h26q10 0 10 -11v-606q0 -30 -27 -30h-27q-24 0 -35 21zM230 739l179 74q15 6 21 -10l10 -27q6 -14 -15 -20l-174 -55q-17 -6 -21 6l-6 17 q-3 11 6 15z" />
<glyph unicode="&#x144;" horiz-adv-x="498" d="M431 305v-297q0 -8 -8 -8h-28q-7 0 -7 8v293q0 108 -50 138q-31 19 -80 20q-69 2 -105.5 -32.5t-36.5 -111.5v-307q0 -8 -8 -8h-28q-7 0 -7 8v475q0 7 7 7h22q9 0 9 -8l3 -46h1q39 63 143 63q112 0 151 -70q22 -40 22 -124zM165 618l169 95q15 7 22 -8l13 -26 q8 -14 -13 -21l-166 -75q-16 -8 -22 3l-7 16q-4 11 4 16z" />
<glyph unicode="&#x145;" horiz-adv-x="596" d="M435 21l-312 586h-6v-596q0 -11 -9 -11h-26q-10 0 -10 11v604q0 19 7 25.5t24 6.5h20q19 0 28 -6t18 -24l304 -577h6v596q0 11 9 11h26q10 0 10 -11v-606q0 -30 -27 -30h-27q-24 0 -35 21zM301 -71h13q36 0 36 -37v-17q0 -66 -58 -121q-8 -8 -14 -3l-11 9q-7 5 -2 10 q22 22 34 47q4 10 4 14q0 9 -13 16q-20 10 -20 34v18q0 30 31 30z" />
<glyph unicode="&#x146;" horiz-adv-x="498" d="M431 305v-297q0 -8 -8 -8h-28q-7 0 -7 8v293q0 108 -50 138q-31 19 -80 20q-69 2 -105.5 -32.5t-36.5 -111.5v-307q0 -8 -8 -8h-28q-7 0 -7 8v475q0 7 7 7h22q9 0 9 -8l3 -46h1q39 63 143 63q112 0 151 -70q22 -40 22 -124zM250 -71h13q36 0 36 -37v-17q0 -66 -58 -121 q-8 -8 -14 -3l-11 9q-7 5 -2 10q22 22 34 47q4 10 4 14q0 9 -13 16q-20 10 -20 34v18q0 30 31 30z" />
<glyph unicode="&#x147;" horiz-adv-x="596" d="M435 21l-312 586h-6v-596q0 -11 -9 -11h-26q-10 0 -10 11v604q0 19 7 25.5t24 6.5h20q19 0 28 -6t18 -24l304 -577h6v596q0 11 9 11h26q10 0 10 -11v-606q0 -30 -27 -30h-27q-24 0 -35 21zM276 709l-111 122q-9 9 -1 15l19 16q7 7 17 -3l100 -103h6l100 103q9 9 17 3 l19 -16q7 -7 -1 -15l-111 -122q-6 -7 -15 -7h-24q-9 0 -15 7z" />
<glyph unicode="&#x148;" horiz-adv-x="498" d="M431 305v-297q0 -8 -8 -8h-28q-7 0 -7 8v293q0 108 -50 138q-31 19 -80 20q-69 2 -105.5 -32.5t-36.5 -111.5v-307q0 -8 -8 -8h-28q-7 0 -7 8v475q0 7 7 7h22q9 0 9 -8l3 -46h1q39 63 143 63q112 0 151 -70q22 -40 22 -124zM226 574l-111 122q-9 9 -1 15l19 16q7 7 17 -3 l100 -103h6l100 103q9 9 17 3l19 -16q7 -7 -1 -15l-111 -122q-6 -7 -15 -7h-24q-9 0 -15 7z" />
<glyph unicode="&#x149;" horiz-adv-x="498" d="M431 305v-297q0 -8 -8 -8h-28q-7 0 -7 8v293q0 108 -50 138q-31 19 -80 20q-69 2 -105.5 -32.5t-36.5 -111.5v-307q0 -8 -8 -8h-28q-7 0 -7 8v475q0 7 7 7h22q9 0 9 -8l3 -46h1q39 63 143 63q112 0 151 -70q22 -40 22 -124zM-15 669h13q39 0 39 -42v-20q0 -73 -52 -151 q-4 -7 -11 -3l-19 11q-6 3 -1 10q27 42 37 77q3 13 -8 18l-12 5q-18 8 -18 29v33q0 33 32 33z" />
<glyph unicode="&#x14a;" horiz-adv-x="596" d="M524 636v-617q0 -77 -5.5 -117t-22.5 -60q-24 -29 -93 -29h-25q-10 0 -10 8v21q0 8 9 8h29q44 0 59 19q16 21 16 100v31h-11q-24 0 -35 21l-312 586h-6v-596q0 -11 -9 -11h-26q-10 0 -10 11v604q0 19 7 25.5t24 6.5h20q19 0 28 -6t18 -24l304 -577h6v596q0 11 9 11h26 q10 0 10 -11z" />
<glyph unicode="&#x14b;" horiz-adv-x="498" d="M293 -148h-30q-9 0 -9 9v23q0 8 8 8h41q46 0 63 22q22 27 22 131v256q0 108 -50 138q-31 19 -80 20q-69 2 -105.5 -32.5t-36.5 -111.5v-307q0 -8 -8 -8h-28q-7 0 -7 8v475q0 7 7 7h22q9 0 9 -8l3 -46h1q39 63 143 63q112 0 151 -70q22 -40 22 -124v-266q0 -117 -37 -155 q-31 -32 -101 -32z" />
<glyph unicode="&#x14c;" horiz-adv-x="568" d="M284 33q95 0 134 51q26 33 36 84.5t10 140.5v29q0 93 -9.5 142.5t-36.5 83.5q-38 50 -134 50t-134 -50q-27 -34 -36.5 -83.5t-9.5 -142.5v-29q0 -89 10 -140.5t36 -84.5q39 -51 134 -51zM284 -9q-117 0 -169 59q-33 36 -46 91.5t-13 153.5v56q0 98 13 154t46 92 q52 59 169 59t169 -59q33 -36 46 -92t13 -154v-56q0 -98 -13 -153.5t-46 -91.5q-52 -59 -169 -59zM402 733h-229q-11 0 -11 11v21q0 12 11 12h229q11 0 11 -12v-21q0 -11 -11 -11z" />
<glyph unicode="&#x14d;" horiz-adv-x="470" d="M94 255v-20q0 -113 27 -153q34 -51 114 -51q79 0 114 51q27 41 27 153v20q0 113 -27 153q-35 51 -114 51t-114 -51q-27 -40 -27 -153zM420 267v-44q0 -142 -54 -191q-44 -41 -131 -41t-131 41q-54 49 -54 191v44q0 143 54 191q48 41 131 41q87 0 131 -41q54 -49 54 -191z M352 622h-229q-11 0 -11 11v21q0 12 11 12h229q11 0 11 -12v-21q0 -11 -11 -11z" />
<glyph unicode="&#x14e;" horiz-adv-x="568" d="M284 33q95 0 134 51q26 33 36 84.5t10 140.5v29q0 93 -9.5 142.5t-36.5 83.5q-38 50 -134 50t-134 -50q-27 -34 -36.5 -83.5t-9.5 -142.5v-29q0 -89 10 -140.5t36 -84.5q39 -51 134 -51zM284 -9q-117 0 -169 59q-33 36 -46 91.5t-13 153.5v56q0 98 13 154t46 92 q52 59 169 59t169 -59q33 -36 46 -92t13 -154v-56q0 -98 -13 -153.5t-46 -91.5q-52 -59 -169 -59zM286 703q-49 0 -88 27.5t-53 80.5q-4 12 7 15l21 6q12 4 15 -6q23 -81 98 -81q36 0 62.5 20.5t36.5 60.5q3 10 15 6l21 -6q10 -3 7 -15q-14 -53 -53 -80.5t-89 -27.5z" />
<glyph unicode="&#x14f;" horiz-adv-x="470" d="M94 255v-20q0 -113 27 -153q34 -51 114 -51q79 0 114 51q27 41 27 153v20q0 113 -27 153q-35 51 -114 51t-114 -51q-27 -40 -27 -153zM420 267v-44q0 -142 -54 -191q-44 -41 -131 -41t-131 41q-54 49 -54 191v44q0 143 54 191q48 41 131 41q87 0 131 -41q54 -49 54 -191z M238 571q-49 0 -88 27.5t-53 80.5q-4 12 7 15l21 6q12 4 15 -6q23 -81 98 -81q36 0 62.5 20.5t36.5 60.5q3 10 15 6l21 -6q10 -3 7 -15q-14 -53 -53 -80.5t-89 -27.5z" />
<glyph unicode="&#x150;" horiz-adv-x="568" d="M284 33q95 0 134 51q26 33 36 84.5t10 140.5v29q0 93 -9.5 142.5t-36.5 83.5q-38 50 -134 50t-134 -50q-27 -34 -36.5 -83.5t-9.5 -142.5v-29q0 -89 10 -140.5t36 -84.5q39 -51 134 -51zM284 -9q-117 0 -169 59q-33 36 -46 91.5t-13 153.5v56q0 98 13 154t46 92 q52 59 169 59t169 -59q33 -36 46 -92t13 -154v-56q0 -98 -13 -153.5t-46 -91.5q-52 -59 -169 -59zM147 725l146 110q14 12 24 -2l14 -20q10 -14 -6 -25l-150 -97q-9 -6 -15 3l-14 18q-6 8 1 13zM346 725l146 110q14 12 24 -2l14 -20q10 -14 -6 -25l-150 -97q-9 -6 -15 3 l-14 18q-6 8 1 13z" />
<glyph unicode="&#x151;" horiz-adv-x="470" d="M94 255v-20q0 -113 27 -153q34 -51 114 -51q79 0 114 51q27 41 27 153v20q0 113 -27 153q-35 51 -114 51t-114 -51q-27 -40 -27 -153zM420 267v-44q0 -142 -54 -191q-44 -41 -131 -41t-131 41q-54 49 -54 191v44q0 143 54 191q48 41 131 41q87 0 131 -41q54 -49 54 -191z M91 615l146 110q14 12 24 -2l14 -20q10 -14 -6 -25l-150 -97q-9 -6 -15 3l-14 18q-6 8 1 13zM290 615l146 110q14 12 24 -2l14 -20q10 -14 -6 -25l-150 -97q-8 -5 -15 3l-14 18q-6 8 1 13z" />
<glyph unicode="&#x152;" horiz-adv-x="829" d="M467 24q-12 12 -16 27q-60 -60 -167 -60q-117 0 -169 59q-33 36 -46 91.5t-13 153.5v56q0 98 13 154t46 92q52 59 169 59q103 0 170 -53q6 12 12 18q25 26 84 26h232q11 0 11 -11v-20q0 -11 -11 -11h-229q-35 0 -47 -12t-15 -49q-4 -56 -4 -188h242q11 0 11 -11v-20 q0 -11 -11 -11h-242q0 -139 4 -211q3 -37 15 -49t47 -12h229q11 0 11 -11v-20q0 -11 -11 -11h-232q-60 0 -83 24zM443 562q-62 53 -159 53q-94 0 -133 -51q-27 -34 -37 -83.5t-10 -142.5v-29q0 -88 10.5 -139.5t36.5 -85.5q40 -52 133 -52q108 0 159 64q-6 62 -6 199v57 q0 105 6 210z" />
<glyph unicode="&#x153;" horiz-adv-x="774" d="M722 322v-64q0 -23 -9 -32.5t-32 -9.5h-261q2 -105 34 -145t110 -40q64 0 120 23q9 4 13 -4l7 -16q5 -10 -9 -16q-61 -27 -131 -27q-139 0 -167 94q-16 -43 -57 -68.5t-105 -25.5q-87 0 -131 41q-54 49 -54 191v44q0 143 54 191q48 41 131 41q123 0 166 -96q33 96 154 96 q86 0 126.5 -41t40.5 -136zM94 255v-20q0 -113 27 -153q34 -51 114 -51q79 0 114 51q27 41 27 153v32v11q-3 94 -27 130q-35 51 -114 51t-114 -51q-27 -40 -27 -153zM421 258h242q6 0 8.5 0.5t4 4t1.5 11.5v35q0 83 -28.5 116.5t-93.5 33.5q-70 0 -101.5 -43t-32.5 -158z " />
<glyph unicode="&#x154;" horiz-adv-x="503" d="M118 277v-266q0 -11 -9 -11h-28q-9 0 -9 11v612q0 18 15 21q63 12 130 12q126 0 179 -40.5t53 -139.5v-11q0 -156 -136 -182l158 -271q7 -12 -7 -12h-32q-12 0 -17 9l-151 267q-13 -1 -41 -1q-68 0 -105 2zM221 614q-47 0 -89 -7q-14 -3 -14 -18v-269q48 -3 99 -3 q97 0 140.5 32.5t43.5 118.5v9q0 75 -41.5 106t-138.5 31zM174 739l179 74q15 6 21 -10l10 -27q6 -14 -15 -20l-174 -55q-17 -6 -21 6l-6 17q-3 11 6 15z" />
<glyph unicode="&#x155;" horiz-adv-x="284" d="M257 450h-30q-64 0 -89 -40q-22 -35 -22 -88v-314q0 -8 -8 -8h-28q-7 0 -7 8v475q0 7 7 7h20q10 0 11 -8l6 -49h1q31 57 109 57h31q8 0 8 -8v-23q0 -9 -9 -9zM95 618l169 95q15 7 22 -8l13 -26q8 -14 -13 -21l-166 -75q-16 -8 -22 3l-7 16q-4 11 4 16z" />
<glyph unicode="&#x156;" horiz-adv-x="503" d="M118 277v-266q0 -11 -9 -11h-28q-9 0 -9 11v612q0 18 15 21q63 12 130 12q126 0 179 -40.5t53 -139.5v-11q0 -156 -136 -182l158 -271q7 -12 -7 -12h-32q-12 0 -17 9l-151 267q-13 -1 -41 -1q-68 0 -105 2zM221 614q-47 0 -89 -7q-14 -3 -14 -18v-269q48 -3 99 -3 q97 0 140.5 32.5t43.5 118.5v9q0 75 -41.5 106t-138.5 31zM249 -71h13q36 0 36 -37v-17q0 -66 -58 -121q-8 -8 -14 -3l-11 9q-7 5 -2 10q22 22 34 47q4 10 4 14q0 9 -13 16q-20 10 -20 34v18q0 30 31 30z" />
<glyph unicode="&#x157;" horiz-adv-x="284" d="M257 450h-30q-64 0 -89 -40q-22 -35 -22 -88v-314q0 -8 -8 -8h-28q-7 0 -7 8v475q0 7 7 7h20q10 0 11 -8l6 -49h1q31 57 109 57h31q8 0 8 -8v-23q0 -9 -9 -9zM87 -71h13q36 0 36 -37v-17q0 -66 -58 -121q-8 -8 -14 -3l-11 9q-7 5 -2 10q22 22 34 47q4 10 4 14q0 9 -13 16 q-20 10 -20 34v18q0 30 31 30z" />
<glyph unicode="&#x158;" horiz-adv-x="503" d="M118 277v-266q0 -11 -9 -11h-28q-9 0 -9 11v612q0 18 15 21q63 12 130 12q126 0 179 -40.5t53 -139.5v-11q0 -156 -136 -182l158 -271q7 -12 -7 -12h-32q-12 0 -17 9l-151 267q-13 -1 -41 -1q-68 0 -105 2zM221 614q-47 0 -89 -7q-14 -3 -14 -18v-269q48 -3 99 -3 q97 0 140.5 32.5t43.5 118.5v9q0 75 -41.5 106t-138.5 31zM219 709l-111 122q-9 9 -1 15l19 16q7 7 17 -3l100 -103h6l100 103q9 9 17 3l19 -16q7 -7 -1 -15l-111 -122q-6 -7 -15 -7h-24q-9 0 -15 7z" />
<glyph unicode="&#x159;" horiz-adv-x="284" d="M257 450h-30q-64 0 -89 -40q-22 -35 -22 -88v-314q0 -8 -8 -8h-28q-7 0 -7 8v475q0 7 7 7h20q10 0 11 -8l6 -49h1q31 57 109 57h31q8 0 8 -8v-23q0 -9 -9 -9zM141 574l-111 122q-9 9 -1 15l19 16q7 7 17 -3l100 -103h6l100 103q9 9 17 3l19 -16q7 -7 -1 -15l-111 -122 q-6 -7 -15 -7h-24q-9 0 -15 7z" />
<glyph unicode="&#x15a;" horiz-adv-x="447" d="M210 -9q-84 0 -161 32q-10 4 -6 13l7 23q3 10 13 5q65 -31 146 -31q151 0 151 132v12q0 61 -24.5 88.5t-92.5 43.5l-57 14q-142 34 -142 154v18q0 78 49.5 119.5t139.5 41.5q72 0 129 -18q11 -3 8 -15l-4 -20q-3 -10 -15 -6q-56 17 -121 17q-138 0 -138 -119v-11 q0 -54 30 -79.5t86 -39.5l56 -14q83 -21 113.5 -56t30.5 -106v-19q0 -90 -53 -134.5t-145 -44.5zM156 739l179 74q15 6 21 -10l10 -27q6 -14 -15 -20l-174 -55q-17 -6 -21 6l-6 17q-3 11 6 15z" />
<glyph unicode="&#x15b;" horiz-adv-x="382" d="M179 -9q-72 0 -132 25q-8 4 -6 13l5 17q3 9 15 5q64 -22 122 -22q69 0 92.5 23.5t23.5 75.5v5q0 53 -17.5 72t-76.5 29l-45 8q-66 11 -91.5 41.5t-25.5 84.5v4q0 127 155 127q53 0 107 -14q11 -3 8 -13l-4 -16q-2 -9 -14 -6q-55 11 -100 11q-109 0 -109 -88v-4 q0 -44 22 -63t80 -29l45 -8q59 -11 84 -39.5t25 -90.5v-9q0 -75 -39 -107t-124 -32zM108 618l169 95q15 7 22 -8l13 -26q8 -14 -13 -21l-166 -75q-16 -8 -22 3l-7 16q-4 11 4 16z" />
<glyph unicode="&#x15c;" horiz-adv-x="447" d="M210 -9q-84 0 -161 32q-10 4 -6 13l7 23q3 10 13 5q65 -31 146 -31q151 0 151 132v12q0 61 -24.5 88.5t-92.5 43.5l-57 14q-142 34 -142 154v18q0 78 49.5 119.5t139.5 41.5q72 0 129 -18q11 -3 8 -15l-4 -20q-3 -10 -15 -6q-56 17 -121 17q-138 0 -138 -119v-11 q0 -54 30 -79.5t86 -39.5l56 -14q83 -21 113.5 -56t30.5 -106v-19q0 -90 -53 -134.5t-145 -44.5zM91 731l111 122q6 7 15 7h24q9 0 15 -7l111 -122q8 -8 1 -15l-19 -16q-8 -6 -17 3l-100 103h-6l-100 -103q-10 -10 -17 -3l-19 16q-8 6 1 15z" />
<glyph unicode="&#x15d;" horiz-adv-x="382" d="M179 -9q-72 0 -132 25q-8 4 -6 13l5 17q3 9 15 5q64 -22 122 -22q69 0 92.5 23.5t23.5 75.5v5q0 53 -17.5 72t-76.5 29l-45 8q-66 11 -91.5 41.5t-25.5 84.5v4q0 127 155 127q53 0 107 -14q11 -3 8 -13l-4 -16q-2 -9 -14 -6q-55 11 -100 11q-109 0 -109 -88v-4 q0 -44 22 -63t80 -29l45 -8q59 -11 84 -39.5t25 -90.5v-9q0 -75 -39 -107t-124 -32zM54 603l111 122q6 7 15 7h24q9 0 15 -7l111 -122q8 -8 1 -15l-19 -16q-8 -6 -17 3l-100 103h-6l-100 -103q-10 -10 -17 -3l-19 16q-8 6 1 15z" />
<glyph unicode="&#x15e;" horiz-adv-x="447" d="M408 170q0 -86 -47.5 -130t-131.5 -48l-8 -62q18 4 34 4q30 0 48 -18t18 -54q0 -90 -105 -90q-39 0 -69 10q-7 2 -6 10l4 22q2 8 10 5q29 -8 63 -8q30 0 44 11t14 37q0 37 -39 37q-17 0 -39 -5q-7 -1 -11 1l-7 4q-5 4 -4 10l12 86q-78 4 -139 31q-10 4 -6 13l7 24 q3 10 13 5q66 -32 146 -32q151 0 151 132v12q0 61 -24.5 88.5t-92.5 43.5l-57 14q-142 34 -142 154v18q0 78 49.5 119.5t139.5 41.5q72 0 129 -18q11 -3 8 -15l-4 -21q-3 -10 -15 -6q-59 18 -121 18q-138 0 -138 -119v-11q0 -54 30 -79.5t86 -39.5l56 -14q83 -21 113.5 -56 t30.5 -106v-19z" />
<glyph unicode="&#x15f;" horiz-adv-x="382" d="M149 -104q-5 4 -4 10l12 86q-69 3 -111 22q-9 4 -6 13l6 19q3 9 15 5q60 -20 122 -20q69 0 92.5 22.5t23.5 74.5v5q0 52 -17.5 70.5t-76.5 29.5l-45 8q-66 11 -91.5 41.5t-25.5 84.5v5q0 127 155 127q57 0 107 -13q11 -2 8 -13l-4 -20q-2 -9 -14 -6q-51 12 -100 12 q-109 0 -109 -86v-4q0 -44 22 -63t80 -29l45 -8q58 -11 83.5 -39.5t25.5 -90.5v-9q0 -70 -34.5 -102.5t-109.5 -35.5l-8 -62q18 4 34 4q30 0 48 -18t18 -54q0 -90 -105 -90q-39 0 -69 10q-8 2 -6 10l4 22q2 8 10 5q29 -8 63 -8q30 0 44 11t14 37q0 37 -39 37q-16 0 -39 -5 q-7 -1 -11 1z" />
<glyph unicode="&#x160;" horiz-adv-x="447" d="M210 -9q-84 0 -161 32q-10 4 -6 13l7 23q3 10 13 5q65 -31 146 -31q151 0 151 132v12q0 61 -24.5 88.5t-92.5 43.5l-57 14q-142 34 -142 154v18q0 78 49.5 119.5t139.5 41.5q72 0 129 -18q11 -3 8 -15l-4 -20q-3 -10 -15 -6q-56 17 -121 17q-138 0 -138 -119v-11 q0 -54 30 -79.5t86 -39.5l56 -14q83 -21 113.5 -56t30.5 -106v-19q0 -90 -53 -134.5t-145 -44.5zM196 709l-111 122q-9 9 -1 15l19 16q7 7 17 -3l100 -103h6l100 103q9 9 17 3l19 -16q7 -7 -1 -15l-111 -122q-6 -7 -15 -7h-24q-9 0 -15 7z" />
<glyph unicode="&#x161;" horiz-adv-x="382" d="M179 -9q-72 0 -132 25q-8 4 -6 13l5 17q3 9 15 5q64 -22 122 -22q69 0 92.5 23.5t23.5 75.5v5q0 53 -17.5 72t-76.5 29l-45 8q-66 11 -91.5 41.5t-25.5 84.5v4q0 127 155 127q53 0 107 -14q11 -3 8 -13l-4 -16q-2 -9 -14 -6q-55 11 -100 11q-109 0 -109 -88v-4 q0 -44 22 -63t80 -29l45 -8q59 -11 84 -39.5t25 -90.5v-9q0 -75 -39 -107t-124 -32zM166 574l-111 122q-9 9 -1 15l19 16q7 7 17 -3l100 -103h6l100 103q9 9 17 3l19 -16q7 -7 -1 -15l-111 -122q-6 -7 -15 -7h-24q-9 0 -15 7z" />
<glyph unicode="&#x162;" horiz-adv-x="478" d="M443 605h-181v-594q0 -11 -9 -11h-28q-9 0 -9 11v594h-181q-12 0 -12 10v22q0 10 12 10h408q12 0 12 -10v-22q0 -10 -12 -10zM232 -71h13q36 0 36 -37v-17q0 -66 -58 -121q-8 -8 -14 -3l-11 9q-7 5 -2 10q22 22 34 47q4 10 4 14q0 9 -13 16q-20 10 -20 34v18q0 30 31 30z " />
<glyph unicode="&#x163;" horiz-adv-x="294" d="M85 490v117q0 8 8 8h27q8 0 8 -8v-117h122q8 0 8 -7v-26q0 -7 -8 -7h-122v-291q0 -73 19 -95q23 -26 85 -26h30q8 0 8 -8v-22q0 -8 -8 -8h-36q-84 0 -115 40q-16 20 -21 44.5t-5 69.5v296h-70q-6 0 -6 6v19q0 5 6 7zM181 -71h13q36 0 36 -37v-17q0 -66 -58 -121 q-8 -8 -14 -3l-11 9q-7 5 -2 10q22 22 34 47q4 10 4 14q0 9 -13 16q-20 10 -20 34v18q0 30 31 30z" />
<glyph unicode="&#x164;" horiz-adv-x="478" d="M443 605h-181v-594q0 -11 -9 -11h-28q-9 0 -9 11v594h-181q-12 0 -12 10v22q0 10 12 10h408q12 0 12 -10v-22q0 -10 -12 -10zM212 709l-111 122q-9 9 -1 15l19 16q7 7 17 -3l100 -103h6l100 103q9 9 17 3l19 -16q7 -7 -1 -15l-111 -122q-6 -7 -15 -7h-24q-9 0 -15 7z" />
<glyph unicode="&#x165;" horiz-adv-x="294" d="M252 677h13q36 0 36 -37v-17q0 -65 -41 -106q-8 -8 -14 -3l-13 10q-7 5 -2 10q12 14 19 28q4 8 4 17t-13 16q-20 10 -20 34v18q0 30 31 30zM85 490v117q0 8 8 8h27q8 0 8 -8v-117h122q8 0 8 -7v-26q0 -7 -8 -7h-122v-291q0 -73 19 -95q23 -26 85 -26h30q8 0 8 -8v-22 q0 -8 -8 -8h-36q-84 0 -115 40q-16 20 -21 44.5t-5 69.5v296h-70q-6 0 -6 6v19q0 5 6 7z" />
<glyph unicode="&#x166;" horiz-adv-x="478" d="M443 609h-181v-260h151q10 0 10 -8v-22q0 -8 -10 -8h-151v-300q0 -11 -9 -11h-28q-9 0 -9 11v300h-151q-10 0 -10 8v22q0 8 10 8h151v260h-181q-12 0 -12 10v18q0 10 12 10h408q12 0 12 -10v-18q0 -10 -12 -10z" />
<glyph unicode="&#x167;" horiz-adv-x="294" d="M250 270h-122v-111q0 -73 19 -95q23 -26 85 -26h30q8 0 8 -8v-22q0 -8 -8 -8h-36q-84 0 -115 40q-16 20 -21 44.5t-5 69.5v116h-70q-6 0 -6 6v19q0 5 6 7l70 8v140h-70q-6 0 -6 6v19q0 5 6 7l70 8v117q0 8 8 8h27q8 0 8 -8v-117h122q8 0 8 -7v-26q0 -7 -8 -7h-122v-140 h122q8 0 8 -7v-26q0 -7 -8 -7z" />
<glyph unicode="&#x168;" horiz-adv-x="570" d="M285 -9q-112 0 -164 52q-51 50 -51 163v430q0 11 9 11h28q9 0 9 -11v-425q0 -96 37 -137q39 -45 132 -45t132 45q37 41 37 137v425q0 11 9 11h28q9 0 9 -11v-430q0 -113 -51 -163q-52 -52 -164 -52zM148 721l-20 13q-8 5 -2 14q35 73 97 73q28 0 59 -23l27 -21 q21 -15 37 -15q29 0 59 51q4 5 9 3l21 -14q8 -5 3 -13q-18 -33 -44.5 -54t-53.5 -21q-30 0 -58 22l-26 20q-23 17 -39 17q-29 0 -57 -50q-4 -7 -12 -2z" />
<glyph unicode="&#x169;" horiz-adv-x="482" d="M241 29q71 0 103 28q27 24 27 96v329q0 8 8 8h27q8 0 8 -8v-335q0 -84 -39 -119q-40 -37 -134 -37t-134 37q-39 35 -39 119v335q0 8 8 8h27q8 0 8 -8v-329q0 -72 27 -96q32 -28 103 -28zM107 596l-20 13q-8 5 -2 14q35 73 97 73q28 0 59 -23l27 -21q21 -15 37 -15 q29 0 59 51q4 5 9 3l21 -14q8 -5 3 -13q-18 -33 -44.5 -54t-53.5 -21q-31 0 -58 22l-26 20q-23 17 -39 17q-29 0 -57 -50q-4 -7 -12 -2z" />
<glyph unicode="&#x16a;" horiz-adv-x="570" d="M285 -9q-112 0 -164 52q-51 50 -51 163v430q0 11 9 11h28q9 0 9 -11v-425q0 -96 37 -137q39 -45 132 -45t132 45q37 41 37 137v425q0 11 9 11h28q9 0 9 -11v-430q0 -113 -51 -163q-52 -52 -164 -52zM399 733h-229q-11 0 -11 11v21q0 12 11 12h229q11 0 11 -12v-21 q0 -11 -11 -11z" />
<glyph unicode="&#x16b;" horiz-adv-x="482" d="M241 29q71 0 103 28q27 24 27 96v329q0 8 8 8h27q8 0 8 -8v-335q0 -84 -39 -119q-40 -37 -134 -37t-134 37q-39 35 -39 119v335q0 8 8 8h27q8 0 8 -8v-329q0 -72 27 -96q32 -28 103 -28zM357 622h-229q-11 0 -11 11v21q0 12 11 12h229q11 0 11 -12v-21q0 -11 -11 -11z " />
<glyph unicode="&#x16c;" horiz-adv-x="570" d="M285 -9q-112 0 -164 52q-51 50 -51 163v430q0 11 9 11h28q9 0 9 -11v-425q0 -96 37 -137q39 -45 132 -45t132 45q37 41 37 137v425q0 11 9 11h28q9 0 9 -11v-430q0 -113 -51 -163q-52 -52 -164 -52zM285 703q-49 0 -88 27.5t-53 80.5q-4 12 7 15l21 6q12 4 15 -6 q23 -81 98 -81q36 0 62.5 20.5t36.5 60.5q3 10 15 6l21 -6q10 -3 7 -15q-14 -53 -53 -80.5t-89 -27.5z" />
<glyph unicode="&#x16d;" horiz-adv-x="482" d="M241 29q71 0 103 28q27 24 27 96v329q0 8 8 8h27q8 0 8 -8v-335q0 -84 -39 -119q-40 -37 -134 -37t-134 37q-39 35 -39 119v335q0 8 8 8h27q8 0 8 -8v-329q0 -72 27 -96q32 -28 103 -28zM240 571q-49 0 -88 27.5t-53 80.5q-4 12 7 15l21 6q12 4 15 -6q23 -81 98 -81 q36 0 62.5 20.5t36.5 60.5q3 10 15 6l21 -6q10 -3 7 -15q-14 -53 -53 -80.5t-89 -27.5z" />
<glyph unicode="&#x16e;" horiz-adv-x="570" d="M285 -9q-112 0 -164 52q-51 50 -51 163v430q0 11 9 11h28q9 0 9 -11v-425q0 -96 37 -137q39 -45 132 -45t132 45q37 41 37 137v425q0 11 9 11h28q9 0 9 -11v-430q0 -113 -51 -163q-52 -52 -164 -52zM196 796q0 42 26 65.5t65 23.5t65 -23.5t26 -65.5t-26 -65.5t-65 -23.5 t-65 23.5t-26 65.5zM239 796q0 -23 13.5 -36t34.5 -13q22 0 35 13t13 36t-13 36t-35 13q-21 0 -34.5 -13t-13.5 -36z" />
<glyph unicode="&#x16f;" horiz-adv-x="482" d="M241 29q71 0 103 28q27 24 27 96v329q0 8 8 8h27q8 0 8 -8v-335q0 -84 -39 -119q-40 -37 -134 -37t-134 37q-39 35 -39 119v335q0 8 8 8h27q8 0 8 -8v-329q0 -72 27 -96q32 -28 103 -28zM151 639q0 42 26 65.5t65 23.5t65 -23.5t26 -65.5t-26 -65.5t-65 -23.5t-65 23.5 t-26 65.5zM194 639q0 -23 13.5 -36t34.5 -13q22 0 35 13t13 36t-13 36t-35 13q-21 0 -34.5 -13t-13.5 -36z" />
<glyph unicode="&#x170;" horiz-adv-x="570" d="M285 -9q-112 0 -164 52q-51 50 -51 163v430q0 11 9 11h28q9 0 9 -11v-425q0 -96 37 -137q39 -45 132 -45t132 45q37 41 37 137v425q0 11 9 11h28q9 0 9 -11v-430q0 -113 -51 -163q-52 -52 -164 -52zM144 725l146 110q14 12 24 -2l14 -20q10 -14 -6 -25l-150 -97 q-9 -6 -15 3l-14 18q-6 8 1 13zM343 725l146 110q14 12 24 -2l14 -20q10 -14 -6 -25l-150 -97q-9 -6 -15 3l-14 18q-6 8 1 13z" />
<glyph unicode="&#x171;" horiz-adv-x="482" d="M241 29q71 0 103 28q27 24 27 96v329q0 8 8 8h27q8 0 8 -8v-335q0 -84 -39 -119q-40 -37 -134 -37t-134 37q-39 35 -39 119v335q0 8 8 8h27q8 0 8 -8v-329q0 -72 27 -96q32 -28 103 -28zM98 615l146 110q14 12 24 -2l14 -20q10 -14 -6 -25l-150 -97q-9 -6 -15 3l-14 18 q-6 8 1 13zM297 615l146 110q14 12 24 -2l14 -20q10 -14 -6 -25l-150 -97q-8 -5 -15 3l-14 18q-6 8 1 13z" />
<glyph unicode="&#x172;" horiz-adv-x="570" d="M285 -9q-112 0 -164 52q-51 50 -51 163v430q0 11 9 11h28q9 0 9 -11v-425q0 -96 37 -137q39 -45 132 -45q94 0 134 44q35 39 35 138v425q0 11 9 11h28q9 0 9 -11v-430q0 -112 -51 -163q-23 -23 -63 -38q-47 -18 -70.5 -50t-23.5 -63q0 -45 51 -45q32 0 54 10q7 4 10 -4 l6 -22q2 -6 -6 -10q-30 -15 -74 -15q-41 0 -64 20t-23 57q0 71 67 110q-14 -2 -28 -2z" />
<glyph unicode="&#x173;" horiz-adv-x="482" d="M241 29q72 0 103 26q27 22 27 98v329q0 8 8 8h27q8 0 8 -8v-335q0 -83 -34 -114q-14 -13 -38 -26.5t-28 -15.5q-27 -18 -44.5 -45t-17.5 -54q0 -45 51 -45q32 0 54 10q7 4 10 -4l6 -22q2 -6 -6 -10q-30 -15 -74 -15q-41 0 -64 20t-23 57q0 32 18 61.5t47 47.5 q-8 -1 -30 -1q-94 0 -134 37q-39 35 -39 119v335q0 8 8 8h27q8 0 8 -8v-329q0 -72 27 -96q32 -28 103 -28z" />
<glyph unicode="&#x174;" horiz-adv-x="786" d="M398 578h-10q-75 -335 -132 -550q-4 -16 -12 -22t-23 -6h-25q-15 0 -22.5 5t-11.5 21q-80 287 -136 610q-2 11 6 11h32q9 0 10 -10q52 -312 130 -597h11q77 298 132 552q3 15 10 20t23 5h26q15 0 22.5 -5t10.5 -20q45 -209 132 -552h11q78 285 130 597q1 10 10 10h32 q8 0 6 -11q-56 -323 -136 -610q-4 -16 -11.5 -21t-22.5 -5h-25q-15 0 -23 6t-12 22q-57 215 -132 550zM255 731l111 122q6 7 15 7h24q9 0 15 -7l111 -122q8 -8 1 -15l-19 -16q-8 -6 -17 3l-100 103h-6l-100 -103q-10 -10 -17 -3l-19 16q-8 6 1 15z" />
<glyph unicode="&#x175;" horiz-adv-x="656" d="M321 466h14q28 0 33 -21q49 -197 105 -403h11q70 243 104 440q1 8 10 8h24q11 0 10 -10q-49 -260 -109 -451q-9 -29 -37 -29h-15q-17 0 -24.5 6.5t-12.5 22.5q-49 164 -101 389h-10q-52 -225 -101 -389q-5 -16 -12.5 -22.5t-24.5 -6.5h-15q-28 0 -37 29q-60 191 -109 451 q-1 7 0.5 8.5t9.5 1.5h24q9 0 11 -8q36 -206 103 -440h11q56 206 105 403q5 21 33 21zM191 603l111 122q6 7 15 7h24q9 0 15 -7l111 -122q8 -8 1 -15l-19 -16q-8 -6 -17 3l-100 103h-6l-100 -103q-10 -10 -17 -3l-19 16q-8 6 1 15z" />
<glyph unicode="&#x176;" horiz-adv-x="466" d="M256 11v213q61 108 100 196t82 216q4 11 -6 11h-33q-7 0 -10 -8q-68 -206 -152 -358h-8q-84 152 -152 358q-3 8 -10 8h-33q-10 0 -6 -11q43 -128 82 -216t100 -196v-213q0 -11 9 -11h28q9 0 9 11zM95 731l111 122q6 7 15 7h24q9 0 15 -7l111 -122q8 -8 1 -15l-19 -16 q-8 -6 -17 3l-100 103h-6l-100 -103q-10 -10 -17 -3l-19 16q-8 6 1 15z" />
<glyph unicode="&#x177;" horiz-adv-x="406" d="M225 53q72 190 114 429q1 8 10 8h26q10 0 7 -10q-53 -242 -96 -374.5t-112 -285.5q-4 -10 -13 -6l-23 10q-8 4 -4 12q42 83 77 177q-27 1 -43 13.5t-28 45.5q-55 150 -116 408q-3 10 7 10h26q9 0 11 -9q38 -174 99 -365q13 -39 22 -51t31 -12h5zM74 603l111 122q6 7 15 7 h24q9 0 15 -7l111 -122q8 -8 1 -15l-19 -16q-8 -6 -17 3l-100 103h-6l-100 -103q-10 -10 -17 -3l-19 16q-8 6 1 15z" />
<glyph unicode="&#x178;" horiz-adv-x="466" d="M256 11v213q61 108 100 196t82 216q4 11 -6 11h-33q-7 0 -10 -8q-68 -206 -152 -358h-8q-84 152 -152 358q-3 8 -10 8h-33q-10 0 -6 -11q43 -128 82 -216t100 -196v-213q0 -11 9 -11h28q9 0 9 11zM148 809h10q20 0 27.5 -6.5t7.5 -25.5v-21q0 -18 -7.5 -24.5t-27.5 -6.5 h-10q-20 0 -27 6.5t-7 24.5v21q0 18 7.5 25t26.5 7zM309 809h10q20 0 27.5 -6.5t7.5 -25.5v-21q0 -18 -7.5 -24.5t-27.5 -6.5h-10q-20 0 -27 6.5t-7 24.5v21q0 18 7.5 25t26.5 7z" />
<glyph unicode="&#x179;" horiz-adv-x="473" d="M86 38h337q8 0 8 -8v-21q0 -9 -8 -9h-374q-13 0 -13 11v10q0 18 20 50l329 538h-325q-8 0 -8 9v20q0 9 8 9h359q12 0 12 -12v-10q0 -16 -5.5 -29.5t-27.5 -48.5zM156 739l179 74q15 6 21 -10l10 -27q6 -14 -15 -20l-174 -55q-17 -6 -21 6l-6 17q-3 11 6 15z" />
<glyph unicode="&#x17a;" horiz-adv-x="386" d="M336 428l-243 -388h246q7 0 7 -7v-26q0 -7 -7 -7h-291q-8 0 -8 7v12q0 14 17 41l243 390h-243q-8 0 -8 7v26q0 7 8 7h289q8 0 8 -7v-10q0 -15 -18 -45zM121 618l169 95q15 7 22 -8l13 -26q8 -14 -13 -21l-166 -75q-16 -8 -22 3l-7 16q-4 11 4 16z" />
<glyph unicode="&#x17b;" horiz-adv-x="473" d="M86 38h337q8 0 8 -8v-21q0 -9 -8 -9h-374q-13 0 -13 11v10q0 18 20 50l329 538h-325q-8 0 -8 9v20q0 9 8 9h359q12 0 12 -12v-10q0 -16 -5.5 -29.5t-27.5 -48.5zM190 771q0 24 17 40.5t40 16.5t40 -16.5t17 -40.5t-17 -40.5t-40 -16.5t-40 16.5t-17 40.5z" />
<glyph unicode="&#x17c;" horiz-adv-x="386" d="M336 428l-243 -388h246q7 0 7 -7v-26q0 -7 -7 -7h-291q-8 0 -8 7v12q0 14 17 41l243 390h-243q-8 0 -8 7v26q0 7 8 7h289q8 0 8 -7v-10q0 -15 -18 -45zM149 643q0 24 17 40.5t40 16.5t40 -16.5t17 -40.5t-17 -40.5t-40 -16.5t-40 16.5t-17 40.5z" />
<glyph unicode="&#x17d;" horiz-adv-x="473" d="M86 38h337q8 0 8 -8v-21q0 -9 -8 -9h-374q-13 0 -13 11v10q0 18 20 50l329 538h-325q-8 0 -8 9v20q0 9 8 9h359q12 0 12 -12v-10q0 -16 -5.5 -29.5t-27.5 -48.5zM224 709l-111 122q-9 9 -1 15l19 16q7 7 17 -3l100 -103h6l100 103q9 9 17 3l19 -16q7 -7 -1 -15l-111 -122 q-6 -7 -15 -7h-24q-9 0 -15 7z" />
<glyph unicode="&#x17e;" horiz-adv-x="386" d="M336 428l-243 -388h246q7 0 7 -7v-26q0 -7 -7 -7h-291q-8 0 -8 7v12q0 14 17 41l243 390h-243q-8 0 -8 7v26q0 7 8 7h289q8 0 8 -7v-10q0 -15 -18 -45zM179 574l-111 122q-9 9 -1 15l19 16q7 7 17 -3l100 -103h6l100 103q9 9 17 3l19 -16q7 -7 -1 -15l-111 -122 q-6 -7 -15 -7h-24q-9 0 -15 7z" />
<glyph unicode="&#x17f;" horiz-adv-x="224" d="M134 521v-513q0 -8 -8 -8h-28q-7 0 -7 8v442h-63q-6 0 -6 6v19q0 5 6 7l63 8v37q0 59 18 94q34 65 133 65q46 0 77 -9q9 -4 8 -9l-4 -22q-2 -8 -11 -7q-36 8 -65 8q-55 0 -79 -20q-20 -16 -27 -39.5t-7 -66.5z" />
<glyph unicode="&#x192;" d="M282 312l-23 -325q-6 -86 -41 -129.5t-110 -43.5q-38 0 -67 8q-10 3 -7 11l5 18q3 10 13 8q30 -6 58 -6q98 0 106 129l22 330h-71q-9 0 -8 9l2 10q1 9 11 10l69 11l11 142q8 104 39.5 148t114.5 44q34 0 66 -9q8 -2 7 -10l-4 -19q-1 -9 -13 -6q-30 6 -59 6 q-60 0 -81.5 -33t-27.5 -118l-10 -146h126q6 0 8.5 -1.5t1.5 -7.5l-3 -22q-1 -8 -10 -8h-125z" />
<glyph unicode="&#x1cd;" d="M378 223h-244q-31 -106 -57 -215q-1 -8 -10 -8h-33q-8 0 -6 11q96 383 183 617q4 12 9.5 15.5t17.5 3.5h35q12 0 18 -3.5t10 -15.5q84 -231 183 -617q2 -11 -6 -11h-33q-9 0 -10 8q-26 109 -57 215zM145 265h222q-69 238 -104 342h-14q-35 -104 -104 -342zM229 709 l-111 122q-9 9 -1 15l19 16q7 7 17 -3l100 -103h6l100 103q9 9 17 3l19 -16q7 -7 -1 -15l-111 -122q-6 -7 -15 -7h-24q-9 0 -15 7z" />
<glyph unicode="&#x1ce;" horiz-adv-x="453" d="M343 149v91q-36 4 -67 4h-63q-69 0 -98 -22t-29 -74v-25q0 -50 22 -71.5t69 -21.5h39q127 0 127 119zM342 50h-2q-33 -59 -135 -59h-20q-78 0 -110.5 32t-32.5 107v12q0 74 38 107.5t141 33.5h50q28 0 72 -4v59q0 69 -29 95.5t-93 26.5q-58 0 -120 -18q-13 -4 -16 5 l-4 18q-2 10 8 14q62 20 137 20q86 0 123 -40t37 -131v-319q0 -9 -9 -9h-22q-9 0 -10 10zM201 574l-111 122q-9 9 -1 15l19 16q7 7 17 -3l100 -103h6l100 103q9 9 17 3l19 -16q7 -7 -1 -15l-111 -122q-6 -7 -15 -7h-24q-9 0 -15 7z" />
<glyph unicode="&#x1fa;" d="M378 223h-244q-31 -106 -57 -215q-1 -8 -10 -8h-33q-8 0 -6 11q96 383 183 617q4 12 9.5 15.5t17.5 3.5h35q12 0 18 -3.5t10 -15.5q84 -231 183 -617q2 -11 -6 -11h-33q-9 0 -10 8q-26 109 -57 215zM145 265h222q-69 238 -104 342h-14q-35 -104 -104 -342zM163 785 q0 42 26 65.5t65 23.5t65 -23.5t26 -65.5t-26 -65.5t-65 -23.5t-65 23.5t-26 65.5zM206 785q0 -23 13.5 -36t34.5 -13q22 0 35 13t13 36t-13 36t-35 13q-21 0 -34.5 -13t-13.5 -36zM191 939l169 95q15 7 22 -8l13 -26q8 -14 -13 -21l-166 -75q-16 -8 -22 3l-7 16q-4 11 4 16 z" />
<glyph unicode="&#x1fb;" horiz-adv-x="453" d="M343 149v91q-36 4 -67 4h-63q-69 0 -98 -22t-29 -74v-25q0 -50 22 -71.5t69 -21.5h39q127 0 127 119zM342 50h-2q-33 -59 -135 -59h-20q-78 0 -110.5 32t-32.5 107v12q0 74 38 107.5t141 33.5h50q28 0 72 -4v59q0 69 -29 95.5t-93 26.5q-58 0 -120 -18q-13 -4 -16 5 l-4 18q-2 10 8 14q62 20 137 20q86 0 123 -40t37 -131v-319q0 -9 -9 -9h-22q-9 0 -10 10zM133 636q0 42 26 65.5t65 23.5t65 -23.5t26 -65.5t-26 -65.5t-65 -23.5t-65 23.5t-26 65.5zM176 636q0 -23 13.5 -36t34.5 -13q22 0 35 13t13 36t-13 36t-35 13q-21 0 -34.5 -13 t-13.5 -36zM131 784l169 95q15 7 22 -8l13 -26q8 -14 -13 -21l-166 -75q-16 -8 -22 3l-7 16q-4 11 4 16z" />
<glyph unicode="&#x1fc;" horiz-adv-x="771" d="M724 605h-295v-249h255q11 0 11 -11v-20q0 -11 -11 -11h-255v-212q0 -34 12.5 -47t48.5 -13h229q11 0 11 -11v-20q0 -11 -11 -11h-234q-54 0 -78.5 22.5t-24.5 73.5v127h-204l-98 -211q-4 -12 -13 -12h-32q-13 0 -6 13q179 375 302 602q10 18 20 25t30 7h343q11 0 11 -11 v-20q0 -11 -11 -11zM374 605q-126 -240 -174 -340h182v340h-8zM459 739l179 74q15 6 21 -10l10 -27q6 -14 -15 -20l-174 -55q-17 -6 -21 6l-6 17q-3 11 6 15z" />
<glyph unicode="&#x1fd;" horiz-adv-x="741" d="M689 322v-64q0 -23 -9 -32.5t-32 -9.5h-261q2 -105 34 -145t110 -40q64 0 120 23q9 4 13 -4l7 -16q5 -10 -9 -16q-61 -27 -131 -27q-66 0 -109 23.5t-54 66.5q-22 -90 -163 -90h-20q-77 0 -110 32t-33 107v12q0 74 38 107.5t141 33.5h50q28 0 72 -4v59q0 69 -29 95.5 t-93 26.5t-120 -18q-13 -4 -16 5l-4 18q-2 10 8 14q62 20 139 20q117 0 144 -79q38 79 150 79q86 0 126.5 -41t40.5 -136zM343 149v61v12v18q-36 4 -67 4h-63q-69 0 -98 -22t-29 -74v-25q0 -50 21.5 -71.5t69.5 -21.5h48q118 0 118 119zM388 258h242q6 0 8.5 0.5t4 4 t1.5 11.5v35q0 83 -28.5 116.5t-93.5 33.5q-73 0 -103 -42t-31 -159zM303 618l169 95q15 7 22 -8l13 -26q8 -14 -13 -21l-166 -75q-16 -8 -22 3l-7 16q-4 11 4 16z" />
<glyph unicode="&#x1fe;" horiz-adv-x="568" d="M284 -9q-77 0 -126 25l-31 -60q-4 -6 -12 -2l-19 10q-7 4 -3 11l32 64q-4 3 -10 11q-33 36 -46 91.5t-13 153.5v56q0 98 13 154t46 92q52 59 169 59q88 0 137 -32l32 62q4 6 12 2l19 -10q7 -4 3 -11l-35 -69q33 -36 46.5 -92t13.5 -155v-56q0 -98 -13 -153.5t-46 -91.5 q-52 -59 -169 -59zM104 309q0 -87 10 -138t35 -85l251 495q-40 33 -116 33q-96 0 -134 -50q-27 -34 -36.5 -83.5t-9.5 -142.5v-29zM284 33q95 0 134 51q26 33 36 84.5t10 140.5v29q0 153 -37 211l-248 -491q40 -25 105 -25zM213 739l179 74q15 6 21 -10l10 -27 q6 -14 -15 -20l-174 -55q-17 -6 -21 6l-6 17q-3 11 6 15z" />
<glyph unicode="&#x1ff;" horiz-adv-x="470" d="M160 618l169 95q15 7 22 -8l13 -26q8 -14 -13 -21l-166 -75q-16 -8 -22 3l-7 16q-4 11 4 16zM420 267v-44q0 -142 -54 -191q-44 -41 -131 -41q-60 0 -102 20l-29 -58q-3 -7 -12 -3l-16 8q-8 5 -4 12l31 62q-53 49 -53 191v44q0 143 54 191q48 41 131 41q55 0 96 -18 l30 60q3 7 12 3l16 -8q8 -5 4 -12l-32 -62l5 -4q54 -49 54 -191zM349 408l-9 11l-187 -368q32 -20 82 -20q79 0 114 51q27 41 27 153v20q0 113 -27 153zM94 255v-20q0 -113 27 -153l4 -6l186 366q-31 17 -76 17q-79 0 -114 -51q-27 -40 -27 -153z" />
<glyph unicode="&#x218;" horiz-adv-x="447" d="M210 -9q-84 0 -161 32q-10 4 -6 13l7 23q3 10 13 5q65 -31 146 -31q151 0 151 132v12q0 61 -24.5 88.5t-92.5 43.5l-57 14q-142 34 -142 154v18q0 78 49.5 119.5t139.5 41.5q72 0 129 -18q11 -3 8 -15l-4 -20q-3 -10 -15 -6q-56 17 -121 17q-138 0 -138 -119v-11 q0 -54 30 -79.5t86 -39.5l56 -14q83 -21 113.5 -56t30.5 -106v-19q0 -90 -53 -134.5t-145 -44.5zM214 -71h13q36 0 36 -37v-17q0 -66 -58 -121q-8 -8 -14 -3l-11 9q-7 5 -2 10q22 22 34 47q4 10 4 14q0 9 -13 16q-20 10 -20 34v18q0 30 31 30z" />
<glyph unicode="&#x219;" horiz-adv-x="382" d="M179 -9q-72 0 -132 25q-8 4 -6 13l5 17q3 9 15 5q64 -22 122 -22q69 0 92.5 23.5t23.5 75.5v5q0 53 -17.5 72t-76.5 29l-45 8q-66 11 -91.5 41.5t-25.5 84.5v4q0 127 155 127q53 0 107 -14q11 -3 8 -13l-4 -16q-2 -9 -14 -6q-55 11 -100 11q-109 0 -109 -88v-4 q0 -44 22 -63t80 -29l45 -8q59 -11 84 -39.5t25 -90.5v-9q0 -75 -39 -107t-124 -32zM189 -71h13q36 0 36 -37v-17q0 -66 -58 -121q-8 -8 -14 -3l-11 9q-7 5 -2 10q22 22 34 47q4 10 4 14q0 9 -13 16q-20 10 -20 34v18q0 30 31 30z" />
<glyph unicode="&#x21a;" horiz-adv-x="478" d="M443 605h-181v-594q0 -11 -9 -11h-28q-9 0 -9 11v594h-181q-12 0 -12 10v22q0 10 12 10h408q12 0 12 -10v-22q0 -10 -12 -10zM232 -71h13q36 0 36 -37v-17q0 -66 -58 -121q-8 -8 -14 -3l-11 9q-7 5 -2 10q22 22 34 47q4 10 4 14q0 9 -13 16q-20 10 -20 34v18q0 30 31 30z " />
<glyph unicode="&#x21b;" horiz-adv-x="294" d="M85 490v117q0 8 8 8h27q8 0 8 -8v-117h122q8 0 8 -7v-26q0 -7 -8 -7h-122v-291q0 -73 19 -95q23 -26 85 -26h30q8 0 8 -8v-22q0 -8 -8 -8h-36q-84 0 -115 40q-16 20 -21 44.5t-5 69.5v296h-70q-6 0 -6 6v19q0 5 6 7zM181 -71h13q36 0 36 -37v-17q0 -66 -58 -121 q-8 -8 -14 -3l-11 9q-7 5 -2 10q22 22 34 47q4 10 4 14q0 9 -13 16q-20 10 -20 34v18q0 30 31 30z" />
<glyph unicode="&#x2c6;" horiz-adv-x="373" d="M49 603l111 122q6 7 15 7h24q9 0 15 -7l111 -122q8 -8 1 -15l-19 -16q-8 -6 -17 3l-100 103h-6l-100 -103q-10 -10 -17 -3l-19 16q-8 6 1 15z" />
<glyph unicode="&#x2c7;" horiz-adv-x="373" d="M159 574l-111 122q-9 9 -1 15l19 16q7 7 17 -3l100 -103h6l100 103q9 9 17 3l19 -16q7 -7 -1 -15l-111 -122q-6 -7 -15 -7h-24q-9 0 -15 7z" />
<glyph unicode="&#x2d8;" horiz-adv-x="373" d="M186 571q-49 0 -88 27.5t-53 80.5q-4 12 7 15l21 6q12 4 15 -6q23 -81 98 -81q36 0 62.5 20.5t36.5 60.5q3 10 15 6l21 -6q10 -3 7 -15q-14 -53 -53 -80.5t-89 -27.5z" />
<glyph unicode="&#x2d9;" horiz-adv-x="132" d="M9 643q0 24 17 40.5t40 16.5t40 -16.5t17 -40.5t-17 -40.5t-40 -16.5t-40 16.5t-17 40.5z" />
<glyph unicode="&#x2da;" horiz-adv-x="219" d="M18 639q0 42 26 65.5t65 23.5t65 -23.5t26 -65.5t-26 -65.5t-65 -23.5t-65 23.5t-26 65.5zM61 639q0 -23 13.5 -36t34.5 -13q22 0 35 13t13 36t-13 36t-35 13q-21 0 -34.5 -13t-13.5 -36z" />
<glyph unicode="&#x2db;" horiz-adv-x="223" d="M41 -117q0 36 21 67.5t55 50.5q8 5 17 5h23q4 0 5 -2t-2 -4q-73 -49 -73 -108q0 -45 51 -45q32 0 54 10q7 4 10 -4l6 -22q2 -6 -6 -10q-30 -15 -74 -15q-41 0 -64 20t-23 57z" />
<glyph unicode="&#x2dc;" horiz-adv-x="416" d="M71 596l-20 13q-8 5 -2 14q35 73 97 73q28 0 59 -23l27 -21q21 -15 37 -15q29 0 59 51q4 5 9 3l21 -14q8 -5 3 -13q-18 -33 -44.5 -54t-53.5 -21q-31 0 -58 22l-26 20q-23 17 -39 17q-29 0 -57 -50q-4 -7 -12 -2z" />
<glyph unicode="&#x2dd;" horiz-adv-x="530" d="M78 615l146 110q14 12 24 -2l14 -20q10 -14 -6 -25l-150 -97q-9 -6 -15 3l-14 18q-6 8 1 13zM277 615l146 110q14 12 24 -2l14 -20q10 -14 -6 -25l-150 -97q-8 -5 -15 3l-14 18q-6 8 1 13z" />
<glyph unicode="&#x394;" horiz-adv-x="609" d="M113 46h383q-94 301 -189 541h-5q-81 -200 -189 -541zM269 634q4 13 19 13h33q15 0 19 -13q57 -151 189 -532q20 -58 20 -73v-15q0 -14 -14 -14h-461q-14 0 -14 14v15q0 15 20 73q83 254 189 532z" />
<glyph unicode="&#x3a9;" horiz-adv-x="672" d="M95 298v56q0 87 14 143t48 94q58 65 179 65t179 -65q34 -38 48 -94t14 -143v-56q0 -86 -32 -153t-93 -101v-2h124q11 0 11 -11v-20q0 -11 -11 -11h-191q-15 0 -15 13v10q0 13 15 21q75 40 109.5 104t34.5 166v27q0 80 -9.5 128t-35.5 84q-45 62 -148 62t-148 -62 q-26 -36 -35.5 -84t-9.5 -128v-27q0 -102 34.5 -166t109.5 -104q15 -8 15 -21v-10q0 -13 -15 -13h-191q-11 0 -11 11v20q0 11 11 11h124v2q-61 34 -93 101t-32 153z" />
<glyph unicode="&#x3bc;" horiz-adv-x="539" d="M116 35v-205q0 -8 -8 -8h-27q-8 0 -8 8v652q0 8 8 8h27q8 0 8 -8v-342q0 -61 30 -86t94 -25q60 0 98 35t38 111v307q0 8 8 8h27q8 0 8 -8v-403q0 -29 8.5 -39.5t26.5 -10.5q19 0 38 7q6 3 9 -5l4 -16q2 -7 -4 -11q-23 -13 -56 -13q-31 0 -48 18t-18 50h-3 q-39 -68 -139 -68q-88 0 -121 44z" />
<glyph unicode="&#x3c0;" horiz-adv-x="583" d="M132 453h-71q-11 0 -11 10v16q0 11 11 11h455q11 0 11 -11v-16q0 -10 -11 -10h-87v-355q0 -44 9.5 -58.5t34.5 -14.5q24 0 46 8q9 3 10 -4l4 -16q3 -7 -4 -10q-26 -12 -60 -12q-45 0 -64 21.5t-19 75.5v365h-211v-443q0 -10 -9 -10h-25q-9 0 -9 10v443z" />
<glyph unicode="&#x1e80;" horiz-adv-x="786" d="M398 578h-10q-75 -335 -132 -550q-4 -16 -12 -22t-23 -6h-25q-15 0 -22.5 5t-11.5 21q-80 287 -136 610q-2 11 6 11h32q9 0 10 -10q52 -312 130 -597h11q77 298 132 552q3 15 10 20t23 5h26q15 0 22.5 -5t10.5 -20q45 -209 132 -552h11q78 285 130 597q1 10 10 10h32 q8 0 6 -11q-56 -323 -136 -610q-4 -16 -11.5 -21t-22.5 -5h-25q-15 0 -23 6t-12 22q-57 215 -132 550zM284 813l179 -74q9 -4 6 -15l-6 -17q-4 -12 -21 -6l-174 55q-21 6 -15 20l10 27q6 16 21 10z" />
<glyph unicode="&#x1e81;" horiz-adv-x="656" d="M321 466h14q28 0 33 -21q49 -197 105 -403h11q70 243 104 440q1 8 10 8h24q11 0 10 -10q-49 -260 -109 -451q-9 -29 -37 -29h-15q-17 0 -24.5 6.5t-12.5 22.5q-49 164 -101 389h-10q-52 -225 -101 -389q-5 -16 -12.5 -22.5t-24.5 -6.5h-15q-28 0 -37 29q-60 191 -109 451 q-1 7 0.5 8.5t9.5 1.5h24q9 0 11 -8q36 -206 103 -440h11q56 206 105 403q5 21 33 21zM236 713l169 -95q8 -5 4 -16l-7 -16q-6 -11 -22 -3l-166 75q-21 7 -13 21l13 26q7 15 22 8z" />
<glyph unicode="&#x1e82;" horiz-adv-x="786" d="M398 578h-10q-75 -335 -132 -550q-4 -16 -12 -22t-23 -6h-25q-15 0 -22.5 5t-11.5 21q-80 287 -136 610q-2 11 6 11h32q9 0 10 -10q52 -312 130 -597h11q77 298 132 552q3 15 10 20t23 5h26q15 0 22.5 -5t10.5 -20q45 -209 132 -552h11q78 285 130 597q1 10 10 10h32 q8 0 6 -11q-56 -323 -136 -610q-4 -16 -11.5 -21t-22.5 -5h-25q-15 0 -23 6t-12 22q-57 215 -132 550zM328 739l179 74q15 6 21 -10l10 -27q6 -14 -15 -20l-174 -55q-17 -6 -21 6l-6 17q-3 11 6 15z" />
<glyph unicode="&#x1e83;" horiz-adv-x="656" d="M321 466h14q28 0 33 -21q49 -197 105 -403h11q70 243 104 440q1 8 10 8h24q11 0 10 -10q-49 -260 -109 -451q-9 -29 -37 -29h-15q-17 0 -24.5 6.5t-12.5 22.5q-49 164 -101 389h-10q-52 -225 -101 -389q-5 -16 -12.5 -22.5t-24.5 -6.5h-15q-28 0 -37 29q-60 191 -109 451 q-1 7 0.5 8.5t9.5 1.5h24q9 0 11 -8q36 -206 103 -440h11q56 206 105 403q5 21 33 21zM257 618l169 95q15 7 22 -8l13 -26q8 -14 -13 -21l-166 -75q-16 -8 -22 3l-7 16q-4 11 4 16z" />
<glyph unicode="&#x1e84;" horiz-adv-x="786" d="M398 578h-10q-75 -335 -132 -550q-4 -16 -12 -22t-23 -6h-25q-15 0 -22.5 5t-11.5 21q-80 287 -136 610q-2 11 6 11h32q9 0 10 -10q52 -312 130 -597h11q77 298 132 552q3 15 10 20t23 5h26q15 0 22.5 -5t10.5 -20q45 -209 132 -552h11q78 285 130 597q1 10 10 10h32 q8 0 6 -11q-56 -323 -136 -610q-4 -16 -11.5 -21t-22.5 -5h-25q-15 0 -23 6t-12 22q-57 215 -132 550zM307 809h10q20 0 27.5 -6.5t7.5 -25.5v-21q0 -18 -7.5 -24.5t-27.5 -6.5h-10q-20 0 -27 6.5t-7 24.5v21q0 18 7.5 25t26.5 7zM468 809h10q20 0 27.5 -6.5t7.5 -25.5v-21 q0 -18 -7.5 -24.5t-27.5 -6.5h-10q-20 0 -27 6.5t-7 24.5v21q0 18 7.5 25t26.5 7z" />
<glyph unicode="&#x1e85;" horiz-adv-x="656" d="M321 466h14q28 0 33 -21q49 -197 105 -403h11q70 243 104 440q1 8 10 8h24q11 0 10 -10q-49 -260 -109 -451q-9 -29 -37 -29h-15q-17 0 -24.5 6.5t-12.5 22.5q-49 164 -101 389h-10q-52 -225 -101 -389q-5 -16 -12.5 -22.5t-24.5 -6.5h-15q-28 0 -37 29q-60 191 -109 451 q-1 7 0.5 8.5t9.5 1.5h24q9 0 11 -8q36 -206 103 -440h11q56 206 105 403q5 21 33 21zM242 686h10q20 0 27.5 -6.5t7.5 -25.5v-21q0 -18 -7.5 -24.5t-27.5 -6.5h-10q-20 0 -27 6.5t-7 24.5v21q0 18 7.5 25t26.5 7zM403 686h10q20 0 27.5 -6.5t7.5 -25.5v-21 q0 -18 -7.5 -24.5t-27.5 -6.5h-10q-20 0 -27 6.5t-7 24.5v21q0 18 7.5 25t26.5 7z" />
<glyph unicode="&#x1ef2;" horiz-adv-x="466" d="M256 11v213q61 108 100 196t82 216q4 11 -6 11h-33q-7 0 -10 -8q-68 -206 -152 -358h-8q-84 152 -152 358q-3 8 -10 8h-33q-10 0 -6 -11q43 -128 82 -216t100 -196v-213q0 -11 9 -11h28q9 0 9 11zM149 813l179 -74q9 -4 6 -15l-6 -17q-4 -12 -21 -6l-174 55q-21 6 -15 20 l10 27q6 16 21 10z" />
<glyph unicode="&#x1ef3;" horiz-adv-x="406" d="M225 53q72 190 114 429q1 8 10 8h26q10 0 7 -10q-53 -242 -96 -374.5t-112 -285.5q-4 -10 -13 -6l-23 10q-8 4 -4 12q42 83 77 177q-27 1 -43 13.5t-28 45.5q-55 150 -116 408q-3 10 7 10h26q9 0 11 -9q38 -174 99 -365q13 -39 22 -51t31 -12h5zM124 713l169 -95 q8 -5 4 -16l-7 -16q-6 -11 -22 -3l-166 75q-21 7 -13 21l13 26q7 15 22 8z" />
<glyph unicode="&#x2013;" horiz-adv-x="500" d="M493 239h-486q-7 0 -7 7v30q0 7 7 7h486q7 0 7 -7v-30q0 -7 -7 -7z" />
<glyph unicode="&#x2014;" horiz-adv-x="1000" d="M993 239h-986q-7 0 -7 7v30q0 7 7 7h986q7 0 7 -7v-30q0 -7 -7 -7z" />
<glyph unicode="&#x2018;" horiz-adv-x="204" d="M122 467h-13q-39 0 -39 42v20q0 73 52 151q4 7 11 3l19 -11q6 -3 1 -10q-27 -42 -37 -77q-3 -13 8 -18l12 -5q18 -8 18 -29v-33q0 -33 -32 -33z" />
<glyph unicode="&#x2019;" horiz-adv-x="204" d="M82 686h13q39 0 39 -42v-20q0 -73 -52 -151q-4 -7 -11 -3l-19 11q-6 3 -1 10q27 42 37 77q3 13 -8 18l-12 5q-18 7 -18 29v33q0 33 32 33z" />
<glyph unicode="&#x201a;" horiz-adv-x="204" d="M82 87h13q39 0 39 -42v-20q0 -73 -52 -151q-4 -7 -11 -3l-19 11q-6 3 -1 10q27 42 37 77q3 13 -8 18l-12 5q-18 7 -18 29v33q0 33 32 33z" />
<glyph unicode="&#x201c;" horiz-adv-x="338" d="M256 468h-13q-39 0 -39 42v20q0 73 52 151q4 7 11 3l19 -11q6 -3 1 -10q-27 -42 -37 -77q-3 -13 8 -18l12 -5q18 -7 18 -29v-33q0 -33 -32 -33zM122 468h-13q-39 0 -39 42v20q0 73 52 151q4 7 11 3l19 -11q6 -3 1 -10q-27 -42 -37 -77q-3 -13 8 -18l12 -5q18 -7 18 -29 v-33q0 -33 -32 -33z" />
<glyph unicode="&#x201d;" horiz-adv-x="339" d="M217 686h13q39 0 39 -42v-20q0 -73 -52 -151q-4 -7 -11 -3l-19 11q-6 3 -1 10q27 42 37 77q3 13 -8 18l-12 5q-18 7 -18 29v33q0 33 32 33zM82 686h13q39 0 39 -42v-20q0 -73 -52 -151q-4 -7 -11 -3l-19 11q-6 3 -1 10q27 42 37 77q3 13 -8 18l-12 5q-18 7 -18 29v33 q0 33 32 33z" />
<glyph unicode="&#x201e;" horiz-adv-x="338" d="M216 87h13q39 0 39 -42v-20q0 -73 -52 -151q-4 -7 -11 -3l-19 11q-6 3 -1 10q27 42 37 77q3 13 -8 18l-12 5q-18 8 -18 29v33q0 33 32 33zM82 87h13q39 0 39 -42v-20q0 -73 -52 -151q-4 -7 -11 -3l-19 11q-6 3 -1 10q27 42 37 77q3 13 -8 18l-12 5q-18 7 -18 29v33 q0 33 32 33z" />
<glyph unicode="&#x2020;" horiz-adv-x="356" d="M323 431l-123 2l-4 -424q0 -9 -8 -9h-21q-8 0 -8 9l-5 424l-121 -2q-8 0 -8 7v37q0 7 8 7l120 -4l-2 191q0 9 10 9h32q10 0 10 -9l-2 -191l122 4q8 0 8 -7v-37q0 -7 -8 -7z" />
<glyph unicode="&#x2021;" horiz-adv-x="356" d="M308 240l-110 2l-2 -233q0 -9 -8 -9h-21q-8 0 -8 9l-3 233l-108 -2q-8 0 -8 7v37q0 7 8 7l107 -4l-1 146l-121 -2q-8 0 -8 7v37q0 7 8 7l120 -4l-2 191q0 9 10 9h32q10 0 10 -9l-2 -191l122 4q8 0 8 -7v-37q0 -7 -8 -7l-123 2l-2 -146l110 4q8 0 8 -7v-37q0 -7 -8 -7z " />
<glyph unicode="&#x2022;" horiz-adv-x="341" d="M62 261q0 46 31 77.5t77 31.5t77.5 -31.5t31.5 -77.5t-31.5 -77t-77.5 -31t-77 31t-31 77z" />
<glyph unicode="&#x2026;" horiz-adv-x="555" d="M132 51v-27q0 -17 -7.5 -25t-27.5 -8h-10q-34 0 -34 33v27q0 33 34 33h10q20 0 27.5 -8t7.5 -25zM317 51v-27q0 -17 -7.5 -25t-27.5 -8h-10q-34 0 -34 33v27q0 33 34 33h10q20 0 27.5 -8t7.5 -25zM502 51v-27q0 -17 -7.5 -25t-27.5 -8h-10q-34 0 -34 33v27q0 33 34 33h10 q20 0 27.5 -8t7.5 -25z" />
<glyph unicode="&#x2030;" horiz-adv-x="1033" d="M170 656q56 0 82 -28q38 -39 38 -141v-12q0 -102 -38 -141q-26 -28 -82 -28t-82 28q-38 39 -38 141v12q0 102 38 141q26 28 82 28zM170 341q39 0 58.5 29.5t19.5 105.5v10q0 76 -19.5 105.5t-58.5 29.5t-58.5 -29.5t-19.5 -105.5v-10q0 -76 19.5 -105.5t58.5 -29.5z M566 648l-354 -651q-4 -6 -11 -6h-33q-9 0 -5 8l354 651q4 6 11 6h33q9 0 5 -8zM561 341q56 0 82 -28q38 -39 38 -141v-12q0 -102 -38 -141q-26 -28 -82 -28t-82 28q-38 39 -38 141v12q0 102 38 141q26 28 82 28zM561 26q39 0 58.5 29.5t19.5 105.5v10q0 76 -19.5 105.5 t-58.5 29.5t-58.5 -29.5t-19.5 -105.5v-10q0 -76 19.5 -105.5t58.5 -29.5zM863 341q56 0 82 -28q38 -39 38 -141v-12q0 -102 -38 -141q-26 -28 -82 -28t-82 28q-38 39 -38 141v12q0 102 38 141q26 28 82 28zM863 26q39 0 58.5 29.5t19.5 105.5v10q0 76 -19.5 105.5 t-58.5 29.5t-58.5 -29.5t-19.5 -105.5v-10q0 -76 19.5 -105.5t58.5 -29.5z" />
<glyph unicode="&#x2039;" horiz-adv-x="272" d="M213 338l-114 -106l114 -108q7 -6 1 -12l-16 -16q-5 -5 -12 0l-136 115q-5 5 -5 12v17q0 7 5 12l136 114q7 5 12 0l16 -16q6 -6 -1 -12z" />
<glyph unicode="&#x203a;" horiz-adv-x="272" d="M173 232l-114 106q-7 6 -1 12l16 16q5 5 12 0l136 -114q5 -5 5 -12v-17q0 -7 -5 -12l-136 -115q-7 -5 -12 0l-16 16q-6 6 1 12z" />
<glyph unicode="&#x2044;" horiz-adv-x="98" d="M260 647l-376 -656q-4 -7 -11 -7h-30q-10 0 -4 9l376 656q3 7 11 7h30q8 0 4 -9z" />
<glyph unicode="&#x20ac;" d="M372 228h-223q3 -105 38.5 -150.5t136.5 -45.5q68 0 135 25q11 4 14 -5l6 -19q3 -9 -6 -13q-70 -30 -157 -30q-119 0 -165.5 55t-51.5 183h-73q-7 0 -7 6v30q0 6 7 6h73v71h-73q-7 0 -7 6v30q0 6 7 6h73q1 97 16.5 147t52.5 81q54 45 146 45q87 0 158 -37q12 -6 6 -18 l-7 -15q-4 -10 -16 -4q-70 32 -140 32q-79 0 -119 -39q-26 -25 -35.5 -68t-11.5 -124h223q7 0 7 -6v-30q0 -6 -7 -6h-223v-1v-70h223q7 0 7 -6v-30q0 -6 -7 -6z" />
<glyph unicode="&#x2113;" horiz-adv-x="425" d="M150 262q157 98 157 248q0 51 -20 77.5t-53 26.5q-43 0 -63.5 -32t-20.5 -104v-216zM150 218v-47q0 -76 21.5 -109t64.5 -33q29 0 57 22.5t45 57.5q4 8 11 4l17 -10q6 -4 3 -11q-23 -49 -59.5 -75t-76.5 -26q-124 0 -124 171v32q-23 -14 -67 -36q-9 -4 -12 3l-8 19 q-4 8 5 13q48 23 82 44v253q0 162 124 162q116 0 116 -149q0 -86 -48 -154t-151 -131z" />
<glyph unicode="&#x2116;" horiz-adv-x="889" d="M824 0h-198q-7 0 -8.5 2t-1.5 9v11q0 7 1.5 9t8.5 2h198q7 0 8.5 -2t1.5 -9v-11q0 -7 -1.5 -9t-8.5 -2zM435 21l-312 586h-6v-596q0 -11 -9 -11h-26q-10 0 -10 11v604q0 19 7 25.5t24 6.5h20q19 0 28 -6t18 -24l304 -577h6v596q0 11 9 11h26q10 0 10 -11v-606 q0 -30 -27 -30h-27q-24 0 -35 21zM645 229v-6q0 -66 17 -89.5t61 -23.5q45 0 62 23.5t17 89.5v6q0 66 -17.5 90.5t-61.5 24.5q-43 0 -60.5 -24.5t-17.5 -90.5zM844 239v-24q0 -77 -28.5 -107.5t-92.5 -30.5t-92 30.5t-28 107.5v24q0 77 28.5 107.5t91.5 30.5 q64 0 92.5 -30.5t28.5 -107.5z" />
<glyph unicode="&#x2122;" horiz-adv-x="643" d="M143 347h-23q-6 0 -7 1t-1 6v260h-80q-6 0 -6 7v20q0 6 6 6h199q5 0 5 -6v-20q0 -7 -5 -7h-81v-260q0 -7 -7 -7zM451 394q25 76 64 209h3q7 -103 13 -249q0 -7 7 -7h22q9 0 9 8q-5 124 -17 281q0 11 -13 11h-37q-12 0 -16 -11q-35 -130 -62 -214h-4q-25 74 -61 214 q-3 11 -15 11h-37q-12 0 -12 -11q-11 -125 -17 -281q0 -8 8 -8h21q7 0 7 7q6 146 13 249h3q30 -108 62 -209q4 -13 17 -13h25q14 0 17 13z" />
<glyph unicode="&#x212e;" horiz-adv-x="820" d="M780 316h-599q-5 0 -5 -5v-182q0 -10 9 -21q42 -45 101.5 -71t125.5 -26q70 0 132 29t105 80h54q-53 -59 -129 -94t-163 -35q-153 0 -262 97t-109 235t109 235.5t262 97.5t261 -97.5t108 -235.5v-7zM644 338v183q0 12 -10 22q-90 93 -222 93q-135 0 -226 -96 q-10 -8 -10 -23v-179q0 -5 5 -5h458q5 0 5 5z" />
<glyph unicode="&#x2190;" horiz-adv-x="596" d="M121 238l132 -130q8 -8 0 -16l-17 -17q-6 -6 -14 2l-169 170q-8 9 -8 13q0 6 8 14l169 170q8 8 14 2l17 -17q9 -9 0 -16l-132 -130h412q15 0 15 -15v-15q0 -15 -15 -15h-412z" />
<glyph unicode="&#x2191;" horiz-adv-x="596" d="M114 344l170 169q8 8 14 8q4 0 13 -8l170 -169q9 -7 -1 -17l-13 -13q-9 -9 -18 0l-129 129v-428q0 -15 -15 -15h-15q-15 0 -15 15v428l-129 -129q-9 -9 -18 0l-13 13q-10 10 -1 17z" />
<glyph unicode="&#x2192;" horiz-adv-x="596" d="M343 108l132 130h-412q-15 0 -15 15v15q0 15 15 15h412l-132 130q-9 7 0 16l17 17q6 6 14 -2l169 -170q8 -8 8 -14q0 -4 -8 -13l-169 -170q-8 -8 -14 -2l-17 17q-8 8 0 16z" />
<glyph unicode="&#x2193;" horiz-adv-x="596" d="M284 8l-170 169q-9 7 1 17l13 13q9 9 18 0l129 -129v428q0 15 15 15h15q15 0 15 -15v-428l129 129q9 9 18 0l13 -13q10 -10 1 -17l-170 -169q-9 -8 -13 -8q-6 0 -14 8z" />
<glyph unicode="&#x2202;" d="M247 360q-64 0 -99.5 -37.5t-35.5 -112.5v-13q0 -76 37 -120t101 -44q147 0 147 260q-62 67 -150 67zM110 643q39 13 91 13q113 0 171 -70q75 -90 75 -278v-9q0 -308 -202 -308q-79 0 -131 56.5t-52 148.5v19q0 87 47.5 137t129.5 50q92 0 157 -58q-7 130 -51 200.5 t-139 70.5q-42 0 -86 -10q-11 -2 -14 8l-4 16q-3 10 8 14z" />
<glyph unicode="&#x220f;" horiz-adv-x="603" d="M558 609h-93v-694q0 -11 -9 -11h-28q-9 0 -9 11v694h-233v-694q0 -11 -9 -11h-28q-9 0 -9 11v694h-95q-10 0 -10 9v20q0 9 10 9h513q10 0 10 -9v-20q0 -9 -10 -9z" />
<glyph unicode="&#x2211;" horiz-adv-x="592" d="M363 232l-250 -291l-5 5h412q11 0 11 -12v-19q0 -11 -11 -11h-444q-14 0 -14 13v13q0 11 6 23l276 327v3l-253 311q-14 17 -14 29v11q0 13 14 13h421q11 0 11 -11v-19q0 -12 -11 -12h-391l13 6l229 -279q26 -32 26 -48v-6q0 -15 -26 -46z" />
<glyph unicode="&#x2212;" d="M452 240h-393q-6 0 -6 6v30q0 7 6 7h393q6 0 6 -6v-31q0 -6 -6 -6z" />
<glyph unicode="&#x221a;" horiz-adv-x="535" d="M28 457v19q0 10 10 10h91q13 0 17 -12l128 -395h1l177 565q4 12 14 12h28q13 0 9 -13l-207 -635q-2 -8 -11 -8h-20q-9 0 -12 8l-148 439h-67q-10 0 -10 10z" />
<glyph unicode="&#x221e;" horiz-adv-x="832" d="M417 279q-84 -106 -194 -106q-68 0 -110.5 38t-42.5 110q0 63 39.5 103.5t110.5 40.5q60 0 105 -29.5t88 -86.5q47 58 92.5 87t104.5 29q73 0 112.5 -40.5t39.5 -103.5q0 -75 -44.5 -111.5t-110.5 -36.5q-111 0 -190 106zM388 313q-77 109 -163 109q-107 0 -107 -102 q0 -51 29 -77.5t76 -26.5q95 0 165 97zM444 316q70 -100 165 -100q47 0 76 26.5t29 77.5q0 102 -107 102q-85 0 -163 -106z" />
<glyph unicode="&#x222b;" horiz-adv-x="357" d="M228 59q0 -76 -38 -120t-109 -44q-28 0 -46 4q-7 1 -6 10l3 20q1 8 10 7q15 -3 40 -3q48 0 75.5 31t27.5 92q0 26 -1 36q-5 54 -25.5 173.5t-24.5 152.5q-4 36 -4 68q0 170 146 170q32 0 47 -5q6 -2 5 -8l-4 -24q-1 -8 -10 -7q-20 4 -38 4q-104 0 -104 -131q0 -12 2 -42 q4 -48 25.5 -170t26.5 -173q2 -26 2 -41z" />
<glyph unicode="&#x2248;" d="M366 295q-43 0 -92 26l-71 38q-31 17 -61 17q-25 0 -42 -14.5t-39 -53.5q-5 -10 -15 -4l-19 9q-8 5 -5 11q29 55 58 78.5t67 23.5q37 0 88 -27l66 -35q35 -19 70 -19q25 0 42 14.5t39 53.5q5 11 15 4l19 -9q8 -5 5 -11q-29 -55 -58 -78.5t-67 -23.5zM366 104 q-43 0 -92 26l-71 38q-31 17 -61 17q-25 0 -42 -14.5t-39 -53.5q-5 -11 -15 -4l-19 9q-8 5 -5 11q29 55 58 78.5t67 23.5q37 0 88 -27l66 -35q35 -19 70 -19q25 0 42 14.5t39 53.5q5 10 15 4l19 -9q8 -5 5 -11q-29 -55 -58 -78.5t-67 -23.5z" />
<glyph unicode="&#x2260;" d="M452 151h-226l-61 -124q-3 -7 -10 -7h-33q-8 0 -3 9l61 122h-122q-6 0 -6 6v30q0 7 6 7h143l66 135h-209q-6 0 -6 6v30q0 7 6 7h230l59 120q3 7 10 7h33q8 0 3 -9l-59 -118h118q6 0 6 -6v-31q0 -6 -6 -6h-139l-66 -135h205q6 0 6 -6v-31q0 -6 -6 -6z" />
<glyph unicode="&#x2264;" d="M452 0h-393q-6 0 -6 6v30q0 7 6 7h393q6 0 6 -6v-31q0 -6 -6 -6zM404 496l-273 -146l273 -146q10 -5 4 -15l-11 -21q-5 -8 -15 -2l-308 165q-5 3 -5 9v18q0 6 5 9l308 167q10 6 15 -2l11 -21q6 -10 -4 -15z" />
<glyph unicode="&#x2265;" d="M380 350l-273 146q-10 5 -4 15l11 21q5 8 15 2l308 -167q5 -3 5 -9v-18q0 -6 -5 -9l-308 -165q-10 -6 -15 2l-11 21q-6 10 4 15zM452 0h-393q-6 0 -6 6v31q0 6 6 6h393q6 0 6 -7v-30q0 -6 -6 -6z" />
<glyph unicode="&#x25ca;" d="M257 45l162 278l-162 288h-2l-162 -288l162 -278h2zM63 349l169 303q6 11 17 11h14q11 0 17 -11l169 -303q8 -13 8 -25v-7q0 -12 -8 -25l-168 -290q-7 -11 -15 -11h-20q-8 0 -15 11l-168 290q-8 13 -8 25v7q0 12 8 25z" />
<glyph unicode="&#x25fc;" horiz-adv-x="490" d="M0 490h490v-490h-490v490z" />
<glyph unicode="&#x2713;" horiz-adv-x="757" d="M86 206l156 -157l433 433q9 9 18 0l14 -14q8 -10 0 -18l-454 -454q-6 -6 -12 -6t-11 5l-178 178q-10 10 -3 17l18 18q9 8 19 -2z" />
<glyph unicode="&#xf6c3;" horiz-adv-x="181" d="M85 -71h13q36 0 36 -37v-17q0 -66 -58 -121q-8 -8 -14 -3l-11 9q-7 5 -2 10q22 22 34 47q4 10 4 14q0 9 -13 16q-20 10 -20 34v18q0 30 31 30z" />
<glyph horiz-adv-x="226" />
<glyph horiz-adv-x="278" d="M62 813l179 -74q9 -4 6 -15l-6 -17q-4 -12 -21 -6l-174 55q-21 6 -15 20l10 27q6 16 21 10z" />
<glyph horiz-adv-x="278" d="M37 739l179 74q15 6 21 -10l10 -27q6 -14 -15 -20l-174 -55q-17 -6 -21 6l-6 17q-3 11 6 15z" />
<glyph horiz-adv-x="324" d="M76 809h10q20 0 27.5 -6.5t7.5 -25.5v-21q0 -18 -7.5 -24.5t-27.5 -6.5h-10q-20 0 -27 6.5t-7 24.5v21q0 18 7.5 25t26.5 7zM237 809h10q20 0 27.5 -6.5t7.5 -25.5v-21q0 -18 -7.5 -24.5t-27.5 -6.5h-10q-20 0 -27 6.5t-7 24.5v21q0 18 7.5 25t26.5 7z" />
<glyph horiz-adv-x="373" d="M49 731l111 122q6 7 15 7h24q9 0 15 -7l111 -122q8 -8 1 -15l-19 -16q-8 -6 -17 3l-100 103h-6l-100 -103q-10 -10 -17 -3l-19 16q-8 6 1 15z" />
<glyph horiz-adv-x="416" d="M71 721l-20 13q-8 5 -2 14q35 73 97 73q28 0 59 -23l27 -21q21 -15 37 -15q29 0 59 51q4 5 9 3l21 -14q8 -5 3 -13q-18 -33 -44.5 -54t-53.5 -21q-31 0 -58 22l-26 20q-23 17 -39 17q-29 0 -57 -50q-4 -7 -12 -2z" />
<glyph horiz-adv-x="321" d="M275 733h-229q-11 0 -11 11v21q0 12 11 12h229q11 0 11 -12v-21q0 -11 -11 -11z" />
<glyph horiz-adv-x="373" d="M186 703q-49 0 -88 27.5t-53 80.5q-4 12 7 15l21 6q12 4 15 -6q23 -81 98 -81q36 0 62.5 20.5t36.5 60.5q3 10 15 6l21 -6q10 -3 7 -15q-14 -53 -53 -80.5t-89 -27.5z" />
<glyph horiz-adv-x="132" d="M9 771q0 24 17 40.5t40 16.5t40 -16.5t17 -40.5t-17 -40.5t-40 -16.5t-40 16.5t-17 40.5z" />
<glyph horiz-adv-x="219" d="M19 796q0 42 26 65.5t65 23.5t65 -23.5t26 -65.5t-26 -65.5t-65 -23.5t-65 23.5t-26 65.5zM62 796q0 -23 13.5 -36t34.5 -13q22 0 35 13t13 36t-13 36t-35 13q-21 0 -34.5 -13t-13.5 -36z" />
<glyph horiz-adv-x="530" d="M73 725l146 110q14 12 24 -2l14 -20q10 -14 -6 -25l-150 -97q-9 -6 -15 3l-14 18q-6 8 1 13zM272 725l146 110q14 12 24 -2l14 -20q10 -14 -6 -25l-150 -97q-9 -6 -15 3l-14 18q-6 8 1 13z" />
<glyph horiz-adv-x="373" d="M159 709l-111 122q-9 9 -1 15l19 16q7 7 17 -3l100 -103h6l100 103q9 9 17 3l19 -16q7 -7 -1 -15l-111 -122q-6 -7 -15 -7h-24q-9 0 -15 7z" />
<glyph horiz-adv-x="575" d="M483 199h-255v64h193v63h-193v192h255v-64h-191v-64h191v-191zM483 583h-319v-519h72v-64h-136v647h383v-64z" />
<glyph horiz-adv-x="584" d="M436 337v-289q0 -25 -23 -33q-66 -24 -162 -24q-109 0 -164 49t-55 136v14q0 65 32.5 109t88.5 58q-91 25 -91 135v18q0 72 50.5 109t137.5 37q80 0 142 -25q10 -4 7 -13l-7 -21q-3 -9 -14 -5q-63 22 -128 22q-140 0 -140 -110v-9q0 -58 30.5 -86t115.5 -28h298 q8 0 10.5 -2t2.5 -9v-21q0 -12 -13 -12h-118zM385 70v267h-132q-88 0 -130.5 -39.5t-42.5 -111.5v-11q0 -145 176 -145q63 0 110 13q19 5 19 27z" />
</font>
</defs>
</svg>
