<?xml version="1.0" standalone="no"?>
<!DOCTYPE svg PUBLIC "-//W3C//DTD SVG 1.1//EN" "http://www.w3.org/Graphics/SVG/1.1/DTD/svg11.dtd" >
<svg xmlns="http://www.w3.org/2000/svg">
<metadata></metadata>
<defs>
<font id="unicreditbold" horiz-adv-x="540" >
<font-face units-per-em="1000" ascent="750" descent="-250" />
<missing-glyph horiz-adv-x="225" />
<glyph unicode="fi" horiz-adv-x="574" d="M209 390v-365q0 -15 -5.5 -20t-22.5 -5h-63q-17 0 -22.5 5t-5.5 20v365h-51q-14 0 -19.5 4.5t-5.5 17.5v42q0 12 3.5 15.5t16.5 5.5l56 10v39q0 84 53.5 122t168.5 38q68 0 128 -12q12 -2 14.5 -5.5t1.5 -13.5l-10 -62q-2 -11 -5.5 -13.5t-14.5 -0.5q-45 9 -109 9 q-60 0 -84 -15t-24 -54v-27h274q17 0 22.5 -5t5.5 -20v-440q0 -15 -5.5 -20t-22.5 -5h-63q-17 0 -22.5 5t-5.5 20v365h-183z" />
<glyph unicode="fl" horiz-adv-x="615" d="M209 390v-365q0 -15 -5.5 -20t-22.5 -5h-63q-17 0 -22.5 5t-5.5 20v365h-51q-14 0 -19.5 4.5t-5.5 17.5v42q0 12 3.5 15.5t16.5 5.5l56 10v39q0 83 45.5 122.5t142.5 39.5q60 0 128 -12l74 3q16 1 22 -4.5t6 -20.5v-519q0 -18 6.5 -25.5t22.5 -7.5h30q13 0 18 -5t5 -19 v-52q0 -14 -5 -19t-18 -5h-67q-57 0 -82 24q-29 29 -29 98v456q-37 11 -79 11q-56 0 -78.5 -15t-22.5 -57v-27h93q13 0 18 -4.5t5 -17.5v-58q0 -11 -5 -15.5t-20 -4.5h-91z" />
<glyph unicode=" "  horiz-adv-x="225" />
<glyph unicode="&#x09;" horiz-adv-x="225" />
<glyph unicode="&#xa0;" horiz-adv-x="225" />
<glyph unicode="!" horiz-adv-x="215" d="M55 203l-15 422q-1 21 7.5 30t35.5 9h50q28 0 35.5 -8.5t6.5 -30.5l-15 -421q-1 -20 -11 -26.5t-33 -6.5h-20q-23 0 -31.5 6t-9.5 26zM175 63v-5q0 -32 -18 -49.5t-49 -17.5h-4q-68 0 -68 67v5q0 33 19 49.5t49 16.5h4q67 0 67 -66z" />
<glyph unicode="&#x22;" horiz-adv-x="455" d="M152 437h-78q-16 0 -16 18l-12 242q-2 21 17 21h101q19 0 17 -21l-12 -242q0 -18 -17 -18zM380 437h-78q-16 0 -16 18l-12 242q-2 21 17 21h101q19 0 17 -21l-12 -242q0 -18 -17 -18z" />
<glyph unicode="#" horiz-adv-x="642" d="M364 353h-82l-17 -73h82zM49 280h90l17 73h-91q-19 0 -22.5 7.5t2.5 31.5l8 34q4 19 11.5 25t25.5 6h90l37 164q6 28 45 28h50q24 0 30 -5.5t1 -25.5l-37 -161h82l37 164q6 28 45 28h51q23 0 28.5 -5.5t1.5 -25.5l-37 -161h104q19 0 22.5 -7.5t-2.5 -31.5l-8 -34 q-4 -19 -11.5 -25t-25.5 -6h-103l-17 -73h104q19 0 22.5 -7.5t-2.5 -31.5l-8 -34q-4 -19 -11.5 -25t-25.5 -6h-102l-34 -148q-4 -16 -12 -22t-25 -6h-58q-21 0 -27.5 7t-2.5 24l33 145h-82l-34 -148q-4 -17 -12 -22.5t-28 -5.5h-55q-23 0 -29 5.5t-1 25.5l33 145h-92 q-19 0 -22.5 7.5t2.5 31.5l8 34q4 19 11.5 25t25.5 6z" />
<glyph unicode="$" d="M315 728v-73q67 -4 124 -21q23 -7 17 -29l-15 -63q-4 -21 -31 -12q-49 15 -95 20v-170l20 -4q89 -19 123 -61q30 -38 30 -115v-15q0 -99 -54 -147q-43 -39 -132 -45v-67q0 -11 -4 -14.5t-18 -3.5h-28q-14 0 -18 3.5t-4 14.5v66q-84 4 -155 31q-14 5 -18 11.5t-1 20.5 l11 59q2 12 11.5 16t19.5 -1q68 -28 132 -34v190l-14 3q-89 20 -122 57q-38 41 -38 122v13q0 94 58 138q44 32 129 37v73q0 11 4 14.5t18 3.5h28q14 0 18 -3.5t4 -14.5zM353 242q-13 16 -51 27v-171q27 4 43 18q20 16 20 65v8q0 38 -12 53zM195 418q14 -14 48 -23v155 q-28 -4 -41 -13q-23 -15 -23 -60v-8q0 -35 16 -51z" />
<glyph unicode="%" horiz-adv-x="890" d="M359 477v-10q0 -100 -45 -144q-37 -35 -103 -35t-103 35q-45 43 -45 144v10q0 102 45 145q37 34 103 34t103 -34q45 -44 45 -145zM244 468v8q0 50 -7.5 68.5t-25.5 18.5q-19 0 -26.5 -18.5t-7.5 -68.5v-8q0 -50 7.5 -68.5t26.5 -18.5q18 0 25.5 18.5t7.5 68.5zM207 27 l353 606q13 23 43 23h60q36 0 16 -36l-353 -606q-13 -23 -43 -23h-60q-36 0 -16 36zM827 180v-10q0 -100 -45 -144q-37 -35 -103 -35t-103 35q-45 43 -45 144v10q0 102 45 145q37 34 103 34t103 -34q45 -44 45 -145zM712 171v8q0 50 -7.5 68.5t-25.5 18.5q-19 0 -26.5 -18.5 t-7.5 -68.5v-8q0 -50 7.5 -68.5t26.5 -18.5q18 0 25.5 18.5t7.5 68.5z" />
<glyph unicode="&#x26;" horiz-adv-x="618" d="M556 296v-48q0 -80 -24 -125l63 -60q13 -12 12.5 -19.5t-13.5 -20.5l-35 -35q-12 -11 -19.5 -10.5t-18.5 11.5l-57 54q-72 -52 -184 -52h-18q-234 0 -234 175v16q0 52 33.5 97.5t85.5 67.5q-79 68 -79 141v11q0 70 53 113.5t141 43.5q87 0 138.5 -43.5t51.5 -110.5v-13 q0 -106 -119 -174l113 -110q7 24 7 63v28q0 18 18 18h68q10 0 13.5 -4t3.5 -14zM289 88q63 0 99 28l-176 169q-58 -39 -58 -103v-10q0 -41 32 -62.5t88 -21.5h15zM328 484v9q0 32 -17.5 49.5t-48.5 17.5q-32 0 -51 -16t-19 -46v-7q0 -41 53 -92l24 -23q59 41 59 108z" />
<glyph unicode="'" horiz-adv-x="227" d="M152 437h-78q-16 0 -16 18l-12 242q-2 21 17 21h101q19 0 17 -21l-12 -242q0 -18 -17 -18z" />
<glyph unicode="(" horiz-adv-x="320" d="M190 662q13 15 23 15.5t26 -8.5l30 -15q19 -10 23 -18.5t-5 -20.5q-116 -154 -116 -333q0 -95 26 -171.5t87 -157.5q12 -21 9 -27t-20 -15l-33 -17q-19 -11 -28.5 -10t-23.5 18q-143 175 -143 378q0 213 145 382z" />
<glyph unicode=")" horiz-adv-x="320" d="M130 662q145 -169 145 -382q0 -203 -143 -378q-14 -17 -21.5 -18.5t-24.5 7.5l-43 22q-15 8 -17 15.5t10 24.5q62 80 87.5 157t25.5 172q0 179 -116 333q-9 12 -5 20.5t23 18.5l30 15q16 9 26 8.5t23 -15.5z" />
<glyph unicode="*" horiz-adv-x="388" d="M246 554l75 -76q20 -20 0 -33l-47 -30q-14 -7 -19 -4.5t-12 14.5l-49 89l-49 -89q-7 -12 -12 -14.5t-19 4.5l-47 30q-20 13 0 33l75 76l-101 28q-15 3 -9 19l18 53q7 17 25 7l83 -35l-10 96q-2 11 0.5 16.5t13.5 5.5h65q11 0 13.5 -5.5t0.5 -16.5l-10 -96l83 35 q20 11 25 -7l17 -53q6 -15 -9 -19z" />
<glyph unicode="+" d="M329 465v-151h143q23 0 29.5 -9t6.5 -28v-38q0 -16 -6.5 -24.5t-12.5 -9.5t-17 -1h-143v-153q0 -32 -43 -32h-36q-20 0 -29.5 7t-9.5 25v153h-143q-24 0 -30 8t-6 29v36q0 13 1.5 20t10 12t24.5 5h143v151q0 21 9 27.5t33 6.5h33q22 0 32.5 -6.5t10.5 -27.5z" />
<glyph unicode="," horiz-adv-x="224" d="M103 132h19q66 0 66 -63v-19q0 -42 -27 -104.5t-64 -105.5q-9 -11 -16 -12t-22 7l-25 14q-23 13 -9 30q21 29 43 67q18 31 1 42l-11 7q-22 13 -22 49v30q0 58 67 58z" />
<glyph unicode="-" horiz-adv-x="333" d="M71 313h191q23 0 30.5 -9t7.5 -28v-36q0 -16 -7 -24.5t-13 -9.5t-18 -1h-191q-24 0 -31 8.5t-7 28.5v34q0 19 7.5 28t30.5 9z" />
<glyph unicode="." horiz-adv-x="210" d="M174 71v-16q0 -64 -63 -64h-11q-34 0 -49 15.5t-15 48.5v16q0 63 64 63h11q63 0 63 -63z" />
<glyph unicode="/" horiz-adv-x="395" d="M30 7l213 650q6 18 14.5 23.5t31.5 5.5h41q28 0 34.5 -5.5t0.5 -24.5l-213 -650q-6 -18 -14.5 -23.5t-31.5 -5.5h-41q-28 0 -34.5 6t-0.5 24z" />
<glyph unicode="0" d="M270 92q36 0 60 18.5t34.5 53.5t14 69.5t3.5 83.5v13q0 49 -3.5 83.5t-14 69.5t-34.5 53.5t-60 18.5t-60 -18.5t-34.5 -53.5t-14 -69.5t-3.5 -83.5v-13q0 -49 3.5 -83.5t14 -69.5t34.5 -53.5t60 -18.5zM270 -9q-236 0 -236 320v26q0 319 236 319t236 -319v-26 q0 -320 -236 -320z" />
<glyph unicode="1" d="M458 0h-351q-18 0 -24.5 7t-6.5 25v36q0 19 5.5 24.5t25.5 5.5h118v425h-6l-93 -48q-22 -12 -33 6l-24 45q-14 24 8 36l139 74q20 11 49 11h50q21 0 28.5 -6.5t7.5 -25.5v-517h107q18 0 24.5 -7t6.5 -25v-36q0 -19 -5.5 -24.5t-25.5 -5.5z" />
<glyph unicode="2" d="M262 554q-64 0 -139 -30q-24 -9 -30 12l-13 52q-4 22 15 30q88 38 182 38q92 0 147 -41.5t55 -126.5v-14q0 -75 -31 -120t-103 -78l-74 -34q-51 -23 -72.5 -51t-21.5 -75v-18h265q16 0 22.5 -5.5t6.5 -22.5v-44q0 -16 -6.5 -21t-22.5 -5h-349q-21 0 -28.5 6t-7.5 23v59 q0 171 131 230l79 36q51 23 68 46t17 70v7q0 40 -21 58.5t-69 18.5z" />
<glyph unicode="3" d="M55 53l11 39q5 17 12 21.5t22 -0.5q66 -24 133 -24q69 0 98 26q25 22 25 71v8q0 51 -29 73q-28 22 -100 22h-40q-15 0 -19.5 4.5t-4.5 18.5v51q0 14 5 19.5t20 5.5h25q60 0 95 23q31 21 31 73v7q0 38 -25 54q-21 13 -64 13q-59 0 -131 -31q-22 -10 -29 13l-13 48 q-6 23 15 32q86 36 175 36q91 0 141 -34q57 -40 57 -123v-11q0 -114 -91 -142q108 -28 108 -150v-16q0 -86 -54 -136q-59 -53 -187 -53q-86 0 -166 25q-28 8 -20 37z" />
<glyph unicode="4" d="M143 251h174v265h-5zM317 29v121h-269q-18 0 -25 5.5t-7 21.5v31q0 14 26 56l229 354q11 18 20 23.5t26 5.5h83q23 0 31 -7t8 -28v-361h56q17 0 22.5 -6.5t5.5 -25.5v-39q0 -20 -4.5 -25t-23.5 -5h-56v-121q0 -17 -6 -23t-23 -6h-64q-17 0 -23 6t-6 23z" />
<glyph unicode="5" d="M418 547h-207q-13 0 -14 -13l-7 -138q47 20 107 20q100 0 148 -51t48 -148v-17q0 -100 -62 -158q-54 -51 -179 -51q-99 0 -187 40q-20 9 -9 39l11 38q5 16 13 19.5t21 -2.5q84 -35 146 -35q67 0 94 23q28 24 28 85v11q0 55 -27 82q-26 26 -78 26q-56 0 -116 -27 q-21 -10 -34 -2l-28 17q-12 7 -11 28l18 289q1 14 7 19.5t21 5.5h299q17 0 22 -5t5 -21v-50q0 -15 -5 -19.5t-24 -4.5z" />
<glyph unicode="6" d="M282 314q-62 0 -111 -35q0 -113 28 -155q24 -35 79 -35q45 0 71 26q26 27 26 82v12q0 51 -19 75q-22 30 -74 30zM441 635q22 -8 17 -30l-13 -50q-6 -23 -30 -15q-48 16 -98 16q-69 0 -104 -41q-38 -44 -40 -135q56 36 127 36q93 0 144 -48q55 -51 55 -151v-15 q0 -96 -57 -153q-60 -58 -164 -58q-130 0 -181.5 76.5t-51.5 227.5v40q0 171 71 248q37 41 84 57t114 16q72 0 127 -21z" />
<glyph unicode="7" d="M465 515l-244 -493q-11 -22 -42 -22h-71q-34 0 -21 25l267 522h-269q-17 0 -23 5t-6 21v45q0 17 6 23t23 6h378q17 0 24 -5t7 -20v-30q0 -21 -29 -77z" />
<glyph unicode="8" d="M57 481v6q0 77 59 123t158 46q89 0 149.5 -43.5t60.5 -120.5v-7q0 -93 -85 -147q56 -29 78.5 -66t22.5 -87v-12q0 -43 -18.5 -80.5t-48.5 -58.5q-60 -43 -159 -43q-108 0 -165 40q-70 48 -70 134v12q0 49 27.5 90t73.5 65q-83 53 -83 149zM166 183v-4q0 -46 29 -69 q28 -22 79 -22q54 0 79 24q21 20 21 61v4q0 32 -25.5 53.5t-89.5 45.5l-39 15q-54 -35 -54 -108zM358 475v6q0 42 -24 61q-21 19 -62 19q-42 0 -64 -17q-29 -21 -29 -55v-5q0 -31 21.5 -52.5t74.5 -41.5l36 -14q47 36 47 99z" />
<glyph unicode="9" d="M263 330q58 0 111 38q0 113 -28 155q-24 35 -79 35q-51 0 -76 -30q-21 -25 -21 -81v-12q0 -51 19 -75q23 -30 74 -30zM96 11q-17 6 -13 24l13 56q3 13 8.5 15.5t18.5 -1.5q49 -14 106 -14q76 0 109 39q18 21 24 51t8 79q-54 -32 -120 -32q-97 0 -148 48q-56 52 -56 156 v16q0 93 55 150q56 58 166 58q109 0 167 -59q66 -69 66 -249v-32q0 -172 -67 -248q-67 -77 -202 -77q-78 0 -135 20z" />
<glyph unicode=":" horiz-adv-x="238" d="M188 452v-16q0 -64 -63 -64h-11q-34 0 -49 15.5t-15 48.5v16q0 63 64 63h11q63 0 63 -63zM188 71v-16q0 -64 -63 -64h-11q-34 0 -49 15.5t-15 48.5v16q0 63 64 63h11q63 0 63 -63z" />
<glyph unicode=";" horiz-adv-x="224" d="M179 452v-16q0 -64 -63 -64h-11q-34 0 -49 15.5t-15 48.5v16q0 63 64 63h11q63 0 63 -63zM103 132h19q66 0 66 -63v-19q0 -42 -27 -104.5t-64 -105.5q-9 -11 -16 -12t-22 7l-25 14q-23 13 -9 30q21 29 43 67q18 31 1 42l-11 7q-22 13 -22 49v30q0 58 67 58z" />
<glyph unicode="&#x3c;" d="M46 248v25q0 22 18 32l341 181q20 10 27.5 9.5t15.5 -14.5l28 -51q14 -24 -20 -42l-240 -127l240 -127q34 -18 20 -42l-28 -51q-12 -22 -43 -5l-341 180q-18 10 -18 32z" />
<glyph unicode="=" d="M472 314h-404q-24 0 -30 8t-6 29v36q0 13 1.5 20t10 12t24.5 5h404q23 0 29.5 -9t6.5 -28v-38q0 -16 -6.5 -24.5t-12.5 -9.5t-17 -1zM472 94h-404q-24 0 -30 8t-6 29v36q0 13 1.5 20t10 12t24.5 5h404q23 0 29.5 -9t6.5 -28v-38q0 -16 -6.5 -24.5t-12.5 -9.5t-17 -1z" />
<glyph unicode="&#x3e;" d="M494 273v-25q0 -22 -18 -32l-341 -180q-31 -17 -43 5l-28 51q-14 24 20 42l240 127l-240 127q-19 10 -23.5 17t2.5 22l28 51q8 14 16 16t28 -8l341 -181q18 -10 18 -32z" />
<glyph unicode="?" horiz-adv-x="445" d="M214 192q0 -20 -25 -20h-55q-22 0 -22 20q0 72 9 92q15 32 71 69l32 21q36 23 51 45.5t15 55.5v11q0 37 -21 55q-21 17 -68 17q-57 0 -125 -27q-24 -9 -32 14l-13 43q-7 24 16 33q82 35 170 35q93 0 144.5 -40.5t51.5 -121.5v-13q0 -98 -101 -166l-31 -21 q-46 -30 -58 -43q-9 -10 -9 -59zM232 63v-5q0 -32 -18 -49.5t-49 -17.5h-4q-68 0 -68 67v5q0 33 19 49.5t49 16.5h4q67 0 67 -66z" />
<glyph unicode="@" horiz-adv-x="807" d="M767 379q0 -114 -55 -180t-142 -66q-91 0 -122 52h-3q-27 -35 -84 -35h-7q-111 0 -111 109q0 42 12 112q23 127 129 127h6q63 0 91 -39l7 15q6 13 22 13h45q12 0 16 -3.5t3 -14.5l-24 -187q-5 -40 -5 -48q0 -28 34 -28q35 0 59 43t24 116q0 109 -62.5 166.5t-168.5 57.5 q-124 0 -197 -77t-73 -219q0 -233 255 -233q103 0 193 32q21 8 25 -12l9 -41q4 -21 -17 -28q-103 -41 -220 -41q-180 0 -273 81t-93 235q0 185 111 290t289 105q143 0 235 -79.5t92 -222.5zM439 287l11 80q7 53 -36 53h-6q-19 0 -29 -12.5t-15 -43.5q-12 -62 -12 -100 q0 -22 7.5 -31t25.5 -9h5q22 0 33 15t16 48z" />
<glyph unicode="A" horiz-adv-x="569" d="M291 519h-12q-31 -103 -77 -265h166q-46 162 -77 265zM173 149l-33 -123q-4 -16 -13.5 -21t-29.5 -5h-53q-13 0 -18.5 0.5t-13 3t-6.5 7.5t1 15q76 277 187 585q8 23 21 29.5t45 6.5h49q32 0 46 -7t22 -29q96 -264 185 -585q5 -18 -3 -22t-33 -4h-53q-20 0 -29.5 5 t-13.5 21l-33 123h-224z" />
<glyph unicode="B" horiz-adv-x="557" d="M235 656q130 0 190 -46q53 -41 53 -117v-16q0 -92 -77 -128q54 -14 85 -51t31 -96v-14q0 -91 -57 -136q-66 -52 -221 -52q-74 0 -134 5q-22 2 -29.5 11t-7.5 32v558q0 22 7 30.5t28 11.5q59 8 132 8zM388 200q0 44 -31 67q-30 21 -90 21h-73v-167q0 -15 14 -17 q20 -3 53 -3q69 0 98 21t29 66v12zM253 554q-35 0 -48 -1q-11 -1 -11 -15v-153h48q107 0 107 84v12q0 37 -23 55t-73 18z" />
<glyph unicode="C" horiz-adv-x="533" d="M310 656q103 0 179 -45q15 -8 7 -29l-24 -60q-8 -20 -32 -6q-66 36 -130 36t-95 -31q-22 -22 -30 -65.5t-8 -122.5v-18q0 -142 34 -183q31 -37 112 -37q66 0 128 27q24 10 30 -16l12 -48q3 -15 -0.5 -22.5t-20.5 -13.5q-78 -31 -164 -31q-136 0 -194 58q-36 36 -51 95.5 t-15 158.5v40q0 107 19 167t68 99q60 47 175 47z" />
<glyph unicode="D" horiz-adv-x="617" d="M246 550q-25 0 -35 -1q-17 -1 -17 -18v-407q0 -23 24 -23h31q105 0 148 46t43 157v44q0 115 -40.5 158.5t-153.5 43.5zM217 0q-100 0 -114 1q-20 2 -27.5 10.5t-7.5 30.5v562q0 22 7.5 31t27.5 11q60 6 140 6q167 0 244 -67q82 -72 82 -233v-57q0 -161 -88 -230 q-46 -36 -105 -50.5t-159 -14.5z" />
<glyph unicode="E" horiz-adv-x="498" d="M400 282h-224q0 -80 7 -151q1 -17 8.5 -22.5t23.5 -5.5h217q17 0 21.5 -4.5t4.5 -19.5v-55q0 -14 -4.5 -19t-21.5 -5h-229q-78 0 -107 24q-26 21 -35 92q-9 80 -9 187v41q0 108 9 187q7 68 39 94q28 22 103 22h230q17 0 21 -4.5t4 -19.5v-55q0 -14 -4.5 -19t-20.5 -5 h-218q-30 0 -33 -30q-6 -70 -6 -129h224q17 0 21 -4.5t4 -19.5v-55q0 -14 -4.5 -19t-20.5 -5z" />
<glyph unicode="F" horiz-adv-x="495" d="M416 275h-224v-250q0 -16 -5 -20.5t-22 -4.5h-72q-17 0 -22 4.5t-5 20.5v505q0 57 28 86q30 31 90 31h247q15 0 20.5 -5t5.5 -19v-55q0 -14 -5.5 -19t-20.5 -5h-209q-15 0 -22 -7q-8 -8 -8 -26v-133h224q15 0 19.5 -5t4.5 -19v-55q0 -14 -4.5 -19t-19.5 -5z" />
<glyph unicode="G" horiz-adv-x="593" d="M515 617q17 -9 10 -31l-19 -57q-6 -22 -30 -11q-70 34 -144 34q-81 0 -114 -37q-41 -45 -41 -180v-22q0 -75 7 -114t25 -63q30 -41 115 -41q49 0 77 4q16 3 16 19v145h-74q-16 0 -21.5 5t-5.5 18v56q0 14 5.5 19.5t21.5 5.5h176q24 0 24 -25v-290q0 -18 -5 -26t-21 -12 q-86 -23 -187 -23q-82 0 -131.5 14.5t-82.5 47.5q-68 67 -68 252v39q0 179 78 251q67 61 213 61q46 0 96 -11.5t80 -27.5z" />
<glyph unicode="H" horiz-adv-x="632" d="M564 622v-597q0 -16 -5 -20.5t-22 -4.5h-72q-17 0 -22 4.5t-5 20.5v252h-244v-252q0 -16 -5 -20.5t-22 -4.5h-72q-17 0 -22 4.5t-5 20.5v597q0 16 5 20.5t22 4.5h72q17 0 22 -4.5t5 -20.5v-242h244v242q0 16 5 20.5t22 4.5h72q17 0 22 -4.5t5 -20.5z" />
<glyph unicode="I" horiz-adv-x="270" d="M198 622v-597q0 -16 -5 -20.5t-22 -4.5h-72q-17 0 -22 4.5t-5 20.5v597q0 16 5 20.5t22 4.5h72q17 0 22 -4.5t5 -20.5z" />
<glyph unicode="J" horiz-adv-x="342" d="M277 622v-416q0 -112 -41 -157q-45 -49 -143 -49h-54q-17 0 -21.5 5t-4.5 20v54q0 16 4.5 21t21.5 5h43q42 0 57 25q12 20 12 81v411q0 16 5 20.5t22 4.5h72q17 0 22 -4.5t5 -20.5z" />
<glyph unicode="K" horiz-adv-x="558" d="M194 281v-256q0 -16 -5 -20.5t-22 -4.5h-72q-17 0 -22 4.5t-5 20.5v597q0 16 5 20.5t22 4.5h72q17 0 22 -4.5t5 -20.5v-238h26q17 0 27 15l152 228q13 20 40 20h80q39 0 19 -29l-185 -262q-10 -15 -10 -19q0 -5 10 -20l187 -292q16 -25 -20 -25h-81q-29 0 -40 19 l-148 247q-9 15 -27 15h-30z" />
<glyph unicode="L" horiz-adv-x="436" d="M194 622v-500q0 -19 19 -19h168q17 0 22 -4.5t5 -19.5v-55q0 -14 -5 -19t-22 -5h-212q-55 0 -79 24q-22 22 -22 72v526q0 16 5 20.5t22 4.5h72q17 0 22 -4.5t5 -20.5z" />
<glyph unicode="M" horiz-adv-x="785" d="M417 81h-47h-5q-13 0 -19 0.5t-12.5 5.5t-10.5 16q-59 146 -136 378h-5q-2 -79 -2 -250v-208q0 -16 -5 -19.5t-24 -3.5h-67q-10 0 -14.5 0.5t-8.5 2.5t-5 6.5t-1 13.5q15 479 22 592q1 22 10.5 27t39.5 5h67q32 0 42 -4.5t16 -24.5q86 -264 138 -409h5q74 197 140 408 q7 20 16.5 25t40.5 5h67q29 0 38.5 -5.5t10.5 -27.5q7 -99 22 -591q1 -16 -4.5 -19.5t-24.5 -3.5h-67q-13 0 -18 1t-8 6t-3 16v146.5t-0.5 174t-2.5 137.5h-5q-23 -67 -75.5 -217.5t-56.5 -160.5q-2 -5 -4 -8.5t-3.5 -5.5t-5 -4t-5 -2.5t-6.5 -1t-7 -0.5h-8.5h-8.5z" />
<glyph unicode="N" horiz-adv-x="642" d="M68 25v597q0 16 5 20.5t22 4.5h60q34 0 49 -24l249 -412h4v411q0 16 5 20.5t22 4.5h63q17 0 22 -4.5t5 -20.5v-597q0 -16 -5 -20.5t-22 -4.5h-60q-34 0 -49 24l-249 403h-4v-402q0 -16 -5 -20.5t-22 -4.5h-63q-17 0 -22 4.5t-5 20.5z" />
<glyph unicode="O" horiz-adv-x="618" d="M441 313v21q0 127 -33 177q-28 41 -99 41t-99 -41q-33 -48 -33 -177v-21q0 -129 33 -177q28 -41 99 -41t99 41q33 49 33 177zM570 344v-41q0 -172 -74 -247q-63 -65 -187 -65q-127 0 -189 65q-72 78 -72 247v41q0 169 72 247q62 65 189 65q124 0 187 -65q74 -75 74 -247z " />
<glyph unicode="P" horiz-adv-x="550" d="M259 554q-39 0 -54 -2q-11 -2 -11 -14v-206h62q68 0 96 24.5t28 85.5v13q0 55 -26 77q-27 22 -95 22zM194 227v-202q0 -16 -5 -20.5t-22 -4.5h-72q-17 0 -22 4.5t-5 20.5v583q0 22 7.5 31t27.5 11q47 6 153 6q136 0 194 -46q59 -46 59 -155v-18q0 -109 -65 -160 q-64 -50 -192 -50h-58z" />
<glyph unicode="Q" horiz-adv-x="618" d="M570 344v-41q0 -172 -74 -247q-44 -45 -109 -56q52 -64 128 -104q27 -15 5 -32l-52 -39q-19 -15 -39 -1q-44 29 -86.5 74.5t-72.5 94.5q-97 7 -150 63q-72 78 -72 247v41q0 169 72 247q62 65 189 65q124 0 187 -65q74 -75 74 -247zM441 313v21q0 127 -33 177 q-28 41 -99 41t-99 -41q-33 -48 -33 -177v-21q0 -129 33 -177q28 -41 99 -41t99 41q33 49 33 177z" />
<glyph unicode="R" horiz-adv-x="557" d="M256 554q-37 0 -50 -2q-12 -1 -12 -14v-180h44q83 0 109 19q28 20 28 76v12q0 49 -20 68q-22 21 -99 21zM194 255v-230q0 -16 -5 -20.5t-22 -4.5h-72q-17 0 -22 4.5t-5 20.5v581q0 22 7 30.5t28 11.5q59 8 145 8q144 0 205 -47q51 -41 51 -141v-17q0 -143 -124 -185 l148 -245q6 -10 0.5 -15.5t-23.5 -5.5h-73q-29 0 -42 22l-125 223q-5 10 -20 10h-51z" />
<glyph unicode="S" horiz-adv-x="510" d="M234 -9q-83 0 -172 29q-15 5 -19.5 11.5t-1.5 20.5l11 58q4 25 28 16q83 -31 151 -31q71 0 97 22q20 16 20 64v8q0 38 -12 53q-15 18 -68 31l-69 15q-89 20 -122 57q-38 41 -38 122v13q0 94 58 138q52 38 165 38q88 0 161 -23q13 -4 16.5 -10t0.5 -19l-15 -63 q-4 -21 -31 -12q-72 23 -129 23q-58 0 -80 -15q-23 -16 -23 -60v-8q0 -35 16 -51q17 -17 67 -27l73 -15q89 -19 123 -61q30 -38 30 -115v-15q0 -99 -54 -147q-53 -47 -183 -47z" />
<glyph unicode="T" horiz-adv-x="482" d="M304 544v-519q0 -16 -5 -20.5t-22 -4.5h-72q-17 0 -22 4.5t-5 20.5v519h-140q-16 0 -20.5 5t-4.5 19v55q0 14 5 19t20 5h406q15 0 20 -5t5 -19v-55q0 -14 -4.5 -19t-20.5 -5h-140z" />
<glyph unicode="U" horiz-adv-x="614" d="M554 622v-403q0 -116 -60 -172q-58 -56 -187 -56q-128 0 -186 56q-61 57 -61 172v403q0 16 5 20.5t22 4.5h72q17 0 22 -4.5t5 -20.5v-397q0 -70 27 -97q30 -33 94 -33q63 0 95 33q26 29 26 97v397q0 16 5 20.5t22 4.5h72q17 0 22 -4.5t5 -20.5z" />
<glyph unicode="V" horiz-adv-x="551" d="M311 0h-71q-23 0 -34 7t-17 25q-108 308 -175 592q-3 13 2.5 18t22.5 5h69q17 0 23 -4t10 -19q63 -285 131 -488h7q68 203 131 488q4 15 10 19t23 4h69q17 0 22.5 -5t2.5 -18q-67 -284 -175 -592q-6 -18 -17 -25t-34 -7z" />
<glyph unicode="W" horiz-adv-x="815" d="M374 611h67q20 0 28.5 -5.5t12.5 -21.5q12 -53 47 -218t51 -235h5q31 154 90 493q3 15 9.5 19t23.5 4h69q16 0 21.5 -5t3.5 -18q-79 -403 -126 -596q-4 -17 -15 -22.5t-36 -5.5h-71q-25 0 -36 5.5t-15 22.5q-48 183 -93 415h-5q-45 -232 -93 -415q-4 -17 -15 -22.5 t-36 -5.5h-71q-25 0 -36 5.5t-15 22.5q-47 193 -126 596q-2 13 3.5 18t21.5 5h69q17 0 23.5 -4t9.5 -19q59 -339 90 -493h5q16 70 51 235t47 218q4 16 12.5 21.5t28.5 5.5z" />
<glyph unicode="X" horiz-adv-x="575" d="M261 247l-111 -226q-10 -21 -38 -21h-76q-33 0 -20 25l145 275q10 20 10 31q0 12 -9 30l-134 263q-12 23 20 23h75q17 0 24.5 -3.5t13.5 -15.5l99 -214q9 -20 13 -26t10 -6h9q6 0 9 5.5t13 26.5l101 214q6 12 13.5 15.5t24.5 3.5h75q32 0 20 -23l-134 -263q-9 -18 -9 -30 q0 -11 10 -31l144 -275q13 -25 -20 -25h-76q-28 0 -38 21l-109 226q-15 32 -23 32h-9q-8 0 -23 -32z" />
<glyph unicode="Y" horiz-adv-x="499" d="M312 209v-184q0 -16 -5 -20.5t-22 -4.5h-72q-17 0 -22 4.5t-5 20.5v184q-100 177 -172 417q-4 12 2 16.5t23 4.5h69q18 0 24 -3t9 -18q37 -160 105 -309h7q64 141 105 309q4 15 10 18t23 3h69q17 0 23 -4.5t2 -16.5q-73 -247 -173 -417z" />
<glyph unicode="Z" horiz-adv-x="511" d="M183 103h252q17 0 22 -5t5 -19v-55q0 -15 -5 -19.5t-22 -4.5h-369q-19 0 -26.5 6.5t-7.5 23.5v32q0 11 17 38l272 444h-241q-17 0 -22 5t-5 19v55q0 15 5 19.5t22 4.5h366q30 0 30 -25v-30q0 -16 -17 -45z" />
<glyph unicode="[" horiz-adv-x="320" d="M267 -83h-174q-15 0 -20.5 5t-5.5 19v699q0 14 5.5 19t20.5 5h174q15 0 20.5 -5t5.5 -19v-55q0 -14 -5.5 -19t-20.5 -5h-84v-541h84q15 0 20.5 -5t5.5 -19v-55q0 -14 -5.5 -19t-20.5 -5z" />
<glyph unicode="\" horiz-adv-x="416" d="M162 657l213 -650q6 -18 -0.5 -24t-34.5 -6h-41q-23 0 -31.5 5.5t-14.5 23.5l-213 650q-6 19 0.5 24.5t34.5 5.5h41q23 0 31.5 -5.5t14.5 -23.5z" />
<glyph unicode="]" horiz-adv-x="320" d="M227 -83h-174q-15 0 -20.5 5t-5.5 19v55q0 14 5.5 19t20.5 5h84v541h-84q-15 0 -20.5 5t-5.5 19v55q0 14 5.5 19t20.5 5h174q15 0 20.5 -5t5.5 -19v-699q0 -14 -5.5 -19t-20.5 -5z" />
<glyph unicode="^" d="M270 450l-120 -148q-14 -17 -23.5 -19t-29.5 9l-34 20q-24 14 -26 22t10 23l157 213q10 14 18.5 17.5t25.5 3.5h43q17 0 25.5 -3.5t18.5 -17.5l157 -213q12 -15 10 -23t-26 -22l-34 -20q-20 -11 -29.5 -9t-23.5 19z" />
<glyph unicode="_" horiz-adv-x="539" d="M464 -78h-389q-25 0 -34 7.5t-9 26.5v23q0 18 9 26t34 8h389q25 0 34 -8t9 -26v-23q0 -19 -9 -26.5t-34 -7.5z" />
<glyph unicode="`" horiz-adv-x="370" d="M137 719l160 -111q15 -10 1 -31l-21 -29q-14 -20 -36 -7l-162 89q-13 8 -14.5 15t6.5 19l35 50q12 18 31 5z" />
<glyph unicode="a" horiz-adv-x="490" d="M316 153v61q-34 2 -58 2h-35q-39 0 -52 -12q-15 -12 -15 -49v-12q0 -31 15 -45q14 -12 44 -12h36q34 0 49.5 16t15.5 51zM338 42h-2q-29 -51 -110 -51h-37q-72 0 -110 32q-43 37 -43 112v23q0 81 42 116q44 37 146 37h36q22 0 56 -2v27q0 37 -17 51q-18 14 -69 14 q-60 0 -123 -19q-20 -6 -25 16l-9 47q-6 24 15 30q74 24 151 24q97 0 144 -32q52 -36 52 -132v-316q0 -19 -21 -19h-46q-20 0 -24 18z" />
<glyph unicode="b" horiz-adv-x="525" d="M364 229v31q0 88 -19 115t-74 27q-49 0 -70 -18q-22 -19 -22 -67v-135q0 -50 14 -70q21 -25 75 -25t75 27t21 115zM179 652v-190h2q43 37 120 37q94 0 138 -51q46 -52 46 -184v-42q0 -128 -53 -181q-50 -50 -165 -50q-100 0 -145 29q-31 21 -46.5 53.5t-15.5 91.5v487 q0 15 5.5 20t22.5 5h63q17 0 22.5 -5t5.5 -20z" />
<glyph unicode="c" horiz-adv-x="445" d="M393 98l13 -46q4 -13 0 -20t-21 -15q-52 -26 -145 -26q-94 0 -144 45q-33 30 -44.5 77t-11.5 120v30q0 138 60 190q54 46 150 46q86 0 154 -41q21 -13 10 -35l-25 -50q-9 -19 -29 -7q-52 33 -105 33q-43 0 -67 -21q-13 -12 -19.5 -32t-7 -36t-0.5 -55v-16q0 -95 23 -123 q25 -28 77 -28q54 0 101 21q25 12 31 -11z" />
<glyph unicode="d" horiz-adv-x="524" d="M345 183v131q0 50 -20 68q-23 21 -67 21q-48 0 -72 -29q-25 -30 -25 -113v-31q0 -88 24 -117q22 -26 69 -26q51 0 72 22q19 20 19 74zM464 652v-475q0 -98 -45 -139q-53 -47 -165 -47q-107 0 -155 42q-59 52 -59 190v41q0 127 57 184q51 51 151 51q57 0 95 -25h2v178 q0 15 5.5 20t22.5 5h63q17 0 22.5 -5t5.5 -20z" />
<glyph unicode="e" horiz-adv-x="475" d="M436 285v-68q0 -16 -6 -22.5t-21 -6.5h-250q1 -59 25 -80q22 -20 88 -20q59 0 108 21q21 9 28 -16l13 -48q3 -11 -0.5 -17t-17.5 -11q-68 -26 -145 -26q-118 0 -168 51q-52 53 -52 190v27q0 122 47 181t159 59q91 0 141 -45q51 -46 51 -169zM240 404q-38 0 -57 -20 q-26 -27 -26 -102h147q13 0 13 14q0 67 -19 89q-18 19 -58 19z" />
<glyph unicode="f" horiz-adv-x="339" d="M209 390v-365q0 -15 -5.5 -20t-22.5 -5h-63q-17 0 -22.5 5t-5.5 20v365h-51q-14 0 -19.5 4.5t-5.5 17.5v42q0 12 3.5 15.5t16.5 5.5l56 10v39q0 52 9.5 79.5t32.5 47.5q40 35 131 35q51 0 89 -11q19 -5 15 -24l-9 -55q-3 -19 -23 -14q-26 7 -56 7q-36 0 -52 -11 q-18 -12 -18 -61v-27h93q13 0 18 -4.5t5 -17.5v-58q0 -11 -5 -15.5t-20 -4.5h-91z" />
<glyph unicode="g" horiz-adv-x="506" d="M250 499h13q33 90 141 90h35q11 0 15.5 -4.5t4.5 -17.5v-41q0 -13 -4 -17t-16 -4h-41q-37 0 -48 -15q62 -18 86 -66t24 -130v-31q0 -106 -60 -155q81 -51 81 -132v-9q0 -69 -46 -109q-52 -45 -175 -45q-91 0 -191 37q-24 9 -17 32l14 45q7 23 28 14q82 -35 159 -35 q64 0 90 23q18 17 18 51v7q0 51 -46 78q-30 -6 -65 -6q-96 0 -149 41q-61 47 -61 163v31q0 117 63 166q50 39 147 39zM161 289v-18q0 -70 22 -97q16 -21 67 -21q50 0 68 21q21 26 21 97v18q0 76 -21 96q-22 20 -68 20q-50 0 -67 -20q-22 -24 -22 -96z" />
<glyph unicode="h" horiz-adv-x="525" d="M351 25v279q0 57 -21 78t-64 21q-47 0 -66 -18q-21 -19 -21 -69v-291q0 -15 -5.5 -20t-22.5 -5h-63q-17 0 -22.5 5t-5.5 20v627q0 15 5.5 20t22.5 5h63q17 0 22.5 -5t5.5 -20v-189q46 36 123 36q99 0 142 -70q26 -42 26 -131v-273q0 -15 -5.5 -20t-22.5 -5h-63 q-17 0 -22.5 5t-5.5 20z" />
<glyph unicode="i" horiz-adv-x="245" d="M195 617v-6q0 -33 -19.5 -51.5t-50.5 -18.5h-5q-70 0 -70 70v6q0 34 19.5 51.5t50.5 17.5h5q70 0 70 -69zM182 465v-440q0 -15 -5.5 -20t-22.5 -5h-63q-17 0 -22.5 5t-5.5 20v440q0 15 5.5 20t22.5 5h63q17 0 22.5 -5t5.5 -20z" />
<glyph unicode="j" horiz-adv-x="245" d="M196 617v-6q0 -33 -19.5 -51.5t-50.5 -18.5h-5q-71 0 -71 70v6q0 34 20 51.5t51 17.5h5q70 0 70 -69zM183 465v-433q0 -111 -42 -160q-43 -49 -132 -49h-44q-22 0 -22 19v64q0 19 20 19h15q49 0 66 20q20 23 20 96v424q0 15 5.5 20t22.5 5h63q17 0 22.5 -5t5.5 -20z" />
<glyph unicode="k" horiz-adv-x="456" d="M178 208v-183q0 -15 -5.5 -20t-22.5 -5h-63q-17 0 -22.5 5t-5.5 20v627q0 15 5.5 20t22.5 5h63q17 0 22.5 -5t5.5 -20v-342h14q9 0 13 7l105 157q7 10 12.5 13t20.5 3h80q31 0 15 -23l-136 -197q-9 -12 0 -25l142 -219q17 -26 -11 -26h-82q-16 0 -23 4t-15 17l-108 180 q-5 7 -13 7h-14z" />
<glyph unicode="l" horiz-adv-x="285" d="M178 652v-519q0 -18 6.5 -25.5t22.5 -7.5h30q13 0 18 -5t5 -19v-52q0 -14 -5 -19t-18 -5h-67q-57 0 -82 24q-29 29 -29 98v530q0 15 5.5 20t22.5 5h63q17 0 22.5 -5t5.5 -20z" />
<glyph unicode="m" horiz-adv-x="806" d="M751 309v-284q0 -15 -5.5 -20t-22.5 -5h-63q-17 0 -22.5 5t-5.5 20v279q0 55 -19 77t-65 22q-51 0 -84 -38q3 -25 3 -67v-273q0 -15 -5.5 -20t-22.5 -5h-63q-17 0 -22.5 5t-5.5 20v279q0 57 -21 78t-63 21q-45 0 -64 -18q-21 -19 -21 -69v-291q0 -15 -5.5 -20t-22.5 -5 h-63q-17 0 -22.5 5t-5.5 20v442q0 23 24 23h37q13 0 18.5 -3.5t7.5 -14.5l5 -24h3q51 51 132 51q94 0 139 -56q67 56 150 56q86 0 128 -42q47 -46 47 -148z" />
<glyph unicode="n" horiz-adv-x="525" d="M470 298v-273q0 -15 -5.5 -20t-22.5 -5h-63q-17 0 -22.5 5t-5.5 20v279q0 57 -21 78t-66 21t-64 -18q-21 -19 -21 -69v-291q0 -15 -5.5 -20t-22.5 -5h-63q-17 0 -22.5 5t-5.5 20v442q0 23 24 23h37q13 0 18.5 -3.5t7.5 -14.5l5 -24h3q49 51 136 51q107 0 152 -67 q27 -42 27 -134z" />
<glyph unicode="o" horiz-adv-x="500" d="M250 86q45 0 67 27q22 28 22 122v21q0 93 -22 121q-21 27 -67 27t-67 -27q-22 -28 -22 -121v-21q0 -94 22 -122q22 -27 67 -27zM250 499q108 0 159 -59q51 -58 51 -180v-30q0 -122 -51 -180q-53 -59 -159 -59t-159 59q-51 58 -51 180v30q0 122 51 180q51 59 159 59z" />
<glyph unicode="p" horiz-adv-x="526" d="M179 306v-131q0 -48 21 -67q22 -20 69 -20q49 0 72 28q24 29 24 114v29q0 88 -24 117q-22 26 -72 26t-71 -22q-19 -20 -19 -74zM147 474l5 -25h2q48 50 139 50q100 0 147 -54q46 -53 46 -177v-38q0 -128 -51 -185q-48 -54 -155 -54q-60 0 -101 27v-170q0 -15 -5.5 -20 t-22.5 -5h-63q-17 0 -22.5 5t-5.5 20v619q0 23 24 23h37q22 0 26 -16z" />
<glyph unicode="q" horiz-adv-x="525" d="M372 450l6 24q4 16 26 16h37q24 0 24 -23v-619q0 -15 -5.5 -20t-22.5 -5h-63q-17 0 -22.5 5t-5.5 20v178q-31 -35 -109 -35q-104 0 -150.5 55.5t-46.5 182.5v34q0 124 48 180t151 56q89 0 131 -49h2zM256 402q-48 0 -71 -23q-24 -24 -24 -123v-23q0 -94 21 -120 q20 -25 70 -25q52 0 74 26q20 23 20 74v116q0 53 -19 75q-22 23 -71 23z" />
<glyph unicode="r" horiz-adv-x="345" d="M145 472l7 -47h2q24 35 53.5 50t79.5 15h14q16 0 22 -4.5t6 -19.5v-53q0 -13 -6 -18t-22 -5h-18q-59 0 -81 -25q-23 -27 -23 -85v-255q0 -15 -5.5 -20t-22.5 -5h-63q-17 0 -22.5 5t-5.5 20v442q0 23 24 23h35q24 0 26 -18z" />
<glyph unicode="s" horiz-adv-x="433" d="M206 -9q-84 0 -153 29q-13 5 -16 11t0 19l11 49q6 24 28 15q67 -26 120 -26q48 0 65 12q17 11 17 39v7q0 23 -13 33.5t-45 18.5l-60 14q-60 14 -88 45q-30 33 -30 92v9q0 73 44 108q42 33 135 33q78 0 134 -20q10 -4 12.5 -8.5t0.5 -15.5l-12 -56q-4 -19 -25 -13 q-46 16 -97 16q-47 0 -62 -11q-14 -10 -14 -32v-7q0 -21 12 -30t39 -15l62 -14q72 -17 101 -54q22 -30 22 -83v-12q0 -69 -40 -108q-48 -45 -148 -45z" />
<glyph unicode="t" horiz-adv-x="362" d="M208 590v-100h99q13 0 17 -5.5t4 -20.5v-49q0 -25 -21 -25h-99v-218q0 -46 12 -59t47 -13h49q15 0 19.5 -5t4.5 -21v-49q0 -15 -4 -20t-20 -5h-72q-82 0 -117 32q-38 35 -38 120v238h-60q-11 0 -15.5 4t-4.5 15v44q0 12 3.5 15.5t12.5 5.5l64 11v105q0 15 5.5 20t22.5 5 h63q17 0 22.5 -5t5.5 -20z" />
<glyph unicode="u" horiz-adv-x="510" d="M455 465v-311q0 -94 -57 -131q-49 -32 -142 -32q-97 0 -144 32q-57 39 -57 131v311q0 15 5.5 20t22.5 5h63q17 0 22.5 -5t5.5 -20v-299q0 -46 22 -62q18 -13 60 -13q43 0 60 13q20 16 20 62v299q0 15 5.5 20t22.5 5h63q17 0 22.5 -5t5.5 -20z" />
<glyph unicode="v" horiz-adv-x="464" d="M310 26q-10 -26 -42 -26h-71q-32 0 -42 26q-87 215 -144 441q-5 23 23 23h66q22 0 28 -21q54 -205 102 -344h5q53 150 101 344q6 21 28 21h66q28 0 23 -23q-56 -220 -143 -441z" />
<glyph unicode="w" horiz-adv-x="681" d="M670 467q-54 -274 -106 -441q-8 -26 -42 -26h-71q-34 0 -42 26q-37 129 -66 302h-5q-28 -164 -66 -302q-8 -26 -42 -26h-71q-32 0 -42 26q-56 189 -106 441q-4 23 23 23h67q25 0 28 -21q35 -210 67 -344h3q26 108 68 312q4 18 12 23.5t30 5.5h63q22 0 30 -5.5t12 -23.5 q42 -204 68 -312h3q36 157 67 344q3 21 28 21h67q27 0 23 -23z" />
<glyph unicode="x" horiz-adv-x="474" d="M343 242l117 -220q12 -22 -17 -22h-80q-15 0 -20.5 3.5t-11.5 15.5l-72 161q-10 21 -15 21h-12q-5 0 -15 -21l-74 -161q-5 -12 -10.5 -15.5t-21.5 -3.5h-80q-29 0 -17 22l117 220q5 10 0 19l-110 207q-12 22 17 22h78q15 0 20.5 -3.5t11.5 -15.5l69 -149q9 -19 15 -19h12 q6 0 16 19l70 149q6 12 11.5 15.5t20.5 3.5h78q29 0 17 -22l-114 -207q-5 -9 0 -19z" />
<glyph unicode="y" horiz-adv-x="458" d="M131 -135q48 101 61 133q-43 13 -61 67q-63 180 -120 402q-5 23 23 23h68q24 0 28 -21q46 -198 99 -366h4q63 182 96 366q4 21 28 21h67q28 0 23 -23q-70 -327 -213 -636q-8 -18 -20 -18q-11 0 -23 5l-49 20q-20 10 -11 27z" />
<glyph unicode="z" horiz-adv-x="413" d="M378 0h-324q-20 0 -27 5.5t-7 21.5v23q0 22 21 53l188 287h-177q-16 0 -20 5t-4 19v51q0 15 4 20t20 5h310q13 0 17.5 -4t4.5 -17v-26q0 -19 -25 -57l-186 -286h205q13 0 18 -5.5t5 -19.5v-51q0 -13 -5 -18.5t-18 -5.5z" />
<glyph unicode="{" horiz-adv-x="356" d="M261 6h36q15 0 20.5 -5t5.5 -19v-55q0 -14 -5.5 -19t-20.5 -5h-55q-57 0 -87 36.5t-30 101.5v131q0 30 -13.5 44t-43.5 24q-15 5 -19.5 11t-4.5 22v31q0 18 5 23.5t22 10.5q27 7 40.5 20.5t13.5 40.5v138q0 65 30 101t87 36h55q15 0 20.5 -5t5.5 -19v-55q0 -14 -5.5 -19 t-20.5 -5h-34q-14 0 -18 -8.5t-4 -39.5v-117q0 -82 -60 -117v-3q31 -19 45 -46t15 -73v-112q0 -31 4 -40t16 -9z" />
<glyph unicode="|" horiz-adv-x="245" d="M181 640v-629q0 -19 -8.5 -25t-31.5 -6h-37q-23 0 -31.5 6t-8.5 25v629q0 19 8.5 25t31.5 6h37q23 0 31.5 -6t8.5 -25z" />
<glyph unicode="}" horiz-adv-x="356" d="M64 6h36q12 0 16 9t4 40v112q1 46 15 73t45 46v3q-60 35 -60 117v117q0 31 -4 39.5t-18 8.5h-34q-15 0 -20.5 5t-5.5 19v55q0 14 5.5 19t20.5 5h55q57 0 87 -36t30 -101v-138q0 -27 13.5 -40.5t40.5 -20.5q17 -5 22 -10.5t5 -23.5v-31q0 -16 -4.5 -22t-19.5 -11 q-30 -10 -43.5 -24t-13.5 -44v-131q0 -65 -30 -101.5t-87 -36.5h-55q-15 0 -20.5 5t-5.5 19v55q0 14 5.5 19t20.5 5z" />
<glyph unicode="~" d="M282 240l-53 33q-32 21 -50 21q-34 0 -69 -59q-9 -15 -17 -17t-25 7l-51 27q-19 10 -3 43q36 69 75.5 96t86.5 27q38 0 92 -33l58 -36q29 -18 47 -18q29 0 60 58q9 15 17.5 18.5t25.5 -5.5l38 -21q18 -11 20 -19.5t-7 -24.5q-56 -125 -154 -125q-47 0 -91 28z" />
<glyph unicode="&#xa1;" horiz-adv-x="217" d="M41 -135l15 422q1 20 9.5 26t31.5 6h20q23 0 33 -6.5t11 -26.5l15 -421q1 -22 -6.5 -30.5t-35.5 -8.5h-50q-27 0 -35.5 9t-7.5 30zM176 432v-5q0 -66 -67 -66h-4q-30 0 -49 16.5t-19 49.5v5q0 67 68 67h4q31 0 49 -17.5t18 -49.5z" />
<glyph unicode="&#xa2;" d="M435 98l13 -46q4 -14 0 -21t-21 -14q-35 -15 -83 -21v-70q0 -11 -4 -14.5t-18 -3.5h-28q-14 0 -18 3.5t-4 14.5v65q-89 3 -134 45q-33 30 -44.5 77t-11.5 120v30q0 138 60 190q46 40 130 45v72q0 11 4 14.5t18 3.5h28q14 0 18 -3.5t4 -14.5v-76q59 -11 105 -37 q21 -12 10 -35l-25 -50q-10 -19 -29 -7q-30 19 -61 28v-301q34 5 60 17q25 12 31 -11zM226 116q16 -20 46 -25v306q-24 -4 -42 -19q-13 -12 -19.5 -32t-7 -36t-0.5 -55v-16q0 -95 23 -123z" />
<glyph unicode="&#xa3;" d="M448 535q-56 21 -98 21q-50 0 -67.5 -20.5t-17.5 -73.5v-86h153q19 0 23 -6t4 -30v-29q0 -24 -3.5 -29.5t-23.5 -5.5h-154v-39q0 -78 -53 -137h261q17 0 22 -6t5 -28v-37q0 -19 -4.5 -24t-21.5 -5h-400q-16 0 -21.5 6t-5.5 20v32q0 14 4 20t19 16q37 25 53.5 55.5 t16.5 77.5v49h-48q-18 0 -22 4.5t-4 20.5v31q0 18 4.5 24t18.5 8l51 8v94q0 99 45 144.5t144 45.5q77 0 145 -25q23 -8 15 -34l-13 -46q-7 -24 -27 -16z" />
<glyph unicode="&#xa4;" horiz-adv-x="545" d="M430 54l-64 62q-41 -22 -94 -22q-51 0 -93 22l-64 -62q-17 -16 -32 0l-48 49q-16 16 0 33l62 61q-22 42 -22 94q0 51 23 94l-63 62q-16 17 0 33l48 49q15 16 32 0l65 -63q42 22 92 22q49 0 93 -22l65 63q17 16 32 0l48 -49q16 -16 0 -33l-64 -63q23 -41 23 -93t-22 -94 l63 -61q16 -17 0 -33l-48 -49q-15 -16 -32 0zM186 291q0 -38 24.5 -62t61.5 -24t61.5 24t24.5 62t-24.5 62t-61.5 24t-61.5 -24t-24.5 -62z" />
<glyph unicode="&#xa5;" d="M332 207v-44h105q19 0 23 -6.5t4 -30.5v-17q0 -23 -4 -29t-23 -6h-105v-45q0 -17 -6 -23t-23 -6h-68q-17 0 -23 6t-6 23v45h-104q-19 0 -23 6t-4 29v17q0 24 4 30.5t23 6.5h104v46h-104q-19 0 -23 6t-4 29v19q0 24 4 30.5t23 6.5h56q-74 150 -124 322q-7 25 25 25h69 q16 0 22.5 -5t10.5 -20q32 -144 105 -320h7q72 172 105 320q4 15 10.5 20t22.5 5h69q32 0 25 -25q-51 -174 -124 -322h56q19 0 23 -6.5t4 -30.5v-19q0 -23 -4 -29t-23 -6h-104z" />
<glyph unicode="&#xa6;" horiz-adv-x="245" d="M181 647v-207q0 -39 -44 -39h-29q-44 0 -44 39v207q0 39 44 39h29q44 0 44 -39zM181 226v-207q0 -39 -44 -39h-29q-44 0 -44 39v207q0 39 44 39h29q44 0 44 -39z" />
<glyph unicode="&#xa7;" horiz-adv-x="440" d="M181 370q-18 -15 -18 -41v-5q0 -33 42 -41l51 -11q21 14 21 45v6q0 28 -46 37zM327 529q-53 16 -96 16q-35 0 -51 -7t-16 -30v-5q0 -29 45 -37l59 -11q69 -13 98 -36.5t29 -75.5v-8q0 -25 -13.5 -50.5t-36.5 -43.5q49 -28 49 -103v-8q0 -65 -46 -102q-49 -37 -143 -37 q-71 0 -140 27q-13 5 -16 11t0 19l11 49q6 22 28 15q66 -24 117 -24q47 0 63 13q10 9 10 28v6q0 30 -52 41l-51 11q-67 14 -98.5 41t-31.5 80v8q0 54 45 86q-43 31 -43 101v8q0 75 62 105q50 24 116 24q68 0 126 -18q10 -4 12.5 -8.5t0.5 -15.5l-12 -56q-4 -19 -25 -13z" />
<glyph unicode="&#xa8;" horiz-adv-x="370" d="M98 693h10q25 0 40 -13.5t15 -35.5v-24q0 -49 -55 -49h-10q-53 0 -53 49v24q0 22 14.5 35.5t38.5 13.5zM262 693h9q25 0 39.5 -13t14.5 -36v-24q0 -49 -54 -49h-9q-53 0 -53 49v24q0 22 14.5 35.5t38.5 13.5z" />
<glyph unicode="&#xa9;" horiz-adv-x="826" d="M521 246l12 -36q4 -13 -0.5 -19t-21.5 -12q-46 -17 -91 -17q-153 0 -153 145v77q0 80 35.5 115.5t112.5 35.5q62 0 108 -24q17 -9 9 -31l-12 -33q-8 -22 -31 -10q-28 15 -56 15q-31 0 -43 -14.5t-12 -52.5v-80q0 -17 3 -28.5t16 -21t37 -9.5q27 0 61 12q21 7 26 -12z M412 90q121 0 186 71.5t65 184.5q0 116 -64.5 188t-186.5 72t-186.5 -72t-64.5 -188q0 -113 65 -184.5t186 -71.5zM412 -14q-170 0 -271 102t-101 260t101 260t271 102t271 -102t101 -260t-101 -260t-271 -102z" />
<glyph unicode="&#xaa;" horiz-adv-x="322" d="M203 392v25q-22 2 -36 2h-22q-22 0 -31 -7q-10 -8 -10 -29v-2q0 -20 10 -27q9 -7 25 -7h16q48 0 48 45zM213 316h-1q-19 -32 -68 -32h-22q-48 0 -71 20q-27 24 -27 72v12q0 51 26 73q28 24 95 24h23q13 0 35 -2v11q0 17 -10 27q-12 9 -44 9q-37 0 -75 -11q-15 -5 -18 9 l-8 42q-3 15 13 20q45 15 102 15t89 -21q34 -24 34 -82v-200q0 -12 -12 -12h-44q-12 0 -14 10z" />
<glyph unicode="&#xab;" horiz-adv-x="578" d="M422 233l110 -100q17 -17 15.5 -27.5t-16.5 -24.5l-24 -21q-14 -13 -25.5 -12t-29.5 15l-154 127q-19 16 -19 39v8q0 23 19 39l154 126q17 14 28.5 15t26.5 -11l24 -21q28 -26 1 -50zM163 233l110 -100q17 -17 15.5 -27.5t-16.5 -24.5l-24 -21q-14 -13 -25.5 -12 t-29.5 15l-154 127q-19 16 -19 39v8q0 23 19 39l154 126q17 14 28.5 15t26.5 -11l24 -21q28 -26 1 -50z" />
<glyph unicode="&#xac;" d="M430 37q-26 0 -33.5 5.5t-7.5 23.5v138h-321q-24 0 -30 8t-6 29v36q0 13 1.5 20t10 12t24.5 5h398q42 0 42 -37v-211q0 -17 -9 -23t-33 -6h-36z" />
<glyph unicode="&#xad;" horiz-adv-x="333" d="M71 313h191q23 0 30.5 -9t7.5 -28v-36q0 -16 -7 -24.5t-13 -9.5t-18 -1h-191q-24 0 -31 8.5t-7 28.5v34q0 19 7.5 28t30.5 9z" />
<glyph unicode="&#xae;" horiz-adv-x="826" d="M389 291v-95q0 -28 -32 -28h-38q-32 0 -32 28v298q0 31 33 35q22 3 83 3q66 0 109.5 -27t43.5 -89v-8q0 -57 -36 -85q-14 -12 -31 -19l72 -109q16 -27 -22 -27h-52q-23 0 -34 19l-59 104h-5zM412 451q-16 0 -23 -1v-84h17q26 0 36 10q9 9 9 33v7q0 35 -39 35zM412 90 q121 0 186 71.5t65 184.5q0 116 -64.5 188t-186.5 72t-186.5 -72t-64.5 -188q0 -113 65 -184.5t186 -71.5zM412 -14q-170 0 -271 102t-101 260t101 260t271 102t271 -102t101 -260t-101 -260t-271 -102z" />
<glyph unicode="&#xaf;" horiz-adv-x="370" d="M77 662h216q24 0 24 -24v-37q0 -22 -24 -22h-216q-24 0 -24 24v35q0 24 24 24z" />
<glyph unicode="&#xb0;" horiz-adv-x="369" d="M35 600q0 62 44 106.5t104 44.5q63 0 107 -44t44 -107q0 -60 -44.5 -104t-106.5 -44q-59 0 -103.5 44.5t-44.5 103.5zM139 600q0 -19 13 -33t31 -14q20 0 33 13.5t13 33.5q0 22 -13 35.5t-33 13.5q-18 0 -31 -14t-13 -35z" />
<glyph unicode="&#xb1;" d="M329 584v-137h143q23 0 29.5 -9t6.5 -28v-38q0 -16 -6.5 -24.5t-12.5 -9.5t-17 -1h-143v-130q0 -32 -43 -32h-36q-20 0 -29.5 7t-9.5 25v130h-143q-24 0 -30 8t-6 29v36q0 13 1.5 20t10 12t24.5 5h143v137q0 21 9 27.5t33 6.5h33q22 0 32.5 -6.5t10.5 -27.5zM472 0h-404 q-24 0 -30 8t-6 29v36q0 13 1.5 20t10 12t24.5 5h404q23 0 29.5 -9t6.5 -28v-38q0 -16 -6.5 -24.5t-12.5 -9.5t-17 -1z" />
<glyph unicode="&#xb2;" horiz-adv-x="400" d="M114 711q-10 -4 -15 -0.5t-9 19.5l-8 35q-6 26 12 32q49 18 115 18q60 0 91.5 -28.5t31.5 -81.5v-6q0 -41 -17.5 -67t-62.5 -48l-49 -24q-34 -17 -34 -39v-6h134q15 0 19.5 -4.5t4.5 -20.5v-37q0 -15 -5 -20.5t-19 -5.5h-206q-18 0 -24 5.5t-6 22.5v39q0 97 76 134l49 24 q23 11 31.5 20t8.5 23v3q0 26 -41 26q-42 0 -77 -13z" />
<glyph unicode="&#xb3;" horiz-adv-x="400" d="M65 468l9 38q5 23 25 16q45 -17 86 -17q49 0 49 33v4q0 20 -7.5 28t-30.5 8h-38q-9 0 -13.5 3.5t-5.5 8.5t-1 16v26q0 11 1 16.5t5.5 9t13.5 3.5h28q45 0 45 34v4q0 25 -42 25q-33 0 -69 -12q-14 -4 -18.5 -1.5t-8.5 18.5l-9 35q-4 13 -1.5 19.5t15.5 10.5q53 19 112 19 q121 0 121 -99v-8q0 -61 -44 -84v-3q49 -22 49 -74v-8q0 -119 -136 -119q-68 0 -121 21q-12 4 -14.5 10.5t0.5 18.5z" />
<glyph unicode="&#xb4;" horiz-adv-x="370" d="M71 608l160 111q19 13 31 -5l35 -50q8 -12 6.5 -19t-14.5 -15l-162 -89q-22 -13 -36 7l-21 29q-14 21 1 31z" />
<glyph unicode="&#xb6;" horiz-adv-x="623" d="M513 570v-651q0 -15 -5.5 -20t-22.5 -5h-60q-17 0 -22.5 5t-5.5 20v651h-62v-651q0 -15 -5.5 -20t-22.5 -5h-67q-17 0 -22.5 5t-5.5 20v379q-73 9 -120 61.5t-47 123.5q0 79 59 133t151 54h310q13 0 17.5 -5t4.5 -18v-56q0 -12 -4.5 -16.5t-17.5 -4.5h-52z" />
<glyph unicode="&#xb7;" horiz-adv-x="210" d="M174 298v-16q0 -64 -63 -64h-11q-34 0 -49 15.5t-15 48.5v16q0 63 64 63h11q63 0 63 -63z" />
<glyph unicode="&#xb8;" horiz-adv-x="370" d="M188 -7l-10 -51q15 3 31 3q34 0 57.5 -21.5t23.5 -62.5q0 -99 -118 -99q-47 0 -85 12q-15 5 -13 21l5 32q3 16 18 11q30 -10 63 -10q42 0 42 28q0 26 -33 26q-9 0 -35 -4q-14 -3 -22 8l-8 12q-5 9 -4 18l17 77q3 10 13 10h48q12 0 10 -10z" />
<glyph unicode="&#xb9;" horiz-adv-x="400" d="M317 427h-217q-15 0 -21 6t-6 21v35q0 26 27 26h63v184h-4l-49 -30q-19 -12 -30 6l-22 37q-11 17 7 30l79 50q22 14 49 14h34q21 0 27.5 -5.5t6.5 -24.5v-261h56q17 0 21.5 -5.5t4.5 -21.5v-35q0 -15 -5 -20.5t-21 -5.5z" />
<glyph unicode="&#xba;" horiz-adv-x="324" d="M114 447v-6q0 -47 10.5 -64.5t37.5 -17.5q26 0 36.5 17.5t10.5 64.5v6q0 47 -10.5 65t-36.5 18q-27 0 -37.5 -18t-10.5 -65zM296 457v-24q0 -79 -31 -114t-103 -35t-103 35t-31 114v24q0 79 31 113.5t103 34.5t103 -34.5t31 -113.5z" />
<glyph unicode="&#xbb;" horiz-adv-x="568" d="M295 133l110 100l-110 102q-27 24 1 50l24 21q15 12 26.5 11t28.5 -15l154 -126q19 -16 19 -39v-8q0 -23 -19 -39l-154 -127q-18 -14 -29.5 -15t-25.5 12l-24 21q-15 14 -16.5 24.5t15.5 27.5zM46 133l110 100l-110 102q-27 24 1 50l24 21q15 12 26.5 11t28.5 -15 l154 -126q19 -16 19 -39v-8q0 -23 -19 -39l-154 -127q-18 -14 -29.5 -15t-25.5 12l-24 21q-15 14 -16.5 24.5t15.5 27.5z" />
<glyph unicode="&#xbc;" horiz-adv-x="890" d="M827 82h-29v-63q0 -19 -22 -19h-54q-22 0 -22 19v63h-147q-14 0 -19 4t-5 17v28q0 12 15 35l118 188q16 25 45 25h63q16 0 22 -6t6 -22v-191h29q18 0 18 -22v-33q0 -23 -18 -23zM697 283l-76 -123h79v123h-3zM218 22l374 614q13 20 39 20h59q22 0 27.5 -7t-4.5 -24 l-374 -614q-13 -20 -39 -20h-65q-36 0 -17 31zM294 268h-217q-15 0 -21 6t-6 21v35q0 26 27 26h63v184h-4l-49 -30q-19 -12 -30 6l-22 37q-11 17 7 30l79 50q22 14 49 14h34q21 0 27.5 -5.5t6.5 -24.5v-261h56q17 0 21.5 -5.5t4.5 -21.5v-35q0 -15 -5 -20.5t-21 -5.5z" />
<glyph unicode="&#xbd;" horiz-adv-x="890" d="M638 284q-10 -4 -15 -0.5t-9 19.5l-8 35q-6 26 12 32q49 18 115 18q60 0 91.5 -28.5t31.5 -81.5v-6q0 -41 -17.5 -67t-62.5 -48l-49 -24q-34 -17 -34 -39v-6h134q15 0 19.5 -5t4.5 -20v-37q0 -15 -5 -20.5t-19 -5.5h-206q-18 0 -24 5.5t-6 22.5v39q0 97 76 134l49 24 q23 11 31.5 20t8.5 23v3q0 26 -41 26q-42 0 -77 -13zM218 22l374 614q13 20 39 20h59q22 0 27.5 -7t-4.5 -24l-374 -614q-13 -20 -39 -20h-65q-36 0 -17 31zM294 268h-217q-15 0 -21 6t-6 21v35q0 26 27 26h63v184h-4l-49 -30q-19 -12 -30 6l-22 37q-11 17 7 30l79 50 q22 14 49 14h34q21 0 27.5 -5.5t6.5 -24.5v-261h56q17 0 21.5 -5.5t4.5 -21.5v-35q0 -15 -5 -20.5t-21 -5.5z" />
<glyph unicode="&#xbe;" horiz-adv-x="890" d="M827 82h-29v-63q0 -19 -22 -19h-54q-22 0 -22 19v63h-147q-14 0 -19 4t-5 17v28q0 12 15 35l118 188q16 25 45 25h63q16 0 22 -6t6 -22v-191h29q18 0 18 -22v-33q0 -23 -18 -23zM697 283l-76 -123h79v123h-3zM218 22l374 614q13 20 39 20h59q22 0 27.5 -7t-4.5 -24 l-374 -614q-13 -20 -39 -20h-65q-36 0 -17 31zM56 311l9 38q5 23 25 16q45 -17 86 -17q49 0 49 33v4q0 20 -7.5 28t-30.5 8h-38q-9 0 -13.5 3.5t-5.5 8.5t-1 16v26q0 11 1 16.5t5.5 9t13.5 3.5h28q45 0 45 34v4q0 25 -42 25q-33 0 -69 -12q-14 -4 -18.5 -1.5t-8.5 18.5 l-9 35q-4 13 -1.5 19.5t15.5 10.5q53 19 112 19q121 0 121 -99v-8q0 -61 -44 -84v-3q49 -22 49 -74v-8q0 -119 -136 -119q-68 0 -121 21q-12 4 -14.5 10.5t0.5 18.5z" />
<glyph unicode="&#xbf;" horiz-adv-x="445" d="M231 298q0 20 25 20h55q22 0 22 -20q0 -72 -9 -92q-15 -32 -71 -69l-32 -21q-36 -23 -51 -45.5t-15 -55.5v-11q0 -37 21 -55q21 -17 68 -17q57 0 125 27q24 9 32 -14l13 -43q7 -24 -16 -33q-82 -35 -170 -35q-93 0 -144.5 40.5t-51.5 121.5v13q0 98 101 166l31 21 q46 30 58 43q9 10 9 59zM213 427v5q0 32 18 49.5t49 17.5h4q68 0 68 -67v-5q0 -33 -19 -49.5t-49 -16.5h-4q-67 0 -67 66z" />
<glyph unicode="&#xc0;" horiz-adv-x="569" d="M291 519h-12q-31 -103 -77 -265h166q-46 162 -77 265zM173 149l-33 -123q-4 -16 -13.5 -21t-29.5 -5h-53q-13 0 -18.5 0.5t-13 3t-6.5 7.5t1 15q76 277 187 585q8 23 21 29.5t45 6.5h49q32 0 46 -7t22 -29q96 -264 185 -585q5 -18 -3 -22t-33 -4h-53q-20 0 -29.5 5 t-13.5 21l-33 123h-224zM209 865l171 -93q15 -9 4 -30l-18 -31q-11 -23 -35 -11l-170 71q-14 7 -16.5 13.5t4.5 19.5l29 53q11 19 31 8z" />
<glyph unicode="&#xc1;" horiz-adv-x="569" d="M291 519h-12q-31 -103 -77 -265h166q-46 162 -77 265zM173 149l-33 -123q-4 -16 -13.5 -21t-29.5 -5h-53q-13 0 -18.5 0.5t-13 3t-6.5 7.5t1 15q76 277 187 585q8 23 21 29.5t45 6.5h49q32 0 46 -7t22 -29q96 -264 185 -585q5 -18 -3 -22t-33 -4h-53q-20 0 -29.5 5 t-13.5 21l-33 123h-224zM193 772l171 93q20 11 31 -8l29 -53q7 -13 4.5 -20t-16.5 -13l-170 -71q-23 -9 -35 11l-18 31q-12 20 4 30z" />
<glyph unicode="&#xc2;" horiz-adv-x="569" d="M291 519h-12q-31 -103 -77 -265h166q-46 162 -77 265zM173 149l-33 -123q-4 -16 -13.5 -21t-29.5 -5h-53q-13 0 -18.5 0.5t-13 3t-6.5 7.5t1 15q76 277 187 585q8 23 21 29.5t45 6.5h49q32 0 46 -7t22 -29q96 -264 185 -585q5 -18 -3 -22t-33 -4h-53q-20 0 -29.5 5 t-13.5 21l-33 123h-224zM337 870l92 -109q14 -15 -2 -29l-28 -21q-17 -14 -34 2l-81 78h-3l-78 -78q-16 -17 -34 -2l-28 21q-16 14 -2 29l91 109q9 11 25 11h57q15 0 25 -11z" />
<glyph unicode="&#xc3;" horiz-adv-x="569" d="M291 519h-12q-31 -103 -77 -265h166q-46 162 -77 265zM173 149l-33 -123q-4 -16 -13.5 -21t-29.5 -5h-53q-13 0 -18.5 0.5t-13 3t-6.5 7.5t1 15q76 277 187 585q8 23 21 29.5t45 6.5h49q32 0 46 -7t22 -29q96 -264 185 -585q5 -18 -3 -22t-33 -4h-53q-20 0 -29.5 5 t-13.5 21l-33 123h-224zM152 715l-25 15q-14 9 -6 29q38 84 102 84q31 0 61 -19l27 -17q23 -14 35 -14q21 0 43 35q10 16 28 3l22 -15q16 -11 7 -29q-44 -79 -106 -79q-30 0 -60 19l-27 18q-18 12 -30 12q-21 0 -43 -36q-10 -17 -28 -6z" />
<glyph unicode="&#xc4;" horiz-adv-x="569" d="M291 519h-12q-31 -103 -77 -265h166q-46 162 -77 265zM173 149l-33 -123q-4 -16 -13.5 -21t-29.5 -5h-53q-13 0 -18.5 0.5t-13 3t-6.5 7.5t1 15q76 277 187 585q8 23 21 29.5t45 6.5h49q32 0 46 -7t22 -29q96 -264 185 -585q5 -18 -3 -22t-33 -4h-53q-20 0 -29.5 5 t-13.5 21l-33 123h-224zM197 847h10q25 0 40 -13.5t15 -35.5v-24q0 -49 -55 -49h-10q-53 0 -53 49v24q0 22 14.5 35.5t38.5 13.5zM361 847h9q25 0 39.5 -13t14.5 -36v-24q0 -49 -54 -49h-9q-53 0 -53 49v24q0 22 14.5 35.5t38.5 13.5z" />
<glyph unicode="&#xc5;" horiz-adv-x="569" d="M291 519h-12q-31 -103 -77 -265h166q-46 162 -77 265zM173 149l-33 -123q-4 -16 -13.5 -21t-29.5 -5h-53q-13 0 -18.5 0.5t-13 3t-6.5 7.5t1 15q76 277 187 585q8 23 21 29.5t45 6.5h49q32 0 46 -7t22 -29q96 -264 185 -585q5 -18 -3 -22t-33 -4h-53q-20 0 -29.5 5 t-13.5 21l-33 123h-224zM187 774q0 40 28.5 68.5t68.5 28.5q41 0 69 -28t28 -69t-28 -69t-69 -28t-69 28t-28 69zM252 774q0 -14 9 -23.5t23 -9.5t23.5 9.5t9.5 23.5t-9.5 23t-23.5 9t-23 -9t-9 -23z" />
<glyph unicode="&#xc6;" horiz-adv-x="837" d="M739 282h-216v-151q0 -16 7.5 -22t24.5 -6h216q17 0 21.5 -4.5t4.5 -19.5v-55q0 -14 -4.5 -19t-21.5 -5h-229q-78 0 -107 24q-35 29 -35 92v33h-198l-59 -123q-8 -16 -18 -21t-30 -5h-53q-17 0 -23 1t-12 6.5t3 18.5q148 304 302 585q12 22 27 29t47 7h386q17 0 21 -4.5 t4 -19.5v-55q0 -14 -4.5 -19t-20.5 -5h-249v-159h216q17 0 21 -4.5t4 -19.5v-55q0 -14 -4.5 -19t-20.5 -5zM391 545q-24 -47 -71.5 -150t-66.5 -141h147v291h-9z" />
<glyph unicode="&#xc7;" horiz-adv-x="533" d="M310 656q103 0 179 -45q15 -8 7 -29l-24 -60q-8 -20 -32 -6q-66 36 -130 36t-95 -31q-22 -22 -30 -65.5t-8 -122.5v-18q0 -142 34 -183q31 -37 112 -37q66 0 128 27q24 10 30 -16l12 -48q3 -15 -0.5 -22.5t-20.5 -13.5q-76 -30 -155 -31l-9 -49q15 3 31 3 q34 0 57.5 -21.5t23.5 -62.5q0 -99 -118 -99q-47 0 -85 12q-15 5 -13 21l5 32q3 16 18 11q30 -10 63 -10q42 0 42 28q0 26 -33 26q-9 0 -35 -4q-14 -3 -22 8l-8 12q-5 9 -4 18l17 77v1q-87 9 -133 55q-36 36 -51 95.5t-15 158.5v40q0 107 19 167t68 99q60 47 175 47z" />
<glyph unicode="&#xc8;" horiz-adv-x="498" d="M400 282h-224q0 -80 7 -151q1 -17 8.5 -22.5t23.5 -5.5h217q17 0 21.5 -4.5t4.5 -19.5v-55q0 -14 -4.5 -19t-21.5 -5h-229q-78 0 -107 24q-26 21 -35 92q-9 80 -9 187v41q0 108 9 187q7 68 39 94q28 22 103 22h230q17 0 21 -4.5t4 -19.5v-55q0 -14 -4.5 -19t-20.5 -5 h-218q-30 0 -33 -30q-6 -70 -6 -129h224q17 0 21 -4.5t4 -19.5v-55q0 -14 -4.5 -19t-20.5 -5zM218 865l171 -93q15 -9 4 -30l-18 -31q-11 -23 -35 -11l-170 71q-14 7 -16.5 13.5t4.5 19.5l29 53q11 19 31 8z" />
<glyph unicode="&#xc9;" horiz-adv-x="498" d="M400 282h-224q0 -80 7 -151q1 -17 8.5 -22.5t23.5 -5.5h217q17 0 21.5 -4.5t4.5 -19.5v-55q0 -14 -4.5 -19t-21.5 -5h-229q-78 0 -107 24q-26 21 -35 92q-9 80 -9 187v41q0 108 9 187q7 68 39 94q28 22 103 22h230q17 0 21 -4.5t4 -19.5v-55q0 -14 -4.5 -19t-20.5 -5 h-218q-30 0 -33 -30q-6 -70 -6 -129h224q17 0 21 -4.5t4 -19.5v-55q0 -14 -4.5 -19t-20.5 -5zM191 772l171 93q20 11 31 -8l29 -53q7 -13 4.5 -20t-16.5 -13l-170 -71q-23 -9 -35 11l-18 31q-12 20 4 30z" />
<glyph unicode="&#xca;" horiz-adv-x="498" d="M400 282h-224q0 -80 7 -151q1 -17 8.5 -22.5t23.5 -5.5h217q17 0 21.5 -4.5t4.5 -19.5v-55q0 -14 -4.5 -19t-21.5 -5h-229q-78 0 -107 24q-26 21 -35 92q-9 80 -9 187v41q0 108 9 187q7 68 39 94q28 22 103 22h230q17 0 21 -4.5t4 -19.5v-55q0 -14 -4.5 -19t-20.5 -5 h-218q-30 0 -33 -30q-6 -70 -6 -129h224q17 0 21 -4.5t4 -19.5v-55q0 -14 -4.5 -19t-20.5 -5zM339 870l92 -109q14 -15 -2 -29l-28 -21q-17 -14 -34 2l-81 78h-3l-78 -78q-16 -17 -34 -2l-28 21q-16 14 -2 29l91 109q9 11 25 11h57q15 0 25 -11z" />
<glyph unicode="&#xcb;" horiz-adv-x="498" d="M400 282h-224q0 -80 7 -151q1 -17 8.5 -22.5t23.5 -5.5h217q17 0 21.5 -4.5t4.5 -19.5v-55q0 -14 -4.5 -19t-21.5 -5h-229q-78 0 -107 24q-26 21 -35 92q-9 80 -9 187v41q0 108 9 187q7 68 39 94q28 22 103 22h230q17 0 21 -4.5t4 -19.5v-55q0 -14 -4.5 -19t-20.5 -5 h-218q-30 0 -33 -30q-6 -70 -6 -129h224q17 0 21 -4.5t4 -19.5v-55q0 -14 -4.5 -19t-20.5 -5zM194 847h10q25 0 40 -13.5t15 -35.5v-24q0 -49 -55 -49h-10q-53 0 -53 49v24q0 22 14.5 35.5t38.5 13.5zM358 847h9q25 0 39.5 -13t14.5 -36v-24q0 -49 -54 -49h-9q-53 0 -53 49 v24q0 22 14.5 35.5t38.5 13.5z" />
<glyph unicode="&#xcc;" horiz-adv-x="269" d="M198 622v-597q0 -16 -5 -20.5t-22 -4.5h-72q-17 0 -22 4.5t-5 20.5v597q0 16 5 20.5t22 4.5h72q17 0 22 -4.5t5 -20.5zM43 865l171 -93q15 -9 4 -30l-18 -31q-11 -23 -35 -11l-170 71q-14 7 -16.5 13.5t4.5 19.5l29 53q11 19 31 8z" />
<glyph unicode="&#xcd;" horiz-adv-x="269" d="M198 622v-597q0 -16 -5 -20.5t-22 -4.5h-72q-17 0 -22 4.5t-5 20.5v597q0 16 5 20.5t22 4.5h72q17 0 22 -4.5t5 -20.5zM53 772l171 93q20 11 31 -8l29 -53q7 -13 4.5 -20t-16.5 -13l-170 -71q-23 -9 -35 11l-18 31q-12 20 4 30z" />
<glyph unicode="&#xce;" horiz-adv-x="269" d="M198 622v-597q0 -16 -5 -20.5t-22 -4.5h-72q-17 0 -22 4.5t-5 20.5v597q0 16 5 20.5t22 4.5h72q17 0 22 -4.5t5 -20.5zM186 870l92 -109q14 -15 -2 -29l-28 -21q-17 -14 -34 2l-81 78h-3l-78 -78q-16 -17 -34 -2l-28 21q-16 14 -2 29l91 109q9 11 25 11h57q15 0 25 -11z " />
<glyph unicode="&#xcf;" horiz-adv-x="269" d="M198 622v-597q0 -16 -5 -20.5t-22 -4.5h-72q-17 0 -22 4.5t-5 20.5v597q0 16 5 20.5t22 4.5h72q17 0 22 -4.5t5 -20.5zM48 847h10q25 0 40 -13.5t15 -35.5v-24q0 -49 -55 -49h-10q-53 0 -53 49v24q0 22 14.5 35.5t38.5 13.5zM212 847h9q25 0 39.5 -13t14.5 -36v-24 q0 -49 -54 -49h-9q-53 0 -53 49v24q0 22 14.5 35.5t38.5 13.5z" />
<glyph unicode="&#xd0;" horiz-adv-x="617" d="M217 0q-100 0 -114 1q-20 2 -27.5 10.5t-7.5 30.5v235h-42q-19 0 -24 6t-5 31v34q0 25 5 31t24 6h42v219q0 22 7.5 31t27.5 11q60 6 140 6q167 0 244 -67q82 -72 82 -233v-57q0 -161 -88 -230q-46 -36 -105 -50.5t-159 -14.5zM246 550q-25 0 -35 -1q-17 -1 -17 -18v-146 h71q19 0 24 -6t5 -31v-36q0 -23 -5 -29t-24 -6h-71v-153q0 -23 24 -23h31q105 0 148 46t43 157v44q0 115 -40.5 158.5t-153.5 43.5z" />
<glyph unicode="&#xd1;" horiz-adv-x="642" d="M68 25v597q0 16 5 20.5t22 4.5h60q34 0 49 -24l249 -412h4v411q0 16 5 20.5t22 4.5h63q17 0 22 -4.5t5 -20.5v-597q0 -16 -5 -20.5t-22 -4.5h-60q-34 0 -49 24l-249 403h-4v-402q0 -16 -5 -20.5t-22 -4.5h-63q-17 0 -22 4.5t-5 20.5zM194 715l-25 15q-14 9 -6 29 q38 84 102 84q31 0 61 -19l27 -17q23 -14 35 -14q21 0 43 35q10 16 28 3l22 -15q16 -11 7 -29q-44 -79 -106 -79q-30 0 -60 19l-27 18q-18 12 -30 12q-21 0 -43 -36q-10 -17 -28 -6z" />
<glyph unicode="&#xd2;" horiz-adv-x="618" d="M441 313v21q0 127 -33 177q-28 41 -99 41t-99 -41q-33 -48 -33 -177v-21q0 -129 33 -177q28 -41 99 -41t99 41q33 49 33 177zM570 344v-41q0 -172 -74 -247q-63 -65 -187 -65q-127 0 -189 65q-72 78 -72 247v41q0 169 72 247q62 65 189 65q124 0 187 -65q74 -75 74 -247z M238 865l171 -93q15 -9 4 -30l-18 -31q-11 -23 -35 -11l-170 71q-14 7 -16.5 13.5t4.5 19.5l29 53q11 19 31 8z" />
<glyph unicode="&#xd3;" horiz-adv-x="618" d="M441 313v21q0 127 -33 177q-28 41 -99 41t-99 -41q-33 -48 -33 -177v-21q0 -129 33 -177q28 -41 99 -41t99 41q33 49 33 177zM570 344v-41q0 -172 -74 -247q-63 -65 -187 -65q-127 0 -189 65q-72 78 -72 247v41q0 169 72 247q62 65 189 65q124 0 187 -65q74 -75 74 -247z M227 772l171 93q20 11 31 -8l29 -53q7 -13 4.5 -20t-16.5 -13l-170 -71q-23 -9 -35 11l-18 31q-12 20 4 30z" />
<glyph unicode="&#xd4;" horiz-adv-x="618" d="M441 313v21q0 127 -33 177q-28 41 -99 41t-99 -41q-33 -48 -33 -177v-21q0 -129 33 -177q28 -41 99 -41t99 41q33 49 33 177zM570 344v-41q0 -172 -74 -247q-63 -65 -187 -65q-127 0 -189 65q-72 78 -72 247v41q0 169 72 247q62 65 189 65q124 0 187 -65q74 -75 74 -247z M366 870l92 -109q14 -15 -2 -29l-28 -21q-17 -14 -34 2l-81 78h-3l-78 -78q-16 -17 -34 -2l-28 21q-16 14 -2 29l91 109q9 11 25 11h57q15 0 25 -11z" />
<glyph unicode="&#xd5;" horiz-adv-x="618" d="M441 313v21q0 127 -33 177q-28 41 -99 41t-99 -41q-33 -48 -33 -177v-21q0 -129 33 -177q28 -41 99 -41t99 41q33 49 33 177zM570 344v-41q0 -172 -74 -247q-63 -65 -187 -65q-127 0 -189 65q-72 78 -72 247v41q0 169 72 247q62 65 189 65q124 0 187 -65q74 -75 74 -247z M180 715l-25 15q-14 9 -6 29q38 84 102 84q31 0 61 -19l27 -17q23 -14 35 -14q21 0 43 35q10 16 28 3l22 -15q16 -11 7 -29q-44 -79 -106 -79q-30 0 -60 19l-27 18q-18 12 -30 12q-21 0 -43 -36q-10 -17 -28 -6z" />
<glyph unicode="&#xd6;" horiz-adv-x="618" d="M441 313v21q0 127 -33 177q-28 41 -99 41t-99 -41q-33 -48 -33 -177v-21q0 -129 33 -177q28 -41 99 -41t99 41q33 49 33 177zM570 344v-41q0 -172 -74 -247q-63 -65 -187 -65q-127 0 -189 65q-72 78 -72 247v41q0 169 72 247q62 65 189 65q124 0 187 -65q74 -75 74 -247z M224 847h10q25 0 40 -13.5t15 -35.5v-24q0 -49 -55 -49h-10q-53 0 -53 49v24q0 22 14.5 35.5t38.5 13.5zM388 847h9q25 0 39.5 -13t14.5 -36v-24q0 -49 -54 -49h-9q-53 0 -53 49v24q0 22 14.5 35.5t38.5 13.5z" />
<glyph unicode="&#xd7;" d="M167 444l107 -104l101 99q19 15 28.5 14t23.5 -15l26 -25q12 -12 13 -22t-2 -15t-11 -13l-101 -101l108 -108q22 -23 -8 -53l-25 -24q-27 -28 -51 -5l-108 106l-101 -99q-19 -17 -27.5 -16t-24.5 17l-25 23q-15 15 -16 23.5t15 28.5l101 101l-106 107q-15 17 -13.5 27.5 t18.5 26.5l24 21q16 15 25.5 17.5t28.5 -11.5z" />
<glyph unicode="&#xd8;" horiz-adv-x="618" d="M570 344v-41q0 -172 -74 -247q-63 -65 -187 -65q-73 0 -120 18l-33 -59q-12 -23 -39 -8l-26 14q-15 8 -17 15.5t6 20.5l37 67q-69 77 -69 244v41q0 169 72 247q62 65 189 65q74 0 125 -23l38 68q12 23 39 8l26 -14q15 -8 17 -15.5t-6 -20.5l-43 -78q65 -76 65 -237z M177 313q0 -88 10 -126l194 349q-28 16 -72 16q-71 0 -99 -41q-33 -48 -33 -177v-21zM441 313v21q0 70 -9 115l-189 -342q25 -12 66 -12q71 0 99 41q33 49 33 177z" />
<glyph unicode="&#xd9;" horiz-adv-x="614" d="M554 622v-403q0 -116 -60 -172q-58 -56 -187 -56q-128 0 -186 56q-61 57 -61 172v403q0 16 5 20.5t22 4.5h72q17 0 22 -4.5t5 -20.5v-397q0 -70 27 -97q30 -33 94 -33q63 0 95 33q26 29 26 97v397q0 16 5 20.5t22 4.5h72q17 0 22 -4.5t5 -20.5zM230 865l171 -93 q15 -9 4 -30l-18 -31q-11 -23 -35 -11l-170 71q-14 7 -16.5 13.5t4.5 19.5l29 53q11 19 31 8z" />
<glyph unicode="&#xda;" horiz-adv-x="614" d="M554 622v-403q0 -116 -60 -172q-58 -56 -187 -56q-128 0 -186 56q-61 57 -61 172v403q0 16 5 20.5t22 4.5h72q17 0 22 -4.5t5 -20.5v-397q0 -70 27 -97q30 -33 94 -33q63 0 95 33q26 29 26 97v397q0 16 5 20.5t22 4.5h72q17 0 22 -4.5t5 -20.5zM224 772l171 93 q20 11 31 -8l29 -53q7 -13 4.5 -20t-16.5 -13l-170 -71q-23 -9 -35 11l-18 31q-12 20 4 30z" />
<glyph unicode="&#xdb;" horiz-adv-x="614" d="M554 622v-403q0 -116 -60 -172q-58 -56 -187 -56q-128 0 -186 56q-61 57 -61 172v403q0 16 5 20.5t22 4.5h72q17 0 22 -4.5t5 -20.5v-397q0 -70 27 -97q30 -33 94 -33q63 0 95 33q26 29 26 97v397q0 16 5 20.5t22 4.5h72q17 0 22 -4.5t5 -20.5zM362 870l92 -109 q14 -15 -2 -29l-28 -21q-17 -14 -34 2l-81 78h-3l-78 -78q-16 -17 -34 -2l-28 21q-16 14 -2 29l91 109q9 11 25 11h57q15 0 25 -11z" />
<glyph unicode="&#xdc;" horiz-adv-x="614" d="M554 622v-403q0 -116 -60 -172q-58 -56 -187 -56q-128 0 -186 56q-61 57 -61 172v403q0 16 5 20.5t22 4.5h72q17 0 22 -4.5t5 -20.5v-397q0 -70 27 -97q30 -33 94 -33q63 0 95 33q26 29 26 97v397q0 16 5 20.5t22 4.5h72q17 0 22 -4.5t5 -20.5zM222 847h10q25 0 40 -13.5 t15 -35.5v-24q0 -49 -55 -49h-10q-53 0 -53 49v24q0 22 14.5 35.5t38.5 13.5zM386 847h9q25 0 39.5 -13t14.5 -36v-24q0 -49 -54 -49h-9q-53 0 -53 49v24q0 22 14.5 35.5t38.5 13.5z" />
<glyph unicode="&#xdd;" horiz-adv-x="499" d="M312 209v-184q0 -16 -5 -20.5t-22 -4.5h-72q-17 0 -22 4.5t-5 20.5v184q-100 177 -172 417q-4 12 2 16.5t23 4.5h69q18 0 24 -3t9 -18q37 -160 105 -309h7q64 141 105 309q4 15 10 18t23 3h69q17 0 23 -4.5t2 -16.5q-73 -247 -173 -417zM160 772l171 93q20 11 31 -8 l29 -53q7 -13 4.5 -20t-16.5 -13l-170 -71q-23 -9 -35 11l-18 31q-12 20 4 30z" />
<glyph unicode="&#xde;" horiz-adv-x="550" d="M194 620v-76h72q123 0 184 -48q59 -46 59 -155v-18q0 -109 -65 -160q-64 -50 -192 -50h-58v-86q0 -17 -5.5 -22t-23.5 -5h-68q-18 0 -23.5 5t-5.5 22v593q0 17 5.5 22t23.5 5h68q18 0 23.5 -5t5.5 -22zM259 440h-65v-222h62q68 0 96 24.5t28 85.5v13q0 55 -26 77 q-27 22 -95 22z" />
<glyph unicode="&#xdf;" horiz-adv-x="551" d="M179 477v-536q0 -15 -5.5 -20t-22.5 -5h-63q-17 0 -22.5 5t-5.5 20v545q0 112 58 157q58 43 162 43q91 0 146 -41q27 -20 43 -54t16 -73v-10q0 -116 -76 -145v-3q51 -11 78 -46q29 -38 29 -107v-22q0 -101 -50 -149q-48 -45 -145 -45q-45 0 -91 7q-17 3 -16 22l4 56 q1 18 23 14q24 -4 59 -4q95 0 95 108v15q0 51 -23 71q-27 24 -90 24h-29q-18 0 -18 17v63q0 18 18 18h13q46 0 67 13q31 19 31 80v10q0 38 -22.5 61t-65.5 23q-50 0 -72 -22q-25 -25 -25 -90z" />
<glyph unicode="&#xe0;" horiz-adv-x="490" d="M316 153v61q-34 2 -58 2h-35q-39 0 -52 -12q-15 -12 -15 -49v-12q0 -31 15 -45q14 -12 44 -12h36q34 0 49.5 16t15.5 51zM338 42h-2q-29 -51 -110 -51h-37q-72 0 -110 32q-43 37 -43 112v23q0 81 42 116q44 37 146 37h36q22 0 56 -2v27q0 37 -17 51q-18 14 -69 14 q-60 0 -123 -19q-20 -6 -25 16l-9 47q-6 24 15 30q74 24 151 24q97 0 144 -32q52 -36 52 -132v-316q0 -19 -21 -19h-46q-20 0 -24 18zM198 719l160 -111q15 -10 1 -31l-21 -29q-14 -20 -36 -7l-162 89q-13 8 -14.5 15t6.5 19l35 50q12 18 31 5z" />
<glyph unicode="&#xe1;" horiz-adv-x="490" d="M316 153v61q-34 2 -58 2h-35q-39 0 -52 -12q-15 -12 -15 -49v-12q0 -31 15 -45q14 -12 44 -12h36q34 0 49.5 16t15.5 51zM338 42h-2q-29 -51 -110 -51h-37q-72 0 -110 32q-43 37 -43 112v23q0 81 42 116q44 37 146 37h36q22 0 56 -2v27q0 37 -17 51q-18 14 -69 14 q-60 0 -123 -19q-20 -6 -25 16l-9 47q-6 24 15 30q74 24 151 24q97 0 144 -32q52 -36 52 -132v-316q0 -19 -21 -19h-46q-20 0 -24 18zM166 608l160 111q19 13 31 -5l35 -50q8 -12 6.5 -19t-14.5 -15l-162 -89q-22 -13 -36 7l-21 29q-14 21 1 31z" />
<glyph unicode="&#xe2;" horiz-adv-x="490" d="M316 153v61q-34 2 -58 2h-35q-39 0 -52 -12q-15 -12 -15 -49v-12q0 -31 15 -45q14 -12 44 -12h36q34 0 49.5 16t15.5 51zM338 42h-2q-29 -51 -110 -51h-37q-72 0 -110 32q-43 37 -43 112v23q0 81 42 116q44 37 146 37h36q22 0 56 -2v27q0 37 -17 51q-18 14 -69 14 q-60 0 -123 -19q-20 -6 -25 16l-9 47q-6 24 15 30q74 24 151 24q97 0 144 -32q52 -36 52 -132v-316q0 -19 -21 -19h-46q-20 0 -24 18zM308 708l92 -109q14 -15 -2 -29l-28 -21q-17 -14 -34 2l-81 78h-3l-78 -78q-16 -17 -34 -2l-28 21q-16 14 -2 29l91 109q9 11 25 11h57 q15 0 25 -11z" />
<glyph unicode="&#xe3;" horiz-adv-x="490" d="M316 153v61q-34 2 -58 2h-35q-39 0 -52 -12q-15 -12 -15 -49v-12q0 -31 15 -45q14 -12 44 -12h36q34 0 49.5 16t15.5 51zM338 42h-2q-29 -51 -110 -51h-37q-72 0 -110 32q-43 37 -43 112v23q0 81 42 116q44 37 146 37h36q22 0 56 -2v27q0 37 -17 51q-18 14 -69 14 q-60 0 -123 -19q-20 -6 -25 16l-9 47q-6 24 15 30q74 24 151 24q97 0 144 -32q52 -36 52 -132v-316q0 -19 -21 -19h-46q-20 0 -24 18zM125 563l-25 15q-14 9 -6 29q38 84 102 84q31 0 61 -19l27 -17q23 -14 35 -14q21 0 43 35q10 16 28 3l22 -15q16 -11 7 -29 q-44 -79 -106 -79q-30 0 -60 19l-27 18q-18 12 -30 12q-21 0 -43 -36q-10 -17 -28 -6z" />
<glyph unicode="&#xe4;" horiz-adv-x="490" d="M316 153v61q-34 2 -58 2h-35q-39 0 -52 -12q-15 -12 -15 -49v-12q0 -31 15 -45q14 -12 44 -12h36q34 0 49.5 16t15.5 51zM338 42h-2q-29 -51 -110 -51h-37q-72 0 -110 32q-43 37 -43 112v23q0 81 42 116q44 37 146 37h36q22 0 56 -2v27q0 37 -17 51q-18 14 -69 14 q-60 0 -123 -19q-20 -6 -25 16l-9 47q-6 24 15 30q74 24 151 24q97 0 144 -32q52 -36 52 -132v-316q0 -19 -21 -19h-46q-20 0 -24 18zM168 693h10q25 0 40 -13.5t15 -35.5v-24q0 -49 -55 -49h-10q-53 0 -53 49v24q0 22 14.5 35.5t38.5 13.5zM332 693h9q25 0 39.5 -13 t14.5 -36v-24q0 -49 -54 -49h-9q-53 0 -53 49v24q0 22 14.5 35.5t38.5 13.5z" />
<glyph unicode="&#xe5;" horiz-adv-x="490" d="M316 153v61q-34 2 -58 2h-35q-39 0 -52 -12q-15 -12 -15 -49v-12q0 -31 15 -45q14 -12 44 -12h36q34 0 49.5 16t15.5 51zM338 42h-2q-29 -51 -110 -51h-37q-72 0 -110 32q-43 37 -43 112v23q0 81 42 116q44 37 146 37h36q22 0 56 -2v27q0 37 -17 51q-18 14 -69 14 q-60 0 -123 -19q-20 -6 -25 16l-9 47q-6 24 15 30q74 24 151 24q97 0 144 -32q52 -36 52 -132v-316q0 -19 -21 -19h-46q-20 0 -24 18zM154 632q0 40 28 68.5t69 28.5t69 -28t28 -69t-28 -69t-69 -28t-69 28t-28 69zM219 632q0 -14 9 -23.5t23 -9.5t23.5 9.5t9.5 23.5 t-9.5 23t-23.5 9q-13 0 -22.5 -9t-9.5 -23z" />
<glyph unicode="&#xe6;" horiz-adv-x="753" d="M714 285v-68q0 -16 -6 -22.5t-21 -6.5h-250q1 -59 25 -80q22 -20 88 -20q59 0 108 21q21 9 28 -16l13 -48q3 -11 -0.5 -17t-17.5 -11q-68 -26 -145 -26q-115 0 -159 67q-40 -67 -151 -67h-37q-72 0 -110 32q-43 37 -43 112v23q0 81 42 116q44 37 146 37h36q22 0 56 -2v27 q0 37 -17 51q-18 14 -69 14q-60 0 -123 -19q-20 -6 -25 16l-9 47q-6 24 15 30q74 24 147 24q115 0 151 -52q44 52 136 52q91 0 141 -45q51 -46 51 -169zM316 153v61q-34 2 -58 2h-35q-39 0 -52 -12q-15 -12 -15 -49v-12q0 -31 15 -45q14 -12 44 -12h36q34 0 49.5 16t15.5 51 zM518 404q-38 0 -57 -20q-26 -27 -26 -102h147q13 0 13 14q0 67 -19 89q-18 19 -58 19z" />
<glyph unicode="&#xe7;" horiz-adv-x="445" d="M393 98l13 -46q4 -13 0 -20t-21 -15q-43 -22 -123 -25l-9 -50q15 3 31 3q34 0 57.5 -21.5t23.5 -62.5q0 -99 -118 -99q-47 0 -85 12q-15 5 -13 21l5 32q3 16 18 11q30 -10 63 -10q42 0 42 28q0 26 -33 26q-9 0 -35 -4q-14 -3 -22 8l-8 12q-5 9 -4 18l17 77v2 q-61 9 -96 41q-33 30 -44.5 77t-11.5 120v30q0 138 60 190q54 46 150 46q86 0 154 -41q21 -13 10 -35l-25 -50q-9 -19 -29 -7q-52 33 -105 33q-43 0 -67 -21q-13 -12 -19.5 -32t-7 -36t-0.5 -55v-16q0 -95 23 -123q25 -28 77 -28q54 0 101 21q25 12 31 -11z" />
<glyph unicode="&#xe8;" horiz-adv-x="475" d="M436 285v-68q0 -16 -6 -22.5t-21 -6.5h-250q1 -59 25 -80q22 -20 88 -20q59 0 108 21q21 9 28 -16l13 -48q3 -11 -0.5 -17t-17.5 -11q-68 -26 -145 -26q-118 0 -168 51q-52 53 -52 190v27q0 122 47 181t159 59q91 0 141 -45q51 -46 51 -169zM240 404q-38 0 -57 -20 q-26 -27 -26 -102h147q13 0 13 14q0 67 -19 89q-18 19 -58 19zM188 719l160 -111q15 -10 1 -31l-21 -29q-14 -20 -36 -7l-162 89q-13 8 -14.5 15t6.5 19l35 50q12 18 31 5z" />
<glyph unicode="&#xe9;" horiz-adv-x="475" d="M436 285v-68q0 -16 -6 -22.5t-21 -6.5h-250q1 -59 25 -80q22 -20 88 -20q59 0 108 21q21 9 28 -16l13 -48q3 -11 -0.5 -17t-17.5 -11q-68 -26 -145 -26q-118 0 -168 51q-52 53 -52 190v27q0 122 47 181t159 59q91 0 141 -45q51 -46 51 -169zM240 404q-38 0 -57 -20 q-26 -27 -26 -102h147q13 0 13 14q0 67 -19 89q-18 19 -58 19zM164 608l160 111q19 13 31 -5l35 -50q8 -12 6.5 -19t-14.5 -15l-162 -89q-22 -13 -36 7l-21 29q-14 21 1 31z" />
<glyph unicode="&#xea;" horiz-adv-x="475" d="M436 285v-68q0 -16 -6 -22.5t-21 -6.5h-250q1 -59 25 -80q22 -20 88 -20q59 0 108 21q21 9 28 -16l13 -48q3 -11 -0.5 -17t-17.5 -11q-68 -26 -145 -26q-118 0 -168 51q-52 53 -52 190v27q0 122 47 181t159 59q91 0 141 -45q51 -46 51 -169zM240 404q-38 0 -57 -20 q-26 -27 -26 -102h147q13 0 13 14q0 67 -19 89q-18 19 -58 19zM301 708l92 -109q14 -15 -2 -29l-28 -21q-17 -14 -34 2l-81 78h-3l-78 -78q-16 -17 -34 -2l-28 21q-16 14 -2 29l91 109q9 11 25 11h57q15 0 25 -11z" />
<glyph unicode="&#xeb;" horiz-adv-x="475" d="M436 285v-68q0 -16 -6 -22.5t-21 -6.5h-250q1 -59 25 -80q22 -20 88 -20q59 0 108 21q21 9 28 -16l13 -48q3 -11 -0.5 -17t-17.5 -11q-68 -26 -145 -26q-118 0 -168 51q-52 53 -52 190v27q0 122 47 181t159 59q91 0 141 -45q51 -46 51 -169zM240 404q-38 0 -57 -20 q-26 -27 -26 -102h147q13 0 13 14q0 67 -19 89q-18 19 -58 19zM159 693h10q25 0 40 -13.5t15 -35.5v-24q0 -49 -55 -49h-10q-53 0 -53 49v24q0 22 14.5 35.5t38.5 13.5zM323 693h9q25 0 39.5 -13t14.5 -36v-24q0 -49 -54 -49h-9q-53 0 -53 49v24q0 22 14.5 35.5t38.5 13.5z " />
<glyph unicode="&#xec;" horiz-adv-x="245" d="M182 465v-440q0 -15 -5.5 -20t-22.5 -5h-63q-17 0 -22.5 5t-5.5 20v440q0 15 5.5 20t22.5 5h63q17 0 22.5 -5t5.5 -20zM37 717l160 -111q15 -10 1 -31l-21 -29q-14 -20 -36 -7l-162 89q-13 8 -14.5 15t6.5 19l35 50q12 18 31 5z" />
<glyph unicode="&#xed;" horiz-adv-x="245" d="M182 465v-440q0 -15 -5.5 -20t-22.5 -5h-63q-17 0 -22.5 5t-5.5 20v440q0 15 5.5 20t22.5 5h63q17 0 22.5 -5t5.5 -20zM58 608l160 111q19 13 31 -5l35 -50q8 -12 6.5 -19t-14.5 -15l-162 -89q-22 -13 -36 7l-21 29q-14 21 1 31z" />
<glyph unicode="&#xee;" horiz-adv-x="245" d="M182 465v-440q0 -15 -5.5 -20t-22.5 -5h-63q-17 0 -22.5 5t-5.5 20v440q0 15 5.5 20t22.5 5h63q17 0 22.5 -5t5.5 -20zM176 708l92 -109q14 -15 -2 -29l-28 -21q-17 -14 -34 2l-81 78h-3l-78 -78q-16 -17 -34 -2l-28 21q-16 14 -2 29l91 109q9 11 25 11h57q15 0 25 -11z " />
<glyph unicode="&#xef;" horiz-adv-x="245" d="M182 465v-440q0 -15 -5.5 -20t-22.5 -5h-63q-17 0 -22.5 5t-5.5 20v440q0 15 5.5 20t22.5 5h63q17 0 22.5 -5t5.5 -20zM36 693h10q25 0 40 -13.5t15 -35.5v-24q0 -49 -55 -49h-10q-53 0 -53 49v24q0 22 14.5 35.5t38.5 13.5zM200 693h9q25 0 39.5 -13t14.5 -36v-24 q0 -49 -54 -49h-9q-53 0 -53 49v24q0 22 14.5 35.5t38.5 13.5z" />
<glyph unicode="&#xf0;" horiz-adv-x="523" d="M334 681l-29 -40q79 -54 120 -133.5t41 -212.5v-45q0 -93 -8 -136t-39 -74q-49 -49 -165 -49q-120 0 -166 49q-48 51 -48 158v61q0 109 51 159q47 45 138 45q63 0 100 -24l3 3q-8 39 -27 65t-56 55l-34 -47q-9 -13 -25 -2l-29 20q-15 10 -6 24l32 44q-22 12 -57 28 q-15 7 -5 21l31 51q7 10 22 4q37 -15 64 -28l32 45q10 15 29 3l24 -16q18 -12 7 -28zM256 367q-56 0 -78 -28q-19 -24 -19 -77v-59q0 -70 21 -94q21 -22 78 -22q46 0 69 24q18 20 18 74v71q0 59 -21.5 85t-67.5 26z" />
<glyph unicode="&#xf1;" horiz-adv-x="525" d="M470 298v-273q0 -15 -5.5 -20t-22.5 -5h-63q-17 0 -22.5 5t-5.5 20v279q0 57 -21 78t-66 21t-64 -18q-21 -19 -21 -69v-291q0 -15 -5.5 -20t-22.5 -5h-63q-17 0 -22.5 5t-5.5 20v442q0 23 24 23h37q13 0 18.5 -3.5t7.5 -14.5l5 -24h3q49 51 136 51q107 0 152 -67 q27 -42 27 -134zM140 563l-25 15q-14 9 -6 29q38 84 102 84q31 0 61 -19l27 -17q23 -14 35 -14q21 0 43 35q10 16 28 3l22 -15q16 -11 7 -29q-44 -79 -106 -79q-30 0 -60 19l-27 18q-18 12 -30 12q-21 0 -43 -36q-10 -17 -28 -6z" />
<glyph unicode="&#xf2;" horiz-adv-x="500" d="M250 86q45 0 67 27q22 28 22 122v21q0 93 -22 121q-21 27 -67 27t-67 -27q-22 -28 -22 -121v-21q0 -94 22 -122q22 -27 67 -27zM250 499q108 0 159 -59q51 -58 51 -180v-30q0 -122 -51 -180q-53 -59 -159 -59t-159 59q-51 58 -51 180v30q0 122 51 180q51 59 159 59z M197 719l160 -111q15 -10 1 -31l-21 -29q-14 -20 -36 -7l-162 89q-13 8 -14.5 15t6.5 19l35 50q12 18 31 5z" />
<glyph unicode="&#xf3;" horiz-adv-x="500" d="M250 86q45 0 67 27q22 28 22 122v21q0 93 -22 121q-21 27 -67 27t-67 -27q-22 -28 -22 -121v-21q0 -94 22 -122q22 -27 67 -27zM250 499q108 0 159 -59q51 -58 51 -180v-30q0 -122 -51 -180q-53 -59 -159 -59t-159 59q-51 58 -51 180v30q0 122 51 180q51 59 159 59z M175 608l160 111q19 13 31 -5l35 -50q8 -12 6.5 -19t-14.5 -15l-162 -89q-22 -13 -36 7l-21 29q-14 21 1 31z" />
<glyph unicode="&#xf4;" horiz-adv-x="500" d="M250 86q45 0 67 27q22 28 22 122v21q0 93 -22 121q-21 27 -67 27t-67 -27q-22 -28 -22 -121v-21q0 -94 22 -122q22 -27 67 -27zM250 499q108 0 159 -59q51 -58 51 -180v-30q0 -122 -51 -180q-53 -59 -159 -59t-159 59q-51 58 -51 180v30q0 122 51 180q51 59 159 59z M303 708l92 -109q14 -15 -2 -29l-28 -21q-17 -14 -34 2l-81 78h-3l-78 -78q-16 -17 -34 -2l-28 21q-16 14 -2 29l91 109q9 11 25 11h57q15 0 25 -11z" />
<glyph unicode="&#xf5;" horiz-adv-x="500" d="M250 86q45 0 67 27q22 28 22 122v21q0 93 -22 121q-21 27 -67 27t-67 -27q-22 -28 -22 -121v-21q0 -94 22 -122q22 -27 67 -27zM250 499q108 0 159 -59q51 -58 51 -180v-30q0 -122 -51 -180q-53 -59 -159 -59t-159 59q-51 58 -51 180v30q0 122 51 180q51 59 159 59z M120 563l-25 15q-14 9 -6 29q38 84 102 84q31 0 61 -19l27 -17q23 -14 35 -14q21 0 43 35q10 16 28 3l22 -15q16 -11 7 -29q-44 -79 -106 -79q-30 0 -60 19l-27 18q-18 12 -30 12q-21 0 -43 -36q-10 -17 -28 -6z" />
<glyph unicode="&#xf6;" horiz-adv-x="500" d="M250 86q45 0 67 27q22 28 22 122v21q0 93 -22 121q-21 27 -67 27t-67 -27q-22 -28 -22 -121v-21q0 -94 22 -122q22 -27 67 -27zM250 499q108 0 159 -59q51 -58 51 -180v-30q0 -122 -51 -180q-53 -59 -159 -59t-159 59q-51 58 -51 180v30q0 122 51 180q51 59 159 59z M164 693h10q25 0 40 -13.5t15 -35.5v-24q0 -49 -55 -49h-10q-53 0 -53 49v24q0 22 14.5 35.5t38.5 13.5zM328 693h9q25 0 39.5 -13t14.5 -36v-24q0 -49 -54 -49h-9q-53 0 -53 49v24q0 22 14.5 35.5t38.5 13.5z" />
<glyph unicode="&#xf7;" d="M472 204h-404q-24 0 -30 8t-6 29v36q0 13 1.5 20t10 12t24.5 5h404q23 0 29.5 -9t6.5 -28v-38q0 -16 -6.5 -24.5t-12.5 -9.5t-17 -1zM337 448v-16q0 -64 -63 -64h-11q-34 0 -49 15.5t-15 48.5v16q0 63 64 63h11q63 0 63 -63zM337 87v-16q0 -64 -63 -64h-11 q-34 0 -49 15.5t-15 48.5v16q0 63 64 63h11q63 0 63 -63z" />
<glyph unicode="&#xf8;" horiz-adv-x="500" d="M250 499q52 0 91 -14l30 54q12 23 39 8l14 -8q15 -8 17 -15.5t-6 -20.5l-32 -57l6 -6q51 -58 51 -180v-30q0 -122 -51 -180q-53 -59 -159 -59q-49 0 -90 13l-28 -50q-12 -23 -39 -8l-14 8q-15 8 -17 15.5t6 20.5l29 53l-6 7q-51 58 -51 180v30q0 122 51 180q51 59 159 59 zM161 235q0 -52 3 -71l129 233q-15 7 -43 7q-46 0 -67 -27q-22 -28 -22 -121v-21zM250 86q45 0 67 27q22 28 22 122v21q0 38 -3 67l-127 -230q14 -7 41 -7z" />
<glyph unicode="&#xf9;" horiz-adv-x="510" d="M455 465v-311q0 -94 -57 -131q-49 -32 -142 -32q-97 0 -144 32q-57 39 -57 131v311q0 15 5.5 20t22.5 5h63q17 0 22.5 -5t5.5 -20v-299q0 -46 22 -62q18 -13 60 -13q43 0 60 13q20 16 20 62v299q0 15 5.5 20t22.5 5h63q17 0 22.5 -5t5.5 -20zM188 719l160 -111 q15 -10 1 -31l-21 -29q-14 -20 -36 -7l-162 89q-13 8 -14.5 15t6.5 19l35 50q12 18 31 5z" />
<glyph unicode="&#xfa;" horiz-adv-x="510" d="M455 465v-311q0 -94 -57 -131q-49 -32 -142 -32q-97 0 -144 32q-57 39 -57 131v311q0 15 5.5 20t22.5 5h63q17 0 22.5 -5t5.5 -20v-299q0 -46 22 -62q18 -13 60 -13q43 0 60 13q20 16 20 62v299q0 15 5.5 20t22.5 5h63q17 0 22.5 -5t5.5 -20zM172 608l160 111 q19 13 31 -5l35 -50q8 -12 6.5 -19t-14.5 -15l-162 -89q-22 -13 -36 7l-21 29q-14 21 1 31z" />
<glyph unicode="&#xfb;" horiz-adv-x="510" d="M455 465v-311q0 -94 -57 -131q-49 -32 -142 -32q-97 0 -144 32q-57 39 -57 131v311q0 15 5.5 20t22.5 5h63q17 0 22.5 -5t5.5 -20v-299q0 -46 22 -62q18 -13 60 -13q43 0 60 13q20 16 20 62v299q0 15 5.5 20t22.5 5h63q17 0 22.5 -5t5.5 -20zM309 708l92 -109 q14 -15 -2 -29l-28 -21q-17 -14 -34 2l-81 78h-3l-78 -78q-16 -17 -34 -2l-28 21q-16 14 -2 29l91 109q9 11 25 11h57q15 0 25 -11z" />
<glyph unicode="&#xfc;" horiz-adv-x="510" d="M455 465v-311q0 -94 -57 -131q-49 -32 -142 -32q-97 0 -144 32q-57 39 -57 131v311q0 15 5.5 20t22.5 5h63q17 0 22.5 -5t5.5 -20v-299q0 -46 22 -62q18 -13 60 -13q43 0 60 13q20 16 20 62v299q0 15 5.5 20t22.5 5h63q17 0 22.5 -5t5.5 -20zM171 693h10q25 0 40 -13.5 t15 -35.5v-24q0 -49 -55 -49h-10q-53 0 -53 49v24q0 22 14.5 35.5t38.5 13.5zM335 693h9q25 0 39.5 -13t14.5 -36v-24q0 -49 -54 -49h-9q-53 0 -53 49v24q0 22 14.5 35.5t38.5 13.5z" />
<glyph unicode="&#xfd;" horiz-adv-x="458" d="M131 -135q48 101 61 133q-43 13 -61 67q-63 180 -120 402q-5 23 23 23h68q24 0 28 -21q46 -198 99 -366h4q63 182 96 366q4 21 28 21h67q28 0 23 -23q-70 -327 -213 -636q-8 -18 -20 -18q-11 0 -23 5l-49 20q-20 10 -11 27zM158 608l160 111q19 13 31 -5l35 -50 q8 -12 6.5 -19t-14.5 -15l-162 -89q-22 -13 -36 7l-21 29q-14 21 1 31z" />
<glyph unicode="&#xfe;" horiz-adv-x="544" d="M178 306v-131q0 -48 21 -67q22 -20 69 -20q49 0 72 28q24 29 24 114v29q0 88 -24 117q-22 26 -72 26t-71 -22q-19 -20 -19 -74zM178 661v-197q42 35 114 35q100 0 147 -54q46 -53 46 -177v-38q0 -128 -51 -185q-48 -54 -155 -54q-60 0 -101 27v-170q0 -15 -5.5 -20 t-22.5 -5h-63q-17 0 -22.5 5t-5.5 20v806q0 23 24 23h69q22 0 26 -16z" />
<glyph unicode="&#xff;" horiz-adv-x="458" d="M131 -135q48 101 61 133q-43 13 -61 67q-63 180 -120 402q-5 23 23 23h68q24 0 28 -21q46 -198 99 -366h4q63 182 96 366q4 21 28 21h67q28 0 23 -23q-70 -327 -213 -636q-8 -18 -20 -18q-11 0 -23 5l-49 20q-20 10 -11 27zM147 693h10q25 0 40 -13.5t15 -35.5v-24 q0 -49 -55 -49h-10q-53 0 -53 49v24q0 22 14.5 35.5t38.5 13.5zM311 693h9q25 0 39.5 -13t14.5 -36v-24q0 -49 -54 -49h-9q-53 0 -53 49v24q0 22 14.5 35.5t38.5 13.5z" />
<glyph unicode="&#x100;" horiz-adv-x="569" d="M291 519h-12q-31 -103 -77 -265h166q-46 162 -77 265zM173 149l-33 -123q-4 -16 -13.5 -21t-29.5 -5h-53q-13 0 -18.5 0.5t-13 3t-6.5 7.5t1 15q76 277 187 585q8 23 21 29.5t45 6.5h49q32 0 46 -7t22 -29q96 -264 185 -585q5 -18 -3 -22t-33 -4h-53q-20 0 -29.5 5 t-13.5 21l-33 123h-224zM176 814h216q24 0 24 -24v-37q0 -22 -24 -22h-216q-24 0 -24 24v35q0 24 24 24z" />
<glyph unicode="&#x101;" horiz-adv-x="490" d="M316 153v61q-34 2 -58 2h-35q-39 0 -52 -12q-15 -12 -15 -49v-12q0 -31 15 -45q14 -12 44 -12h36q34 0 49.5 16t15.5 51zM338 42h-2q-29 -51 -110 -51h-37q-72 0 -110 32q-43 37 -43 112v23q0 81 42 116q44 37 146 37h36q22 0 56 -2v27q0 37 -17 51q-18 14 -69 14 q-60 0 -123 -19q-20 -6 -25 16l-9 47q-6 24 15 30q74 24 151 24q97 0 144 -32q52 -36 52 -132v-316q0 -19 -21 -19h-46q-20 0 -24 18zM137 662h216q24 0 24 -24v-37q0 -22 -24 -22h-216q-24 0 -24 24v35q0 24 24 24z" />
<glyph unicode="&#x102;" horiz-adv-x="569" d="M291 519h-12q-31 -103 -77 -265h166q-46 162 -77 265zM173 149l-33 -123q-4 -16 -13.5 -21t-29.5 -5h-53q-13 0 -18.5 0.5t-13 3t-6.5 7.5t1 15q76 277 187 585q8 23 21 29.5t45 6.5h49q32 0 46 -7t22 -29q96 -264 185 -585q5 -18 -3 -22t-33 -4h-53q-20 0 -29.5 5 t-13.5 21l-33 123h-224zM284 706q-57 0 -97 30t-56 84q-4 11 -1.5 16.5t15.5 9.5l35 12q9 4 16 2t12 -14q27 -60 76 -60t76 60q5 12 12 14t16 -2l35 -12q13 -4 15.5 -9.5t-1.5 -16.5q-16 -54 -56 -84t-97 -30z" />
<glyph unicode="&#x103;" horiz-adv-x="490" d="M316 153v61q-34 2 -58 2h-35q-39 0 -52 -12q-15 -12 -15 -49v-12q0 -31 15 -45q14 -12 44 -12h36q34 0 49.5 16t15.5 51zM338 42h-2q-29 -51 -110 -51h-37q-72 0 -110 32q-43 37 -43 112v23q0 81 42 116q44 37 146 37h36q22 0 56 -2v27q0 37 -17 51q-18 14 -69 14 q-60 0 -123 -19q-20 -6 -25 16l-9 47q-6 24 15 30q74 24 151 24q97 0 144 -32q52 -36 52 -132v-316q0 -19 -21 -19h-46q-20 0 -24 18zM255 551q-57 0 -97 30t-56 84q-4 11 -1.5 16.5t15.5 9.5l35 12q9 4 16 2t12 -14q27 -60 76 -60t76 60q5 12 12 14t16 -2l35 -12 q13 -4 15.5 -9.5t-1.5 -16.5q-16 -54 -56 -84t-97 -30z" />
<glyph unicode="&#x104;" horiz-adv-x="569" d="M437 0l-40 149h-224l-33 -123q-4 -16 -13.5 -21t-29.5 -5h-53q-13 0 -18.5 0.5t-13 3t-6.5 7.5t1 15q76 277 187 585q8 23 21 29.5t45 6.5h49q32 0 46 -7t22 -29q96 -264 185 -585q5 -13 3.5 -18t-14.5 -11q-106 -48 -106 -103q0 -29 32 -29q25 0 47 9q17 7 20 -6l9 -34 q3 -14 -14 -21q-33 -14 -75 -14q-105 0 -105 83q0 71 78 118zM291 519h-12q-31 -103 -77 -265h166q-46 162 -77 265z" />
<glyph unicode="&#x105;" horiz-adv-x="490" d="M338 42h-2q-29 -51 -110 -51h-37q-72 0 -110 32q-43 37 -43 112v23q0 81 42 116q44 37 146 37h36q22 0 56 -2v27q0 37 -17 51q-18 14 -69 14q-60 0 -123 -19q-20 -6 -25 16l-9 47q-6 24 15 30q74 24 151 24q97 0 144 -32q52 -36 52 -132v-319q0 -11 -9 -16 q-81 -46 -81 -101q0 -19 8.5 -26.5t28.5 -7.5t42 9q17 7 20 -6l9 -34q3 -14 -14 -21q-33 -14 -75 -14q-105 0 -105 83q0 75 88 127zM316 153v61q-34 2 -58 2h-35q-39 0 -52 -12q-15 -12 -15 -49v-12q0 -31 15 -45q14 -12 44 -12h36q34 0 49.5 16t15.5 51z" />
<glyph unicode="&#x106;" horiz-adv-x="533" d="M310 656q103 0 179 -45q15 -8 7 -29l-24 -60q-8 -20 -32 -6q-66 36 -130 36t-95 -31q-22 -22 -30 -65.5t-8 -122.5v-18q0 -142 34 -183q31 -37 112 -37q66 0 128 27q24 10 30 -16l12 -48q3 -15 -0.5 -22.5t-20.5 -13.5q-78 -31 -164 -31q-136 0 -194 58q-36 36 -51 95.5 t-15 158.5v40q0 107 19 167t68 99q60 47 175 47zM220 772l171 93q20 11 31 -8l29 -53q7 -13 4.5 -20t-16.5 -13l-170 -71q-23 -9 -35 11l-18 31q-12 20 4 30z" />
<glyph unicode="&#x107;" horiz-adv-x="445" d="M393 98l13 -46q4 -13 0 -20t-21 -15q-52 -26 -145 -26q-94 0 -144 45q-33 30 -44.5 77t-11.5 120v30q0 138 60 190q54 46 150 46q86 0 154 -41q21 -13 10 -35l-25 -50q-9 -19 -29 -7q-52 33 -105 33q-43 0 -67 -21q-13 -12 -19.5 -32t-7 -36t-0.5 -55v-16q0 -95 23 -123 q25 -28 77 -28q54 0 101 21q25 12 31 -11zM163 608l160 111q19 13 31 -5l35 -50q8 -12 6.5 -19t-14.5 -15l-162 -89q-22 -13 -36 7l-21 29q-14 21 1 31z" />
<glyph unicode="&#x108;" horiz-adv-x="533" d="M310 656q103 0 179 -45q15 -8 7 -29l-24 -60q-8 -20 -32 -6q-66 36 -130 36t-95 -31q-22 -22 -30 -65.5t-8 -122.5v-18q0 -142 34 -183q31 -37 112 -37q66 0 128 27q24 10 30 -16l12 -48q3 -15 -0.5 -22.5t-20.5 -13.5q-78 -31 -164 -31q-136 0 -194 58q-36 36 -51 95.5 t-15 158.5v40q0 107 19 167t68 99q60 47 175 47zM350 870l92 -109q14 -15 -2 -29l-28 -21q-17 -14 -34 2l-81 78h-3l-78 -78q-16 -17 -34 -2l-28 21q-16 14 -2 29l91 109q9 11 25 11h57q15 0 25 -11z" />
<glyph unicode="&#x109;" horiz-adv-x="445" d="M393 98l13 -46q4 -13 0 -20t-21 -15q-52 -26 -145 -26q-94 0 -144 45q-33 30 -44.5 77t-11.5 120v30q0 138 60 190q54 46 150 46q86 0 154 -41q21 -13 10 -35l-25 -50q-9 -19 -29 -7q-52 33 -105 33q-43 0 -67 -21q-13 -12 -19.5 -32t-7 -36t-0.5 -55v-16q0 -95 23 -123 q25 -28 77 -28q54 0 101 21q25 12 31 -11zM301 708l92 -109q14 -15 -2 -29l-28 -21q-17 -14 -34 2l-81 78h-3l-78 -78q-16 -17 -34 -2l-28 21q-16 14 -2 29l91 109q9 11 25 11h57q15 0 25 -11z" />
<glyph unicode="&#x10a;" horiz-adv-x="533" d="M310 656q103 0 179 -45q15 -8 7 -29l-24 -60q-8 -20 -32 -6q-66 36 -130 36t-95 -31q-22 -22 -30 -65.5t-8 -122.5v-18q0 -142 34 -183q31 -37 112 -37q66 0 128 27q24 10 30 -16l12 -48q3 -15 -0.5 -22.5t-20.5 -13.5q-78 -31 -164 -31q-136 0 -194 58q-36 36 -51 95.5 t-15 158.5v40q0 107 19 167t68 99q60 47 175 47zM235 794q0 27 19.5 47t47.5 20t47.5 -20t19.5 -47q0 -28 -19.5 -48t-47.5 -20t-47.5 20t-19.5 48z" />
<glyph unicode="&#x10b;" horiz-adv-x="445" d="M393 98l13 -46q4 -13 0 -20t-21 -15q-52 -26 -145 -26q-94 0 -144 45q-33 30 -44.5 77t-11.5 120v30q0 138 60 190q54 46 150 46q86 0 154 -41q21 -13 10 -35l-25 -50q-9 -19 -29 -7q-52 33 -105 33q-43 0 -67 -21q-13 -12 -19.5 -32t-7 -36t-0.5 -55v-16q0 -95 23 -123 q25 -28 77 -28q54 0 101 21q25 12 31 -11zM178 622q0 27 19.5 47t47.5 20t47.5 -20t19.5 -47q0 -28 -19.5 -48t-47.5 -20t-47.5 20t-19.5 48z" />
<glyph unicode="&#x10c;" horiz-adv-x="533" d="M310 656q103 0 179 -45q15 -8 7 -29l-24 -60q-8 -20 -32 -6q-66 36 -130 36t-95 -31q-22 -22 -30 -65.5t-8 -122.5v-18q0 -142 34 -183q31 -37 112 -37q66 0 128 27q24 10 30 -16l12 -48q3 -15 -0.5 -22.5t-20.5 -13.5q-78 -31 -164 -31q-136 0 -194 58q-36 36 -51 95.5 t-15 158.5v40q0 107 19 167t68 99q60 47 175 47zM450 831l-92 -109q-10 -11 -25 -11h-57q-16 0 -25 11l-91 109q-14 15 2 29l28 21q18 15 34 -2l78 -78h3l81 78q17 16 34 2l28 -21q16 -14 2 -29z" />
<glyph unicode="&#x10d;" horiz-adv-x="445" d="M393 98l13 -46q4 -13 0 -20t-21 -15q-52 -26 -145 -26q-94 0 -144 45q-33 30 -44.5 77t-11.5 120v30q0 138 60 190q54 46 150 46q86 0 154 -41q21 -13 10 -35l-25 -50q-9 -19 -29 -7q-52 33 -105 33q-43 0 -67 -21q-13 -12 -19.5 -32t-7 -36t-0.5 -55v-16q0 -95 23 -123 q25 -28 77 -28q54 0 101 21q25 12 31 -11zM387 666l-92 -109q-10 -11 -25 -11h-57q-16 0 -25 11l-91 109q-14 15 2 29l28 21q18 15 34 -2l78 -78h3l81 78q17 16 34 2l28 -21q16 -14 2 -29z" />
<glyph unicode="&#x10e;" horiz-adv-x="617" d="M246 550q-25 0 -35 -1q-17 -1 -17 -18v-407q0 -23 24 -23h31q105 0 148 46t43 157v44q0 115 -40.5 158.5t-153.5 43.5zM217 0q-100 0 -114 1q-20 2 -27.5 10.5t-7.5 30.5v562q0 22 7.5 31t27.5 11q60 6 140 6q167 0 244 -67q82 -72 82 -233v-57q0 -161 -88 -230 q-46 -36 -105 -50.5t-159 -14.5zM450 831l-92 -109q-10 -11 -25 -11h-57q-16 0 -25 11l-91 109q-14 15 2 29l28 21q18 15 34 -2l78 -78h3l81 78q17 16 34 2l28 -21q16 -14 2 -29z" />
<glyph unicode="&#x10f;" horiz-adv-x="523" d="M345 183v131q0 50 -20 68q-23 21 -67 21q-48 0 -72 -29q-25 -30 -25 -113v-31q0 -88 24 -117q22 -26 69 -26q51 0 72 22q19 20 19 74zM464 652v-475q0 -98 -45 -139q-53 -47 -165 -47q-107 0 -155 42q-59 52 -59 190v41q0 127 57 184q51 51 151 51q57 0 95 -25h2v178 q0 15 5.5 20t22.5 5h63q17 0 22.5 -5t5.5 -20zM568 725h21q47 0 47 -50v-18q0 -78 -70 -146q-14 -15 -28 -1l-19 18q-11 11 -2 22q30 35 38 53q3 7 -3 10q-17 9 -23.5 18.5t-6.5 29.5v20q0 21 12.5 32.5t33.5 11.5z" />
<glyph unicode="&#x110;" horiz-adv-x="617" d="M217 0q-100 0 -114 1q-20 2 -27.5 10.5t-7.5 30.5v235h-42q-19 0 -24 6t-5 31v34q0 25 5 31t24 6h42v219q0 22 7.5 31t27.5 11q60 6 140 6q167 0 244 -67q82 -72 82 -233v-57q0 -161 -88 -230q-46 -36 -105 -50.5t-159 -14.5zM246 550q-25 0 -35 -1q-17 -1 -17 -18v-146 h71q19 0 24 -6t5 -31v-36q0 -23 -5 -29t-24 -6h-71v-153q0 -23 24 -23h31q105 0 148 46t43 157v44q0 115 -40.5 158.5t-153.5 43.5z" />
<glyph unicode="&#x111;" horiz-adv-x="523" d="M464 652v-30h29q24 0 24 -24v-37q0 -22 -24 -22h-29v-362q0 -98 -45 -139q-53 -47 -165 -47q-107 0 -155 42q-59 52 -59 190v41q0 127 57 184q51 51 151 51q57 0 95 -25h2v65h-65q-24 0 -24 24v35q0 24 24 24h65v30q0 15 5.5 20t22.5 5h63q17 0 22.5 -5t5.5 -20zM345 183 v131q0 50 -20 68q-23 21 -67 21q-50 0 -74 -29q-25 -30 -25 -113v-31q0 -88 24 -117q22 -26 71 -26q51 0 72 22q19 20 19 74z" />
<glyph unicode="&#x112;" horiz-adv-x="498" d="M400 282h-224q0 -80 7 -151q1 -17 8.5 -22.5t23.5 -5.5h217q17 0 21.5 -4.5t4.5 -19.5v-55q0 -14 -4.5 -19t-21.5 -5h-229q-78 0 -107 24q-26 21 -35 92q-9 80 -9 187v41q0 108 9 187q7 68 39 94q28 22 103 22h230q17 0 21 -4.5t4 -19.5v-55q0 -14 -4.5 -19t-20.5 -5 h-218q-30 0 -33 -30q-6 -70 -6 -129h224q17 0 21 -4.5t4 -19.5v-55q0 -14 -4.5 -19t-20.5 -5zM174 814h216q24 0 24 -24v-37q0 -22 -24 -22h-216q-24 0 -24 24v35q0 24 24 24z" />
<glyph unicode="&#x113;" horiz-adv-x="475" d="M436 285v-68q0 -16 -6 -22.5t-21 -6.5h-250q1 -59 25 -80q22 -20 88 -20q59 0 108 21q21 9 28 -16l13 -48q3 -11 -0.5 -17t-17.5 -11q-68 -26 -145 -26q-118 0 -168 51q-52 53 -52 190v27q0 122 47 181t159 59q91 0 141 -45q51 -46 51 -169zM240 404q-38 0 -57 -20 q-26 -27 -26 -102h147q13 0 13 14q0 67 -19 89q-18 19 -58 19zM135 662h216q24 0 24 -24v-37q0 -22 -24 -22h-216q-24 0 -24 24v35q0 24 24 24z" />
<glyph unicode="&#x114;" horiz-adv-x="498" d="M400 282h-224q0 -80 7 -151q1 -17 8.5 -22.5t23.5 -5.5h217q17 0 21.5 -4.5t4.5 -19.5v-55q0 -14 -4.5 -19t-21.5 -5h-229q-78 0 -107 24q-26 21 -35 92q-9 80 -9 187v41q0 108 9 187q7 68 39 94q28 22 103 22h230q17 0 21 -4.5t4 -19.5v-55q0 -14 -4.5 -19t-20.5 -5 h-218q-30 0 -33 -30q-6 -70 -6 -129h224q17 0 21 -4.5t4 -19.5v-55q0 -14 -4.5 -19t-20.5 -5zM286 706q-57 0 -97 30t-56 84q-4 11 -1.5 16.5t15.5 9.5l35 12q9 4 16 2t12 -14q27 -60 76 -60t76 60q5 12 12 14t16 -2l35 -12q13 -4 15.5 -9.5t-1.5 -16.5q-16 -54 -56 -84 t-97 -30z" />
<glyph unicode="&#x115;" horiz-adv-x="475" d="M436 285v-68q0 -16 -6 -22.5t-21 -6.5h-250q1 -59 25 -80q22 -20 88 -20q59 0 108 21q21 9 28 -16l13 -48q3 -11 -0.5 -17t-17.5 -11q-68 -26 -145 -26q-118 0 -168 51q-52 53 -52 190v27q0 122 47 181t159 59q91 0 141 -45q51 -46 51 -169zM240 404q-38 0 -57 -20 q-26 -27 -26 -102h147q13 0 13 14q0 67 -19 89q-18 19 -58 19zM243 551q-57 0 -97 30t-56 84q-4 11 -1.5 16.5t15.5 9.5l35 12q9 4 16 2t12 -14q27 -60 76 -60t76 60q5 12 12 14t16 -2l35 -12q13 -4 15.5 -9.5t-1.5 -16.5q-16 -54 -56 -84t-97 -30z" />
<glyph unicode="&#x116;" horiz-adv-x="498" d="M400 282h-224q0 -80 7 -151q1 -17 8.5 -22.5t23.5 -5.5h217q17 0 21.5 -4.5t4.5 -19.5v-55q0 -14 -4.5 -19t-21.5 -5h-229q-78 0 -107 24q-26 21 -35 92q-9 80 -9 187v41q0 108 9 187q7 68 39 94q28 22 103 22h230q17 0 21 -4.5t4 -19.5v-55q0 -14 -4.5 -19t-20.5 -5 h-218q-30 0 -33 -30q-6 -70 -6 -129h224q17 0 21 -4.5t4 -19.5v-55q0 -14 -4.5 -19t-20.5 -5zM211 794q0 27 19.5 47t47.5 20t47.5 -20t19.5 -47q0 -28 -19.5 -48t-47.5 -20t-47.5 20t-19.5 48z" />
<glyph unicode="&#x117;" horiz-adv-x="475" d="M436 285v-68q0 -16 -6 -22.5t-21 -6.5h-250q1 -59 25 -80q22 -20 88 -20q59 0 108 21q21 9 28 -16l13 -48q3 -11 -0.5 -17t-17.5 -11q-68 -26 -145 -26q-118 0 -168 51q-52 53 -52 190v27q0 122 47 181t159 59q91 0 141 -45q51 -46 51 -169zM240 404q-38 0 -57 -20 q-26 -27 -26 -102h147q13 0 13 14q0 67 -19 89q-18 19 -58 19zM177 622q0 27 19.5 47t47.5 20t47.5 -20t19.5 -47q0 -28 -19.5 -48t-47.5 -20t-47.5 20t-19.5 48z" />
<glyph unicode="&#x118;" horiz-adv-x="498" d="M367 0h-164q-78 0 -107 24q-26 21 -35 92q-9 80 -9 187v41q0 108 9 187q7 68 39 94q28 22 103 22h230q17 0 21 -4.5t4 -19.5v-55q0 -14 -4.5 -19t-20.5 -5h-218q-30 0 -33 -30q-6 -70 -6 -129h224q17 0 21 -4.5t4 -19.5v-55q0 -14 -4.5 -19t-20.5 -5h-224q0 -80 7 -151 q1 -17 8.5 -22.5t23.5 -5.5h217q17 0 21.5 -4.5t4.5 -19.5v-49q0 -21 -19 -35q-31 -22 -48 -49.5t-17 -51.5q0 -29 32 -29q25 0 47 9q17 7 20 -6l9 -34q3 -14 -14 -21q-33 -14 -75 -14q-105 0 -105 83q0 33 22 65t57 53z" />
<glyph unicode="&#x119;" horiz-adv-x="475" d="M436 285v-68q0 -16 -6 -22.5t-21 -6.5h-250q1 -59 25 -80q22 -20 88 -20q59 0 108 21q21 9 28 -16l11 -40q7 -23 -12 -34q-44 -26 -69 -58.5t-25 -59.5q0 -36 32 -36q25 0 47 9q17 7 20 -6l9 -34q3 -14 -14 -21q-33 -14 -75 -14q-105 0 -105 83q0 65 71 111 q-28 -2 -40 -2q-118 0 -168 51q-52 53 -52 190v27q0 122 47 181t159 59q91 0 141 -45q51 -46 51 -169zM240 404q-38 0 -57 -20q-26 -27 -26 -102h147q13 0 13 14q0 67 -19 89q-18 19 -58 19z" />
<glyph unicode="&#x11a;" horiz-adv-x="498" d="M400 282h-224q0 -80 7 -151q1 -17 8.5 -22.5t23.5 -5.5h217q17 0 21.5 -4.5t4.5 -19.5v-55q0 -14 -4.5 -19t-21.5 -5h-229q-78 0 -107 24q-26 21 -35 92q-9 80 -9 187v41q0 108 9 187q7 68 39 94q28 22 103 22h230q17 0 21 -4.5t4 -19.5v-55q0 -14 -4.5 -19t-20.5 -5 h-218q-30 0 -33 -30q-6 -70 -6 -129h224q17 0 21 -4.5t4 -19.5v-55q0 -14 -4.5 -19t-20.5 -5zM431 831l-92 -109q-10 -11 -25 -11h-57q-16 0 -25 11l-91 109q-14 15 2 29l28 21q18 15 34 -2l78 -78h3l81 78q17 16 34 2l28 -21q16 -14 2 -29z" />
<glyph unicode="&#x11b;" horiz-adv-x="475" d="M436 285v-68q0 -16 -6 -22.5t-21 -6.5h-250q1 -59 25 -80q22 -20 88 -20q59 0 108 21q21 9 28 -16l13 -48q3 -11 -0.5 -17t-17.5 -11q-68 -26 -145 -26q-118 0 -168 51q-52 53 -52 190v27q0 122 47 181t159 59q91 0 141 -45q51 -46 51 -169zM240 404q-38 0 -57 -20 q-26 -27 -26 -102h147q13 0 13 14q0 67 -19 89q-18 19 -58 19zM393 666l-92 -109q-10 -11 -25 -11h-57q-16 0 -25 11l-91 109q-14 15 2 29l28 21q18 15 34 -2l78 -78h3l81 78q17 16 34 2l28 -21q16 -14 2 -29z" />
<glyph unicode="&#x11c;" horiz-adv-x="593" d="M515 617q17 -9 10 -31l-19 -57q-6 -22 -30 -11q-70 34 -144 34q-81 0 -114 -37q-41 -45 -41 -180v-22q0 -75 7 -114t25 -63q30 -41 115 -41q49 0 77 4q16 3 16 19v145h-74q-16 0 -21.5 5t-5.5 18v56q0 14 5.5 19.5t21.5 5.5h176q24 0 24 -25v-290q0 -18 -5 -26t-21 -12 q-86 -23 -187 -23q-82 0 -131.5 14.5t-82.5 47.5q-68 67 -68 252v39q0 179 78 251q67 61 213 61q46 0 96 -11.5t80 -27.5zM374 870l92 -109q14 -15 -2 -29l-28 -21q-17 -14 -34 2l-81 78h-3l-78 -78q-16 -17 -34 -2l-28 21q-16 14 -2 29l91 109q9 11 25 11h57q15 0 25 -11z " />
<glyph unicode="&#x11d;" horiz-adv-x="508" d="M252 499h13q33 90 141 90h35q11 0 15.5 -4.5t4.5 -17.5v-41q0 -13 -4 -17t-16 -4h-41q-37 0 -48 -15q62 -18 86 -66t24 -130v-31q0 -106 -60 -155q81 -51 81 -132v-9q0 -69 -46 -109q-53 -45 -175 -45q-91 0 -191 37q-24 9 -17 32l14 45q7 23 28 14q82 -35 159 -35 q64 0 90 23q18 17 18 51v7q0 51 -46 78q-30 -6 -65 -6q-96 0 -149 41q-61 47 -61 163v31q0 117 63 166q50 39 147 39zM163 289v-18q0 -70 22 -97q17 -21 67 -21t68 21q21 26 21 97v18q0 76 -21 96q-22 20 -68 20q-50 0 -67 -20q-22 -24 -22 -96zM315 796l92 -109 q14 -15 -2 -29l-28 -21q-17 -14 -34 2l-81 78h-3l-78 -78q-16 -17 -34 -2l-28 21q-16 14 -2 29l91 109q9 11 25 11h57q15 0 25 -11z" />
<glyph unicode="&#x11e;" horiz-adv-x="593" d="M515 617q17 -9 10 -31l-19 -57q-6 -22 -30 -11q-70 34 -144 34q-81 0 -114 -37q-41 -45 -41 -180v-22q0 -75 7 -114t25 -63q30 -41 115 -41q49 0 77 4q16 3 16 19v145h-74q-16 0 -21.5 5t-5.5 18v56q0 14 5.5 19.5t21.5 5.5h176q24 0 24 -25v-290q0 -18 -5 -26t-21 -12 q-86 -23 -187 -23q-82 0 -131.5 14.5t-82.5 47.5q-68 67 -68 252v39q0 179 78 251q67 61 213 61q46 0 96 -11.5t80 -27.5zM327 706q-57 0 -97 30t-56 84q-4 11 -1.5 16.5t15.5 9.5l35 12q9 4 16 2t12 -14q27 -60 76 -60t76 60q5 12 12 14t16 -2l35 -12q13 -4 15.5 -9.5 t-1.5 -16.5q-16 -54 -56 -84t-97 -30z" />
<glyph unicode="&#x11f;" horiz-adv-x="508" d="M252 499h13q33 90 141 90h35q11 0 15.5 -4.5t4.5 -17.5v-41q0 -13 -4 -17t-16 -4h-41q-37 0 -48 -15q62 -18 86 -66t24 -130v-31q0 -106 -60 -155q81 -51 81 -132v-9q0 -69 -46 -109q-53 -45 -175 -45q-91 0 -191 37q-24 9 -17 32l14 45q7 23 28 14q82 -35 159 -35 q64 0 90 23q18 17 18 51v7q0 51 -46 78q-30 -6 -65 -6q-96 0 -149 41q-61 47 -61 163v31q0 117 63 166q50 39 147 39zM163 289v-18q0 -70 22 -97q17 -21 67 -21t68 21q21 26 21 97v18q0 76 -21 96q-22 20 -68 20q-50 0 -67 -20q-22 -24 -22 -96zM261 636q-57 0 -97 30 t-56 84q-4 11 -1.5 16.5t15.5 9.5l35 12q9 4 16 2t12 -14q27 -60 76 -60t76 60q5 12 12 14t16 -2l35 -12q13 -4 15.5 -9.5t-1.5 -16.5q-16 -54 -56 -84t-97 -30z" />
<glyph unicode="&#x120;" horiz-adv-x="593" d="M515 617q17 -9 10 -31l-19 -57q-6 -22 -30 -11q-70 34 -144 34q-81 0 -114 -37q-41 -45 -41 -180v-22q0 -75 7 -114t25 -63q30 -41 115 -41q49 0 77 4q16 3 16 19v145h-74q-16 0 -21.5 5t-5.5 18v56q0 14 5.5 19.5t21.5 5.5h176q24 0 24 -25v-290q0 -18 -5 -26t-21 -12 q-86 -23 -187 -23q-82 0 -131.5 14.5t-82.5 47.5q-68 67 -68 252v39q0 179 78 251q67 61 213 61q46 0 96 -11.5t80 -27.5zM256 794q0 27 19.5 47t47.5 20t47.5 -20t19.5 -47q0 -28 -19.5 -48t-47.5 -20t-47.5 20t-19.5 48z" />
<glyph unicode="&#x121;" horiz-adv-x="508" d="M252 499h13q33 90 141 90h35q11 0 15.5 -4.5t4.5 -17.5v-41q0 -13 -4 -17t-16 -4h-41q-37 0 -48 -15q62 -18 86 -66t24 -130v-31q0 -106 -60 -155q81 -51 81 -132v-9q0 -69 -46 -109q-53 -45 -175 -45q-91 0 -191 37q-24 9 -17 32l14 45q7 23 28 14q82 -35 159 -35 q64 0 90 23q18 17 18 51v7q0 51 -46 78q-30 -6 -65 -6q-96 0 -149 41q-61 47 -61 163v31q0 117 63 166q50 39 147 39zM163 289v-18q0 -70 22 -97q17 -21 67 -21t68 21q21 26 21 97v18q0 76 -21 96q-22 20 -68 20q-50 0 -67 -20q-22 -24 -22 -96zM190 694q0 27 19.5 47 t47.5 20t47.5 -20t19.5 -47q0 -28 -19.5 -48t-47.5 -20t-47.5 20t-19.5 48z" />
<glyph unicode="&#x122;" horiz-adv-x="593" d="M515 617q17 -9 10 -31l-19 -57q-6 -22 -30 -11q-70 34 -144 34q-81 0 -114 -37q-41 -45 -41 -180v-22q0 -75 7 -114t25 -63q30 -41 115 -41q49 0 77 4q16 3 16 19v145h-74q-16 0 -21.5 5t-5.5 18v56q0 14 5.5 19.5t21.5 5.5h176q24 0 24 -25v-290q0 -18 -5 -26t-21 -12 q-86 -23 -187 -23q-82 0 -131.5 14.5t-82.5 47.5q-68 67 -68 252v39q0 179 78 251q67 61 213 61q46 0 96 -11.5t80 -27.5zM319 -63h21q47 0 47 -50v-18q0 -78 -70 -146q-15 -15 -28 -1l-19 18q-11 11 -2 22q30 35 38 53q3 7 -3 10q-17 9 -23.5 18.5t-6.5 29.5v20 q0 21 12.5 32.5t33.5 11.5z" />
<glyph unicode="&#x123;" horiz-adv-x="508" d="M252 499h13q33 90 141 90h35q11 0 15.5 -4.5t4.5 -17.5v-41q0 -13 -4 -17t-16 -4h-41q-37 0 -48 -15q62 -18 86 -66t24 -130v-31q0 -106 -60 -155q81 -51 81 -132v-9q0 -69 -46 -109q-53 -45 -175 -45q-91 0 -191 37q-24 9 -17 32l14 45q7 23 28 14q82 -35 159 -35 q64 0 90 23q18 17 18 51v7q0 51 -46 78q-30 -6 -65 -6q-96 0 -149 41q-61 47 -61 163v31q0 117 63 166q50 39 147 39zM163 289v-18q0 -70 22 -97q17 -21 67 -21t68 21q21 26 21 97v18q0 76 -21 96q-22 20 -68 20q-50 0 -67 -20q-22 -24 -22 -96zM265 622h-21q-47 0 -47 50 v18q0 78 70 146q15 14 28 1l19 -18q11 -11 2 -22q-30 -35 -38 -53q-3 -7 3 -10q17 -9 23.5 -18.5t6.5 -29.5v-20q0 -21 -12.5 -32.5t-33.5 -11.5z" />
<glyph unicode="&#x124;" horiz-adv-x="632" d="M564 622v-597q0 -16 -5 -20.5t-22 -4.5h-72q-17 0 -22 4.5t-5 20.5v252h-244v-252q0 -16 -5 -20.5t-22 -4.5h-72q-17 0 -22 4.5t-5 20.5v597q0 16 5 20.5t22 4.5h72q17 0 22 -4.5t5 -20.5v-242h244v242q0 16 5 20.5t22 4.5h72q17 0 22 -4.5t5 -20.5zM369 870l92 -109 q14 -15 -2 -29l-28 -21q-17 -14 -34 2l-81 78h-3l-78 -78q-16 -17 -34 -2l-28 21q-16 14 -2 29l91 109q9 11 25 11h57q15 0 25 -11z" />
<glyph unicode="&#x125;" horiz-adv-x="525" d="M351 25v279q0 57 -21 78t-64 21q-47 0 -66 -18q-21 -19 -21 -69v-291q0 -15 -5.5 -20t-22.5 -5h-63q-17 0 -22.5 5t-5.5 20v627q0 15 5.5 20t22.5 5h63q17 0 22.5 -5t5.5 -20v-189q46 36 123 36q99 0 142 -70q26 -42 26 -131v-273q0 -15 -5.5 -20t-22.5 -5h-63 q-17 0 -22.5 5t-5.5 20zM168 882l92 -109q14 -15 -2 -29l-28 -21q-17 -14 -34 2l-81 78h-3l-78 -78q-16 -17 -34 -2l-28 21q-16 14 -2 29l91 109q9 11 25 11h57q15 0 25 -11z" />
<glyph unicode="&#x126;" horiz-adv-x="632" d="M564 618v-63h33q24 0 24 -24v-37q0 -22 -24 -22h-33v-443q0 -17 -6 -23t-23 -6h-68q-17 0 -23 6t-6 23v248h-244v-248q0 -17 -6 -23t-23 -6h-68q-17 0 -23 6t-6 23v443h-33q-24 0 -24 24v35q0 24 24 24h33v63q0 17 6 23t23 6h68q17 0 23 -6t6 -23v-63h244v63q0 17 6 23 t23 6h68q17 0 23 -6t6 -23zM194 380h244v92h-244v-92z" />
<glyph unicode="&#x127;" horiz-adv-x="525" d="M351 25v279q0 57 -21 78t-64 21q-47 0 -66 -18q-21 -19 -21 -69v-291q0 -15 -5.5 -20t-22.5 -5h-63q-17 0 -22.5 5t-5.5 20v514h-26q-24 0 -24 24v35q0 24 24 24h26v30q0 15 5.5 20t22.5 5h63q17 0 22.5 -5t5.5 -20v-30h101q24 0 24 -24v-37q0 -22 -24 -22h-101v-76 q46 36 123 36q99 0 142 -70q26 -42 26 -131v-273q0 -15 -5.5 -20t-22.5 -5h-63q-17 0 -22.5 5t-5.5 20z" />
<glyph unicode="&#x128;" horiz-adv-x="270" d="M198 622v-597q0 -16 -5 -20.5t-22 -4.5h-72q-17 0 -22 4.5t-5 20.5v597q0 16 5 20.5t22 4.5h72q17 0 22 -4.5t5 -20.5zM3 715l-25 15q-14 9 -6 29q38 84 102 84q31 0 61 -19l27 -17q23 -14 35 -14q21 0 43 35q10 16 28 3l22 -15q16 -11 7 -29q-44 -79 -106 -79 q-30 0 -60 19l-27 18q-18 12 -30 12q-21 0 -43 -36q-10 -17 -28 -6z" />
<glyph unicode="&#x129;" horiz-adv-x="245" d="M182 465v-440q0 -15 -5.5 -20t-22.5 -5h-63q-17 0 -22.5 5t-5.5 20v440q0 15 5.5 20t22.5 5h63q17 0 22.5 -5t5.5 -20zM-10 563l-25 15q-14 9 -6 29q38 84 102 84q31 0 61 -19l27 -17q23 -14 35 -14q21 0 43 35q10 16 28 3l22 -15q16 -11 7 -29q-44 -79 -106 -79 q-30 0 -60 19l-27 18q-18 12 -30 12q-21 0 -43 -36q-10 -17 -28 -6z" />
<glyph unicode="&#x12a;" horiz-adv-x="270" d="M198 622v-597q0 -16 -5 -20.5t-22 -4.5h-72q-17 0 -22 4.5t-5 20.5v597q0 16 5 20.5t22 4.5h72q17 0 22 -4.5t5 -20.5zM28 814h216q24 0 24 -24v-37q0 -22 -24 -22h-216q-24 0 -24 24v35q0 24 24 24z" />
<glyph unicode="&#x12b;" horiz-adv-x="245" d="M182 465v-440q0 -15 -5.5 -20t-22.5 -5h-63q-17 0 -22.5 5t-5.5 20v440q0 15 5.5 20t22.5 5h63q17 0 22.5 -5t5.5 -20zM16 662h216q24 0 24 -24v-37q0 -22 -24 -22h-216q-24 0 -24 24v35q0 24 24 24z" />
<glyph unicode="&#x12c;" horiz-adv-x="270" d="M198 622v-597q0 -16 -5 -20.5t-22 -4.5h-72q-17 0 -22 4.5t-5 20.5v597q0 16 5 20.5t22 4.5h72q17 0 22 -4.5t5 -20.5zM136 706q-57 0 -97 30t-56 84q-4 11 -1.5 16.5t15.5 9.5l35 12q9 4 16 2t12 -14q27 -60 76 -60t76 60q5 12 12 14t16 -2l35 -12q13 -4 15.5 -9.5 t-1.5 -16.5q-16 -54 -56 -84t-97 -30z" />
<glyph unicode="&#x12d;" horiz-adv-x="245" d="M182 465v-440q0 -15 -5.5 -20t-22.5 -5h-63q-17 0 -22.5 5t-5.5 20v440q0 15 5.5 20t22.5 5h63q17 0 22.5 -5t5.5 -20zM123 551q-57 0 -97 30t-56 84q-4 11 -1.5 16.5t15.5 9.5l35 12q9 4 16 2t12 -14q27 -60 76 -60t76 60q5 12 12 14t16 -2l35 -12q13 -4 15.5 -9.5 t-1.5 -16.5q-16 -54 -56 -84t-97 -30z" />
<glyph unicode="&#x12e;" horiz-adv-x="270" d="M72 21v597q0 17 6 23t23 6h68q17 0 23 -6t6 -23v-592q0 -13 -2.5 -17.5t-11.5 -6.5q-49 -11 -80.5 -41.5t-31.5 -63.5q0 -32 32 -32q28 0 52 11q12 5 15 -8l9 -34q3 -14 -14 -21q-33 -14 -75 -14q-105 0 -105 91q0 78 86 131z" />
<glyph unicode="&#x12f;" horiz-adv-x="245" d="M182 465v-440q0 -19 -15 -25q-42 -17 -68 -48t-26 -55q0 -32 32 -32q25 0 47 9q17 7 20 -6l9 -34q3 -14 -14 -21q-33 -14 -75 -14q-105 0 -105 83q0 74 76 125v458q0 15 5.5 20t22.5 5h63q17 0 22.5 -5t5.5 -20zM195 617v-6q0 -33 -19.5 -51.5t-50.5 -18.5h-5 q-70 0 -70 70v6q0 34 19.5 51.5t50.5 17.5h5q70 0 70 -69z" />
<glyph unicode="&#x130;" horiz-adv-x="270" d="M198 622v-597q0 -16 -5 -20.5t-22 -4.5h-72q-17 0 -22 4.5t-5 20.5v597q0 16 5 20.5t22 4.5h72q17 0 22 -4.5t5 -20.5zM68 794q0 27 19.5 47t47.5 20t47.5 -20t19.5 -47q0 -28 -19.5 -48t-47.5 -20t-47.5 20t-19.5 48z" />
<glyph unicode="&#x131;" horiz-adv-x="245" d="M182 465v-440q0 -15 -5.5 -20t-22.5 -5h-63q-17 0 -22.5 5t-5.5 20v440q0 15 5.5 20t22.5 5h63q17 0 22.5 -5t5.5 -20z" />
<glyph unicode="&#x132;" horiz-adv-x="612" d="M198 622v-597q0 -16 -5 -20.5t-22 -4.5h-72q-17 0 -22 4.5t-5 20.5v597q0 16 5 20.5t22 4.5h72q17 0 22 -4.5t5 -20.5zM547 622v-416q0 -112 -41 -157q-45 -49 -143 -49h-54q-17 0 -21.5 5t-4.5 20v54q0 16 4.5 21t21.5 5h43q42 0 57 25q12 20 12 81v411q0 16 5 20.5 t22 4.5h72q17 0 22 -4.5t5 -20.5z" />
<glyph unicode="&#x133;" horiz-adv-x="490" d="M195 617v-6q0 -33 -19.5 -51.5t-50.5 -18.5h-5q-70 0 -70 70v6q0 34 19.5 51.5t50.5 17.5h5q70 0 70 -69zM182 465v-440q0 -15 -5.5 -20t-22.5 -5h-63q-17 0 -22.5 5t-5.5 20v440q0 15 5.5 20t22.5 5h63q17 0 22.5 -5t5.5 -20zM441 617v-6q0 -33 -19.5 -51.5t-50.5 -18.5 h-5q-71 0 -71 70v6q0 34 20 51.5t51 17.5h5q70 0 70 -69zM428 465v-433q0 -111 -42 -160q-43 -49 -132 -49h-44q-22 0 -22 19v64q0 19 20 19h15q49 0 66 20q20 23 20 96v424q0 15 5.5 20t22.5 5h63q17 0 22.5 -5t5.5 -20z" />
<glyph unicode="&#x134;" horiz-adv-x="342" d="M277 622v-416q0 -112 -41 -157q-45 -49 -143 -49h-54q-17 0 -21.5 5t-4.5 20v54q0 16 4.5 21t21.5 5h43q42 0 57 25q12 20 12 81v411q0 16 5 20.5t22 4.5h72q17 0 22 -4.5t5 -20.5zM265 870l92 -109q14 -15 -2 -29l-28 -21q-17 -14 -34 2l-81 78h-3l-78 -78 q-16 -17 -34 -2l-28 21q-16 14 -2 29l91 109q9 11 25 11h57q15 0 25 -11z" />
<glyph unicode="&#x135;" horiz-adv-x="245" d="M183 465v-433q0 -111 -42 -160q-43 -49 -132 -49h-44q-22 0 -22 19v64q0 19 20 19h15q49 0 66 20q20 23 20 96v424q0 15 5.5 20t22.5 5h63q17 0 22.5 -5t5.5 -20zM176 708l92 -109q14 -15 -2 -29l-28 -21q-17 -14 -34 2l-81 78h-3l-78 -78q-16 -17 -34 -2l-28 21 q-16 14 -2 29l91 109q9 11 25 11h57q15 0 25 -11z" />
<glyph unicode="&#x136;" horiz-adv-x="558" d="M194 281v-256q0 -16 -5 -20.5t-22 -4.5h-72q-17 0 -22 4.5t-5 20.5v597q0 16 5 20.5t22 4.5h72q17 0 22 -4.5t5 -20.5v-238h26q17 0 27 15l152 228q13 20 40 20h80q39 0 19 -29l-185 -262q-10 -15 -10 -19q0 -5 10 -20l187 -292q16 -25 -20 -25h-81q-29 0 -40 19 l-148 247q-9 15 -27 15h-30zM278 -63h21q47 0 47 -50v-18q0 -78 -70 -146q-14 -15 -28 -1l-19 18q-11 11 -2 22q30 35 38 53q3 7 -3 10q-17 9 -23.5 18.5t-6.5 29.5v20q0 21 12.5 32.5t33.5 11.5z" />
<glyph unicode="&#x137;" horiz-adv-x="456" d="M178 208v-183q0 -15 -5.5 -20t-22.5 -5h-63q-17 0 -22.5 5t-5.5 20v627q0 15 5.5 20t22.5 5h63q17 0 22.5 -5t5.5 -20v-342h14q9 0 13 7l105 157q7 10 12.5 13t20.5 3h80q31 0 15 -23l-136 -197q-9 -12 0 -25l142 -219q17 -26 -11 -26h-82q-16 0 -23 4t-15 17l-108 180 q-5 7 -13 7h-14zM224 -63h21q47 0 47 -50v-18q0 -78 -70 -146q-14 -15 -28 -1l-19 18q-11 11 -2 22q30 35 38 53q3 7 -3 10q-17 9 -23.5 18.5t-6.5 29.5v20q0 21 12.5 32.5t33.5 11.5z" />
<glyph unicode="&#x138;" horiz-adv-x="456" d="M178 208v-183q0 -15 -5.5 -20t-22.5 -5h-63q-17 0 -22.5 5t-5.5 20v440q0 15 5.5 20t22.5 5h63q17 0 22.5 -5t5.5 -20v-155h14q9 0 13 7l105 157q7 10 12.5 13t20.5 3h80q31 0 15 -23l-136 -197q-9 -12 0 -25l142 -219q17 -26 -11 -26h-82q-16 0 -23 4t-15 17l-108 180 q-5 7 -13 7h-14z" />
<glyph unicode="&#x139;" horiz-adv-x="436" d="M194 622v-500q0 -19 19 -19h168q17 0 22 -4.5t5 -19.5v-55q0 -14 -5 -19t-22 -5h-212q-55 0 -79 24q-22 22 -22 72v526q0 16 5 20.5t22 4.5h72q17 0 22 -4.5t5 -20.5zM64 772l171 93q20 11 31 -8l29 -53q7 -13 4.5 -20t-16.5 -13l-170 -71q-23 -9 -35 11l-18 31 q-12 20 4 30z" />
<glyph unicode="&#x13a;" horiz-adv-x="285" d="M178 652v-519q0 -18 6.5 -25.5t22.5 -7.5h30q13 0 18 -5t5 -19v-52q0 -14 -5 -19t-18 -5h-67q-57 0 -82 24q-29 29 -29 98v530q0 15 5.5 20t22.5 5h63q17 0 22.5 -5t5.5 -20zM43 784l160 111q19 13 31 -5l35 -50q8 -12 6.5 -19t-14.5 -15l-162 -89q-22 -13 -36 7l-21 29 q-14 21 1 31z" />
<glyph unicode="&#x13b;" horiz-adv-x="436" d="M194 622v-500q0 -19 19 -19h168q17 0 22 -4.5t5 -19.5v-55q0 -14 -5 -19t-22 -5h-212q-55 0 -79 24q-22 22 -22 72v526q0 16 5 20.5t22 4.5h72q17 0 22 -4.5t5 -20.5zM224 -63h21q47 0 47 -50v-18q0 -78 -70 -146q-14 -15 -28 -1l-19 18q-11 11 -2 22q30 35 38 53 q3 7 -3 10q-17 9 -23.5 18.5t-6.5 29.5v20q0 21 12.5 32.5t33.5 11.5z" />
<glyph unicode="&#x13c;" horiz-adv-x="285" d="M178 652v-519q0 -18 6.5 -25.5t22.5 -7.5h30q13 0 18 -5t5 -19v-52q0 -14 -5 -19t-18 -5h-67q-57 0 -82 24q-29 29 -29 98v530q0 15 5.5 20t22.5 5h63q17 0 22.5 -5t5.5 -20zM153 -63h21q47 0 47 -50v-18q0 -78 -70 -146q-15 -15 -28 -1l-19 18q-11 11 -2 22q30 35 38 53 q3 7 -3 10q-17 9 -23.5 18.5t-6.5 29.5v20q0 21 12.5 32.5t33.5 11.5z" />
<glyph unicode="&#x13d;" horiz-adv-x="436" d="M194 622v-500q0 -19 19 -19h168q17 0 22 -4.5t5 -19.5v-55q0 -14 -5 -19t-22 -5h-212q-55 0 -79 24q-22 22 -22 72v526q0 16 5 20.5t22 4.5h72q17 0 22 -4.5t5 -20.5zM333 649h21q47 0 47 -50v-18q0 -78 -70 -146q-15 -15 -28 -1l-19 18q-11 11 -2 22q30 35 38 53 q3 7 -3 10q-17 9 -23.5 18.5t-6.5 29.5v20q0 21 12.5 32.5t33.5 11.5z" />
<glyph unicode="&#x13e;" horiz-adv-x="293" d="M178 652v-519q0 -18 6.5 -25.5t22.5 -7.5h30q13 0 18 -5t5 -19v-52q0 -14 -5 -19t-18 -5h-67q-57 0 -82 24q-29 29 -29 98v530q0 15 5.5 20t22.5 5h63q17 0 22.5 -5t5.5 -20zM275 725h21q47 0 47 -50v-18q0 -78 -70 -146q-15 -15 -28 -1l-19 18q-11 11 -2 22q30 35 38 53 q3 7 -3 10q-17 9 -23.5 18.5t-6.5 29.5v20q0 21 12.5 32.5t33.5 11.5z" />
<glyph unicode="&#x13f;" horiz-adv-x="479" d="M194 622v-500q0 -19 19 -19h168q17 0 22 -4.5t5 -19.5v-55q0 -14 -5 -19t-22 -5h-212q-55 0 -79 24q-22 22 -22 72v526q0 16 5 20.5t22 4.5h72q17 0 22 -4.5t5 -20.5zM301 344q0 27 19.5 47t47.5 20t47.5 -20t19.5 -47q0 -28 -19.5 -48t-47.5 -20t-47.5 20t-19.5 48z" />
<glyph unicode="&#x140;" horiz-adv-x="390" d="M178 652v-519q0 -18 6.5 -25.5t22.5 -7.5h30q13 0 18 -5t5 -19v-52q0 -14 -5 -19t-18 -5h-67q-57 0 -82 24q-29 29 -29 98v530q0 15 5.5 20t22.5 5h63q17 0 22.5 -5t5.5 -20zM247 338q0 27 19.5 47t47.5 20t47.5 -20t19.5 -47q0 -28 -19.5 -48t-47.5 -20t-47.5 20 t-19.5 48z" />
<glyph unicode="&#x141;" horiz-adv-x="431" d="M381 0h-212q-55 0 -79 24q-22 22 -22 72v131l-56 -37q-21 -13 -21 8v79q0 18 15 28l62 41v272q0 17 6 23t23 6h68q17 0 23 -6t6 -23v-188l89 60q17 11 17 -11v-79q0 -18 -15 -28l-91 -61v-189q0 -19 19 -19h168q17 0 22 -4.5t5 -19.5v-55q0 -14 -5 -19t-22 -5z" />
<glyph unicode="&#x142;" horiz-adv-x="285" d="M178 652v-198l80 52q17 10 17 -11v-75q0 -18 -15 -28l-82 -54v-205q0 -18 6.5 -25.5t22.5 -7.5h30q13 0 18 -5t5 -19v-52q0 -14 -5 -19t-18 -5h-67q-57 0 -82 24q-29 29 -29 98v139l-60 -39q-17 -10 -17 11v75q0 18 15 28l62 40v276q0 15 5.5 20t22.5 5h63q17 0 22.5 -5 t5.5 -20z" />
<glyph unicode="&#x143;" horiz-adv-x="642" d="M68 25v597q0 16 5 20.5t22 4.5h60q34 0 49 -24l249 -412h4v411q0 16 5 20.5t22 4.5h63q17 0 22 -4.5t5 -20.5v-597q0 -16 -5 -20.5t-22 -4.5h-60q-34 0 -49 24l-249 403h-4v-402q0 -16 -5 -20.5t-22 -4.5h-63q-17 0 -22 4.5t-5 20.5zM232 772l171 93q20 11 31 -8l29 -53 q7 -13 4.5 -20t-16.5 -13l-170 -71q-23 -9 -35 11l-18 31q-12 20 4 30z" />
<glyph unicode="&#x144;" horiz-adv-x="525" d="M470 298v-273q0 -15 -5.5 -20t-22.5 -5h-63q-17 0 -22.5 5t-5.5 20v279q0 57 -21 78t-66 21t-64 -18q-21 -19 -21 -69v-291q0 -15 -5.5 -20t-22.5 -5h-63q-17 0 -22.5 5t-5.5 20v442q0 23 24 23h37q13 0 18.5 -3.5t7.5 -14.5l5 -24h3q49 51 136 51q107 0 152 -67 q27 -42 27 -134zM182 608l160 111q19 13 31 -5l35 -50q8 -12 6.5 -19t-14.5 -15l-162 -89q-22 -13 -36 7l-21 29q-14 21 1 31z" />
<glyph unicode="&#x145;" horiz-adv-x="642" d="M68 25v597q0 16 5 20.5t22 4.5h60q34 0 49 -24l249 -412h4v411q0 16 5 20.5t22 4.5h63q17 0 22 -4.5t5 -20.5v-597q0 -16 -5 -20.5t-22 -4.5h-60q-34 0 -49 24l-249 403h-4v-402q0 -16 -5 -20.5t-22 -4.5h-63q-17 0 -22 4.5t-5 20.5zM326 -63h21q47 0 47 -50v-18 q0 -78 -70 -146q-14 -15 -28 -1l-19 18q-11 11 -2 22q30 35 38 53q3 7 -3 10q-17 9 -23.5 18.5t-6.5 29.5v20q0 21 12.5 32.5t33.5 11.5z" />
<glyph unicode="&#x146;" horiz-adv-x="525" d="M470 298v-273q0 -15 -5.5 -20t-22.5 -5h-63q-17 0 -22.5 5t-5.5 20v279q0 57 -21 78t-66 21t-64 -18q-21 -19 -21 -69v-291q0 -15 -5.5 -20t-22.5 -5h-63q-17 0 -22.5 5t-5.5 20v442q0 23 24 23h37q13 0 18.5 -3.5t7.5 -14.5l5 -24h3q49 51 136 51q107 0 152 -67 q27 -42 27 -134zM258 -63h21q47 0 47 -50v-18q0 -78 -70 -146q-14 -15 -28 -1l-19 18q-11 11 -2 22q30 35 38 53q3 7 -3 10q-17 9 -23.5 18.5t-6.5 29.5v20q0 21 12.5 32.5t33.5 11.5z" />
<glyph unicode="&#x147;" horiz-adv-x="642" d="M68 25v597q0 16 5 20.5t22 4.5h60q34 0 49 -24l249 -412h4v411q0 16 5 20.5t22 4.5h63q17 0 22 -4.5t5 -20.5v-597q0 -16 -5 -20.5t-22 -4.5h-60q-34 0 -49 24l-249 403h-4v-402q0 -16 -5 -20.5t-22 -4.5h-63q-17 0 -22 4.5t-5 20.5zM471 831l-92 -109q-10 -11 -25 -11 h-57q-16 0 -25 11l-91 109q-14 15 2 29l28 21q18 15 34 -2l78 -78h3l81 78q17 16 34 2l28 -21q16 -14 2 -29z" />
<glyph unicode="&#x148;" horiz-adv-x="525" d="M470 298v-273q0 -15 -5.5 -20t-22.5 -5h-63q-17 0 -22.5 5t-5.5 20v279q0 57 -21 78t-66 21t-64 -18q-21 -19 -21 -69v-291q0 -15 -5.5 -20t-22.5 -5h-63q-17 0 -22.5 5t-5.5 20v442q0 23 24 23h37q13 0 18.5 -3.5t7.5 -14.5l5 -24h3q49 51 136 51q107 0 152 -67 q27 -42 27 -134zM411 666l-92 -109q-10 -11 -25 -11h-57q-16 0 -25 11l-91 109q-14 15 2 29l28 21q18 15 34 -2l78 -78h3l81 78q17 16 34 2l28 -21q16 -14 2 -29z" />
<glyph unicode="&#x149;" horiz-adv-x="525" d="M470 298v-273q0 -15 -5.5 -20t-22.5 -5h-63q-17 0 -22.5 5t-5.5 20v279q0 57 -21 78t-66 21t-64 -18q-21 -19 -21 -69v-291q0 -15 -5.5 -20t-22.5 -5h-63q-17 0 -22.5 5t-5.5 20v442q0 23 24 23h37q13 0 18.5 -3.5t7.5 -14.5l5 -24h3q49 51 136 51q107 0 152 -67 q27 -42 27 -134zM-27 756h19q66 0 66 -63v-19q0 -42 -27 -104.5t-64 -105.5q-9 -11 -16 -12t-22 7l-25 14q-23 13 -9 30q21 28 43 67q18 31 1 42l-11 7q-22 13 -22 49v30q0 58 67 58z" />
<glyph unicode="&#x14a;" horiz-adv-x="642" d="M319 -162v45q0 16 4.5 21t21.5 5h43q42 0 57 25q11 18 12 66q-24 0 -34 4.5t-18 19.5l-216 403h-4v-398q0 -17 -6 -23t-23 -6h-59q-17 0 -23 6t-6 23v583q0 20 10 27.5t35 7.5h35q26 0 36.5 -4.5t19.5 -19.5l249 -452h4v447q0 17 6 23t23 6h59q17 0 23 -6t6 -23v-599 q0 -112 -41 -157q-45 -49 -143 -49h-45q-17 0 -21.5 5t-4.5 20z" />
<glyph unicode="&#x14b;" horiz-adv-x="525" d="M351 34v270q0 57 -21 78t-66 21t-64 -18q-21 -19 -21 -69v-291q0 -15 -5.5 -20t-22.5 -5h-63q-17 0 -22.5 5t-5.5 20v442q0 23 24 23h37q13 0 18.5 -3.5t7.5 -14.5l5 -24h3q49 51 136 51q107 0 152 -67q27 -42 27 -134v-266q0 -111 -42 -160q-43 -49 -132 -49h-44 q-22 0 -22 19v57q0 19 20 19h15q49 0 66 20q20 23 20 96z" />
<glyph unicode="&#x14c;" horiz-adv-x="618" d="M441 313v21q0 127 -33 177q-28 41 -99 41t-99 -41q-33 -48 -33 -177v-21q0 -129 33 -177q28 -41 99 -41t99 41q33 49 33 177zM570 344v-41q0 -172 -74 -247q-63 -65 -187 -65q-127 0 -189 65q-72 78 -72 247v41q0 169 72 247q62 65 189 65q124 0 187 -65q74 -75 74 -247z M204 814h216q24 0 24 -24v-37q0 -22 -24 -22h-216q-24 0 -24 24v35q0 24 24 24z" />
<glyph unicode="&#x14d;" horiz-adv-x="500" d="M250 86q45 0 67 27q22 28 22 122v21q0 93 -22 121q-21 27 -67 27t-67 -27q-22 -28 -22 -121v-21q0 -94 22 -122q22 -27 67 -27zM250 499q108 0 159 -59q51 -58 51 -180v-30q0 -122 -51 -180q-53 -59 -159 -59t-159 59q-51 58 -51 180v30q0 122 51 180q51 59 159 59z M142 662h216q24 0 24 -24v-37q0 -22 -24 -22h-216q-24 0 -24 24v35q0 24 24 24z" />
<glyph unicode="&#x14e;" horiz-adv-x="618" d="M441 313v21q0 127 -33 177q-28 41 -99 41t-99 -41q-33 -48 -33 -177v-21q0 -129 33 -177q28 -41 99 -41t99 41q33 49 33 177zM570 344v-41q0 -172 -74 -247q-63 -65 -187 -65q-127 0 -189 65q-72 78 -72 247v41q0 169 72 247q62 65 189 65q124 0 187 -65q74 -75 74 -247z M309 706q-57 0 -97 30t-56 84q-4 11 -1.5 16.5t15.5 9.5l35 12q9 4 16 2t12 -14q27 -60 76 -60t76 60q5 12 12 14t16 -2l35 -12q13 -4 15.5 -9.5t-1.5 -16.5q-16 -54 -56 -84t-97 -30z" />
<glyph unicode="&#x14f;" horiz-adv-x="500" d="M250 86q45 0 67 27q22 28 22 122v21q0 93 -22 121q-21 27 -67 27t-67 -27q-22 -28 -22 -121v-21q0 -94 22 -122q22 -27 67 -27zM250 499q108 0 159 -59q51 -58 51 -180v-30q0 -122 -51 -180q-53 -59 -159 -59t-159 59q-51 58 -51 180v30q0 122 51 180q51 59 159 59z M251 551q-57 0 -97 30t-56 84q-4 11 -1.5 16.5t15.5 9.5l35 12q9 4 16 2t12 -14q27 -60 76 -60t76 60q5 12 12 14t16 -2l35 -12q13 -4 15.5 -9.5t-1.5 -16.5q-16 -54 -56 -84t-97 -30z" />
<glyph unicode="&#x150;" horiz-adv-x="618" d="M441 313v21q0 127 -33 177q-28 41 -99 41t-99 -41q-33 -48 -33 -177v-21q0 -129 33 -177q28 -41 99 -41t99 41q33 49 33 177zM570 344v-41q0 -172 -74 -247q-63 -65 -187 -65q-127 0 -189 65q-72 78 -72 247v41q0 169 72 247q62 65 189 65q124 0 187 -65q74 -75 74 -247z M149 758l140 129q17 15 33 -4l39 -46q9 -11 7.5 -17.5t-13.5 -15.5l-143 -109q-22 -13 -39 5l-22 26q-15 19 -2 32zM354 758l140 129q17 15 33 -4l39 -46q9 -11 8 -17t-14 -16l-143 -109q-20 -16 -39 5l-22 26q-15 19 -2 32z" />
<glyph unicode="&#x151;" horiz-adv-x="500" d="M250 86q45 0 67 27q22 28 22 122v21q0 93 -22 121q-21 27 -67 27t-67 -27q-22 -28 -22 -121v-21q0 -94 22 -122q22 -27 67 -27zM250 499q108 0 159 -59q51 -58 51 -180v-30q0 -122 -51 -180q-53 -59 -159 -59t-159 59q-51 58 -51 180v30q0 122 51 180q51 59 159 59z M98 606l141 128q18 14 32 -3l39 -47q10 -11 9 -18t-14 -16l-145 -106q-21 -14 -38 4l-22 27q-15 19 -2 31zM314 606l141 128q18 14 32 -3l39 -47q10 -11 9 -18t-14 -16l-145 -106q-21 -14 -38 4l-22 27q-15 19 -2 31z" />
<glyph unicode="&#x152;" horiz-adv-x="860" d="M762 282h-224q0 -80 7 -151q1 -17 8.5 -22.5t23.5 -5.5h217q17 0 21.5 -4.5t4.5 -19.5v-55q0 -14 -4.5 -19t-21.5 -5h-229q-78 0 -107 24q-6 4 -14 16q-62 -49 -148 -49q-119 0 -178 62q-70 75 -70 250v41q0 175 69 249q60 63 184 63q82 0 146 -47q5 8 15 16 q28 22 103 22h230q17 0 21 -4.5t4 -19.5v-55q0 -14 -4.5 -19t-20.5 -5h-218q-30 0 -33 -30q-6 -70 -6 -129h224q17 0 21 -4.5t4 -19.5v-55q0 -14 -4.5 -19t-20.5 -5zM309 95q68 0 112 42q-7 70 -7 166v41q0 86 6 161q-44 47 -111 47q-71 0 -99 -41q-33 -48 -33 -177v-21 q0 -129 33 -177q28 -41 99 -41z" />
<glyph unicode="&#x153;" horiz-adv-x="778" d="M250 499q92 0 148 -54q56 54 149 54q91 0 141 -45q51 -46 51 -169v-68q0 -16 -6 -22.5t-21 -6.5h-250q1 -59 25 -80q22 -20 88 -20q59 0 108 21q21 9 28 -16l13 -48q3 -11 -0.5 -17t-17.5 -11q-68 -26 -145 -26q-112 0 -164 53q-48 -53 -147 -53q-106 0 -159 59 q-51 58 -51 180v30q0 122 51 180q51 59 159 59zM250 86q46 0 68 27q22 28 22 122v21q0 93 -22 121q-21 27 -68 27q-46 0 -67 -27q-22 -28 -22 -121v-21q0 -94 22 -122q22 -27 67 -27zM543 404q-38 0 -57 -20q-26 -27 -26 -102h147q13 0 13 14q0 67 -19 89q-18 19 -58 19z " />
<glyph unicode="&#x154;" horiz-adv-x="557" d="M256 554q-37 0 -50 -2q-12 -1 -12 -14v-180h44q83 0 109 19q28 20 28 76v12q0 49 -20 68q-22 21 -99 21zM194 255v-230q0 -16 -5 -20.5t-22 -4.5h-72q-17 0 -22 4.5t-5 20.5v581q0 22 7 30.5t28 11.5q59 8 145 8q144 0 205 -47q51 -41 51 -141v-17q0 -143 -124 -185 l148 -245q6 -10 0.5 -15.5t-23.5 -5.5h-73q-29 0 -42 22l-125 223q-5 10 -20 10h-51zM174 772l171 93q20 11 31 -8l29 -53q7 -13 4.5 -20t-16.5 -13l-170 -71q-23 -9 -35 11l-18 31q-12 20 4 30z" />
<glyph unicode="&#x155;" horiz-adv-x="345" d="M145 472l7 -47h2q24 35 53.5 50t79.5 15h14q16 0 22 -4.5t6 -19.5v-53q0 -13 -6 -18t-22 -5h-18q-59 0 -81 -25q-23 -27 -23 -85v-255q0 -15 -5.5 -20t-22.5 -5h-63q-17 0 -22.5 5t-5.5 20v442q0 23 24 23h35q24 0 26 -18zM117 608l160 111q19 13 31 -5l35 -50 q8 -12 6.5 -19t-14.5 -15l-162 -89q-22 -13 -36 7l-21 29q-14 21 1 31z" />
<glyph unicode="&#x156;" horiz-adv-x="557" d="M256 554q-37 0 -50 -2q-12 -1 -12 -14v-180h44q83 0 109 19q28 20 28 76v12q0 49 -20 68q-22 21 -99 21zM194 255v-230q0 -16 -5 -20.5t-22 -4.5h-72q-17 0 -22 4.5t-5 20.5v581q0 22 7 30.5t28 11.5q59 8 145 8q144 0 205 -47q51 -41 51 -141v-17q0 -143 -124 -185 l148 -245q6 -10 0.5 -15.5t-23.5 -5.5h-73q-29 0 -42 22l-125 223q-5 10 -20 10h-51zM274 -63h21q47 0 47 -50v-18q0 -78 -70 -146q-14 -15 -28 -1l-19 18q-11 11 -2 22q30 35 38 53q3 7 -3 10q-17 9 -23.5 18.5t-6.5 29.5v20q0 21 12.5 32.5t33.5 11.5z" />
<glyph unicode="&#x157;" horiz-adv-x="345" d="M145 472l7 -47h2q24 35 53.5 50t79.5 15h14q16 0 22 -4.5t6 -19.5v-53q0 -13 -6 -18t-22 -5h-18q-59 0 -81 -25q-23 -27 -23 -85v-255q0 -15 -5.5 -20t-22.5 -5h-63q-17 0 -22.5 5t-5.5 20v442q0 23 24 23h35q24 0 26 -18zM109 -63h21q47 0 47 -50v-18q0 -78 -70 -146 q-15 -15 -28 -1l-19 18q-11 11 -2 22q30 35 38 53q3 7 -3 10q-17 9 -23.5 18.5t-6.5 29.5v20q0 21 12.5 32.5t33.5 11.5z" />
<glyph unicode="&#x158;" horiz-adv-x="557" d="M256 554q-37 0 -50 -2q-12 -1 -12 -14v-180h44q83 0 109 19q28 20 28 76v12q0 49 -20 68q-22 21 -99 21zM194 255v-230q0 -16 -5 -20.5t-22 -4.5h-72q-17 0 -22 4.5t-5 20.5v581q0 22 7 30.5t28 11.5q59 8 145 8q144 0 205 -47q51 -41 51 -141v-17q0 -143 -124 -185 l148 -245q6 -10 0.5 -15.5t-23.5 -5.5h-73q-29 0 -42 22l-125 223q-5 10 -20 10h-51zM419 831l-92 -109q-10 -11 -25 -11h-57q-16 0 -25 11l-91 109q-14 15 2 29l28 21q18 15 34 -2l78 -78h3l81 78q17 16 34 2l28 -21q16 -14 2 -29z" />
<glyph unicode="&#x159;" horiz-adv-x="345" d="M145 472l7 -47h2q24 35 53.5 50t79.5 15h14q16 0 22 -4.5t6 -19.5v-53q0 -13 -6 -18t-22 -5h-18q-59 0 -81 -25q-23 -27 -23 -85v-255q0 -15 -5.5 -20t-22.5 -5h-63q-17 0 -22.5 5t-5.5 20v442q0 23 24 23h35q24 0 26 -18zM336 666l-92 -109q-10 -11 -25 -11h-57 q-16 0 -25 11l-91 109q-14 15 2 29l28 21q18 15 34 -2l78 -78h3l81 78q17 16 34 2l28 -21q16 -14 2 -29z" />
<glyph unicode="&#x15a;" horiz-adv-x="510" d="M234 -9q-83 0 -172 29q-15 5 -19.5 11.5t-1.5 20.5l11 58q4 25 28 16q83 -31 151 -31q71 0 97 22q20 16 20 64v8q0 38 -12 53q-15 18 -68 31l-69 15q-89 20 -122 57q-38 41 -38 122v13q0 94 58 138q52 38 165 38q88 0 161 -23q13 -4 16.5 -10t0.5 -19l-15 -63 q-4 -21 -31 -12q-72 23 -129 23q-58 0 -80 -15q-23 -16 -23 -60v-8q0 -35 16 -51q17 -17 67 -27l73 -15q89 -19 123 -61q30 -38 30 -115v-15q0 -99 -54 -147q-53 -47 -183 -47zM169 772l171 93q20 11 31 -8l29 -53q7 -13 4.5 -20t-16.5 -13l-170 -71q-23 -9 -35 11l-18 31 q-12 20 4 30z" />
<glyph unicode="&#x15b;" horiz-adv-x="433" d="M206 -9q-84 0 -153 29q-13 5 -16 11t0 19l11 49q6 24 28 15q67 -26 120 -26q48 0 65 12q17 11 17 39v7q0 23 -13 33.5t-45 18.5l-60 14q-60 14 -88 45q-30 33 -30 92v9q0 73 44 108q42 33 135 33q78 0 134 -20q10 -4 12.5 -8.5t0.5 -15.5l-12 -56q-4 -19 -25 -13 q-46 16 -97 16q-47 0 -62 -11q-14 -10 -14 -32v-7q0 -21 12 -30t39 -15l62 -14q72 -17 101 -54q22 -30 22 -83v-12q0 -69 -40 -108q-48 -45 -148 -45zM130 608l160 111q19 13 31 -5l35 -50q8 -12 6.5 -19t-14.5 -15l-162 -89q-22 -13 -36 7l-21 29q-14 21 1 31z" />
<glyph unicode="&#x15c;" horiz-adv-x="510" d="M234 -9q-83 0 -172 29q-15 5 -19.5 11.5t-1.5 20.5l11 58q4 25 28 16q83 -31 151 -31q71 0 97 22q20 16 20 64v8q0 38 -12 53q-15 18 -68 31l-69 15q-89 20 -122 57q-38 41 -38 122v13q0 94 58 138q52 38 165 38q88 0 161 -23q13 -4 16.5 -10t0.5 -19l-15 -63 q-4 -21 -31 -12q-72 23 -129 23q-58 0 -80 -15q-23 -16 -23 -60v-8q0 -35 16 -51q17 -17 67 -27l73 -15q89 -19 123 -61q30 -38 30 -115v-15q0 -99 -54 -147q-53 -47 -183 -47zM309 870l92 -109q14 -15 -2 -29l-28 -21q-17 -14 -34 2l-81 78h-3l-78 -78q-16 -17 -34 -2 l-28 21q-16 14 -2 29l91 109q9 11 25 11h57q15 0 25 -11z" />
<glyph unicode="&#x15d;" horiz-adv-x="433" d="M206 -9q-84 0 -153 29q-13 5 -16 11t0 19l11 49q6 24 28 15q67 -26 120 -26q48 0 65 12q17 11 17 39v7q0 23 -13 33.5t-45 18.5l-60 14q-60 14 -88 45q-30 33 -30 92v9q0 73 44 108q42 33 135 33q78 0 134 -20q10 -4 12.5 -8.5t0.5 -15.5l-12 -56q-4 -19 -25 -13 q-46 16 -97 16q-47 0 -62 -11q-14 -10 -14 -32v-7q0 -21 12 -30t39 -15l62 -14q72 -17 101 -54q22 -30 22 -83v-12q0 -69 -40 -108q-48 -45 -148 -45zM272 708l92 -109q14 -15 -2 -29l-28 -21q-17 -14 -34 2l-81 78h-3l-78 -78q-16 -17 -34 -2l-28 21q-16 14 -2 29l91 109 q9 11 25 11h57q15 0 25 -11z" />
<glyph unicode="&#x15e;" horiz-adv-x="510" d="M417 38q-46 -41 -150 -46l-9 -50q15 3 31 3q34 0 57.5 -21.5t23.5 -62.5q0 -99 -118 -99q-47 0 -85 12q-15 5 -13 21l5 32q3 16 18 11q30 -10 63 -10q42 0 42 28q0 26 -33 26q-9 0 -35 -4q-14 -3 -22 8l-8 12q-5 9 -4 18l17 77q-79 8 -135 27q-15 5 -19.5 11.5t-1.5 20.5 l11 58q4 25 28 16q83 -31 151 -31q71 0 97 22q20 16 20 64v8q0 38 -12 53q-15 18 -68 31l-69 15q-89 20 -122 57q-38 41 -38 122v13q0 94 58 138q52 38 165 38q88 0 161 -23q13 -4 16.5 -10t0.5 -19l-15 -63q-4 -21 -31 -12q-72 23 -129 23q-58 0 -80 -15q-23 -16 -23 -60 v-8q0 -35 16 -51q17 -17 67 -27l73 -15q89 -19 123 -61q30 -38 30 -115v-15q0 -99 -54 -147z" />
<glyph unicode="&#x15f;" horiz-adv-x="433" d="M354 36q-41 -38 -121 -44l-10 -50q15 3 31 3q34 0 57.5 -21.5t23.5 -62.5q0 -99 -118 -99q-47 0 -85 12q-15 5 -13 21l5 32q3 16 18 11q30 -10 63 -10q42 0 42 28q0 26 -33 26q-9 0 -35 -4q-14 -3 -22 8l-8 12q-5 9 -4 18l17 77v1q-62 6 -109 26q-13 5 -16 11t0 19l11 49 q6 24 28 15q67 -26 120 -26q48 0 65 12q17 11 17 39v7q0 23 -13 33.5t-45 18.5l-60 14q-60 14 -88 45q-30 33 -30 92v9q0 73 44 108q42 33 135 33q78 0 134 -20q10 -4 12.5 -8.5t0.5 -15.5l-12 -56q-4 -19 -25 -13q-46 16 -97 16q-47 0 -62 -11q-14 -10 -14 -32v-7 q0 -21 12 -30t39 -15l62 -14q72 -17 101 -54q22 -30 22 -83v-12q0 -69 -40 -108z" />
<glyph unicode="&#x160;" horiz-adv-x="510" d="M234 -9q-83 0 -172 29q-15 5 -19.5 11.5t-1.5 20.5l11 58q4 25 28 16q83 -31 151 -31q71 0 97 22q20 16 20 64v8q0 38 -12 53q-15 18 -68 31l-69 15q-89 20 -122 57q-38 41 -38 122v13q0 94 58 138q52 38 165 38q88 0 161 -23q13 -4 16.5 -10t0.5 -19l-15 -63 q-4 -21 -31 -12q-72 23 -129 23q-58 0 -80 -15q-23 -16 -23 -60v-8q0 -35 16 -51q17 -17 67 -27l73 -15q89 -19 123 -61q30 -38 30 -115v-15q0 -99 -54 -147q-53 -47 -183 -47zM405 831l-92 -109q-10 -11 -25 -11h-57q-16 0 -25 11l-91 109q-14 15 2 29l28 21q18 15 34 -2 l78 -78h3l81 78q17 16 34 2l28 -21q16 -14 2 -29z" />
<glyph unicode="&#x161;" horiz-adv-x="433" d="M206 -9q-84 0 -153 29q-13 5 -16 11t0 19l11 49q6 24 28 15q67 -26 120 -26q48 0 65 12q17 11 17 39v7q0 23 -13 33.5t-45 18.5l-60 14q-60 14 -88 45q-30 33 -30 92v9q0 73 44 108q42 33 135 33q78 0 134 -20q10 -4 12.5 -8.5t0.5 -15.5l-12 -56q-4 -19 -25 -13 q-46 16 -97 16q-47 0 -62 -11q-14 -10 -14 -32v-7q0 -21 12 -30t39 -15l62 -14q72 -17 101 -54q22 -30 22 -83v-12q0 -69 -40 -108q-48 -45 -148 -45zM361 666l-92 -109q-10 -11 -25 -11h-57q-16 0 -25 11l-91 109q-14 15 2 29l28 21q18 15 34 -2l78 -78h3l81 78q17 16 34 2 l28 -21q16 -14 2 -29z" />
<glyph unicode="&#x162;" horiz-adv-x="482" d="M319 544v-519q0 -16 -5 -20.5t-22 -4.5h-72q-17 0 -22 4.5t-5 20.5v519h-140q-16 0 -20.5 5t-4.5 19v55q0 14 5 19t20 5h406q15 0 20 -5t5 -19v-55q0 -14 -4.5 -19t-20.5 -5h-140zM229 -63h21q47 0 47 -50v-18q0 -78 -70 -146q-15 -15 -28 -1l-19 18q-11 11 -2 22 q30 35 38 53q3 7 -3 10q-17 9 -23.5 18.5t-6.5 29.5v20q0 21 12.5 32.5t33.5 11.5z" />
<glyph unicode="&#x163;" horiz-adv-x="362" d="M208 590v-100h99q13 0 17 -5.5t4 -20.5v-49q0 -25 -21 -25h-99v-218q0 -46 12 -59t47 -13h49q15 0 19.5 -5t4.5 -21v-49q0 -15 -4 -20t-20 -5h-72q-82 0 -117 32q-38 35 -38 120v238h-60q-11 0 -15.5 4t-4.5 15v44q0 12 3.5 15.5t12.5 5.5l64 11v105q0 15 5.5 20t22.5 5 h63q17 0 22.5 -5t5.5 -20zM214 -63h21q47 0 47 -50v-18q0 -78 -70 -146q-14 -15 -28 -1l-19 18q-11 11 -2 22q30 35 38 53q3 7 -3 10q-17 9 -23.5 18.5t-6.5 29.5v20q0 21 12.5 32.5t33.5 11.5z" />
<glyph unicode="&#x164;" horiz-adv-x="482" d="M319 544v-519q0 -16 -5 -20.5t-22 -4.5h-72q-17 0 -22 4.5t-5 20.5v519h-140q-16 0 -20.5 5t-4.5 19v55q0 14 5 19t20 5h406q15 0 20 -5t5 -19v-55q0 -14 -4.5 -19t-20.5 -5h-140zM386 831l-92 -109q-10 -11 -25 -11h-57q-16 0 -25 11l-91 109q-14 15 2 29l28 21 q18 15 34 -2l78 -78h3l81 78q17 16 34 2l28 -21q16 -14 2 -29z" />
<glyph unicode="&#x165;" horiz-adv-x="362" d="M208 590v-100h99q13 0 17 -5.5t4 -20.5v-49q0 -25 -21 -25h-99v-218q0 -46 12 -59t47 -13h49q15 0 19.5 -5t4.5 -21v-49q0 -15 -4 -20t-20 -5h-72q-82 0 -117 32q-38 35 -38 120v238h-60q-11 0 -15.5 4t-4.5 15v44q0 12 3.5 15.5t12.5 5.5l64 11v105q0 15 5.5 20t22.5 5 h63q17 0 22.5 -5t5.5 -20zM307 763h21q47 0 47 -50v-18q0 -78 -70 -146q-15 -15 -28 -1l-19 18q-11 11 -2 22q30 35 38 53q3 7 -3 10q-17 9 -23.5 18.5t-6.5 29.5v20q0 21 12.5 32.5t33.5 11.5z" />
<glyph unicode="&#x166;" horiz-adv-x="482" d="M408 286h-104v-257q0 -17 -6 -23t-23 -6h-68q-17 0 -23 6t-6 23v257h-108q-24 0 -24 24v41q0 24 24 24h108v166h-140q-16 0 -20.5 5t-4.5 19v58q0 14 5 19t20 5h406q15 0 20 -5t5 -19v-58q0 -14 -4.5 -19t-20.5 -5h-140v-166h104q24 0 24 -24v-41q0 -24 -24 -24z" />
<glyph unicode="&#x167;" horiz-adv-x="362" d="M208 590v-100h99q13 0 17 -5.5t4 -20.5v-49q0 -25 -21 -25h-99v-88h99q13 0 17 -5.5t4 -20.5v-49q0 -25 -21 -25h-99v-30q0 -46 12 -59t47 -13h49q15 0 19.5 -5t4.5 -21v-49q0 -15 -4 -20t-20 -5h-72q-82 0 -117 32q-38 35 -38 120v50h-60q-11 0 -15.5 4t-4.5 15v44 q0 12 3.5 15.5t12.5 5.5l64 11v93h-60q-11 0 -15.5 4t-4.5 15v44q0 12 3.5 15.5t12.5 5.5l64 11v105q0 15 5.5 20t22.5 5h63q17 0 22.5 -5t5.5 -20z" />
<glyph unicode="&#x168;" horiz-adv-x="614" d="M554 622v-403q0 -116 -60 -172q-58 -56 -187 -56q-128 0 -186 56q-61 57 -61 172v403q0 16 5 20.5t22 4.5h72q17 0 22 -4.5t5 -20.5v-397q0 -70 27 -97q30 -33 94 -33q63 0 95 33q26 29 26 97v397q0 16 5 20.5t22 4.5h72q17 0 22 -4.5t5 -20.5zM179 715l-25 15 q-14 9 -6 29q38 84 102 84q31 0 61 -19l27 -17q23 -14 35 -14q21 0 43 35q10 16 28 3l22 -15q16 -11 7 -29q-44 -79 -106 -79q-30 0 -60 19l-27 18q-18 12 -30 12q-21 0 -43 -36q-10 -17 -28 -6z" />
<glyph unicode="&#x169;" horiz-adv-x="510" d="M455 465v-311q0 -94 -57 -131q-49 -32 -142 -32q-97 0 -144 32q-57 39 -57 131v311q0 15 5.5 20t22.5 5h63q17 0 22.5 -5t5.5 -20v-299q0 -46 22 -62q18 -13 60 -13q43 0 60 13q20 16 20 62v299q0 15 5.5 20t22.5 5h63q17 0 22.5 -5t5.5 -20zM125 563l-25 15q-14 9 -6 29 q38 84 102 84q31 0 61 -19l27 -17q23 -14 35 -14q21 0 43 35q10 16 28 3l22 -15q16 -11 7 -29q-44 -79 -106 -79q-30 0 -60 19l-27 18q-18 12 -30 12q-21 0 -43 -36q-10 -17 -28 -6z" />
<glyph unicode="&#x16a;" horiz-adv-x="614" d="M554 622v-403q0 -116 -60 -172q-58 -56 -187 -56q-128 0 -186 56q-61 57 -61 172v403q0 16 5 20.5t22 4.5h72q17 0 22 -4.5t5 -20.5v-397q0 -70 27 -97q30 -33 94 -33q63 0 95 33q26 29 26 97v397q0 16 5 20.5t22 4.5h72q17 0 22 -4.5t5 -20.5zM201 814h216q24 0 24 -24 v-37q0 -22 -24 -22h-216q-24 0 -24 24v35q0 24 24 24z" />
<glyph unicode="&#x16b;" horiz-adv-x="510" d="M455 465v-311q0 -94 -57 -131q-49 -32 -142 -32q-97 0 -144 32q-57 39 -57 131v311q0 15 5.5 20t22.5 5h63q17 0 22.5 -5t5.5 -20v-299q0 -46 22 -62q18 -13 60 -13q43 0 60 13q20 16 20 62v299q0 15 5.5 20t22.5 5h63q17 0 22.5 -5t5.5 -20zM148 662h216q24 0 24 -24 v-37q0 -22 -24 -22h-216q-24 0 -24 24v35q0 24 24 24z" />
<glyph unicode="&#x16c;" horiz-adv-x="614" d="M554 622v-403q0 -116 -60 -172q-58 -56 -187 -56q-128 0 -186 56q-61 57 -61 172v403q0 16 5 20.5t22 4.5h72q17 0 22 -4.5t5 -20.5v-397q0 -70 27 -97q30 -33 94 -33q63 0 95 33q26 29 26 97v397q0 16 5 20.5t22 4.5h72q17 0 22 -4.5t5 -20.5zM308 706q-57 0 -97 30 t-56 84q-4 11 -1.5 16.5t15.5 9.5l35 12q9 4 16 2t12 -14q27 -60 76 -60t76 60q5 12 12 14t16 -2l35 -12q13 -4 15.5 -9.5t-1.5 -16.5q-16 -54 -56 -84t-97 -30z" />
<glyph unicode="&#x16d;" horiz-adv-x="510" d="M455 465v-311q0 -94 -57 -131q-49 -32 -142 -32q-97 0 -144 32q-57 39 -57 131v311q0 15 5.5 20t22.5 5h63q17 0 22.5 -5t5.5 -20v-299q0 -46 22 -62q18 -13 60 -13q43 0 60 13q20 16 20 62v299q0 15 5.5 20t22.5 5h63q17 0 22.5 -5t5.5 -20zM256 551q-57 0 -97 30 t-56 84q-4 11 -1.5 16.5t15.5 9.5l35 12q9 4 16 2t12 -14q27 -60 76 -60t76 60q5 12 12 14t16 -2l35 -12q13 -4 15.5 -9.5t-1.5 -16.5q-16 -54 -56 -84t-97 -30z" />
<glyph unicode="&#x16e;" horiz-adv-x="614" d="M554 622v-403q0 -116 -60 -172q-58 -56 -187 -56q-128 0 -186 56q-61 57 -61 172v403q0 16 5 20.5t22 4.5h72q17 0 22 -4.5t5 -20.5v-397q0 -70 27 -97q30 -33 94 -33q63 0 95 33q26 29 26 97v397q0 16 5 20.5t22 4.5h72q17 0 22 -4.5t5 -20.5zM211 774q0 40 28.5 68.5 t68.5 28.5q41 0 69 -28t28 -69t-28 -69t-69 -28t-69 28t-28 69zM276 774q0 -14 9 -23.5t23 -9.5t23.5 9.5t9.5 23.5t-9.5 23t-23.5 9t-23 -9t-9 -23z" />
<glyph unicode="&#x16f;" horiz-adv-x="510" d="M455 465v-311q0 -94 -57 -131q-49 -32 -142 -32q-97 0 -144 32q-57 39 -57 131v311q0 15 5.5 20t22.5 5h63q17 0 22.5 -5t5.5 -20v-299q0 -46 22 -62q18 -13 60 -13q43 0 60 13q20 16 20 62v299q0 15 5.5 20t22.5 5h63q17 0 22.5 -5t5.5 -20zM159 632q0 40 28.5 68.5 t68.5 28.5q41 0 69 -28t28 -69t-28 -69t-69 -28t-69 28t-28 69zM224 632q0 -14 9 -23.5t23 -9.5t23.5 9.5t9.5 23.5t-9.5 23t-23.5 9t-23 -9t-9 -23z" />
<glyph unicode="&#x170;" horiz-adv-x="614" d="M554 622v-403q0 -116 -60 -172q-58 -56 -187 -56q-128 0 -186 56q-61 57 -61 172v403q0 16 5 20.5t22 4.5h72q17 0 22 -4.5t5 -20.5v-397q0 -70 27 -97q30 -33 94 -33q63 0 95 33q26 29 26 97v397q0 16 5 20.5t22 4.5h72q17 0 22 -4.5t5 -20.5zM165 758l140 129 q17 15 33 -4l39 -46q9 -11 7.5 -17.5t-13.5 -15.5l-143 -109q-22 -13 -39 5l-22 26q-15 19 -2 32zM370 758l140 129q17 15 33 -4l39 -46q9 -11 8 -17t-14 -16l-143 -109q-20 -16 -39 5l-22 26q-15 19 -2 32z" />
<glyph unicode="&#x171;" horiz-adv-x="510" d="M455 465v-311q0 -94 -57 -131q-49 -32 -142 -32q-97 0 -144 32q-57 39 -57 131v311q0 15 5.5 20t22.5 5h63q17 0 22.5 -5t5.5 -20v-299q0 -46 22 -62q18 -13 60 -13q43 0 60 13q20 16 20 62v299q0 15 5.5 20t22.5 5h63q17 0 22.5 -5t5.5 -20zM99 606l141 128q18 14 32 -3 l39 -47q10 -11 9 -18t-14 -16l-145 -106q-21 -14 -38 4l-22 27q-15 19 -2 31zM315 606l141 128q18 14 32 -3l39 -47q10 -11 9 -18t-14 -16l-145 -106q-21 -14 -38 4l-22 27q-15 19 -2 31z" />
<glyph unicode="&#x172;" horiz-adv-x="614" d="M554 618v-399q0 -116 -60 -172q-25 -24 -73 -42q-43 -14 -70 -45t-27 -62q0 -33 32 -33q25 0 47 9q17 7 20 -6l9 -34q3 -14 -14 -21q-33 -14 -79 -14q-101 0 -101 78q0 33 19.5 65t48.5 49q-127 0 -185 56q-61 57 -61 172v399q0 17 6 23t23 6h68q17 0 23 -6t6 -23v-393 q0 -70 27 -97q30 -33 94 -33q63 0 95 33q26 29 26 97v393q0 17 6 23t23 6h68q17 0 23 -6t6 -23z" />
<glyph unicode="&#x173;" horiz-adv-x="510" d="M455 465v-311q0 -94 -57 -131q-18 -12 -45 -22q-40 -15 -62 -44.5t-22 -56.5q0 -35 32 -35q25 0 47 9q17 7 20 -6l9 -34q3 -14 -14 -21q-33 -14 -75 -14q-105 0 -105 83q0 64 68 109q-94 2 -139 32q-57 39 -57 131v311q0 15 5.5 20t22.5 5h63q17 0 22.5 -5t5.5 -20v-299 q0 -46 22 -62q18 -13 60 -13q43 0 60 13q20 16 20 62v299q0 15 5.5 20t22.5 5h63q17 0 22.5 -5t5.5 -20z" />
<glyph unicode="&#x174;" horiz-adv-x="815" d="M374 611h67q20 0 28.5 -5.5t12.5 -21.5q12 -53 47 -218t51 -235h5q31 154 90 493q3 15 9.5 19t23.5 4h69q16 0 21.5 -5t3.5 -18q-79 -403 -126 -596q-4 -17 -15 -22.5t-36 -5.5h-71q-25 0 -36 5.5t-15 22.5q-48 183 -93 415h-5q-45 -232 -93 -415q-4 -17 -15 -22.5 t-36 -5.5h-71q-25 0 -36 5.5t-15 22.5q-47 193 -126 596q-2 13 3.5 18t21.5 5h69q17 0 23.5 -4t9.5 -19q59 -339 90 -493h5q16 70 51 235t47 218q4 16 12.5 21.5t28.5 5.5zM461 870l92 -109q14 -15 -2 -29l-28 -21q-17 -14 -34 2l-81 78h-3l-78 -78q-16 -17 -34 -2l-28 21 q-16 14 -2 29l91 109q9 11 25 11h57q15 0 25 -11z" />
<glyph unicode="&#x175;" horiz-adv-x="677" d="M668 467q-54 -274 -106 -441q-8 -26 -42 -26h-71q-34 0 -42 26q-37 129 -66 302h-5q-28 -164 -66 -302q-8 -26 -42 -26h-71q-32 0 -42 26q-56 189 -106 441q-4 23 23 23h67q25 0 28 -21q35 -210 67 -344h3q26 108 68 312q4 18 12 23.5t30 5.5h63q22 0 30 -5.5t12 -23.5 q42 -204 68 -312h3q36 157 67 344q3 21 28 21h67q27 0 23 -23zM391 708l92 -109q14 -15 -2 -29l-28 -21q-17 -14 -34 2l-81 78h-3l-78 -78q-16 -17 -34 -2l-28 21q-16 14 -2 29l91 109q9 11 25 11h57q15 0 25 -11z" />
<glyph unicode="&#x176;" horiz-adv-x="499" d="M312 209v-184q0 -16 -5 -20.5t-22 -4.5h-72q-17 0 -22 4.5t-5 20.5v184q-100 177 -172 417q-4 12 2 16.5t23 4.5h69q18 0 24 -3t9 -18q37 -160 105 -309h7q64 141 105 309q4 15 10 18t23 3h69q17 0 23 -4.5t2 -16.5q-73 -247 -173 -417zM303 870l92 -109q14 -15 -2 -29 l-28 -21q-17 -14 -34 2l-81 78h-3l-78 -78q-16 -17 -34 -2l-28 21q-16 14 -2 29l91 109q9 11 25 11h57q15 0 25 -11z" />
<glyph unicode="&#x177;" horiz-adv-x="458" d="M131 -135q48 101 61 133q-43 13 -61 67q-63 180 -120 402q-5 23 23 23h68q24 0 28 -21q46 -198 99 -366h4q63 182 96 366q4 21 28 21h67q28 0 23 -23q-70 -327 -213 -636q-8 -18 -20 -18q-11 0 -23 5l-49 20q-20 10 -11 27zM282 708l92 -109q14 -15 -2 -29l-28 -21 q-17 -14 -34 2l-81 78h-3l-78 -78q-16 -17 -34 -2l-28 21q-16 14 -2 29l91 109q9 11 25 11h57q15 0 25 -11z" />
<glyph unicode="&#x178;" horiz-adv-x="499" d="M312 209v-184q0 -16 -5 -20.5t-22 -4.5h-72q-17 0 -22 4.5t-5 20.5v184q-100 177 -172 417q-4 12 2 16.5t23 4.5h69q18 0 24 -3t9 -18q37 -160 105 -309h7q64 141 105 309q4 15 10 18t23 3h69q17 0 23 -4.5t2 -16.5q-73 -247 -173 -417zM164 847h10q25 0 40 -13.5 t15 -35.5v-24q0 -49 -55 -49h-10q-53 0 -53 49v24q0 22 14.5 35.5t38.5 13.5zM328 847h9q25 0 39.5 -13t14.5 -36v-24q0 -49 -54 -49h-9q-53 0 -53 49v24q0 22 14.5 35.5t38.5 13.5z" />
<glyph unicode="&#x179;" horiz-adv-x="511" d="M183 103h252q17 0 22 -5t5 -19v-55q0 -15 -5 -19.5t-22 -4.5h-369q-19 0 -26.5 6.5t-7.5 23.5v32q0 11 17 38l272 444h-241q-17 0 -22 5t-5 19v55q0 15 5 19.5t22 4.5h366q30 0 30 -25v-30q0 -16 -17 -45zM180 772l171 93q20 11 31 -8l29 -53q7 -13 4.5 -20t-16.5 -13 l-170 -71q-23 -9 -35 11l-18 31q-12 20 4 30z" />
<glyph unicode="&#x17a;" horiz-adv-x="413" d="M378 0h-324q-20 0 -27 5.5t-7 21.5v23q0 22 21 53l188 287h-177q-16 0 -20 5t-4 19v51q0 15 4 20t20 5h310q13 0 17.5 -4t4.5 -17v-26q0 -19 -25 -57l-186 -286h205q13 0 18 -5.5t5 -19.5v-51q0 -13 -5 -18.5t-18 -5.5zM128 608l160 111q19 13 31 -5l35 -50 q8 -12 6.5 -19t-14.5 -15l-162 -89q-22 -13 -36 7l-21 29q-14 21 1 31z" />
<glyph unicode="&#x17b;" horiz-adv-x="511" d="M183 103h252q17 0 22 -5t5 -19v-55q0 -15 -5 -19.5t-22 -4.5h-369q-19 0 -26.5 6.5t-7.5 23.5v32q0 11 17 38l272 444h-241q-17 0 -22 5t-5 19v55q0 15 5 19.5t22 4.5h366q30 0 30 -25v-30q0 -16 -17 -45zM198 794q0 27 19.5 47t47.5 20t47.5 -20t19.5 -47 q0 -28 -19.5 -48t-47.5 -20t-47.5 20t-19.5 48z" />
<glyph unicode="&#x17c;" horiz-adv-x="413" d="M378 0h-324q-20 0 -27 5.5t-7 21.5v23q0 22 21 53l188 287h-177q-16 0 -20 5t-4 19v51q0 15 4 20t20 5h310q13 0 17.5 -4t4.5 -17v-26q0 -19 -25 -57l-186 -286h205q13 0 18 -5.5t5 -19.5v-51q0 -13 -5 -18.5t-18 -5.5zM148 622q0 27 19.5 47t47.5 20t47.5 -20t19.5 -47 q0 -28 -19.5 -48t-47.5 -20t-47.5 20t-19.5 48z" />
<glyph unicode="&#x17d;" horiz-adv-x="511" d="M183 103h252q17 0 22 -5t5 -19v-55q0 -15 -5 -19.5t-22 -4.5h-369q-19 0 -26.5 6.5t-7.5 23.5v32q0 11 17 38l272 444h-241q-17 0 -22 5t-5 19v55q0 15 5 19.5t22 4.5h366q30 0 30 -25v-30q0 -16 -17 -45zM420 831l-92 -109q-10 -11 -25 -11h-57q-16 0 -25 11l-91 109 q-14 15 2 29l28 21q18 15 34 -2l78 -78h3l81 78q17 16 34 2l28 -21q16 -14 2 -29z" />
<glyph unicode="&#x17e;" horiz-adv-x="413" d="M378 0h-324q-20 0 -27 5.5t-7 21.5v23q0 22 21 53l188 287h-177q-16 0 -20 5t-4 19v51q0 15 4 20t20 5h310q13 0 17.5 -4t4.5 -17v-26q0 -19 -25 -57l-186 -286h205q13 0 18 -5.5t5 -19.5v-51q0 -13 -5 -18.5t-18 -5.5zM363 666l-92 -109q-10 -11 -25 -11h-57 q-16 0 -25 11l-91 109q-14 15 2 29l28 21q18 15 34 -2l78 -78h3l81 78q17 16 34 2l28 -21q16 -14 2 -29z" />
<glyph unicode="&#x17f;" horiz-adv-x="293" d="M209 517v-492q0 -15 -5.5 -20t-22.5 -5h-63q-17 0 -22.5 5t-5.5 20v365h-51q-14 0 -19.5 4.5t-5.5 17.5v42q0 12 3.5 15.5t16.5 5.5l56 10v39q0 52 9.5 79.5t32.5 47.5q40 35 131 35q51 0 89 -11q19 -5 15 -24l-9 -55q-3 -19 -23 -14q-26 7 -56 7q-36 0 -52 -11 q-18 -12 -18 -61z" />
<glyph unicode="&#x192;" d="M290 290l-24 -310q-6 -85 -46 -126q-42 -45 -133 -45q-41 0 -90 17q-22 8 -16 30l11 42q6 24 31 17q38 -12 59 -12q31 0 47 19q15 18 18 59l24 309h-51q-19 0 -17 25l3 35q2 15 7 21.5t18 8.5l47 7l9 111q8 105 51 146q45 42 126 42q51 0 96 -15q14 -4 16.5 -9.5 t-1.5 -20.5l-13 -47q-4 -13 -9 -16t-16 1q-33 11 -60 11q-35 0 -51.5 -22.5t-20.5 -80.5l-7 -97h100q16 0 21 -4.5t4 -21.5l-5 -55q-1 -12 -6.5 -15.5t-22.5 -3.5h-99z" />
<glyph unicode="&#x1cd;" horiz-adv-x="569" d="M291 519h-12q-31 -103 -77 -265h166q-46 162 -77 265zM173 149l-33 -123q-4 -16 -13.5 -21t-29.5 -5h-53q-13 0 -18.5 0.5t-13 3t-6.5 7.5t1 15q76 277 187 585q8 23 21 29.5t45 6.5h49q32 0 46 -7t22 -29q96 -264 185 -585q5 -18 -3 -22t-33 -4h-53q-20 0 -29.5 5 t-13.5 21l-33 123h-224zM430 831l-92 -109q-10 -11 -25 -11h-57q-16 0 -25 11l-91 109q-14 15 2 29l28 21q18 15 34 -2l78 -78h3l81 78q17 16 34 2l28 -21q16 -14 2 -29z" />
<glyph unicode="&#x1ce;" horiz-adv-x="490" d="M316 153v61q-34 2 -58 2h-35q-39 0 -52 -12q-15 -12 -15 -49v-12q0 -31 15 -45q14 -12 44 -12h36q34 0 49.5 16t15.5 51zM338 42h-2q-29 -51 -110 -51h-37q-72 0 -110 32q-43 37 -43 112v23q0 81 42 116q44 37 146 37h36q22 0 56 -2v27q0 37 -17 51q-18 14 -69 14 q-60 0 -123 -19q-20 -6 -25 16l-9 47q-6 24 15 30q74 24 151 24q97 0 144 -32q52 -36 52 -132v-316q0 -19 -21 -19h-46q-20 0 -24 18zM392 666l-92 -109q-10 -11 -25 -11h-57q-16 0 -25 11l-91 109q-14 15 2 29l28 21q18 15 34 -2l78 -78h3l81 78q17 16 34 2l28 -21 q16 -14 2 -29z" />
<glyph unicode="&#x1fa;" horiz-adv-x="569" d="M291 519h-12q-31 -103 -77 -265h166q-46 162 -77 265zM173 149l-33 -123q-4 -16 -13.5 -21t-29.5 -5h-53q-13 0 -18.5 0.5t-13 3t-6.5 7.5t1 15q76 277 187 585q8 23 21 29.5t45 6.5h49q32 0 46 -7t22 -29q96 -264 185 -585q5 -18 -3 -22t-33 -4h-53q-20 0 -29.5 5 t-13.5 21l-33 123h-224zM187 776q0 40 28.5 68.5t68.5 28.5q41 0 69 -28t28 -69t-28 -69t-69 -28t-69 28t-28 69zM252 776q0 -14 9 -23.5t23 -9.5t23.5 9.5t9.5 23.5t-9.5 23t-23.5 9t-23 -9t-9 -23zM184 963l160 111q19 13 31 -5l35 -50q8 -12 6.5 -19t-14.5 -15l-162 -89 q-22 -13 -36 7l-21 29q-14 21 1 31z" />
<glyph unicode="&#x1fb;" horiz-adv-x="490" d="M316 153v61q-34 2 -58 2h-35q-39 0 -52 -12q-15 -12 -15 -49v-12q0 -31 15 -45q14 -12 44 -12h36q34 0 49.5 16t15.5 51zM338 42h-2q-29 -51 -110 -51h-37q-72 0 -110 32q-43 37 -43 112v23q0 81 42 116q44 37 146 37h36q22 0 56 -2v27q0 37 -17 51q-18 14 -69 14 q-60 0 -123 -19q-20 -6 -25 16l-9 47q-6 24 15 30q74 24 151 24q97 0 144 -32q52 -36 52 -132v-316q0 -19 -21 -19h-46q-20 0 -24 18zM151 623q0 41 28.5 69t68.5 28q41 0 69 -28t28 -69t-28 -69t-69 -28t-69 28t-28 69zM216 623q0 -14 9 -23.5t23 -9.5t23.5 9.5t9.5 23.5 t-9.5 23t-23.5 9t-23 -9.5t-9 -22.5zM159 810l171 93q20 11 31 -8l29 -53q7 -13 4.5 -20t-16.5 -13l-170 -71q-23 -9 -35 11l-18 31q-12 20 4 30z" />
<glyph unicode="&#x1fc;" horiz-adv-x="837" d="M739 282h-216v-151q0 -16 7.5 -22t24.5 -6h216q17 0 21.5 -4.5t4.5 -19.5v-55q0 -14 -4.5 -19t-21.5 -5h-229q-78 0 -107 24q-35 29 -35 92v33h-198l-59 -123q-8 -16 -18 -21t-30 -5h-53q-17 0 -23 1t-12 6.5t3 18.5q148 304 302 585q12 22 27 29t47 7h386q17 0 21 -4.5 t4 -19.5v-55q0 -14 -4.5 -19t-20.5 -5h-249v-159h216q17 0 21 -4.5t4 -19.5v-55q0 -14 -4.5 -19t-20.5 -5zM391 545q-24 -47 -71.5 -150t-66.5 -141h147v291h-9zM461 772l171 93q20 11 31 -8l29 -53q7 -13 4.5 -20t-16.5 -13l-170 -71q-23 -9 -35 11l-18 31q-12 20 4 30z " />
<glyph unicode="&#x1fd;" horiz-adv-x="753" d="M714 285v-68q0 -16 -6 -22.5t-21 -6.5h-250q1 -59 25 -80q22 -20 88 -20q59 0 108 21q21 9 28 -16l13 -48q3 -11 -0.5 -17t-17.5 -11q-68 -26 -145 -26q-115 0 -159 67q-40 -67 -151 -67h-37q-72 0 -110 32q-43 37 -43 112v23q0 81 42 116q44 37 146 37h36q22 0 56 -2v27 q0 37 -17 51q-18 14 -69 14q-60 0 -123 -19q-20 -6 -25 16l-9 47q-6 24 15 30q74 24 147 24q115 0 151 -52q44 52 136 52q91 0 141 -45q51 -46 51 -169zM316 153v61q-34 2 -58 2h-35q-39 0 -52 -12q-15 -12 -15 -49v-12q0 -31 15 -45q14 -12 44 -12h36q34 0 49.5 16t15.5 51 zM518 404q-38 0 -57 -20q-26 -27 -26 -102h147q13 0 13 14q0 67 -19 89q-18 19 -58 19zM318 608l160 111q19 13 31 -5l35 -50q8 -12 6.5 -19t-14.5 -15l-162 -89q-22 -13 -36 7l-21 29q-14 21 1 31z" />
<glyph unicode="&#x1fe;" horiz-adv-x="618" d="M570 344v-41q0 -172 -74 -247q-63 -65 -187 -65q-73 0 -120 18l-33 -59q-12 -23 -39 -8l-26 14q-15 8 -17 15.5t6 20.5l37 67q-69 77 -69 244v41q0 169 72 247q62 65 189 65q74 0 125 -23l38 68q12 23 39 8l26 -14q15 -8 17 -15.5t-6 -20.5l-43 -78q65 -76 65 -237z M177 313q0 -88 10 -126l194 349q-28 16 -72 16q-71 0 -99 -41q-33 -48 -33 -177v-21zM441 313v21q0 70 -9 115l-189 -342q25 -12 66 -12q71 0 99 41q33 49 33 177zM213 772l171 93q20 11 31 -8l29 -53q7 -13 4.5 -20t-16.5 -13l-170 -71q-23 -9 -35 11l-18 31q-12 20 4 30z " />
<glyph unicode="&#x1ff;" horiz-adv-x="500" d="M250 499q52 0 91 -14l30 54q12 23 39 8l14 -8q15 -8 17 -15.5t-6 -20.5l-32 -57l6 -6q51 -58 51 -180v-30q0 -122 -51 -180q-53 -59 -159 -59q-49 0 -90 13l-28 -50q-12 -23 -39 -8l-14 8q-15 8 -17 15.5t6 20.5l29 53l-6 7q-51 58 -51 180v30q0 122 51 180q51 59 159 59 zM161 235q0 -52 3 -71l129 233q-15 7 -43 7q-46 0 -67 -27q-22 -28 -22 -121v-21zM250 86q45 0 67 27q22 28 22 122v21q0 38 -3 67l-127 -230q14 -7 41 -7zM164 608l160 111q19 13 31 -5l35 -50q8 -12 6.5 -19t-14.5 -15l-162 -89q-22 -13 -36 7l-21 29q-14 21 1 31z" />
<glyph unicode="&#x218;" horiz-adv-x="510" d="M234 -9q-83 0 -172 29q-15 5 -19.5 11.5t-1.5 20.5l11 58q4 25 28 16q83 -31 151 -31q71 0 97 22q20 16 20 64v8q0 38 -12 53q-15 18 -68 31l-69 15q-89 20 -122 57q-38 41 -38 122v13q0 94 58 138q52 38 165 38q88 0 161 -23q13 -4 16.5 -10t0.5 -19l-15 -63 q-4 -21 -31 -12q-72 23 -129 23q-58 0 -80 -15q-23 -16 -23 -60v-8q0 -35 16 -51q17 -17 67 -27l73 -15q89 -19 123 -61q30 -38 30 -115v-15q0 -99 -54 -147q-53 -47 -183 -47zM251 -63h21q47 0 47 -50v-18q0 -78 -70 -146q-15 -15 -28 -1l-19 18q-11 11 -2 22q30 35 38 53 q3 7 -3 10q-17 9 -23.5 18.5t-6.5 29.5v20q0 21 12.5 32.5t33.5 11.5z" />
<glyph unicode="&#x219;" horiz-adv-x="433" d="M206 -9q-84 0 -153 29q-13 5 -16 11t0 19l11 49q6 24 28 15q67 -26 120 -26q48 0 65 12q17 11 17 39v7q0 23 -13 33.5t-45 18.5l-60 14q-60 14 -88 45q-30 33 -30 92v9q0 73 44 108q42 33 135 33q78 0 134 -20q10 -4 12.5 -8.5t0.5 -15.5l-12 -56q-4 -19 -25 -13 q-46 16 -97 16q-47 0 -62 -11q-14 -10 -14 -32v-7q0 -21 12 -30t39 -15l62 -14q72 -17 101 -54q22 -30 22 -83v-12q0 -69 -40 -108q-48 -45 -148 -45zM208 -63h21q47 0 47 -50v-18q0 -78 -70 -146q-14 -15 -28 -1l-19 18q-11 11 -2 22q30 35 38 53q3 7 -3 10 q-17 9 -23.5 18.5t-6.5 29.5v20q0 21 12.5 32.5t33.5 11.5z" />
<glyph unicode="&#x21a;" horiz-adv-x="482" d="M319 544v-519q0 -16 -5 -20.5t-22 -4.5h-72q-17 0 -22 4.5t-5 20.5v519h-140q-16 0 -20.5 5t-4.5 19v55q0 14 5 19t20 5h406q15 0 20 -5t5 -19v-55q0 -14 -4.5 -19t-20.5 -5h-140zM229 -63h21q47 0 47 -50v-18q0 -78 -70 -146q-15 -15 -28 -1l-19 18q-11 11 -2 22 q30 35 38 53q3 7 -3 10q-17 9 -23.5 18.5t-6.5 29.5v20q0 21 12.5 32.5t33.5 11.5z" />
<glyph unicode="&#x21b;" horiz-adv-x="362" d="M208 590v-100h99q13 0 17 -5.5t4 -20.5v-49q0 -25 -21 -25h-99v-218q0 -46 12 -59t47 -13h49q15 0 19.5 -5t4.5 -21v-49q0 -15 -4 -20t-20 -5h-72q-82 0 -117 32q-38 35 -38 120v238h-60q-11 0 -15.5 4t-4.5 15v44q0 12 3.5 15.5t12.5 5.5l64 11v105q0 15 5.5 20t22.5 5 h63q17 0 22.5 -5t5.5 -20zM214 -63h21q47 0 47 -50v-18q0 -78 -70 -146q-14 -15 -28 -1l-19 18q-11 11 -2 22q30 35 38 53q3 7 -3 10q-17 9 -23.5 18.5t-6.5 29.5v20q0 21 12.5 32.5t33.5 11.5z" />
<glyph unicode="&#x2c6;" horiz-adv-x="370" d="M238 708l92 -109q14 -15 -2 -29l-28 -21q-17 -14 -34 2l-81 78h-3l-78 -78q-16 -17 -34 -2l-28 21q-16 14 -2 29l91 109q9 11 25 11h57q15 0 25 -11z" />
<glyph unicode="&#x2c7;" horiz-adv-x="370" d="M330 666l-92 -109q-10 -11 -25 -11h-57q-16 0 -25 11l-91 109q-14 15 2 29l28 21q18 15 34 -2l78 -78h3l81 78q17 16 34 2l28 -21q16 -14 2 -29z" />
<glyph unicode="&#x2d8;" horiz-adv-x="370" d="M185 551q-57 0 -97 30t-56 84q-4 11 -1.5 16.5t15.5 9.5l35 12q9 4 16 2t12 -14q27 -60 76 -60t76 60q5 12 12 14t16 -2l35 -12q13 -4 15.5 -9.5t-1.5 -16.5q-16 -54 -56 -84t-97 -30z" />
<glyph unicode="&#x2d9;" horiz-adv-x="370" d="M118 622q0 27 19.5 47t47.5 20t47.5 -20t19.5 -47q0 -28 -19.5 -48t-47.5 -20t-47.5 20t-19.5 48z" />
<glyph unicode="&#x2da;" horiz-adv-x="370" d="M88 632q0 40 28 68.5t69 28.5t69 -28t28 -69t-28 -69t-69 -28t-69 28t-28 69zM153 632q0 -14 9 -23.5t23 -9.5t23.5 9.5t9.5 23.5t-9.5 23t-23.5 9q-13 0 -22.5 -9t-9.5 -23z" />
<glyph unicode="&#x2db;" horiz-adv-x="370" d="M217 5h38q4 0 6 -2t1.5 -4.5t-3.5 -4.5q-63 -51 -63 -100q0 -29 32 -29q25 0 47 9q17 7 20 -6l9 -34q3 -14 -14 -21q-33 -14 -75 -14q-105 0 -105 83q0 33 22 64.5t59 52.5q11 6 26 6z" />
<glyph unicode="&#x2dc;" horiz-adv-x="370" d="M53 563l-25 15q-14 9 -6 29q38 84 102 84q31 0 61 -19l27 -17q23 -14 35 -14q21 0 43 35q10 16 28 3l22 -15q16 -11 7 -29q-44 -79 -106 -79q-30 0 -60 19l-27 18q-18 12 -30 12q-21 0 -43 -36q-10 -17 -28 -6z" />
<glyph unicode="&#x2dd;" horiz-adv-x="370" d="M29 606l141 128q18 14 32 -3l39 -47q10 -11 9 -18t-14 -16l-145 -106q-21 -14 -38 4l-22 27q-15 19 -2 31zM245 606l141 128q18 14 32 -3l39 -47q10 -11 9 -18t-14 -16l-145 -106q-21 -14 -38 4l-22 27q-15 19 -2 31z" />
<glyph unicode="&#x394;" horiz-adv-x="602" d="M170 108h263q-63 198 -130 375h-5q-73 -207 -128 -375zM539 0h-476q-18 0 -25.5 7t-7.5 22v46q0 17 18 69q103 298 176 476q11 27 38 27h83q23 0 33 -26q97 -240 176 -477q18 -52 18 -69v-46q0 -15 -7.5 -22t-25.5 -7z" />
<glyph unicode="&#x3a9;" horiz-adv-x="616" d="M308 552q-60 0 -91 -33q-41 -43 -41 -157v-27q0 -135 82 -222q16 -17 16 -30v-68q0 -15 -15 -15h-213q-21 0 -21 22v61q0 20 21 20h90v3q-89 76 -89 224v42q0 145 67 219q60 65 194 65t194 -65q67 -74 67 -219v-42q0 -148 -89 -224v-3h90q21 0 21 -20v-61q0 -22 -21 -22 h-213q-15 0 -15 15v68q0 13 16 30q82 87 82 222v27q0 114 -41 157q-31 33 -91 33z" />
<glyph unicode="&#x3bc;" horiz-adv-x="542" d="M161 12v-164q0 -15 -5.5 -20t-22.5 -5h-63q-17 0 -22.5 5t-5.5 20v617q0 15 5.5 20t22.5 5h63q17 0 22.5 -5t5.5 -20v-289q0 -52 19 -68q20 -17 61 -17t61 15q21 17 21 70v289q0 15 5.5 20t22.5 5h63q17 0 22.5 -5t5.5 -20v-328q0 -46 29 -46q15 0 27 4q22 7 25 -16 l6 -50q3 -17 -15 -25q-28 -13 -69 -13q-78 0 -101 46h-2q-33 -46 -105 -46q-49 0 -76 21z" />
<glyph unicode="&#x3c0;" horiz-adv-x="588" d="M472 384v-231q0 -37 6.5 -50t25.5 -13q16 0 39 6q15 3 16 -10l7 -62q1 -13 -11 -19q-34 -14 -94 -14q-62 0 -88.5 30t-26.5 102v261h-113v-355q0 -17 -6 -23t-23 -6h-68q-17 0 -23 6t-6 23v355h-69q-16 0 -20.5 5t-4.5 19v58q0 14 5 19t20 5h512q15 0 20 -5t5 -19v-58 q0 -14 -5.5 -19t-19.5 -5h-78z" />
<glyph unicode="&#x1e80;" horiz-adv-x="815" d="M374 611h67q20 0 28.5 -5.5t12.5 -21.5q12 -53 47 -218t51 -235h5q31 154 90 493q3 15 9.5 19t23.5 4h69q16 0 21.5 -5t3.5 -18q-79 -403 -126 -596q-4 -17 -15 -22.5t-36 -5.5h-71q-25 0 -36 5.5t-15 22.5q-48 183 -93 415h-5q-45 -232 -93 -415q-4 -17 -15 -22.5 t-36 -5.5h-71q-25 0 -36 5.5t-15 22.5q-47 193 -126 596q-2 13 3.5 18t21.5 5h69q17 0 23.5 -4t9.5 -19q59 -339 90 -493h5q16 70 51 235t47 218q4 16 12.5 21.5t28.5 5.5zM323 865l171 -93q15 -9 4 -30l-18 -31q-11 -23 -35 -11l-170 71q-14 7 -16.5 13.5t4.5 19.5l29 53 q11 19 31 8z" />
<glyph unicode="&#x1e81;" horiz-adv-x="677" d="M668 467q-54 -274 -106 -441q-8 -26 -42 -26h-71q-34 0 -42 26q-37 129 -66 302h-5q-28 -164 -66 -302q-8 -26 -42 -26h-71q-32 0 -42 26q-56 189 -106 441q-4 23 23 23h67q25 0 28 -21q35 -210 67 -344h3q26 108 68 312q4 18 12 23.5t30 5.5h63q22 0 30 -5.5t12 -23.5 q42 -204 68 -312h3q36 157 67 344q3 21 28 21h67q27 0 23 -23zM282 719l160 -111q15 -10 1 -31l-21 -29q-14 -20 -36 -7l-162 89q-13 8 -14.5 15t6.5 19l35 50q12 18 31 5z" />
<glyph unicode="&#x1e82;" horiz-adv-x="815" d="M374 611h67q20 0 28.5 -5.5t12.5 -21.5q12 -53 47 -218t51 -235h5q31 154 90 493q3 15 9.5 19t23.5 4h69q16 0 21.5 -5t3.5 -18q-79 -403 -126 -596q-4 -17 -15 -22.5t-36 -5.5h-71q-25 0 -36 5.5t-15 22.5q-48 183 -93 415h-5q-45 -232 -93 -415q-4 -17 -15 -22.5 t-36 -5.5h-71q-25 0 -36 5.5t-15 22.5q-47 193 -126 596q-2 13 3.5 18t21.5 5h69q17 0 23.5 -4t9.5 -19q59 -339 90 -493h5q16 70 51 235t47 218q4 16 12.5 21.5t28.5 5.5zM319 772l171 93q20 11 31 -8l29 -53q7 -13 4.5 -20t-16.5 -13l-170 -71q-23 -9 -35 11l-18 31 q-12 20 4 30z" />
<glyph unicode="&#x1e83;" horiz-adv-x="677" d="M668 467q-54 -274 -106 -441q-8 -26 -42 -26h-71q-34 0 -42 26q-37 129 -66 302h-5q-28 -164 -66 -302q-8 -26 -42 -26h-71q-32 0 -42 26q-56 189 -106 441q-4 23 23 23h67q25 0 28 -21q35 -210 67 -344h3q26 108 68 312q4 18 12 23.5t30 5.5h63q22 0 30 -5.5t12 -23.5 q42 -204 68 -312h3q36 157 67 344q3 21 28 21h67q27 0 23 -23zM245 608l160 111q19 13 31 -5l35 -50q8 -12 6.5 -19t-14.5 -15l-162 -89q-22 -13 -36 7l-21 29q-14 21 1 31z" />
<glyph unicode="&#x1e84;" horiz-adv-x="815" d="M374 611h67q20 0 28.5 -5.5t12.5 -21.5q12 -53 47 -218t51 -235h5q31 154 90 493q3 15 9.5 19t23.5 4h69q16 0 21.5 -5t3.5 -18q-79 -403 -126 -596q-4 -17 -15 -22.5t-36 -5.5h-71q-25 0 -36 5.5t-15 22.5q-48 183 -93 415h-5q-45 -232 -93 -415q-4 -17 -15 -22.5 t-36 -5.5h-71q-25 0 -36 5.5t-15 22.5q-47 193 -126 596q-2 13 3.5 18t21.5 5h69q17 0 23.5 -4t9.5 -19q59 -339 90 -493h5q16 70 51 235t47 218q4 16 12.5 21.5t28.5 5.5zM321 847h10q25 0 40 -13.5t15 -35.5v-24q0 -49 -55 -49h-10q-53 0 -53 49v24q0 22 14.5 35.5 t38.5 13.5zM485 847h9q25 0 39.5 -13t14.5 -36v-24q0 -49 -54 -49h-9q-53 0 -53 49v24q0 22 14.5 35.5t38.5 13.5z" />
<glyph unicode="&#x1e85;" horiz-adv-x="677" d="M668 467q-54 -274 -106 -441q-8 -26 -42 -26h-71q-34 0 -42 26q-37 129 -66 302h-5q-28 -164 -66 -302q-8 -26 -42 -26h-71q-32 0 -42 26q-56 189 -106 441q-4 23 23 23h67q25 0 28 -21q35 -210 67 -344h3q26 108 68 312q4 18 12 23.5t30 5.5h63q22 0 30 -5.5t12 -23.5 q42 -204 68 -312h3q36 157 67 344q3 21 28 21h67q27 0 23 -23zM251 693h10q25 0 40 -13.5t15 -35.5v-24q0 -49 -55 -49h-10q-53 0 -53 49v24q0 22 14.5 35.5t38.5 13.5zM415 693h9q25 0 39.5 -13t14.5 -36v-24q0 -49 -54 -49h-9q-53 0 -53 49v24q0 22 14.5 35.5t38.5 13.5z " />
<glyph unicode="&#x1ef2;" horiz-adv-x="499" d="M312 209v-184q0 -16 -5 -20.5t-22 -4.5h-72q-17 0 -22 4.5t-5 20.5v184q-100 177 -172 417q-4 12 2 16.5t23 4.5h69q18 0 24 -3t9 -18q37 -160 105 -309h7q64 141 105 309q4 15 10 18t23 3h69q17 0 23 -4.5t2 -16.5q-73 -247 -173 -417zM176 865l171 -93q15 -9 4 -30 l-18 -31q-11 -23 -35 -11l-170 71q-14 7 -16.5 13.5t4.5 19.5l29 53q11 19 31 8z" />
<glyph unicode="&#x1ef3;" horiz-adv-x="458" d="M131 -135q48 101 61 133q-43 13 -61 67q-63 180 -120 402q-5 23 23 23h68q24 0 28 -21q46 -198 99 -366h4q63 182 96 366q4 21 28 21h67q28 0 23 -23q-70 -327 -213 -636q-8 -18 -20 -18q-11 0 -23 5l-49 20q-20 10 -11 27zM162 719l160 -111q15 -10 1 -31l-21 -29 q-14 -20 -36 -7l-162 89q-13 8 -14.5 15t6.5 19l35 50q12 18 31 5z" />
<glyph unicode="&#x2013;" horiz-adv-x="500" d="M38 313h423q23 0 31 -8.5t8 -28.5v-36q0 -19 -8 -27t-31 -8h-423q-24 0 -31 8.5t-7 28.5v34q0 19 7.5 28t30.5 9z" />
<glyph unicode="&#x2014;" horiz-adv-x="1000" d="M39 313h922q23 0 31 -8.5t8 -28.5v-36q0 -19 -8 -27t-31 -8h-922q-23 0 -31 8t-8 27v36q0 20 8 28.5t31 8.5z" />
<glyph unicode="&#x2018;" horiz-adv-x="255" d="M135 423h-19q-66 0 -66 63v19q0 42 27 104.5t64 105.5q9 11 16 12t22 -7l25 -14q23 -13 9 -30q-21 -29 -43 -67q-18 -31 -1 -42l11 -7q22 -13 22 -49v-30q0 -58 -67 -58z" />
<glyph unicode="&#x2019;" horiz-adv-x="255" d="M120 726h19q66 0 66 -63v-19q0 -42 -27 -104.5t-64 -105.5q-9 -11 -16 -12t-22 7l-25 14q-23 13 -9 30q21 28 43 67q18 31 1 42l-11 7q-22 13 -22 49v30q0 58 67 58z" />
<glyph unicode="&#x201a;" horiz-adv-x="255" d="M120 132h19q66 0 66 -63v-19q0 -42 -27 -104.5t-64 -105.5q-9 -11 -16 -12t-22 7l-25 14q-23 13 -9 30q21 29 43 67q18 31 1 42l-11 7q-22 13 -22 49v30q0 58 67 58z" />
<glyph unicode="&#x201c;" horiz-adv-x="469" d="M135 423h-19q-66 0 -66 63v19q0 42 27 104.5t64 105.5q9 11 16 12t22 -7l25 -14q23 -13 9 -30q-21 -29 -43 -67q-18 -31 -1 -42l11 -7q22 -13 22 -49v-30q0 -58 -67 -58zM349 423h-19q-66 0 -66 63v19q0 42 27 104.5t64 105.5q9 11 16 12t22 -7l25 -14q23 -13 9 -30 q-21 -29 -43 -67q-18 -31 -1 -42l11 -7q22 -13 22 -49v-30q0 -58 -67 -58z" />
<glyph unicode="&#x201d;" horiz-adv-x="469" d="M120 731h19q66 0 66 -63v-19q0 -42 -27 -104.5t-64 -105.5q-9 -11 -16 -12t-22 7l-25 14q-23 13 -9 30q21 29 43 67q18 31 1 42l-11 7q-22 13 -22 49v30q0 58 67 58zM334 731h19q66 0 66 -63v-19q0 -42 -27 -104.5t-64 -105.5q-9 -11 -16 -12t-22 7l-25 14q-23 13 -9 30 q21 29 43 67q18 31 1 42l-11 7q-22 13 -22 49v30q0 58 67 58z" />
<glyph unicode="&#x201e;" horiz-adv-x="469" d="M120 132h19q66 0 66 -63v-19q0 -42 -27 -104.5t-64 -105.5q-9 -11 -16 -12t-22 7l-25 14q-23 13 -9 30q21 29 43 67q18 31 1 42l-11 7q-22 13 -22 49v30q0 58 67 58zM334 132h19q66 0 66 -63v-19q0 -42 -27 -104.5t-64 -105.5q-9 -11 -16 -12t-22 7l-25 14q-23 13 -9 30 q21 29 43 67q18 31 1 42l-11 7q-22 13 -22 49v30q0 58 67 58z" />
<glyph unicode="&#x2020;" horiz-adv-x="411" d="M357 375l-91 3l-4 -351q0 -27 -33 -27h-49q-18 0 -24.5 6t-6.5 21l-5 350l-90 -2q-13 0 -19.5 0.5t-9 8t-2.5 9.5v19v34v6q0 14 1 19.5t8 8.5t22 3l89 -2l-2 145q0 18 6.5 23t32.5 5h50q27 0 33 -5t6 -23l-2 -145l90 2h9t7 -0.5t5.5 -2t4 -2t2.5 -3.5t1.5 -3.5t1 -5 t0.5 -5.5v-7v-8v-34v-8v-7t-0.5 -5.5t-1 -5.5t-1.5 -4t-2.5 -3t-4 -1.5t-5.5 -2t-7 -0.5h-9z" />
<glyph unicode="&#x2021;" horiz-adv-x="411" d="M265 302l84 2h9t7 -0.5t5.5 -2t4 -2t2.5 -3.5t1.5 -3.5t1 -5t0.5 -5.5v-7v-8v-34v-8v-7t-0.5 -5.5t-1 -5.5t-1.5 -4t-2.5 -3t-4 -1.5t-5.5 -2t-7 -0.5h-9l-85 2l-2 -171q0 -27 -33 -27h-49q-18 0 -24.5 6t-6.5 21l-3 171l-85 -2q-13 0 -19.5 0.5t-9 8t-2.5 9.5v19v34v6 q0 14 1 19.5t8 8.5t22 3l84 -2l-1 75l-90 -2q-13 0 -19.5 0.5t-9 8t-2.5 9.5v19v34v6q0 14 1 19.5t8 8.5t22 3l89 -2l-2 145q0 18 6.5 23t32.5 5h50q27 0 33 -5t6 -23l-2 -145l90 2h9t7 -0.5t5.5 -2t4 -2t2.5 -3.5t1.5 -3.5t1 -5t0.5 -5.5v-7v-8v-34v-8v-7t-0.5 -5.5 t-1 -5.5t-1.5 -4t-2.5 -3t-4 -1.5t-5.5 -2t-7 -0.5h-9l-91 2z" />
<glyph unicode="&#x2022;" horiz-adv-x="311" d="M36 261q0 50 34.5 85t84.5 35t85 -35t35 -85t-35 -84.5t-85 -34.5t-84.5 34.5t-34.5 84.5z" />
<glyph unicode="&#x2026;" horiz-adv-x="630" d="M174 71v-16q0 -64 -63 -64h-11q-34 0 -49 15.5t-15 48.5v16q0 63 64 63h11q63 0 63 -63zM384 71v-16q0 -64 -63 -64h-11q-34 0 -49 15.5t-15 48.5v16q0 63 64 63h11q63 0 63 -63zM594 71v-16q0 -64 -63 -64h-11q-34 0 -49 15.5t-15 48.5v16q0 63 64 63h11q63 0 63 -63z " />
<glyph unicode="&#x2030;" horiz-adv-x="1226" d="M359 477v-10q0 -100 -45 -144q-37 -35 -103 -35t-103 35q-45 43 -45 144v10q0 102 45 145q37 34 103 34t103 -34q45 -44 45 -145zM244 468v8q0 50 -7.5 68.5t-25.5 18.5q-19 0 -26.5 -18.5t-7.5 -68.5v-8q0 -50 7.5 -68.5t26.5 -18.5q18 0 25.5 18.5t7.5 68.5zM207 27 l353 606q13 23 43 23h60q36 0 16 -36l-353 -606q-13 -23 -43 -23h-60q-36 0 -16 36zM827 180v-10q0 -100 -45 -144q-37 -35 -103 -35t-103 35q-45 43 -45 144v10q0 102 45 145q37 34 103 34t103 -34q45 -44 45 -145zM712 171v8q0 50 -7.5 68.5t-25.5 18.5q-19 0 -26.5 -18.5 t-7.5 -68.5v-8q0 -50 7.5 -68.5t26.5 -18.5q18 0 25.5 18.5t7.5 68.5zM1163 180v-10q0 -100 -45 -144q-37 -35 -103 -35t-103 35q-45 43 -45 144v10q0 102 45 145q37 34 103 34t103 -34q45 -44 45 -145zM1048 171v8q0 50 -7.5 68.5t-25.5 18.5q-19 0 -26.5 -18.5t-7.5 -68.5 v-8q0 -50 7.5 -68.5t26.5 -18.5q18 0 25.5 18.5t7.5 68.5z" />
<glyph unicode="&#x2039;" horiz-adv-x="319" d="M163 233l110 -100q17 -17 15.5 -27.5t-16.5 -24.5l-24 -21q-14 -13 -25.5 -12t-29.5 15l-154 127q-19 16 -19 39v8q0 23 19 39l154 126q17 14 28.5 15t26.5 -11l24 -21q28 -26 1 -50z" />
<glyph unicode="&#x203a;" horiz-adv-x="319" d="M46 133l110 100l-110 102q-27 24 1 50l24 21q15 12 26.5 11t28.5 -15l154 -126q19 -16 19 -39v-8q0 -23 -19 -39l-154 -127q-18 -14 -29.5 -15t-25.5 12l-24 21q-15 14 -16.5 24.5t15.5 27.5z" />
<glyph unicode="&#x2044;" horiz-adv-x="150" d="M-181 22l374 614q13 20 39 20h59q22 0 27.5 -7t-4.5 -24l-374 -614q-13 -20 -39 -20h-65q-36 0 -17 31z" />
<glyph unicode="&#x20ac;" d="M357 656q91 0 172 -45q15 -8 7 -29l-28 -58q-8 -19 -26 -8q-61 36 -128 36q-50 0 -79 -29q-25 -25 -33 -88h178q19 0 23 -6.5t4 -30.5v-19q0 -23 -4 -29t-23 -6h-183v-61h183q19 0 23 -6.5t4 -30.5v-17q0 -23 -4 -29t-23 -6h-174q7 -40 26 -62q31 -37 105 -37 q60 0 118 24q11 4 15.5 0.5t7.5 -17.5l11 -48q6 -26 -10 -33q-67 -30 -150 -30q-136 0 -194 58q-48 46 -61 145h-62q-19 0 -23 6t-4 29v17q0 24 4 30.5t23 6.5h57v60v1h-57q-19 0 -23 6t-4 29v19q0 24 4 30.5t23 6.5h61q13 118 83 174q60 47 161 47z" />
<glyph unicode="&#x2113;" horiz-adv-x="459" d="M234 320q79 65 79 166q0 67 -38 67q-41 0 -41 -74v-159zM234 203v-53q0 -58 45 -58q37 0 96 48q17 14 29 -4l30 -45q10 -15 -6 -29q-84 -71 -179 -71q-141 0 -141 136v22q-30 -18 -50 -26t-28 13l-21 50q-8 19 15 29q46 20 84 43v214q0 96 40 138t131 42q75 0 117.5 -44 t42.5 -119q0 -167 -205 -286z" />
<glyph unicode="&#x2116;" horiz-adv-x="938" d="M653 81h227q15 0 15 -15v-53q0 -13 -15 -13h-227q-15 0 -15 15v51q0 15 15 15zM68 25v597q0 16 5 20.5t22 4.5h60q34 0 49 -24l249 -412h4v411q0 16 5 20.5t22 4.5h63q17 0 22 -4.5t5 -20.5v-597q0 -16 -5 -20.5t-22 -4.5h-60q-34 0 -49 24l-249 403h-4v-402 q0 -16 -5 -20.5t-22 -4.5h-63q-17 0 -22 4.5t-5 20.5zM718 286v-6q0 -47 10.5 -64.5t37.5 -17.5q26 0 36.5 17.5t10.5 64.5v6q0 47 -10.5 65t-36.5 18q-27 0 -37.5 -18t-10.5 -65zM900 296v-24q0 -79 -31 -114t-103 -35t-103 35t-31 114v24q0 79 31 113.5t103 34.5 t103 -34.5t31 -113.5z" />
<glyph unicode="&#x2122;" horiz-adv-x="759" d="M59 654h220q12 0 16.5 -4.5t4.5 -16.5v-32q0 -12 -5 -16.5t-18 -4.5h-62v-218q0 -21 -28 -21h-38q-27 0 -27 21v218h-61q-13 0 -18 4.5t-5 16.5v32q0 12 4.5 16.5t16.5 4.5zM540 372h-48q-29 0 -34 20q-22 84 -39 173h-3q-4 -89 -4 -203q0 -21 -27 -21h-42q-26 0 -26 21 q3 144 15 265q1 17 7 22t22 5h85q19 0 26 -5t9 -19q21 -108 34 -167h3q8 33 34 167q2 14 8.5 19t25.5 5h83q17 0 23.5 -5t7.5 -22q10 -117 13 -265q0 -21 -26 -21h-39q-27 0 -27 21q0 114 -4 203h-3q-17 -89 -39 -173q-3 -12 -10 -16t-25 -4z" />
<glyph unicode="&#x212e;" horiz-adv-x="820" d="M780 316h-599q-5 0 -5 -5v-182q0 -10 9 -21q42 -45 101.5 -71t125.5 -26q70 0 132 29t105 80h54q-53 -59 -129 -94t-163 -35q-153 0 -262 97t-109 235t109 235.5t262 97.5t261 -97.5t108 -235.5v-7zM644 338v183q0 12 -10 22q-90 93 -222 93q-135 0 -226 -96 q-10 -8 -10 -23v-179q0 -5 5 -5h458q5 0 5 5z" />
<glyph unicode="&#x2190;" horiz-adv-x="629" d="M223 65l-166 166q-17 16 -17 30q0 11 17 29l164 165q13 15 25 15q9 0 19 -10l23 -23q13 -13 13 -23t-13 -23l-83 -83h345q20 0 27 -7.5t7 -29.5v-23q0 -21 -6.5 -28t-27.5 -7h-345l81 -81q15 -15 15 -26q0 -10 -11 -21l-21 -22q-11 -11 -21 -11q-12 0 -25 13z" />
<glyph unicode="&#x2191;" horiz-adv-x="629" d="M344 516l166 -166q13 -13 13 -25q0 -10 -11 -21l-22 -21q-11 -11 -21 -11q-11 0 -26 15l-81 81v-345q0 -21 -7 -27.5t-28 -6.5h-23q-22 0 -29.5 7t-7.5 27v345l-83 -83q-13 -13 -23 -13t-23 13l-23 23q-10 10 -10 19q0 11 15 25l165 164q18 17 29 17q13 0 30 -17z" />
<glyph unicode="&#x2192;" horiz-adv-x="629" d="M567 231l-166 -166q-13 -13 -25 -13q-10 0 -21 11l-21 22q-11 11 -11 21q0 11 15 26l81 81h-345q-21 0 -27.5 7t-6.5 28v23q0 22 7 29.5t27 7.5h345l-83 83q-13 13 -13 23t13 23l23 23q10 10 19 10q12 0 25 -15l164 -165q17 -18 17 -29q0 -14 -17 -30z" />
<glyph unicode="&#x2193;" horiz-adv-x="629" d="M510 172l-166 -166q-17 -17 -30 -17q-11 0 -29 17l-165 164q-15 14 -15 25q0 9 10 19l23 23q13 13 23 13t23 -13l83 -83v345q0 20 7.5 27t29.5 7h23q21 0 28 -6.5t7 -27.5v-345l81 81q15 15 26 15q10 0 21 -11l22 -21q11 -11 11 -21q0 -12 -13 -25z" />
<glyph unicode="&#x2202;" horiz-adv-x="532" d="M253 328q-55 0 -77 -30q-19 -24 -19 -79v-18q0 -56 22 -82q25 -30 75 -30q60 0 82 43q23 44 23 165q-43 31 -106 31zM94 636q77 34 158 34q120 0 177 -70q58 -72 58 -257v-20q0 -190 -60 -265q-53 -67 -179 -67q-107 0 -159 53q-56 56 -56 157v21q0 98 55 155 q53 53 148 53q75 0 121 -28q-2 97 -30 129q-31 37 -89 37q-51 0 -106 -25q-22 -10 -30 11l-18 51q-8 22 10 31z" />
<glyph unicode="&#x220f;" horiz-adv-x="619" d="M38 647h543q15 0 20 -5t5 -19v-58q0 -14 -5.5 -19t-19.5 -5h-69v-608q0 -17 -6 -23t-23 -6h-68q-17 0 -23 6t-6 23v608h-153v-608q0 -17 -6 -23t-23 -6h-68q-17 0 -23 6t-6 23v608h-69q-16 0 -20.5 5t-4.5 19v58q0 14 5 19t20 5z" />
<glyph unicode="&#x2211;" horiz-adv-x="487" d="M162 7h271q17 0 22 -5t5 -19v-55q0 -15 -5 -19.5t-22 -4.5h-397q-19 0 -26.5 6.5t-7.5 23.5v32q0 20 17 38l220 232q5 5 10.5 11t9 9.5t6.5 7.5t4.5 7t1.5 6q0 8 -32 40l-207 207q-14 15 -14 32v74q0 17 21 17h397q17 0 22 -4.5t5 -19.5v-58q0 -14 -5 -19t-22 -5h-269 l217 -213q14 -14 14 -33v-16q0 -24 -12 -36z" />
<glyph unicode="&#x2212;" d="M472 204h-404q-24 0 -30 8t-6 29v36q0 13 1.5 20t10 12t24.5 5h404q23 0 29.5 -9t6.5 -28v-38q0 -16 -6.5 -24.5t-12.5 -9.5t-17 -1z" />
<glyph unicode="&#x221a;" horiz-adv-x="616" d="M8 417v63q0 20 22 20h136q26 0 32 -22q60 -238 100 -363h5q86 238 171 526q5 15 22 15h98q19 0 12 -18q-85 -290 -214 -609q-11 -29 -41 -29h-104q-17 0 -25 6.5t-13 22.5q-47 135 -119 368h-60q-22 0 -22 20z" />
<glyph unicode="&#x221e;" horiz-adv-x="813" d="M401 240q-82 -103 -187 -103q-79 0 -131.5 49t-52.5 138q0 80 52 129.5t129 49.5q58 0 101.5 -23.5t95.5 -83.5q46 57 89.5 82t103.5 25q78 0 130 -49t52 -130q0 -83 -49.5 -135t-135.5 -52q-54 0 -99 23t-98 80zM333 313l-14 17.5t-14 17t-12.5 14t-13.5 13.5l-12.5 10 t-13.5 8.5t-13.5 4.5t-15.5 2q-33 0 -52.5 -21t-19.5 -58t20.5 -59.5t52.5 -22.5q28 0 51.5 18t56.5 56zM476 313q25 -28 37.5 -40t32 -23t38.5 -11q32 0 52.5 22.5t20.5 59.5t-19.5 58t-52.5 21q-20 0 -40.5 -14t-32 -27.5t-36.5 -45.5z" />
<glyph unicode="&#x222b;" horiz-adv-x="358" d="M267 47q0 -152 -151 -152q-54 0 -85 9q-19 5 -15 24l9 53q3 18 22 14q25 -5 43 -5q33 0 43.5 12t10.5 47q0 18 -4 52q-18 139 -44 299q-8 45 -8 107q0 69 37 109t115 40q56 0 92 -12q18 -5 15 -24l-9 -54q-3 -21 -23 -14q-21 7 -45 7q-60 0 -60 -66q0 -20 8 -81 q7 -54 23 -155.5t23 -149.5q3 -19 3 -60z" />
<glyph unicode="&#x2248;" d="M273 312l-36 17q-29 14 -53 14q-32 0 -58 -40q-7 -11 -15.5 -11.5t-21.5 7.5l-47 26q-24 13 -13 33q59 108 144 108q39 0 94 -26l32 -15q44 -21 60 -21q27 0 56 51q9 17 31 6l51 -26q13 -7 15.5 -13.5t-3.5 -19.5q-55 -116 -134 -116q-49 0 -102 26zM273 89l-36 17 q-29 14 -53 14q-32 0 -58 -40q-7 -11 -15.5 -11.5t-21.5 7.5l-47 26q-24 13 -13 33q59 108 144 108q39 0 94 -26l32 -15q44 -21 60 -21q27 0 56 51q9 17 31 6l51 -26q13 -7 15.5 -13.5t-3.5 -19.5q-55 -116 -134 -116q-49 0 -102 26z" />
<glyph unicode="&#x2260;" d="M416 512l-31 -88h87q23 0 29.5 -9t6.5 -28v-38q0 -16 -6.5 -24.5t-12.5 -9.5t-17 -1h-125l-38 -110h163q23 0 29.5 -9t6.5 -28v-38q0 -16 -6.5 -24.5t-12.5 -9.5t-17 -1h-202l-30 -87q-6 -17 -16 -23t-31 -6h-44q-24 0 -31 7.5t0 28.5l28 80h-78q-24 0 -30 8t-6 29v36 q0 13 1.5 20t10 12t24.5 5h116l38 110h-154q-24 0 -30 8t-6 29v36q0 13 1.5 20t10 12t24.5 5h193l33 95q6 17 16.5 23t30.5 6h36q29 0 38 -6t1 -30z" />
<glyph unicode="&#x2264;" d="M470 0h-404q-24 0 -30 8t-6 29v36q0 13 1.5 20t10 12t24.5 5h404q23 0 29.5 -9t6.5 -28v-38q0 -16 -6.5 -24.5t-12.5 -9.5t-17 -1zM36 381v25q0 21 18 30l352 169q13 7 20 5.5t14 -14.5l28 -49q9 -14 6 -22.5t-19 -15.5l-248 -115l241 -112q34 -18 20 -41l-28 -49 q-1 -1 -3.5 -5.5t-3 -5.5t-3.5 -3t-5.5 -1.5t-7.5 2t-11 4.5l-352 168q-18 9 -18 30z" />
<glyph unicode="&#x2265;" d="M474 0h-404q-11 0 -17 1t-12.5 9.5t-6.5 24.5v38q0 19 6.5 28t29.5 9h404q23 0 29.5 -8.5t6.5 -28.5v-36q0 -21 -6 -29t-30 -8zM504 403v-25q0 -21 -18 -30l-347 -166q-20 -9 -26 -7t-14 16l-28 49q-13 22 18 37l244 114l-248 115q-16 7 -19 15.5t6 22.5l28 49 q7 13 14 14.5t20 -5.5l352 -169q18 -9 18 -30z" />
<glyph unicode="&#x25ca;" d="M270 132l113 192l-113 193l-113 -193zM326 639l162 -270q12 -21 12 -34v-12q0 -13 -12 -34l-162 -274q-15 -24 -42 -24h-31q-24 0 -39 24l-162 274q-12 21 -12 34v12q0 13 12 34l162 270q15 24 39 24h31q27 0 42 -24z" />
<glyph unicode="&#x25fc;" horiz-adv-x="490" d="M0 490h490v-490h-490v490z" />
<glyph unicode="&#x2713;" horiz-adv-x="758" d="M692 418l-407 -407q-22 -20 -31 -20q-11 0 -31 20l-160 160q-15 15 -15 24t16 25l16 16q17 17 27 17q9 0 24 -15l123 -124l370 371q14 14 24 14t27 -16l16 -16q15 -15 15 -25t-14 -24z" />
<glyph horiz-adv-x="225" />
<glyph horiz-adv-x="370" d="M176 -63h21q47 0 47 -50v-18q0 -78 -70 -146q-14 -15 -28 -1l-19 18q-11 11 -2 22q30 35 38 53q3 7 -3 10q-17 9 -23.5 18.5t-6.5 29.5v20q0 21 12.5 32.5t33.5 11.5z" />
<glyph horiz-adv-x="370" d="M128 865l171 -93q15 -9 4 -30l-18 -31q-11 -23 -35 -11l-170 71q-14 7 -16.5 13.5t4.5 19.5l29 53q11 19 31 8z" />
<glyph horiz-adv-x="370" d="M71 772l171 93q20 11 31 -8l29 -53q7 -13 4.5 -20t-16.5 -13l-170 -71q-23 -9 -35 11l-18 31q-12 20 4 30z" />
<glyph horiz-adv-x="370" d="M98 847h10q25 0 40 -13.5t15 -35.5v-24q0 -49 -55 -49h-10q-53 0 -53 49v24q0 22 14.5 35.5t38.5 13.5zM262 847h9q25 0 39.5 -13t14.5 -36v-24q0 -49 -54 -49h-9q-53 0 -53 49v24q0 22 14.5 35.5t38.5 13.5z" />
<glyph horiz-adv-x="370" d="M238 870l92 -109q14 -15 -2 -29l-28 -21q-17 -14 -34 2l-81 78h-3l-78 -78q-16 -17 -34 -2l-28 21q-16 14 -2 29l91 109q9 11 25 11h57q15 0 25 -11z" />
<glyph horiz-adv-x="370" d="M53 715l-25 15q-14 9 -6 29q38 84 102 84q31 0 61 -19l27 -17q23 -14 35 -14q21 0 43 35q10 16 28 3l22 -15q16 -11 7 -29q-44 -79 -106 -79q-30 0 -60 19l-27 18q-18 12 -30 12q-21 0 -43 -36q-10 -17 -28 -6z" />
<glyph horiz-adv-x="370" d="M77 814h216q24 0 24 -24v-37q0 -22 -24 -22h-216q-24 0 -24 24v35q0 24 24 24z" />
<glyph horiz-adv-x="370" d="M185 706q-57 0 -97 30t-56 84q-4 11 -1.5 16.5t15.5 9.5l35 12q9 4 16 2t12 -14q27 -60 76 -60t76 60q5 12 12 14t16 -2l35 -12q13 -4 15.5 -9.5t-1.5 -16.5q-16 -54 -56 -84t-97 -30z" />
<glyph horiz-adv-x="370" d="M118 794q0 27 19.5 47t47.5 20t47.5 -20t19.5 -47q0 -28 -19.5 -48t-47.5 -20t-47.5 20t-19.5 48z" />
<glyph horiz-adv-x="370" d="M77 774q0 40 28.5 68.5t68.5 28.5q41 0 69 -28t28 -69t-28 -69t-69 -28t-69 28t-28 69zM142 774q0 -14 9 -23.5t23 -9.5t23.5 9.5t9.5 23.5t-9.5 23t-23.5 9t-23 -9t-9 -23z" />
<glyph horiz-adv-x="370" d="M29 758l140 129q17 15 33 -4l39 -46q9 -11 7.5 -17.5t-13.5 -15.5l-143 -109q-22 -13 -39 5l-22 26q-15 19 -2 32zM234 758l140 129q17 15 33 -4l39 -46q9 -11 8 -17t-14 -16l-143 -109q-20 -16 -39 5l-22 26q-15 19 -2 32z" />
<glyph horiz-adv-x="370" d="M330 831l-92 -109q-10 -11 -25 -11h-57q-16 0 -25 11l-91 109q-14 15 2 29l28 21q18 15 34 -2l78 -78h3l81 78q17 16 34 2l28 -21q16 -14 2 -29z" />
<glyph horiz-adv-x="583" d="M483 199h-255v64h193v63h-193v192h255v-64h-191v-64h191v-191zM483 583h-319v-519h72v-64h-136v647h383v-64z" />
<glyph horiz-adv-x="645" d="M517 289v-222q0 -20 -5 -28.5t-22 -15.5q-77 -32 -197 -32q-134 0 -187 48q-54 50 -54 136v16q0 120 108 154q-91 33 -91 143v11q0 79 60 121q52 36 153 36q93 0 162 -23q13 -5 16 -10t-1 -17l-17 -57q-3 -11 -8.5 -12.5t-19.5 2.5q-59 19 -112 19q-56 0 -81 -15 q-26 -17 -26 -58v-7q0 -38 22 -63q24 -27 87 -27h290q15 0 15 -13v-71q0 -15 -15 -15h-77zM400 100v189h-93q-71 0 -99 -22q-29 -22 -29 -73v-8q0 -49 25 -71q29 -26 97 -26q54 0 99 11z" />
</font>
</defs>
</svg>
