<?xml version="1.0" standalone="no"?>
<!DOCTYPE svg PUBLIC "-//W3C//DTD SVG 1.1//EN" "http://www.w3.org/Graphics/SVG/1.1/DTD/svg11.dtd" >
<svg xmlns="http://www.w3.org/2000/svg">
<metadata></metadata>
<defs>
<font id="unicreditmedium" horiz-adv-x="530" >
<font-face units-per-em="1000" ascent="750" descent="-250" />
<missing-glyph horiz-adv-x="224" />
<glyph unicode="fi" horiz-adv-x="533" d="M461 472v-454q0 -10 -4.5 -14t-15.5 -4h-52q-20 0 -20 18v393h-188v-393q0 -10 -4.5 -14t-15.5 -4h-52q-20 0 -20 18v393h-56q-10 0 -13.5 3.5t-3.5 13.5v31q0 15 15 17l58 11v35q0 87 49.5 125t148.5 38q71 0 124 -15q13 -4 13 -13q0 -7 -5 -30l-4 -19q-2 -12 -13 -12 q-4 0 -21 3q-53 10 -92 10q-60 0 -84 -19.5t-24 -72.5v-27h261q11 0 15 -4t4 -14z" />
<glyph unicode="fl" horiz-adv-x="574" d="M463 660v-528q0 -30 8 -42t33 -12h25q9 0 13 -3.5t4 -13.5v-43q0 -18 -16 -18h-43q-63 0 -89.5 27t-26.5 91v479q-33 13 -86 13q-59 0 -81.5 -20t-22.5 -72v-28h100q17 0 17 -16v-48q0 -15 -17 -15h-100v-393q0 -10 -4.5 -14t-15.5 -4h-52q-20 0 -20 18v393h-57 q-16 0 -16 16v32q0 15 15 17l58 11v35q0 85 45.5 124.5t136.5 39.5q57 0 112 -15l60 6q11 1 15.5 -3t4.5 -14z" />
<glyph unicode=" "  horiz-adv-x="224" />
<glyph unicode="&#x09;" horiz-adv-x="224" />
<glyph unicode="&#xa0;" horiz-adv-x="224" />
<glyph unicode="!" horiz-adv-x="216" d="M105 110h7q54 0 54 -53v-13q0 -53 -54 -53h-7q-55 0 -55 53v13q0 26 15.5 39.5t39.5 13.5zM67 189l-12 439q-1 17 5 22.5t24 5.5h52q18 0 23.5 -6t4.5 -22l-13 -438q0 -15 -7 -20t-23 -5h-26q-15 0 -21 4.5t-7 19.5z" />
<glyph unicode="&#x22;" horiz-adv-x="381" d="M310 444h-50q-16 0 -16 18l-10 220q-2 21 17 21h69q19 0 17 -21l-10 -220q0 -18 -17 -18zM120 444h-50q-16 0 -16 18l-10 220q-2 21 17 21h69q19 0 17 -21l-10 -220q0 -18 -17 -18z" />
<glyph unicode="#" horiz-adv-x="626" d="M377 372h-109l-23 -103h109zM462 648h52q20 0 20 -11q0 -7 -6 -33l-33 -149h95q16 0 16 -9q0 -4 -7 -34l-4 -17q-3 -14 -9 -18.5t-20 -4.5h-90l-23 -103h97q16 0 16 -9q0 -4 -7 -34l-4 -17q-3 -14 -9 -18.5t-20 -4.5h-90l-37 -164q-3 -13 -9 -17.5t-20 -4.5h-52 q-20 0 -20 11q0 7 6 31l32 144h-109l-36 -164q-3 -13 -9 -17.5t-20 -4.5h-52q-20 0 -20 11q0 6 6 31l32 144h-92q-16 0 -16 9q0 4 7 34l4 17q3 14 9 18.5t20 4.5h86l23 103h-93q-16 0 -16 9q0 4 7 34l4 17q3 14 9 18.5t20 4.5h87l38 171q3 13 9 17.5t20 4.5h52q20 0 20 -11 q0 -9 -6 -33l-33 -149h108l38 171q3 13 9 17.5t20 4.5z" />
<glyph unicode="$" d="M468 180q0 -94 -41.5 -137.5t-133.5 -49.5v-76q0 -14 -15 -14h-30q-15 0 -15 14v75q-87 3 -156 28q-15 6 -15 17q0 9 3 21l8 31q3 12 13 12q5 0 16 -4q66 -23 131 -27v227l-21 5q-80 19 -114 56t-34 111v16q0 158 176 170v77q0 14 15 14h30q15 0 15 -14v-77 q67 -3 121 -20q17 -6 17 -15q0 -5 -7 -31l-6 -22q-3 -14 -14 -14q-5 0 -13 3q-50 16 -98 20v-206l20 -4q82 -19 115 -55t33 -119v-12zM377 184q0 47 -16 66.5t-68 32.5v-211q46 5 65 28.5t19 73.5v10zM157 473q0 -42 18.5 -60t64.5 -29v191q-83 -10 -83 -92v-10z" />
<glyph unicode="%" horiz-adv-x="824" d="M197 656q61 0 95 -32q42 -42 42 -144v-10q0 -102 -42 -143q-33 -33 -95 -33t-95 33q-42 41 -42 143v10q0 102 42 144q34 32 95 32zM197 366q27 0 38 22t11 83v8q0 61 -11 83t-38 22t-38 -22t-11 -83v-8q0 -61 11 -83t38 -22zM627 353q61 0 95 -32q42 -42 42 -144v-10 q0 -102 -42 -143q-33 -33 -95 -33t-95 33q-42 41 -42 143v10q0 102 42 144q34 32 95 32zM627 63q27 0 38 22t11 83v8q0 61 -11 83t-38 22t-38 -22t-11 -83v-8q0 -61 11 -83t38 -22zM628 620l-347 -612q-10 -17 -31 -17h-52q-14 0 -14 10q0 7 11 26l347 612q10 17 31 17h52 q14 0 14 -10q0 -7 -11 -26z" />
<glyph unicode="&#x26;" horiz-adv-x="607" d="M516 120l71 -69q9 -9 9 -14q0 -6 -19 -25l-20 -20q-8 -8 -16 -8q-6 0 -16 10l-62 59q-62 -62 -183 -62h-29q-109 0 -162.5 44.5t-53.5 127.5v15q0 58 33 103t91 68q-38 32 -59.5 72t-21.5 76v8q0 68 48 109.5t131 41.5q82 0 128.5 -40.5t46.5 -105.5v-10 q0 -110 -119 -181l134 -132q3 14 3 63v55q0 16 16 16h55q16 0 16 -16v-59q0 -81 -21 -126zM261 68h15q89 0 127 43l-194 190q-74 -40 -74 -126v-8q0 -48 32.5 -73.5t93.5 -25.5zM175 499q0 -45 68 -113l20 -20q75 51 75 129v5q0 80 -81 80q-38 0 -60 -19t-22 -56v-6z" />
<glyph unicode="'" horiz-adv-x="191" d="M120 444h-50q-16 0 -16 18l-10 220q-2 21 17 21h69q19 0 17 -21l-10 -220q0 -18 -17 -18z" />
<glyph unicode="(" horiz-adv-x="302" d="M259 -51q16 -23 16 -29q0 -9 -15 -18l-20 -12q-14 -9 -22 -9q-10 0 -20 13q-142 181 -142 388q0 212 143 390q10 13 20 13q8 0 22 -9l20 -12q15 -9 15 -18q0 -6 -16 -29q-105 -150 -105 -333q0 -180 104 -335z" />
<glyph unicode=")" horiz-adv-x="302" d="M43 -51q104 155 104 335q0 183 -105 333q-16 23 -16 29q0 9 15 18l20 12q14 9 22 9q10 0 20 -13q143 -178 143 -390q0 -207 -142 -388q-10 -13 -20 -13q-8 0 -22 9l-20 12q-15 9 -15 18q0 6 16 29z" />
<glyph unicode="*" horiz-adv-x="368" d="M235 433l-51 95l-51 -95q-8 -14 -15 -14q-8 0 -25 11l-28 18q-9 5 -9 14t9 17l80 79l-106 27q-11 3 -11 9q0 3 7 24l10 30q3 10 12 10q6 0 12 -3l88 -43q-13 109 -13 113q0 12 15 12h50q15 0 15 -12q0 -3 -1.5 -16t-5 -41t-6.5 -56l88 43q6 3 12 3q9 0 12 -10l10 -30 q7 -21 7 -24q0 -6 -11 -9l-106 -27l80 -79q9 -8 9 -17t-9 -14l-28 -18q-17 -11 -25 -11q-7 0 -15 14z" />
<glyph unicode="+" d="M460 216h-150v-155q0 -14 -5.5 -18t-21.5 -4h-37q-16 0 -21.5 4t-5.5 18v155h-150q-13 0 -18.5 5t-5.5 18v41q0 23 24 23h150v155q0 14 5.5 18t21.5 4h37q16 0 21.5 -4t5.5 -18v-155h150q24 0 24 -23v-41q0 -13 -5.5 -18t-18.5 -5z" />
<glyph unicode="," horiz-adv-x="224" d="M104 112h15q30 0 44 -14.5t14 -47.5v-9q0 -42 -20 -93q-24 -58 -56 -92q-6 -8 -12 -8q-7 0 -16 6l-21 13q-9 6 -9 12q0 4 5 11q34 44 43 76q4 15 -6 21l-15 8q-20 11 -20 45v24q0 48 54 48z" />
<glyph unicode="-" horiz-adv-x="315" d="M257 216h-199q-23 0 -23 20v45q0 13 5 17.5t18 4.5h199q13 0 18 -4.5t5 -17.5v-45q0 -20 -23 -20z" />
<glyph unicode="." horiz-adv-x="207" d="M162 60v-16q0 -53 -53 -53h-11q-24 0 -38.5 13.5t-14.5 39.5v16q0 26 14.5 39.5t38.5 13.5h11q53 0 53 -53z" />
<glyph unicode="/" horiz-adv-x="360" d="M327 646l-206 -649q-7 -21 -30 -21h-45q-21 0 -21 11q0 5 8 30l206 649q7 21 30 21h45q21 0 21 -11q0 -5 -8 -30z" />
<glyph unicode="0" d="M489 337v-27q0 -187 -58 -256q-53 -63 -166 -63t-166 63q-58 69 -58 256v27q0 187 58 256q53 63 166 63t166 -63q58 -69 58 -256zM388 317v13q0 58 -1 87.5t-9.5 67t-25.5 58.5q-27 34 -87 34t-87 -34q-17 -21 -25.5 -58.5t-9.5 -67t-1 -87.5v-13q0 -58 1 -87.5t9.5 -67 t25.5 -58.5q27 -34 87 -34t87 34q17 21 25.5 58.5t9.5 67t1 87.5z" />
<glyph unicode="1" d="M459 0h-358q-20 0 -20 17v41q0 12 4 15.5t16 3.5h134v474h-6l-97 -55q-12 -6 -15 -6q-5 0 -13 12l-14 24q-10 19 -10 24q0 8 10 14l123 70q23 13 49 13h43q17 0 22.5 -4.5t5.5 -19.5v-546h126q12 0 16 -3.5t4 -15.5v-41q0 -17 -20 -17z" />
<glyph unicode="2" d="M94 621q85 35 177 35q96 0 144 -40t48 -129v-10q0 -75 -32 -118t-103 -74l-72 -32q-55 -24 -76 -57t-21 -93v-26h274q21 0 21 -21v-37q0 -19 -21 -19h-338q-17 0 -23 5.5t-6 20.5v59q0 91 31 146.5t101 86.5l74 33q55 25 73 50.5t18 74.5v7q0 53 -24 73.5t-76 20.5 q-55 0 -141 -28q-9 -3 -13 -3q-9 0 -14 16l-7 24q-4 16 -4 20q0 11 10 15z" />
<glyph unicode="3" d="M58 57l6 23q3 12 12 12q6 0 16 -3q71 -21 139 -21q123 0 123 111v8q0 63 -34 88.5t-113 25.5h-35q-19 0 -19 18v43q0 17 20 17h24q143 0 143 108v8q0 84 -101 84q-57 0 -121 -25q-13 -5 -18 -5q-9 0 -13 14l-7 24q-5 18 -5 23q0 9 11 14q75 32 165 32q188 0 188 -155v-10 q0 -120 -97 -145v-1q53 -9 82.5 -49.5t29.5 -105.5v-12q0 -89 -54 -138t-163 -49q-89 0 -169 23q-16 5 -16 15q0 4 6 28z" />
<glyph unicode="4" d="M324 158h-272q-14 0 -19.5 5t-5.5 18v22q0 14 22 51l227 370q14 23 39 23h75q18 0 25 -6.5t7 -22.5v-380h61q11 0 15 -4t4 -17v-38q0 -13 -3.5 -17t-15.5 -4h-61v-138q0 -20 -22 -20h-54q-22 0 -22 20v138zM324 238v312h-6l-193 -312h199z" />
<glyph unicode="5" d="M368 200v9q0 61 -26 92t-87 31q-56 0 -121 -30q-14 -6 -17 -6q-7 0 -17 6l-15 8q-10 6 -10 16q0 5 2 39l18 260q1 22 24 22h282q12 0 16.5 -4t4.5 -14v-42q0 -10 -4.5 -14t-16.5 -4h-213q-14 0 -15 -13l-11 -169q51 24 120 24q93 0 139.5 -52t46.5 -147v-13 q0 -208 -226 -208q-94 0 -177 39q-14 7 -14 17q0 5 7 24l8 20q5 15 15 15q5 0 14 -4q78 -34 149 -34q65 0 94.5 32t29.5 100z" />
<glyph unicode="6" d="M424 638q21 -7 16 -24l-10 -38q-3 -11 -7.5 -13.5t-17.5 0.5q-48 15 -95 15q-86 0 -122.5 -53t-36.5 -161q67 47 153 47q87 0 131.5 -50t44.5 -142v-14q0 -101 -55 -157.5t-156 -56.5q-119 0 -169 74.5t-50 228.5v28q0 171 65 252.5t196 81.5q64 0 113 -18zM149 282 q-1 -114 28.5 -164t93.5 -50q111 0 111 134v9q0 119 -103 119q-67 0 -130 -48z" />
<glyph unicode="7" d="M461 533l-255 -512q-10 -21 -37 -21h-56q-16 0 -16 11q0 6 12 29l270 529h-292q-12 0 -16.5 4t-4.5 15v38q0 21 21 21h380q12 0 16 -4t4 -15v-25q0 -16 -26 -70z" />
<glyph unicode="8" d="M377 332q107 -46 107 -151v-11q0 -85 -61 -132t-157 -47q-103 0 -162 46t-59 128v9q0 50 30 93.5t78 68.5q-87 53 -87 148v8q0 73 55.5 118.5t149.5 45.5q91 0 143 -40.5t52 -116.5v-9q0 -102 -89 -158zM277 280l-57 23q-74 -48 -74 -127v-5q0 -48 33 -76t90 -28 q55 0 84.5 26.5t29.5 75.5v4q0 36 -23 59.5t-83 47.5zM268 580q-47 0 -76 -23.5t-29 -65.5v-6q0 -66 87 -101l58 -23q62 54 62 120v6q0 44 -27.5 68.5t-74.5 24.5z" />
<glyph unicode="9" d="M99 7q-13 4 -13 13q0 8 5 28l5 22q4 17 24 12q49 -13 100 -13q93 0 125.5 51.5t34.5 156.5q-23 -19 -62.5 -31t-79.5 -12q-188 0 -188 196v17q0 94 56.5 151.5t155.5 57.5q119 0 168.5 -74.5t49.5 -233.5v-22q0 -185 -61 -260t-199 -75q-75 0 -121 16zM252 314 q77 0 128 48q2 115 -24.5 166t-92.5 51q-115 0 -115 -131v-13q0 -121 104 -121z" />
<glyph unicode=":" horiz-adv-x="207" d="M162 60v-16q0 -53 -53 -53h-11q-24 0 -38.5 13.5t-14.5 39.5v16q0 26 14.5 39.5t38.5 13.5h11q53 0 53 -53zM162 441v-16q0 -53 -53 -53h-11q-24 0 -38.5 13.5t-14.5 39.5v16q0 26 14.5 39.5t38.5 13.5h11q53 0 53 -53z" />
<glyph unicode=";" horiz-adv-x="229" d="M106 112h15q30 0 44 -14.5t14 -47.5v-9q0 -42 -20 -93q-24 -58 -56 -92q-6 -8 -12 -8q-7 0 -16 6l-21 13q-9 6 -9 12q0 4 5 11q34 44 43 76q4 15 -6 21l-15 8q-20 11 -20 45v24q0 48 54 48zM172 441v-16q0 -53 -53 -53h-11q-24 0 -38.5 13.5t-14.5 39.5v16 q0 26 14.5 39.5t38.5 13.5h11q53 0 53 -53z" />
<glyph unicode="&#x3c;" d="M403 52l-326 174q-14 8 -14 24v21q0 16 14 24l326 175q11 6 18 6q9 0 16 -13l14 -24q11 -18 11 -26q0 -9 -16 -18l-251 -135l251 -133q16 -9 16 -18q0 -8 -11 -26l-14 -24q-7 -13 -16 -13q-7 0 -18 6z" />
<glyph unicode="=" d="M460 319h-391q-13 0 -18.5 5t-5.5 18v41q0 23 24 23h391q24 0 24 -23v-41q0 -13 -5.5 -18t-18.5 -5zM460 113h-391q-13 0 -18.5 5t-5.5 18v41q0 23 24 23h391q24 0 24 -23v-41q0 -13 -5.5 -18t-18.5 -5z" />
<glyph unicode="&#x3e;" d="M453 226l-326 -174q-11 -6 -18 -6q-9 0 -16 13l-14 24q-11 18 -11 26q0 9 16 18l251 133l-251 135q-16 9 -16 18q0 8 11 26l14 24q7 13 16 13q7 0 18 -6l326 -175q14 -8 14 -24v-21q0 -16 -14 -24z" />
<glyph unicode="?" horiz-adv-x="444" d="M403 498v-6q0 -104 -107 -175l-27 -18q-38 -26 -53 -52.5t-15 -70.5v-3q0 -16 -18 -16h-42q-18 0 -18 16v6q0 70 17.5 104t64.5 66l29 20q71 49 71 120v6q0 83 -101 83q-35 0 -79 -11q-15 -4 -30 -9t-23.5 -7.5t-13.5 -2.5q-9 0 -13 13l-6 20q-6 20 -6 26q0 10 13 16 q77 33 170 33q187 0 187 -158zM159 110h7q55 0 55 -58q0 -61 -55 -61h-7q-29 0 -42 14t-13 44v8q0 26 15.5 39.5t39.5 13.5z" />
<glyph unicode="@" horiz-adv-x="797" d="M752 378q0 -113 -51 -177t-131 -64q-90 0 -115 54h-2q-33 -41 -95 -41q-52 0 -81 27.5t-29 78.5q0 42 12 116q20 124 129 124q70 0 93 -45l7 21q5 12 19 12h34q16 0 16 -10l-4 -38l-16 -134q-7 -65 -7 -68q0 -39 45 -39q42 0 70.5 45.5t28.5 127.5q0 117 -67.5 178.5 t-180.5 61.5q-127 0 -207 -83.5t-80 -234.5q0 -126 65 -187.5t205 -61.5q94 0 176 26q22 6 25 6q8 0 11 -12l5 -20q4 -16 4 -21q0 -8 -11 -12q-97 -36 -224 -36q-173 0 -262 80t-89 232q0 182 108 288.5t279 106.5q142 0 231 -80t89 -221zM405 434q-27 0 -40 -15.5 t-21 -54.5q-12 -62 -12 -107q0 -47 47 -47q30 0 47.5 18t23.5 62l8 62q3 21 3 31q0 51 -56 51z" />
<glyph unicode="A" horiz-adv-x="548" d="M253 647h42q25 0 35.5 -6t17.5 -26q93 -262 178 -572q7 -23 7 -31q0 -12 -20 -12h-48q-18 0 -24 3.5t-10 17.5q-19 78 -41 154h-232q-22 -76 -41 -154q-4 -14 -10 -17.5t-24 -3.5h-48q-20 0 -20 12q0 8 7 31q85 310 178 572q7 20 17.5 26t35.5 6zM277 550h-6 q-34 -99 -90 -292h186q-56 193 -90 292z" />
<glyph unicode="B" horiz-adv-x="536" d="M229 656q226 0 226 -161v-11q0 -50 -22.5 -86t-62.5 -50v-1q58 -12 91.5 -49.5t33.5 -98.5v-11q0 -98 -65.5 -143t-192.5 -45q-86 0 -138 4q-17 1 -23.5 8.5t-6.5 24.5v573q0 18 5.5 25t22.5 10q60 11 132 11zM245 298h-78v-199q0 -17 18 -19q17 -1 58 -1q74 0 112.5 24 t38.5 83v10q0 56 -34.5 79t-114.5 23zM178 573q-11 -3 -11 -15v-183h59q68 0 98 23.5t30 79.5v9q0 48 -28 69t-87 21q-44 0 -61 -4z" />
<glyph unicode="C" horiz-adv-x="518" d="M471 611q10 -6 10 -13q0 -8 -8 -24l-15 -30q-4 -9 -13 -9q-5 0 -13 4q-67 37 -133 37q-73 0 -106 -36q-23 -24 -32 -67.5t-9 -137.5v-23q0 -97 7 -137t29 -65q35 -39 123 -39q58 0 128 24q12 4 16 4q9 0 12 -9l6 -19q7 -23 7 -32q0 -11 -12 -15q-87 -33 -171 -33 q-133 0 -188 58q-34 36 -46 90t-12 161v46q0 115 18 172.5t63 92.5q58 45 166 45q96 0 173 -45z" />
<glyph unicode="D" horiz-adv-x="599" d="M228 0q-91 0 -129 1q-30 1 -30 30v583q0 17 6.5 25t22.5 9q60 6 129 6q170 0 245.5 -67.5t75.5 -234.5v-53q0 -160 -71.5 -229.5t-248.5 -69.5zM237 575q-33 0 -55 -2q-15 -1 -15 -17v-460q0 -18 18 -18h56q114 0 160 49.5t46 183.5v29q0 135 -46.5 185t-163.5 50z" />
<glyph unicode="E" horiz-adv-x="486" d="M423 0h-230q-67 0 -95 23.5t-34 91.5q-8 90 -8 191v39q0 138 6 193q6 63 35.5 86t96.5 23h230q12 0 16 -4t4 -16v-40q0 -11 -4 -15.5t-16 -4.5h-222q-42 0 -45 -37q-5 -65 -5 -157h232q12 0 16 -4t4 -15v-41q0 -10 -4 -14.5t-16 -4.5h-232q0 -124 7 -180q2 -19 12 -27 t30 -8h222q13 0 17 -4t4 -15v-41q0 -11 -4 -15t-17 -4z" />
<glyph unicode="F" horiz-adv-x="459" d="M415 567h-207q-26 0 -34 -10q-8 -11 -8 -35v-152h226q12 0 16 -4.5t4 -15.5v-40q0 -20 -20 -20h-226v-270q0 -12 -4.5 -16t-16.5 -4h-56q-12 0 -16.5 4t-4.5 16v522q0 53 26 79t81 26h240q20 0 20 -19v-42q0 -19 -20 -19z" />
<glyph unicode="G" horiz-adv-x="577" d="M497 624q12 -4 12 -14q0 -5 -7 -25l-9 -28q-6 -18 -27 -9q-72 28 -144 28q-93 0 -131.5 -51.5t-38.5 -188.5v-25q0 -139 35.5 -189.5t131.5 -50.5q58 0 91 6q15 3 15 18v179h-81q-12 0 -16.5 3.5t-4.5 14.5v44q0 11 4.5 15t16.5 4h160q19 0 19 -19v-290q0 -15 -4.5 -21.5 t-18.5 -10.5q-88 -23 -181 -23q-154 0 -211 69t-57 241v46q0 188 92 260q63 49 184 49q93 0 170 -32z" />
<glyph unicode="H" horiz-adv-x="612" d="M543 626v-605q0 -12 -5 -16.5t-17 -4.5h-55q-12 0 -16.5 4t-4.5 17v269h-278v-269q0 -12 -5 -16.5t-17 -4.5h-54q-12 0 -17 4.5t-5 16.5v605q0 21 22 21h54q22 0 22 -21v-255h278v255q0 21 22 21h54q22 0 22 -21z" />
<glyph unicode="I" horiz-adv-x="246" d="M95 647h55q22 0 22 -21v-605q0 -12 -5 -16.5t-17 -4.5h-54q-12 0 -17 4.5t-5 16.5v605q0 12 4.5 16.5t16.5 4.5z" />
<glyph unicode="J" horiz-adv-x="339" d="M269 626v-425q0 -94 -28 -140q-38 -61 -142 -61h-49q-12 0 -16 4t-4 15v44q0 20 19 20h43q53 0 68 32q11 24 11 91v420q0 12 4.5 16.5t16.5 4.5h55q22 0 22 -21z" />
<glyph unicode="K" d="M167 292v-271q0 -12 -5 -16.5t-17 -4.5h-54q-12 0 -17 4.5t-5 16.5v605q0 21 22 21h54q22 0 22 -21v-253h47q17 0 27 15l165 242q11 17 33 17h61q16 0 16 -9q0 -7 -7 -17l-185 -266q-8 -11 -8 -17q0 -7 8 -18l168 -270q22 -35 22 -40q0 -10 -18 -10h-60q-20 0 -30 16 l-159 262q-8 14 -29 14h-51z" />
<glyph unicode="L" horiz-adv-x="417" d="M167 626v-520q0 -15 6.5 -21t22.5 -6h175q13 0 17 -3.5t4 -14.5v-43q0 -10 -4.5 -14t-16.5 -4h-206q-51 0 -73.5 22t-22.5 68v536q0 21 22 21h54q22 0 22 -21z" />
<glyph unicode="M" horiz-adv-x="766" d="M688 0h-51q-14 0 -18.5 3.5t-4.5 16.5q-6 357 -13 508h-6q-123 -353 -145 -408q-8 -19 -17.5 -23.5t-30.5 -4.5h-39q-20 0 -30 5t-17 23q-50 126 -146 408h-6q-2 -53 -13 -508q0 -13 -4.5 -16.5t-17.5 -3.5h-52q-21 0 -21 14q0 5 0.5 17t0.5 15q12 341 26 570 q1 19 9.5 25t32.5 6h55q26 0 35 -5t16 -26q98 -292 149 -429h5q87 230 150 429q6 21 15.5 26t35.5 5h55q24 0 32.5 -6t9.5 -25q14 -229 26 -570q0 -3 0.5 -14t0.5 -18q0 -14 -22 -14z" />
<glyph unicode="N" horiz-adv-x="622" d="M423 27l-259 477h-5v-483q0 -13 -4.5 -17t-16.5 -4h-48q-12 0 -16.5 4t-4.5 17v598q0 17 6 22.5t24 5.5h53q19 0 28.5 -6t18.5 -22l259 -476h5v483q0 12 4.5 16.5t16.5 4.5h48q12 0 16.5 -4.5t4.5 -16.5v-599q0 -16 -6 -21.5t-24 -5.5h-53q-19 0 -28.5 6t-18.5 21z" />
<glyph unicode="O" horiz-adv-x="600" d="M549 346v-46q0 -101 -13 -154.5t-49 -92.5q-57 -62 -187 -62t-187 62q-36 39 -49 92.5t-13 154.5v46q0 101 13 155t49 93q57 62 187 62t187 -62q36 -39 49 -93t13 -155zM448 312v23q0 85 -6.5 129t-29.5 70q-36 42 -112 42t-112 -42q-23 -26 -29.5 -70t-6.5 -129v-23 q0 -85 6.5 -129t29.5 -70q36 -42 112 -42t112 42q23 26 29.5 70t6.5 129z" />
<glyph unicode="P" horiz-adv-x="508" d="M167 240v-219q0 -13 -4.5 -17t-17.5 -4h-54q-13 0 -17.5 4t-4.5 17v594q0 17 6 24t21 9q61 8 147 8q128 0 184.5 -45t56.5 -151v-16q0 -205 -237 -205q-55 0 -80 1zM182 574q-15 -1 -15 -19v-236q22 -1 63 -1q85 0 120.5 27.5t35.5 100.5v12q0 65 -32 92t-109 27 q-37 0 -63 -3z" />
<glyph unicode="Q" horiz-adv-x="600" d="M549 346v-46q0 -101 -13 -154.5t-49 -92.5q-42 -45 -125 -57q38 -58 128 -110q12 -7 12 -14q0 -6 -10 -14l-36 -28q-10 -8 -19 -8q-6 0 -18 7q-85 54 -151 163q-108 8 -155 61q-36 39 -49 92.5t-13 154.5v46q0 101 13 155t49 93q57 62 187 62t187 -62q36 -39 49 -93 t13 -155zM448 312v23q0 85 -6.5 129t-29.5 70q-36 42 -112 42t-112 -42q-23 -26 -29.5 -70t-6.5 -129v-23q0 -85 6.5 -129t29.5 -70q36 -42 112 -42t112 42q23 26 29.5 70t6.5 129z" />
<glyph unicode="R" horiz-adv-x="538" d="M69 21v598q0 24 20 27q65 10 153 10q122 0 179.5 -42t57.5 -141v-19q0 -72 -32.5 -118t-88.5 -59l141 -237q16 -26 16 -31q0 -9 -14 -9h-64q-19 0 -28 15q-131 230 -143 251q-14 -1 -47 -1q-35 0 -52 1v-245q0 -12 -5 -16.5t-17 -4.5h-54q-12 0 -17 4.5t-5 16.5zM167 558 v-213q40 -2 72 -2q80 0 111 24.5t31 89.5v13q0 60 -29 83.5t-105 23.5q-41 0 -66 -3q-14 -2 -14 -16z" />
<glyph unicode="S" horiz-adv-x="487" d="M229 -9q-96 0 -174 29q-15 6 -15 17q0 9 3 21l8 31q3 12 13 12q5 0 16 -4q77 -27 155 -27q68 0 93.5 23t25.5 81v10q0 50 -18 69t-78 33l-68 16q-80 19 -114 56t-34 111v16q0 171 205 171q89 0 152 -21q17 -6 17 -15q0 -5 -7 -31l-6 -22q-3 -14 -14 -14q-5 0 -13 3 q-66 21 -126 21q-61 0 -87.5 -22t-26.5 -72v-10q0 -44 20.5 -61.5t73.5 -29.5l68 -16q82 -19 115 -55t33 -119v-12q0 -103 -50.5 -146t-166.5 -43z" />
<glyph unicode="T" horiz-adv-x="480" d="M444 567h-155v-547q0 -12 -4.5 -16t-16.5 -4h-56q-12 0 -16.5 4t-4.5 16v547h-155q-12 0 -16 4.5t-4 15.5v41q0 19 20 19h408q20 0 20 -19v-41q0 -11 -4 -15.5t-16 -4.5z" />
<glyph unicode="U" horiz-adv-x="599" d="M535 626v-412q0 -116 -57 -169q-59 -54 -179 -54q-118 0 -178 54q-57 51 -57 169v412q0 21 21 21h56q21 0 21 -21v-407q0 -81 29 -111q34 -37 108 -37q75 0 109 37q29 32 29 111v407q0 21 22 21h54q22 0 22 -21z" />
<glyph unicode="V" horiz-adv-x="539" d="M197 30q-100 285 -171 556q-11 42 -11 48q0 13 18 13h55q23 0 28 -20q60 -254 149 -526h9q86 260 149 526q5 20 28 20h52q21 0 21 -12q0 -5 -6 -28q-89 -321 -177 -577q-6 -18 -15 -24t-31 -6h-52q-21 0 -30 6t-16 24z" />
<glyph unicode="W" horiz-adv-x="800" d="M404 496h-8q-43 -232 -102 -468q-4 -18 -13.5 -23t-32.5 -5h-57q-23 0 -32.5 5.5t-13.5 22.5q-73 289 -121 551q-9 49 -9 55q0 13 19 13h52q15 0 20.5 -3.5t8.5 -17.5q52 -311 103 -528h8q44 178 105 487q4 17 12.5 22.5t28.5 5.5h56q20 0 28.5 -5.5t12.5 -22.5 q61 -309 105 -487h8q51 217 103 528q3 14 8.5 17.5t20.5 3.5h52q19 0 19 -13q0 -6 -9 -55q-48 -262 -121 -551q-4 -17 -13.5 -22.5t-32.5 -5.5h-57q-23 0 -32.5 5t-13.5 23q-59 236 -102 468z" />
<glyph unicode="X" horiz-adv-x="542" d="M309 412l100 215q9 20 34 20h59q14 0 14 -10q0 -5 -14 -33l-125 -251q-6 -13 -6 -20t6 -19l133 -268q15 -29 15 -36q0 -10 -19 -10h-51q-28 0 -37 19l-109 231q-12 26 -18 32.5t-17 6.5h-4q-11 0 -17 -6.5t-18 -32.5l-111 -231q-9 -19 -37 -19h-51q-19 0 -19 10 q0 7 15 36l135 263q6 12 6 21q0 12 -6 23l-125 251q-14 28 -14 33q0 10 14 10h59q25 0 34 -20l100 -215q11 -25 17.5 -32t17.5 -7h4q11 0 17.5 7t17.5 32z" />
<glyph unicode="Y" horiz-adv-x="478" d="M236 295h6q79 161 126 335q5 17 26 17h48q21 0 21 -12q0 -7 -7 -30q-66 -214 -168 -395v-190q0 -12 -4.5 -16t-17.5 -4h-54q-13 0 -17.5 4t-4.5 16v190q-100 176 -168 395q-7 23 -7 30q0 12 21 12h48q21 0 26 -17q44 -167 126 -335z" />
<glyph unicode="Z" horiz-adv-x="497" d="M33 24v21q0 13 18 43l297 479h-278q-20 0 -20 19v42q0 11 4 15t16 4h365q23 0 23 -21v-26q0 -22 -22 -57l-291 -463h285q12 0 16 -4t4 -14v-44q0 -10 -4 -14t-16 -4h-370q-27 0 -27 24z" />
<glyph unicode="[" horiz-adv-x="293" d="M253 -88h-163q-11 0 -15.5 4.5t-4.5 15.5v722q0 19 20 19h163q11 0 15 -3.5t4 -14.5v-47q0 -10 -3.5 -13t-15.5 -3h-94v-599h94q11 0 15 -3.5t4 -14.5v-47q0 -10 -3.5 -13t-15.5 -3z" />
<glyph unicode="\" horiz-adv-x="370" d="M244 -3l-206 649q-8 25 -8 30q0 11 21 11h45q23 0 30 -21l206 -649q8 -25 8 -30q0 -11 -21 -11h-45q-23 0 -30 21z" />
<glyph unicode="]" horiz-adv-x="293" d="M203 -88h-163q-12 0 -15.5 3t-3.5 13v47q0 11 4 14.5t15 3.5h94v599h-94q-12 0 -15.5 3t-3.5 13v47q0 11 4 14.5t15 3.5h163q20 0 20 -19v-722q0 -11 -4.5 -15.5t-15.5 -4.5z" />
<glyph unicode="^" d="M389 314l-120 182h-8l-120 -182q-11 -17 -21 -17q-8 0 -19 8l-27 20q-17 13 -17 21q0 5 6 14l147 220q8 11 14.5 13.5t21.5 2.5h38q15 0 21.5 -2.5t14.5 -13.5l147 -220q6 -9 6 -14q0 -8 -17 -21l-27 -20q-11 -8 -19 -8q-10 0 -21 17z" />
<glyph unicode="_" horiz-adv-x="508" d="M462 -82h-416q-13 0 -17 3.5t-4 15.5v31q0 11 4 15t17 4h416q13 0 17 -4t4 -15v-31q0 -12 -4 -15.5t-17 -3.5z" />
<glyph unicode="`" horiz-adv-x="337" d="M111 713l162 -95q12 -7 12 -13q0 -5 -6 -15l-15 -25q-7 -12 -14 -12q-5 0 -17 5l-166 77q-15 7 -15 16q0 6 9 21l21 35q6 11 14 11q6 0 15 -5z" />
<glyph unicode="a" horiz-adv-x="476" d="M343 14l-4 29h-2q-25 -52 -120 -52h-31q-148 0 -148 144v16q0 82 48 118q40 32 154 32h24q34 0 61 -3v42q0 47 -23 64.5t-76 17.5q-50 0 -109 -15q-16 -4 -21 -4q-10 0 -13 14l-4 19q-4 20 -4 26q0 11 14 15q68 22 145 22q97 0 140 -38t43 -132v-315q0 -14 -16 -14h-39 q-16 0 -19 14zM325 151v72q-24 3 -54 3h-44q-53 0 -74.5 -16t-21.5 -60v-14q0 -38 16 -54t54 -16h33q46 0 68.5 20.5t22.5 64.5z" />
<glyph unicode="b" horiz-adv-x="510" d="M260 67q64 0 89 31.5t25 130.5v32q0 90 -23.5 125.5t-87.5 35.5q-54 0 -81.5 -27t-27.5 -93v-129q0 -62 24 -84t82 -22zM154 659v-203h2q40 43 125 43q98 0 142.5 -55.5t44.5 -177.5v-40q0 -128 -50.5 -181.5t-160.5 -53.5q-100 0 -147.5 38t-47.5 136v494q0 18 20 18h52 q11 0 15.5 -4t4.5 -14z" />
<glyph unicode="c" horiz-adv-x="428" d="M379 77l6 -21q5 -16 5 -23q0 -11 -15 -17q-56 -25 -135 -25q-99 0 -143 43q-55 52 -55 196v32q0 77 12 118t41 69q53 50 150 50q87 0 149 -42q9 -6 9 -13q0 -5 -10 -24l-14 -26q-6 -10 -12 -10q-5 0 -12 4q-53 33 -107 33q-53 0 -80 -24q-16 -15 -23 -38t-8 -41.5 t-1 -63.5v-16q0 -106 25 -138q27 -33 91 -33q51 0 99 18q10 4 15 4q9 0 13 -12z" />
<glyph unicode="d" horiz-adv-x="510" d="M356 178v121q0 66 -26 95t-83 29q-62 0 -86.5 -36.5t-24.5 -125.5v-27q0 -95 24 -131t88 -36q59 0 83.5 24.5t24.5 86.5zM448 659v-485q0 -183 -200 -183q-113 0 -159.5 55.5t-46.5 184.5v34q0 125 48.5 179.5t152.5 54.5q72 0 111 -37h2v197q0 18 20 18h52q11 0 15.5 -4 t4.5 -14z" />
<glyph unicode="e" horiz-adv-x="465" d="M422 299v-72q0 -29 -28 -29h-258q2 -74 26.5 -102.5t95.5 -28.5q58 0 106 19q12 4 16 4q8 0 12 -11l7 -24q5 -17 5 -21q0 -9 -12 -15q-61 -28 -145 -28q-115 0 -160 54.5t-45 182.5v34q0 122 45 179.5t151 57.5q92 0 138 -48t46 -152zM135 273h185q13 0 13 14 q0 74 -20.5 105t-76.5 31q-60 0 -80.5 -34.5t-20.5 -115.5z" />
<glyph unicode="f" horiz-adv-x="312" d="M181 411v-393q0 -10 -4.5 -14t-15.5 -4h-52q-20 0 -20 18v393h-58q-15 0 -15 16v32q0 14 15 17l58 11v35q0 83 35 121q40 43 126 43q52 0 88 -10q13 -4 13 -12q0 -9 -5 -37l-2 -12q-2 -15 -25 -11q-32 5 -59 5q-37 0 -56 -15q-23 -18 -23 -76v-28h100q17 0 17 -16v-48 q0 -15 -17 -15h-100z" />
<glyph unicode="g" horiz-adv-x="489" d="M334 488q55 -17 79 -61.5t24 -131.5v-18q0 -128 -64 -162q83 -44 83 -138v-11q0 -153 -200 -153q-110 0 -197 36q-15 7 -15 16q0 3 5 21l10 29q3 9 10 9q2 0 14 -4q82 -32 166 -32q114 0 114 88v8q0 70 -62 97q-28 -5 -62 -5q-105 0 -151.5 48.5t-46.5 152.5v18 q0 110 48 157t150 47q15 0 22 -1q29 82 127 82h29q17 0 17 -18v-38q0 -9 -3 -12.5t-13 -3.5h-35q-38 0 -49 -20zM135 299v-22q0 -69 22 -99t82 -30t82 30t22 100v21q0 68 -23 97.5t-81 29.5q-60 0 -82 -29t-22 -98z" />
<glyph unicode="h" horiz-adv-x="515" d="M456 305v-287q0 -10 -4.5 -14t-15.5 -4h-52q-20 0 -20 18v287q0 66 -24 92t-82 26q-102 0 -102 -112v-293q0 -10 -4.5 -14t-15.5 -4h-52q-20 0 -20 18v641q0 18 20 18h52q11 0 15.5 -4t4.5 -14v-202q44 42 132 42q82 0 125 -44.5t43 -149.5z" />
<glyph unicode="i" horiz-adv-x="234" d="M163 472v-454q0 -10 -4.5 -14t-15.5 -4h-52q-20 0 -20 18v454q0 18 20 18h52q11 0 15.5 -4t4.5 -14zM57 612v7q0 29 16 43.5t42 14.5h5q57 0 57 -58v-7q0 -58 -57 -58h-5q-26 0 -42 14.5t-16 43.5z" />
<glyph unicode="j" horiz-adv-x="237" d="M165 472v-456q0 -97 -31 -139q-39 -55 -144 -55h-31q-17 0 -17 16v48q0 16 15 16h23q59 0 76 27t17 97v446q0 18 20 18h52q11 0 15.5 -4t4.5 -14zM59 612v7q0 29 16 43.5t42 14.5h5q57 0 57 -58v-7q0 -58 -57 -58h-5q-26 0 -42 14.5t-16 43.5z" />
<glyph unicode="k" horiz-adv-x="443" d="M156 219v-201q0 -10 -4.5 -14t-15.5 -4h-52q-20 0 -20 18v641q0 18 20 18h52q11 0 15.5 -4t4.5 -14v-359h38q12 0 19 11l109 165q9 14 28 14h58q25 0 12 -20l-139 -201q-4 -6 -4 -10q0 -6 4 -11l132 -209q16 -25 16 -30q0 -9 -14 -9h-59q-19 0 -29 15l-119 195 q-6 9 -17 9h-35z" />
<glyph unicode="l" horiz-adv-x="268" d="M157 659v-527q0 -30 8 -42t33 -12h25q9 0 13 -3.5t4 -13.5v-43q0 -18 -16 -18h-43q-63 0 -89.5 27t-26.5 91v541q0 18 20 18h52q11 0 15.5 -4t4.5 -14z" />
<glyph unicode="m" horiz-adv-x="804" d="M745 309v-291q0 -10 -4.5 -14t-15.5 -4h-52q-20 0 -20 18v287q0 65 -22 91.5t-74 26.5q-71 0 -109 -50q4 -29 4 -73v-282q0 -10 -4.5 -14t-15.5 -4h-52q-20 0 -20 18v287q0 64 -24.5 91t-79.5 27q-50 0 -75 -24t-25 -80v-301q0 -10 -4.5 -14t-15.5 -4h-52q-20 0 -20 18 v456q0 16 16 16h36q15 0 18 -14l5 -33h2q44 56 135 56q100 0 144 -65h1q62 65 157 65q88 0 127.5 -45.5t39.5 -144.5z" />
<glyph unicode="n" horiz-adv-x="515" d="M64 18v457q0 15 16 15h35q17 0 19 -15l5 -32h2q46 56 142 56q88 0 130.5 -46t42.5 -151v-284q0 -10 -4.5 -14t-15.5 -4h-52q-20 0 -20 18v288q0 63 -24 90.5t-81 27.5q-52 0 -77.5 -23.5t-25.5 -80.5v-302q0 -10 -4.5 -14t-15.5 -4h-52q-20 0 -20 18z" />
<glyph unicode="o" horiz-adv-x="488" d="M352 255q0 88 -16 123q-21 47 -92 47t-92 -47q-16 -35 -16 -123v-1v-1v-1v-1v-1v-1v-2v-1v-2v-9q0 -88 16 -123q21 -47 92 -47t92 47q16 35 16 123v0v1v1v1v1v2v1v1v2v1v9zM446 262v-34q0 -136 -50 -186q-51 -51 -152 -51t-152 51q-50 50 -50 186v34q0 136 50 186 q51 51 152 51t152 -51q50 -50 50 -186z" />
<glyph unicode="p" horiz-adv-x="513" d="M156 31v-190q0 -10 -4.5 -14t-15.5 -4h-52q-20 0 -20 18v632q0 17 16 17h35q15 0 18 -14l6 -32h2q47 55 146 55q96 0 140 -51t44 -177v-45q0 -121 -43 -178t-148 -57q-83 0 -123 40h-1zM266 422q-61 0 -85.5 -26t-24.5 -85v-136q0 -57 27.5 -82.5t83.5 -25.5 q64 0 87 35.5t23 126.5v33q0 91 -23 125.5t-88 34.5z" />
<glyph unicode="q" horiz-adv-x="512" d="M247 422q-64 0 -87.5 -34.5t-23.5 -132.5v-28q0 -95 24 -127.5t87 -32.5q110 0 110 110v132q0 113 -110 113zM449 472v-631q0 -10 -4.5 -14t-15.5 -4h-52q-20 0 -20 18v194h-1q-37 -44 -121 -44q-102 0 -147.5 54t-45.5 177v41q0 128 46 182t150 54q92 0 133 -55h2l6 32 q3 14 20 14h31q19 0 19 -18z" />
<glyph unicode="r" horiz-adv-x="324" d="M134 475l5 -49h2q20 34 48 49t76 15h20q12 0 16.5 -4t4.5 -14v-44q0 -17 -21 -17h-22q-61 0 -85 -28q-22 -26 -22 -87v-278q0 -10 -4.5 -14t-15.5 -4h-52q-20 0 -20 18v457q0 15 16 15h35q18 0 19 -15z" />
<glyph unicode="s" horiz-adv-x="417" d="M200 -9q-78 0 -146 25q-14 5 -14 14q0 6 6 30l5 18q4 14 13 14q3 0 7.5 -1.5t12.5 -4.5t16 -5q45 -14 102 -14q48 0 69.5 16.5t21.5 52.5v5q0 33 -16 47.5t-55 22.5l-47 10q-76 16 -101.5 44t-25.5 91v7q0 70 41 103t127 33q71 0 127 -17q12 -4 12 -13q0 -1 -6 -29 l-5 -19q-4 -14 -12 -14q-6 0 -20 4q-40 11 -90 11t-69 -13.5t-19 -45.5v-5q0 -26 15.5 -39t59.5 -23l46 -10q68 -14 96 -45.5t28 -95.5v-8q0 -71 -45.5 -108.5t-133.5 -37.5z" />
<glyph unicode="t" horiz-adv-x="338" d="M296 0h-60q-87 0 -120 36q-30 34 -30 122v253h-60q-15 0 -15 15v32q0 9 2.5 12t10.5 5l62 12v109q0 19 20 19h53q19 0 19 -19v-106h108q16 0 16 -18v-43q0 -18 -16 -18h-108v-246q0 -50 12 -68q13 -19 63 -19h43q10 0 14 -3.5t4 -15.5v-41q0 -10 -3.5 -14t-14.5 -4z" />
<glyph unicode="u" horiz-adv-x="499" d="M348 162v310q0 18 20 18h52q11 0 15.5 -4t4.5 -15v-324q0 -85 -51 -122q-44 -34 -139 -34t-140 34q-51 37 -51 122v325q0 18 20 18h52q11 0 15.5 -4t4.5 -14v-310q0 -55 23 -74q24 -20 76 -20t77 22q21 18 21 72z" />
<glyph unicode="v" horiz-adv-x="448" d="M30 490h55q18 0 22 -17q49 -195 114 -385h7q64 188 113 385q4 17 22 17h55q15 0 15 -11q0 -6 -6 -30q-61 -237 -133 -417q-7 -19 -16.5 -25.5t-26.5 -6.5h-54q-17 0 -26.5 6.5t-16.5 25.5q-72 180 -133 417q-6 24 -6 30q0 11 15 11z" />
<glyph unicode="w" horiz-adv-x="671" d="M511 0h-50q-34 0 -43 33q-51 185 -79 334h-6q-24 -127 -79 -334q-9 -33 -44 -33h-49q-32 0 -42 33q-50 171 -99 414q-5 23 -5 31q0 12 21 12h48q20 0 23 -17q35 -205 80 -385h4q37 144 80 349q3 17 11 23t27 6h54q18 0 26 -6t12 -23q39 -193 79 -349h4q45 180 80 385 q3 17 23 17h48q21 0 21 -12q0 -8 -5 -31q-49 -243 -99 -414q-10 -33 -41 -33z" />
<glyph unicode="x" horiz-adv-x="449" d="M250 308l82 167q8 15 28 15h54q14 0 14 -11q0 -6 -13 -30l-89 -170q-11 -20 -11 -27t12 -31l91 -177q16 -32 16 -35q0 -9 -14 -9h-52q-18 0 -23.5 2.5t-10.5 13.5l-84 180q-7 15 -22 15h-7q-15 0 -22 -15l-84 -180q-5 -11 -11 -13.5t-23 -2.5h-52q-14 0 -14 9q0 3 16 35 l91 177q12 24 12 31t-11 27l-89 170q-13 24 -13 30q0 11 14 11h54q20 0 28 -15l82 -167q7 -15 22 -15h7q14 0 22 15z" />
<glyph unicode="y" horiz-adv-x="439" d="M127 -156q0 5 12 29q33 67 58 129q-45 9 -69 72q-57 149 -104 360q-7 35 -7 44q0 12 16 12h57q17 0 20 -15q42 -211 85 -337q10 -30 16 -40.5t14 -10.5h4q66 195 102 388q3 15 20 15h59q14 0 14 -10q0 -6 -7 -37q-37 -160 -81.5 -297.5t-124.5 -319.5q-7 -15 -14 -15 q-8 0 -27 8l-27 11q-16 6 -16 14z" />
<glyph unicode="z" horiz-adv-x="406" d="M376 60v-43q0 -17 -17 -17h-310q-22 0 -22 18v20q0 18 20 49l209 325h-201q-17 0 -17 17v43q0 10 3 14t14 4h302q16 0 16 -16v-20q0 -18 -26 -58l-207 -318h219q17 0 17 -18z" />
<glyph unicode="{" horiz-adv-x="328" d="M134 409v160q0 61 25.5 88t78.5 27h49q11 0 15 -3.5t4 -14.5v-44q0 -19 -18 -19h-26q-24 0 -31.5 -12t-7.5 -54v-121q0 -90 -70 -122v-3q38 -19 54 -47t16 -79v-120q0 -42 7.5 -54t31.5 -12h26q18 0 18 -19v-44q0 -11 -4 -14.5t-15 -3.5h-49q-53 0 -78.5 27t-25.5 88v157 q0 37 -16 54.5t-51 29.5q-12 4 -14.5 7t-2.5 14v35q0 12 3 15.5t16 6.5q33 10 49 26.5t16 50.5z" />
<glyph unicode="|" horiz-adv-x="230" d="M160 663v-659q0 -15 -6 -20t-21 -5h-36q-15 0 -21 5t-6 20v659q0 14 5.5 19.5t20.5 5.5h38q15 0 20.5 -5.5t5.5 -19.5z" />
<glyph unicode="}" horiz-adv-x="328" d="M194 569v-160q0 -34 16 -50.5t49 -26.5q13 -3 16 -6.5t3 -15.5v-35q0 -11 -2.5 -14t-14.5 -7q-35 -12 -51 -29.5t-16 -54.5v-157q0 -61 -25.5 -88t-78.5 -27h-49q-11 0 -15 3.5t-4 14.5v44q0 19 18 19h26q24 0 31.5 12t7.5 54v120q0 51 16 79t54 47v3q-70 32 -70 122v121 q0 42 -7.5 54t-31.5 12h-26q-18 0 -18 19v44q0 11 4 14.5t15 3.5h49q53 0 78.5 -27t25.5 -88z" />
<glyph unicode="~" d="M358 240q-37 0 -70 17t-59.5 33.5t-47.5 16.5q-33 0 -74 -55q-7 -10 -15 -10q-6 0 -15 5l-22 14q-21 13 -21 21t13 28q58 85 135 85q41 0 91 -33.5t81 -33.5q34 0 66 55q6 11 14 11q6 0 16 -5l34 -17q12 -5 12 -15q0 -7 -4 -15q-56 -102 -134 -102z" />
<glyph unicode="&#xa1;" horiz-adv-x="216" d="M112 380h-7q-24 0 -39.5 13.5t-15.5 39.5v13q0 53 55 53h7q54 0 54 -53v-13q0 -53 -54 -53zM55 -138l12 439q1 15 7 19.5t21 4.5h26q16 0 23 -5t7 -20l13 -438q1 -16 -4.5 -22t-23.5 -6h-52q-18 0 -24 5.5t-5 22.5z" />
<glyph unicode="&#xa2;" d="M422 77l6 -21q5 -16 5 -23q0 -11 -15 -17q-35 -16 -95 -23v-88q0 -14 -15 -14h-30q-15 0 -15 14v87q-86 5 -123 42q-55 52 -55 196v32q0 77 12 118t41 69q44 43 125 49v81q0 14 15 14h30q15 0 15 -14v-83q68 -9 114 -40q9 -6 9 -13q0 -5 -10 -24l-14 -26q-6 -10 -12 -10 q-5 0 -12 4q-38 23 -75 31v-350q39 4 71 17q10 4 15 4q9 0 13 -12zM204 100q19 -23 59 -31v350q-33 -5 -52 -22q-16 -15 -23 -38t-8 -41.5t-1 -63.5v-16q0 -106 25 -138z" />
<glyph unicode="&#xa3;" d="M441 564q-51 14 -101 14q-55 0 -77 -23q-24 -24 -24 -100v-87h167q12 0 15.5 -4t3.5 -15v-40q0 -10 -4 -13.5t-15 -3.5h-167v-44q0 -61 -12 -100.5t-47 -68.5v-1h278q14 0 18 -3.5t4 -15.5v-40q0 -19 -21 -19h-382q-15 0 -19 4t-4 17v25q0 17 21 31q66 44 66 149v66h-51 q-12 0 -16 3t-4 14v27q0 11 4 15.5t15 6.5l52 9v88q0 104 47 152q49 49 151 49q73 0 125 -19q15 -5 15 -15q0 -6 -6 -26l-6 -20q-5 -15 -12 -15q-3 0 -14 3z" />
<glyph unicode="&#xa4;" d="M455 287q0 -54 -27 -98l58 -57q17 -17 17 -23q0 -7 -7 -14l-36 -36q-8 -8 -14 -8q-7 0 -14 7l-68 67q-39 -29 -99 -29t-99 29l-68 -67q-7 -7 -14 -7q-6 0 -14 8l-36 36q-7 7 -7 14q0 6 17 23l58 57q-27 44 -27 98t27 98l-58 57q-17 17 -17 23q0 7 7 14l36 36q8 8 14 8 q7 0 14 -7l68 -67q39 29 99 29t99 -29l68 67q7 7 14 7q6 0 14 -8l36 -36q7 -7 7 -14q0 -6 -17 -23l-58 -57q27 -44 27 -98zM367 287q0 45 -29.5 74t-72.5 29t-72.5 -29t-29.5 -74t29.5 -74t72.5 -29t72.5 29t29.5 74z" />
<glyph unicode="&#xa5;" d="M314 96v-76q0 -12 -4.5 -16t-17.5 -4h-54q-13 0 -17.5 4t-4.5 16v76h-117q-12 0 -14.5 4t-2.5 14v35q0 12 2.5 15.5t14.5 3.5h117v54h-117q-12 0 -14.5 4t-2.5 14v35q0 12 2.5 15.5t14.5 3.5h79q-82 158 -138 334q-6 19 18 19h56q12 0 17.5 -3.5t8.5 -14.5 q51 -175 122 -325h7q67 141 122 325q3 13 10 15.5t27 2.5h45q23 0 17 -19q-59 -185 -138 -334h79q12 0 14.5 -3.5t2.5 -15.5v-35q0 -10 -2.5 -14t-14.5 -4h-117v-54h117q12 0 14.5 -3.5t2.5 -15.5v-35q0 -10 -2.5 -14t-14.5 -4h-117z" />
<glyph unicode="&#xa6;" horiz-adv-x="230" d="M70 439v224q0 14 5.5 19.5t20.5 5.5h38q15 0 20.5 -5.5t5.5 -19.5v-224q0 -15 -6 -20t-21 -5h-36q-15 0 -21 5t-6 20zM70 4v224q0 14 5.5 19.5t20.5 5.5h38q15 0 20.5 -5.5t5.5 -19.5v-224q0 -15 -6 -20t-21 -5h-36q-15 0 -21 5t-6 20z" />
<glyph unicode="&#xa7;" horiz-adv-x="436" d="M383 341v-4q0 -66 -57 -100q56 -29 56 -104v-9q0 -63 -42 -97q-45 -36 -137 -36q-73 0 -134 24q-15 6 -15 15q0 5 4 20l7 29q3 14 13 14q4 0 10 -2q64 -23 115 -23q50 0 69.5 13.5t19.5 41.5v6q0 23 -15.5 36t-48.5 20l-57 12q-62 13 -89.5 40t-27.5 80v5q0 32 16.5 55.5 t40.5 34.5q-56 26 -56 104v9q0 123 172 123q58 0 115 -17q11 -4 11 -11q0 -5 -4 -21l-7 -29q-3 -13 -11 -13q-5 0 -19 4q-41 12 -86 12q-39 0 -59 -10q-22 -12 -22 -41v-6q0 -21 14 -32.5t45 -17.5l60 -12q64 -12 91.5 -37t27.5 -76zM144 327q0 -23 12 -35t43 -19l56 -12 q36 23 36 65q0 23 -12 34.5t-47 18.5l-50 10q-38 -17 -38 -62z" />
<glyph unicode="&#xa8;" horiz-adv-x="354" d="M149 644v-16q0 -48 -49 -48h-10q-48 0 -48 48v16q0 48 48 48h10q49 0 49 -48zM312 644v-16q0 -48 -49 -48h-10q-48 0 -48 48v16q0 48 48 48h10q49 0 49 -48z" />
<glyph unicode="&#xa9;" horiz-adv-x="824" d="M519 224l6 -18q5 -15 5 -20q0 -6 -9 -11q-43 -23 -102 -23q-87 0 -122.5 44.5t-35.5 134.5v32q0 91 35 135.5t120 44.5q61 0 112 -28q8 -5 8 -13q0 -6 -8 -22l-9 -18q-5 -10 -13 -10q-2 0 -22 9q-28 14 -59 14q-42 0 -59.5 -24.5t-17.5 -87.5v-23q0 -62 14.5 -90.5 t64.5 -28.5q38 0 69 14q6 3 11 3q8 0 12 -14zM412 69q128 0 200.5 76.5t72.5 201.5q0 126 -72.5 202.5t-200.5 76.5t-200.5 -76.5t-72.5 -202.5q0 -125 72.5 -201.5t200.5 -76.5zM412 -15q-166 0 -266.5 100.5t-100.5 262.5t100.5 262t266.5 100t266.5 -100.5t100.5 -261.5 q0 -162 -100.5 -262.5t-266.5 -100.5z" />
<glyph unicode="&#xaa;" horiz-adv-x="308" d="M213 304l-3 17q-21 -32 -67 -32h-23q-94 0 -94 89v11q0 49 28.5 71t91.5 22h24q14 0 34 -2v18q0 26 -12 35t-48 9q-30 0 -65 -8q-15 -3 -16 -3q-7 0 -9 15l-3 17q-2 10 -2 14q0 7 10 11q44 14 94 14q65 0 92.5 -23.5t27.5 -81.5v-193q0 -10 -10 -10h-38q-11 0 -12 10z M204 397v27q-16 2 -29 2h-31q-30 0 -40 -9t-10 -30v-7q0 -20 8.5 -28.5t29.5 -8.5h18q54 0 54 54z" />
<glyph unicode="&#xab;" horiz-adv-x="543" d="M148 232l110 -102q11 -9 11 -18q0 -10 -15 -24l-16 -15q-9 -8 -17 -8q-9 0 -25 13l-145 119q-14 11 -14 31v8q0 20 14 31l145 120q16 13 25 13q8 0 17 -8l16 -15q15 -14 15 -24q0 -9 -11 -18zM387 232l110 -102q11 -9 11 -18q0 -10 -15 -24l-16 -15q-9 -8 -17 -8 q-9 0 -25 13l-145 119q-14 11 -14 31v8q0 20 14 31l145 120q16 13 25 13q8 0 17 -8l16 -15q15 -14 15 -24q0 -9 -11 -18z" />
<glyph unicode="&#xac;" d="M461 40h-46q-13 0 -18 4.5t-5 17.5v154h-323q-13 0 -18.5 5t-5.5 18v41q0 23 24 23h391q24 0 24 -23v-218q0 -13 -5 -17.5t-18 -4.5z" />
<glyph unicode="&#xad;" horiz-adv-x="315" d="M257 216h-199q-23 0 -23 20v45q0 13 5 17.5t18 4.5h199q13 0 18 -4.5t5 -17.5v-45q0 -20 -23 -20z" />
<glyph unicode="&#xae;" horiz-adv-x="824" d="M468 172l-69 128q-21 0 -31 1v-127q0 -17 -21 -17h-40q-20 0 -20 17v339q0 23 21 27q32 6 95 6q148 0 148 -117v-10q0 -88 -77 -110l67 -112q15 -26 15 -31q0 -9 -14 -9h-50q-16 0 -24 15zM368 365q20 -2 37 -2q33 0 48.5 13t15.5 45v5q0 29 -14.5 41.5t-46.5 12.5 q-13 0 -33 -2q-7 -1 -7 -11v-102zM412 69q128 0 200.5 76.5t72.5 201.5q0 126 -72.5 202.5t-200.5 76.5t-200.5 -76.5t-72.5 -202.5q0 -125 72.5 -201.5t200.5 -76.5zM412 -15q-166 0 -266.5 100.5t-100.5 262.5t100.5 262t266.5 100t266.5 -100.5t100.5 -261.5 q0 -162 -100.5 -262.5t-266.5 -100.5z" />
<glyph unicode="&#xaf;" horiz-adv-x="352" d="M287 592h-222q-19 0 -19 18v38q0 17 19 17h222q19 0 19 -17v-38q0 -18 -19 -18z" />
<glyph unicode="&#xb0;" horiz-adv-x="344" d="M172 542q24 0 38.5 16t14.5 42t-14.5 42t-38.5 16t-38.5 -16t-14.5 -42t14.5 -42t38.5 -16zM172 466q-56 0 -95 39t-39 95t39 95t95 39t95 -39t39 -95t-39 -95t-95 -39z" />
<glyph unicode="&#xb1;" d="M219 336h-150q-13 0 -18.5 5t-5.5 18v41q0 23 24 23h150v145q0 14 5 18t21 4h38q16 0 21.5 -4t5.5 -18v-145h150q24 0 24 -23v-41q0 -13 -5.5 -18t-18.5 -5h-150v-145q0 -14 -5.5 -18t-21.5 -4h-38q-16 0 -21 4t-5 18v145zM460 0h-391q-13 0 -18.5 5t-5.5 18v41 q0 23 24 23h391q24 0 24 -23v-41q0 -13 -5.5 -18t-18.5 -5z" />
<glyph unicode="&#xb2;" horiz-adv-x="365" d="M103 723q-7 -3 -12 -3q-6 0 -11 20l-4 17q-3 12 -3 19q0 9 12 13q46 16 102 16t86.5 -26t30.5 -74v-6q0 -39 -16 -63.5t-58 -45.5l-49 -24q-24 -12 -32.5 -24t-8.5 -30v-7h142q10 0 13.5 -3.5t3.5 -13.5v-34q0 -17 -17 -17h-202q-12 0 -16.5 4t-4.5 16v26q0 52 16.5 84.5 t55.5 51.5l47 23q26 13 36 24t10 29v3q0 36 -51 36q-32 0 -70 -11z" />
<glyph unicode="&#xb3;" horiz-adv-x="365" d="M60 477l4 21q3 12 12 12q3 0 9 -2q41 -13 79 -13q58 0 58 42v5q0 27 -13 35.5t-55 8.5h-21q-15 0 -15 16v35q0 15 15 15h20q39 0 52 10t13 33v5q0 34 -48 34q-29 0 -66 -11q-6 -2 -10 -2q-7 0 -11 13l-5 20q-4 16 -4 20q0 7 10 11q46 18 103 18q111 0 111 -92v-8 q0 -62 -47 -81v-3q53 -14 53 -76v-6q0 -109 -131 -109q-57 0 -102 14q-14 4 -14 13t3 22z" />
<glyph unicode="&#xb4;" horiz-adv-x="337" d="M64 618l162 95q9 5 15 5q8 0 14 -11l21 -35q9 -15 9 -21q0 -9 -15 -16l-166 -77q-12 -5 -17 -5q-7 0 -14 12l-15 25q-6 10 -6 15q0 6 12 13z" />
<glyph unicode="&#xb6;" horiz-adv-x="598" d="M459 -112h-47q-13 0 -17 3.5t-4 15.5v693h-83v-693q0 -13 -3.5 -16t-17.5 -3h-54q-13 0 -17 3.5t-4 15.5v406q-74 5 -122.5 55.5t-48.5 126.5q0 79 54 131.5t147 52.5h296q11 0 14.5 -3.5t3.5 -13.5v-46q0 -16 -18 -16h-58v-693q0 -13 -3.5 -16t-17.5 -3z" />
<glyph unicode="&#xb7;" horiz-adv-x="207" d="M162 298v-16q0 -53 -53 -53h-11q-24 0 -38.5 13.5t-14.5 39.5v16q0 26 14.5 39.5t38.5 13.5h11q53 0 53 -53z" />
<glyph unicode="&#xb8;" horiz-adv-x="318" d="M160 -20l-7 -42q15 3 32 3q32 0 53.5 -20t21.5 -60q0 -96 -117 -96q-37 0 -76 11q-10 3 -10 10q0 6 2 18l3 19q1 10 8 10q3 0 11 -2q28 -8 55 -8t38.5 7.5t11.5 27.5q0 28 -33 28q-17 0 -34 -3q-10 -2 -11 -2q-6 0 -10 7l-8 13q-3 6 -3 11q0 4 3 19l11 62q2 8 11 8h41 q9 0 9 -6q0 -5 -2 -15z" />
<glyph unicode="&#xb9;" horiz-adv-x="365" d="M297 437h-216q-11 0 -15 3.5t-4 13.5v34q0 17 19 17h71v210h-4l-56 -37q-7 -5 -11 -5q-6 0 -12 9l-16 25q-8 11 -8 17t7 11l74 48q19 13 44 13h34q26 0 26 -23v-268h67q19 0 19 -17v-34q0 -10 -4 -13.5t-15 -3.5z" />
<glyph unicode="&#xba;" horiz-adv-x="329" d="M107 450v-10q0 -54 12.5 -73t45.5 -19t45 19t12 73v10q0 54 -12.5 73.5t-44.5 19.5q-33 0 -45.5 -20t-12.5 -73zM294 458v-24q0 -78 -30 -111.5t-99 -33.5t-99.5 33.5t-30.5 111.5v24q0 78 30.5 111t99.5 33t99 -33t30 -111z" />
<glyph unicode="&#xbb;" horiz-adv-x="543" d="M46 130l110 102l-110 103q-11 9 -11 18q0 10 15 24l16 15q9 8 17 8q9 0 25 -13l145 -120q14 -11 14 -31v-8q0 -20 -14 -31l-145 -119q-16 -13 -25 -13q-8 0 -17 8l-16 15q-15 14 -15 24q0 9 11 18zM285 130l110 102l-110 103q-11 9 -11 18q0 10 15 24l16 15q9 8 17 8 q9 0 25 -13l145 -120q14 -11 14 -31v-8q0 -20 -14 -31l-145 -119q-16 -13 -25 -13q-8 0 -17 8l-16 15q-15 14 -15 24q0 9 11 18z" />
<glyph unicode="&#xbc;" horiz-adv-x="845" d="M659 286l-89 -140h91v140h-2zM725 0h-48q-16 0 -16 14v69h-151q-10 0 -13.5 3t-3.5 13v27q0 9 13 28l115 182q15 23 42 23h56q13 0 17.5 -4t4.5 -17v-192h34q8 0 10 -2.5t2 -10.5v-36q0 -14 -12 -14h-34v-69q0 -14 -16 -14zM294 288h-216q-11 0 -15 3.5t-4 13.5v34 q0 17 19 17h71v210h-4l-56 -37q-7 -5 -11 -5q-6 0 -12 9l-16 25q-8 11 -8 17t7 11l74 48q19 13 44 13h34q26 0 26 -23v-268h67q19 0 19 -17v-34q0 -10 -4 -13.5t-15 -3.5zM236 42l356 598q9 16 31 16h49q17 0 17 -10q0 -7 -22 -44l-356 -598q-9 -16 -31 -16h-49 q-17 0 -17 10q0 7 22 44z" />
<glyph unicode="&#xbd;" horiz-adv-x="845" d="M236 42l356 598q9 16 31 16h49q17 0 17 -10q0 -7 -22 -44l-356 -598q-9 -16 -31 -16h-49q-17 0 -17 10q0 7 22 44zM294 288h-216q-11 0 -15 3.5t-4 13.5v34q0 17 19 17h71v210h-4l-56 -37q-7 -5 -11 -5q-6 0 -12 9l-16 25q-8 11 -8 17t7 11l74 48q19 13 44 13h34 q26 0 26 -23v-268h67q19 0 19 -17v-34q0 -10 -4 -13.5t-15 -3.5zM602 286q-8 -3 -12 -3q-6 0 -11 20l-4 17q-3 12 -3 19q0 9 12 13q46 16 102 16t86.5 -26t30.5 -74v-6q0 -40 -16.5 -64t-57.5 -45l-49 -24q-24 -12 -32.5 -24t-8.5 -30v-7h142q10 0 13.5 -3.5t3.5 -13.5v-34 q0 -17 -17 -17h-202q-12 0 -16.5 4t-4.5 16v26q0 52 16.5 84.5t55.5 51.5l47 23q26 13 36 24t10 29v3q0 36 -51 36q-32 0 -70 -11z" />
<glyph unicode="&#xbe;" horiz-adv-x="845" d="M659 286l-89 -140h91v140h-2zM725 0h-48q-16 0 -16 14v69h-151q-10 0 -13.5 3t-3.5 13v27q0 9 13 28l115 182q15 23 42 23h56q13 0 17.5 -4t4.5 -17v-192h34q8 0 10 -2.5t2 -10.5v-36q0 -14 -12 -14h-34v-69q0 -14 -16 -14zM220 42l356 598q9 16 31 16h49q17 0 17 -10 q0 -7 -22 -44l-356 -598q-9 -16 -31 -16h-49q-17 0 -17 10q0 7 22 44zM70 330l4 21q3 12 12 12q3 0 9 -2q41 -13 79 -13q58 0 58 42v5q0 27 -13 35.5t-55 8.5h-21q-15 0 -15 16v35q0 15 15 15h20q39 0 52 10t13 33v5q0 34 -48 34q-29 0 -66 -11q-6 -2 -10 -2q-7 0 -11 13 l-5 20q-4 16 -4 20q0 7 10 11q46 18 103 18q111 0 111 -92v-8q0 -62 -47 -81v-3q53 -14 53 -76v-6q0 -109 -131 -109q-57 0 -102 14q-14 4 -14 13q0 8 3 22z" />
<glyph unicode="&#xbf;" horiz-adv-x="444" d="M41 -8v6q0 104 107 175l27 18q38 26 53 52.5t15 70.5v3q0 16 18 16h42q18 0 18 -16v-6q0 -70 -17.5 -104t-64.5 -66l-29 -20q-71 -49 -71 -120v-6q0 -83 101 -83q35 0 79 11q15 4 30 9t23.5 7.5t13.5 2.5q9 0 13 -13l6 -20q6 -20 6 -26q0 -10 -13 -16q-77 -33 -170 -33 q-187 0 -187 158zM285 380h-7q-55 0 -55 58q0 61 55 61h7q29 0 42 -14t13 -44v-8q0 -26 -15.5 -39.5t-39.5 -13.5z" />
<glyph unicode="&#xc0;" horiz-adv-x="548" d="M253 647h42q25 0 35.5 -6t17.5 -26q93 -262 178 -572q7 -23 7 -31q0 -12 -20 -12h-48q-18 0 -24 3.5t-10 17.5q-19 78 -41 154h-232q-22 -76 -41 -154q-4 -14 -10 -17.5t-24 -3.5h-48q-20 0 -20 12q0 8 7 31q85 310 178 572q7 20 17.5 26t35.5 6zM277 550h-6 q-34 -99 -90 -292h186q-56 193 -90 292zM185 852l168 -85q12 -5 13 -12q0 -5 -6 -15l-13 -26q-6 -13 -13 -13t-18 4l-170 67q-15 6 -16 15q0 4 8 22l19 36q5 10 13 12q6 0 15 -5z" />
<glyph unicode="&#xc1;" horiz-adv-x="548" d="M253 647h42q25 0 35.5 -6t17.5 -26q93 -262 178 -572q7 -23 7 -31q0 -12 -20 -12h-48q-18 0 -24 3.5t-10 17.5q-19 78 -41 154h-232q-22 -76 -41 -154q-4 -14 -10 -17.5t-24 -3.5h-48q-20 0 -20 12q0 8 7 31q85 310 178 572q7 20 17.5 26t35.5 6zM277 550h-6 q-34 -99 -90 -292h186q-56 193 -90 292zM200 767l168 85q9 5 15 5q8 -2 13 -12l19 -36q8 -18 8 -22q-1 -9 -16 -15l-170 -67q-11 -4 -18 -4t-13 13l-13 26q-6 11 -6 15q1 7 13 12z" />
<glyph unicode="&#xc2;" horiz-adv-x="548" d="M253 647h42q25 0 35.5 -6t17.5 -26q93 -262 178 -572q7 -23 7 -31q0 -12 -20 -12h-48q-18 0 -24 3.5t-10 17.5q-19 78 -41 154h-232q-22 -76 -41 -154q-4 -14 -10 -17.5t-24 -3.5h-48q-20 0 -20 12q0 8 7 31q85 310 178 572q7 20 17.5 26t35.5 6zM277 550h-6 q-34 -99 -90 -292h186q-56 193 -90 292zM250 878h46q13 0 21 -9l98 -114q7 -9 7 -13q0 -6 -8 -12l-23 -16q-11 -8 -17 -8t-14 8l-85 87h-4l-85 -87q-8 -8 -14 -8t-17 8l-23 16q-8 6 -8 12q0 4 7 13l98 114q8 9 21 9z" />
<glyph unicode="&#xc3;" horiz-adv-x="548" d="M253 647h42q25 0 35.5 -6t17.5 -26q93 -262 178 -572q7 -23 7 -31q0 -12 -20 -12h-48q-18 0 -24 3.5t-10 17.5q-19 78 -41 154h-232q-22 -76 -41 -154q-4 -14 -10 -17.5t-24 -3.5h-48q-20 0 -20 12q0 8 7 31q85 310 178 572q7 20 17.5 26t35.5 6zM277 550h-6 q-34 -99 -90 -292h186q-56 193 -90 292zM138 724l-21 12q-8 5 -8 11q0 4 3 10q40 83 106 83q30 0 57 -19l28 -19q23 -15 37 -15q27 0 50 39q4 7 10 7q4 0 12 -5l20 -13q9 -6 9 -12q0 -4 -3 -10q-44 -79 -105 -79q-29 0 -57 18l-27 19q-23 15 -36 15q-24 0 -48 -40 q-5 -9 -11 -9q-5 0 -16 7z" />
<glyph unicode="&#xc4;" horiz-adv-x="548" d="M253 647h42q25 0 35.5 -6t17.5 -26q93 -262 178 -572q7 -23 7 -31q0 -12 -20 -12h-48q-18 0 -24 3.5t-10 17.5q-19 78 -41 154h-232q-22 -76 -41 -154q-4 -14 -10 -17.5t-24 -3.5h-48q-20 0 -20 12q0 8 7 31q85 310 178 572q7 20 17.5 26t35.5 6zM277 550h-6 q-34 -99 -90 -292h186q-56 193 -90 292zM245 792v-16q0 -48 -49 -48h-10q-48 0 -48 48v16q0 48 48 48h10q49 0 49 -48zM408 792v-16q0 -48 -49 -48h-10q-48 0 -48 48v16q0 48 48 48h10q49 0 49 -48z" />
<glyph unicode="&#xc5;" horiz-adv-x="548" d="M253 647h42q25 0 35.5 -6t17.5 -26q93 -262 178 -572q7 -23 7 -31q0 -12 -20 -12h-48q-18 0 -24 3.5t-10 17.5q-19 78 -41 154h-232q-22 -76 -41 -154q-4 -14 -10 -17.5t-24 -3.5h-48q-20 0 -20 12q0 8 7 31q85 310 178 572q7 20 17.5 26t35.5 6zM277 550h-6 q-34 -99 -90 -292h186q-56 193 -90 292zM274 876q40 0 67 -26.5t27 -67.5t-27 -67.5t-67 -26.5t-67 26.5t-27 67.5t27 67.5t67 26.5zM274 743q17 0 27.5 11t10.5 28t-10.5 28t-27.5 11t-27.5 -11t-10.5 -28t10.5 -28t27.5 -11z" />
<glyph unicode="&#xc6;" horiz-adv-x="818" d="M385 568q-21 -40 -152 -310h159v310h-7zM391 647h366q11 0 15 -3.5t4 -13.5v-45q0 -10 -4 -13.5t-15 -3.5h-269v-195h231q11 0 15 -3.5t4 -13.5v-45q0 -10 -4 -13.5t-15 -3.5h-231v-175q0 -23 9.5 -31.5t33.5 -8.5h226q11 0 15 -3.5t4 -13.5v-45q0 -10 -4 -13.5t-15 -3.5 h-235q-69 0 -99.5 24.5t-30.5 84.5v66h-200l-73 -154q-10 -21 -42 -21h-38q-26 0 -26 11q0 6 10 26q197 397 292 570q13 23 29 31.5t47 8.5z" />
<glyph unicode="&#xc7;" horiz-adv-x="518" d="M471 611q10 -6 10 -13q0 -8 -8 -24l-15 -30q-4 -9 -13 -9q-5 0 -13 4q-64 37 -133 37q-73 0 -106 -36q-23 -24 -32 -67.5t-9 -137.5v-23q0 -97 7 -137t29 -65q35 -39 123 -39q58 0 128 24q12 4 16 4q9 0 12 -9l6 -19q7 -23 7 -32q0 -11 -12 -15q-76 -30 -160 -33l-9 -53 q15 3 32 3q32 0 53.5 -20t21.5 -60q0 -96 -117 -96q-37 0 -76 11q-10 3 -10 10q0 6 2 18l3 19q1 10 8 10q3 0 11 -2q28 -8 55 -8t38.5 7.5t11.5 27.5q0 28 -33 28q-17 0 -34 -3q-10 -2 -11 -2q-6 0 -10 7l-8 13q-3 6 -3 11q0 4 3 19l11 63q-93 8 -138 57q-34 36 -46 89.5 t-12 159.5v46q0 115 18 171.5t63 91.5q61 47 166 47q96 0 173 -45z" />
<glyph unicode="&#xc8;" horiz-adv-x="486" d="M423 0h-230q-67 0 -95 23.5t-34 91.5q-8 90 -8 191v39q0 138 6 193q6 63 35.5 86t96.5 23h230q12 0 16 -4t4 -16v-40q0 -11 -4 -15.5t-16 -4.5h-222q-42 0 -45 -37q-5 -65 -5 -157h232q12 0 16 -4t4 -15v-41q0 -10 -4 -14.5t-16 -4.5h-232q0 -124 7 -180q2 -19 12 -27 t30 -8h222q13 0 17 -4t4 -15v-41q0 -11 -4 -15t-17 -4zM207 847l168 -85q12 -5 13 -12q0 -4 -6 -15l-13 -26q-6 -13 -13 -13t-18 4l-170 67q-15 6 -16 15q0 4 8 22l19 36q5 10 13 12q6 0 15 -5z" />
<glyph unicode="&#xc9;" horiz-adv-x="486" d="M423 0h-230q-67 0 -95 23.5t-34 91.5q-8 90 -8 191v39q0 138 6 193q6 63 35.5 86t96.5 23h230q12 0 16 -4t4 -16v-40q0 -11 -4 -15.5t-16 -4.5h-222q-42 0 -45 -37q-5 -65 -5 -157h232q12 0 16 -4t4 -15v-41q0 -10 -4 -14.5t-16 -4.5h-232q0 -124 7 -180q2 -19 12 -27 t30 -8h222q13 0 17 -4t4 -15v-41q0 -11 -4 -15t-17 -4zM197 762l168 85q9 5 15 5q8 -2 13 -12l19 -36q8 -18 8 -22q-1 -9 -16 -15l-170 -67q-11 -4 -18 -4t-13 13l-13 26q-6 11 -6 15q1 7 13 12z" />
<glyph unicode="&#xca;" horiz-adv-x="486" d="M423 0h-230q-67 0 -95 23.5t-34 91.5q-8 90 -8 191v39q0 138 6 193q6 63 35.5 86t96.5 23h230q12 0 16 -4t4 -16v-40q0 -11 -4 -15.5t-16 -4.5h-222q-42 0 -45 -37q-5 -65 -5 -157h232q12 0 16 -4t4 -15v-41q0 -10 -4 -14.5t-16 -4.5h-232q0 -124 7 -180q2 -19 12 -27 t30 -8h222q13 0 17 -4t4 -15v-41q0 -11 -4 -15t-17 -4zM251 873h46q13 0 21 -9l98 -114q7 -9 7 -13q0 -6 -8 -12l-23 -16q-11 -8 -17 -8t-14 8l-85 87h-4l-85 -87q-8 -8 -14 -8t-17 8l-23 16q-8 6 -8 12q0 4 7 13l98 114q8 9 21 9z" />
<glyph unicode="&#xcb;" horiz-adv-x="486" d="M423 0h-230q-67 0 -95 23.5t-34 91.5q-8 90 -8 191v39q0 138 6 193q6 63 35.5 86t96.5 23h230q12 0 16 -4t4 -16v-40q0 -11 -4 -15.5t-16 -4.5h-222q-42 0 -45 -37q-5 -65 -5 -157h232q12 0 16 -4t4 -15v-41q0 -10 -4 -14.5t-16 -4.5h-232q0 -124 7 -180q2 -19 12 -27 t30 -8h222q13 0 17 -4t4 -15v-41q0 -11 -4 -15t-17 -4zM242 787v-16q0 -48 -49 -48h-10q-48 0 -48 48v16q0 48 48 48h10q49 0 49 -48zM405 787v-16q0 -48 -49 -48h-10q-48 0 -48 48v16q0 48 48 48h10q49 0 49 -48z" />
<glyph unicode="&#xcc;" horiz-adv-x="246" d="M95 647h55q22 0 22 -21v-605q0 -12 -5 -16.5t-17 -4.5h-54q-12 0 -17 4.5t-5 16.5v605q0 12 4.5 16.5t16.5 4.5zM15 847l168 -85q12 -5 13 -12q0 -4 -6 -15l-13 -26q-6 -13 -13 -13t-18 4l-170 67q-15 6 -16 15q0 4 8 22l19 36q5 10 13 12q6 0 15 -5z" />
<glyph unicode="&#xcd;" horiz-adv-x="246" d="M95 647h55q22 0 22 -21v-605q0 -12 -5 -16.5t-17 -4.5h-54q-12 0 -17 4.5t-5 16.5v605q0 12 4.5 16.5t16.5 4.5zM58 762l168 85q9 5 15 5q8 -2 13 -12l19 -36q8 -18 8 -22q-1 -9 -16 -15l-170 -67q-11 -4 -18 -4t-13 13l-13 26q-6 11 -6 15q1 7 13 12z" />
<glyph unicode="&#xce;" horiz-adv-x="246" d="M95 647h55q22 0 22 -21v-605q0 -12 -5 -16.5t-17 -4.5h-54q-12 0 -17 4.5t-5 16.5v605q0 12 4.5 16.5t16.5 4.5zM100 873h46q13 0 21 -9l98 -114q7 -9 7 -13q0 -6 -8 -12l-23 -16q-11 -8 -17 -8t-14 8l-85 87h-4l-85 -87q-8 -8 -14 -8t-17 8l-23 16q-8 6 -8 12q0 4 7 13 l98 114q8 9 21 9z" />
<glyph unicode="&#xcf;" horiz-adv-x="246" d="M95 647h55q22 0 22 -21v-605q0 -12 -5 -16.5t-17 -4.5h-54q-12 0 -17 4.5t-5 16.5v605q0 12 4.5 16.5t16.5 4.5zM95 787v-16q0 -48 -49 -48h-10q-48 0 -48 48v16q0 48 48 48h10q49 0 49 -48zM258 787v-16q0 -48 -49 -48h-10q-48 0 -48 48v16q0 48 48 48h10q49 0 49 -48z " />
<glyph unicode="&#xd0;" horiz-adv-x="620" d="M249 0q-91 0 -129 1q-30 1 -30 30v259h-54q-12 0 -16 4.5t-4 17.5v39q0 13 4 17.5t16 4.5h54v241q0 17 6.5 25t22.5 9q60 6 129 6q170 0 245.5 -67.5t75.5 -234.5v-53q0 -160 -71.5 -229.5t-248.5 -69.5zM258 575q-33 0 -55 -2q-15 -1 -15 -17v-183h100q14 0 18 -5t4 -21 v-33q0 -12 -6.5 -17.5t-12 -6t-19.5 -0.5h-84v-194q0 -18 18 -18h56q114 0 160 49.5t46 183.5v29q0 135 -46.5 185t-163.5 50z" />
<glyph unicode="&#xd1;" horiz-adv-x="622" d="M423 27l-259 477h-5v-483q0 -13 -4.5 -17t-16.5 -4h-48q-12 0 -16.5 4t-4.5 17v598q0 17 6 22.5t24 5.5h53q19 0 28.5 -6t18.5 -22l259 -476h5v483q0 12 4.5 16.5t16.5 4.5h48q12 0 16.5 -4.5t4.5 -16.5v-599q0 -16 -6 -21.5t-24 -5.5h-53q-19 0 -28.5 6t-18.5 21z M179 719l-21 12q-8 5 -8 11q0 4 3 10q40 83 106 83q30 0 57 -19l28 -19q22 -15 37 -15q27 0 50 39q4 7 10 7q4 0 12 -5l20 -13q9 -6 9 -12q0 -4 -3 -10q-44 -79 -105 -79q-28 0 -57 18l-27 19q-23 15 -36 15q-24 0 -48 -40q-4 -9 -11 -9q-5 0 -16 7z" />
<glyph unicode="&#xd2;" horiz-adv-x="600" d="M549 346v-46q0 -101 -13 -154.5t-49 -92.5q-57 -62 -187 -62t-187 62q-36 39 -49 92.5t-13 154.5v46q0 101 13 155t49 93q57 62 187 62t187 -62q36 -39 49 -93t13 -155zM448 312v23q0 85 -6.5 129t-29.5 70q-36 42 -112 42t-112 -42q-23 -26 -29.5 -70t-6.5 -129v-23 q0 -85 6.5 -129t29.5 -70q36 -42 112 -42t112 42q23 26 29.5 70t6.5 129zM228 847l168 -85q12 -5 13 -12q0 -4 -6 -15l-13 -26q-6 -13 -13 -13t-18 4l-170 67q-15 6 -16 15q0 4 8 22l19 36q5 10 13 12q6 0 15 -5z" />
<glyph unicode="&#xd3;" horiz-adv-x="600" d="M549 346v-46q0 -101 -13 -154.5t-49 -92.5q-57 -62 -187 -62t-187 62q-36 39 -49 92.5t-13 154.5v46q0 101 13 155t49 93q57 62 187 62t187 -62q36 -39 49 -93t13 -155zM448 312v23q0 85 -6.5 129t-29.5 70q-36 42 -112 42t-112 -42q-23 -26 -29.5 -70t-6.5 -129v-23 q0 -85 6.5 -129t29.5 -70q36 -42 112 -42t112 42q23 26 29.5 70t6.5 129zM220 762l168 85q9 5 15 5q8 -2 13 -12l19 -36q8 -18 8 -22q-1 -9 -16 -15l-170 -67q-11 -4 -18 -4t-13 13l-13 26q-6 11 -6 15q1 7 13 12z" />
<glyph unicode="&#xd4;" horiz-adv-x="600" d="M549 346v-46q0 -101 -13 -154.5t-49 -92.5q-57 -62 -187 -62t-187 62q-36 39 -49 92.5t-13 154.5v46q0 101 13 155t49 93q57 62 187 62t187 -62q36 -39 49 -93t13 -155zM448 312v23q0 85 -6.5 129t-29.5 70q-36 42 -112 42t-112 -42q-23 -26 -29.5 -70t-6.5 -129v-23 q0 -85 6.5 -129t29.5 -70q36 -42 112 -42t112 42q23 26 29.5 70t6.5 129zM278 873h46q13 0 21 -9l98 -114q7 -9 7 -13q0 -6 -8 -12l-23 -16q-11 -8 -17 -8t-14 8l-85 87h-4l-85 -87q-8 -8 -14 -8t-17 8l-23 16q-8 6 -8 12q0 4 7 13l98 114q8 9 21 9z" />
<glyph unicode="&#xd5;" horiz-adv-x="600" d="M549 346v-46q0 -101 -13 -154.5t-49 -92.5q-57 -62 -187 -62t-187 62q-36 39 -49 92.5t-13 154.5v46q0 101 13 155t49 93q57 62 187 62t187 -62q36 -39 49 -93t13 -155zM448 312v23q0 85 -6.5 129t-29.5 70q-36 42 -112 42t-112 -42q-23 -26 -29.5 -70t-6.5 -129v-23 q0 -85 6.5 -129t29.5 -70q36 -42 112 -42t112 42q23 26 29.5 70t6.5 129zM164 719l-21 12q-8 5 -8 11q0 4 3 10q40 83 106 83q30 0 57 -19l28 -19q22 -15 37 -15q27 0 50 39q4 7 10 7q4 0 12 -5l20 -13q9 -6 9 -12q0 -4 -3 -10q-44 -79 -105 -79q-29 0 -57 18l-27 19 q-23 15 -36 15q-24 0 -48 -40q-5 -9 -11 -9q-5 0 -16 7z" />
<glyph unicode="&#xd6;" horiz-adv-x="600" d="M549 346v-46q0 -101 -13 -154.5t-49 -92.5q-57 -62 -187 -62t-187 62q-36 39 -49 92.5t-13 154.5v46q0 101 13 155t49 93q57 62 187 62t187 -62q36 -39 49 -93t13 -155zM448 312v23q0 85 -6.5 129t-29.5 70q-36 42 -112 42t-112 -42q-23 -26 -29.5 -70t-6.5 -129v-23 q0 -85 6.5 -129t29.5 -70q36 -42 112 -42t112 42q23 26 29.5 70t6.5 129zM274 787v-16q0 -48 -49 -48h-10q-48 0 -48 48v16q0 48 48 48h10q49 0 49 -48zM437 787v-16q0 -48 -49 -48h-10q-48 0 -48 48v16q0 48 48 48h10q49 0 49 -48z" />
<glyph unicode="&#xd7;" d="M433 367l-107 -108l110 -109q9 -11 8 -17.5t-12 -17.5l-24 -24q-11 -11 -17 -12t-17 9l-110 110l-107 -107q-17 -17 -33 -1l-29 29q-17 15 1 33l107 107l-110 110q-10 11 -9 17t12 17l24 24q11 11 17.5 12t17.5 -8l109 -110l108 107q18 18 33 1l29 -29q16 -16 -1 -33z " />
<glyph unicode="&#xd8;" horiz-adv-x="600" d="M549 346v-46q0 -101 -13 -154.5t-49 -92.5q-57 -62 -187 -62q-72 0 -130 23l-32 -59q-8 -12 -14 -12t-19 7l-19 10q-13 7 -13 14t13 29l27 49v1q-36 39 -49 92.5t-13 154.5v46q0 101 13 155t49 93q57 62 187 62q78 0 133 -25l35 63q6 12 14 12q6 0 19 -7l19 -10 q13 -7 13 -14t-13 -29l-31 -55q34 -39 47 -93t13 -152zM152 312q0 -122 15 -163l223 404q-34 23 -90 23q-76 0 -112 -42q-23 -26 -29.5 -70t-6.5 -129v-23zM448 312v23q0 117 -13 157l-222 -401q30 -20 87 -20q76 0 112 42q23 26 29.5 70t6.5 129z" />
<glyph unicode="&#xd9;" horiz-adv-x="599" d="M535 626v-412q0 -116 -57 -169q-59 -54 -179 -54q-118 0 -178 54q-57 51 -57 169v412q0 21 21 21h56q21 0 21 -21v-407q0 -81 29 -111q34 -37 108 -37q75 0 109 37q29 32 29 111v407q0 21 22 21h54q22 0 22 -21zM222 847l168 -85q12 -5 13 -12q0 -4 -6 -15l-13 -26 q-6 -13 -13 -13t-18 4l-170 67q-15 6 -16 15q0 4 8 22l19 36q5 10 13 12q6 0 15 -5z" />
<glyph unicode="&#xda;" horiz-adv-x="599" d="M535 626v-412q0 -116 -57 -169q-59 -54 -179 -54q-118 0 -178 54q-57 51 -57 169v412q0 21 21 21h56q21 0 21 -21v-407q0 -81 29 -111q34 -37 108 -37q75 0 109 37q29 32 29 111v407q0 21 22 21h54q22 0 22 -21zM221 762l168 85q9 5 15 5q8 -2 13 -12l19 -36q8 -18 8 -22 q-1 -9 -16 -15l-170 -67q-11 -4 -18 -4t-13 13l-13 26q-6 11 -6 15q1 7 13 12z" />
<glyph unicode="&#xdb;" horiz-adv-x="599" d="M535 626v-412q0 -116 -57 -169q-59 -54 -179 -54q-118 0 -178 54q-57 51 -57 169v412q0 21 21 21h56q21 0 21 -21v-407q0 -81 29 -111q34 -37 108 -37q75 0 109 37q29 32 29 111v407q0 21 22 21h54q22 0 22 -21zM278 873h46q13 0 21 -9l98 -114q7 -9 7 -13q0 -6 -8 -12 l-23 -16q-11 -8 -17 -8t-14 8l-85 87h-4l-85 -87q-8 -8 -14 -8t-17 8l-23 16q-8 6 -8 12q0 4 7 13l98 114q8 9 21 9z" />
<glyph unicode="&#xdc;" horiz-adv-x="599" d="M535 626v-412q0 -116 -57 -169q-59 -54 -179 -54q-118 0 -178 54q-57 51 -57 169v412q0 21 21 21h56q21 0 21 -21v-407q0 -81 29 -111q34 -37 108 -37q75 0 109 37q29 32 29 111v407q0 21 22 21h54q22 0 22 -21zM273 787v-16q0 -48 -49 -48h-10q-48 0 -48 48v16 q0 48 48 48h10q49 0 49 -48zM436 787v-16q0 -48 -49 -48h-10q-48 0 -48 48v16q0 48 48 48h10q49 0 49 -48z" />
<glyph unicode="&#xdd;" horiz-adv-x="478" d="M236 295h6q79 161 126 335q5 17 26 17h48q21 0 21 -12q0 -7 -7 -30q-66 -214 -168 -395v-190q0 -12 -4.5 -16t-17.5 -4h-54q-13 0 -17.5 4t-4.5 16v190q-100 176 -168 395q-7 23 -7 30q0 12 21 12h48q21 0 26 -17q44 -167 126 -335zM162 762l168 85q9 5 15 5q8 -2 13 -12 l19 -36q8 -18 8 -22q-1 -9 -16 -15l-170 -67q-11 -4 -18 -4t-13 13l-13 26q-6 11 -6 15q1 7 13 12z" />
<glyph unicode="&#xde;" horiz-adv-x="517" d="M246 549q128 0 184.5 -45t56.5 -151v-16q0 -204 -241 -204q-54 0 -79 1v-113q0 -12 -5 -16.5t-17 -4.5h-54q-12 0 -17 4.5t-5 16.5v605q0 12 4.5 16.5t16.5 4.5h55q22 0 22 -21v-79q46 2 79 2zM167 467v-254q22 -1 70 -1q77 0 113 27.5t36 99.5v12q0 65 -32 92t-109 27 q-42 0 -78 -3z" />
<glyph unicode="&#xdf;" horiz-adv-x="525" d="M156 -56q0 -10 -4.5 -14t-15.5 -4h-52q-20 0 -20 18v554q0 101 47 144.5t152 43.5q90 0 141.5 -42.5t51.5 -120.5v-12q0 -55 -22 -94t-61 -53v-3q116 -23 116 -158v-18q0 -102 -47 -148t-142 -46q-51 0 -93 8q-15 3 -15 12q0 7 2 23l3 27q2 12 12 12q3 0 28 -3.5t49 -3.5 q60 0 85 31t25 94v11q0 63 -30.5 88.5t-98.5 25.5h-31q-16 0 -16 14v47q0 16 16 16h12q61 0 88 26.5t27 83.5v9q0 97 -103 97q-59 0 -81.5 -27.5t-22.5 -98.5v-539z" />
<glyph unicode="&#xe0;" horiz-adv-x="476" d="M343 14l-4 29h-2q-25 -52 -120 -52h-31q-148 0 -148 144v16q0 82 48 118q40 32 154 32h24q34 0 61 -3v42q0 47 -23 64.5t-76 17.5q-50 0 -109 -15q-16 -4 -21 -4q-10 0 -13 14l-4 19q-4 20 -4 26q0 11 14 15q68 22 145 22q97 0 140 -38t43 -132v-315q0 -14 -16 -14h-39 q-16 0 -19 14zM325 151v72q-24 3 -54 3h-44q-53 0 -74.5 -16t-21.5 -60v-14q0 -38 16 -54t54 -16h33q46 0 68.5 20.5t22.5 64.5zM182 713l162 -95q12 -7 12 -13q0 -5 -6 -15l-15 -25q-7 -12 -14 -12q-5 0 -17 5l-166 77q-15 7 -15 16q0 6 9 21l21 35q6 11 14 11q6 0 15 -5z " />
<glyph unicode="&#xe1;" horiz-adv-x="476" d="M343 14l-4 29h-2q-25 -52 -120 -52h-31q-148 0 -148 144v16q0 82 48 118q40 32 154 32h24q34 0 61 -3v42q0 47 -23 64.5t-76 17.5q-50 0 -109 -15q-16 -4 -21 -4q-10 0 -13 14l-4 19q-4 20 -4 26q0 11 14 15q68 22 145 22q97 0 140 -38t43 -132v-315q0 -14 -16 -14h-39 q-16 0 -19 14zM325 151v72q-24 3 -54 3h-44q-53 0 -74.5 -16t-21.5 -60v-14q0 -38 16 -54t54 -16h33q46 0 68.5 20.5t22.5 64.5zM163 618l162 95q9 5 15 5q8 0 14 -11l21 -35q9 -15 9 -21q0 -9 -15 -16l-166 -77q-12 -5 -17 -5q-7 0 -14 12l-15 25q-6 10 -6 15q0 6 12 13z " />
<glyph unicode="&#xe2;" horiz-adv-x="476" d="M343 14l-4 29h-2q-25 -52 -120 -52h-31q-148 0 -148 144v16q0 82 48 118q40 32 154 32h24q34 0 61 -3v42q0 47 -23 64.5t-76 17.5q-50 0 -109 -15q-16 -4 -21 -4q-10 0 -13 14l-4 19q-4 20 -4 26q0 11 14 15q68 22 145 22q97 0 140 -38t43 -132v-315q0 -14 -16 -14h-39 q-16 0 -19 14zM325 151v72q-24 3 -54 3h-44q-53 0 -74.5 -16t-21.5 -60v-14q0 -38 16 -54t54 -16h33q46 0 68.5 20.5t22.5 64.5zM223 723h46q13 0 21 -9l98 -114q7 -9 7 -13q0 -6 -8 -12l-23 -16q-11 -8 -17 -8t-14 8l-85 87h-4l-85 -87q-8 -8 -14 -8t-17 8l-23 16 q-8 6 -8 12q0 4 7 13l98 114q8 9 21 9z" />
<glyph unicode="&#xe3;" horiz-adv-x="476" d="M343 14l-4 29h-2q-25 -52 -120 -52h-31q-148 0 -148 144v16q0 82 48 118q40 32 154 32h24q34 0 61 -3v42q0 47 -23 64.5t-76 17.5q-50 0 -109 -15q-16 -4 -21 -4q-10 0 -13 14l-4 19q-4 20 -4 26q0 11 14 15q68 22 145 22q97 0 140 -38t43 -132v-315q0 -14 -16 -14h-39 q-16 0 -19 14zM325 151v72q-24 3 -54 3h-44q-53 0 -74.5 -16t-21.5 -60v-14q0 -38 16 -54t54 -16h33q46 0 68.5 20.5t22.5 64.5zM113 577l-21 12q-8 5 -8 11q0 4 3 10q40 83 106 83q30 0 57 -19l28 -19q22 -15 37 -15q27 0 50 39q4 7 10 7q4 0 12 -5l20 -13q9 -6 9 -12 q0 -4 -3 -10q-44 -79 -105 -79q-28 0 -57 18l-27 19q-23 15 -36 15q-24 0 -48 -40q-4 -9 -11 -9q-5 0 -16 7z" />
<glyph unicode="&#xe4;" horiz-adv-x="476" d="M343 14l-4 29h-2q-25 -52 -120 -52h-31q-148 0 -148 144v16q0 82 48 118q40 32 154 32h24q34 0 61 -3v42q0 47 -23 64.5t-76 17.5q-50 0 -109 -15q-16 -4 -21 -4q-10 0 -13 14l-4 19q-4 20 -4 26q0 11 14 15q68 22 145 22q97 0 140 -38t43 -132v-315q0 -14 -16 -14h-39 q-16 0 -19 14zM325 151v72q-24 3 -54 3h-44q-53 0 -74.5 -16t-21.5 -60v-14q0 -38 16 -54t54 -16h33q46 0 68.5 20.5t22.5 64.5zM219 644v-16q0 -48 -49 -48h-10q-48 0 -48 48v16q0 48 48 48h10q49 0 49 -48zM382 644v-16q0 -48 -49 -48h-10q-48 0 -48 48v16q0 48 48 48h10 q49 0 49 -48z" />
<glyph unicode="&#xe5;" horiz-adv-x="476" d="M343 14l-4 29h-2q-25 -52 -120 -52h-31q-148 0 -148 144v16q0 82 48 118q40 32 154 32h24q34 0 61 -3v42q0 47 -23 64.5t-76 17.5q-50 0 -109 -15q-16 -4 -21 -4q-10 0 -13 14l-4 19q-4 20 -4 26q0 11 14 15q68 22 145 22q97 0 140 -38t43 -132v-315q0 -14 -16 -14h-39 q-16 0 -19 14zM325 151v72q-24 3 -54 3h-44q-53 0 -74.5 -16t-21.5 -60v-14q0 -38 16 -54t54 -16h33q46 0 68.5 20.5t22.5 64.5zM245 728q40 0 67 -26.5t27 -67.5t-27 -67.5t-67 -26.5t-67 26.5t-27 67.5t27 67.5t67 26.5zM245 595q17 0 27.5 11t10.5 28t-10.5 28t-27.5 11 t-27.5 -11t-10.5 -28t10.5 -28t27.5 -11z" />
<glyph unicode="&#xe6;" horiz-adv-x="748" d="M705 300v-73q0 -29 -28 -29h-258q2 -74 26.5 -102.5t95.5 -28.5q58 0 106 19q12 4 16 4q8 0 12 -11l7 -24q5 -17 5 -21q0 -9 -12 -15q-61 -28 -145 -28q-128 0 -158 69q-18 -36 -53 -52.5t-102 -16.5h-31q-148 0 -148 144v16q0 82 48 118q40 32 154 32h24q34 0 61 -3v42 q0 47 -23 64.5t-76 17.5q-51 0 -95 -11q-32 -8 -34 -8q-11 0 -14 14l-4 19q-4 20 -4 26q0 11 14 15q68 22 145 22q109 0 146 -57q42 57 142 57q92 0 137.5 -47t45.5 -152zM325 151v64v8q-24 3 -54 3h-44q-53 0 -74.5 -16t-21.5 -60v-14q0 -38 16 -54t54 -16h33q91 0 91 85z M418 273h181q13 0 13 14q0 76 -18 106t-74 30t-79 -33.5t-23 -116.5z" />
<glyph unicode="&#xe7;" horiz-adv-x="428" d="M379 77l6 -21q5 -16 5 -23q0 -11 -15 -17q-50 -22 -119 -25q-2 -6 -2 -11l-7 -42q15 3 32 3q32 0 53.5 -20t21.5 -60q0 -96 -117 -96q-37 0 -76 11q-10 3 -10 10q0 6 2 18l3 19q1 10 8 10q3 0 11 -2q28 -8 55 -8t38.5 7.5t11.5 27.5q0 28 -33 28q-17 0 -34 -3 q-10 -2 -11 -2q-6 0 -10 7l-8 13q-3 6 -3 11q0 4 3 19l11 62v1q-66 8 -98 40q-55 52 -55 196v32q0 77 12 118t41 69q51 50 150 50q85 0 149 -43q9 -6 9 -13q0 -5 -10 -24l-14 -26q-6 -10 -12 -10q-5 0 -12 4q-55 34 -107 34q-53 0 -80 -24q-16 -15 -23 -38t-8 -41.5 t-1 -63.5v-16q0 -106 25 -138q27 -33 91 -33q51 0 99 18q10 4 15 4q9 0 13 -12z" />
<glyph unicode="&#xe8;" horiz-adv-x="465" d="M422 299v-72q0 -29 -28 -29h-258q2 -74 26.5 -102.5t95.5 -28.5q58 0 106 19q12 4 16 4q8 0 12 -11l7 -24q5 -17 5 -21q0 -9 -12 -15q-61 -28 -145 -28q-115 0 -160 54.5t-45 182.5v34q0 122 45 179.5t151 57.5q92 0 138 -48t46 -152zM135 273h185q13 0 13 14 q0 74 -20.5 105t-76.5 31q-60 0 -80.5 -34.5t-20.5 -115.5zM175 713l162 -95q12 -7 12 -13q0 -5 -6 -15l-15 -25q-7 -12 -14 -12q-5 0 -17 5l-166 77q-15 7 -15 16q0 6 9 21l21 35q6 11 14 11q6 0 15 -5z" />
<glyph unicode="&#xe9;" horiz-adv-x="465" d="M422 299v-72q0 -29 -28 -29h-258q2 -74 26.5 -102.5t95.5 -28.5q58 0 106 19q12 4 16 4q8 0 12 -11l7 -24q5 -17 5 -21q0 -9 -12 -15q-61 -28 -145 -28q-115 0 -160 54.5t-45 182.5v34q0 122 45 179.5t151 57.5q92 0 138 -48t46 -152zM135 273h185q13 0 13 14 q0 74 -20.5 105t-76.5 31q-60 0 -80.5 -34.5t-20.5 -115.5zM163 618l162 95q9 5 15 5q8 0 14 -11l21 -35q9 -15 9 -21q0 -9 -15 -16l-166 -77q-12 -5 -17 -5q-7 0 -14 12l-15 25q-6 10 -6 15q0 6 12 13z" />
<glyph unicode="&#xea;" horiz-adv-x="465" d="M422 299v-72q0 -29 -28 -29h-258q2 -74 26.5 -102.5t95.5 -28.5q58 0 106 19q12 4 16 4q8 0 12 -11l7 -24q5 -17 5 -21q0 -9 -12 -15q-61 -28 -145 -28q-115 0 -160 54.5t-45 182.5v34q0 122 45 179.5t151 57.5q92 0 138 -48t46 -152zM135 273h185q13 0 13 14 q0 74 -20.5 105t-76.5 31q-60 0 -80.5 -34.5t-20.5 -115.5zM212 723h46q13 0 21 -9l98 -114q7 -9 7 -13q0 -6 -8 -12l-23 -16q-11 -8 -17 -8t-14 8l-85 87h-4l-85 -87q-8 -8 -14 -8t-17 8l-23 16q-8 6 -8 12q0 4 7 13l98 114q8 9 21 9z" />
<glyph unicode="&#xeb;" horiz-adv-x="465" d="M422 299v-72q0 -29 -28 -29h-258q2 -74 26.5 -102.5t95.5 -28.5q58 0 106 19q12 4 16 4q8 0 12 -11l7 -24q5 -17 5 -21q0 -9 -12 -15q-61 -28 -145 -28q-115 0 -160 54.5t-45 182.5v34q0 122 45 179.5t151 57.5q92 0 138 -48t46 -152zM135 273h185q13 0 13 14 q0 74 -20.5 105t-76.5 31q-60 0 -80.5 -34.5t-20.5 -115.5zM206 644v-16q0 -48 -49 -48h-10q-48 0 -48 48v16q0 48 48 48h10q49 0 49 -48zM369 644v-16q0 -48 -49 -48h-10q-48 0 -48 48v16q0 48 48 48h10q49 0 49 -48z" />
<glyph unicode="&#xec;" horiz-adv-x="234" d="M21 712l162 -95q12 -7 12 -13q0 -4 -6 -15l-15 -25q-7 -12 -14 -12q-5 0 -17 5l-166 77q-15 8 -15 16q0 6 9 21l21 35q6 11 14 11q6 0 15 -5zM163 472v-454q0 -10 -4.5 -14t-15.5 -4h-52q-20 0 -20 18v454q0 18 20 18h52q11 0 15.5 -4t4.5 -14z" />
<glyph unicode="&#xed;" horiz-adv-x="234" d="M57 618l162 95q9 5 15 5q8 0 14 -11l21 -35q9 -15 9 -21q0 -9 -15 -16l-166 -77q-12 -5 -17 -5q-7 0 -14 12l-15 25q-6 10 -6 15q0 6 12 13zM163 472v-454q0 -10 -4.5 -14t-15.5 -4h-52q-20 0 -20 18v454q0 18 20 18h52q11 0 15.5 -4t4.5 -14z" />
<glyph unicode="&#xee;" horiz-adv-x="234" d="M163 472v-454q0 -10 -4.5 -14t-15.5 -4h-52q-20 0 -20 18v454q0 18 20 18h52q11 0 15.5 -4t4.5 -14zM93 723h46q13 0 21 -9l98 -114q7 -9 7 -13q0 -6 -8 -12l-23 -16q-11 -8 -17 -8t-14 8l-85 87h-4l-85 -87q-8 -8 -14 -8t-17 8l-23 16q-8 6 -8 12q0 4 7 13l98 114 q8 9 21 9z" />
<glyph unicode="&#xef;" horiz-adv-x="234" d="M88 644v-16q0 -48 -49 -48h-10q-48 0 -48 48v16q0 48 48 48h10q49 0 49 -48zM251 644v-16q0 -48 -49 -48h-10q-48 0 -48 48v16q0 48 48 48h10q49 0 49 -48zM163 472v-454q0 -10 -4.5 -14t-15.5 -4h-52q-20 0 -20 18v454q0 18 20 18h52q11 0 15.5 -4t4.5 -14z" />
<glyph unicode="&#xf0;" horiz-adv-x="520" d="M169 705q48 -21 82 -41l53 49q6 6 10 6q6 0 10 -6l22 -24q5 -5 5 -9t-7 -11l-42 -38q156 -123 156 -367v-51q-1 -110 -49 -166t-161 -56q-107 0 -156.5 51.5t-49.5 161.5v47q0 212 191 212q68 0 109 -31l2 2q-23 82 -99 144l-61 -57q-6 -6 -10 -6t-11 7l-19 21 q-7 7 -7 11t6 10l51 47q-23 13 -61 31q-9 4 -9 10q0 4 3 10l21 37q4 8 11 8q4 0 10 -2zM364 204v42q0 140 -112 140q-63 0 -89.5 -34t-26.5 -105v-35q0 -76 25 -110.5t90 -34.5q61 0 87 35t26 102z" />
<glyph unicode="&#xf1;" horiz-adv-x="515" d="M64 18v457q0 15 16 15h35q17 0 19 -15l5 -32h2q46 56 142 56q88 0 130.5 -46t42.5 -151v-284q0 -10 -4.5 -14t-15.5 -4h-52q-20 0 -20 18v288q0 63 -24 90.5t-81 27.5q-52 0 -77.5 -23.5t-25.5 -80.5v-302q0 -10 -4.5 -14t-15.5 -4h-52q-20 0 -20 18zM131 577l-21 12 q-8 5 -8 11q0 4 3 10q40 83 106 83q30 0 57 -19l28 -19q22 -15 37 -15q27 0 50 39q4 7 10 7q4 0 12 -5l20 -13q9 -6 9 -12q0 -4 -3 -10q-44 -79 -105 -79q-28 0 -57 18l-27 19q-23 15 -36 15q-24 0 -48 -40q-4 -9 -11 -9q-5 0 -16 7z" />
<glyph unicode="&#xf2;" horiz-adv-x="488" d="M352 255q0 88 -16 123q-21 47 -92 47t-92 -47q-16 -35 -16 -123v-1v-1v-1v-1v-1v-1v-2v-1v-2v-9q0 -88 16 -123q21 -47 92 -47t92 47q16 35 16 123v0v1v1v1v1v2v1v1v2v1v9zM446 262v-34q0 -136 -50 -186q-51 -51 -152 -51t-152 51q-50 50 -50 186v34q0 136 50 186 q51 51 152 51t152 -51q50 -50 50 -186zM182 713l162 -95q12 -7 12 -13q0 -5 -6 -15l-15 -25q-7 -12 -14 -12q-5 0 -17 5l-166 77q-15 7 -15 16q0 6 9 21l21 35q6 11 14 11q6 0 15 -5z" />
<glyph unicode="&#xf3;" horiz-adv-x="488" d="M352 255q0 88 -16 123q-21 47 -92 47t-92 -47q-16 -35 -16 -123v-1v-1v-1v-1v-1v-1v-2v-1v-2v-9q0 -88 16 -123q21 -47 92 -47t92 47q16 35 16 123v0v1v1v1v1v2v1v1v2v1v9zM446 262v-34q0 -136 -50 -186q-51 -51 -152 -51t-152 51q-50 50 -50 186v34q0 136 50 186 q51 51 152 51t152 -51q50 -50 50 -186zM164 618l162 95q9 5 15 5q8 0 14 -11l21 -35q9 -15 9 -21q0 -9 -15 -16l-166 -77q-12 -5 -17 -5q-7 0 -14 12l-15 25q-6 10 -6 15q0 6 12 13z" />
<glyph unicode="&#xf4;" horiz-adv-x="488" d="M352 255q0 88 -16 123q-21 47 -92 47t-92 -47q-16 -35 -16 -123v-1v-1v-1v-1v-1v-1v-2v-1v-2v-9q0 -88 16 -123q21 -47 92 -47t92 47q16 35 16 123v0v1v1v1v1v2v1v1v2v1v9zM446 262v-34q0 -136 -50 -186q-51 -51 -152 -51t-152 51q-50 50 -50 186v34q0 136 50 186 q51 51 152 51t152 -51q50 -50 50 -186zM220 723h46q13 0 21 -9l98 -114q7 -9 7 -13q0 -6 -8 -12l-23 -16q-11 -8 -17 -8t-14 8l-85 87h-4l-85 -87q-8 -8 -14 -8t-17 8l-23 16q-8 6 -8 12q0 4 7 13l98 114q8 9 21 9z" />
<glyph unicode="&#xf5;" horiz-adv-x="488" d="M352 255q0 88 -16 123q-21 47 -92 47t-92 -47q-16 -35 -16 -123v-1v-1v-1v-1v-1v-1v-2v-1v-2v-9q0 -88 16 -123q21 -47 92 -47t92 47q16 35 16 123v0v1v1v1v1v2v1v1v2v1v9zM446 262v-34q0 -136 -50 -186q-51 -51 -152 -51t-152 51q-50 50 -50 186v34q0 136 50 186 q51 51 152 51t152 -51q50 -50 50 -186zM107 577l-21 12q-8 5 -8 11q0 4 3 10q40 83 106 83q30 0 57 -19l28 -19q22 -15 37 -15q27 0 50 39q4 7 10 7q4 0 12 -5l20 -13q9 -6 9 -12q0 -4 -3 -10q-44 -79 -105 -79q-28 0 -57 18l-27 19q-23 15 -36 15q-24 0 -48 -40 q-4 -9 -11 -9q-5 0 -16 7z" />
<glyph unicode="&#xf6;" horiz-adv-x="488" d="M352 255q0 88 -16 123q-21 47 -92 47t-92 -47q-16 -35 -16 -123v-1v-1v-1v-1v-1v-1v-2v-1v-2v-9q0 -88 16 -123q21 -47 92 -47t92 47q16 35 16 123v0v1v1v1v1v2v1v1v2v1v9zM446 262v-34q0 -136 -50 -186q-51 -51 -152 -51t-152 51q-50 50 -50 186v34q0 136 50 186 q51 51 152 51t152 -51q50 -50 50 -186zM216 644v-16q0 -48 -49 -48h-10q-48 0 -48 48v16q0 48 48 48h10q49 0 49 -48zM379 644v-16q0 -48 -49 -48h-10q-48 0 -48 48v16q0 48 48 48h10q49 0 49 -48z" />
<glyph unicode="&#xf7;" d="M259 500h7q56 0 56 -52v-21q0 -52 -56 -52h-7q-57 0 -57 52v21q0 52 57 52zM460 216h-391q-13 0 -18.5 5t-5.5 18v41q0 23 24 23h391q24 0 24 -23v-41q0 -13 -5.5 -18t-18.5 -5zM259 144h7q56 0 56 -52v-21q0 -52 -56 -52h-7q-57 0 -57 52v21q0 52 57 52z" />
<glyph unicode="&#xf8;" horiz-adv-x="488" d="M446 262v-34q0 -136 -50 -186q-51 -51 -152 -51q-53 0 -93 14l-27 -50q-7 -14 -15 -14q-3 0 -15 6l-18 10q-10 5 -10 11q0 4 13 29l20 38l-7 7q-50 50 -50 186v34q0 136 50 186q51 51 152 51q54 0 94 -15l30 55q7 14 15 14q3 0 15 -6l18 -10q10 -5 10 -11q0 -4 -13 -29 l-23 -43l6 -6q50 -50 50 -186zM136 235q0 -78 11 -111l154 290q-24 11 -57 11q-71 0 -92 -47q-16 -35 -16 -123v-20zM352 255q0 72 -11 108l-153 -288q21 -10 56 -10q71 0 92 47q16 35 16 123v20z" />
<glyph unicode="&#xf9;" horiz-adv-x="499" d="M348 162v310q0 18 20 18h52q11 0 15.5 -4t4.5 -15v-324q0 -85 -51 -122q-44 -34 -139 -34t-140 34q-51 37 -51 122v325q0 18 20 18h52q11 0 15.5 -4t4.5 -14v-310q0 -55 23 -74q24 -20 76 -20t77 22q21 18 21 72zM166 713l162 -95q12 -7 12 -13q0 -5 -6 -15l-15 -25 q-7 -12 -14 -12q-5 0 -17 5l-166 77q-15 7 -15 16q0 6 9 21l21 35q6 11 14 11q6 0 15 -5z" />
<glyph unicode="&#xfa;" horiz-adv-x="499" d="M348 162v310q0 18 20 18h52q11 0 15.5 -4t4.5 -15v-324q0 -85 -51 -122q-44 -34 -139 -34t-140 34q-51 37 -51 122v325q0 18 20 18h52q11 0 15.5 -4t4.5 -14v-310q0 -55 23 -74q24 -20 76 -20t77 22q21 18 21 72zM176 618l162 95q9 5 15 5q8 0 14 -11l21 -35q9 -15 9 -21 q0 -9 -15 -16l-166 -77q-12 -5 -17 -5q-7 0 -14 12l-15 25q-6 10 -6 15q0 6 12 13z" />
<glyph unicode="&#xfb;" horiz-adv-x="499" d="M348 162v310q0 18 20 18h52q11 0 15.5 -4t4.5 -15v-324q0 -85 -51 -122q-44 -34 -139 -34t-140 34q-51 37 -51 122v325q0 18 20 18h52q11 0 15.5 -4t4.5 -14v-310q0 -55 23 -74q24 -20 76 -20t77 22q21 18 21 72zM228 723h46q13 0 21 -9l98 -114q7 -9 7 -13q0 -6 -8 -12 l-23 -16q-11 -8 -17 -8t-14 8l-85 87h-4l-85 -87q-8 -8 -14 -8t-17 8l-23 16q-8 6 -8 12q0 4 7 13l98 114q8 9 21 9z" />
<glyph unicode="&#xfc;" horiz-adv-x="499" d="M348 162v310q0 18 20 18h52q11 0 15.5 -4t4.5 -15v-324q0 -85 -51 -122q-44 -34 -139 -34t-140 34q-51 37 -51 122v325q0 18 20 18h52q11 0 15.5 -4t4.5 -14v-310q0 -55 23 -74q24 -20 76 -20t77 22q21 18 21 72zM223 644v-16q0 -48 -49 -48h-10q-48 0 -48 48v16 q0 48 48 48h10q49 0 49 -48zM386 644v-16q0 -48 -49 -48h-10q-48 0 -48 48v16q0 48 48 48h10q49 0 49 -48z" />
<glyph unicode="&#xfd;" horiz-adv-x="439" d="M127 -156q0 5 12 29q33 67 58 129q-45 9 -69 72q-57 149 -104 360q-7 35 -7 44q0 12 16 12h57q17 0 20 -15q42 -211 85 -337q10 -30 16 -40.5t14 -10.5h4q66 195 102 388q3 15 20 15h59q14 0 14 -10q0 -6 -7 -37q-37 -160 -81.5 -297.5t-124.5 -319.5q-7 -15 -14 -15 q-8 0 -27 8l-27 11q-16 6 -16 14zM158 618l162 95q9 5 15 5q8 0 14 -11l21 -35q9 -15 9 -21q0 -9 -15 -16l-166 -77q-12 -5 -17 -5q-7 0 -14 12l-15 25q-6 10 -6 15q0 6 12 13z" />
<glyph unicode="&#xfe;" horiz-adv-x="513" d="M156 31v-190q0 -10 -4.5 -14t-15.5 -4h-52q-20 0 -20 18v818q0 18 20 18h52q11 0 15.5 -4t4.5 -14v-201q47 41 131 41q96 0 140 -51t44 -177v-45q0 -121 -43 -178t-148 -57q-83 0 -123 40h-1zM266 422q-61 0 -85.5 -26t-24.5 -85v-136q0 -57 27.5 -82.5t83.5 -25.5 q64 0 87 35.5t23 126.5v33q0 91 -23 125.5t-88 34.5z" />
<glyph unicode="&#xff;" horiz-adv-x="439" d="M127 -156q0 5 12 29q33 67 58 129q-45 9 -69 72q-57 149 -104 360q-7 35 -7 44q0 12 16 12h57q17 0 20 -15q42 -211 85 -337q10 -30 16 -40.5t14 -10.5h4q66 195 102 388q3 15 20 15h59q14 0 14 -10q0 -6 -7 -37q-37 -160 -81.5 -297.5t-124.5 -319.5q-7 -15 -14 -15 q-8 0 -27 8l-27 11q-16 6 -16 14zM196 644v-16q0 -48 -49 -48h-10q-48 0 -48 48v16q0 48 48 48h10q49 0 49 -48zM359 644v-16q0 -48 -49 -48h-10q-48 0 -48 48v16q0 48 48 48h10q49 0 49 -48z" />
<glyph unicode="&#x100;" horiz-adv-x="548" d="M253 647h42q25 0 35.5 -6t17.5 -26q93 -262 178 -572q7 -23 7 -31q0 -12 -20 -12h-48q-18 0 -24 3.5t-10 17.5q-19 78 -41 154h-232q-22 -76 -41 -154q-4 -14 -10 -17.5t-24 -3.5h-48q-20 0 -20 12q0 8 7 31q85 310 178 572q7 20 17.5 26t35.5 6zM277 550h-6 q-34 -99 -90 -292h186q-56 193 -90 292zM384 730h-222q-19 0 -19 18v38q0 17 19 17h222q19 0 19 -17v-38q0 -18 -19 -18z" />
<glyph unicode="&#x101;" horiz-adv-x="476" d="M343 14l-4 29h-2q-25 -52 -120 -52h-31q-148 0 -148 144v16q0 82 48 118q40 32 154 32h24q34 0 61 -3v42q0 47 -23 64.5t-76 17.5q-50 0 -109 -15q-16 -4 -21 -4q-10 0 -13 14l-4 19q-4 20 -4 26q0 11 14 15q68 22 145 22q97 0 140 -38t43 -132v-315q0 -14 -16 -14h-39 q-16 0 -19 14zM325 151v72q-24 3 -54 3h-44q-53 0 -74.5 -16t-21.5 -60v-14q0 -38 16 -54t54 -16h33q46 0 68.5 20.5t22.5 64.5zM353 592h-222q-19 0 -19 18v38q0 17 19 17h222q19 0 19 -17v-38q0 -18 -19 -18z" />
<glyph unicode="&#x102;" horiz-adv-x="548" d="M253 647h42q25 0 35.5 -6t17.5 -26q93 -262 178 -572q7 -23 7 -31q0 -12 -20 -12h-48q-18 0 -24 3.5t-10 17.5q-19 78 -41 154h-232q-22 -76 -41 -154q-4 -14 -10 -17.5t-24 -3.5h-48q-20 0 -20 12q0 8 7 31q85 310 178 572q7 20 17.5 26t35.5 6zM277 550h-6 q-34 -99 -90 -292h186q-56 193 -90 292zM274 700q-111 0 -146 102q-5 15 -5 19q0 9 14 13l22 7q17 5 21 5q8 0 12 -12q26 -67 82 -67t82 67q4 12 12 12q4 0 21 -5l22 -7q14 -4 14 -13q0 -4 -5 -19q-35 -102 -146 -102z" />
<glyph unicode="&#x103;" horiz-adv-x="476" d="M343 14l-4 29h-2q-25 -52 -120 -52h-31q-148 0 -148 144v16q0 82 48 118q40 32 154 32h24q34 0 61 -3v42q0 47 -23 64.5t-76 17.5q-50 0 -109 -15q-16 -4 -21 -4q-10 0 -13 14l-4 19q-4 20 -4 26q0 11 14 15q68 22 145 22q97 0 140 -38t43 -132v-315q0 -14 -16 -14h-39 q-16 0 -19 14zM325 151v72q-24 3 -54 3h-44q-53 0 -74.5 -16t-21.5 -60v-14q0 -38 16 -54t54 -16h33q46 0 68.5 20.5t22.5 64.5zM243 558q-111 0 -146 102q-5 15 -5 19q0 9 14 13l22 7q17 5 21 5q8 0 12 -12q26 -67 82 -67t82 67q4 12 12 12q4 0 21 -5l22 -7q14 -4 14 -13 q0 -4 -5 -19q-35 -102 -146 -102z" />
<glyph unicode="&#x104;" horiz-adv-x="548" d="M438 -6q-23 96 -48 181h-232q-22 -76 -41 -154q-4 -14 -10 -17.5t-24 -3.5h-48q-20 0 -20 12q0 8 7 31q85 310 178 572q7 20 17.5 26t35.5 6h42q25 0 35.5 -6t17.5 -26q93 -262 178 -572q7 -23 7 -31t-13 -15q-77 -41 -77 -104q0 -33 37 -33q23 0 48 9q9 3 10 3q7 0 8 -9 l4 -18q3 -12 3 -17q0 -7 -12 -12q-37 -15 -74 -15q-101 0 -101 79q0 65 72 114zM277 550h-6q-34 -99 -90 -292h186q-56 193 -90 292z" />
<glyph unicode="&#x105;" horiz-adv-x="476" d="M325 151v72q-24 3 -54 3h-44q-53 0 -74.5 -16t-21.5 -60v-14q0 -38 16 -54t54 -16h33q91 0 91 85zM83 417l-4 19q-4 20 -4 26q0 11 14 15q68 22 145 22q97 0 140 -38t43 -132v-315q0 -9 -7 -13q-77 -41 -77 -108q0 -33 37 -33q23 0 48 9q9 3 10 3q7 0 8 -9l4 -18 q3 -12 3 -17q0 -7 -12 -12q-37 -15 -74 -15q-101 0 -101 79q0 76 88 129l-5 34h-2q-25 -52 -120 -52h-31q-148 0 -148 144v16q0 82 48 118q40 32 154 32h24q34 0 61 -3v42q0 47 -23 64.5t-76 17.5q-50 0 -109 -15q-16 -4 -21 -4q-10 0 -13 14z" />
<glyph unicode="&#x106;" horiz-adv-x="518" d="M471 611q10 -6 10 -13q0 -8 -8 -24l-15 -30q-4 -9 -13 -9q-5 0 -13 4q-67 37 -133 37q-73 0 -106 -36q-23 -24 -32 -67.5t-9 -137.5v-23q0 -97 7 -137t29 -65q35 -39 123 -39q58 0 128 24q12 4 16 4q9 0 12 -9l6 -19q7 -23 7 -32q0 -11 -12 -15q-87 -33 -171 -33 q-133 0 -188 58q-34 36 -46 90t-12 161v46q0 115 18 172.5t63 92.5q58 45 166 45q96 0 173 -45zM217 762l168 85q9 5 15 5q8 -2 13 -12l19 -36q8 -18 8 -22q-1 -9 -16 -15l-170 -67q-11 -4 -18 -4t-13 13l-13 26q-6 11 -6 15q1 7 13 12z" />
<glyph unicode="&#x107;" horiz-adv-x="428" d="M379 77l6 -21q5 -16 5 -23q0 -11 -15 -17q-56 -25 -135 -25q-99 0 -143 43q-55 52 -55 196v32q0 77 12 118t41 69q53 50 150 50q87 0 149 -42q9 -6 9 -13q0 -5 -10 -24l-14 -26q-6 -10 -12 -10q-5 0 -12 4q-53 33 -107 33q-53 0 -80 -24q-16 -15 -23 -38t-8 -41.5 t-1 -63.5v-16q0 -106 25 -138q27 -33 91 -33q51 0 99 18q10 4 15 4q9 0 13 -12zM161 618l162 95q9 5 15 5q8 0 14 -11l21 -35q9 -15 9 -21q0 -9 -15 -16l-166 -77q-12 -5 -17 -5q-7 0 -14 12l-15 25q-6 10 -6 15q0 6 12 13z" />
<glyph unicode="&#x108;" horiz-adv-x="518" d="M471 611q10 -6 10 -13q0 -8 -8 -24l-15 -30q-4 -9 -13 -9q-5 0 -13 4q-67 37 -133 37q-73 0 -106 -36q-23 -24 -32 -67.5t-9 -137.5v-23q0 -97 7 -137t29 -65q35 -39 123 -39q58 0 128 24q12 4 16 4q9 0 12 -9l6 -19q7 -23 7 -32q0 -11 -12 -15q-87 -33 -171 -33 q-133 0 -188 58q-34 36 -46 90t-12 161v46q0 115 18 172.5t63 92.5q58 45 166 45q96 0 173 -45zM270 873h46q13 0 21 -9l98 -114q7 -9 7 -13q0 -6 -8 -12l-23 -16q-11 -8 -17 -8t-14 8l-85 87h-4l-85 -87q-8 -8 -14 -8t-17 8l-23 16q-8 6 -8 12q0 4 7 13l98 114q8 9 21 9z " />
<glyph unicode="&#x109;" horiz-adv-x="428" d="M379 77l6 -21q5 -16 5 -23q0 -11 -15 -17q-56 -25 -135 -25q-99 0 -143 43q-55 52 -55 196v32q0 77 12 118t41 69q53 50 150 50q87 0 149 -42q9 -6 9 -13q0 -5 -10 -24l-14 -26q-6 -10 -12 -10q-5 0 -12 4q-53 33 -107 33q-53 0 -80 -24q-16 -15 -23 -38t-8 -41.5 t-1 -63.5v-16q0 -106 25 -138q27 -33 91 -33q51 0 99 18q10 4 15 4q9 0 13 -12zM214 723h46q13 0 21 -9l98 -114q7 -9 7 -13q0 -6 -8 -12l-23 -16q-11 -8 -17 -8t-14 8l-85 87h-4l-85 -87q-8 -8 -14 -8t-17 8l-23 16q-8 6 -8 12q0 4 7 13l98 114q8 9 21 9z" />
<glyph unicode="&#x10a;" horiz-adv-x="518" d="M471 611q10 -6 10 -13q0 -8 -8 -24l-15 -30q-4 -9 -13 -9q-5 0 -13 4q-67 37 -133 37q-73 0 -106 -36q-23 -24 -32 -67.5t-9 -137.5v-23q0 -97 7 -137t29 -65q35 -39 123 -39q58 0 128 24q12 4 16 4q9 0 12 -9l6 -19q7 -23 7 -32q0 -11 -12 -15q-87 -33 -171 -33 q-133 0 -188 58q-34 36 -46 90t-12 161v46q0 115 18 172.5t63 92.5q58 45 166 45q96 0 173 -45zM287 717q-26 0 -44.5 19t-18.5 45t18.5 45t44.5 19t44.5 -19t18.5 -45t-18.5 -45t-44.5 -19z" />
<glyph unicode="&#x10b;" horiz-adv-x="428" d="M379 77l6 -21q5 -16 5 -23q0 -11 -15 -17q-56 -25 -135 -25q-99 0 -143 43q-55 52 -55 196v32q0 77 12 118t41 69q53 50 150 50q87 0 149 -42q9 -6 9 -13q0 -5 -10 -24l-14 -26q-6 -10 -12 -10q-5 0 -12 4q-53 33 -107 33q-53 0 -80 -24q-16 -15 -23 -38t-8 -41.5 t-1 -63.5v-16q0 -106 25 -138q27 -33 91 -33q51 0 99 18q10 4 15 4q9 0 13 -12zM233 565q-26 0 -44.5 19t-18.5 45t18.5 45t44.5 19t44.5 -19t18.5 -45t-18.5 -45t-44.5 -19z" />
<glyph unicode="&#x10c;" horiz-adv-x="518" d="M471 611q10 -6 10 -13q0 -8 -8 -24l-15 -30q-4 -9 -13 -9q-5 0 -13 4q-67 37 -133 37q-73 0 -106 -36q-23 -24 -32 -67.5t-9 -137.5v-23q0 -97 7 -137t29 -65q35 -39 123 -39q58 0 128 24q12 4 16 4q9 0 12 -9l6 -19q7 -23 7 -32q0 -11 -12 -15q-87 -33 -171 -33 q-133 0 -188 58q-34 36 -46 90t-12 161v46q0 115 18 172.5t63 92.5q58 45 166 45q96 0 173 -45zM316 705h-46q-13 0 -21 9l-98 114q-7 9 -7 13q0 6 8 12l23 16q11 8 17 8t14 -8l85 -87h4l85 87q8 8 14 8t17 -8l23 -16q8 -6 8 -12q0 -4 -7 -13l-98 -114q-8 -9 -21 -9z" />
<glyph unicode="&#x10d;" horiz-adv-x="428" d="M379 77l6 -21q5 -16 5 -23q0 -11 -15 -17q-56 -25 -135 -25q-99 0 -143 43q-55 52 -55 196v32q0 77 12 118t41 69q53 50 150 50q87 0 149 -42q9 -6 9 -13q0 -5 -10 -24l-14 -26q-6 -10 -12 -10q-5 0 -12 4q-53 33 -107 33q-53 0 -80 -24q-16 -15 -23 -38t-8 -41.5 t-1 -63.5v-16q0 -106 25 -138q27 -33 91 -33q51 0 99 18q10 4 15 4q9 0 13 -12zM259 553h-46q-13 0 -21 9l-98 114q-7 9 -7 13q0 6 8 12l23 16q11 8 17 8t14 -8l85 -87h4l85 87q8 8 14 8t17 -8l23 -16q8 -6 8 -12q0 -4 -7 -13l-98 -114q-8 -9 -21 -9z" />
<glyph unicode="&#x10e;" horiz-adv-x="599" d="M228 0q-91 0 -129 1q-30 1 -30 30v583q0 17 6.5 25t22.5 9q60 6 129 6q170 0 245.5 -67.5t75.5 -234.5v-53q0 -160 -71.5 -229.5t-248.5 -69.5zM237 575q-33 0 -55 -2q-15 -1 -15 -17v-460q0 -18 18 -18h56q114 0 160 49.5t46 183.5v29q0 135 -46.5 185t-163.5 50z M312 705h-46q-13 0 -21 9l-98 114q-7 9 -7 13q0 6 8 12l23 16q11 8 17 8t14 -8l85 -87h4l85 87q8 8 14 8t17 -8l23 -16q8 -6 8 -12q0 -4 -7 -13l-98 -114q-8 -9 -21 -9z" />
<glyph unicode="&#x10f;" horiz-adv-x="596" d="M356 178v121q0 66 -26 95t-83 29q-62 0 -86.5 -36.5t-24.5 -125.5v-27q0 -95 24 -131t88 -36q59 0 83.5 24.5t24.5 86.5zM448 659v-485q0 -183 -200 -183q-113 0 -159.5 55.5t-46.5 184.5v34q0 125 48.5 179.5t152.5 54.5q72 0 111 -37h2v197q0 18 20 18h52q11 0 15.5 -4 t4.5 -14zM544 710h21q41 0 41 -44v-18q0 -75 -66 -138q-6 -6 -12 -6q-5 0 -10 4l-17 15q-6 5 -6 10q0 4 4 8q28 30 37 52q2 4 2 7q0 6 -7 9q-15 8 -21 16.5t-6 26.5v19q0 39 40 39z" />
<glyph unicode="&#x110;" horiz-adv-x="620" d="M249 0q-91 0 -129 1q-30 1 -30 30v259h-54q-12 0 -16 4.5t-4 17.5v39q0 13 4 17.5t16 4.5h54v241q0 17 6.5 25t22.5 9q60 6 129 6q170 0 245.5 -67.5t75.5 -234.5v-53q0 -160 -71.5 -229.5t-248.5 -69.5zM258 575q-33 0 -55 -2q-15 -1 -15 -17v-183h100q14 0 18 -5t4 -21 v-33q0 -12 -6.5 -17.5t-12 -6t-19.5 -0.5h-84v-194q0 -18 18 -18h56q114 0 160 49.5t46 183.5v29q0 135 -46.5 185t-163.5 50z" />
<glyph unicode="&#x111;" horiz-adv-x="510" d="M448 659v-47h48q8 0 11.5 -3t4 -6t0.5 -10v-27q0 -8 -0.5 -11t-4 -5.5t-11.5 -2.5h-48v-373q0 -183 -200 -183q-113 0 -159.5 55.5t-46.5 184.5v34q0 125 48.5 179.5t152.5 54.5q72 0 111 -37h2v85h-91q-8 0 -11.5 2.5t-4 5.5t-0.5 11v27q0 7 0.5 10t4 6t11.5 3h91v47 q0 18 20 18h52q11 0 15.5 -4t4.5 -14zM356 178v121q0 66 -26 95t-83 29q-62 0 -86.5 -36.5t-24.5 -125.5v-27q0 -95 24 -131t88 -36q59 0 83.5 24.5t24.5 86.5z" />
<glyph unicode="&#x112;" horiz-adv-x="486" d="M423 0h-230q-67 0 -95 23.5t-34 91.5q-8 90 -8 191v39q0 138 6 193q6 63 35.5 86t96.5 23h230q12 0 16 -4t4 -16v-40q0 -11 -4 -15.5t-16 -4.5h-222q-42 0 -45 -37q-5 -65 -5 -157h232q12 0 16 -4t4 -15v-41q0 -10 -4 -14.5t-16 -4.5h-232q0 -124 7 -180q2 -19 12 -27 t30 -8h222q13 0 17 -4t4 -15v-41q0 -11 -4 -15t-17 -4zM383 730h-222q-19 0 -19 18v38q0 17 19 17h222q19 0 19 -17v-38q0 -18 -19 -18z" />
<glyph unicode="&#x113;" horiz-adv-x="465" d="M422 299v-72q0 -29 -28 -29h-258q2 -74 26.5 -102.5t95.5 -28.5q58 0 106 19q12 4 16 4q8 0 12 -11l7 -24q5 -17 5 -21q0 -9 -12 -15q-61 -28 -145 -28q-115 0 -160 54.5t-45 182.5v34q0 122 45 179.5t151 57.5q92 0 138 -48t46 -152zM135 273h185q13 0 13 14 q0 74 -20.5 105t-76.5 31q-60 0 -80.5 -34.5t-20.5 -115.5zM350 592h-222q-19 0 -19 18v38q0 17 19 17h222q19 0 19 -17v-38q0 -18 -19 -18z" />
<glyph unicode="&#x114;" horiz-adv-x="486" d="M423 0h-230q-67 0 -95 23.5t-34 91.5q-8 90 -8 191v39q0 138 6 193q6 63 35.5 86t96.5 23h230q12 0 16 -4t4 -16v-40q0 -11 -4 -15.5t-16 -4.5h-222q-42 0 -45 -37q-5 -65 -5 -157h232q12 0 16 -4t4 -15v-41q0 -10 -4 -14.5t-16 -4.5h-232q0 -124 7 -180q2 -19 12 -27 t30 -8h222q13 0 17 -4t4 -15v-41q0 -11 -4 -15t-17 -4zM272 700q-111 0 -146 102q-5 15 -5 19q0 9 14 13l22 7q17 5 21 5q8 0 12 -12q26 -67 82 -67t82 67q4 12 12 12q4 0 21 -5l22 -7q14 -4 14 -13q0 -4 -5 -19q-35 -102 -146 -102z" />
<glyph unicode="&#x115;" horiz-adv-x="465" d="M422 299v-72q0 -29 -28 -29h-258q2 -74 26.5 -102.5t95.5 -28.5q58 0 106 19q12 4 16 4q8 0 12 -11l7 -24q5 -17 5 -21q0 -9 -12 -15q-61 -28 -145 -28q-115 0 -160 54.5t-45 182.5v34q0 122 45 179.5t151 57.5q92 0 138 -48t46 -152zM135 273h185q13 0 13 14 q0 74 -20.5 105t-76.5 31q-60 0 -80.5 -34.5t-20.5 -115.5zM238 558q-111 0 -146 102q-5 15 -5 19q0 9 14 13l22 7q17 5 21 5q8 0 12 -12q26 -67 82 -67t82 67q4 12 12 12q4 0 21 -5l22 -7q14 -4 14 -13q0 -4 -5 -19q-35 -102 -146 -102z" />
<glyph unicode="&#x116;" horiz-adv-x="486" d="M423 0h-230q-67 0 -95 23.5t-34 91.5q-8 90 -8 191v39q0 138 6 193q6 63 35.5 86t96.5 23h230q12 0 16 -4t4 -16v-40q0 -11 -4 -15.5t-16 -4.5h-222q-42 0 -45 -37q-5 -65 -5 -157h232q12 0 16 -4t4 -15v-41q0 -10 -4 -14.5t-16 -4.5h-232q0 -124 7 -180q2 -19 12 -27 t30 -8h222q13 0 17 -4t4 -15v-41q0 -11 -4 -15t-17 -4zM271 717q-26 0 -44.5 19t-18.5 45t18.5 45t44.5 19t44.5 -19t18.5 -45t-18.5 -45t-44.5 -19z" />
<glyph unicode="&#x117;" horiz-adv-x="465" d="M422 299v-72q0 -29 -28 -29h-258q2 -74 26.5 -102.5t95.5 -28.5q58 0 106 19q12 4 16 4q8 0 12 -11l7 -24q5 -17 5 -21q0 -9 -12 -15q-61 -28 -145 -28q-115 0 -160 54.5t-45 182.5v34q0 122 45 179.5t151 57.5q92 0 138 -48t46 -152zM135 273h185q13 0 13 14 q0 74 -20.5 105t-76.5 31q-60 0 -80.5 -34.5t-20.5 -115.5zM239 565q-26 0 -44.5 19t-18.5 45t18.5 45t44.5 19t44.5 -19t18.5 -45t-18.5 -45t-44.5 -19z" />
<glyph unicode="&#x118;" horiz-adv-x="486" d="M283 -120q0 36 24 70t58 50h-172q-67 0 -95 23.5t-34 91.5q-8 90 -8 191v39q0 138 6 193q6 63 35.5 86t96.5 23h230q12 0 16 -4t4 -16v-40q0 -11 -4 -15.5t-16 -4.5h-222q-42 0 -45 -37q-5 -65 -5 -157h232q12 0 16 -4t4 -15v-41q0 -10 -4 -14.5t-16 -4.5h-232 q0 -124 7 -180q2 -19 12 -27t30 -8h222q13 0 17 -4t4 -15v-38q0 -7 -2.5 -11t-4 -5.5t-8.5 -6.5q-69 -46 -69 -106q0 -33 37 -33q23 0 48 9q9 3 10 3q7 0 8 -9l4 -18q3 -12 3 -17q0 -7 -12 -12q-37 -15 -74 -15q-101 0 -101 79z" />
<glyph unicode="&#x119;" horiz-adv-x="465" d="M422 300v-73q0 -29 -28 -29h-258q2 -74 26.5 -102.5t95.5 -28.5q58 0 106 19q12 4 16 4q8 0 12 -11l7 -24q4 -13 4 -19q0 -8 -12 -15q-51 -30 -73.5 -59t-22.5 -65q0 -37 37 -37q23 0 48 9q9 3 10 3q7 0 8 -9l4 -18q3 -12 3 -17q0 -7 -12 -12q-37 -15 -74 -15 q-101 0 -101 79q0 68 72 114q-21 -3 -43 -3q-115 0 -160 54.5t-45 182.5v34q0 122 45 179.5t152 57.5q92 0 137.5 -47t45.5 -152zM135 273h185q13 0 13 14q0 74 -20.5 105t-76.5 31q-60 0 -80.5 -34.5t-20.5 -115.5z" />
<glyph unicode="&#x11a;" horiz-adv-x="486" d="M423 0h-230q-67 0 -95 23.5t-34 91.5q-8 90 -8 191v39q0 138 6 193q6 63 35.5 86t96.5 23h230q12 0 16 -4t4 -16v-40q0 -11 -4 -15.5t-16 -4.5h-222q-42 0 -45 -37q-5 -65 -5 -157h232q12 0 16 -4t4 -15v-41q0 -10 -4 -14.5t-16 -4.5h-232q0 -124 7 -180q2 -19 12 -27 t30 -8h222q13 0 17 -4t4 -15v-41q0 -11 -4 -15t-17 -4zM299 705h-46q-13 0 -21 9l-98 114q-7 9 -7 13q0 6 8 12l23 16q11 8 17 8t14 -8l85 -87h4l85 87q8 8 14 8t17 -8l23 -16q8 -6 8 -12q0 -4 -7 -13l-98 -114q-8 -9 -21 -9z" />
<glyph unicode="&#x11b;" horiz-adv-x="465" d="M422 299v-72q0 -29 -28 -29h-258q2 -74 26.5 -102.5t95.5 -28.5q58 0 106 19q12 4 16 4q8 0 12 -11l7 -24q5 -17 5 -21q0 -9 -12 -15q-61 -28 -145 -28q-115 0 -160 54.5t-45 182.5v34q0 122 45 179.5t151 57.5q92 0 138 -48t46 -152zM135 273h185q13 0 13 14 q0 74 -20.5 105t-76.5 31q-60 0 -80.5 -34.5t-20.5 -115.5zM262 553h-46q-13 0 -21 9l-98 114q-7 9 -7 13q0 6 8 12l23 16q11 8 17 8t14 -8l85 -87h4l85 87q8 8 14 8t17 -8l23 -16q8 -6 8 -12q0 -4 -7 -13l-98 -114q-8 -9 -21 -9z" />
<glyph unicode="&#x11c;" horiz-adv-x="577" d="M497 624q12 -4 12 -14q0 -5 -7 -25l-9 -28q-6 -18 -27 -9q-72 28 -144 28q-93 0 -131.5 -51.5t-38.5 -188.5v-25q0 -139 35.5 -189.5t131.5 -50.5q58 0 91 6q15 3 15 18v179h-81q-12 0 -16.5 3.5t-4.5 14.5v44q0 11 4.5 15t16.5 4h160q19 0 19 -19v-290q0 -15 -4.5 -21.5 t-18.5 -10.5q-88 -23 -181 -23q-154 0 -211 69t-57 241v46q0 188 92 260q63 49 184 49q93 0 170 -32zM288 873h46q13 0 21 -9l98 -114q7 -9 7 -13q0 -6 -8 -12l-23 -16q-11 -8 -17 -8t-14 8l-85 87h-4l-85 -87q-8 -8 -14 -8t-17 8l-23 16q-8 6 -8 12q0 4 7 13l98 114 q8 9 21 9z" />
<glyph unicode="&#x11d;" horiz-adv-x="489" d="M334 488q55 -17 79 -61.5t24 -131.5v-18q0 -128 -64 -162q83 -44 83 -138v-11q0 -153 -200 -153q-110 0 -197 36q-15 7 -15 16q0 3 5 21l10 29q3 9 10 9q2 0 14 -4q82 -32 166 -32q114 0 114 88v8q0 70 -62 97q-28 -5 -62 -5q-105 0 -151.5 48.5t-46.5 152.5v18 q0 110 48 157t150 47q15 0 22 -1q29 82 127 82h29q17 0 17 -18v-38q0 -9 -3 -12.5t-13 -3.5h-35q-38 0 -49 -20zM135 299v-22q0 -69 22 -99t82 -30t82 30t22 100v21q0 68 -23 97.5t-81 29.5q-60 0 -82 -29t-22 -98zM224 798h46q13 0 21 -9l98 -114q7 -9 7 -13q0 -6 -8 -12 l-23 -16q-11 -8 -17 -8t-14 8l-85 87h-4l-85 -87q-8 -8 -14 -8t-17 8l-23 16q-8 6 -8 12q0 4 7 13l98 114q8 9 21 9z" />
<glyph unicode="&#x11e;" horiz-adv-x="577" d="M497 624q12 -4 12 -14q0 -5 -7 -25l-9 -28q-6 -18 -27 -9q-72 28 -144 28q-93 0 -131.5 -51.5t-38.5 -188.5v-25q0 -139 35.5 -189.5t131.5 -50.5q58 0 91 6q15 3 15 18v179h-81q-12 0 -16.5 3.5t-4.5 14.5v44q0 11 4.5 15t16.5 4h160q19 0 19 -19v-290q0 -15 -4.5 -21.5 t-18.5 -10.5q-88 -23 -181 -23q-154 0 -211 69t-57 241v46q0 188 92 260q63 49 184 49q93 0 170 -32zM310 700q-111 0 -146 102q-5 15 -5 19q0 9 14 13l22 7q17 5 21 5q8 0 12 -12q26 -67 82 -67t82 67q4 12 12 12q4 0 21 -5l22 -7q14 -4 14 -13q0 -4 -5 -19 q-35 -102 -146 -102z" />
<glyph unicode="&#x11f;" horiz-adv-x="489" d="M334 488q55 -17 79 -61.5t24 -131.5v-18q0 -128 -64 -162q83 -44 83 -138v-11q0 -153 -200 -153q-110 0 -197 36q-15 7 -15 16q0 3 5 21l10 29q3 9 10 9q2 0 14 -4q82 -32 166 -32q114 0 114 88v8q0 70 -62 97q-28 -5 -62 -5q-105 0 -151.5 48.5t-46.5 152.5v18 q0 110 48 157t150 47q15 0 22 -1q29 82 127 82h29q17 0 17 -18v-38q0 -9 -3 -12.5t-13 -3.5h-35q-38 0 -49 -20zM135 299v-22q0 -69 22 -99t82 -30t82 30t22 100v21q0 68 -23 97.5t-81 29.5q-60 0 -82 -29t-22 -98zM237 617q-111 0 -146 102q-5 15 -5 19q0 9 14 13l22 7 q17 5 21 5q8 0 12 -12q26 -67 82 -67t82 67q4 12 12 12q4 0 21 -5l22 -7q14 -4 14 -13q0 -4 -5 -19q-35 -102 -146 -102z" />
<glyph unicode="&#x120;" horiz-adv-x="577" d="M497 624q12 -4 12 -14q0 -5 -7 -25l-9 -28q-6 -18 -27 -9q-72 28 -144 28q-93 0 -131.5 -51.5t-38.5 -188.5v-25q0 -139 35.5 -189.5t131.5 -50.5q58 0 91 6q15 3 15 18v179h-81q-12 0 -16.5 3.5t-4.5 14.5v44q0 11 4.5 15t16.5 4h160q19 0 19 -19v-290q0 -15 -4.5 -21.5 t-18.5 -10.5q-88 -23 -181 -23q-154 0 -211 69t-57 241v46q0 188 92 260q63 49 184 49q93 0 170 -32zM309 717q-26 0 -44.5 19t-18.5 45t18.5 45t44.5 19t44.5 -19t18.5 -45t-18.5 -45t-44.5 -19z" />
<glyph unicode="&#x121;" horiz-adv-x="489" d="M334 488q55 -17 79 -61.5t24 -131.5v-18q0 -128 -64 -162q83 -44 83 -138v-11q0 -153 -200 -153q-110 0 -197 36q-15 7 -15 16q0 3 5 21l10 29q3 9 10 9q2 0 14 -4q82 -32 166 -32q114 0 114 88v8q0 70 -62 97q-28 -5 -62 -5q-105 0 -151.5 48.5t-46.5 152.5v18 q0 110 48 157t150 47q15 0 22 -1q29 82 127 82h29q17 0 17 -18v-38q0 -9 -3 -12.5t-13 -3.5h-35q-38 0 -49 -20zM135 299v-22q0 -69 22 -99t82 -30t82 30t22 100v21q0 68 -23 97.5t-81 29.5q-60 0 -82 -29t-22 -98zM238 618q-26 0 -44.5 19t-18.5 45t18.5 45t44.5 19 t44.5 -19t18.5 -45t-18.5 -45t-44.5 -19z" />
<glyph unicode="&#x122;" horiz-adv-x="577" d="M497 624q12 -4 12 -14q0 -5 -7 -25l-9 -28q-6 -18 -27 -9q-72 28 -144 28q-93 0 -131.5 -51.5t-38.5 -188.5v-25q0 -139 35.5 -189.5t131.5 -50.5q58 0 91 6q15 3 15 18v179h-81q-12 0 -16.5 3.5t-4.5 14.5v44q0 11 4.5 15t16.5 4h160q19 0 19 -19v-290q0 -15 -4.5 -21.5 t-18.5 -10.5q-88 -23 -181 -23q-154 0 -211 69t-57 241v46q0 188 92 260q63 49 184 49q93 0 170 -32zM305 -66h21q41 0 41 -44v-18q0 -75 -66 -138q-6 -6 -12 -6q-5 0 -10 4l-17 15q-6 5 -6 10q0 4 4 8q28 30 37 52q2 4 2 7q0 6 -7 9q-15 8 -21 16.5t-6 26.5v19q0 39 40 39z " />
<glyph unicode="&#x123;" horiz-adv-x="489" d="M334 488q55 -17 79 -61.5t24 -131.5v-18q0 -128 -64 -162q83 -44 83 -138v-11q0 -153 -200 -153q-110 0 -197 36q-15 7 -15 16q0 3 5 21l10 29q3 9 10 9q2 0 14 -4q82 -32 166 -32q114 0 114 88v8q0 70 -62 97q-28 -5 -62 -5q-105 0 -151.5 48.5t-46.5 152.5v18 q0 110 48 157t150 47q15 0 22 -1q29 82 127 82h29q17 0 17 -18v-38q0 -9 -3 -12.5t-13 -3.5h-35q-38 0 -49 -20zM135 299v-22q0 -69 22 -99t82 -30t82 30t22 100v21q0 68 -23 97.5t-81 29.5q-60 0 -82 -29t-22 -98zM247 609h-21q-41 0 -41 44v18q0 75 66 138q6 6 12 6 q5 0 10 -4l17 -15q6 -4 6 -10q0 -4 -4 -8q-28 -30 -37 -52q-2 -4 -2 -7q0 -6 7 -9q15 -8 21 -16.5t6 -26.5v-19q0 -39 -40 -39z" />
<glyph unicode="&#x124;" horiz-adv-x="612" d="M543 626v-605q0 -12 -5 -16.5t-17 -4.5h-55q-12 0 -16.5 4t-4.5 17v269h-278v-269q0 -12 -5 -16.5t-17 -4.5h-54q-12 0 -17 4.5t-5 16.5v605q0 21 22 21h54q22 0 22 -21v-255h278v255q0 21 22 21h54q22 0 22 -21zM282 873h46q13 0 21 -9l98 -114q7 -9 7 -13q0 -6 -8 -12 l-23 -16q-11 -8 -17 -8t-14 8l-85 87h-4l-85 -87q-8 -8 -14 -8t-17 8l-23 16q-8 6 -8 12q0 4 7 13l98 114q8 9 21 9z" />
<glyph unicode="&#x125;" horiz-adv-x="515" d="M456 305v-287q0 -10 -4.5 -14t-15.5 -4h-52q-20 0 -20 18v287q0 66 -24 92t-82 26q-102 0 -102 -112v-293q0 -10 -4.5 -14t-15.5 -4h-52q-20 0 -20 18v641q0 18 20 18h52q11 0 15.5 -4t4.5 -14v-202q44 42 132 42q82 0 125 -44.5t43 -149.5zM85 876h46q13 0 21 -9 l98 -114q7 -9 7 -13q0 -6 -8 -12l-23 -16q-11 -8 -17 -8t-14 8l-85 87h-4l-85 -87q-8 -8 -14 -8t-17 8l-23 16q-8 6 -8 12q0 4 7 13l98 114q8 9 21 9z" />
<glyph unicode="&#x126;" horiz-adv-x="612" d="M543 626v-84h40q10 0 14 -3.5t4 -13.5v-36q0 -10 -4 -13.5t-14 -3.5h-40v-451q0 -12 -5 -16.5t-17 -4.5h-55q-12 0 -16.5 4t-4.5 17v269h-278v-269q0 -12 -5 -16.5t-17 -4.5h-54q-12 0 -17 4.5t-5 16.5v451h-40q-10 0 -14 3.5t-4 13.5v36q0 10 4 13.5t14 3.5h40v84 q0 21 22 21h54q22 0 22 -21v-84h278v84q0 21 22 21h54q22 0 22 -21zM167 371h278v101h-278v-101z" />
<glyph unicode="&#x127;" horiz-adv-x="515" d="M456 305v-287q0 -10 -4.5 -14t-15.5 -4h-52q-20 0 -20 18v287q0 66 -24 92t-82 26q-102 0 -102 -112v-293q0 -10 -4.5 -14t-15.5 -4h-52q-20 0 -20 18v529h-42q-11 0 -14 4t-3 14v29q0 18 17 18h42v47q0 18 20 18h52q11 0 15.5 -4t4.5 -14v-47h111q17 0 17 -18v-29 q0 -10 -3 -14t-14 -4h-111v-90q44 42 133 42q83 0 125 -43.5t42 -150.5z" />
<glyph unicode="&#x128;" horiz-adv-x="246" d="M95 647h55q22 0 22 -21v-605q0 -12 -5 -16.5t-17 -4.5h-54q-12 0 -17 4.5t-5 16.5v605q0 12 4.5 16.5t16.5 4.5zM-14 719l-21 12q-8 5 -8 11q0 4 3 10q40 83 106 83q30 0 57 -19l28 -19q22 -15 37 -15q27 0 50 39q4 7 10 7q4 0 12 -5l20 -13q9 -6 9 -12q0 -4 -3 -10 q-44 -79 -105 -79q-29 0 -57 18l-27 19q-23 15 -36 15q-24 0 -48 -40q-5 -9 -11 -9q-5 0 -16 7z" />
<glyph unicode="&#x129;" horiz-adv-x="234" d="M-20 577l-21 12q-8 5 -8 11q0 4 3 10q40 83 106 83q30 0 57 -19l28 -19q22 -15 37 -15q27 0 50 39q4 7 10 7q4 0 12 -5l20 -13q9 -6 9 -12q0 -4 -3 -10q-44 -79 -105 -79q-29 0 -57 18l-27 19q-23 15 -36 15q-24 0 -48 -40q-5 -9 -11 -9q-5 0 -16 7zM163 472v-454 q0 -10 -4.5 -14t-15.5 -4h-52q-20 0 -20 18v454q0 18 20 18h52q11 0 15.5 -4t4.5 -14z" />
<glyph unicode="&#x12a;" horiz-adv-x="246" d="M95 647h55q22 0 22 -21v-605q0 -12 -5 -16.5t-17 -4.5h-54q-12 0 -17 4.5t-5 16.5v605q0 12 4.5 16.5t16.5 4.5zM234 730h-222q-19 0 -19 18v38q0 17 19 17h222q19 0 19 -17v-38q0 -18 -19 -18z" />
<glyph unicode="&#x12b;" horiz-adv-x="234" d="M227 592h-222q-19 0 -19 18v38q0 17 19 17h222q19 0 19 -17v-38q0 -18 -19 -18zM163 472v-454q0 -10 -4.5 -14t-15.5 -4h-52q-20 0 -20 18v454q0 18 20 18h52q11 0 15.5 -4t4.5 -14z" />
<glyph unicode="&#x12c;" horiz-adv-x="246" d="M95 647h55q22 0 22 -21v-605q0 -12 -5 -16.5t-17 -4.5h-54q-12 0 -17 4.5t-5 16.5v605q0 12 4.5 16.5t16.5 4.5zM123 700q-111 0 -146 102q-5 15 -5 19q0 9 14 13l22 7q17 5 21 5q8 0 12 -12q26 -67 82 -67t82 67q4 12 12 12q4 0 21 -5l22 -7q14 -4 14 -13q0 -4 -5 -19 q-35 -102 -146 -102z" />
<glyph unicode="&#x12d;" horiz-adv-x="234" d="M117 558q-111 0 -146 102q-5 15 -5 19q0 9 14 13l22 7q17 5 21 5q8 0 12 -12q26 -67 82 -67t82 67q4 12 12 12q4 0 21 -5l22 -7q14 -4 14 -13q0 -4 -5 -19q-35 -102 -146 -102zM163 472v-454q0 -10 -4.5 -14t-15.5 -4h-52q-20 0 -20 18v454q0 18 20 18h52q11 0 15.5 -4 t4.5 -14z" />
<glyph unicode="&#x12e;" horiz-adv-x="246" d="M95 647h55q22 0 22 -21v-605q0 -15 -14 -21q-92 -38 -92 -107q0 -33 37 -33q23 0 48 9q9 3 10 3q7 0 8 -9l4 -18q3 -12 3 -17q0 -7 -12 -12q-37 -15 -74 -15q-101 0 -101 84q0 77 85 129v612q0 12 4.5 16.5t16.5 4.5z" />
<glyph unicode="&#x12f;" horiz-adv-x="234" d="M163 472v-454q0 -13 -10 -18q-43 -22 -64 -51.5t-21 -54.5q0 -34 38 -34q23 0 47 10q14 6 17 -5l8 -31q2 -12 -11 -18q-35 -15 -75 -15q-100 0 -100 79q0 73 79 125v467q0 18 20 18h52q11 0 15.5 -4t4.5 -14zM57 612v7q0 29 16 43.5t42 14.5h5q57 0 57 -58v-7 q0 -58 -57 -58h-5q-26 0 -42 14.5t-16 43.5z" />
<glyph unicode="&#x130;" horiz-adv-x="246" d="M95 647h55q22 0 22 -21v-605q0 -12 -5 -16.5t-17 -4.5h-54q-12 0 -17 4.5t-5 16.5v605q0 12 4.5 16.5t16.5 4.5zM122 717q-26 0 -44.5 19t-18.5 45t18.5 45t44.5 19t44.5 -19t18.5 -45t-18.5 -45t-44.5 -19z" />
<glyph unicode="&#x131;" horiz-adv-x="234" d="M163 472v-454q0 -10 -4.5 -14t-15.5 -4h-52q-20 0 -20 18v454q0 18 20 18h52q11 0 15.5 -4t4.5 -14z" />
<glyph unicode="&#x132;" horiz-adv-x="569" d="M95 647h55q22 0 22 -21v-605q0 -12 -5 -16.5t-17 -4.5h-54q-12 0 -17 4.5t-5 16.5v605q0 12 4.5 16.5t16.5 4.5zM499 626v-425q0 -94 -28 -140q-38 -61 -142 -61h-49q-12 0 -16 4t-4 15v44q0 20 19 20h43q53 0 68 32q11 24 11 91v420q0 12 4.5 16.5t16.5 4.5h55 q22 0 22 -21z" />
<glyph unicode="&#x133;" horiz-adv-x="473" d="M163 472v-454q0 -10 -4.5 -14t-15.5 -4h-52q-20 0 -20 18v454q0 18 20 18h52q11 0 15.5 -4t4.5 -14zM57 612v7q0 29 16 43.5t42 14.5h5q57 0 57 -58v-7q0 -58 -57 -58h-5q-26 0 -42 14.5t-16 43.5zM401 472v-456q0 -97 -31 -139q-39 -55 -144 -55h-31q-17 0 -17 16v48 q0 16 15 16h23q59 0 76 27t17 97v446q0 18 20 18h52q11 0 15.5 -4t4.5 -14zM295 612v7q0 29 16 43.5t42 14.5h5q57 0 57 -58v-7q0 -58 -57 -58h-5q-26 0 -42 14.5t-16 43.5z" />
<glyph unicode="&#x134;" horiz-adv-x="324" d="M254 626v-425q0 -94 -28 -140q-38 -61 -142 -61h-49q-12 0 -16 4t-4 15v44q0 20 19 20h43q53 0 68 32q11 24 11 91v420q0 12 4.5 16.5t16.5 4.5h55q22 0 22 -21zM180 873h46q13 0 21 -9l98 -114q7 -9 7 -13q0 -6 -8 -12l-23 -16q-11 -8 -17 -8t-14 8l-85 87h-4l-85 -87 q-8 -8 -14 -8t-17 8l-23 16q-8 6 -8 12q0 4 7 13l98 114q8 9 21 9z" />
<glyph unicode="&#x135;" horiz-adv-x="237" d="M165 472v-456q0 -97 -31 -139q-39 -55 -144 -55h-31q-17 0 -17 16v48q0 16 15 16h23q59 0 76 27t17 97v446q0 18 20 18h52q11 0 15.5 -4t4.5 -14zM95 723h46q13 0 21 -9l98 -114q7 -9 7 -13q0 -6 -8 -12l-23 -16q-11 -8 -17 -8t-14 8l-85 87h-4l-85 -87q-8 -8 -14 -8 t-17 8l-23 16q-8 6 -8 12q0 4 7 13l98 114q8 9 21 9z" />
<glyph unicode="&#x136;" d="M167 292v-271q0 -12 -5 -16.5t-17 -4.5h-54q-12 0 -17 4.5t-5 16.5v605q0 21 22 21h54q22 0 22 -21v-253h47q17 0 27 15l165 242q11 17 33 17h61q16 0 16 -9q0 -7 -7 -17l-185 -266q-8 -11 -8 -17q0 -7 8 -18l168 -270q22 -35 22 -40q0 -10 -18 -10h-60q-20 0 -30 16 l-159 262q-8 14 -29 14h-51zM258 -66h21q41 0 41 -44v-18q0 -75 -66 -138q-6 -6 -12 -6q-5 0 -10 4l-17 15q-6 5 -6 10q0 4 4 8q28 30 37 52q2 4 2 7q0 6 -7 9q-15 8 -21 16.5t-6 26.5v19q0 39 40 39z" />
<glyph unicode="&#x137;" horiz-adv-x="443" d="M156 219v-201q0 -10 -4.5 -14t-15.5 -4h-52q-20 0 -20 18v641q0 18 20 18h52q11 0 15.5 -4t4.5 -14v-359h38q12 0 19 11l109 165q9 14 28 14h58q25 0 12 -20l-139 -201q-4 -6 -4 -10q0 -6 4 -11l132 -209q16 -25 16 -30q0 -9 -14 -9h-59q-19 0 -29 15l-119 195 q-6 9 -17 9h-35zM223 -66h21q41 0 41 -44v-18q0 -75 -66 -138q-6 -6 -12 -6q-5 0 -10 4l-17 15q-6 5 -6 10q0 4 4 8q28 30 37 52q2 4 2 7q0 6 -7 9q-15 8 -21 16.5t-6 26.5v19q0 39 40 39z" />
<glyph unicode="&#x138;" horiz-adv-x="443" d="M156 219v-201q0 -10 -4.5 -14t-15.5 -4h-52q-20 0 -20 18v454q0 18 20 18h52q11 0 15.5 -4t4.5 -14v-172h38q12 0 19 11l109 165q9 14 28 14h58q25 0 12 -20l-139 -201q-4 -6 -4 -10q0 -6 4 -11l132 -209q16 -25 16 -30q0 -9 -14 -9h-59q-19 0 -29 15l-119 195 q-6 9 -17 9h-35z" />
<glyph unicode="&#x139;" horiz-adv-x="417" d="M167 626v-520q0 -15 6.5 -21t22.5 -6h175q13 0 17 -3.5t4 -14.5v-43q0 -10 -4.5 -14t-16.5 -4h-206q-51 0 -73.5 22t-22.5 68v536q0 21 22 21h54q22 0 22 -21zM62 762l168 85q9 5 15 5q8 -2 13 -12l19 -36q8 -18 8 -22q-1 -9 -16 -15l-170 -67q-11 -4 -18 -4t-13 13 l-13 26q-6 11 -6 15q1 7 13 12z" />
<glyph unicode="&#x13a;" horiz-adv-x="268" d="M157 659v-527q0 -30 8 -42t33 -12h25q9 0 13 -3.5t4 -13.5v-43q0 -18 -16 -18h-43q-63 0 -89.5 27t-26.5 91v541q0 18 20 18h52q11 0 15.5 -4t4.5 -14zM49 777l162 95q9 5 15 5q8 0 14 -11l21 -35q9 -15 9 -21q0 -8 -15 -16l-166 -77q-12 -5 -17 -5q-7 0 -14 12l-15 25 q-6 11 -6 15q0 6 12 13z" />
<glyph unicode="&#x13b;" horiz-adv-x="417" d="M167 626v-520q0 -15 6.5 -21t22.5 -6h175q13 0 17 -3.5t4 -14.5v-43q0 -10 -4.5 -14t-16.5 -4h-206q-51 0 -73.5 22t-22.5 68v536q0 21 22 21h54q22 0 22 -21zM216 -66h21q41 0 41 -44v-18q0 -75 -66 -138q-6 -6 -12 -6q-5 0 -10 4l-17 15q-6 5 -6 10q0 4 4 8 q28 30 37 52q2 4 2 7q0 6 -7 9q-15 8 -21 16.5t-6 26.5v19q0 39 40 39z" />
<glyph unicode="&#x13c;" horiz-adv-x="268" d="M157 659v-527q0 -30 8 -42t33 -12h25q9 0 13 -3.5t4 -13.5v-43q0 -18 -16 -18h-43q-63 0 -89.5 27t-26.5 91v541q0 18 20 18h52q11 0 15.5 -4t4.5 -14zM146 -66h21q41 0 41 -44v-18q0 -75 -66 -138q-6 -6 -12 -6q-5 0 -10 4l-17 15q-6 5 -6 10q0 4 4 8q28 30 37 52 q2 4 2 7q0 6 -7 9q-15 8 -21 16.5t-6 26.5v19q0 39 40 39z" />
<glyph unicode="&#x13d;" horiz-adv-x="417" d="M167 626v-520q0 -15 6.5 -21t22.5 -6h175q13 0 17 -3.5t4 -14.5v-43q0 -10 -4.5 -14t-16.5 -4h-206q-51 0 -73.5 22t-22.5 68v536q0 21 22 21h54q22 0 22 -21zM309 648h21q41 0 41 -44v-18q0 -75 -66 -138q-6 -6 -12 -6q-5 0 -10 4l-17 15q-6 5 -6 10q0 4 4 8 q28 30 37 52q2 4 2 7q0 6 -7 9q-15 8 -21 16.5t-6 26.5v19q0 39 40 39z" />
<glyph unicode="&#x13e;" horiz-adv-x="298" d="M157 659v-527q0 -30 8 -42t33 -12h25q9 0 13 -3.5t4 -13.5v-43q0 -18 -16 -18h-43q-63 0 -89.5 27t-26.5 91v541q0 18 20 18h52q11 0 15.5 -4t4.5 -14zM246 708h21q41 0 41 -44v-18q0 -75 -66 -138q-6 -6 -12 -6q-5 0 -10 4l-17 15q-6 5 -6 10q0 4 4 8q28 30 37 52 q2 4 2 7q0 6 -7 9q-15 8 -21 16.5t-6 26.5v19q0 39 40 39z" />
<glyph unicode="&#x13f;" horiz-adv-x="417" d="M167 626v-520q0 -15 6.5 -21t22.5 -6h175q13 0 17 -3.5t4 -14.5v-43q0 -10 -4.5 -14t-16.5 -4h-206q-51 0 -73.5 22t-22.5 68v536q0 21 22 21h54q22 0 22 -21zM325 285q-26 0 -44.5 19t-18.5 45t18.5 45t44.5 19t44.5 -19t18.5 -45t-18.5 -45t-44.5 -19z" />
<glyph unicode="&#x140;" horiz-adv-x="376" d="M157 659v-527q0 -30 8 -42t33 -12h25q9 0 13 -3.5t4 -13.5v-43q0 -18 -16 -18h-43q-63 0 -89.5 27t-26.5 91v541q0 18 20 18h52q11 0 15.5 -4t4.5 -14zM295 287q-26 0 -44.5 19t-18.5 45t18.5 45t44.5 19t44.5 -19t18.5 -45t-18.5 -45t-44.5 -19z" />
<glyph unicode="&#x141;" horiz-adv-x="417" d="M167 626v-217l91 61q17 11 17 -11v-57q0 -18 -15 -28l-93 -62v-206q0 -15 6.5 -21t22.5 -6h175q13 0 17 -3.5t4 -14.5v-43q0 -10 -4.5 -14t-16.5 -4h-206q-51 0 -73.5 22t-22.5 68v157l-63 -42q-13 -6 -16 -0.5t-3 23.5v44q0 18 15 28l67 44v282q0 21 22 21h54 q22 0 22 -21z" />
<glyph unicode="&#x142;" horiz-adv-x="298" d="M172 659v-229l83 54q12 7 16 7q8 0 8 -18v-50q0 -18 -15 -28l-92 -61v-202q0 -30 8 -42t33 -12h25q9 0 13 -3.5t4 -13.5v-43q0 -18 -16 -18h-43q-63 0 -89.5 27t-26.5 91v156l-57 -37q-12 -7 -16 -7q-8 0 -8 18v51q0 18 15 28l66 43v289q0 18 20 18h52q11 0 15.5 -4 t4.5 -14z" />
<glyph unicode="&#x143;" horiz-adv-x="622" d="M423 27l-259 477h-5v-483q0 -13 -4.5 -17t-16.5 -4h-48q-12 0 -16.5 4t-4.5 17v598q0 17 6 22.5t24 5.5h53q19 0 28.5 -6t18.5 -22l259 -476h5v483q0 12 4.5 16.5t16.5 4.5h48q12 0 16.5 -4.5t4.5 -16.5v-599q0 -16 -6 -21.5t-24 -5.5h-53q-19 0 -28.5 6t-18.5 21z M241 762l168 85q9 5 15 5q8 -2 13 -12l19 -36q8 -18 8 -22q-1 -9 -16 -15l-170 -67q-11 -4 -18 -4t-13 13l-13 26q-6 11 -6 15q1 7 13 12z" />
<glyph unicode="&#x144;" horiz-adv-x="515" d="M64 18v457q0 15 16 15h35q17 0 19 -15l5 -32h2q46 56 142 56q88 0 130.5 -46t42.5 -151v-284q0 -10 -4.5 -14t-15.5 -4h-52q-20 0 -20 18v288q0 63 -24 90.5t-81 27.5q-52 0 -77.5 -23.5t-25.5 -80.5v-302q0 -10 -4.5 -14t-15.5 -4h-52q-20 0 -20 18zM182 618l162 95 q9 5 15 5q8 0 14 -11l21 -35q9 -15 9 -21q0 -9 -15 -16l-166 -77q-12 -5 -17 -5q-7 0 -14 12l-15 25q-6 10 -6 15q0 6 12 13z" />
<glyph unicode="&#x145;" horiz-adv-x="622" d="M423 27l-259 477h-5v-483q0 -13 -4.5 -17t-16.5 -4h-48q-12 0 -16.5 4t-4.5 17v598q0 17 6 22.5t24 5.5h53q19 0 28.5 -6t18.5 -22l259 -476h5v483q0 12 4.5 16.5t16.5 4.5h48q12 0 16.5 -4.5t4.5 -16.5v-599q0 -16 -6 -21.5t-24 -5.5h-53q-19 0 -28.5 6t-18.5 21z M314 -66h21q41 0 41 -44v-18q0 -75 -66 -138q-6 -6 -12 -6q-5 0 -10 4l-17 15q-6 5 -6 10q0 4 4 8q28 30 37 52q2 4 2 7q0 6 -7 9q-15 8 -21 16.5t-6 26.5v19q0 39 40 39z" />
<glyph unicode="&#x146;" horiz-adv-x="515" d="M64 18v457q0 15 16 15h35q17 0 19 -15l5 -32h2q46 56 142 56q88 0 130.5 -46t42.5 -151v-284q0 -10 -4.5 -14t-15.5 -4h-52q-20 0 -20 18v288q0 63 -24 90.5t-81 27.5q-52 0 -77.5 -23.5t-25.5 -80.5v-302q0 -10 -4.5 -14t-15.5 -4h-52q-20 0 -20 18zM251 -66h21 q41 0 41 -44v-18q0 -75 -66 -138q-6 -6 -12 -6q-5 0 -10 4l-17 15q-6 5 -6 10q0 4 4 8q28 30 37 52q2 4 2 7q0 6 -7 9q-15 8 -21 16.5t-6 26.5v19q0 39 40 39z" />
<glyph unicode="&#x147;" horiz-adv-x="622" d="M423 27l-259 477h-5v-483q0 -13 -4.5 -17t-16.5 -4h-48q-12 0 -16.5 4t-4.5 17v598q0 17 6 22.5t24 5.5h53q19 0 28.5 -6t18.5 -22l259 -476h5v483q0 12 4.5 16.5t16.5 4.5h48q12 0 16.5 -4.5t4.5 -16.5v-599q0 -16 -6 -21.5t-24 -5.5h-53q-19 0 -28.5 6t-18.5 21z M341 705h-46q-13 0 -21 9l-98 114q-7 9 -7 13q0 6 8 12l23 16q11 8 17 8t14 -8l85 -87h4l85 87q8 8 14 8t17 -8l23 -16q8 -6 8 -12q0 -4 -7 -13l-98 -114q-8 -9 -21 -9z" />
<glyph unicode="&#x148;" horiz-adv-x="515" d="M64 18v457q0 15 16 15h35q17 0 19 -15l5 -32h2q46 56 142 56q88 0 130.5 -46t42.5 -151v-284q0 -10 -4.5 -14t-15.5 -4h-52q-20 0 -20 18v288q0 63 -24 90.5t-81 27.5q-52 0 -77.5 -23.5t-25.5 -80.5v-302q0 -10 -4.5 -14t-15.5 -4h-52q-20 0 -20 18zM288 553h-46 q-13 0 -21 9l-98 114q-7 9 -7 13q0 6 8 12l23 16q11 8 17 8t14 -8l85 -87h4l85 87q8 8 14 8t17 -8l23 -16q8 -6 8 -12q0 -4 -7 -13l-98 -114q-8 -9 -21 -9z" />
<glyph unicode="&#x149;" horiz-adv-x="515" d="M64 18v457q0 15 16 15h35q17 0 19 -15l5 -32h2q46 56 142 56q88 0 130.5 -46t42.5 -151v-284q0 -10 -4.5 -14t-15.5 -4h-52q-20 0 -20 18v288q0 63 -24 90.5t-81 27.5q-52 0 -77.5 -23.5t-25.5 -80.5v-302q0 -10 -4.5 -14t-15.5 -4h-52q-20 0 -20 18zM-14 721h15 q30 0 44 -14.5t14 -47.5v-9q0 -42 -20 -93q-24 -58 -56 -92q-6 -8 -12 -8q-7 0 -16 6l-21 13q-9 6 -9 12q0 4 5 11q34 44 43 76q4 15 -6 21l-15 8q-20 11 -20 45v24q0 48 54 48z" />
<glyph unicode="&#x14a;" horiz-adv-x="621" d="M552 626v-621q0 -103 -36 -147.5t-122 -44.5h-48q-12 0 -15.5 4t-3.5 15v39q0 10 4 14.5t15 4.5h39q42 0 59.5 19.5t17.5 69.5v21q-43 3 -65 47l-232 456h-6v-482q0 -13 -4.5 -17t-16.5 -4h-48q-12 0 -16.5 4t-4.5 17v598q0 17 6 22.5t24 5.5h53q19 0 28.5 -6t18.5 -22 l258 -501h5v508q0 12 4.5 16.5t16.5 4.5h48q12 0 16.5 -4.5t4.5 -16.5z" />
<glyph unicode="&#x14b;" horiz-adv-x="515" d="M364 38v268q0 63 -24 90.5t-81 27.5q-52 0 -77.5 -23.5t-25.5 -80.5v-302q0 -10 -4.5 -14t-15.5 -4h-52q-20 0 -20 18v457q0 15 16 15h35q17 0 19 -15l5 -32h2q46 56 142 56q88 0 130.5 -46t42.5 -151v-268q0 -104 -38.5 -152.5t-122.5 -48.5h-40q-17 0 -17 16v45 q0 15 16 15h27q48 0 65.5 25t17.5 104z" />
<glyph unicode="&#x14c;" horiz-adv-x="600" d="M549 346v-46q0 -101 -13 -154.5t-49 -92.5q-57 -62 -187 -62t-187 62q-36 39 -49 92.5t-13 154.5v46q0 101 13 155t49 93q57 62 187 62t187 -62q36 -39 49 -93t13 -155zM448 312v23q0 85 -6.5 129t-29.5 70q-36 42 -112 42t-112 -42q-23 -26 -29.5 -70t-6.5 -129v-23 q0 -85 6.5 -129t29.5 -70q36 -42 112 -42t112 42q23 26 29.5 70t6.5 129zM412 730h-222q-19 0 -19 18v38q0 17 19 17h222q19 0 19 -17v-38q0 -18 -19 -18z" />
<glyph unicode="&#x14d;" horiz-adv-x="488" d="M352 255q0 88 -16 123q-21 47 -92 47t-92 -47q-16 -35 -16 -123v-1v-1v-1v-1v-1v-1v-2v-1v-2v-9q0 -88 16 -123q21 -47 92 -47t92 47q16 35 16 123v0v1v1v1v1v2v1v1v2v1v9zM446 262v-34q0 -136 -50 -186q-51 -51 -152 -51t-152 51q-50 50 -50 186v34q0 136 50 186 q51 51 152 51t152 -51q50 -50 50 -186zM354 592h-222q-19 0 -19 18v38q0 17 19 17h222q19 0 19 -17v-38q0 -18 -19 -18z" />
<glyph unicode="&#x14e;" horiz-adv-x="600" d="M549 346v-46q0 -101 -13 -154.5t-49 -92.5q-57 -62 -187 -62t-187 62q-36 39 -49 92.5t-13 154.5v46q0 101 13 155t49 93q57 62 187 62t187 -62q36 -39 49 -93t13 -155zM448 312v23q0 85 -6.5 129t-29.5 70q-36 42 -112 42t-112 -42q-23 -26 -29.5 -70t-6.5 -129v-23 q0 -85 6.5 -129t29.5 -70q36 -42 112 -42t112 42q23 26 29.5 70t6.5 129zM299 700q-111 0 -146 102q-5 15 -5 19q0 9 14 13l22 7q17 5 21 5q8 0 12 -12q26 -67 82 -67t82 67q4 12 12 12q4 0 21 -5l22 -7q14 -4 14 -13q0 -4 -5 -19q-35 -102 -146 -102z" />
<glyph unicode="&#x14f;" horiz-adv-x="488" d="M352 255q0 88 -16 123q-21 47 -92 47t-92 -47q-16 -35 -16 -123v-1v-1v-1v-1v-1v-1v-2v-1v-2v-9q0 -88 16 -123q21 -47 92 -47t92 47q16 35 16 123v0v1v1v1v1v2v1v1v2v1v9zM446 262v-34q0 -136 -50 -186q-51 -51 -152 -51t-152 51q-50 50 -50 186v34q0 136 50 186 q51 51 152 51t152 -51q50 -50 50 -186zM243 558q-111 0 -146 102q-5 15 -5 19q0 9 14 13l22 7q17 5 21 5q8 0 12 -12q26 -67 82 -67t82 67q4 12 12 12q4 0 21 -5l22 -7q14 -4 14 -13q0 -4 -5 -19q-35 -102 -146 -102z" />
<glyph unicode="&#x150;" horiz-adv-x="600" d="M549 346v-46q0 -101 -13 -154.5t-49 -92.5q-57 -62 -187 -62t-187 62q-36 39 -49 92.5t-13 154.5v46q0 101 13 155t49 93q57 62 187 62t187 -62q36 -39 49 -93t13 -155zM448 312v23q0 85 -6.5 129t-29.5 70q-36 42 -112 42t-112 -42q-23 -26 -29.5 -70t-6.5 -129v-23 q0 -85 6.5 -129t29.5 -70q36 -42 112 -42t112 42q23 26 29.5 70t6.5 129zM150 749l140 119q7 6 14 6q8 0 16 -9l29 -38q6 -7 6 -15q-2 -9 -12 -15l-145 -102q-8 -5 -15 -5q-9 0 -19 13l-12 15q-9 12 -9 18t7 13zM360 749l140 119q7 6 14 6q8 0 16 -9l29 -38q6 -7 6 -15 q-2 -9 -12 -15l-145 -102q-8 -5 -15 -5q-9 0 -19 13l-12 15q-9 12 -9 18t7 13z" />
<glyph unicode="&#x151;" horiz-adv-x="488" d="M352 255q0 88 -16 123q-21 47 -92 47t-92 -47q-16 -35 -16 -123v-1v-1v-1v-1v-1v-1v-2v-1v-2v-9q0 -88 16 -123q21 -47 92 -47t92 47q16 35 16 123v0v1v1v1v1v2v1v1v2v1v9zM446 262v-34q0 -136 -50 -186q-51 -51 -152 -51t-152 51q-50 50 -50 186v34q0 136 50 186 q51 51 152 51t152 -51q50 -50 50 -186zM94 611l140 119q7 6 14 6q8 0 16 -9l29 -38q6 -7 6 -15q-2 -9 -12 -15l-145 -102q-8 -5 -15 -5q-9 0 -19 13l-12 15q-9 12 -9 18t7 13zM304 611l140 119q7 6 14 6q8 0 16 -9l29 -38q6 -7 6 -15q-2 -9 -12 -15l-145 -102q-8 -5 -15 -5 q-9 0 -19 13l-12 15q-9 12 -9 18t7 13z" />
<glyph unicode="&#x152;" horiz-adv-x="851" d="M556 647h233q12 0 16 -4t4 -16v-40q0 -11 -4 -15.5t-16 -4.5h-222q-42 0 -45 -37q-5 -65 -5 -157h232q12 0 16 -4t4 -15v-41q0 -10 -4 -14.5t-16 -4.5h-232q0 -124 7 -180q2 -19 12 -27t30 -8h222q13 0 17 -4t4 -15v-41q0 -11 -4 -15t-17 -4h-232q-85 0 -111 39 q-57 -48 -152 -48q-133 0 -187.5 75.5t-54.5 233.5v46q0 159 55 234.5t190 75.5q85 0 152 -46q23 37 108 37zM426 530q-44 44 -130 44q-38 0 -65 -13t-42.5 -32.5t-23.5 -53t-10.5 -64.5t-2.5 -76v-24q0 -45 2 -75t10.5 -64t24 -54t43.5 -33t68 -13q86 0 129 45 q-8 85 -8 180v59q0 113 5 174z" />
<glyph unicode="&#x153;" horiz-adv-x="776" d="M733 300v-73q0 -29 -28 -29h-258q2 -74 26.5 -102.5t95.5 -28.5q58 0 106 19q12 4 16 4q8 0 12 -11l7 -24q5 -17 5 -21q0 -9 -12 -15q-61 -28 -145 -28q-117 0 -163 61q-20 -28 -60.5 -44.5t-90.5 -16.5q-101 0 -152 51q-50 50 -50 186v34q0 136 50 186q51 51 152 51 q106 0 155 -58q48 58 151 58q92 0 137.5 -47t45.5 -152zM352 255q0 88 -16 123q-21 47 -92 47t-92 -47q-16 -35 -16 -123v-20q0 -88 16 -123q21 -47 92 -47t92 47q16 35 16 123v20zM446 273h181q13 0 13 14q0 76 -18 106t-74 30t-79 -33.5t-23 -116.5z" />
<glyph unicode="&#x154;" horiz-adv-x="538" d="M69 21v598q0 24 20 27q65 10 153 10q122 0 179.5 -42t57.5 -141v-19q0 -72 -32.5 -118t-88.5 -59l141 -237q16 -26 16 -31q0 -9 -14 -9h-64q-19 0 -28 15q-131 230 -143 251q-14 -1 -47 -1q-35 0 -52 1v-245q0 -12 -5 -16.5t-17 -4.5h-54q-12 0 -17 4.5t-5 16.5zM167 558 v-213q40 -2 72 -2q80 0 111 24.5t31 89.5v13q0 60 -29 83.5t-105 23.5q-41 0 -66 -3q-14 -2 -14 -16zM177 762l168 85q9 5 15 5q8 -2 13 -12l19 -36q8 -18 8 -22q-1 -9 -16 -15l-170 -67q-11 -4 -18 -4t-13 13l-13 26q-6 11 -6 15q1 7 13 12z" />
<glyph unicode="&#x155;" horiz-adv-x="324" d="M134 475l5 -49h2q20 34 48 49t76 15h20q12 0 16.5 -4t4.5 -14v-44q0 -17 -21 -17h-22q-61 0 -85 -28q-22 -26 -22 -87v-278q0 -10 -4.5 -14t-15.5 -4h-52q-20 0 -20 18v457q0 15 16 15h35q18 0 19 -15zM118 618l162 95q9 5 15 5q8 0 14 -11l21 -35q9 -15 9 -21 q0 -9 -15 -16l-166 -77q-12 -5 -17 -5q-7 0 -14 12l-15 25q-6 10 -6 15q0 6 12 13z" />
<glyph unicode="&#x156;" horiz-adv-x="538" d="M69 21v598q0 24 20 27q65 10 153 10q122 0 179.5 -42t57.5 -141v-19q0 -72 -32.5 -118t-88.5 -59l141 -237q16 -26 16 -31q0 -9 -14 -9h-64q-19 0 -28 15q-131 230 -143 251q-14 -1 -47 -1q-35 0 -52 1v-245q0 -12 -5 -16.5t-17 -4.5h-54q-12 0 -17 4.5t-5 16.5zM167 558 v-213q40 -2 72 -2q80 0 111 24.5t31 89.5v13q0 60 -29 83.5t-105 23.5q-41 0 -66 -3q-14 -2 -14 -16zM272 -66h21q41 0 41 -44v-18q0 -75 -66 -138q-6 -6 -12 -6q-5 0 -10 4l-17 15q-6 5 -6 10q0 4 4 8q28 30 37 52q2 4 2 7q0 6 -7 9q-15 8 -21 16.5t-6 26.5v19q0 39 40 39z " />
<glyph unicode="&#x157;" horiz-adv-x="324" d="M134 475l5 -49h2q20 34 48 49t76 15h20q12 0 16.5 -4t4.5 -14v-44q0 -17 -21 -17h-22q-61 0 -85 -28q-22 -26 -22 -87v-278q0 -10 -4.5 -14t-15.5 -4h-52q-20 0 -20 18v457q0 15 16 15h35q18 0 19 -15zM100 -66h21q41 0 41 -44v-18q0 -75 -66 -138q-6 -6 -12 -6 q-5 0 -10 4l-17 15q-6 5 -6 10q0 4 4 8q28 30 37 52q2 4 2 7q0 6 -7 9q-15 8 -21 16.5t-6 26.5v19q0 39 40 39z" />
<glyph unicode="&#x158;" horiz-adv-x="538" d="M69 21v598q0 24 20 27q65 10 153 10q122 0 179.5 -42t57.5 -141v-19q0 -72 -32.5 -118t-88.5 -59l141 -237q16 -26 16 -31q0 -9 -14 -9h-64q-19 0 -28 15q-131 230 -143 251q-14 -1 -47 -1q-35 0 -52 1v-245q0 -12 -5 -16.5t-17 -4.5h-54q-12 0 -17 4.5t-5 16.5zM167 558 v-213q40 -2 72 -2q80 0 111 24.5t31 89.5v13q0 60 -29 83.5t-105 23.5q-41 0 -66 -3q-14 -2 -14 -16zM282 705h-46q-13 0 -21 9l-98 114q-7 9 -7 13q0 6 8 12l23 16q11 8 17 8t14 -8l85 -87h4l85 87q8 8 14 8t17 -8l23 -16q8 -6 8 -12q0 -4 -7 -13l-98 -114q-8 -9 -21 -9z " />
<glyph unicode="&#x159;" horiz-adv-x="324" d="M134 475l5 -49h2q20 34 48 49t76 15h20q12 0 16.5 -4t4.5 -14v-44q0 -17 -21 -17h-22q-61 0 -85 -28q-22 -26 -22 -87v-278q0 -10 -4.5 -14t-15.5 -4h-52q-20 0 -20 18v457q0 15 16 15h35q18 0 19 -15zM211 553h-46q-13 0 -21 9l-98 114q-7 9 -7 13q0 6 8 12l23 16 q11 8 17 8t14 -8l85 -87h4l85 87q8 8 14 8t17 -8l23 -16q8 -6 8 -12q0 -4 -7 -13l-98 -114q-8 -9 -21 -9z" />
<glyph unicode="&#x15a;" horiz-adv-x="487" d="M229 -9q-96 0 -174 29q-15 6 -15 17q0 9 3 21l8 31q3 12 13 12q5 0 16 -4q77 -27 155 -27q68 0 93.5 23t25.5 81v10q0 50 -18 69t-78 33l-68 16q-80 19 -114 56t-34 111v16q0 171 205 171q89 0 152 -21q17 -6 17 -15q0 -5 -7 -31l-6 -22q-3 -14 -14 -14q-5 0 -13 3 q-66 21 -126 21q-61 0 -87.5 -22t-26.5 -72v-10q0 -44 20.5 -61.5t73.5 -29.5l68 -16q82 -19 115 -55t33 -119v-12q0 -103 -50.5 -146t-166.5 -43zM167 762l168 85q9 5 15 5q8 -2 13 -12l19 -36q8 -18 8 -22q-1 -9 -16 -15l-170 -67q-11 -4 -18 -4t-13 13l-13 26 q-6 11 -6 15q1 7 13 12z" />
<glyph unicode="&#x15b;" horiz-adv-x="417" d="M198 -9q-78 0 -146 25q-14 5 -14 14q0 6 6 30l5 18q4 14 13 14q3 0 7.5 -1.5t12.5 -4.5t16 -5q45 -14 102 -14q48 0 69.5 16.5t21.5 52.5v5q0 33 -16 47.5t-55 22.5l-47 10q-76 16 -101.5 44t-25.5 91v7q0 70 41 103t127 33q71 0 127 -17q12 -4 12 -13q0 -1 -6 -29 l-5 -19q-4 -14 -12 -14q-6 0 -20 4q-40 11 -90 11t-69 -13.5t-19 -45.5v-5q0 -26 15.5 -39t59.5 -23l46 -10q68 -14 96 -45.5t28 -95.5v-8q0 -71 -45.5 -108.5t-133.5 -37.5zM129 618l162 95q9 5 15 5q8 0 14 -11l21 -35q9 -15 9 -21q0 -9 -15 -16l-166 -77q-12 -5 -17 -5 q-7 0 -14 12l-15 25q-6 10 -6 15q0 6 12 13z" />
<glyph unicode="&#x15c;" horiz-adv-x="487" d="M229 -9q-96 0 -174 29q-15 6 -15 17q0 9 3 21l8 31q3 12 13 12q5 0 16 -4q77 -27 155 -27q68 0 93.5 23t25.5 81v10q0 50 -18 69t-78 33l-68 16q-80 19 -114 56t-34 111v16q0 171 205 171q89 0 152 -21q17 -6 17 -15q0 -5 -7 -31l-6 -22q-3 -14 -14 -14q-5 0 -13 3 q-66 21 -126 21q-61 0 -87.5 -22t-26.5 -72v-10q0 -44 20.5 -61.5t73.5 -29.5l68 -16q82 -19 115 -55t33 -119v-12q0 -103 -50.5 -146t-166.5 -43zM224 873h46q13 0 21 -9l98 -114q7 -9 7 -13q0 -6 -8 -12l-23 -16q-11 -8 -17 -8t-14 8l-85 87h-4l-85 -87q-8 -8 -14 -8 t-17 8l-23 16q-8 6 -8 12q0 4 7 13l98 114q8 9 21 9z" />
<glyph unicode="&#x15d;" horiz-adv-x="417" d="M198 -9q-78 0 -146 25q-14 5 -14 14q0 6 6 30l5 18q4 14 13 14q3 0 7.5 -1.5t12.5 -4.5t16 -5q45 -14 102 -14q48 0 69.5 16.5t21.5 52.5v5q0 33 -16 47.5t-55 22.5l-47 10q-76 16 -101.5 44t-25.5 91v7q0 70 41 103t127 33q71 0 127 -17q12 -4 12 -13q0 -1 -6 -29 l-5 -19q-4 -14 -12 -14q-6 0 -20 4q-40 11 -90 11t-69 -13.5t-19 -45.5v-5q0 -26 15.5 -39t59.5 -23l46 -10q68 -14 96 -45.5t28 -95.5v-8q0 -71 -45.5 -108.5t-133.5 -37.5zM189 723h46q13 0 21 -9l98 -114q7 -9 7 -13q0 -6 -8 -12l-23 -16q-11 -8 -17 -8t-14 8l-85 87h-4 l-85 -87q-8 -8 -14 -8t-17 8l-23 16q-8 6 -8 12q0 4 7 13l98 114q8 9 21 9z" />
<glyph unicode="&#x15e;" horiz-adv-x="487" d="M177 -88q0 4 3 19l11 62q-84 7 -136 27q-15 6 -15 17q0 9 3 21l8 31q3 12 13 12q5 0 16 -4q77 -27 155 -27q68 0 93.5 23t25.5 81v10q0 50 -18 69t-78 33l-68 16q-80 19 -114 56t-34 111v16q0 171 205 171q89 0 152 -21q17 -6 17 -15q0 -5 -7 -31l-6 -22q-3 -14 -14 -14 q-5 0 -13 3q-66 21 -126 21q-61 0 -87.5 -22t-26.5 -72v-10q0 -44 20.5 -61.5t73.5 -29.5l68 -16q82 -19 115 -55t33 -119v-12q0 -98 -45.5 -141t-148.5 -47q-2 -8 -2 -12l-7 -42q15 3 32 3q32 0 53.5 -20t21.5 -60q0 -96 -117 -96q-37 0 -76 11q-10 3 -10 10q0 6 2 18l3 19 q1 10 8 10q3 0 11 -2q28 -8 55 -8t38.5 7.5t11.5 27.5q0 28 -33 28q-17 0 -34 -3q-10 -2 -11 -2q-6 0 -10 7l-8 13q-3 6 -3 11z" />
<glyph unicode="&#x15f;" horiz-adv-x="417" d="M145 -88q0 4 3 19l11 62q-62 7 -107 23q-14 5 -14 14q0 6 6 30l5 18q4 14 13 14q3 0 7.5 -1.5t12.5 -4.5t16 -5q45 -14 102 -14q48 0 69.5 16.5t21.5 52.5v5q0 33 -16 47.5t-55 22.5l-47 10q-76 16 -101.5 44t-25.5 91v7q0 70 41 103t127 33q71 0 127 -17q12 -4 12 -13 q0 -1 -6 -29l-5 -19q-4 -14 -12 -14q-6 0 -20 4q-40 11 -90 11t-69 -13.5t-19 -45.5v-5q0 -26 15.5 -39t59.5 -23l46 -10q68 -14 96 -45.5t28 -95.5v-8q0 -136 -157 -145l-9 -54q15 3 32 3q32 0 53.5 -20t21.5 -60q0 -96 -117 -96q-37 0 -76 11q-10 3 -10 10q0 6 2 18l3 19 q1 10 8 10q3 0 11 -2q28 -8 55 -8t38.5 7.5t11.5 27.5q0 28 -33 28q-18 0 -34 -3q-10 -2 -11 -2q-6 0 -10 7l-8 13q-3 6 -3 11z" />
<glyph unicode="&#x160;" horiz-adv-x="487" d="M229 -9q-96 0 -174 29q-15 6 -15 17q0 9 3 21l8 31q3 12 13 12q5 0 16 -4q77 -27 155 -27q68 0 93.5 23t25.5 81v10q0 50 -18 69t-78 33l-68 16q-80 19 -114 56t-34 111v16q0 171 205 171q89 0 152 -21q17 -6 17 -15q0 -5 -7 -31l-6 -22q-3 -14 -14 -14q-5 0 -13 3 q-66 21 -126 21q-61 0 -87.5 -22t-26.5 -72v-10q0 -44 20.5 -61.5t73.5 -29.5l68 -16q82 -19 115 -55t33 -119v-12q0 -103 -50.5 -146t-166.5 -43zM265 705h-46q-13 0 -21 9l-98 114q-7 9 -7 13q0 6 8 12l23 16q11 8 17 8t14 -8l85 -87h4l85 87q8 8 14 8t17 -8l23 -16 q8 -6 8 -12q0 -4 -7 -13l-98 -114q-8 -9 -21 -9z" />
<glyph unicode="&#x161;" horiz-adv-x="417" d="M198 -9q-78 0 -146 25q-14 5 -14 14q0 6 6 30l5 18q4 14 13 14q3 0 7.5 -1.5t12.5 -4.5t16 -5q45 -14 102 -14q48 0 69.5 16.5t21.5 52.5v5q0 33 -16 47.5t-55 22.5l-47 10q-76 16 -101.5 44t-25.5 91v7q0 70 41 103t127 33q71 0 127 -17q12 -4 12 -13q0 -1 -6 -29 l-5 -19q-4 -14 -12 -14q-6 0 -20 4q-40 11 -90 11t-69 -13.5t-19 -45.5v-5q0 -26 15.5 -39t59.5 -23l46 -10q68 -14 96 -45.5t28 -95.5v-8q0 -71 -45.5 -108.5t-133.5 -37.5zM232 553h-46q-13 0 -21 9l-98 114q-7 9 -7 13q0 6 8 12l23 16q11 8 17 8t14 -8l85 -87h4l85 87 q8 8 14 8t17 -8l23 -16q8 -6 8 -12q0 -4 -7 -13l-98 -114q-8 -9 -21 -9z" />
<glyph unicode="&#x162;" horiz-adv-x="480" d="M444 567h-155v-547q0 -12 -4.5 -16t-16.5 -4h-56q-12 0 -16.5 4t-4.5 16v547h-155q-12 0 -16 4.5t-4 15.5v41q0 19 20 19h408q20 0 20 -19v-41q0 -11 -4 -15.5t-16 -4.5zM233 -66h21q41 0 41 -44v-18q0 -75 -66 -138q-6 -6 -12 -6q-5 0 -10 4l-17 15q-6 5 -6 10q0 4 4 8 q28 30 37 52q2 4 2 7q0 6 -7 9q-15 8 -21 16.5t-6 26.5v19q0 39 40 39z" />
<glyph unicode="&#x163;" horiz-adv-x="338" d="M296 0h-60q-87 0 -120 36q-30 34 -30 122v253h-60q-15 0 -15 15v32q0 9 2.5 12t10.5 5l62 12v109q0 19 20 19h53q19 0 19 -19v-106h108q16 0 16 -18v-43q0 -18 -16 -18h-108v-246q0 -50 12 -68q13 -19 63 -19h43q10 0 14 -3.5t4 -15.5v-41q0 -10 -3.5 -14t-14.5 -4z M197 -66h21q41 0 41 -44v-18q0 -75 -66 -138q-6 -6 -12 -6q-5 0 -10 4l-17 15q-6 5 -6 10q0 4 4 8q28 30 37 52q2 4 2 7q0 6 -7 9q-15 8 -21 16.5t-6 26.5v19q0 39 40 39z" />
<glyph unicode="&#x164;" horiz-adv-x="480" d="M444 567h-155v-547q0 -12 -4.5 -16t-16.5 -4h-56q-12 0 -16.5 4t-4.5 16v547h-155q-12 0 -16 4.5t-4 15.5v41q0 19 20 19h408q20 0 20 -19v-41q0 -11 -4 -15.5t-16 -4.5zM263 705h-46q-13 0 -21 9l-98 114q-7 9 -7 13q0 6 8 12l23 16q11 8 17 8t14 -8l85 -87h4l85 87 q8 8 14 8t17 -8l23 -16q8 -6 8 -12q0 -4 -7 -13l-98 -114q-8 -9 -21 -9z" />
<glyph unicode="&#x165;" horiz-adv-x="338" d="M296 0h-60q-87 0 -120 36q-30 34 -30 122v253h-60q-15 0 -15 15v32q0 9 2.5 12t10.5 5l62 12v109q0 19 20 19h53q19 0 19 -19v-106h108q16 0 16 -18v-43q0 -18 -16 -18h-108v-246q0 -50 12 -68q13 -19 63 -19h43q10 0 14 -3.5t4 -15.5v-41q0 -10 -3.5 -14t-14.5 -4z M291 736h21q41 0 41 -44v-18q0 -75 -66 -138q-6 -6 -12 -6q-5 0 -10 4l-17 15q-6 5 -6 10q0 4 4 8q28 30 37 52q2 4 2 7q0 6 -7 9q-15 8 -21 16.5t-6 26.5v19q0 39 40 39z" />
<glyph unicode="&#x166;" horiz-adv-x="480" d="M444 567h-155v-211h110q20 0 20 -18v-38q0 -10 -4 -14t-16 -4h-110v-262q0 -12 -4.5 -16t-16.5 -4h-56q-12 0 -16.5 4t-4.5 16v262h-112q-12 0 -16 4t-4 14v38q0 18 20 18h112v211h-155q-12 0 -16 4.5t-4 15.5v41q0 19 20 19h408q20 0 20 -19v-41q0 -11 -4 -15.5 t-16 -4.5z" />
<glyph unicode="&#x167;" horiz-adv-x="338" d="M24 294l62 12v105h-60q-15 0 -15 15v32q0 16 13 17l62 12v109q0 19 20 19h53q19 0 19 -19v-106h108q16 0 16 -18v-43q0 -18 -16 -18h-108v-102h108q16 0 16 -18v-43q0 -18 -16 -18h-108v-65q0 -50 12 -68q13 -19 63 -19h43q10 0 14 -3.5t4 -15.5v-41q0 -10 -3.5 -14 t-14.5 -4h-60q-87 0 -120 36q-30 34 -30 122v72h-60q-15 0 -15 15v32q0 16 13 17z" />
<glyph unicode="&#x168;" horiz-adv-x="599" d="M535 626v-412q0 -116 -57 -169q-59 -54 -179 -54q-118 0 -178 54q-57 51 -57 169v412q0 21 21 21h56q21 0 21 -21v-407q0 -81 29 -111q34 -37 108 -37q75 0 109 37q29 32 29 111v407q0 21 22 21h54q22 0 22 -21zM163 719l-21 12q-8 5 -8 11q0 4 3 10q40 83 106 83 q30 0 57 -19l28 -19q22 -15 37 -15q27 0 50 39q4 7 10 7q4 0 12 -5l20 -13q9 -6 9 -12q0 -4 -3 -10q-44 -79 -105 -79q-28 0 -57 18l-27 19q-23 15 -36 15q-24 0 -48 -40q-4 -9 -11 -9q-5 0 -16 7z" />
<glyph unicode="&#x169;" horiz-adv-x="499" d="M348 162v310q0 18 20 18h52q11 0 15.5 -4t4.5 -15v-324q0 -85 -51 -122q-44 -34 -139 -34t-140 34q-51 37 -51 122v325q0 18 20 18h52q11 0 15.5 -4t4.5 -14v-310q0 -55 23 -74q24 -20 76 -20t77 22q21 18 21 72zM114 577l-21 12q-8 5 -8 11q0 4 3 10q40 83 106 83 q30 0 57 -19l28 -19q23 -15 37 -15q27 0 50 39q4 7 10 7q4 0 12 -5l20 -13q9 -6 9 -12q0 -4 -3 -10q-44 -79 -105 -79q-29 0 -57 18l-27 19q-23 15 -36 15q-24 0 -48 -40q-5 -9 -11 -9q-5 0 -16 7z" />
<glyph unicode="&#x16a;" horiz-adv-x="599" d="M535 626v-412q0 -116 -57 -169q-59 -54 -179 -54q-118 0 -178 54q-57 51 -57 169v412q0 21 21 21h56q21 0 21 -21v-407q0 -81 29 -111q34 -37 108 -37q75 0 109 37q29 32 29 111v407q0 21 22 21h54q22 0 22 -21zM411 730h-222q-19 0 -19 18v38q0 17 19 17h222 q19 0 19 -17v-38q0 -18 -19 -18z" />
<glyph unicode="&#x16b;" horiz-adv-x="499" d="M348 162v310q0 18 20 18h52q11 0 15.5 -4t4.5 -15v-324q0 -85 -51 -122q-44 -34 -139 -34t-140 34q-51 37 -51 122v325q0 18 20 18h52q11 0 15.5 -4t4.5 -14v-310q0 -55 23 -74q24 -20 76 -20t77 22q21 18 21 72zM361 592h-222q-19 0 -19 18v38q0 17 19 17h222 q19 0 19 -17v-38q0 -18 -19 -18z" />
<glyph unicode="&#x16c;" horiz-adv-x="599" d="M535 626v-412q0 -116 -57 -169q-59 -54 -179 -54q-118 0 -178 54q-57 51 -57 169v412q0 21 21 21h56q21 0 21 -21v-407q0 -81 29 -111q34 -37 108 -37q75 0 109 37q29 32 29 111v407q0 21 22 21h54q22 0 22 -21zM299 700q-111 0 -146 102q-5 15 -5 19q0 9 14 13l22 7 q17 5 21 5q8 0 12 -12q26 -67 82 -67t82 67q4 12 12 12q4 0 21 -5l22 -7q14 -4 14 -13q0 -4 -5 -19q-35 -102 -146 -102z" />
<glyph unicode="&#x16d;" horiz-adv-x="499" d="M348 162v310q0 18 20 18h52q11 0 15.5 -4t4.5 -15v-324q0 -85 -51 -122q-44 -34 -139 -34t-140 34q-51 37 -51 122v325q0 18 20 18h52q11 0 15.5 -4t4.5 -14v-310q0 -55 23 -74q24 -20 76 -20t77 22q21 18 21 72zM249 558q-111 0 -146 102q-5 15 -5 19q0 9 14 13l22 7 q17 5 21 5q8 0 12 -12q26 -67 82 -67t82 67q4 12 12 12q4 0 21 -5l22 -7q14 -4 14 -13q0 -4 -5 -19q-35 -102 -146 -102z" />
<glyph unicode="&#x16e;" horiz-adv-x="599" d="M535 626v-412q0 -116 -57 -169q-59 -54 -179 -54q-118 0 -178 54q-57 51 -57 169v412q0 21 21 21h56q21 0 21 -21v-407q0 -81 29 -111q34 -37 108 -37q75 0 109 37q29 32 29 111v407q0 21 22 21h54q22 0 22 -21zM300 876q40 0 67 -26.5t27 -67.5t-27 -67.5t-67 -26.5 t-67 26.5t-27 67.5t27 67.5t67 26.5zM300 743q17 0 27.5 11t10.5 28t-10.5 28t-27.5 11t-27.5 -11t-10.5 -28t10.5 -28t27.5 -11z" />
<glyph unicode="&#x16f;" horiz-adv-x="499" d="M348 162v310q0 18 20 18h52q11 0 15.5 -4t4.5 -15v-324q0 -85 -51 -122q-44 -34 -139 -34t-140 34q-51 37 -51 122v325q0 18 20 18h52q11 0 15.5 -4t4.5 -14v-310q0 -55 23 -74q24 -20 76 -20t77 22q21 18 21 72zM250 728q40 0 67 -26.5t27 -67.5t-27 -67.5t-67 -26.5 t-67 26.5t-27 67.5t27 67.5t67 26.5zM250 595q17 0 27.5 11t10.5 28t-10.5 28t-27.5 11t-27.5 -11t-10.5 -28t10.5 -28t27.5 -11z" />
<glyph unicode="&#x170;" horiz-adv-x="599" d="M535 626v-412q0 -116 -57 -169q-59 -54 -179 -54q-118 0 -178 54q-57 51 -57 169v412q0 21 21 21h56q21 0 21 -21v-407q0 -81 29 -111q34 -37 108 -37q75 0 109 37q29 32 29 111v407q0 21 22 21h54q22 0 22 -21zM157 749l140 119q7 6 14 6q8 0 16 -9l29 -38q6 -7 6 -15 q-2 -9 -12 -15l-145 -102q-8 -5 -15 -5q-9 0 -19 13l-12 15q-9 12 -9 18t7 13zM367 749l140 119q7 6 14 6q8 0 16 -9l29 -38q6 -7 6 -15q-2 -9 -12 -15l-145 -102q-8 -5 -15 -5q-9 0 -19 13l-12 15q-9 12 -9 18t7 13z" />
<glyph unicode="&#x171;" horiz-adv-x="499" d="M348 162v310q0 18 20 18h52q11 0 15.5 -4t4.5 -15v-324q0 -85 -51 -122q-44 -34 -139 -34t-140 34q-51 37 -51 122v325q0 18 20 18h52q11 0 15.5 -4t4.5 -14v-310q0 -55 23 -74q24 -20 76 -20t77 22q21 18 21 72zM104 611l140 119q7 6 14 6q8 0 16 -9l29 -38q6 -7 6 -15 q-2 -9 -12 -15l-145 -102q-8 -5 -15 -5q-9 0 -19 13l-12 15q-9 12 -9 18t7 13zM314 611l140 119q7 6 14 6q8 0 16 -9l29 -38q6 -7 6 -15q-2 -9 -12 -15l-145 -102q-8 -5 -15 -5q-9 0 -19 13l-12 15q-9 12 -9 18t7 13z" />
<glyph unicode="&#x172;" horiz-adv-x="599" d="M535 626v-412q0 -116 -57 -169q-31 -29 -86 -45q-35 -11 -58.5 -45t-23.5 -62q0 -33 37 -33q23 0 48 9q9 3 10 3q7 0 8 -9l4 -18q3 -12 3 -17q0 -7 -12 -12q-37 -15 -74 -15q-101 0 -101 79q0 68 68 111h-2q-118 0 -178 54q-57 51 -57 169v412q0 21 21 21h56q21 0 21 -21 v-407q0 -81 29 -111q34 -37 108 -37q75 0 109 37q29 32 29 111v407q0 21 22 21h54q22 0 22 -21z" />
<glyph unicode="&#x173;" horiz-adv-x="499" d="M188 -120q0 33 19 63t49 48h-6q-95 0 -140 34q-51 37 -51 122v325q0 18 20 18h52q11 0 15.5 -4t4.5 -14v-310q0 -55 23 -74q24 -20 76 -20t77 22q21 18 21 72v310q0 18 20 18h52q11 0 15.5 -4t4.5 -15v-324q0 -85 -51 -122q-15 -11 -41 -23q-37 -17 -60 -48.5t-23 -60.5 q0 -33 37 -33q23 0 48 9q9 3 10 3q7 0 8 -9l4 -18q3 -12 3 -17q0 -7 -12 -12q-37 -15 -74 -15q-101 0 -101 79z" />
<glyph unicode="&#x174;" horiz-adv-x="800" d="M404 496h-8q-43 -232 -102 -468q-4 -18 -13.5 -23t-32.5 -5h-57q-23 0 -32.5 5.5t-13.5 22.5q-73 289 -121 551q-9 49 -9 55q0 13 19 13h52q15 0 20.5 -3.5t8.5 -17.5q52 -311 103 -528h8q44 178 105 487q4 17 12.5 22.5t28.5 5.5h56q20 0 28.5 -5.5t12.5 -22.5 q61 -309 105 -487h8q51 217 103 528q3 14 8.5 17.5t20.5 3.5h52q19 0 19 -13q0 -6 -9 -55q-48 -262 -121 -551q-4 -17 -13.5 -22.5t-32.5 -5.5h-57q-23 0 -32.5 5t-13.5 23q-59 236 -102 468zM377 873h46q13 0 21 -9l98 -114q7 -9 7 -13q0 -6 -8 -12l-23 -16q-11 -8 -17 -8 t-14 8l-85 87h-4l-85 -87q-8 -8 -14 -8t-17 8l-23 16q-8 6 -8 12q0 4 7 13l98 114q8 9 21 9z" />
<glyph unicode="&#x175;" horiz-adv-x="671" d="M511 0h-50q-34 0 -43 33q-51 185 -79 334h-6q-24 -127 -79 -334q-9 -33 -44 -33h-49q-32 0 -42 33q-50 171 -99 414q-5 23 -5 31q0 12 21 12h48q20 0 23 -17q35 -205 80 -385h4q37 144 80 349q3 17 11 23t27 6h54q18 0 26 -6t12 -23q39 -193 79 -349h4q45 180 80 385 q3 17 23 17h48q21 0 21 -12q0 -8 -5 -31q-49 -243 -99 -414q-10 -33 -41 -33zM312 723h46q13 0 21 -9l98 -114q7 -9 7 -13q0 -6 -8 -12l-23 -16q-11 -8 -17 -8t-14 8l-85 87h-4l-85 -87q-8 -8 -14 -8t-17 8l-23 16q-8 6 -8 12q0 4 7 13l98 114q8 9 21 9z" />
<glyph unicode="&#x176;" horiz-adv-x="478" d="M236 295h6q79 161 126 335q5 17 26 17h48q21 0 21 -12q0 -7 -7 -30q-66 -214 -168 -395v-190q0 -12 -4.5 -16t-17.5 -4h-54q-13 0 -17.5 4t-4.5 16v190q-100 176 -168 395q-7 23 -7 30q0 12 21 12h48q21 0 26 -17q44 -167 126 -335zM216 873h46q13 0 21 -9l98 -114 q7 -9 7 -13q0 -6 -8 -12l-23 -16q-11 -8 -17 -8t-14 8l-85 87h-4l-85 -87q-8 -8 -14 -8t-17 8l-23 16q-8 6 -8 12q0 4 7 13l98 114q8 9 21 9z" />
<glyph unicode="&#x177;" horiz-adv-x="439" d="M127 -156q0 5 12 29q33 67 58 129q-45 9 -69 72q-57 149 -104 360q-7 35 -7 44q0 12 16 12h57q17 0 20 -15q42 -211 85 -337q10 -30 16 -40.5t14 -10.5h4q66 195 102 388q3 15 20 15h59q14 0 14 -10q0 -6 -7 -37q-37 -160 -81.5 -297.5t-124.5 -319.5q-7 -15 -14 -15 q-8 0 -27 8l-27 11q-16 6 -16 14zM200 723h46q13 0 21 -9l98 -114q7 -9 7 -13q0 -6 -8 -12l-23 -16q-11 -8 -17 -8t-14 8l-85 87h-4l-85 -87q-8 -8 -14 -8t-17 8l-23 16q-8 6 -8 12q0 4 7 13l98 114q8 9 21 9z" />
<glyph unicode="&#x178;" horiz-adv-x="478" d="M236 295h6q79 161 126 335q5 17 26 17h48q21 0 21 -12q0 -7 -7 -30q-66 -214 -168 -395v-190q0 -12 -4.5 -16t-17.5 -4h-54q-13 0 -17.5 4t-4.5 16v190q-100 176 -168 395q-7 23 -7 30q0 12 21 12h48q21 0 26 -17q44 -167 126 -335zM211 787v-16q0 -48 -49 -48h-10 q-48 0 -48 48v16q0 48 48 48h10q49 0 49 -48zM374 787v-16q0 -48 -49 -48h-10q-48 0 -48 48v16q0 48 48 48h10q49 0 49 -48z" />
<glyph unicode="&#x179;" horiz-adv-x="497" d="M33 24v21q0 13 18 43l297 479h-278q-20 0 -20 19v42q0 11 4 15t16 4h365q23 0 23 -21v-26q0 -22 -22 -57l-291 -463h285q12 0 16 -4t4 -14v-44q0 -10 -4 -14t-16 -4h-370q-27 0 -27 24zM184 762l168 85q9 5 15 5q8 -2 13 -12l19 -36q8 -18 8 -22q-1 -9 -16 -15l-170 -67 q-11 -4 -18 -4t-13 13l-13 26q-6 11 -6 15q1 7 13 12z" />
<glyph unicode="&#x17a;" horiz-adv-x="406" d="M376 60v-43q0 -17 -17 -17h-310q-22 0 -22 18v20q0 18 20 49l209 325h-201q-17 0 -17 17v43q0 10 3 14t14 4h302q16 0 16 -16v-20q0 -18 -26 -58l-207 -318h219q17 0 17 -18zM138 618l162 95q9 5 15 5q8 0 14 -11l21 -35q9 -15 9 -21q0 -9 -15 -16l-166 -77 q-12 -5 -17 -5q-7 0 -14 12l-15 25q-6 10 -6 15q0 6 12 13z" />
<glyph unicode="&#x17b;" horiz-adv-x="497" d="M33 24v21q0 13 18 43l297 479h-278q-20 0 -20 19v42q0 11 4 15t16 4h365q23 0 23 -21v-26q0 -22 -22 -57l-291 -463h285q12 0 16 -4t4 -14v-44q0 -10 -4 -14t-16 -4h-370q-27 0 -27 24zM257 717q-26 0 -44.5 19t-18.5 45t18.5 45t44.5 19t44.5 -19t18.5 -45t-18.5 -45 t-44.5 -19z" />
<glyph unicode="&#x17c;" horiz-adv-x="406" d="M376 60v-43q0 -17 -17 -17h-310q-22 0 -22 18v20q0 18 20 49l209 325h-201q-17 0 -17 17v43q0 10 3 14t14 4h302q16 0 16 -16v-20q0 -18 -26 -58l-207 -318h219q17 0 17 -18zM213 565q-26 0 -44.5 19t-18.5 45t18.5 45t44.5 19t44.5 -19t18.5 -45t-18.5 -45t-44.5 -19z " />
<glyph unicode="&#x17d;" horiz-adv-x="497" d="M33 24v21q0 13 18 43l297 479h-278q-20 0 -20 19v42q0 11 4 15t16 4h365q23 0 23 -21v-26q0 -22 -22 -57l-291 -463h285q12 0 16 -4t4 -14v-44q0 -10 -4 -14t-16 -4h-370q-27 0 -27 24zM287 705h-46q-13 0 -21 9l-98 114q-7 9 -7 13q0 6 8 12l23 16q11 8 17 8t14 -8 l85 -87h4l85 87q8 8 14 8t17 -8l23 -16q8 -6 8 -12q0 -4 -7 -13l-98 -114q-8 -9 -21 -9z" />
<glyph unicode="&#x17e;" horiz-adv-x="406" d="M376 60v-43q0 -17 -17 -17h-310q-22 0 -22 18v20q0 18 20 49l209 325h-201q-17 0 -17 17v43q0 10 3 14t14 4h302q16 0 16 -16v-20q0 -18 -26 -58l-207 -318h219q17 0 17 -18zM237 553h-46q-13 0 -21 9l-98 114q-7 9 -7 13q0 6 8 12l23 16q11 8 17 8t14 -8l85 -87h4l85 87 q8 8 14 8t17 -8l23 -16q8 -6 8 -12q0 -4 -7 -13l-98 -114q-8 -9 -21 -9z" />
<glyph unicode="&#x17f;" horiz-adv-x="277" d="M260 609q-37 0 -56 -15q-23 -18 -23 -76v-500q0 -10 -4.5 -14t-15.5 -4h-52q-20 0 -20 18v393h-57q-16 0 -16 16v32q0 15 15 17l58 11v35q0 83 35 121q40 43 126 43q53 0 89 -10q12 -3 12 -12t-5 -37l-2 -12q-1 -13 -10 -13q-3 0 -18 3q-24 4 -56 4z" />
<glyph unicode="&#x192;" d="M302 298l-22 -319q-12 -168 -155 -168q-56 0 -97 13q-12 4 -12 13q0 6 5 25l5 21q5 18 25 12q34 -9 61 -9q72 0 78 94l22 318h-64q-12 0 -12 8q0 11 1 21l1 18q1 10 5 14.5t16 6.5l58 8l9 132q7 97 47.5 138.5t124.5 41.5q43 0 82 -13q14 -4 14 -13q0 -6 -6 -28l-6 -19 q-4 -14 -13 -14q-3 0 -9 2q-31 9 -58 9q-47 0 -64 -24.5t-22 -96.5l-8 -113h112q19 0 19 -14q0 -6 -2 -30l-2 -17q-1 -10 -5.5 -13.5t-18.5 -3.5h-109z" />
<glyph unicode="&#x1cd;" horiz-adv-x="548" d="M253 647h42q25 0 35.5 -6t17.5 -26q93 -262 178 -572q7 -23 7 -31q0 -12 -20 -12h-48q-18 0 -24 3.5t-10 17.5q-19 78 -41 154h-232q-22 -76 -41 -154q-4 -14 -10 -17.5t-24 -3.5h-48q-20 0 -20 12q0 8 7 31q85 310 178 572q7 20 17.5 26t35.5 6zM277 550h-6 q-34 -99 -90 -292h186q-56 193 -90 292zM297 705h-46q-13 0 -21 9l-98 114q-7 9 -7 13q0 6 8 12l23 16q11 8 17 8t14 -8l85 -87h4l85 87q8 8 14 8t17 -8l23 -16q8 -6 8 -12q0 -4 -7 -13l-98 -114q-8 -9 -21 -9z" />
<glyph unicode="&#x1ce;" horiz-adv-x="476" d="M343 14l-4 29h-2q-25 -52 -120 -52h-31q-148 0 -148 144v16q0 82 48 118q40 32 154 32h24q34 0 61 -3v42q0 47 -23 64.5t-76 17.5q-50 0 -109 -15q-16 -4 -21 -4q-10 0 -13 14l-4 19q-4 20 -4 26q0 11 14 15q68 22 145 22q97 0 140 -38t43 -132v-315q0 -14 -16 -14h-39 q-16 0 -19 14zM325 151v72q-24 3 -54 3h-44q-53 0 -74.5 -16t-21.5 -60v-14q0 -38 16 -54t54 -16h33q46 0 68.5 20.5t22.5 64.5zM268 553h-46q-13 0 -21 9l-98 114q-7 9 -7 13q0 6 8 12l23 16q11 8 17 8t14 -8l85 -87h4l85 87q8 8 14 8t17 -8l23 -16q8 -6 8 -12q0 -4 -7 -13 l-98 -114q-8 -9 -21 -9z" />
<glyph unicode="&#x1fa;" horiz-adv-x="548" d="M253 647h42q25 0 35.5 -6t17.5 -26q93 -262 178 -572q7 -23 7 -31q0 -12 -20 -12h-48q-18 0 -24 3.5t-10 17.5q-19 78 -41 154h-232q-22 -76 -41 -154q-4 -14 -10 -17.5t-24 -3.5h-48q-20 0 -20 12q0 8 7 31q85 310 178 572q7 20 17.5 26t35.5 6zM277 550h-6 q-34 -99 -90 -292h186q-56 193 -90 292zM274 873q40 0 67 -26.5t27 -67.5t-27 -67.5t-67 -26.5t-67 26.5t-27 67.5t27 67.5t67 26.5zM274 740q17 0 27.5 11t10.5 28t-10.5 28t-27.5 11t-27.5 -11t-10.5 -28t10.5 -28t27.5 -11zM186 961l162 95q9 5 15 5q8 0 14 -11l21 -35 q9 -15 9 -21q0 -8 -15 -16l-166 -77q-12 -5 -17 -5q-7 0 -14 12l-15 25q-6 11 -6 15q0 6 12 13z" />
<glyph unicode="&#x1fb;" horiz-adv-x="476" d="M343 14l-4 29h-2q-25 -52 -120 -52h-31q-148 0 -148 144v16q0 82 48 118q40 32 154 32h24q34 0 61 -3v42q0 47 -23 64.5t-76 17.5q-50 0 -109 -15q-16 -4 -21 -4q-10 0 -13 14l-4 19q-4 20 -4 26q0 11 14 15q68 22 145 22q97 0 140 -38t43 -132v-315q0 -14 -16 -14h-39 q-16 0 -19 14zM325 151v72q-24 3 -54 3h-44q-53 0 -74.5 -16t-21.5 -60v-14q0 -38 16 -54t54 -16h33q46 0 68.5 20.5t22.5 64.5zM239 722q40 0 67 -26.5t27 -67.5t-27 -67.5t-67 -26.5t-67 26.5t-27 67.5t27 67.5t67 26.5zM239 589q17 0 27.5 11t10.5 28t-10.5 28t-27.5 11 t-27.5 -11t-10.5 -28t10.5 -28t27.5 -11zM147 808l168 85q9 5 15 5q8 -2 13 -12l19 -36q8 -18 8 -22q-1 -9 -16 -15l-170 -67q-11 -4 -18 -4t-13 13l-13 26q-6 10 -6 15q1 7 13 12z" />
<glyph unicode="&#x1fc;" horiz-adv-x="818" d="M385 568q-21 -40 -152 -310h159v310h-7zM391 647h366q11 0 15 -3.5t4 -13.5v-45q0 -10 -4 -13.5t-15 -3.5h-269v-195h231q11 0 15 -3.5t4 -13.5v-45q0 -10 -4 -13.5t-15 -3.5h-231v-175q0 -23 9.5 -31.5t33.5 -8.5h226q11 0 15 -3.5t4 -13.5v-45q0 -10 -4 -13.5t-15 -3.5 h-235q-69 0 -99.5 24.5t-30.5 84.5v66h-200l-73 -154q-10 -21 -42 -21h-38q-26 0 -26 11q0 6 10 26q197 397 292 570q13 23 29 31.5t47 8.5zM474 762l168 85q9 5 15 5q8 -2 13 -12l19 -36q8 -18 8 -22q-1 -9 -16 -15l-170 -67q-11 -4 -18 -4t-13 13l-13 26q-6 11 -6 15 q1 7 13 12z" />
<glyph unicode="&#x1fd;" horiz-adv-x="748" d="M705 300v-73q0 -29 -28 -29h-258q2 -74 26.5 -102.5t95.5 -28.5q58 0 106 19q12 4 16 4q8 0 12 -11l7 -24q5 -17 5 -21q0 -9 -12 -15q-61 -28 -145 -28q-128 0 -158 69q-18 -36 -53 -52.5t-102 -16.5h-31q-148 0 -148 144v16q0 82 48 118q40 32 154 32h24q34 0 61 -3v42 q0 47 -23 64.5t-76 17.5q-51 0 -95 -11q-32 -8 -34 -8q-11 0 -14 14l-4 19q-4 20 -4 26q0 11 14 15q68 22 145 22q109 0 146 -57q42 57 142 57q92 0 137.5 -47t45.5 -152zM325 151v64v8q-24 3 -54 3h-44q-53 0 -74.5 -16t-21.5 -60v-14q0 -38 16 -54t54 -16h33q91 0 91 85z M418 273h181q13 0 13 14q0 76 -18 106t-74 30t-79 -33.5t-23 -116.5zM331 618l162 95q9 5 15 5q8 0 14 -11l21 -35q9 -15 9 -21q0 -9 -15 -16l-166 -77q-12 -5 -17 -5q-7 0 -14 12l-15 25q-6 10 -6 15q0 6 12 13z" />
<glyph unicode="&#x1fe;" horiz-adv-x="600" d="M549 346v-46q0 -101 -13 -154.5t-49 -92.5q-57 -62 -187 -62q-72 0 -130 23l-32 -59q-8 -12 -14 -12t-19 7l-19 10q-13 7 -13 14t13 29l27 49v1q-36 39 -49 92.5t-13 154.5v46q0 101 13 155t49 93q57 62 187 62q78 0 133 -25l35 63q6 12 14 12q6 0 19 -7l19 -10 q13 -7 13 -14t-13 -29l-31 -55q34 -39 47 -93t13 -152zM152 312q0 -122 15 -163l223 404q-34 23 -90 23q-76 0 -112 -42q-23 -26 -29.5 -70t-6.5 -129v-23zM448 312v23q0 117 -13 157l-222 -401q30 -20 87 -20q76 0 112 42q23 26 29.5 70t6.5 129zM218 762l168 85q9 5 15 5 q8 -2 13 -12l19 -36q8 -18 8 -22q-1 -9 -16 -15l-170 -67q-11 -4 -18 -4t-13 13l-13 26q-6 11 -6 15q1 7 13 12z" />
<glyph unicode="&#x1ff;" horiz-adv-x="488" d="M164 618l162 95q9 5 15 5q8 0 14 -11l21 -35q9 -15 9 -21q0 -9 -15 -16l-166 -77q-12 -5 -17 -5q-7 0 -14 12l-15 25q-6 10 -6 15q0 6 12 13zM446 262v-34q0 -136 -50 -186q-51 -51 -152 -51q-53 0 -93 14l-27 -50q-7 -14 -15 -14q-3 0 -15 6l-18 10q-10 5 -10 11 q0 4 13 29l20 38l-7 7q-50 50 -50 186v34q0 136 50 186q51 51 152 51q54 0 94 -15l30 55q7 14 15 14q3 0 15 -6l18 -10q10 -5 10 -11q0 -4 -13 -29l-23 -43l6 -6q50 -50 50 -186zM136 235q0 -78 11 -111l154 290q-24 11 -57 11q-71 0 -92 -47q-16 -35 -16 -123v-20zM352 255 q0 72 -11 108l-153 -288q21 -10 56 -10q71 0 92 47q16 35 16 123v20z" />
<glyph unicode="&#x218;" horiz-adv-x="487" d="M229 -9q-96 0 -174 29q-15 6 -15 17q0 9 3 21l8 31q3 12 13 12q5 0 16 -4q77 -27 155 -27q68 0 93.5 23t25.5 81v10q0 50 -18 69t-78 33l-68 16q-80 19 -114 56t-34 111v16q0 171 205 171q89 0 152 -21q17 -6 17 -15q0 -5 -7 -31l-6 -22q-3 -14 -14 -14q-5 0 -13 3 q-66 21 -126 21q-61 0 -87.5 -22t-26.5 -72v-10q0 -44 20.5 -61.5t73.5 -29.5l68 -16q82 -19 115 -55t33 -119v-12q0 -103 -50.5 -146t-166.5 -43zM236 -66h21q41 0 41 -44v-18q0 -75 -66 -138q-6 -6 -12 -6q-5 0 -10 4l-17 15q-6 5 -6 10q0 4 4 8q28 30 37 52q2 4 2 7 q0 6 -7 9q-15 8 -21 16.5t-6 26.5v19q0 39 40 39z" />
<glyph unicode="&#x219;" horiz-adv-x="417" d="M198 -9q-78 0 -146 25q-14 5 -14 14q0 6 6 30l5 18q4 14 13 14q3 0 7.5 -1.5t12.5 -4.5t16 -5q45 -14 102 -14q48 0 69.5 16.5t21.5 52.5v5q0 33 -16 47.5t-55 22.5l-47 10q-76 16 -101.5 44t-25.5 91v7q0 70 41 103t127 33q71 0 127 -17q12 -4 12 -13q0 -1 -6 -29 l-5 -19q-4 -14 -12 -14q-6 0 -20 4q-40 11 -90 11t-69 -13.5t-19 -45.5v-5q0 -26 15.5 -39t59.5 -23l46 -10q68 -14 96 -45.5t28 -95.5v-8q0 -71 -45.5 -108.5t-133.5 -37.5zM202 -66h21q41 0 41 -44v-18q0 -75 -66 -138q-6 -6 -12 -6q-5 0 -10 4l-17 15q-6 5 -6 10q0 4 4 8 q28 30 37 52q2 4 2 7q0 6 -7 9q-15 8 -21 16.5t-6 26.5v19q0 39 40 39z" />
<glyph unicode="&#x21a;" horiz-adv-x="480" d="M444 567h-155v-547q0 -12 -4.5 -16t-16.5 -4h-56q-12 0 -16.5 4t-4.5 16v547h-155q-12 0 -16 4.5t-4 15.5v41q0 19 20 19h408q20 0 20 -19v-41q0 -11 -4 -15.5t-16 -4.5zM233 -66h21q41 0 41 -44v-18q0 -75 -66 -138q-6 -6 -12 -6q-5 0 -10 4l-17 15q-6 5 -6 10q0 4 4 8 q28 30 37 52q2 4 2 7q0 6 -7 9q-15 8 -21 16.5t-6 26.5v19q0 39 40 39z" />
<glyph unicode="&#x21b;" horiz-adv-x="338" d="M296 0h-60q-87 0 -120 36q-30 34 -30 122v253h-60q-15 0 -15 15v32q0 9 2.5 12t10.5 5l62 12v109q0 19 20 19h53q19 0 19 -19v-106h108q16 0 16 -18v-43q0 -18 -16 -18h-108v-246q0 -50 12 -68q13 -19 63 -19h43q10 0 14 -3.5t4 -15.5v-41q0 -10 -3.5 -14t-14.5 -4z M197 -66h21q41 0 41 -44v-18q0 -75 -66 -138q-6 -6 -12 -6q-5 0 -10 4l-17 15q-6 5 -6 10q0 4 4 8q28 30 37 52q2 4 2 7q0 6 -7 9q-15 8 -21 16.5t-6 26.5v19q0 39 40 39z" />
<glyph unicode="&#x2c6;" horiz-adv-x="370" d="M162 723h46q13 0 21 -9l98 -114q7 -9 7 -13q0 -6 -8 -12l-23 -16q-11 -8 -17 -8t-14 8l-85 87h-4l-85 -87q-8 -8 -14 -8t-17 8l-23 16q-8 6 -8 12q0 4 7 13l98 114q8 9 21 9z" />
<glyph unicode="&#x2c7;" horiz-adv-x="371" d="M208 553h-46q-13 0 -21 9l-98 114q-7 9 -7 13q0 6 8 12l23 16q11 8 17 8t14 -8l85 -87h4l85 87q8 8 14 8t17 -8l23 -16q8 -6 8 -12q0 -4 -7 -13l-98 -114q-8 -9 -21 -9z" />
<glyph unicode="&#x2d8;" horiz-adv-x="372" d="M186 558q-111 0 -146 102q-5 15 -5 19q0 9 14 13l22 7q17 5 21 5q8 0 12 -12q26 -67 82 -67t82 67q4 12 12 12q4 0 21 -5l22 -7q14 -4 14 -13q0 -4 -5 -19q-35 -102 -146 -102z" />
<glyph unicode="&#x2d9;" horiz-adv-x="286" d="M143 565q-26 0 -44.5 19t-18.5 45t18.5 45t44.5 19t44.5 -19t18.5 -45t-18.5 -45t-44.5 -19z" />
<glyph unicode="&#x2da;" horiz-adv-x="316" d="M158 728q40 0 67 -26.5t27 -67.5t-27 -67.5t-67 -26.5t-67 26.5t-27 67.5t27 67.5t67 26.5zM158 595q17 0 27.5 11t10.5 28t-10.5 28t-27.5 11t-27.5 -11t-10.5 -28t10.5 -28t27.5 -11z" />
<glyph unicode="&#x2db;" horiz-adv-x="317" d="M69 -120q0 68 82 120q9 5 22 5h34q6 0 6.5 -3.5t-2.5 -5.5q-65 -53 -65 -103q0 -33 37 -33q23 0 48 9q9 3 10 3q7 0 8 -9l4 -18q3 -12 3 -17q0 -7 -12 -12q-37 -15 -74 -15q-101 0 -101 79z" />
<glyph unicode="&#x2dc;" horiz-adv-x="386" d="M56 577l-21 12q-8 5 -8 11q0 4 3 10q40 83 106 83q30 0 57 -19l28 -19q22 -15 37 -15q27 0 50 39q4 7 10 7q4 0 12 -5l20 -13q9 -6 9 -12q0 -4 -3 -10q-44 -79 -105 -79q-29 0 -57 18l-27 19q-22 15 -36 15q-24 0 -48 -40q-5 -9 -11 -9q-5 0 -16 7z" />
<glyph unicode="&#x2dd;" horiz-adv-x="427" d="M38 611l140 119q7 6 14 6q8 0 16 -9l29 -38q6 -7 6 -15q-2 -9 -12 -15l-145 -102q-8 -5 -15 -5q-9 0 -19 13l-12 15q-9 12 -9 18t7 13zM248 611l140 119q7 6 14 6q8 0 16 -9l29 -38q6 -7 6 -15q-2 -9 -12 -15l-145 -102q-8 -5 -15 -5q-9 0 -19 13l-12 15q-9 12 -9 18 t7 13z" />
<glyph unicode="&#x394;" horiz-adv-x="602" d="M150 86h302q-84 262 -149 440h-5q-34 -94 -148 -440zM536 0h-470q-26 0 -26 23v35q0 19 18 71q118 336 181 496q8 22 30 22h64q22 0 30 -22q63 -160 181 -496q18 -52 18 -71v-35q0 -23 -26 -23z" />
<glyph unicode="&#x3a9;" horiz-adv-x="636" d="M318 576q-76 0 -113 -44q-40 -48 -40 -178v-27q0 -83 25 -140t78 -100q16 -15 16 -26v-45q0 -16 -16 -16h-205q-10 0 -13.5 3.5t-3.5 13.5v45q0 17 17 17h102v3q-101 81 -101 236v47q0 152 66 225q61 66 188 66t188 -66q66 -73 66 -225v-47q0 -155 -101 -236v-3h102 q17 0 17 -17v-45q0 -10 -3.5 -13.5t-13.5 -3.5h-205q-16 0 -16 16v45q0 11 16 26q53 43 78 100t25 140v27q0 130 -40 178q-37 44 -113 44z" />
<glyph unicode="&#x3bc;" horiz-adv-x="554" d="M156 17v-177q0 -10 -4.5 -14t-15.5 -4h-52q-20 0 -20 18v632q0 18 20 18h52q11 0 15.5 -4t4.5 -14v-301q0 -59 20.5 -80.5t76.5 -21.5q53 0 78 25t25 81v297q0 18 20 18h52q11 0 15.5 -4t4.5 -15v-354q0 -28 6.5 -38t24.5 -10q9 0 23 2.5t18 2.5q8 0 9 -11l3 -20 q4 -21 4 -28q0 -10 -16 -15q-25 -9 -61 -9q-73 0 -89 53h-2q-36 -53 -120 -53q-60 0 -92 26z" />
<glyph unicode="&#x3c0;" horiz-adv-x="588" d="M541 408h-83v-281q0 -35 7 -47t29 -12q20 0 36 4q8 2 11 2q8 0 9 -10l4 -20q5 -25 5 -29q0 -7 -11 -11q-33 -13 -79 -13q-59 0 -82.5 27.5t-23.5 94.5v295h-149v-387q0 -12 -5 -16.5t-18 -4.5h-50q-13 0 -18 4.5t-5 16.5v387h-71q-11 0 -15 4t-4 15v44q0 11 4 15t15 4 h494q11 0 15 -4t4 -15v-44q0 -11 -4 -15t-15 -4z" />
<glyph unicode="&#x1e80;" horiz-adv-x="800" d="M404 496h-8q-43 -232 -102 -468q-4 -18 -13.5 -23t-32.5 -5h-57q-23 0 -32.5 5.5t-13.5 22.5q-73 289 -121 551q-9 49 -9 55q0 13 19 13h52q15 0 20.5 -3.5t8.5 -17.5q52 -311 103 -528h8q44 178 105 487q4 17 12.5 22.5t28.5 5.5h56q20 0 28.5 -5.5t12.5 -22.5 q61 -309 105 -487h8q51 217 103 528q3 14 8.5 17.5t20.5 3.5h52q19 0 19 -13q0 -6 -9 -55q-48 -262 -121 -551q-4 -17 -13.5 -22.5t-32.5 -5.5h-57q-23 0 -32.5 5t-13.5 23q-59 236 -102 468zM318 847l168 -85q12 -5 13 -12q0 -4 -6 -15l-13 -26q-6 -13 -13 -13t-18 4 l-170 67q-15 6 -16 15q0 4 8 22l19 36q5 10 13 12q6 0 15 -5z" />
<glyph unicode="&#x1e81;" horiz-adv-x="671" d="M511 0h-50q-34 0 -43 33q-51 185 -79 334h-6q-24 -127 -79 -334q-9 -33 -44 -33h-49q-32 0 -42 33q-50 171 -99 414q-5 23 -5 31q0 12 21 12h48q20 0 23 -17q35 -205 80 -385h4q37 144 80 349q3 17 11 23t27 6h54q18 0 26 -6t12 -23q39 -193 79 -349h4q45 180 80 385 q3 17 23 17h48q21 0 21 -12q0 -8 -5 -31q-49 -243 -99 -414q-10 -33 -41 -33zM258 713l162 -95q12 -7 12 -13q0 -5 -6 -15l-15 -25q-7 -12 -14 -12q-5 0 -17 5l-166 77q-15 7 -15 16q0 6 9 21l21 35q6 11 14 11q6 0 15 -5z" />
<glyph unicode="&#x1e82;" horiz-adv-x="800" d="M404 496h-8q-43 -232 -102 -468q-4 -18 -13.5 -23t-32.5 -5h-57q-23 0 -32.5 5.5t-13.5 22.5q-73 289 -121 551q-9 49 -9 55q0 13 19 13h52q15 0 20.5 -3.5t8.5 -17.5q52 -311 103 -528h8q44 178 105 487q4 17 12.5 22.5t28.5 5.5h56q20 0 28.5 -5.5t12.5 -22.5 q61 -309 105 -487h8q51 217 103 528q3 14 8.5 17.5t20.5 3.5h52q19 0 19 -13q0 -6 -9 -55q-48 -262 -121 -551q-4 -17 -13.5 -22.5t-32.5 -5.5h-57q-23 0 -32.5 5t-13.5 23q-59 236 -102 468zM314 762l168 85q9 5 15 5q8 -2 13 -12l19 -36q8 -18 8 -22q-1 -9 -16 -15 l-170 -67q-11 -4 -18 -4t-13 13l-13 26q-6 11 -6 15q1 7 13 12z" />
<glyph unicode="&#x1e83;" horiz-adv-x="671" d="M511 0h-50q-34 0 -43 33q-51 185 -79 334h-6q-24 -127 -79 -334q-9 -33 -44 -33h-49q-32 0 -42 33q-50 171 -99 414q-5 23 -5 31q0 12 21 12h48q20 0 23 -17q35 -205 80 -385h4q37 144 80 349q3 17 11 23t27 6h54q18 0 26 -6t12 -23q39 -193 79 -349h4q45 180 80 385 q3 17 23 17h48q21 0 21 -12q0 -8 -5 -31q-49 -243 -99 -414q-10 -33 -41 -33zM255 618l162 95q9 5 15 5q8 0 14 -11l21 -35q9 -15 9 -21q0 -9 -15 -16l-166 -77q-12 -5 -17 -5q-7 0 -14 12l-15 25q-6 10 -6 15q0 6 12 13z" />
<glyph unicode="&#x1e84;" horiz-adv-x="800" d="M404 496h-8q-43 -232 -102 -468q-4 -18 -13.5 -23t-32.5 -5h-57q-23 0 -32.5 5.5t-13.5 22.5q-73 289 -121 551q-9 49 -9 55q0 13 19 13h52q15 0 20.5 -3.5t8.5 -17.5q52 -311 103 -528h8q44 178 105 487q4 17 12.5 22.5t28.5 5.5h56q20 0 28.5 -5.5t12.5 -22.5 q61 -309 105 -487h8q51 217 103 528q3 14 8.5 17.5t20.5 3.5h52q19 0 19 -13q0 -6 -9 -55q-48 -262 -121 -551q-4 -17 -13.5 -22.5t-32.5 -5.5h-57q-23 0 -32.5 5t-13.5 23q-59 236 -102 468zM373 787v-16q0 -48 -49 -48h-10q-48 0 -48 48v16q0 48 48 48h10q49 0 49 -48z M536 787v-16q0 -48 -49 -48h-10q-48 0 -48 48v16q0 48 48 48h10q49 0 49 -48z" />
<glyph unicode="&#x1e85;" horiz-adv-x="671" d="M511 0h-50q-34 0 -43 33q-51 185 -79 334h-6q-24 -127 -79 -334q-9 -33 -44 -33h-49q-32 0 -42 33q-50 171 -99 414q-5 23 -5 31q0 12 21 12h48q20 0 23 -17q35 -205 80 -385h4q37 144 80 349q3 17 11 23t27 6h54q18 0 26 -6t12 -23q39 -193 79 -349h4q45 180 80 385 q3 17 23 17h48q21 0 21 -12q0 -8 -5 -31q-49 -243 -99 -414q-10 -33 -41 -33zM308 644v-16q0 -48 -49 -48h-10q-48 0 -48 48v16q0 48 48 48h10q49 0 49 -48zM471 644v-16q0 -48 -49 -48h-10q-48 0 -48 48v16q0 48 48 48h10q49 0 49 -48z" />
<glyph unicode="&#x1ef2;" horiz-adv-x="478" d="M236 295h6q79 161 126 335q5 17 26 17h48q21 0 21 -12q0 -7 -7 -30q-66 -214 -168 -395v-190q0 -12 -4.5 -16t-17.5 -4h-54q-13 0 -17.5 4t-4.5 16v190q-100 176 -168 395q-7 23 -7 30q0 12 21 12h48q21 0 26 -17q44 -167 126 -335zM159 847l168 -85q12 -5 13 -12 q0 -4 -6 -15l-13 -26q-6 -13 -13 -13t-18 4l-170 67q-15 6 -16 15q0 4 8 22l19 36q5 10 13 12q6 0 15 -5z" />
<glyph unicode="&#x1ef3;" horiz-adv-x="439" d="M127 -156q0 5 12 29q33 67 58 129q-45 9 -69 72q-57 149 -104 360q-7 35 -7 44q0 12 16 12h57q17 0 20 -15q42 -211 85 -337q10 -30 16 -40.5t14 -10.5h4q66 195 102 388q3 15 20 15h59q14 0 14 -10q0 -6 -7 -37q-37 -160 -81.5 -297.5t-124.5 -319.5q-7 -15 -14 -15 q-8 0 -27 8l-27 11q-16 6 -16 14zM140 713l162 -95q12 -7 12 -13q0 -5 -6 -15l-15 -25q-7 -12 -14 -12q-5 0 -17 5l-166 77q-15 7 -15 16q0 6 9 21l21 35q6 11 14 11q6 0 15 -5z" />
<glyph unicode="&#x2013;" horiz-adv-x="500" d="M477 216h-454q-23 0 -23 20v45q0 13 5 17.5t18 4.5h454q13 0 18 -4.5t5 -17.5v-45q0 -20 -23 -20z" />
<glyph unicode="&#x2014;" horiz-adv-x="1000" d="M977 216h-954q-23 0 -23 20v45q0 13 5 17.5t18 4.5h954q13 0 18 -4.5t5 -17.5v-45q0 -20 -23 -20z" />
<glyph unicode="&#x2018;" horiz-adv-x="221" d="M118 444h-15q-30 0 -44 14.5t-14 47.5v9q0 42 20 93q24 58 56 92q6 8 12 8q7 0 16 -6l21 -13q9 -6 9 -12q0 -4 -5 -11q-34 -44 -43 -76q-4 -15 6 -21l15 -8q20 -11 20 -45v-24q0 -48 -54 -48z" />
<glyph unicode="&#x2019;" horiz-adv-x="221" d="M103 708h15q30 0 44 -14.5t14 -47.5v-9q0 -42 -20 -93q-24 -58 -56 -92q-6 -8 -12 -8q-7 0 -16 6l-21 13q-9 6 -9 12q0 4 5 11q34 44 43 76q4 15 -6 21l-15 8q-20 11 -20 45v24q0 48 54 48z" />
<glyph unicode="&#x201a;" horiz-adv-x="221" d="M103 112h15q30 0 44 -14.5t14 -47.5v-9q0 -42 -20 -93q-24 -58 -56 -92q-6 -8 -12 -8q-7 0 -16 6l-21 13q-9 6 -9 12q0 4 5 11q34 44 43 76q4 15 -6 21l-15 8q-20 11 -20 45v24q0 48 54 48z" />
<glyph unicode="&#x201c;" horiz-adv-x="407" d="M304 444h-15q-30 0 -44 14.5t-14 47.5v9q0 42 20 93q24 58 56 92q6 8 12 8q7 0 16 -6l21 -13q9 -6 9 -12q0 -4 -5 -11q-34 -44 -43 -76q-4 -15 6 -21l15 -8q20 -11 20 -45v-24q0 -48 -54 -48zM118 444h-15q-30 0 -44 14.5t-14 47.5v9q0 42 20 93q24 58 56 92q6 8 12 8 q7 0 16 -6l21 -13q9 -6 9 -12q0 -4 -5 -11q-34 -44 -43 -76q-4 -15 6 -21l15 -8q20 -11 20 -45v-24q0 -48 -54 -48z" />
<glyph unicode="&#x201d;" horiz-adv-x="407" d="M289 708h15q30 0 44 -14.5t14 -47.5v-9q0 -42 -20 -93q-24 -58 -56 -92q-6 -8 -12 -8q-7 0 -16 6l-21 13q-9 6 -9 12q0 4 5 11q34 44 43 76q4 15 -6 21l-15 8q-20 11 -20 45v24q0 48 54 48zM103 708h15q30 0 44 -14.5t14 -47.5v-9q0 -42 -20 -93q-24 -58 -56 -92 q-6 -8 -12 -8q-7 0 -16 6l-21 13q-9 6 -9 12q0 4 5 11q34 44 43 76q4 15 -6 21l-15 8q-20 11 -20 45v24q0 48 54 48z" />
<glyph unicode="&#x201e;" horiz-adv-x="407" d="M289 112h15q30 0 44 -14.5t14 -47.5v-9q0 -42 -20 -93q-24 -58 -56 -92q-6 -8 -12 -8q-7 0 -16 6l-21 13q-9 6 -9 12q0 4 5 11q34 44 43 76q4 15 -6 21l-15 8q-20 11 -20 45v24q0 48 54 48zM103 112h15q30 0 44 -14.5t14 -47.5v-9q0 -42 -20 -93q-24 -58 -56 -92 q-6 -8 -12 -8q-7 0 -16 6l-21 13q-9 6 -9 12q0 4 5 11q34 44 43 76q4 15 -6 21l-15 8q-20 11 -20 45v24q0 48 54 48z" />
<glyph unicode="&#x2020;" horiz-adv-x="400" d="M248 480l101 2q16 0 19.5 -5t3.5 -21v-35q0 -9 -0.5 -12.5t-2.5 -7.5t-6.5 -5t-13.5 -1l-102 2l-4 -375q0 -22 -24 -22h-40q-13 0 -17.5 5t-4.5 17l-5 375l-101 -2q-16 0 -19.5 4.5t-3.5 21.5v35q0 11 1 15.5t6 7.5t16 3l100 -2l-2 160q0 13 5.5 17.5t21.5 4.5h47 q17 0 22 -5t5 -17z" />
<glyph unicode="&#x2021;" horiz-adv-x="400" d="M248 480l101 2q16 0 19.5 -5t3.5 -21v-35q0 -9 -0.5 -12.5t-2.5 -7.5t-6.5 -5t-13.5 -1l-102 2l-1 -90l92 3q16 1 19.5 -4.5t3.5 -21.5v-37q0 -16 -4 -20.5t-19 -4.5l-93 2l-2 -202q0 -22 -24 -22h-40q-13 0 -17.5 5t-4.5 17l-3 202l-93 -2q-16 0 -19.5 5t-3.5 21v36 q0 11 1 15.5t6 7.5t16 3l92 -2l-1 89l-101 -2q-16 0 -19.5 4.5t-3.5 21.5v35q0 11 1 15.5t6 7.5t16 3l100 -2l-2 160q0 13 5.5 17.5t21.5 4.5h47q17 0 22 -5t5 -17z" />
<glyph unicode="&#x2022;" horiz-adv-x="339" d="M50 261q0 50 34.5 85t84.5 35t85 -35t35 -85t-35 -85t-85 -35t-84.5 35t-34.5 85z" />
<glyph unicode="&#x2026;" horiz-adv-x="621" d="M162 60v-16q0 -53 -53 -53h-11q-24 0 -38.5 13.5t-14.5 39.5v16q0 26 14.5 39.5t38.5 13.5h11q53 0 53 -53zM369 60v-16q0 -53 -53 -53h-11q-24 0 -38.5 13.5t-14.5 39.5v16q0 26 14.5 39.5t38.5 13.5h11q53 0 53 -53zM576 60v-16q0 -53 -53 -53h-11q-24 0 -38.5 13.5 t-14.5 39.5v16q0 26 14.5 39.5t38.5 13.5h11q53 0 53 -53z" />
<glyph unicode="&#x2030;" horiz-adv-x="1144" d="M197 656q61 0 95 -32q42 -42 42 -144v-10q0 -102 -42 -143q-33 -33 -95 -33t-95 33q-42 41 -42 143v10q0 102 42 144q34 32 95 32zM197 366q27 0 38 22t11 83v8q0 61 -11 83t-38 22t-38 -22t-11 -83v-8q0 -61 11 -83t38 -22zM627 353q61 0 95 -32q42 -42 42 -144v-10 q0 -102 -42 -143q-33 -33 -95 -33t-95 33q-42 41 -42 143v10q0 102 42 144q34 32 95 32zM627 63q27 0 38 22t11 83v8q0 61 -11 83t-38 22t-38 -22t-11 -83v-8q0 -61 11 -83t38 -22zM628 620l-347 -612q-10 -17 -31 -17h-52q-14 0 -14 10q0 7 11 26l347 612q10 17 31 17h52 q14 0 14 -10q0 -7 -11 -26zM947 353q61 0 95 -32q42 -42 42 -144v-10q0 -102 -42 -143q-33 -33 -95 -33t-95 33q-42 41 -42 143v10q0 102 42 144q34 32 95 32zM947 63q27 0 38 22t11 83v8q0 61 -11 83t-38 22t-38 -22t-11 -83v-8q0 -61 11 -83t38 -22z" />
<glyph unicode="&#x2039;" horiz-adv-x="304" d="M148 232l110 -102q11 -9 11 -18q0 -10 -15 -24l-16 -15q-9 -8 -17 -8q-9 0 -25 13l-145 119q-14 11 -14 31v8q0 20 14 31l145 120q16 13 25 13q8 0 17 -8l16 -15q15 -14 15 -24q0 -9 -11 -18z" />
<glyph unicode="&#x203a;" horiz-adv-x="304" d="M46 130l110 102l-110 103q-11 9 -11 18q0 10 15 24l16 15q9 8 17 8q9 0 25 -13l145 -120q14 -11 14 -31v-8q0 -20 -14 -31l-145 -119q-16 -13 -25 -13q-8 0 -17 8l-16 15q-15 14 -15 24q0 9 11 18z" />
<glyph unicode="&#x2044;" horiz-adv-x="125" d="M-153 42l356 598q9 16 31 16h49q17 0 17 -10q0 -7 -22 -44l-356 -598q-9 -16 -31 -16h-49q-17 0 -17 10q0 7 22 44z" />
<glyph unicode="&#x20ac;" d="M408 205h-197q9 -70 40.5 -102t104.5 -32q65 0 115 18q15 5 19 5q9 0 13 -14l5 -19q6 -25 6 -32t-13 -12q-66 -26 -149 -26q-121 0 -176 50t-67 164h-68q-11 0 -14.5 4t-3.5 15v33q0 11 3.5 15t14.5 4h64v69h-64q-11 0 -14.5 4t-3.5 15v33q0 11 3.5 15t14.5 4h67 q9 125 65 182.5t166 57.5q93 0 169 -42q13 -8 13 -17t-13 -31l-12 -21q-6 -10 -13 -10q-8 0 -19 7q-60 34 -125 34q-63 0 -93.5 -34.5t-36.5 -125.5h199q11 0 14.5 -4t3.5 -15v-33q0 -11 -3.5 -15t-14.5 -4h-202v-69h202q11 0 14.5 -4t3.5 -15v-33q0 -11 -3.5 -15t-14.5 -4z " />
<glyph unicode="&#x2113;" horiz-adv-x="447" d="M204 300q55 37 81 82t26 107q0 84 -52 84q-27 0 -41 -20t-14 -72v-181zM204 208v-61q0 -45 12.5 -61.5t40.5 -16.5q57 0 105 55q6 8 13 8q6 0 13 -8l15 -18q11 -13 11 -19q0 -7 -7 -15q-63 -81 -162 -81q-71 0 -104 36.5t-33 113.5v24q-24 -14 -55 -29q-6 -3 -11 -3 q-7 0 -12 12l-11 25q-7 19 -7 23q0 7 9 12q49 23 87 46v227q0 91 37 132.5t117 41.5q66 0 105.5 -40.5t39.5 -117.5q0 -174 -203 -286z" />
<glyph unicode="&#x2116;" horiz-adv-x="928" d="M857 0h-213q-9 0 -12 3t-3 11v36q0 8 3 11t12 3h213q9 0 12 -3t3 -11v-36q0 -8 -3 -11t-12 -3zM423 27l-259 477h-5v-483q0 -13 -4.5 -17t-16.5 -4h-48q-12 0 -16.5 4t-4.5 17v598q0 17 6 22.5t24 5.5h53q19 0 28.5 -6t18.5 -22l259 -476h5v483q0 12 4.5 16.5t16.5 4.5 h48q12 0 16.5 -4.5t4.5 -16.5v-599q0 -16 -6 -21.5t-24 -5.5h-53q-19 0 -28.5 6t-18.5 21zM693 271v-10q0 -54 12.5 -73t45.5 -19t45 19t12 73v10q0 54 -12.5 73.5t-44.5 19.5q-33 0 -45.5 -20t-12.5 -73zM880 279v-24q0 -78 -30 -111.5t-99 -33.5t-99.5 33.5t-30.5 111.5 v24q0 78 30.5 111t99.5 33t99 -33t30 -111z" />
<glyph unicode="&#x2122;" horiz-adv-x="723" d="M190 590v-231q0 -9 -3 -12t-13 -3h-42q-10 0 -13 3t-3 12v231h-70q-14 0 -14 13v35q0 13 14 13h216q14 0 14 -13v-35q0 -13 -14 -13h-72zM507 376h-42q-14 0 -19.5 3.5t-8.5 14.5q-13 41 -53 187h-3q-5 -95 -8 -223q0 -14 -17 -14h-40q-17 0 -17 14q4 135 15 268 q2 25 26 25h65q15 0 21 -4.5t10 -18.5q27 -108 48 -180h4q39 144 48 180q4 14 10 18.5t21 4.5h65q24 0 26 -25q11 -133 15 -268q0 -14 -17 -14h-40q-17 0 -17 14q-3 128 -8 223h-3q-40 -146 -53 -187q-3 -11 -8.5 -14.5t-19.5 -3.5z" />
<glyph unicode="&#x212e;" horiz-adv-x="820" d="M780 316h-599q-5 0 -5 -5v-182q0 -10 9 -21q42 -45 101.5 -71t125.5 -26q70 0 132 29t105 80h54q-53 -59 -129 -94t-163 -35q-153 0 -262 97t-109 235t109 235.5t262 97.5t261 -97.5t108 -235.5v-7zM644 338v183q0 12 -10 22q-90 93 -222 93q-135 0 -226 -96 q-10 -8 -10 -23v-179q0 -5 5 -5h458q5 0 5 5z" />
<glyph unicode="&#x2190;" horiz-adv-x="608" d="M170 224l103 -103q10 -10 10.5 -16.5t-7.5 -14.5l-25 -25q-15 -15 -30 0l-176 176q-9 9 -9 19t9 19l176 176q15 15 30 0l25 -25q8 -8 7.5 -14.5t-10.5 -16.5l-103 -103h378q11 0 14.5 -4.5t3.5 -15.5v-32q0 -11 -3.5 -15.5t-14.5 -4.5h-378z" />
<glyph unicode="&#x2191;" horiz-adv-x="608" d="M443 288l-103 103v-378q0 -11 -4.5 -14.5t-15.5 -3.5h-32q-11 0 -15.5 3.5t-4.5 14.5v378l-103 -103q-10 -10 -16.5 -10.5t-14.5 7.5l-25 25q-15 15 0 30l176 176q9 9 19 9t19 -9l176 -176q15 -15 0 -30l-25 -25q-8 -8 -14.5 -7.5t-16.5 10.5z" />
<glyph unicode="&#x2192;" horiz-adv-x="608" d="M335 121l103 103h-378q-11 0 -14.5 4.5t-3.5 15.5v32q0 11 3.5 15.5t14.5 4.5h378l-103 103q-10 10 -10.5 16.5t7.5 14.5l25 25q15 15 30 0l176 -176q9 -9 9 -19t-9 -19l-176 -176q-15 -15 -30 0l-25 25q-8 8 -7.5 14.5t10.5 16.5z" />
<glyph unicode="&#x2193;" horiz-adv-x="608" d="M340 129l103 103q10 10 16.5 10.5t14.5 -7.5l25 -25q15 -15 0 -30l-176 -176q-9 -9 -19 -9t-19 9l-176 176q-15 15 0 30l25 25q8 8 14.5 7.5t16.5 -10.5l103 -103v378q0 11 4.5 14.5t15.5 3.5h32q11 0 15.5 -3.5t4.5 -14.5v-378z" />
<glyph unicode="&#x2202;" horiz-adv-x="524" d="M376 381q-2 107 -33 159t-99 52q-48 0 -98 -24q-7 -4 -13 -4q-7 0 -12 12l-11 28q-7 17 -7 21q0 8 12 14q64 31 139 31q107 0 164 -74t57 -253v-23q0 -166 -49.5 -247.5t-170.5 -81.5q-93 0 -150 54.5t-57 156.5v16q0 96 51 150t147 54q77 0 130 -41zM377 293 q-52 50 -126 50q-107 0 -107 -129v-13q0 -62 29 -97.5t86 -35.5q66 0 92 56.5t26 168.5z" />
<glyph unicode="&#x220f;" horiz-adv-x="617" d="M498 566v-641q0 -12 -5 -16.5t-17 -4.5h-54q-12 0 -17 4.5t-5 16.5v641h-181v-641q0 -12 -5 -16.5t-17 -4.5h-54q-12 0 -17 4.5t-5 16.5v641h-79q-11 0 -15 4t-4 15v43q0 11 4 15t15 4h533q11 0 15 -4t4 -15v-43q0 -11 -4 -15t-15 -4h-77z" />
<glyph unicode="&#x2211;" horiz-adv-x="520" d="M264 323l-206 223q-17 18 -17 35v48q0 18 21 18h402q12 0 16 -3.5t4 -13.5v-46q0 -10 -4 -14t-16 -4h-307l224 -240q14 -17 14 -33v-20q0 -18 -12 -30l-242 -260h324q12 0 16 -4t4 -14v-43q0 -10 -4 -14t-16 -4h-412q-28 0 -28 23v30q0 17 13 33l226 248q4 5 9 10 l8.5 8.5t6.5 7t5 5.5t3.5 4.5t2 4t0.5 3.5q0 3 -1 5.5t-4.5 6l-7 7l-10 10t-12.5 13.5z" />
<glyph unicode="&#x2212;" d="M460 216h-391q-13 0 -18.5 5t-5.5 18v41q0 23 24 23h391q24 0 24 -23v-41q0 -13 -5.5 -18t-18.5 -5z" />
<glyph unicode="&#x221a;" horiz-adv-x="590" d="M38 432v46q0 17 19 17h119q20 0 26 -19l110 -374h4l172 539q5 15 22 15h69q14 0 14 -10q0 -6 -18 -58l-195 -567q-8 -21 -31 -21h-72q-23 0 -30 21l-129 394h-61q-19 0 -19 17z" />
<glyph unicode="&#x221e;" horiz-adv-x="810" d="M405 258q-85 -108 -192 -108q-76 0 -124.5 45t-48.5 128q0 74 47 120t123 46q59 0 104 -26t91 -86q45 57 90.5 84.5t104.5 27.5q76 0 123 -45.5t47 -120.5q0 -80 -47 -126.5t-126 -46.5q-56 0 -101.5 25.5t-90.5 82.5zM461 314q37 -46 66.5 -65t67.5 -19q33 0 55.5 24.5 t22.5 65.5q0 43 -22.5 65.5t-62.5 22.5q-58 0 -127 -94zM350 317q-35 48 -66 69.5t-68 21.5t-59 -23t-22 -65t23.5 -66t61.5 -24q64 0 130 87z" />
<glyph unicode="&#x222b;" horiz-adv-x="358" d="M200 422q10 -77 44 -301q6 -42 6 -75q0 -151 -152 -151q-40 0 -68 8q-12 3 -12 11q0 5 4 25l5 23q3 13 11 13q3 0 11 -2q20 -4 45 -4q34 0 49.5 19t15.5 60q0 27 -4 56q-7 59 -24.5 171.5t-19.5 124.5q-10 67 -10 110q0 66 38.5 106t116.5 40q43 0 71 -10q13 -4 13 -12 q0 -5 -4 -25l-5 -24q-2 -13 -9 -13q-4 0 -12 2q-18 5 -39 5q-39 0 -57.5 -18.5t-18.5 -60.5q0 -38 5 -78z" />
<glyph unicode="&#x2248;" d="M358 292q-37 0 -70 17t-59.5 33.5t-47.5 16.5q-33 0 -74 -55q-7 -10 -15 -10q-6 0 -15 5l-22 14q-21 13 -21 21t13 28q58 85 135 85q41 0 91 -33.5t81 -33.5q34 0 66 55q6 11 14 11q6 0 16 -5l34 -17q12 -5 12 -15q0 -7 -4 -15q-56 -102 -134 -102zM358 80 q-48 0 -100.5 33.5t-76.5 33.5q-33 0 -74 -55q-7 -10 -15 -10q-6 0 -15 5l-22 14q-21 13 -21 21t13 28q58 85 135 85q41 0 91 -33.5t81 -33.5q34 0 66 55q6 11 14 11q6 0 16 -5l34 -17q12 -5 12 -15q0 -7 -4 -15q-56 -102 -134 -102z" />
<glyph unicode="&#x2260;" d="M408 505l-39 -99h91q24 0 24 -23v-41q0 -13 -5.5 -18t-18.5 -5h-126l-47 -119h173q24 0 24 -23v-41q0 -13 -5.5 -18t-18.5 -5h-207l-41 -103q-4 -10 -9.5 -13.5t-18.5 -3.5h-53q-16 0 -16 12q0 5 3 13l37 95h-86q-13 0 -18.5 5t-5.5 18v41q0 23 24 23h121l47 119h-168 q-13 0 -18.5 5t-5.5 18v41q0 23 24 23h202l43 107q4 10 9.5 13.5t18.5 3.5h53q16 0 16 -12q0 -6 -3 -13z" />
<glyph unicode="&#x2264;" d="M186 378l259 -129q15 -7 15 -15q0 -7 -11 -25l-15 -28q-6 -11 -13 -11q-4 0 -14 5l-342 169q-13 6 -13 23v21q0 16 13 23l342 169q10 5 14 5q7 0 13 -11l15 -28q11 -18 11 -25q0 -8 -15 -15zM460 0h-391q-13 0 -18.5 5t-5.5 18v41q0 23 24 23h391q24 0 24 -23v-41 q0 -13 -5.5 -18t-18.5 -5z" />
<glyph unicode="&#x2265;" d="M85 249l259 129l-259 128q-15 7 -15 15q0 7 11 25l15 28q6 11 13 11q4 0 14 -5l342 -169q13 -7 13 -23v-21q0 -17 -13 -23l-342 -169q-10 -5 -14 -5q-7 0 -13 11l-15 28q-11 18 -11 25q0 8 15 15zM461 0h-391q-13 0 -18.5 5t-5.5 18v41q0 23 24 23h391q24 0 24 -23v-41 q0 -13 -5.5 -18t-18.5 -5z" />
<glyph unicode="&#x25ca;" d="M396 323l-131 227h-1l-130 -227l130 -222h1zM474 290l-166 -280q-12 -19 -32 -19h-26q-19 0 -30 19l-164 280q-11 17 -11 31v9q0 15 11 32l164 281q12 20 31 20h26q20 0 32 -20l165 -281q11 -17 11 -32v-9q0 -12 -11 -31z" />
<glyph unicode="&#x25fc;" horiz-adv-x="490" d="M0 490h490v-490h-490v490z" />
<glyph unicode="&#x2713;" horiz-adv-x="758" d="M108 236l139 -139l415 415q10 10 15.5 9.5t14.5 -9.5l24 -24q9 -9 8.5 -14.5t-11.5 -16.5l-448 -448q-9 -9 -18 -9t-21 12l-170 170q-10 10 -10.5 15.5t8.5 14.5l26 26q8 8 13.5 7.5t14.5 -9.5z" />
<glyph horiz-adv-x="224" />
<glyph horiz-adv-x="301" d="M144 -66h21q41 0 41 -44v-18q0 -75 -66 -138q-6 -6 -12 -6q-5 0 -10 4l-17 15q-6 5 -6 10q0 4 4 8q28 30 37 52q2 4 2 7q0 6 -7 9q-15 8 -21 16.5t-6 26.5v19q0 39 40 39z" />
<glyph horiz-adv-x="340" d="M107 847l168 -85q12 -5 13 -12q0 -4 -6 -15l-13 -26q-6 -13 -13 -13t-18 4l-170 67q-15 6 -16 15q0 4 8 22l19 36q5 10 13 12q6 0 15 -5z" />
<glyph horiz-adv-x="340" d="M65 762l168 85q9 5 15 5q8 -2 13 -12l19 -36q8 -18 8 -22q-1 -9 -16 -15l-170 -67q-11 -4 -18 -4t-13 13l-13 26q-6 11 -6 15q1 7 13 12z" />
<glyph horiz-adv-x="354" d="M149 787v-16q0 -48 -49 -48h-10q-48 0 -48 48v16q0 48 48 48h10q49 0 49 -48zM312 787v-16q0 -48 -49 -48h-10q-48 0 -48 48v16q0 48 48 48h10q49 0 49 -48z" />
<glyph horiz-adv-x="370" d="M162 873h46q13 0 21 -9l98 -114q7 -9 7 -13q0 -6 -8 -12l-23 -16q-11 -8 -17 -8t-14 8l-85 87h-4l-85 -87q-8 -8 -14 -8t-17 8l-23 16q-8 6 -8 12q0 4 7 13l98 114q8 9 21 9z" />
<glyph horiz-adv-x="386" d="M56 719l-21 12q-8 5 -8 11q0 4 3 10q40 83 106 83q30 0 57 -19l28 -19q22 -15 37 -15q27 0 50 39q4 7 10 7q4 0 12 -5l20 -13q9 -6 9 -12q0 -4 -3 -10q-44 -79 -105 -79q-29 0 -57 18l-27 19q-22 15 -36 15q-24 0 -48 -40q-5 -9 -11 -9q-5 0 -16 7z" />
<glyph horiz-adv-x="352" d="M287 730h-222q-19 0 -19 18v38q0 17 19 17h222q19 0 19 -17v-38q0 -18 -19 -18z" />
<glyph horiz-adv-x="372" d="M186 700q-111 0 -146 102q-5 15 -5 19q0 9 14 13l22 7q17 5 21 5q8 0 12 -12q26 -67 82 -67t82 67q4 12 12 12q4 0 21 -5l22 -7q14 -4 14 -13q0 -4 -5 -19q-35 -102 -146 -102z" />
<glyph horiz-adv-x="286" d="M143 717q-26 0 -44.5 19t-18.5 45t18.5 45t44.5 19t44.5 -19t18.5 -45t-18.5 -45t-44.5 -19z" />
<glyph horiz-adv-x="316" d="M158 876q40 0 67 -26.5t27 -67.5t-27 -67.5t-67 -26.5t-67 26.5t-27 67.5t27 67.5t67 26.5zM158 743q17 0 27.5 11t10.5 28t-10.5 28t-27.5 11t-27.5 -11t-10.5 -28t10.5 -28t27.5 -11z" />
<glyph horiz-adv-x="427" d="M38 749l140 119q7 6 14 6q8 0 16 -9l29 -38q6 -7 6 -15q-2 -9 -12 -15l-145 -102q-7 -5 -15 -5q-9 0 -19 13l-12 15q-9 12 -9 18t7 13zM248 749l140 119q7 6 14 6q8 0 16 -9l29 -38q6 -7 6 -15q-2 -9 -12 -15l-145 -102q-8 -5 -15 -5q-9 0 -19 13l-12 15q-9 12 -9 18 t7 13z" />
<glyph horiz-adv-x="370" d="M208 705h-46q-13 0 -21 9l-98 114q-7 9 -7 13q0 6 8 12l23 16q11 8 17 8t14 -8l85 -87h4l85 87q8 8 14 8t17 -8l23 -16q8 -6 8 -12q0 -4 -7 -13l-98 -114q-8 -9 -21 -9z" />
<glyph horiz-adv-x="583" d="M483 199h-255v64h193v63h-193v192h255v-64h-191v-64h191v-191zM483 583h-319v-519h72v-64h-136v647h383v-64z" />
<glyph horiz-adv-x="622" d="M73 487v13q0 75 53 115.5t152 40.5q84 0 154 -26q12 -4 12 -12q0 -6 -6 -23l-10 -30q-3 -10 -11 -10q-6 0 -15 3q-58 20 -113 20q-119 0 -119 -84v-10q0 -50 28 -74.5t95 -24.5h290q15 0 15 -13v-51q0 -15 -15 -15h-86v-238q0 -34 -23 -45q-64 -32 -192 -32 q-232 0 -232 184v15q0 58 29 99.5t82 58.5q-88 36 -88 139zM401 306h-107q-78 0 -111.5 -28.5t-33.5 -86.5v-10q0 -58 34 -85.5t106 -27.5q39 0 85 8q19 3 23 9.5t4 24.5v196z" />
</font>
</defs>
</svg>
