<?xml version="1.0" standalone="no"?>
<!DOCTYPE svg PUBLIC "-//W3C//DTD SVG 1.1//EN" "http://www.w3.org/Graphics/SVG/1.1/DTD/svg11.dtd" >
<svg xmlns="http://www.w3.org/2000/svg">
<metadata></metadata>
<defs>
<font id="unicreditheavy_italic" horiz-adv-x="580" >
<font-face units-per-em="1000" ascent="750" descent="-250" />
<missing-glyph horiz-adv-x="215" />
<glyph unicode="fi" horiz-adv-x="638" d="M94 365h-61q-18 0 -18 14q0 5 4 25l8 41q3 15 7.5 20t16.5 8l67 15l8 43q16 87 76.5 121t176.5 34h8q78 0 149 -21q18 -5 18 -15q0 -11 -7 -39l-11 -48q-5 -22 -21 -22q-3 0 -48.5 7.5t-80.5 7.5q-56 0 -79 -12.5t-28 -41.5l-2 -12h300q28 0 28 -18q0 -9 -9 -54l-76 -389 q-5 -29 -38 -29h-92q-29 0 -29 17q0 7 7 40l59 308h-175l-47 -241q-39 -200 -75 -275q-8 -16 -17 -21t-27 -5h-80q-29 0 -29 21q0 8 8 35q43 147 58 225z" />
<glyph unicode="fl" horiz-adv-x="703" d="M94 365h-61q-18 0 -18 14q0 5 4 25l8 41q3 15 7.5 20t16.5 8l67 15l8 43q16 85 72 120t162 35h8q80 0 148 -24l84 12q27 3 34 3q31 0 26 -29l-90 -465q-8 -36 -8 -45q0 -14 18 -14h28q14 0 19 -4t5 -14q0 -8 -6 -38l-7 -34q-4 -20 -12.5 -27t-26.5 -7h-68q-76 0 -101 29 q-16 19 -16 49q0 26 15 103l70 360q-53 17 -111 17h-3q-44 0 -62.5 -12t-23.5 -40l-3 -16h86q22 0 22 -14q0 -4 -6 -36l-10 -51q-4 -24 -30 -24h-87l-47 -241q-39 -200 -75 -275q-8 -16 -17 -21t-27 -5h-80q-29 0 -29 21q0 8 8 35q43 147 58 225z" />
<glyph unicode=" "  horiz-adv-x="215" />
<glyph unicode="&#x09;" horiz-adv-x="215" />
<glyph unicode="&#xa0;" horiz-adv-x="215" />
<glyph unicode="!" horiz-adv-x="255" d="M146 664h90q36 0 36 -22q0 -8 -11 -52l-85 -352q-6 -24 -15 -30.5t-33 -6.5h-61q-27 0 -27 22q0 12 3 30l54 369q4 26 13.5 34t35.5 8zM59 -9h-3q-33 0 -52 16t-19 47q0 47 27 75t76 28h3q33 0 52 -16t19 -47q0 -47 -27 -75t-76 -28z" />
<glyph unicode="&#x22;" horiz-adv-x="538" d="M457 427h-97q-17 0 -14 18l36 261q2 21 24 21h125q21 0 16 -21l-66 -261q-5 -18 -24 -18zM200 427h-97q-17 0 -14 18l36 261q2 21 24 21h125q21 0 16 -21l-66 -261q-5 -18 -24 -18z" />
<glyph unicode="#" horiz-adv-x="703" d="M155 475h79l62 146q7 16 14 21t21 5h79q15 0 20 -5.5t-2 -25.5l-60 -141h102l62 146q7 16 14 21t21 5h79q15 0 20 -5.5t-2 -25.5l-60 -141h74q28 0 13 -32l-25 -57q-9 -22 -35 -22h-75l-41 -98h80q28 0 13 -32l-25 -57q-9 -22 -35 -22h-80l-55 -129q-7 -16 -14 -21 t-21 -5h-79q-15 0 -20 6t2 25l53 124h-102l-55 -129q-7 -16 -14 -21t-21 -5h-79q-15 0 -20 6t2 25l53 124h-73q-28 0 -13 32l25 57q9 22 35 22h73l41 98h-78q-28 0 -13 32l25 57q9 22 35 22zM320 364l-41 -98h102l41 98h-102z" />
<glyph unicode="$" d="M238 -9h-3l-13 -67q-3 -14 -17 -14h-29q-14 0 -11 14l13 69q-91 7 -140 26q-17 7 -21 14t0 23l18 81q7 31 33 21q68 -26 137 -31l27 139l-30 8q-67 17 -95 49.5t-28 88.5q0 38 11 86q16 72 64 110q59 47 190 48l15 77q3 14 17 14h29q14 0 11 -14l-16 -79q67 -6 123 -25 q17 -6 17 -20q0 -9 -15 -49l-15 -41q-5 -13 -8.5 -17t-10.5 -4q-6 0 -18 3q-54 12 -99 16l-25 -124l35 -9q65 -17 92 -44.5t28 -77.5q0 -48 -14 -117q-16 -80 -77 -117t-175 -37zM335 210q0 27 -49 42l-24 -124q40 4 56.5 22t16.5 60zM244 452q0 -17 11 -27t40 -19l21 110 q-72 -7 -72 -64z" />
<glyph unicode="%" horiz-adv-x="925" d="M219 389h2q32 0 42 55l11 56q4 23 4 31q0 24 -26 24h-2q-32 0 -42 -55l-11 -56q-4 -23 -4 -31q0 -24 26 -24zM199 288q-62 0 -97.5 30t-35.5 85q0 21 5 48l7 36q18 88 62.5 128.5t130.5 40.5q62 0 98 -30t36 -85q0 -21 -5 -48l-7 -36q-17 -88 -62.5 -128.5t-131.5 -40.5z M673 92h2q32 0 42 55l11 56q4 23 4 31q0 24 -26 24h-2q-32 0 -42 -55l-11 -56q-4 -23 -4 -31q0 -24 26 -24zM653 -9q-62 0 -97.5 30t-35.5 85q0 21 5 48l7 36q18 88 62.5 128.5t130.5 40.5q62 0 98 -30t36 -85q0 -21 -5 -48l-7 -36q-17 -88 -62.5 -128.5t-131.5 -40.5z M155 17l476 621q14 18 39 18h86q13 0 17.5 -7.5t-3.5 -18.5l-476 -621q-14 -18 -39 -18h-86q-13 0 -17.5 7.5t3.5 18.5z" />
<glyph unicode="&#x26;" horiz-adv-x="627" d="M456 284l3 15q3 15 21 15h78q15 0 15 -11q0 -6 -4 -27q-20 -104 -64 -164l42 -58q6 -9 6 -15q0 -9 -12 -18l-80 -53q-11 -7 -16 -7q-8 0 -14 8l-43 59q-66 -37 -173 -37h-11q-100 0 -154 40t-54 112q0 142 160 199q-56 64 -56 131q0 88 65.5 135.5t166.5 47.5h6 q86 0 136 -36t50 -101q0 -126 -167 -208l75 -102q15 28 24 75zM241 106q43 0 77 16l-106 142q-51 -35 -51 -95q0 -27 19.5 -45t57.5 -18h3zM298 389q71 39 71 103q0 40 -47 40h-3q-28 0 -46.5 -15.5t-18.5 -42.5q0 -28 38 -77z" />
<glyph unicode="'" horiz-adv-x="281" d="M200 427h-97q-17 0 -14 18l36 261q2 21 24 21h125q21 0 16 -21l-66 -261q-5 -18 -24 -18z" />
<glyph unicode="(" horiz-adv-x="343" d="M267 657q23 20 35 20q10 0 23 -8l43 -31q17 -12 17 -20q0 -11 -13 -25q-92 -98 -139 -198.5t-47 -218.5q0 -102 53 -214q6 -12 6 -20q0 -11 -18 -21l-60 -32q-12 -6 -20 -6q-13 0 -24 16q-93 132 -93 283q0 131 62.5 253.5t174.5 221.5z" />
<glyph unicode=")" horiz-adv-x="343" d="M62 -97q-23 -20 -35 -20q-10 0 -23 8l-43 31q-17 12 -17 20q0 11 13 25q92 98 139 198.5t47 218.5q0 102 -53 214q-6 12 -6 20q0 11 18 21l60 32q12 6 20 6q13 0 24 -16q93 -132 93 -283q0 -131 -62.5 -253.5t-174.5 -221.5z" />
<glyph unicode="*" horiz-adv-x="418" d="M246 754h80q14 0 14 -11q0 -3 -7 -26l-29 -87l83 42q14 7 18 7q10 0 13 -17l8 -46q3 -18 3 -24q0 -13 -20 -17l-105 -26l64 -58q11 -10 11 -19q0 -10 -15 -20l-55 -38q-7 -5 -15 -5t-14 13l-38 76l-69 -82q-8 -11 -17 -11q-6 0 -13 5l-50 40q-11 9 -11 18t12 18l93 66 l-94 23q-13 3 -13 11q0 6 10 25l28 54q6 13 18 13q6 0 14 -5l70 -43l5 106q1 18 21 18z" />
<glyph unicode="+" d="M337 189l-25 -131q-4 -21 -12 -27.5t-33 -6.5h-74q-24 0 -30 7.5t-2 32.5l24 125h-125q-19 0 -24.5 8.5t-1.5 27.5l12 62q5 24 12.5 32t27.5 8h126l25 131q4 21 12 27.5t33 6.5h74q24 0 30 -7.5t2 -32.5l-24 -125h125q19 0 24.5 -8.5t1.5 -27.5l-12 -62q-5 -24 -12.5 -32 t-27.5 -8h-126z" />
<glyph unicode="," horiz-adv-x="246" d="M86 165h10q37 0 53 -13t17 -41q0 -15 -6 -44q-9 -46 -47.5 -111t-101.5 -122q-17 -15 -36 -2l-37 26q-16 11 1 28q23 25 45 50q29 32 29 45q0 5 -6 13l-10 9q-13 12 -13 31q0 14 8 54t30 58.5t64 18.5z" />
<glyph unicode="-" horiz-adv-x="364" d="M276 188h-220q-24 0 -32 6.5t-8 25.5v75q0 18 9 25t31 7h220q22 0 31 -7t9 -25v-75q0 -19 -8 -25.5t-32 -6.5z" />
<glyph unicode="." horiz-adv-x="241" d="M162 118q0 -26 -7 -53q-10 -42 -32 -58t-61 -16h-9q-68 0 -68 50q0 22 6 50q10 42 32.5 58t61.5 16h9q68 0 68 -47z" />
<glyph unicode="/" horiz-adv-x="406" d="M443 628l-329 -616q-19 -35 -56 -35h-88q-24 0 -24 16q0 9 17 42l329 616q19 35 56 35h89q23 0 23 -16q0 -9 -17 -42z" />
<glyph unicode="0" d="M348 656h2q212 0 212 -188q0 -94 -37 -233q-35 -132 -104 -188t-189 -56h-2q-212 0 -212 188q0 94 37 233q35 132 104 188t189 56zM248 126h4q48 0 74 34t45 114q26 107 26 183q0 35 -15.5 49.5t-49.5 14.5h-4q-48 0 -74 -34t-45 -114q-26 -107 -26 -183 q0 -35 15.5 -49.5t49.5 -14.5z" />
<glyph unicode="1" d="M365 129h104q15 0 20.5 -4t5.5 -14q0 -6 -4 -26l-10 -53q-4 -19 -11.5 -25.5t-26.5 -6.5h-376q-15 0 -20.5 4t-5.5 14q0 6 4 26l10 53q4 19 11.5 25.5t26.5 6.5h108l69 352h-5l-92 -39q-15 -6 -22 -6q-13 0 -19 14l-23 63q-6 16 -6 21q0 13 20 22l165 72q44 19 81 19h66 q24 0 24 -18q0 -12 -7 -50z" />
<glyph unicode="2" d="M312 520h-2q-51 0 -130 -24q-18 -5 -25 -1t-11 19l-18 69q-7 27 22 38q97 35 192 35h6q206 0 206 -172q0 -86 -46 -138t-141 -86l-48 -17q-73 -26 -99.5 -49.5t-35.5 -64.5h263q31 0 25 -33l-13 -66q-4 -18 -11 -24t-26 -6h-384q-20 0 -26 7.5t-2 27.5l12 57 q22 104 63 159.5t138 91.5l63 23q62 22 82 43t20 56q0 55 -74 55z" />
<glyph unicode="3" d="M4 68l19 60q6 17 13.5 21t30.5 -2q84 -27 142 -27h3q118 0 118 102q0 26 -21.5 38t-68.5 12h-50q-20 0 -25 5.5t-1 25.5l12 62q4 19 11.5 26.5t27.5 7.5h25q67 0 96 20q27 18 27 54q0 29 -16 41t-49 12h-1q-51 0 -132 -24q-31 -9 -37 13l-18 66q-4 19 0 26.5t20 13.5 q37 14 93.5 24.5t100.5 10.5h13q193 0 193 -150q0 -55 -29 -98.5t-83 -62.5l-1 -3q79 -25 79 -111q0 -113 -73.5 -176.5t-212.5 -63.5h-4q-99 0 -186 35q-26 11 -16 42z" />
<glyph unicode="4" d="M175 268h128l44 222zM257 33l20 105h-251q-37 0 -31 33l5 25q6 29 37 69l273 350q15 20 26.5 26t35.5 6h125q22 0 29.5 -6.5t3.5 -26.5l-68 -346h56q16 0 22 -5.5t3 -20.5l-15 -79q-3 -15 -9.5 -20t-23.5 -5h-58l-20 -105q-4 -21 -11.5 -27t-28.5 -6h-90q-21 0 -27.5 7 t-2.5 26z" />
<glyph unicode="5" d="M486 515h-205q-12 0 -15 -13l-23 -96q53 17 105 17h5q76 0 118 -39t42 -118q0 -121 -75.5 -198t-216.5 -77h-5q-98 0 -185 35q-24 9 -24 27q0 7 5 24l17 53q6 18 14 23.5t28 -0.5q89 -33 147 -33h5q56 0 90 30.5t34 85.5q0 60 -72 60h-2q-37 0 -101 -24q-24 -9 -45 2 l-35 17q-15 7 -15 22q0 7 6 33l66 271q7 30 40 30h322q20 0 25.5 -5t1.5 -24l-15 -76q-3 -15 -10.5 -21t-26.5 -6z" />
<glyph unicode="6" d="M255 455q-16 -31 -25 -58q57 24 119 24h3q168 0 168 -156q0 -131 -70 -202.5t-185 -71.5h-12q-215 0 -215 218q0 88 30 186.5t82 163.5q78 97 226 97q86 0 148 -26q16 -6 19 -16t-3 -26l-21 -59q-6 -16 -15 -19.5t-27 1.5q-60 16 -96 16h-6q-45 0 -72.5 -16.5 t-47.5 -55.5zM292 292q-44 0 -89 -13q-6 -42 -6 -80q0 -78 67 -78h9q44 0 65.5 34.5t21.5 83.5q0 53 -65 53h-3z" />
<glyph unicode="7" d="M526 481l-314 -454q-18 -27 -56 -27h-104q-41 0 -17 33l346 481h-246q-17 0 -21.5 8t-1.5 26l12 64q4 21 11.5 28t29.5 7h389q20 0 26.5 -6t3.5 -22l-6 -38q-5 -32 -52 -100z" />
<glyph unicode="8" d="M553 503q0 -53 -29.5 -99t-74.5 -74q70 -47 70 -126q0 -89 -61 -146q-72 -67 -210 -67h-10q-116 0 -174 46q-54 42 -54 117q0 55 34.5 103t90.5 77q-49 43 -49 120q0 95 70 148.5t182 53.5h6q100 0 154.5 -42.5t54.5 -110.5zM272 261l-40 18q-52 -36 -52 -93 q0 -30 19.5 -49.5t59.5 -19.5h6q39 0 62.5 17.5t23.5 48.5q0 25 -16.5 40.5t-62.5 37.5zM250 469q0 -23 13.5 -37.5t46.5 -30.5l35 -17q47 45 47 92q0 29 -17 44t-46 15h-2q-34 0 -55.5 -17.5t-21.5 -48.5z" />
<glyph unicode="9" d="M325 192q13 24 24 58q-55 -24 -118 -24h-3q-168 0 -168 156q0 131 70 202.5t185 71.5h12q215 0 215 -218q0 -88 -30 -186.5t-82 -163.5q-78 -97 -226 -97q-86 0 -148 26q-16 6 -19 16t3 26l21 59q6 16 15 19.5t27 -1.5q60 -16 96 -16h6q45 0 72.5 16.5t47.5 55.5z M288 355q44 0 89 13q6 42 6 80q0 78 -67 78h-9q-44 0 -65.5 -34.5t-21.5 -83.5q0 -53 65 -53h3z" />
<glyph unicode=":" horiz-adv-x="241" d="M162 118q0 -26 -7 -53q-10 -42 -32 -58t-61 -16h-9q-68 0 -68 50q0 22 6 50q10 42 32.5 58t61.5 16h9q68 0 68 -47zM236 499q0 -26 -7 -53q-10 -42 -32 -58t-61 -16h-9q-68 0 -68 50q0 22 6 50q10 42 32.5 58t61.5 16h9q68 0 68 -47z" />
<glyph unicode=";" horiz-adv-x="246" d="M88 165h10q37 0 53 -13t17 -41q0 -15 -6 -44q-9 -46 -47.5 -111t-101.5 -122q-17 -15 -36 -2l-37 26q-16 11 1 28q23 25 45 50q29 32 29 45q0 5 -6 13l-10 9q-13 12 -13 31q0 14 8 54t30 58.5t64 18.5zM233 499q0 -26 -7 -53q-10 -42 -32 -58t-61 -16h-9q-68 0 -68 50 q0 22 6 50q10 42 32.5 58t61.5 16h9q68 0 68 -47z" />
<glyph unicode="&#x3c;" d="M247 260l216 -128q20 -12 20 -23q0 -10 -15 -31l-44 -58q-15 -19 -27 -19q-10 0 -19 6l-317 193q-13 8 -16 16t0 25l7 38q4 18 9.5 25.5t22.5 15.5l389 192q12 6 20 6q14 0 21 -19l20 -54q7 -19 7 -28q0 -13 -26 -27z" />
<glyph unicode="=" d="M490 312h-403q-19 0 -24.5 8.5t-1.5 27.5l12 62q5 24 12.5 32t27.5 8h403q19 0 24.5 -8.5t1.5 -27.5l-12 -62q-5 -24 -12.5 -32t-27.5 -8zM442 66h-403q-19 0 -24.5 8.5t-1.5 27.5l12 62q5 24 12.5 32t27.5 8h403q19 0 24.5 -8.5t1.5 -27.5l-12 -62q-5 -24 -12.5 -32 t-27.5 -8z" />
<glyph unicode="&#x3e;" d="M312 259l-216 128q-20 12 -20 23q0 10 15 31l44 58q15 19 27 19q10 0 19 -6l317 -193q13 -8 16 -16t0 -25l-7 -38q-4 -18 -9.5 -25.5t-22.5 -15.5l-389 -192q-12 -6 -20 -6q-14 0 -21 19l-20 54q-7 19 -7 28q0 13 26 27z" />
<glyph unicode="?" horiz-adv-x="463" d="M210 219q-3 -17 -26 -17h-82q-16 0 -16 12q0 57 24 96.5t84 71.5l34 18q42 22 58 39t16 47q0 40 -59 40h-3q-48 0 -122 -23q-27 -9 -31 11l-16 74q-4 13 0 21.5t21 14.5q86 32 192 32h4q178 0 178 -141q0 -74 -28.5 -114t-101.5 -78l-34 -18q-52 -28 -69.5 -44t-22.5 -42 zM110 -9h-3q-33 0 -52 16t-19 47q0 47 27 75t76 28h3q33 0 52 -16t19 -47q0 -47 -27 -75t-76 -28z" />
<glyph unicode="@" horiz-adv-x="820" d="M778 407q0 -111 -57.5 -191t-157.5 -80q-92 0 -118 49h-3q-32 -35 -91 -35h-2q-53 0 -78.5 27.5t-25.5 74.5q0 48 20 121q18 66 49 95.5t86 29.5q60 0 87 -39l8 15q7 13 23 13h55q22 0 18 -18l-34 -168q-7 -35 -7 -54q0 -31 30 -31q42 0 62 54t20 123q0 90 -55 138 t-152 48q-125 0 -201 -81q-82 -86 -82 -232q0 -94 59 -145t174 -51q103 0 194 21q13 3 17.5 0.5t6.5 -12.5l10 -49q2 -13 -1.5 -18t-17.5 -10q-105 -32 -226 -32q-170 0 -260 75.5t-90 211.5q0 180 112 298q121 126 321 126q136 0 221.5 -71.5t85.5 -202.5zM433 287l12 59 q7 32 7 39q0 25 -27 25q-32 0 -44 -44q-17 -60 -17 -103q0 -29 25 -29q18 0 28 12t16 41z" />
<glyph unicode="A" horiz-adv-x="605" d="M220 248h129q-4 84 -14 224h-11q-87 -186 -104 -224zM360 33l-7 83h-187l-39 -83q-10 -20 -20 -26.5t-39 -6.5h-89q-29 0 -29 19q0 12 13 40q140 289 278 543q14 25 31.5 35t47.5 10h86q30 0 44 -10t17 -35q27 -197 62 -525q4 -46 4 -53q0 -24 -40 -24h-88q-23 0 -33.5 7 t-11.5 26z" />
<glyph unicode="B" horiz-adv-x="569" d="M309 656h15q115 0 165.5 -33t50.5 -99q0 -133 -102 -180v-3q82 -19 82 -107q0 -112 -60 -170q-67 -64 -233 -64h-14q-113 0 -180 6q-27 3 -27 24q0 18 7 52l102 533q4 18 12.5 25t29.5 9q63 7 152 7zM216 276l-20 -106q-4 -19 -4 -24q0 -8 13 -9q18 -2 37 -2h5 q73 0 92 42q10 22 10 55q0 24 -15.5 34t-51.5 10h-66zM315 521h-7q-19 0 -37 -2q-9 -2 -11 -11l-21 -113h38q68 0 85 50q6 18 6 38q0 38 -53 38z" />
<glyph unicode="C" horiz-adv-x="555" d="M259 -9h-10q-144 0 -192 67q-29 40 -29 109q0 54 37 234q16 77 37 122.5t57 75.5q67 57 202 57h7q99 0 177 -40q13 -6 13 -15q0 -11 -15 -45l-26 -57q-7 -15 -17 -15t-20 5q-59 27 -114 27h-4q-61 0 -92 -34q-24 -26 -42 -119q-25 -125 -25 -171q0 -32 22 -46.5t76 -14.5 h6q62 0 126 23q11 4 18 4q12 0 15 -19l6 -44q5 -35 5 -45q0 -17 -36 -30q-80 -29 -182 -29z" />
<glyph unicode="D" horiz-adv-x="625" d="M281 510q-18 -1 -21 -17l-55 -288q-9 -49 -9 -54q0 -10 13 -12q12 -1 38 -1h9q61 0 94 29q24 20 38 49.5t27 89.5q17 75 17 120q0 38 -17 59q-22 27 -83 27h-9q-20 0 -42 -2zM194 0h-21q-102 0 -137 4q-30 3 -30 28q0 7 12 66l97 505q4 23 13.5 30.5t28.5 9.5q66 6 170 6 h11q169 0 222 -69q28 -36 34.5 -87.5t-5.5 -136.5q-17 -122 -45.5 -186t-75.5 -102q-83 -68 -274 -68z" />
<glyph unicode="E" horiz-adv-x="521" d="M408 264h-208q-8 -43 -12 -71q-4 -25 -4 -42q0 -15 18 -15h208q26 0 26 -17q0 -9 -6 -46l-7 -42q-4 -18 -11.5 -24.5t-28.5 -6.5h-261q-56 0 -78 15.5t-22 56.5q0 68 34 263q19 107 40 185q21 77 59.5 102t120.5 25h239q23 0 23 -13q0 -5 -7 -44l-9 -49q-4 -19 -10 -24.5 t-29 -5.5h-207q-22 0 -28 -20q-8 -30 -22 -101h205q27 0 27 -13q0 -14 -8 -49l-9 -41q-5 -23 -33 -23z" />
<glyph unicode="F" horiz-adv-x="513" d="M410 261h-194l-44 -229q-5 -21 -12 -26.5t-30 -5.5h-93q-19 0 -26 3t-7 13q0 1 8 44l91 470q13 62 42 89q31 28 96 28h277q22 0 22 -16q0 -8 -8 -50l-8 -42q-3 -16 -11 -22t-28 -6h-201q-19 0 -23 -19l-20 -105h192q27 0 27 -14q0 -12 -7 -50l-6 -35q-3 -16 -10.5 -21.5 t-26.5 -5.5z" />
<glyph unicode="G" horiz-adv-x="622" d="M61 381q18 95 40 141.5t59 77.5q68 56 218 56h4q117 0 200 -43q12 -6 12 -17q0 -9 -9 -30l-29 -67q-7 -17 -20 -17q-8 0 -36 10q-64 24 -122 24h-4q-70 0 -101 -31q-16 -16 -25 -42t-20 -82q-26 -136 -26 -166q0 -33 17 -47q21 -18 64 -18h6q42 0 62 6q21 5 24 24l19 92 h-63q-18 0 -18 12q0 9 4 30l10 52q4 19 11 25t24 6h188q25 0 25 -17q0 -10 -10 -58l-47 -233q-3 -16 -10.5 -24.5t-26.5 -16.5q-85 -37 -209 -37h-11q-151 0 -200 62q-33 42 -33 109q0 51 33 219z" />
<glyph unicode="H" horiz-adv-x="651" d="M490 0h-99q-28 0 -28 17q0 9 7 44l37 196h-191l-43 -226q-4 -18 -12.5 -24.5t-28.5 -6.5h-98q-28 0 -28 17q0 9 7 44l108 560q3 17 10 21.5t29 4.5h97q31 0 31 -16q0 -3 -7 -41l-38 -197h191l43 223q4 21 11 26t30 5h96q31 0 31 -15q0 -4 -1 -10.5t-3 -16t-3 -15.5 l-108 -559q-4 -21 -10.5 -26t-29.5 -5z" />
<glyph unicode="I" horiz-adv-x="301" d="M285 590l-109 -564q-3 -17 -10 -21.5t-29 -4.5h-97q-31 0 -31 16q0 9 6 41l110 564q3 17 10 21.5t29 4.5h97q31 0 31 -16q0 -4 -1 -10t-3 -15t-3 -16z" />
<glyph unicode="J" horiz-adv-x="386" d="M381 591l-70 -360q-18 -96 -37 -134.5t-52 -64.5q-25 -20 -61.5 -26t-97.5 -6h-65q-28 0 -28 17q0 12 7 44l8 41q4 22 12.5 29t28.5 7h31q40 0 58.5 17.5t27.5 62.5l77 398q4 21 11.5 26t30.5 5h101q16 0 20.5 -3t4.5 -11t-7 -42z" />
<glyph unicode="K" horiz-adv-x="590" d="M219 264l-46 -236q-3 -17 -10 -22.5t-30 -5.5h-103q-14 0 -19 3t-5 13q0 6 7 42l108 558q4 20 11.5 25.5t28.5 5.5h97q18 0 24.5 -2.5t6.5 -10.5q0 -9 -11 -64l-33 -172h7q8 0 26 20l167 204q21 25 55 25h109q51 0 17 -38l-216 -253q-27 -30 -27 -38q0 -9 14 -34 l124 -236q11 -19 11 -30q0 -18 -25 -18h-112q-20 0 -29 5.5t-17 21.5l-99 203q-16 34 -24 34h-7z" />
<glyph unicode="L" horiz-adv-x="473" d="M277 571l-80 -412q-5 -23 20 -23h163q26 0 26 -16q0 -7 -7 -43l-9 -45q-4 -20 -11 -26t-30 -6h-239q-92 0 -92 66q0 26 12 87l90 463q4 21 11 26t30 5h103q24 0 24 -13q0 -8 -11 -63z" />
<glyph unicode="M" horiz-adv-x="803" d="M601 404h-4q-87 -174 -154 -300q-11 -22 -24 -28.5t-38 -6.5h-63q-24 0 -33.5 7.5t-12.5 27.5q-21 140 -35 300h-4q-36 -165 -76 -370q-4 -21 -12 -27.5t-33 -6.5h-80q-35 0 -35 20q0 8 7 41q60 278 125 534q9 32 21 42t39 10h87q35 0 48.5 -10t16.5 -38q15 -163 35 -353 h7q67 130 175 353q14 28 31.5 38t51.5 10h99q23 0 32.5 -6t9.5 -23q0 -13 -9 -74q-65 -426 -81 -510q-4 -20 -12.5 -27t-32.5 -7h-84q-32 0 -32 18q0 6 11 63q26 130 59 323z" />
<glyph unicode="N" horiz-adv-x="643" d="M387 28l-163 322h-2l-61 -316q-4 -21 -12 -27.5t-29 -6.5h-86q-28 0 -28 18q0 4 6 40l108 556q4 20 12.5 26.5t27.5 6.5h40q41 0 54 -28l161 -331h2l64 325q4 20 12.5 27t28.5 7h85q30 0 30 -17q0 -5 -8 -45l-107 -552q-6 -33 -40 -33h-41q-39 0 -54 28z" />
<glyph unicode="O" horiz-adv-x="633" d="M414 305q20 104 20 139q0 34 -12 49q-19 23 -62 23h-12q-42 0 -70 -24q-34 -29 -57 -150q-21 -112 -21 -138q0 -33 13 -49q20 -24 62 -24h12q41 0 70 24q32 28 57 150zM579 285q-20 -105 -45 -158.5t-72 -86.5q-71 -49 -205 -49h-11q-116 0 -170 47q-48 41 -48 134 q0 58 27 196q19 99 47 154t81 91q63 43 192 43h8q118 0 171 -47q51 -45 51 -125q0 -64 -26 -199z" />
<glyph unicode="P" horiz-adv-x="575" d="M332 521h-8q-31 0 -49 -3q-8 -1 -10 -12l-30 -157h52q47 0 71 16t34 56q8 32 8 52q0 18 -9 30q-15 18 -59 18zM209 212l-35 -180q-5 -21 -12 -26.5t-30 -5.5h-93q-19 0 -26 3t-7 13q0 2 8 44l106 551q4 21 13 29t34 10q69 6 166 6h12q116 0 170.5 -36t54.5 -132 q0 -63 -26 -133t-79 -102q-68 -41 -208 -41h-48z" />
<glyph unicode="Q" horiz-adv-x="633" d="M414 305q20 104 20 139q0 34 -12 49q-19 23 -62 23h-12q-42 0 -70 -24q-34 -29 -57 -150q-21 -112 -21 -138q0 -33 13 -49q20 -24 62 -24h12q41 0 70 24q32 28 57 150zM462 40q-49 -34 -125 -44q50 -57 102 -97q13 -10 13 -19q0 -11 -19 -25l-63 -49q-14 -10 -24 -10 q-13 0 -22 9q-37 32 -71 85t-53 104q-86 8 -124 44q-48 44 -48 134q0 58 27 196q19 99 47 154t81 91q63 43 192 43h8q118 0 171 -47q51 -45 51 -125q0 -64 -26 -199q-20 -105 -45 -158.5t-72 -86.5z" />
<glyph unicode="R" horiz-adv-x="591" d="M213 231l-38 -200q-4 -19 -11.5 -25t-29.5 -6h-98q-21 0 -26 6.5t-2 24.5l112 578q4 21 13 29.5t29 10.5q65 7 169 7h11q111 0 172 -33t61 -119q0 -92 -40 -161t-124 -96l88 -207q6 -14 6 -22q0 -18 -27 -18h-103q-25 0 -34.5 5.5t-14.5 22.5l-67 192q-3 11 -17 11h-29z M337 520h-17q-26 0 -35 -1q-16 -2 -20 -22l-26 -133h53q56 0 78 19q33 29 33 92q0 26 -14.5 35.5t-51.5 9.5z" />
<glyph unicode="S" horiz-adv-x="537" d="M209 -9h-9q-44 0 -101 8t-87 20q-17 7 -21 14t0 23l18 83q7 31 34 21q85 -31 157 -31h5q77 0 94 40q8 19 8 41q0 18 -13.5 29t-49.5 20l-61 14q-68 15 -97.5 49t-29.5 90q0 134 77 195q62 49 193 49h4q92 0 167 -28q17 -6 17 -20q0 -8 -15 -48l-17 -45q-6 -16 -14 -19.5 t-23 1.5q-67 19 -120 19h-5q-100 0 -100 -64q0 -20 14 -31t57 -22l63 -16q66 -17 94 -44t28 -77q0 -147 -60 -210q-60 -61 -207 -61z" />
<glyph unicode="T" horiz-adv-x="529" d="M213 511h-131q-27 0 -27 15q0 4 5 31l11 59q4 19 11.5 25t26.5 6h427q28 0 28 -16q0 -5 -7 -40l-9 -50q-4 -19 -11 -24.5t-27 -5.5h-130l-93 -479q-4 -20 -12 -26t-30 -6h-96q-18 0 -24.5 4t-6.5 14q0 4 9 49z" />
<glyph unicode="U" horiz-adv-x="632" d="M276 601l-72 -370q-5 -28 -5 -44q0 -25 10 -36q16 -20 65 -20h5q49 0 73 20q23 19 35 80l75 385q4 21 11 26t30 5h98q27 0 27 -21q0 -7 -3 -25l-73 -375q-14 -70 -32.5 -110t-56.5 -70q-72 -55 -205 -55h-12q-133 0 -183 55q-35 41 -35 103q0 37 8 77l76 390q4 21 11 26 t30 5h99q27 0 27 -21q0 -7 -3 -25z" />
<glyph unicode="V" horiz-adv-x="574" d="M250 180h5q108 213 193 439q7 19 15 23.5t30 4.5h99q30 0 30 -13q0 -11 -19 -54q-122 -279 -269 -545q-19 -35 -64 -35h-98q-42 0 -50 35q-23 114 -38 282t-17 304q0 15 7.5 20.5t29.5 5.5h91q23 0 29.5 -4.5t6.5 -23.5q0 -271 19 -439z" />
<glyph unicode="W" horiz-adv-x="825" d="M430 363h-6q-76 -188 -141 -330q-15 -33 -63 -33h-92q-26 0 -36.5 7t-11.5 24q-18 277 -10 590q1 26 36 26h98q19 0 26.5 -5t6.5 -21q-13 -260 -19 -441h4q62 145 167 402q5 15 14.5 20.5t28.5 5.5h73q36 0 36 -26q1 -146 5 -402h4q99 282 153 441q5 16 14.5 21t28.5 5 h98q29 0 29 -14q0 -5 -17 -51q-120 -318 -224 -551q-9 -17 -21.5 -24t-38.5 -7h-83q-27 0 -38 8t-13 25q-6 92 -8 330z" />
<glyph unicode="X" horiz-adv-x="582" d="M259 230l-122 -200q-10 -18 -22 -24t-35 -6h-98q-11 0 -17.5 4t-5.5 11q0 6 10 22l184 271q12 18 13 25q2 7 -2 22l-89 265q-4 12 4 19.5t26 7.5h100q37 0 42 -22l45 -194q5 -21 12 -21q6 0 19 21l119 194q14 22 50 22h100q39 0 20 -27l-188 -274q-12 -19 -12 -24 q0 -11 4 -23l94 -262q12 -37 -27 -37h-96q-36 0 -42 30l-55 200q-5 21 -12 21q-6 0 -19 -21z" />
<glyph unicode="Y" horiz-adv-x="530" d="M253 0h-103q-28 0 -28 17q0 10 7 42l26 132q-71 210 -88 423q-3 33 24 33h99q18 0 23.5 -1t10 -6t5.5 -17q8 -136 33 -284h5q54 95 141 284q7 18 14 21t31 3h104q20 0 20 -14q0 -10 -20 -52q-100 -208 -236 -394l-30 -156q-4 -18 -11.5 -24.5t-26.5 -6.5z" />
<glyph unicode="Z" horiz-adv-x="529" d="M191 136h230q30 0 30 -18q0 -12 -6 -43l-9 -43q-4 -19 -12 -25.5t-29 -6.5h-397q-30 0 -30 17q0 11 4 28l4 19q5 26 26 52l313 395h-205q-30 0 -30 18q0 9 6 38l9 48q4 19 12 25.5t29 6.5h384q18 0 24 -5.5t3 -23.5l-7 -34q-5 -27 -31 -59z" />
<glyph unicode="[" horiz-adv-x="356" d="M166 50h76q24 0 24 -14q0 -9 -5 -33l-12 -62q-3 -16 -10 -21.5t-25 -5.5h-200q-26 0 -26 16q0 10 5 34l134 686q3 16 10.5 21.5t24.5 5.5h200q26 0 26 -14q0 -8 -4 -28l-13 -66q-2 -16 -9.5 -22t-24.5 -6h-76z" />
<glyph unicode="\" horiz-adv-x="393" d="M161 12l-91 610q-5 32 -5 40q0 24 31 24h97q21 0 28 -7t10 -28l93 -621q4 -28 4 -33q0 -20 -31 -20h-98q-21 0 -28 7t-10 28z" />
<glyph unicode="]" horiz-adv-x="356" d="M178 541h-76q-24 0 -24 14q0 9 5 33l12 62q3 16 10 21.5t25 5.5h200q26 0 26 -16q0 -10 -5 -34l-134 -686q-3 -16 -10.5 -21.5t-24.5 -5.5h-200q-26 0 -26 14q0 8 4 28l13 66q2 16 9.5 22t24.5 6h76z" />
<glyph unicode="^" horiz-adv-x="570" d="M321 647h46q17 0 25.5 -5.5t16.5 -20.5l98 -184q8 -19 8 -24q0 -13 -23 -26l-58 -35q-24 -15 -38 6l-85 132l-139 -134q-13 -12 -20.5 -13.5t-19.5 7.5l-42 37q-13 11 -13 20q0 10 13 24l174 190q16 17 25.5 21.5t31.5 4.5z" />
<glyph unicode="_" horiz-adv-x="565" d="M427 -161h-421q-24 0 -32 6.5t-8 25.5v59q0 18 8.5 25t31.5 7h421q23 0 31.5 -7t8.5 -25v-59q0 -19 -8 -25.5t-32 -6.5z" />
<glyph unicode="`" horiz-adv-x="414" d="M223 785l150 -145q7 -7 7 -14q0 -9 -16 -25l-34 -34q-14 -14 -23 -14q-8 0 -21 9l-161 123q-13 10 -13 20q0 9 11 21l56 61q11 11 21 11q9 0 23 -13z" />
<glyph unicode="a" horiz-adv-x="503" d="M273 38h-2q-36 -47 -138 -47h-3q-68 0 -104 32t-36 90q0 92 44 139q49 52 172 52h6q47 0 75 -4q6 22 6 34v2q0 38 -69 38h-3q-39 0 -85 -11q-35 -7 -38 -7q-14 0 -15 16l-5 51q-2 26 -2 32q0 13 15 18q82 26 180 26h3q96 0 142 -34q38 -29 38 -92q0 -40 -18 -131 l-43 -214q-3 -15 -11.5 -21.5t-27.5 -6.5h-52q-16 0 -21.5 4t-6.5 16zM264 169l5 28q-21 3 -55 3h-11q-69 0 -69 -57q0 -38 49 -38h5q35 0 53 15q15 12 23 49z" />
<glyph unicode="b" horiz-adv-x="536" d="M198 305l-17 -86q-8 -40 -8 -62t11.5 -31.5t38.5 -9.5h4q39 0 55 18q13 16 23 67l13 65q10 48 10 70q0 37 -50 37h-5q-31 0 -48 -12q-19 -13 -27 -56zM231 477h2q44 22 120 22h5q134 0 134 -115q0 -44 -12 -104l-14 -72q-14 -71 -30.5 -109t-44.5 -61q-59 -47 -183 -47 h-11q-126 0 -165 50q-23 30 -23 71q0 38 16 122l81 414q3 16 11.5 22.5t27.5 6.5h95q26 0 26 -19q0 -2 -10 -57z" />
<glyph unicode="c" horiz-adv-x="452" d="M230 116h5q39 0 90 15q11 3 16 3q14 0 15 -17l5 -50q2 -22 2 -30q0 -16 -27 -24q-69 -22 -152 -22h-10q-111 0 -150 49q-26 31 -26 89q0 39 10 93l14 76q22 115 86 160q58 41 155 41h5q82 0 152 -34q15 -7 15 -19q0 -9 -11 -34l-21 -46q-9 -19 -20 -19q-6 0 -18 5 q-48 21 -85 21h-5q-39 0 -63 -21q-26 -23 -37 -84l-8 -45q-7 -39 -7 -56q0 -27 16 -39t54 -12z" />
<glyph unicode="d" horiz-adv-x="531" d="M291 181l24 123q8 40 -3 54q-12 15 -46 15h-8q-33 0 -50 -17q-18 -18 -28 -71l-11 -59q-9 -50 -9 -75q0 -35 48 -35h6q34 0 51 13q18 14 26 52zM347 481h2l33 167q6 29 40 29h91q28 0 28 -18q0 -7 -6 -40l-82 -426q-13 -69 -27 -101.5t-42 -54.5q-61 -46 -193 -46h-9 q-100 0 -145 39q-38 33 -38 92q0 45 10 99l15 78q21 110 70 153q52 47 150 47h9q56 0 94 -18z" />
<glyph unicode="e" horiz-adv-x="493" d="M238 116h6q46 0 106 14q15 3 19 3q13 0 15 -17l4 -46q2 -24 2 -30q0 -16 -31 -26q-75 -23 -160 -23h-14q-93 0 -140 34.5t-47 114.5q0 46 11 105l7 35q27 135 91 180q55 39 165 39h3q97 0 139 -41q36 -34 36 -99q0 -31 -15 -114l-5 -27q-3 -16 -10.5 -22t-23.5 -6h-237 q-4 -19 -4 -35q0 -21 17.5 -30t65.5 -9zM178 294h109q11 0 13 10l2 9q4 19 4 31q0 43 -51 43h-2q-30 0 -47 -15t-25 -61z" />
<glyph unicode="f" horiz-adv-x="387" d="M94 365h-61q-18 0 -18 14q0 5 4 25l8 41q3 15 7.5 20t16.5 8l67 15l8 43q17 84 64 119q48 36 137 36h10q53 0 98 -13q18 -5 18 -16q0 -10 -8 -38l-11 -43q-6 -23 -20 -23q-6 0 -30 4.5t-40 4.5h-3q-31 0 -44 -13q-12 -12 -17 -43l-3 -16h86q22 0 22 -14q0 -4 -6 -36 l-10 -51q-3 -14 -9.5 -19t-20.5 -5h-87l-47 -241q-39 -200 -75 -275q-8 -16 -17 -21t-27 -5h-80q-29 0 -29 21q0 8 8 35q43 147 58 225z" />
<glyph unicode="g" horiz-adv-x="526" d="M146 0h-8q-76 0 -113 43q-40 47 -17 171l14 75q12 63 30 100.5t50 65.5q50 44 146 44h10q94 0 123 -48h2l9 20q5 12 10.5 15.5t17.5 3.5h63q24 0 19 -26l-86 -443q-23 -120 -77 -164t-161 -44h-9q-79 0 -143 20q-16 4 -16 15q0 7 6 31l14 55q4 13 8.5 15.5t24.5 -1.5 q54 -13 97 -13h6q47 0 70.5 18t31.5 58l3 15h-2q-35 -26 -123 -26zM291 188l22 116q8 39 -1 54q-8 15 -43 15h-8q-35 0 -50 -14q-19 -19 -32 -89l-9 -46q-8 -42 -8 -58q0 -14 6 -25q9 -16 43 -16h7q32 0 49 15q18 15 24 48z" />
<glyph unicode="h" horiz-adv-x="524" d="M263 57l48 248q3 16 3 28q0 38 -48 38q-27 0 -44 -13q-17 -14 -24 -53l-54 -276q-3 -16 -10.5 -22.5t-26.5 -6.5h-93q-30 0 -30 17q0 9 7 42l116 594q5 24 33 24h98q28 0 28 -17q0 -12 -8 -48l-27 -138h3q47 25 111 25h2q133 0 133 -104q0 -41 -11 -94l-54 -272 q-3 -16 -10.5 -22.5t-26.5 -6.5h-91q-30 0 -30 19q0 11 6 38z" />
<glyph unicode="i" horiz-adv-x="266" d="M224 418l-76 -389q-5 -29 -38 -29h-92q-29 0 -29 17q0 7 7 40l78 404q6 29 39 29h92q28 0 28 -18q0 -9 -9 -54zM173 532h-7q-72 0 -72 56q0 110 100 110h7q72 0 72 -56q0 -110 -100 -110z" />
<glyph unicode="j" horiz-adv-x="261" d="M-4 52l79 409q6 29 39 29h92q28 0 28 -18q0 -9 -9 -54l-72 -370q-14 -73 -30 -112t-41 -62q-54 -51 -161 -51h-54q-22 0 -22 17q0 8 5 36l9 49q2 14 8.5 19t21.5 5h19q39 0 57.5 20.5t30.5 82.5zM174 532h-7q-72 0 -72 56q0 110 100 110h7q72 0 72 -56q0 -110 -100 -110z " />
<glyph unicode="k" horiz-adv-x="506" d="M176 194l-32 -164q-6 -30 -41 -30h-91q-28 0 -28 18q0 8 6 40l116 590q6 29 40 29h91q28 0 28 -18q0 -10 -6 -40l-58 -297h10q6 0 23 21l97 124q11 14 21 18.5t30 4.5h112q17 0 17 -12q0 -7 -13 -23l-147 -172q-21 -24 -21 -33q0 -8 14 -39l79 -178q4 -10 3 -17 q-3 -16 -24 -16h-100q-21 0 -29.5 5.5t-13.5 20.5l-54 138q-11 30 -19 30h-10z" />
<glyph unicode="l" horiz-adv-x="308" d="M185 124h28q14 0 19 -4t5 -14q0 -8 -6 -38l-7 -34q-4 -21 -12.5 -27.5t-26.5 -6.5h-68q-76 0 -101 29q-16 19 -16 49q0 26 15 103l91 467q4 18 11.5 23.5t27.5 5.5h91q20 0 26 -6t3 -23l-90 -465q-8 -36 -8 -45q0 -14 18 -14z" />
<glyph unicode="m" horiz-adv-x="791" d="M468 306l-54 -277q-6 -29 -39 -29h-92q-19 0 -24.5 7t-2.5 22l54 277q3 16 3 28q0 37 -47 37q-28 0 -44 -13q-18 -15 -25 -52l-54 -277q-3 -16 -10.5 -22.5t-26.5 -6.5h-93q-29 0 -29 18q0 4 7 42l78 402q3 15 11 21.5t25 6.5h52q17 0 23.5 -5t7.5 -18l2 -21h3 q58 53 148 53h11q90 0 106 -53h3q58 53 149 53h8q129 0 129 -104q0 -35 -11 -94l-53 -272q-6 -29 -39 -29h-92q-19 0 -24.5 7t-2.5 22l54 277q3 16 3 28q0 37 -47 37q-27 0 -43 -13q-17 -14 -24 -52z" />
<glyph unicode="n" horiz-adv-x="523" d="M262 57l48 248q3 16 3 28q0 38 -48 38q-27 0 -44 -13q-17 -14 -24 -53l-54 -276q-3 -16 -10.5 -22.5t-26.5 -6.5h-93q-29 0 -29 18q0 4 7 42l78 402q6 28 36 28h52q15 0 21.5 -3.5t7.5 -14.5l3 -21h3q54 48 152 48h2q133 0 133 -104q0 -41 -11 -94l-54 -272 q-3 -16 -10.5 -22.5t-26.5 -6.5h-91q-30 0 -30 19q0 11 6 38z" />
<glyph unicode="o" horiz-adv-x="520" d="M177 274q-19 -82 -19 -117q0 -41 47 -41h2q32 0 49 13q24 19 39 87q19 82 19 117q0 41 -47 41h-2q-32 0 -49 -13q-23 -18 -39 -87zM199 -9h-20q-92 0 -139 39q-42 35 -42 103q0 57 29 181q13 56 34.5 90.5t58.5 58.5q57 36 157 36h18q92 0 139 -39q42 -35 42 -103 q0 -65 -29 -178q-16 -62 -36 -96.5t-52 -54.5q-58 -37 -160 -37z" />
<glyph unicode="p" horiz-adv-x="531" d="M188 451q59 48 158 48h7q137 0 137 -120q0 -38 -25 -171q-13 -69 -29 -110t-46 -66q-50 -41 -147 -41h-5q-58 0 -98 20l-30 -153q-4 -21 -13.5 -28t-35.5 -7h-78q-33 0 -33 19q0 11 6 42l114 581q3 14 10.5 19.5t24.5 5.5h48q16 0 22.5 -4t7.5 -15l3 -20h2zM197 305 l-20 -102q-8 -38 -8 -51q0 -36 51 -36h5q42 0 56.5 22.5t28.5 84.5q17 80 17 108q0 42 -51 42h-7q-32 0 -48.5 -14.5t-23.5 -53.5z" />
<glyph unicode="q" horiz-adv-x="526" d="M502 464l-117 -606q-5 -22 -13 -28.5t-33 -6.5h-81q-33 0 -33 19q0 11 6 42l25 128q-42 -21 -106 -21h-4q-148 0 -148 135q0 36 8 79l16 84q22 117 73.5 163.5t152.5 46.5h10q94 0 123 -48h2l9 20q5 12 10.5 15.5t17.5 3.5h63q24 0 19 -26zM290 184l17 86q8 40 8 62 t-11.5 31.5t-38.5 9.5h-4q-39 0 -55 -18q-13 -16 -23 -67l-13 -65q-10 -52 -10 -67q0 -40 50 -40h5q31 0 48 12q19 13 27 56z" />
<glyph unicode="r" horiz-adv-x="370" d="M-9 60l78 402q3 16 10.5 22t25.5 6h52q28 0 29 -21l2 -30h2q39 51 121 51h46q19 0 19 -11q0 -5 -6 -41l-9 -49q-3 -16 -9.5 -22t-21.5 -6h-28q-57 0 -81 -21q-21 -19 -33 -81l-45 -230q-3 -16 -10.5 -22.5t-26.5 -6.5h-93q-29 0 -29 18q0 7 7 42z" />
<glyph unicode="s" horiz-adv-x="453" d="M157 -9h-6q-36 0 -82 8t-73 19q-12 5 -14 14t4 27l19 63q6 19 21 19q6 0 49 -12.5t82 -12.5h2q36 0 52 7.5t16 26.5q0 11 -11.5 16.5t-53.5 16.5l-16 4q-55 14 -79 38q-31 31 -31 91q0 93 54.5 138t172.5 45h5q72 0 130 -18q13 -4 13 -13q0 -6 -9 -37l-15 -55 q-4 -15 -17 -15q-5 0 -41.5 6.5t-62.5 6.5h-2q-67 0 -67 -30q0 -11 10.5 -17.5t48.5 -15.5l16 -4q66 -16 91 -43q25 -26 25 -73q0 -200 -231 -200z" />
<glyph unicode="t" horiz-adv-x="387" d="M306 62l-5 -25q-5 -22 -12 -29.5t-26 -7.5h-80q-107 0 -133 37q-14 20 -14 50t8 71l41 207h-53q-22 0 -22 13q0 7 4 28l7 33q4 18 10 25t23 11l55 13l19 98q5 29 39 29h91q19 0 24.5 -7t3.5 -22l-19 -96h83q21 0 21 -13q0 -5 -6 -35l-9 -48q-4 -18 -10 -23.5t-20 -5.5 h-83l-38 -196q-3 -15 -3 -23q0 -13 9 -17.5t32 -4.5h46q14 0 19 -3.5t5 -13.5q0 -7 -7 -45z" />
<glyph unicode="u" horiz-adv-x="514" d="M485 434l-52 -266q-19 -98 -70 -135q-58 -42 -167 -42h-11q-88 0 -136 30.5t-48 90.5q0 26 10 76l53 273q3 16 11.5 22.5t27.5 6.5h91q30 0 30 -17q0 -9 -10 -57l-46 -237q-3 -15 -3 -27q0 -32 44 -32h4q23 0 41 13q15 13 23 51l54 277q3 16 11.5 22.5t27.5 6.5h91 q30 0 30 -19q0 -7 -6 -37z" />
<glyph unicode="v" horiz-adv-x="490" d="M498 477q0 -14 -22 -60q-111 -239 -213 -397q-14 -20 -39 -20h-99q-28 0 -33 21q-24 87 -44 213.5t-26 226.5q-1 16 5.5 22.5t24.5 6.5h93q17 0 22.5 -4t6.5 -19q6 -166 27 -295h4q68 126 136 291q7 17 14.5 22t23.5 5h96q23 0 23 -13z" />
<glyph unicode="w" horiz-adv-x="689" d="M310 466h90q16 0 21.5 -5.5t5.5 -18.5q-2 -157 2 -269h3q67 167 104 295q6 22 33 22h103q20 0 20 -12q0 -13 -16 -52q-92 -229 -173 -402q-7 -15 -15.5 -19.5t-25.5 -4.5h-93q-32 0 -34 23q-11 154 -8 258h-4q-23 -61 -106 -258q-10 -23 -40 -23h-96q-31 0 -34 22 q-23 186 -25 438q0 17 7.5 23.5t24.5 6.5h97q26 0 26 -18q0 -15 -2 -53q-7 -150 -6 -246h4q78 195 103 270q5 14 11.5 18.5t22.5 4.5z" />
<glyph unicode="x" horiz-adv-x="518" d="M217 156l-85 -135q-14 -21 -40 -21h-125q-17 0 -17 13q0 9 32 52l125 168q11 18 11 27q0 4 -3 12l-67 162q-13 31 -13 41q0 15 23 15h111q18 0 24 -3.5t10 -17.5l38 -136q3 -10 8 -10t9 7l83 135q11 16 19 20.5t27 4.5h114q19 0 19 -12q0 -8 -27 -44l-134 -173 q-11 -16 -11 -25q0 -6 3 -14l73 -153q20 -42 20 -53q0 -16 -24 -16h-100q-16 0 -23 5.5t-13 19.5l-50 128q-3 10 -8 10q-4 0 -9 -7z" />
<glyph unicode="y" horiz-adv-x="488" d="M492 460q-134 -334 -329 -641q-14 -23 -31 -23q-8 0 -30 9l-53 21q-21 9 -21 22q0 8 9 21q47 68 79 123q-40 13 -52 74q-23 124 -41 395q-1 15 8.5 22t27.5 7h84q17 0 23.5 -4.5t6.5 -19.5q3 -181 17 -334h5q89 180 142 331q9 27 38 27h96q34 0 21 -30z" />
<glyph unicode="z" horiz-adv-x="441" d="M211 363h-161q-19 0 -19 14q0 5 6 40l8 44q4 18 10.5 23.5t21.5 5.5h340q20 0 20 -17q0 -9 -4 -31q-6 -36 -36 -71l-218 -244h166q25 0 25 -17q0 -2 -8 -45l-8 -42q-2 -13 -8.5 -18t-21.5 -5h-340q-27 0 -27 18q0 9 6 34q10 41 36 71z" />
<glyph unicode="{" horiz-adv-x="400" d="M193 298l-1 -4q65 -22 47 -114l-17 -88q-4 -17 -4 -28q0 -13 22 -13h49q19 0 19 -15q0 -8 -4 -29l-12 -63q-4 -17 -11.5 -23t-26.5 -6h-87q-113 0 -113 88q0 23 6 57l23 117q4 22 -7 33.5t-40 16.5q-19 3 -19 18q0 9 4 26l13 65q3 16 9.5 21.5t19.5 7.5q59 8 66 50 l23 117q15 79 54 112t109 33h92q23 0 23 -16q0 -8 -4 -27l-13 -66q-5 -27 -31 -27h-47q-26 0 -31 -27l-20 -102q-19 -96 -91 -114z" />
<glyph unicode="|" horiz-adv-x="280" d="M6 39l118 610q4 21 14 29t37 8h71q34 0 34 -23q0 -5 -6 -39l-118 -610q-4 -21 -14 -29t-37 -8h-71q-34 0 -34 23q0 10 6 39z" />
<glyph unicode="}" horiz-adv-x="400" d="M192 294l1 4q-65 22 -47 114l17 88q4 17 4 28q0 13 -22 13h-49q-19 0 -19 15q0 8 4 29l12 63q4 17 11.5 23t26.5 6h87q113 0 113 -88q0 -23 -6 -57l-23 -117q-4 -22 7 -33.5t40 -16.5q19 -3 19 -18q0 -9 -4 -26l-13 -65q-3 -16 -9.5 -21.5t-19.5 -7.5q-59 -8 -66 -50 l-23 -117q-15 -79 -54 -112t-109 -33h-92q-23 0 -23 16q0 8 4 27l13 66q4 27 31 27h47q26 0 31 27l20 102q19 96 91 114z" />
<glyph unicode="~" horiz-adv-x="570" d="M469 394l44 -30q12 -8 12 -18q0 -13 -18 -40q-70 -99 -151 -99q-41 0 -92.5 28.5t-75.5 28.5q-33 0 -61 -42q-14 -22 -36 -7l-44 30q-12 8 -12 18q0 13 18 40q70 99 151 99q41 0 92.5 -28.5t75.5 -28.5q33 0 61 42q14 22 36 7z" />
<glyph unicode="&#xa1;" horiz-adv-x="255" d="M74 -174h-90q-36 0 -36 22q0 8 11 52l85 352q6 24 15 30.5t33 6.5h61q27 0 27 -22q0 -12 -3 -30l-54 -369q-4 -26 -13.5 -34t-35.5 -8zM161 499h3q33 0 52 -16t19 -47q0 -47 -27 -75t-76 -28h-3q-33 0 -52 16t-19 47q0 47 27 75t76 28z" />
<glyph unicode="&#xa2;" d="M240 -76l13 67h-7q-111 0 -150 49q-26 31 -26 89q0 39 10 93l14 76q22 115 86 160q58 41 155 41h17l13 67q3 14 15 14h29q15 0 12 -14l-15 -74q49 -9 86 -27q15 -7 15 -19q0 -9 -11 -34l-21 -47q-9 -19 -20 -19q-6 0 -18 5q-32 14 -55 19l-49 -253q39 5 64 14q8 3 16 3 q14 0 15 -17l5 -50q2 -22 2 -30q0 -16 -27 -24q-48 -15 -99 -19l-13 -70q-3 -14 -17 -14h-29q-13 0 -10 14zM232 167q0 -43 45 -50l50 254q-25 -4 -43 -19q-26 -23 -37 -84l-8 -45q-7 -38 -7 -56z" />
<glyph unicode="&#xa3;" d="M297 263l-3 -16q-7 -39 -26.5 -71t-43.5 -48h243q17 0 22.5 -7.5t2.5 -24.5l-13 -66q-4 -18 -11 -24t-26 -6h-422q-16 0 -21.5 5.5t-2.5 19.5l12 60q3 18 20 27q46 24 69 55.5t31 77.5l4 18h-68q-24 0 -18 22l15 62q5 17 22 19l70 10l12 58q22 108 64 155q60 67 180 67h2 q83 0 153 -26q17 -6 19.5 -16t-3.5 -25l-24 -66q-5 -14 -13.5 -16.5t-28.5 4.5q-55 19 -90 19q-45 0 -66 -25q-17 -20 -27 -72l-10 -51h141q16 0 20.5 -6t1.5 -23l-13 -68q-3 -14 -8.5 -18t-19.5 -4h-146z" />
<glyph unicode="&#xa4;" d="M272 227q38 0 59 25t21 58q0 25 -14.5 40t-40.5 16q-38 0 -59 -25t-21 -58q0 -26 15 -41t40 -15zM246 98q-40 0 -75 15l-66 -54q-23 -19 -38 0l-49 63q-17 22 6 41l64 52q-4 24 -4 39q0 79 43 134l-44 50q-15 18 10 41l67 58q21 18 37 0l47 -55q36 13 79 13q40 0 75 -15 l66 54q23 19 38 0l49 -63q17 -22 -6 -41l-64 -52q4 -24 4 -39q0 -79 -43 -134l44 -50q15 -18 -10 -41l-67 -58q-21 -18 -37 0l-47 55q-36 -13 -79 -13z" />
<glyph unicode="&#xa5;" d="M276 0h-97q-19 0 -24.5 6.5t-1.5 24.5l10 54h-122q-14 0 -17 5.5t0 20.5l9 48q3 16 8.5 21t18.5 5h123l-10 40h-105q-14 0 -17 5.5t0 20.5l9 48q3 16 8.5 21t18.5 5h58q-39 158 -49 289q-3 33 24 33h101q18 0 23.5 -1t10 -6t5.5 -17q9 -145 32 -284h5q59 104 142 284 q5 12 11 17t12 6t24 1h98q26 0 12 -33q-65 -140 -161 -289h54q14 0 17 -5.5t0 -20.5l-9 -48q-3 -16 -8.5 -21t-18.5 -5h-102l-26 -40h120q14 0 17 -5.5t0 -20.5l-9 -48q-3 -16 -8.5 -21t-18.5 -5h-119l-10 -54q-4 -18 -11.5 -24.5t-26.5 -6.5z" />
<glyph unicode="&#xa6;" horiz-adv-x="280" d="M197 224l-40 -204q-5 -27 -18 -35t-43 -8h-56q-40 0 -40 26q0 9 6 39l39 197q5 28 14.5 35.5t31.5 7.5h81q17 0 23.5 -4.5t6.5 -16.5q0 -10 -5 -37zM83 439l40 204q5 27 18 35t43 8h56q40 0 40 -26q0 -9 -6 -39l-39 -197q-5 -28 -14.5 -35.5t-31.5 -7.5h-81 q-17 0 -23.5 4.5t-6.5 16.5q0 10 5 37z" />
<glyph unicode="&#xa7;" horiz-adv-x="494" d="M202 366q-19 -15 -19 -32q0 -22 45 -32l48 -11q17 15 17 37q0 18 -50 29zM398 516q-50 14 -86 14h-4q-59 0 -59 -25q0 -12 59 -25l36 -8q56 -12 81 -31.5t24 -52.5q0 -76 -82 -123q45 -21 45 -84q0 -95 -60.5 -142.5t-171.5 -47.5h-12q-77 0 -150 30q-20 8 -20 19 q0 10 11 36l21 48q10 24 21 24q8 0 18 -4q61 -25 115 -25h5q58 0 58 27q0 10 -11 15.5t-40 11.5l-37 8q-65 14 -90.5 38t-25.5 60q0 71 81 111q-39 24 -41 85q0 24 5 46q17 70 81 102.5t147 32.5h7q77 0 135 -22q12 -4 12 -14q0 -9 -11 -35l-25 -60q-6 -14 -15 -14 q-4 0 -21 5z" />
<glyph unicode="&#xa8;" horiz-adv-x="391" d="M143 567h-7q-25 0 -39 12t-14 34q0 11 3 23l1 4q8 33 25 49t51 16h7q25 0 39 -12t14 -34q0 -11 -3 -23l-1 -4q-8 -33 -25 -49t-51 -16zM329 567h-7q-25 0 -39 12t-14 34q0 11 3 23l1 4q8 33 25 49t51 16h7q25 0 39 -12t14 -34q0 -11 -3 -23l-1 -4q-8 -33 -25 -49t-51 -16 z" />
<glyph unicode="&#xa9;" horiz-adv-x="844" d="M675 415q0 86 -54 136.5t-159 50.5q-135 0 -214 -92t-79 -230q0 -86 54 -136.5t159 -50.5q135 0 214 92t79 230zM364 -15q-156 0 -239 79t-83 213q0 183 122.5 308t315.5 125q156 0 239 -79t83 -213q0 -183 -122.5 -308t-315.5 -125zM502 249l5 -39q1 -12 -5 -18.5 t-23 -12.5q-49 -17 -95 -17q-67 0 -97.5 25t-30.5 77q0 24 6 55l12 65q15 82 55.5 116.5t114.5 34.5q56 0 104 -21q10 -4 12 -10.5t-3 -20.5l-13 -38q-4 -11 -9 -13t-18 2q-38 14 -67 14q-28 0 -41 -13t-20 -47l-15 -77q-4 -20 -4 -30q0 -32 45 -32q23 0 64 12q20 6 23 -12z " />
<glyph unicode="&#xaa;" horiz-adv-x="343" d="M217 299l-1 15h-2q-21 -34 -88 -34h-10q-42 0 -63.5 22t-21.5 52q0 33 6 53q22 78 141 78h6q30 0 49 -3q3 14 3 20q0 26 -46 26h-3q-30 0 -71 -11q-6 -2 -12 -2t-8 14l-2 19q-3 27 -3 28q0 12 11 15q56 18 122 18h5q50 0 79 -16q33 -19 33 -59q0 -24 -11 -85l-29 -143 q-4 -19 -22 -19h-45q-16 0 -17 12zM216 396l4 19q-18 2 -39 2h-5q-22 0 -31 -4.5t-14 -17.5q-3 -7 -3 -19q0 -22 30 -22h6q24 0 35 10q13 10 17 32z" />
<glyph unicode="&#xab;" horiz-adv-x="741" d="M353 337l-157 -118l96 -104q13 -14 13 -25q0 -13 -18 -28l-47 -37q-20 -15 -27 -15q-10 0 -22 12l-164 157q-18 18 -18 36q0 11 3 24q5 19 11 28t25 22l224 156q15 11 24 11q10 0 22 -15l36 -45q17 -21 17 -32q0 -13 -18 -27zM686 337l-157 -118l96 -104q13 -14 13 -25 q0 -13 -18 -28l-47 -37q-19 -15 -27 -15q-10 0 -22 12l-164 157q-18 18 -18 36q0 11 3 24q5 19 11 28t25 22l224 156q15 11 24 11q10 0 22 -15l36 -45q17 -21 17 -32q0 -13 -18 -27z" />
<glyph unicode="&#xac;" d="M364 32q-20 0 -27 7.5t-3 25.5l24 124h-299q-19 0 -24.5 8.5t-1.5 27.5l12 62q5 24 12.5 32t27.5 8h398q20 0 27 -9.5t3 -30.5l-43 -222q-4 -19 -11.5 -26t-27.5 -7h-67z" />
<glyph unicode="&#xad;" horiz-adv-x="364" d="M276 188h-220q-24 0 -32 6.5t-8 25.5v75q0 18 9 25t31 7h220q22 0 31 -7t9 -25v-75q0 -19 -8 -25.5t-32 -6.5z" />
<glyph unicode="&#xae;" horiz-adv-x="844" d="M385 291l-19 -102q-2 -12 -8 -16.5t-23 -4.5h-48q-18 0 -23 4.5t-3 16.5l59 305q3 17 9.5 24.5t24.5 9.5q29 4 95 4q133 0 133 -97q0 -42 -24.5 -77.5t-69.5 -53.5l51 -109q7 -14 3 -20.5t-24 -6.5h-63q-14 0 -19.5 3.5t-9.5 15.5l-39 104h-2zM438 448q-14 0 -20 -1 l-15 -78h17q27 0 38 10q16 14 16 41q0 28 -36 28zM675 415q0 86 -54 136.5t-159 50.5q-135 0 -214 -92t-79 -230q0 -86 54 -136.5t159 -50.5q135 0 214 92t79 230zM364 -15q-156 0 -239 79t-83 213q0 183 122.5 308t315.5 125q156 0 239 -79t83 -213q0 -183 -122.5 -308 t-315.5 -125z" />
<glyph unicode="&#xaf;" horiz-adv-x="392" d="M139 681h229q12 0 15.5 -5t1.5 -19l-9 -49q-3 -16 -8 -20.5t-19 -4.5h-229q-12 0 -15.5 5t-1.5 19l9 49q3 16 8 20.5t19 4.5z" />
<glyph unicode="&#xb0;" horiz-adv-x="364" d="M71 572q-1 73 49.5 126t130.5 53q55 0 90 -34.5t35 -87.5q0 -79 -51 -128t-128 -49q-54 0 -89.5 34t-36.5 86zM213 553q22 0 38 17t16 42q0 16 -10 26.5t-26 10.5q-22 0 -38 -17t-16 -42q0 -16 10 -26.5t26 -10.5z" />
<glyph unicode="&#xb1;" d="M357 338l-24 -124q-4 -20 -11.5 -26.5t-31.5 -6.5h-70q-23 0 -28.5 7.5t-1.5 30.5l23 119h-119q-18 0 -23 8t-1 26l11 58q5 24 12 31t26 7h119l24 124q4 20 11.5 26.5t31.5 6.5h70q23 0 28.5 -7.5t1.5 -30.5l-23 -119h119q18 0 23 -8t1 -26l-11 -58q-5 -24 -12 -31 t-26 -7h-119zM421 0h-403q-19 0 -24.5 8.5t-1.5 27.5l12 62q5 24 12.5 32t27.5 8h403q19 0 24.5 -8.5t1.5 -27.5l-12 -62q-5 -24 -12.5 -32t-27.5 -8z" />
<glyph unicode="&#xb2;" horiz-adv-x="448" d="M239 521h133q16 0 19.5 -5t-0.5 -24l-10 -50q-4 -18 -9 -23t-20 -5h-234q-20 0 -25 6.5t-1 27.5l6 34q11 58 36 90t80 57l33 15q34 15 45.5 24.5t11.5 22.5q0 22 -34 22q-36 0 -86 -15q-20 -6 -24 14l-12 64q-4 20 17 27q65 20 133 20h4q64 0 98.5 -28t34.5 -82 q0 -52 -21 -82t-83 -58l-35 -16q-52 -24 -57 -36z" />
<glyph unicode="&#xb3;" horiz-adv-x="448" d="M88 468l18 55q7 23 30 16q51 -15 89 -15q51 0 51 36q0 19 -38 19h-21q-13 0 -16.5 4t-1.5 17l8 39q2 12 7 16.5t18 4.5h17q51 0 51 31q0 23 -35 23q-33 0 -81 -8q-21 -4 -22 19l-3 49q-1 15 4.5 21.5t20.5 11.5q53 16 114 16h2q135 0 135 -94q0 -78 -65 -106v-3 q36 -18 36 -62q0 -66 -49 -104.5t-126 -38.5h-2q-67 0 -126 19q-14 4 -17 11.5t2 22.5z" />
<glyph unicode="&#xb4;" horiz-adv-x="414" d="M155 634l176 129q13 9 21 9q10 0 17 -13l36 -62q5 -8 5 -15q0 -12 -23 -26l-175 -105q-11 -7 -19 -7q-9 0 -18 13l-29 44q-6 9 -6 14q0 8 15 19z" />
<glyph unicode="&#xb6;" horiz-adv-x="664" d="M438 -108h-95q-22 0 -22 16q0 10 5 35l113 582h-63l-117 -604q-4 -18 -12.5 -23.5t-26.5 -5.5h-95q-22 0 -22 16q0 10 5 35l65 332q-65 12 -99 53.5t-33 106.5q0 82 60 144q74 77 236 77h343q19 0 19 -12q0 -6 -4 -25l-13 -71q-4 -23 -28 -23h-60l-117 -604 q-4 -18 -12.5 -23.5t-26.5 -5.5z" />
<glyph unicode="&#xb7;" horiz-adv-x="241" d="M200 330q0 -26 -7 -53q-10 -42 -32 -58t-61 -16h-9q-68 0 -68 50q0 22 6 50q10 42 32.5 58t61.5 16h9q68 0 68 -47z" />
<glyph unicode="&#xb8;" horiz-adv-x="444" d="M212 -12l-18 -41q15 3 28 3q33 0 53.5 -17.5t21.5 -53.5q0 -53 -38.5 -87.5t-99.5 -34.5q-63 0 -99 15q-16 6 -10 26l11 35q6 18 25 12q32 -10 64 -10q37 0 37 27q0 16 -26 16h-3q-11 0 -25 -2.5t-18 -2.5q-6 0 -11 7l-9 14q-4 7 -4 13q0 5 7 21l31 64q7 13 18 13h54 q19 0 11 -17z" />
<glyph unicode="&#xb9;" horiz-adv-x="448" d="M360 414h-242q-26 0 -20 28l11 58q3 17 8.5 22.5t20.5 5.5h61l28 142h-4l-54 -24q-15 -7 -22 -5t-12 14l-22 50q-7 13 -5.5 21t13.5 14l123 60q31 16 62 16h48q16 0 21 -6t2 -22l-51 -260h55q16 0 20 -5.5t1 -22.5l-11 -58q-3 -18 -8.5 -23t-22.5 -5z" />
<glyph unicode="&#xba;" horiz-adv-x="356" d="M236 419q12 57 12 74q0 28 -31 28h-4q-20 0 -32 -12t-18 -42q-12 -58 -12 -72q0 -27 33 -27h4q20 0 30.5 10.5t17.5 40.5zM341 426q-15 -78 -53 -112t-114 -34h-6q-122 0 -122 95q0 28 12 88q15 77 54.5 111.5t113.5 34.5h6q121 0 121 -94q0 -28 -12 -89z" />
<glyph unicode="&#xbb;" horiz-adv-x="741" d="M23 129l157 118l-96 104q-13 14 -13 25q0 13 18 28l47 37q20 15 27 15q10 0 22 -12l164 -157q18 -18 18 -36q0 -11 -3 -24q-5 -19 -11 -28t-25 -22l-224 -156q-15 -11 -24 -11q-10 0 -22 15l-36 45q-17 21 -17 32q0 13 18 27zM357 129l157 118l-96 104q-13 14 -13 25 q0 13 18 28l47 37q20 15 27 15q10 0 22 -12l164 -157q18 -18 18 -36q0 -11 -3 -24q-5 -19 -11 -28t-25 -22l-224 -156q-15 -11 -24 -11q-10 0 -22 15l-36 45q-17 21 -17 32q0 13 18 27z" />
<glyph unicode="&#xbc;" horiz-adv-x="1046" d="M921 86h-27l-12 -62q-3 -14 -9 -19t-22 -5h-72q-14 0 -19 5t-3 18l13 63h-151q-16 0 -20.5 5t-1.5 21l5 25q5 22 28 50l157 188q22 27 49 27h88q19 0 23.5 -6.5t1.5 -24.5l-36 -187h27q11 0 14.5 -4.5t1.5 -17.5l-10 -52q-3 -16 -8 -20t-17 -4zM805 280l-76 -96h60l18 96 h-2zM340 244h-242q-26 0 -20 28l11 58q3 17 8.5 22.5t20.5 5.5h61l28 142h-4l-54 -24q-15 -7 -22 -5t-12 14l-22 50q-7 13 -5.5 21t13.5 14l123 60q31 16 62 16h48q16 0 21 -6t2 -22l-51 -260h55q16 0 20 -5.5t1 -22.5l-11 -58q-3 -18 -8.5 -23t-22.5 -5zM241 17l476 621 q14 18 39 18h86q13 0 17.5 -7.5t-3.5 -18.5l-476 -621q-14 -18 -39 -18h-86q-13 0 -17.5 7.5t3.5 18.5z" />
<glyph unicode="&#xbd;" horiz-adv-x="1046" d="M233 17l476 621q14 18 39 18h86q13 0 17.5 -7.5t-3.5 -18.5l-476 -621q-14 -18 -39 -18h-86q-13 0 -17.5 7.5t3.5 18.5zM338 244h-242q-26 0 -20 28l11 58q3 17 8.5 22.5t20.5 5.5h61l28 142h-4l-54 -24q-15 -7 -22 -5t-12 14l-22 50q-7 13 -5.5 21t13.5 14l123 60 q31 16 62 16h48q16 0 21 -6t2 -22l-51 -260h55q16 0 20 -5.5t1 -22.5l-11 -58q-3 -18 -8.5 -23t-22.5 -5zM788 109h133q16 0 19.5 -5t-0.5 -24l-10 -50q-4 -18 -9 -23t-20 -5h-234q-20 0 -25 6.5t-1 27.5l6 34q11 58 36 90t80 57l33 15q34 15 45.5 24.5t11.5 22.5 q0 22 -34 22q-36 0 -86 -15q-20 -6 -24 14l-12 64q-4 20 17 27q65 20 133 20h4q64 0 98.5 -28t34.5 -82q0 -52 -21 -82t-83 -58l-35 -16q-52 -24 -57 -36z" />
<glyph unicode="&#xbe;" horiz-adv-x="1046" d="M906 86h-27l-12 -62q-3 -14 -9 -19t-22 -5h-72q-14 0 -19 5t-3 18l13 63h-151q-16 0 -20.5 5t-1.5 21l5 25q5 22 28 50l157 188q22 27 49 27h88q19 0 23.5 -6.5t1.5 -24.5l-36 -187h27q11 0 14.5 -4.5t1.5 -17.5l-10 -52q-3 -16 -8 -20t-17 -4zM790 280l-76 -96h60l18 96 h-2zM230 17l476 621q14 18 39 18h86q13 0 17.5 -7.5t-3.5 -18.5l-476 -621q-14 -18 -39 -18h-86q-13 0 -17.5 7.5t3.5 18.5zM74 297l18 55q7 23 30 16q51 -15 89 -15q51 0 51 36q0 19 -38 19h-21q-13 0 -16.5 4t-1.5 17l8 39q2 12 7 16.5t18 4.5h17q51 0 51 31q0 23 -35 23 q-33 0 -81 -8q-21 -4 -22 19l-3 49q-1 15 4.5 21.5t20.5 11.5q53 16 114 16h2q135 0 135 -94q0 -78 -65 -106v-3q36 -18 36 -62q0 -66 -49 -104.5t-126 -38.5h-2q-67 0 -126 19q-14 4 -17 11.5t2 22.5z" />
<glyph unicode="&#xbf;" horiz-adv-x="463" d="M220 271q3 17 26 17h82q16 0 16 -12q0 -57 -24 -96.5t-84 -71.5l-34 -18q-42 -22 -58 -39t-16 -47q0 -40 59 -40h3q48 0 122 23q27 9 31 -11l16 -74q4 -13 0 -21.5t-21 -14.5q-86 -32 -192 -32h-4q-178 0 -178 141q0 74 28.5 114t101.5 78l34 18q52 28 69.5 44t22.5 42z M320 499h3q33 0 52 -16t19 -47q0 -47 -27 -75t-76 -28h-3q-33 0 -52 16t-19 47q0 47 27 75t76 28z" />
<glyph unicode="&#xc0;" horiz-adv-x="605" d="M220 248h129q-4 84 -14 224h-11q-87 -186 -104 -224zM360 33l-7 83h-187l-39 -83q-10 -20 -20 -26.5t-39 -6.5h-89q-29 0 -29 19q0 12 13 40q140 289 278 543q14 25 31.5 35t47.5 10h86q30 0 44 -10t17 -35q27 -197 62 -525q4 -46 4 -53q0 -24 -40 -24h-88q-23 0 -33.5 7 t-11.5 26zM311 906l169 -122q9 -6 9 -15t-12 -25l-29 -39q-13 -17 -23 -17q-8 0 -20 6l-177 99q-15 8 -15 21q0 7 8 19l46 69q9 14 21 14q10 0 23 -10z" />
<glyph unicode="&#xc1;" horiz-adv-x="605" d="M220 248h129q-4 84 -14 224h-11q-87 -186 -104 -224zM360 33l-7 83h-187l-39 -83q-10 -20 -20 -26.5t-39 -6.5h-89q-29 0 -29 19q0 12 13 40q140 289 278 543q14 25 31.5 35t47.5 10h86q30 0 44 -10t17 -35q27 -197 62 -525q4 -46 4 -53q0 -24 -40 -24h-88q-23 0 -33.5 7 t-11.5 26zM268 798l195 98q10 5 17 5q12 0 19 -16l26 -67q3 -7 3 -13q0 -13 -28 -24l-190 -74q-10 -4 -17 -4q-12 0 -19 16l-21 48q-3 7 -3 13q0 9 18 18z" />
<glyph unicode="&#xc2;" horiz-adv-x="605" d="M220 248h129q-4 84 -14 224h-11q-87 -186 -104 -224zM360 33l-7 83h-187l-39 -83q-10 -20 -20 -26.5t-39 -6.5h-89q-29 0 -29 19q0 12 13 40q140 289 278 543q14 25 31.5 35t47.5 10h86q30 0 44 -10t17 -35q27 -197 62 -525q4 -46 4 -53q0 -24 -40 -24h-88q-23 0 -33.5 7 t-11.5 26zM375 774l-83 -75q-12 -11 -20 -11q-6 0 -12 6l-38 37q-12 12 1 25l114 107q13 13 30 13h61q16 0 24 -13l70 -105q6 -9 6 -15q0 -8 -11 -15l-51 -33q-12 -7 -16 -7q-8 0 -16 11l-54 75h-5z" />
<glyph unicode="&#xc3;" horiz-adv-x="605" d="M220 248h129q-4 84 -14 224h-11q-87 -186 -104 -224zM360 33l-7 83h-187l-39 -83q-10 -20 -20 -26.5t-39 -6.5h-89q-29 0 -29 19q0 12 13 40q140 289 278 543q14 25 31.5 35t47.5 10h86q30 0 44 -10t17 -35q27 -197 62 -525q4 -46 4 -53q0 -24 -40 -24h-88q-23 0 -33.5 7 t-11.5 26zM435 800q24 0 50 37q10 14 26 4l37 -24q15 -9 5 -26q-56 -95 -129 -95q-34 0 -64.5 23t-47.5 23q-24 0 -50 -37q-10 -14 -26 -4l-37 24q-15 9 -5 26q56 95 129 95q35 0 65.5 -23t46.5 -23z" />
<glyph unicode="&#xc4;" horiz-adv-x="605" d="M220 248h129q-4 84 -14 224h-11q-87 -186 -104 -224zM360 33l-7 83h-187l-39 -83q-10 -20 -20 -26.5t-39 -6.5h-89q-29 0 -29 19q0 12 13 40q140 289 278 543q14 25 31.5 35t47.5 10h86q30 0 44 -10t17 -35q27 -197 62 -525q4 -46 4 -53q0 -24 -40 -24h-88q-23 0 -33.5 7 t-11.5 26zM279 724h-7q-25 0 -39 12t-14 34q0 11 3 23l1 4q8 33 25 49t51 16h7q25 0 39 -12t14 -34q0 -11 -3 -23l-1 -4q-8 -33 -25 -49t-51 -16zM465 724h-7q-25 0 -39 12t-14 34q0 11 3 23l1 4q8 33 25 49t51 16h7q25 0 39 -12t14 -34q0 -11 -3 -23l-1 -4q-8 -33 -25 -49 t-51 -16z" />
<glyph unicode="&#xc5;" horiz-adv-x="605" d="M220 248h129q-4 84 -14 224h-11q-87 -186 -104 -224zM360 33l-7 83h-187l-39 -83q-10 -20 -20 -26.5t-39 -6.5h-89q-29 0 -29 19q0 12 13 40q140 289 278 543q14 25 31.5 35t47.5 10h86q30 0 44 -10t17 -35q27 -197 62 -525q4 -46 4 -53q0 -24 -40 -24h-88q-23 0 -33.5 7 t-11.5 26zM378 752q14 0 24.5 10t10.5 26q0 22 -24 22q-14 0 -24.5 -10t-10.5 -26q0 -22 24 -22zM367 679q-38 0 -62 23t-24 61q0 51 34.5 85.5t84.5 34.5q40 0 63 -23t23 -61q0 -51 -34 -85.5t-85 -34.5z" />
<glyph unicode="&#xc6;" horiz-adv-x="905" d="M762 264h-208q-8 -43 -12 -71q-4 -25 -4 -42q0 -15 18 -15h208q26 0 26 -17q0 -9 -6 -46l-7 -42q-4 -18 -11.5 -24.5t-28.5 -6.5h-261q-56 0 -78.5 15.5t-22.5 56.5q0 18 3 44h-184l-55 -83q-14 -20 -25.5 -26.5t-40.5 -6.5h-88q-25 0 -25 19q0 10 21 40q246 359 379 543 q18 25 38 35t50 10h421q23 0 23 -13q0 -5 -7 -44l-9 -49q-4 -19 -10 -24.5t-29 -5.5h-207q-22 0 -28 -20q-8 -30 -22 -101h205q27 0 27 -13q0 -14 -8 -49l-9 -41q-5 -23 -33 -23zM437 511q-24 -37 -82.5 -132.5t-81.5 -130.5h124l15 87l36 176h-11z" />
<glyph unicode="&#xc7;" horiz-adv-x="555" d="M261 -12l-18 -41q15 3 28 3q33 0 53.5 -17.5t21.5 -53.5q0 -53 -38.5 -87.5t-99.5 -34.5q-63 0 -99 15q-16 6 -10 26l11 35q6 18 25 12q32 -10 64 -10q37 0 37 27q0 16 -26 16h-3q-11 0 -25 -2.5t-18 -2.5q-6 0 -11 7l-9 14q-4 7 -4 13q0 5 7 21l31 64v2l1 2 q-87 12 -122 62q-29 40 -29 109q0 54 37 234q16 77 37 122.5t57 75.5q67 57 202 57h7q99 0 177 -40q13 -6 13 -15q0 -11 -15 -45l-26 -57q-7 -15 -17 -15t-20 5q-59 27 -114 27h-4q-61 0 -92 -34q-24 -26 -42 -119q-25 -125 -25 -171q0 -32 22 -46.5t76 -14.5h6q62 0 126 23 q11 4 18 4q12 0 15 -19l6 -44q5 -35 5 -45q0 -17 -36 -30q-76 -27 -179 -29q-1 -1 -1 -3z" />
<glyph unicode="&#xc8;" horiz-adv-x="521" d="M408 264h-208q-8 -43 -12 -71q-4 -25 -4 -42q0 -15 18 -15h208q26 0 26 -17q0 -9 -6 -46l-7 -42q-4 -18 -11.5 -24.5t-28.5 -6.5h-261q-56 0 -78 15.5t-22 56.5q0 68 34 263q19 107 40 185q21 77 59.5 102t120.5 25h239q23 0 23 -13q0 -5 -7 -44l-9 -49q-4 -19 -10 -24.5 t-29 -5.5h-207q-22 0 -28 -20q-8 -30 -22 -101h205q27 0 27 -13q0 -14 -8 -49l-9 -41q-5 -23 -33 -23zM288 906l169 -122q9 -6 9 -15t-12 -25l-29 -39q-13 -17 -23 -17q-8 0 -20 6l-177 99q-15 8 -15 21q0 7 8 19l46 69q9 14 21 14q10 0 23 -10z" />
<glyph unicode="&#xc9;" horiz-adv-x="521" d="M408 264h-208q-8 -43 -12 -71q-4 -25 -4 -42q0 -15 18 -15h208q26 0 26 -17q0 -9 -6 -46l-7 -42q-4 -18 -11.5 -24.5t-28.5 -6.5h-261q-56 0 -78 15.5t-22 56.5q0 68 34 263q19 107 40 185q21 77 59.5 102t120.5 25h239q23 0 23 -13q0 -5 -7 -44l-9 -49q-4 -19 -10 -24.5 t-29 -5.5h-207q-22 0 -28 -20q-8 -30 -22 -101h205q27 0 27 -13q0 -14 -8 -49l-9 -41q-5 -23 -33 -23zM257 798l195 98q10 5 17 5q12 0 19 -16l26 -67q3 -7 3 -13q0 -13 -28 -24l-190 -74q-10 -4 -17 -4q-12 0 -19 16l-21 48q-3 7 -3 13q0 9 18 18z" />
<glyph unicode="&#xca;" horiz-adv-x="521" d="M408 264h-208q-8 -43 -12 -71q-4 -25 -4 -42q0 -15 18 -15h208q26 0 26 -17q0 -9 -6 -46l-7 -42q-4 -18 -11.5 -24.5t-28.5 -6.5h-261q-56 0 -78 15.5t-22 56.5q0 68 34 263q19 107 40 185q21 77 59.5 102t120.5 25h239q23 0 23 -13q0 -5 -7 -44l-9 -49q-4 -19 -10 -24.5 t-29 -5.5h-207q-22 0 -28 -20q-8 -30 -22 -101h205q27 0 27 -13q0 -14 -8 -49l-9 -41q-5 -23 -33 -23zM358 774l-83 -75q-12 -11 -20 -11q-6 0 -12 6l-38 37q-12 12 1 25l114 107q13 13 30 13h61q16 0 24 -13l70 -105q6 -9 6 -15q0 -8 -11 -15l-51 -33q-12 -7 -16 -7 q-8 0 -16 11l-54 75h-5z" />
<glyph unicode="&#xcb;" horiz-adv-x="521" d="M408 264h-208q-8 -43 -12 -71q-4 -25 -4 -42q0 -15 18 -15h208q26 0 26 -17q0 -9 -6 -46l-7 -42q-4 -18 -11.5 -24.5t-28.5 -6.5h-261q-56 0 -78 15.5t-22 56.5q0 68 34 263q19 107 40 185q21 77 59.5 102t120.5 25h239q23 0 23 -13q0 -5 -7 -44l-9 -49q-4 -19 -10 -24.5 t-29 -5.5h-207q-22 0 -28 -20q-8 -30 -22 -101h205q27 0 27 -13q0 -14 -8 -49l-9 -41q-5 -23 -33 -23zM256 724h-7q-25 0 -39 12t-14 34q0 11 3 23l1 4q8 33 25 49t51 16h7q25 0 39 -12t14 -34q0 -11 -3 -23l-1 -4q-8 -33 -25 -49t-51 -16zM442 724h-7q-25 0 -39 12t-14 34 q0 11 3 23l1 4q8 33 25 49t51 16h7q25 0 39 -12t14 -34q0 -11 -3 -23l-1 -4q-8 -33 -25 -49t-51 -16z" />
<glyph unicode="&#xcc;" horiz-adv-x="301" d="M285 590l-109 -564q-3 -17 -10 -21.5t-29 -4.5h-97q-31 0 -31 16q0 9 6 41l110 564q3 17 10 21.5t29 4.5h97q31 0 31 -16q0 -4 -1 -10t-3 -15t-3 -16zM156 906l169 -122q9 -6 9 -15t-12 -25l-29 -39q-13 -17 -23 -17q-8 0 -20 6l-177 99q-15 8 -15 21q0 7 8 19l46 69 q9 14 21 14q10 0 23 -10z" />
<glyph unicode="&#xcd;" horiz-adv-x="301" d="M285 590l-109 -564q-3 -17 -10 -21.5t-29 -4.5h-97q-31 0 -31 16q0 9 6 41l110 564q3 17 10 21.5t29 4.5h97q31 0 31 -16q0 -4 -1 -10t-3 -15t-3 -16zM144 798l195 98q10 5 17 5q12 0 19 -16l26 -67q3 -7 3 -13q0 -13 -28 -24l-190 -74q-10 -4 -17 -4q-12 0 -19 16 l-21 48q-3 7 -3 13q0 9 18 18z" />
<glyph unicode="&#xce;" horiz-adv-x="301" d="M285 590l-109 -564q-3 -17 -10 -21.5t-29 -4.5h-97q-31 0 -31 16q0 9 6 41l110 564q3 17 10 21.5t29 4.5h97q31 0 31 -16q0 -4 -1 -10t-3 -15t-3 -16zM229 774l-83 -75q-12 -11 -20 -11q-6 0 -12 6l-38 37q-12 12 1 25l114 107q13 13 30 13h61q16 0 24 -13l70 -105 q6 -9 6 -15q0 -8 -11 -15l-51 -33q-12 -7 -16 -7q-8 0 -16 11l-54 75h-5z" />
<glyph unicode="&#xcf;" horiz-adv-x="301" d="M285 590l-109 -564q-3 -17 -10 -21.5t-29 -4.5h-97q-31 0 -31 16q0 9 6 41l110 564q3 17 10 21.5t29 4.5h97q31 0 31 -16q0 -4 -1 -10t-3 -15t-3 -16zM135 724h-7q-25 0 -39 12t-14 34q0 11 3 23l1 4q8 33 25 49t51 16h7q25 0 39 -12t14 -34q0 -11 -3 -23l-1 -4 q-8 -33 -25 -49t-51 -16zM321 724h-7q-25 0 -39 12t-14 34q0 11 3 23l1 4q8 33 25 49t51 16h7q25 0 39 -12t14 -34q0 -11 -3 -23l-1 -4q-8 -33 -25 -49t-51 -16z" />
<glyph unicode="&#xd0;" horiz-adv-x="659" d="M228 0h-21q-102 0 -137 4q-30 3 -30 28q0 7 12 66l32 170h-51q-21 0 -21 14q0 3 4 27l8 41q3 16 9.5 22t20.5 6h51l44 225q4 23 13.5 30.5t28.5 9.5q66 6 170 6h11q169 0 222 -69q28 -36 34.5 -87.5t-5.5 -136.5q-17 -122 -45.5 -186t-75.5 -102q-83 -68 -274 -68z M315 510q-18 -1 -21 -17l-22 -115h69q21 0 21 -14q0 -3 -4 -27l-8 -41q-3 -16 -9.5 -22t-20.5 -6h-69l-12 -63q-9 -49 -9 -54q0 -10 13 -12q12 -1 38 -1h9q61 0 94 29q24 20 38 49.5t27 89.5q17 75 17 120q0 38 -17 59q-22 27 -83 27h-9q-20 0 -42 -2z" />
<glyph unicode="&#xd1;" horiz-adv-x="643" d="M387 28l-163 322h-2l-61 -316q-4 -21 -12 -27.5t-29 -6.5h-86q-28 0 -28 18q0 4 6 40l108 556q4 20 12.5 26.5t27.5 6.5h40q41 0 54 -28l161 -331h2l64 325q4 20 12.5 27t28.5 7h85q30 0 30 -17q0 -5 -8 -45l-107 -552q-6 -33 -40 -33h-41q-39 0 -54 28zM467 800 q24 0 50 37q10 14 26 4l37 -24q15 -9 5 -26q-56 -95 -129 -95q-34 0 -64.5 23t-47.5 23q-24 0 -50 -37q-10 -14 -26 -4l-37 24q-15 9 -5 26q56 95 129 95q35 0 65.5 -23t46.5 -23z" />
<glyph unicode="&#xd2;" horiz-adv-x="633" d="M414 305q20 104 20 139q0 34 -12 49q-19 23 -62 23h-12q-42 0 -70 -24q-34 -29 -57 -150q-21 -112 -21 -138q0 -33 13 -49q20 -24 62 -24h12q41 0 70 24q32 28 57 150zM579 285q-20 -105 -45 -158.5t-72 -86.5q-71 -49 -205 -49h-11q-116 0 -170 47q-48 41 -48 134 q0 58 27 196q19 99 47 154t81 91q63 43 192 43h8q118 0 171 -47q51 -45 51 -125q0 -64 -26 -199zM326 906l169 -122q9 -6 9 -15t-12 -25l-29 -39q-13 -17 -23 -17q-8 0 -20 6l-177 99q-15 8 -15 21q0 7 8 19l46 69q9 14 21 14q10 0 23 -10z" />
<glyph unicode="&#xd3;" horiz-adv-x="633" d="M414 305q20 104 20 139q0 34 -12 49q-19 23 -62 23h-12q-42 0 -70 -24q-34 -29 -57 -150q-21 -112 -21 -138q0 -33 13 -49q20 -24 62 -24h12q41 0 70 24q32 28 57 150zM579 285q-20 -105 -45 -158.5t-72 -86.5q-71 -49 -205 -49h-11q-116 0 -170 47q-48 41 -48 134 q0 58 27 196q19 99 47 154t81 91q63 43 192 43h8q118 0 171 -47q51 -45 51 -125q0 -64 -26 -199zM288 798l195 98q10 5 17 5q12 0 19 -16l26 -67q3 -7 3 -13q0 -13 -28 -24l-190 -74q-10 -4 -17 -4q-12 0 -19 16l-21 48q-3 7 -3 13q0 9 18 18z" />
<glyph unicode="&#xd4;" horiz-adv-x="633" d="M414 305q20 104 20 139q0 34 -12 49q-19 23 -62 23h-12q-42 0 -70 -24q-34 -29 -57 -150q-21 -112 -21 -138q0 -33 13 -49q20 -24 62 -24h12q41 0 70 24q32 28 57 150zM579 285q-20 -105 -45 -158.5t-72 -86.5q-71 -49 -205 -49h-11q-116 0 -170 47q-48 41 -48 134 q0 58 27 196q19 99 47 154t81 91q63 43 192 43h8q118 0 171 -47q51 -45 51 -125q0 -64 -26 -199zM385 774l-83 -75q-12 -11 -20 -11q-6 0 -12 6l-38 37q-12 12 1 25l114 107q13 13 30 13h61q16 0 24 -13l70 -105q6 -9 6 -15q0 -8 -11 -15l-51 -33q-12 -7 -16 -7q-8 0 -16 11 l-54 75h-5z" />
<glyph unicode="&#xd5;" horiz-adv-x="633" d="M414 305q20 104 20 139q0 34 -12 49q-19 23 -62 23h-12q-42 0 -70 -24q-34 -29 -57 -150q-21 -112 -21 -138q0 -33 13 -49q20 -24 62 -24h12q41 0 70 24q32 28 57 150zM579 285q-20 -105 -45 -158.5t-72 -86.5q-71 -49 -205 -49h-11q-116 0 -170 47q-48 41 -48 134 q0 58 27 196q19 99 47 154t81 91q63 43 192 43h8q118 0 171 -47q51 -45 51 -125q0 -64 -26 -199zM459 800q24 0 50 37q10 14 26 4l37 -24q15 -9 5 -26q-56 -95 -129 -95q-34 0 -64.5 23t-47.5 23q-24 0 -50 -37q-10 -14 -26 -4l-37 24q-15 9 -5 26q56 95 129 95 q35 0 65.5 -23t46.5 -23z" />
<glyph unicode="&#xd6;" horiz-adv-x="633" d="M414 305q20 104 20 139q0 34 -12 49q-19 23 -62 23h-12q-42 0 -70 -24q-34 -29 -57 -150q-21 -112 -21 -138q0 -33 13 -49q20 -24 62 -24h12q41 0 70 24q32 28 57 150zM579 285q-20 -105 -45 -158.5t-72 -86.5q-71 -49 -205 -49h-11q-116 0 -170 47q-48 41 -48 134 q0 58 27 196q19 99 47 154t81 91q63 43 192 43h8q118 0 171 -47q51 -45 51 -125q0 -64 -26 -199zM297 724h-7q-25 0 -39 12t-14 34q0 11 3 23l1 4q8 33 25 49t51 16h7q25 0 39 -12t14 -34q0 -11 -3 -23l-1 -4q-8 -33 -25 -49t-51 -16zM483 724h-7q-25 0 -39 12t-14 34 q0 11 3 23l1 4q8 33 25 49t51 16h7q25 0 39 -12t14 -34q0 -11 -3 -23l-1 -4q-8 -33 -25 -49t-51 -16z" />
<glyph unicode="&#xd7;" d="M481 338l-106 -87l70 -86q12 -15 10 -26.5t-20 -26.5l-59 -49q-17 -14 -28.5 -14.5t-23.5 13.5l-71 87l-106 -87q-30 -26 -52 1l-39 49q-12 16 -10 27t20 26l105 86l-67 85q-13 14 -11 26t21 27l59 49q18 15 29 15t23 -14l68 -86l107 88q31 26 52 -1l39 -49 q12 -16 10 -27t-20 -26z" />
<glyph unicode="&#xd8;" horiz-adv-x="633" d="M14 -12l48 64q-34 41 -34 120q0 58 27 196q19 99 47 154t81 91q63 43 192 43h8q66 0 115 -17l58 79q10 13 16 14.5t23 -8.5l21 -15q17 -13 18.5 -20t-9.5 -22l-55 -75q35 -43 35 -108q0 -64 -26 -199q-20 -105 -45 -158.5t-72 -86.5q-71 -49 -205 -49h-8q-57 0 -114 16 l-52 -70q-10 -13 -16 -14.5t-23 8.5l-21 15q-17 13 -18.5 20t9.5 22zM414 305q12 63 17 101l-198 -267q15 -8 42 -8h12q41 0 70 24q32 28 57 150zM221 342q-6 -30 -18 -99l198 266q-15 7 -41 7h-12q-42 0 -70 -24q-34 -29 -57 -150z" />
<glyph unicode="&#xd9;" horiz-adv-x="632" d="M276 601l-72 -370q-5 -28 -5 -44q0 -25 10 -36q16 -20 65 -20h5q49 0 73 20q23 19 35 80l75 385q4 21 11 26t30 5h98q27 0 27 -21q0 -7 -3 -25l-73 -375q-14 -70 -32.5 -110t-56.5 -70q-72 -55 -205 -55h-12q-133 0 -183 55q-35 41 -35 103q0 37 8 77l76 390q4 21 11 26 t30 5h99q27 0 27 -21q0 -7 -3 -25zM321 906l169 -122q9 -6 9 -15t-12 -25l-29 -39q-13 -17 -23 -17q-8 0 -20 6l-177 99q-15 8 -15 21q0 7 8 19l46 69q9 14 21 14q10 0 23 -10z" />
<glyph unicode="&#xda;" horiz-adv-x="632" d="M276 601l-72 -370q-5 -28 -5 -44q0 -25 10 -36q16 -20 65 -20h5q49 0 73 20q23 19 35 80l75 385q4 21 11 26t30 5h98q27 0 27 -21q0 -7 -3 -25l-73 -375q-14 -70 -32.5 -110t-56.5 -70q-72 -55 -205 -55h-12q-133 0 -183 55q-35 41 -35 103q0 37 8 77l76 390q4 21 11 26 t30 5h99q27 0 27 -21q0 -7 -3 -25zM297 798l195 98q10 5 17 5q12 0 19 -16l26 -67q3 -7 3 -13q0 -13 -28 -24l-190 -74q-10 -4 -17 -4q-12 0 -19 16l-21 48q-3 7 -3 13q0 9 18 18z" />
<glyph unicode="&#xdb;" horiz-adv-x="632" d="M276 601l-72 -370q-5 -28 -5 -44q0 -25 10 -36q16 -20 65 -20h5q49 0 73 20q23 19 35 80l75 385q4 21 11 26t30 5h98q27 0 27 -21q0 -7 -3 -25l-73 -375q-14 -70 -32.5 -110t-56.5 -70q-72 -55 -205 -55h-12q-133 0 -183 55q-35 41 -35 103q0 37 8 77l76 390q4 21 11 26 t30 5h99q27 0 27 -21q0 -7 -3 -25zM394 774l-83 -75q-12 -11 -20 -11q-6 0 -12 6l-38 37q-12 12 1 25l114 107q13 13 30 13h61q16 0 24 -13l70 -105q6 -9 6 -15q0 -8 -11 -15l-51 -33q-12 -7 -16 -7q-8 0 -16 11l-54 75h-5z" />
<glyph unicode="&#xdc;" horiz-adv-x="632" d="M276 601l-72 -370q-5 -28 -5 -44q0 -25 10 -36q16 -20 65 -20h5q49 0 73 20q23 19 35 80l75 385q4 21 11 26t30 5h98q27 0 27 -21q0 -7 -3 -25l-73 -375q-14 -70 -32.5 -110t-56.5 -70q-72 -55 -205 -55h-12q-133 0 -183 55q-35 41 -35 103q0 37 8 77l76 390q4 21 11 26 t30 5h99q27 0 27 -21q0 -7 -3 -25zM301 724h-7q-25 0 -39 12t-14 34q0 11 3 23l1 4q8 33 25 49t51 16h7q25 0 39 -12t14 -34q0 -11 -3 -23l-1 -4q-8 -33 -25 -49t-51 -16zM487 724h-7q-25 0 -39 12t-14 34q0 11 3 23l1 4q8 33 25 49t51 16h7q25 0 39 -12t14 -34 q0 -11 -3 -23l-1 -4q-8 -33 -25 -49t-51 -16z" />
<glyph unicode="&#xdd;" horiz-adv-x="530" d="M253 0h-103q-28 0 -28 17q0 10 7 42l26 132q-71 210 -88 423q-3 33 24 33h99q18 0 23.5 -1t10 -6t5.5 -17q8 -136 33 -284h5q54 95 141 284q7 18 14 21t31 3h104q20 0 20 -14q0 -10 -20 -52q-100 -208 -236 -394l-30 -156q-4 -18 -11.5 -24.5t-26.5 -6.5zM250 798l195 98 q10 5 17 5q12 0 19 -16l26 -67q3 -7 3 -13q0 -13 -28 -24l-190 -74q-10 -4 -17 -4q-12 0 -19 16l-21 48q-3 7 -3 13q0 9 18 18z" />
<glyph unicode="&#xde;" horiz-adv-x="576" d="M238 104h-50l-14 -72q-5 -21 -12 -26.5t-30 -5.5h-93q-19 0 -26 3t-7 13q0 2 8 44l109 564q4 21 11.5 26.5t30.5 5.5h93q19 0 26 -3t7 -13q0 -3 -19 -96q23 4 58 4h10q112 0 161.5 -36t49.5 -115q0 -82 -28 -151.5t-77 -99.5q-70 -42 -208 -42zM314 413h-9q-31 0 -49 -3 q-8 -1 -10 -12l-30 -157h52q54 0 78 21q35 30 35 103q0 27 -15.5 37.5t-51.5 10.5z" />
<glyph unicode="&#xdf;" d="M87 -84h-92q-19 0 -25 6.5t-2 24.5l98 498q23 119 72 171q66 70 199 70h4q196 0 196 -153q0 -112 -87 -168v-4q71 -27 71 -122q0 -115 -74 -187q-63 -61 -162 -61h-2q-42 0 -82 8q-23 5 -19 26l14 73q3 13 9.5 16.5t22.5 1.5q18 -2 34 -2h1q45 0 69 30q27 35 27 90 q0 34 -19 47q-16 11 -62 11h-19q-12 0 -16 4.5t-2 16.5l15 76q3 13 8 17t17 4h7q43 0 65 19q31 26 31 76q0 53 -62 53h-2q-42 0 -66 -30q-19 -25 -30 -80l-97 -501q-4 -19 -11.5 -25t-28.5 -6z" />
<glyph unicode="&#xe0;" horiz-adv-x="503" d="M273 38h-2q-36 -47 -138 -47h-3q-68 0 -104 32t-36 90q0 92 44 139q49 52 172 52h6q47 0 75 -4q6 22 6 34v2q0 38 -69 38h-3q-39 0 -85 -11q-35 -7 -38 -7q-14 0 -15 16l-5 51q-2 26 -2 32q0 13 15 18q82 26 180 26h3q96 0 142 -34q38 -29 38 -92q0 -40 -18 -131 l-43 -214q-3 -15 -11.5 -21.5t-27.5 -6.5h-52q-16 0 -21.5 4t-6.5 16zM264 169l5 28q-21 3 -55 3h-11q-69 0 -69 -57q0 -38 49 -38h5q35 0 53 15q15 12 23 49zM237 785l150 -145q7 -7 7 -14q0 -9 -16 -25l-34 -34q-14 -14 -23 -14q-8 0 -21 9l-161 123q-13 10 -13 20 q0 9 11 21l56 61q11 11 21 11q9 0 23 -13z" />
<glyph unicode="&#xe1;" horiz-adv-x="503" d="M273 38h-2q-36 -47 -138 -47h-3q-68 0 -104 32t-36 90q0 92 44 139q49 52 172 52h6q47 0 75 -4q6 22 6 34v2q0 38 -69 38h-3q-39 0 -85 -11q-35 -7 -38 -7q-14 0 -15 16l-5 51q-2 26 -2 32q0 13 15 18q82 26 180 26h3q96 0 142 -34q38 -29 38 -92q0 -40 -18 -131 l-43 -214q-3 -15 -11.5 -21.5t-27.5 -6.5h-52q-16 0 -21.5 4t-6.5 16zM264 169l5 28q-21 3 -55 3h-11q-69 0 -69 -57q0 -38 49 -38h5q35 0 53 15q15 12 23 49zM199 634l176 129q13 9 21 9q10 0 17 -13l36 -62q5 -8 5 -15q0 -12 -23 -26l-175 -105q-11 -7 -19 -7q-9 0 -18 13 l-29 44q-6 9 -6 14q0 8 15 19z" />
<glyph unicode="&#xe2;" horiz-adv-x="503" d="M273 38h-2q-36 -47 -138 -47h-3q-68 0 -104 32t-36 90q0 92 44 139q49 52 172 52h6q47 0 75 -4q6 22 6 34v2q0 38 -69 38h-3q-39 0 -85 -11q-35 -7 -38 -7q-14 0 -15 16l-5 51q-2 26 -2 32q0 13 15 18q82 26 180 26h3q96 0 142 -34q38 -29 38 -92q0 -40 -18 -131 l-43 -214q-3 -15 -11.5 -21.5t-27.5 -6.5h-52q-16 0 -21.5 4t-6.5 16zM264 169l5 28q-21 3 -55 3h-11q-69 0 -69 -57q0 -38 49 -38h5q35 0 53 15q15 12 23 49zM297 640l-83 -75q-12 -11 -20 -11q-6 0 -12 6l-38 37q-12 12 1 25l114 107q13 13 30 13h61q16 0 24 -13l70 -105 q6 -9 6 -15q0 -8 -11 -15l-51 -33q-12 -7 -16 -7q-8 0 -16 11l-54 75h-5z" />
<glyph unicode="&#xe3;" horiz-adv-x="503" d="M273 38h-2q-36 -47 -138 -47h-3q-68 0 -104 32t-36 90q0 92 44 139q49 52 172 52h6q47 0 75 -4q6 22 6 34v2q0 38 -69 38h-3q-39 0 -85 -11q-35 -7 -38 -7q-14 0 -15 16l-5 51q-2 26 -2 32q0 13 15 18q82 26 180 26h3q96 0 142 -34q38 -29 38 -92q0 -40 -18 -131 l-43 -214q-3 -15 -11.5 -21.5t-27.5 -6.5h-52q-16 0 -21.5 4t-6.5 16zM264 169l5 28q-21 3 -55 3h-11q-69 0 -69 -57q0 -38 49 -38h5q35 0 53 15q15 12 23 49zM368 660q24 0 50 37q10 14 26 4l37 -24q15 -9 5 -26q-56 -95 -129 -95q-34 0 -64.5 23t-47.5 23q-24 0 -50 -37 q-10 -14 -26 -4l-37 24q-15 9 -5 26q56 95 129 95q35 0 65.5 -23t46.5 -23z" />
<glyph unicode="&#xe4;" horiz-adv-x="503" d="M273 38h-2q-36 -47 -138 -47h-3q-68 0 -104 32t-36 90q0 92 44 139q49 52 172 52h6q47 0 75 -4q6 22 6 34v2q0 38 -69 38h-3q-39 0 -85 -11q-35 -7 -38 -7q-14 0 -15 16l-5 51q-2 26 -2 32q0 13 15 18q82 26 180 26h3q96 0 142 -34q38 -29 38 -92q0 -40 -18 -131 l-43 -214q-3 -15 -11.5 -21.5t-27.5 -6.5h-52q-16 0 -21.5 4t-6.5 16zM264 169l5 28q-21 3 -55 3h-11q-69 0 -69 -57q0 -38 49 -38h5q35 0 53 15q15 12 23 49zM211 567h-7q-25 0 -39 12t-14 34q0 11 3 23l1 4q8 33 25 49t51 16h7q25 0 39 -12t14 -34q0 -11 -3 -23l-1 -4 q-8 -33 -25 -49t-51 -16zM397 567h-7q-25 0 -39 12t-14 34q0 11 3 23l1 4q8 33 25 49t51 16h7q25 0 39 -12t14 -34q0 -11 -3 -23l-1 -4q-8 -33 -25 -49t-51 -16z" />
<glyph unicode="&#xe5;" horiz-adv-x="503" d="M273 38h-2q-36 -47 -138 -47h-3q-68 0 -104 32t-36 90q0 92 44 139q49 52 172 52h6q47 0 75 -4q6 22 6 34v2q0 38 -69 38h-3q-39 0 -85 -11q-35 -7 -38 -7q-14 0 -15 16l-5 51q-2 26 -2 32q0 13 15 18q82 26 180 26h3q96 0 142 -34q38 -29 38 -92q0 -40 -18 -131 l-43 -214q-3 -15 -11.5 -21.5t-27.5 -6.5h-52q-16 0 -21.5 4t-6.5 16zM264 169l5 28q-21 3 -55 3h-11q-69 0 -69 -57q0 -38 49 -38h5q35 0 53 15q15 12 23 49zM301 622q14 0 24.5 10t10.5 26q0 22 -24 22q-14 0 -24.5 -10t-10.5 -26q0 -22 24 -22zM290 549q-38 0 -62 23 t-24 61q0 51 34 85.5t85 34.5q40 0 63 -23t23 -61q0 -51 -34.5 -85.5t-84.5 -34.5z" />
<glyph unicode="&#xe6;" horiz-adv-x="762" d="M541 499h3q97 0 139 -41q36 -34 36 -99q0 -31 -15 -114l-5 -27q-5 -28 -34 -28h-237q-4 -19 -4 -35q0 -21 17.5 -30t65.5 -9h6q46 0 106 14q15 3 19 3q13 0 15 -17l4 -46q2 -24 2 -30q0 -16 -31 -26q-75 -23 -160 -23h-14q-112 0 -156 55h-2q-58 -55 -163 -55h-7 q-65 0 -100.5 32t-35.5 87q0 45 13 87q33 107 202 107h7q47 0 75 -4q6 22 6 34v2q0 38 -69 38h-3q-39 0 -85 -11q-35 -7 -38 -7q-14 0 -15 16l-5 51q-2 26 -2 32q0 13 15 18q82 26 180 26h5q92 0 125 -42h4q59 42 136 42zM264 169l5 28q-21 3 -55 3h-8q-33 0 -47 -7t-21 -26 q-4 -11 -4 -29q0 -33 45 -33h9q35 0 53 15q16 14 23 49zM447 294h109q10 0 13 10l2 9q4 19 4 31q0 43 -51 43h-2q-30 0 -47 -15t-25 -61z" />
<glyph unicode="&#xe7;" horiz-adv-x="452" d="M203 -12l-18 -41q15 3 28 3q33 0 53.5 -17.5t21.5 -53.5q0 -53 -38.5 -87.5t-99.5 -34.5q-63 0 -99 15q-16 6 -10 26l11 35q6 18 25 12q32 -10 64 -10q37 0 37 27q0 16 -26 16h-3q-11 0 -25 -2.5t-18 -2.5q-6 0 -11 7l-9 14q-4 7 -4 13q0 5 7 21l31 64q0 2 1 3 q-68 9 -97 45q-26 31 -26 89q0 39 10 93l14 76q22 115 86 160q58 41 155 41h5q82 0 152 -34q15 -7 15 -19q0 -9 -11 -34l-21 -47q-9 -19 -20 -19q-9 0 -18 5q-41 22 -85 22h-5q-39 0 -63 -21q-26 -23 -37 -84l-8 -45q-7 -39 -7 -56q0 -27 16 -39t54 -12h5q45 0 90 15 q8 3 16 3q12 0 15 -17l5 -50q2 -22 2 -30q0 -16 -27 -24q-56 -18 -132 -21v-2q-1 -1 -1 -2z" />
<glyph unicode="&#xe8;" horiz-adv-x="493" d="M238 116h6q46 0 106 14q15 3 19 3q13 0 15 -17l4 -46q2 -24 2 -30q0 -16 -31 -26q-75 -23 -160 -23h-14q-93 0 -140 34.5t-47 114.5q0 46 11 105l7 35q27 135 91 180q55 39 165 39h3q97 0 139 -41q36 -34 36 -99q0 -31 -15 -114l-5 -27q-3 -16 -10.5 -22t-23.5 -6h-237 q-4 -19 -4 -35q0 -21 17.5 -30t65.5 -9zM178 294h109q11 0 13 10l2 9q4 19 4 31q0 43 -51 43h-2q-30 0 -47 -15t-25 -61zM215 785l150 -145q7 -7 7 -14q0 -9 -16 -25l-34 -34q-14 -14 -23 -14q-8 0 -21 9l-161 123q-13 10 -13 20q0 9 11 21l56 61q11 11 21 11q9 0 23 -13z " />
<glyph unicode="&#xe9;" horiz-adv-x="493" d="M238 116h6q46 0 106 14q15 3 19 3q13 0 15 -17l4 -46q2 -24 2 -30q0 -16 -31 -26q-75 -23 -160 -23h-14q-93 0 -140 34.5t-47 114.5q0 46 11 105l7 35q27 135 91 180q55 39 165 39h3q97 0 139 -41q36 -34 36 -99q0 -31 -15 -114l-5 -27q-3 -16 -10.5 -22t-23.5 -6h-237 q-4 -19 -4 -35q0 -21 17.5 -30t65.5 -9zM178 294h109q11 0 13 10l2 9q4 19 4 31q0 43 -51 43h-2q-30 0 -47 -15t-25 -61zM185 634l176 129q13 9 21 9q10 0 17 -13l36 -62q5 -8 5 -15q0 -12 -23 -26l-175 -105q-11 -7 -19 -7q-9 0 -18 13l-29 44q-6 9 -6 14q0 8 15 19z" />
<glyph unicode="&#xea;" horiz-adv-x="493" d="M238 116h6q46 0 106 14q15 3 19 3q13 0 15 -17l4 -46q2 -24 2 -30q0 -16 -31 -26q-75 -23 -160 -23h-14q-93 0 -140 34.5t-47 114.5q0 46 11 105l7 35q27 135 91 180q55 39 165 39h3q97 0 139 -41q36 -34 36 -99q0 -31 -15 -114l-5 -27q-3 -16 -10.5 -22t-23.5 -6h-237 q-4 -19 -4 -35q0 -21 17.5 -30t65.5 -9zM178 294h109q11 0 13 10l2 9q4 19 4 31q0 43 -51 43h-2q-30 0 -47 -15t-25 -61zM283 640l-83 -75q-12 -11 -20 -11q-6 0 -12 6l-38 37q-12 12 1 25l114 107q13 13 30 13h61q16 0 24 -13l70 -105q6 -9 6 -15q0 -8 -11 -15l-51 -33 q-12 -7 -16 -7q-8 0 -16 11l-54 75h-5z" />
<glyph unicode="&#xeb;" horiz-adv-x="493" d="M238 116h6q46 0 106 14q15 3 19 3q13 0 15 -17l4 -46q2 -24 2 -30q0 -16 -31 -26q-75 -23 -160 -23h-14q-93 0 -140 34.5t-47 114.5q0 46 11 105l7 35q27 135 91 180q55 39 165 39h3q97 0 139 -41q36 -34 36 -99q0 -31 -15 -114l-5 -27q-3 -16 -10.5 -22t-23.5 -6h-237 q-4 -19 -4 -35q0 -21 17.5 -30t65.5 -9zM178 294h109q11 0 13 10l2 9q4 19 4 31q0 43 -51 43h-2q-30 0 -47 -15t-25 -61zM189 567h-7q-25 0 -39 12t-14 34q0 11 3 23l1 4q8 33 25 49t51 16h7q25 0 39 -12t14 -34q0 -11 -3 -23l-1 -4q-8 -33 -25 -49t-51 -16zM375 567h-7 q-25 0 -39 12t-14 34q0 11 3 23l1 4q8 33 25 49t51 16h7q25 0 39 -12t14 -34q0 -11 -3 -23l-1 -4q-8 -33 -25 -49t-51 -16z" />
<glyph unicode="&#xec;" horiz-adv-x="266" d="M224 418l-76 -389q-5 -29 -38 -29h-92q-29 0 -29 17q0 7 7 40l78 404q6 29 39 29h92q28 0 28 -18q0 -9 -9 -54zM124 785l150 -145q7 -7 7 -14q0 -9 -16 -25l-34 -34q-14 -14 -23 -14q-8 0 -21 9l-161 123q-13 10 -13 20q0 9 11 21l56 61q11 11 21 11q9 0 23 -13z" />
<glyph unicode="&#xed;" horiz-adv-x="266" d="M224 418l-76 -389q-5 -29 -38 -29h-92q-29 0 -29 17q0 7 7 40l78 404q6 29 39 29h92q28 0 28 -18q0 -9 -9 -54zM86 634l176 129q13 9 21 9q10 0 17 -13l36 -62q5 -8 5 -15q0 -12 -23 -26l-175 -105q-11 -7 -19 -7q-9 0 -18 13l-29 44q-6 9 -6 14q0 8 15 19z" />
<glyph unicode="&#xee;" horiz-adv-x="266" d="M224 418l-76 -389q-5 -29 -38 -29h-92q-29 0 -29 17q0 7 7 40l78 404q6 29 39 29h92q28 0 28 -18q0 -9 -9 -54zM187 640l-83 -75q-12 -11 -20 -11q-6 0 -12 6l-38 37q-12 12 1 25l114 107q13 13 30 13h61q16 0 24 -13l70 -105q6 -9 6 -15q0 -8 -11 -15l-51 -33 q-12 -7 -16 -7q-8 0 -16 11l-54 75h-5z" />
<glyph unicode="&#xef;" horiz-adv-x="266" d="M224 418l-76 -389q-5 -29 -38 -29h-92q-29 0 -29 17q0 7 7 40l78 404q6 29 39 29h92q28 0 28 -18q0 -9 -9 -54zM87 567h-7q-25 0 -39 12t-14 34q0 11 3 23l1 4q8 33 25 49t51 16h7q25 0 39 -12t14 -34q0 -11 -3 -23l-1 -4q-8 -33 -25 -49t-51 -16zM273 567h-7 q-25 0 -39 12t-14 34q0 11 3 23l1 4q8 33 25 49t51 16h7q25 0 39 -12t14 -34q0 -11 -3 -23l-1 -4q-8 -33 -25 -49t-51 -16z" />
<glyph unicode="&#xf0;" horiz-adv-x="513" d="M290 552l-36 -40q-10 -10 -16 -10.5t-16 7.5l-25 21q-17 13 -1 30l32 36l-42 23q-14 8 -14 16q0 6 7 16l37 56q8 11 15 11q6 0 24 -8q30 -13 52 -25l40 44q10 10 16 10.5t16 -7.5l25 -21q17 -13 1 -30l-33 -37q101 -70 101 -215q0 -64 -15 -145l-15 -80 q-22 -121 -74 -166q-54 -47 -180 -47h-10q-177 0 -177 156q0 35 9 85l7 37q18 98 65 146q54 55 158 55h1q57 0 92 -19h2q-2 62 -46 101zM284 183l18 92q3 17 3 28q0 41 -51 41h-3q-37 0 -55 -18.5t-26 -62.5l-9 -45q-6 -34 -6 -50q0 -52 52 -52h6q31 0 47.5 16t23.5 51z" />
<glyph unicode="&#xf1;" horiz-adv-x="525" d="M262 57l48 248q3 16 3 28q0 38 -48 38q-27 0 -44 -13q-17 -14 -24 -53l-54 -276q-3 -16 -10.5 -22.5t-26.5 -6.5h-93q-29 0 -29 18q0 4 7 42l78 402q6 28 36 28h52q15 0 21.5 -3.5t7.5 -14.5l3 -21h3q54 48 152 48h2q133 0 133 -104q0 -41 -11 -94l-54 -272 q-3 -16 -10.5 -22.5t-26.5 -6.5h-91q-30 0 -30 19q0 11 6 38zM375 660q24 0 50 37q10 14 26 4l37 -24q15 -9 5 -26q-56 -95 -129 -95q-34 0 -64.5 23t-47.5 23q-24 0 -50 -37q-10 -14 -26 -4l-37 24q-15 9 -5 26q56 95 129 95q35 0 65.5 -23t46.5 -23z" />
<glyph unicode="&#xf2;" horiz-adv-x="520" d="M177 274q-19 -82 -19 -117q0 -41 47 -41h2q32 0 49 13q24 19 39 87q19 82 19 117q0 41 -47 41h-2q-32 0 -49 -13q-23 -18 -39 -87zM199 -9h-20q-92 0 -139 39q-42 35 -42 103q0 57 29 181q13 56 34.5 90.5t58.5 58.5q57 36 157 36h18q92 0 139 -39q42 -35 42 -103 q0 -65 -29 -178q-16 -62 -36 -96.5t-52 -54.5q-58 -37 -160 -37zM260 785l150 -145q7 -7 7 -14q0 -9 -16 -25l-34 -34q-14 -14 -23 -14q-8 0 -21 9l-161 123q-13 10 -13 20q0 9 11 21l56 61q11 11 21 11q9 0 23 -13z" />
<glyph unicode="&#xf3;" horiz-adv-x="520" d="M177 274q-19 -82 -19 -117q0 -41 47 -41h2q32 0 49 13q24 19 39 87q19 82 19 117q0 41 -47 41h-2q-32 0 -49 -13q-23 -18 -39 -87zM199 -9h-20q-92 0 -139 39q-42 35 -42 103q0 57 29 181q13 56 34.5 90.5t58.5 58.5q57 36 157 36h18q92 0 139 -39q42 -35 42 -103 q0 -65 -29 -178q-16 -62 -36 -96.5t-52 -54.5q-58 -37 -160 -37zM216 634l176 129q13 9 21 9q10 0 17 -13l36 -62q5 -8 5 -15q0 -12 -23 -26l-175 -105q-11 -7 -19 -7q-9 0 -18 13l-29 44q-6 9 -6 14q0 8 15 19z" />
<glyph unicode="&#xf4;" horiz-adv-x="520" d="M177 274q-19 -82 -19 -117q0 -41 47 -41h2q32 0 49 13q24 19 39 87q19 82 19 117q0 41 -47 41h-2q-32 0 -49 -13q-23 -18 -39 -87zM199 -9h-20q-92 0 -139 39q-42 35 -42 103q0 57 29 181q13 56 34.5 90.5t58.5 58.5q57 36 157 36h18q92 0 139 -39q42 -35 42 -103 q0 -65 -29 -178q-16 -62 -36 -96.5t-52 -54.5q-58 -37 -160 -37zM315 640l-83 -75q-12 -11 -20 -11q-6 0 -12 6l-38 37q-12 12 1 25l114 107q13 13 30 13h61q16 0 24 -13l70 -105q6 -9 6 -15q0 -8 -11 -15l-51 -33q-12 -7 -16 -7q-8 0 -16 11l-54 75h-5z" />
<glyph unicode="&#xf5;" horiz-adv-x="520" d="M177 274q-19 -82 -19 -117q0 -41 47 -41h2q32 0 49 13q24 19 39 87q19 82 19 117q0 41 -47 41h-2q-32 0 -49 -13q-23 -18 -39 -87zM199 -9h-20q-92 0 -139 39q-42 35 -42 103q0 57 29 181q13 56 34.5 90.5t58.5 58.5q57 36 157 36h18q92 0 139 -39q42 -35 42 -103 q0 -65 -29 -178q-16 -62 -36 -96.5t-52 -54.5q-58 -37 -160 -37zM380 660q24 0 50 37q10 14 26 4l37 -24q15 -9 5 -26q-56 -95 -129 -95q-34 0 -64.5 23t-47.5 23q-24 0 -50 -37q-10 -14 -26 -4l-37 24q-15 9 -5 26q56 95 129 95q35 0 65.5 -23t46.5 -23z" />
<glyph unicode="&#xf6;" horiz-adv-x="520" d="M177 274q-19 -82 -19 -117q0 -41 47 -41h2q32 0 49 13q24 19 39 87q19 82 19 117q0 41 -47 41h-2q-32 0 -49 -13q-23 -18 -39 -87zM199 -9h-20q-92 0 -139 39q-42 35 -42 103q0 57 29 181q13 56 34.5 90.5t58.5 58.5q57 36 157 36h18q92 0 139 -39q42 -35 42 -103 q0 -65 -29 -178q-16 -62 -36 -96.5t-52 -54.5q-58 -37 -160 -37zM208 567h-7q-25 0 -39 12t-14 34q0 11 3 23l1 4q8 33 25 49t51 16h7q25 0 39 -12t14 -34q0 -11 -3 -23l-1 -4q-8 -33 -25 -49t-51 -16zM394 567h-7q-25 0 -39 12t-14 34q0 11 3 23l1 4q8 33 25 49t51 16h7 q25 0 39 -12t14 -34q0 -11 -3 -23l-1 -4q-8 -33 -25 -49t-51 -16z" />
<glyph unicode="&#xf7;" d="M392 454l-2 -7q-15 -80 -90 -80h-12q-43 0 -56 19t-5 61l2 7q14 78 91 78h12q36 0 52 -17.5t8 -60.5zM317 70l-1 -7q-8 -39 -32 -59.5t-59 -20.5h-12q-43 0 -56 19t-4 61l1 7q16 78 91 78h12q76 0 60 -78zM463 189h-403q-19 0 -24.5 8.5t-1.5 27.5l12 62q5 24 12.5 32 t27.5 8h403q19 0 24.5 -8.5t1.5 -27.5l-12 -62q-5 -24 -12.5 -32t-27.5 -8z" />
<glyph unicode="&#xf8;" horiz-adv-x="520" d="M199 -9h-20q-49 0 -95 14l-45 -56q-13 -18 -29 -6l-24 19q-10 8 -10.5 14t7.5 16l42 52q-27 33 -27 89q0 57 29 181q13 56 34.5 90.5t58.5 58.5q57 36 157 36h18q46 0 87 -12l48 59q13 18 29 6l24 -19q10 -8 10.5 -14t-7.5 -16l-42 -52q32 -35 32 -94q0 -65 -29 -178 q-16 -62 -36 -96.5t-52 -54.5q-58 -37 -160 -37zM295 216q8 38 13 67l-131 -163q9 -4 28 -4h2q32 0 49 13q24 19 39 87zM177 274l-12 -57l124 154q-9 3 -22 3h-2q-32 0 -49 -13q-23 -18 -39 -87z" />
<glyph unicode="&#xf9;" horiz-adv-x="514" d="M485 434l-52 -266q-19 -98 -70 -135q-58 -42 -167 -42h-11q-88 0 -136 30.5t-48 90.5q0 26 10 76l53 273q3 16 11.5 22.5t27.5 6.5h91q30 0 30 -17q0 -9 -10 -57l-46 -237q-3 -15 -3 -27q0 -32 44 -32h4q23 0 41 13q15 13 23 51l54 277q3 16 11.5 22.5t27.5 6.5h91 q30 0 30 -19q0 -7 -6 -37zM250 785l150 -145q7 -7 7 -14q0 -9 -16 -25l-34 -34q-14 -14 -23 -14q-8 0 -21 9l-161 123q-13 10 -13 20q0 9 11 21l56 61q11 11 21 11q9 0 23 -13z" />
<glyph unicode="&#xfa;" horiz-adv-x="514" d="M485 434l-52 -266q-19 -98 -70 -135q-58 -42 -167 -42h-11q-88 0 -136 30.5t-48 90.5q0 26 10 76l53 273q3 16 11.5 22.5t27.5 6.5h91q30 0 30 -17q0 -9 -10 -57l-46 -237q-3 -15 -3 -27q0 -32 44 -32h4q23 0 41 13q15 13 23 51l54 277q3 16 11.5 22.5t27.5 6.5h91 q30 0 30 -19q0 -7 -6 -37zM221 634l176 129q13 9 21 9q10 0 17 -13l36 -62q5 -8 5 -15q0 -12 -23 -26l-175 -105q-11 -7 -19 -7q-9 0 -18 13l-29 44q-6 9 -6 14q0 8 15 19z" />
<glyph unicode="&#xfb;" horiz-adv-x="514" d="M485 434l-52 -266q-19 -98 -70 -135q-58 -42 -167 -42h-11q-88 0 -136 30.5t-48 90.5q0 26 10 76l53 273q3 16 11.5 22.5t27.5 6.5h91q30 0 30 -17q0 -9 -10 -57l-46 -237q-3 -15 -3 -27q0 -32 44 -32h4q23 0 41 13q15 13 23 51l54 277q3 16 11.5 22.5t27.5 6.5h91 q30 0 30 -19q0 -7 -6 -37zM308 640l-83 -75q-12 -11 -20 -11q-6 0 -12 6l-38 37q-12 12 1 25l114 107q13 13 30 13h61q16 0 24 -13l70 -105q6 -9 6 -15q0 -8 -11 -15l-51 -33q-12 -7 -16 -7q-8 0 -16 11l-54 75h-5z" />
<glyph unicode="&#xfc;" horiz-adv-x="514" d="M485 434l-52 -266q-19 -98 -70 -135q-58 -42 -167 -42h-11q-88 0 -136 30.5t-48 90.5q0 26 10 76l53 273q3 16 11.5 22.5t27.5 6.5h91q30 0 30 -17q0 -9 -10 -57l-46 -237q-3 -15 -3 -27q0 -32 44 -32h4q23 0 41 13q15 13 23 51l54 277q3 16 11.5 22.5t27.5 6.5h91 q30 0 30 -19q0 -7 -6 -37zM205 567h-7q-25 0 -39 12t-14 34q0 11 3 23l1 4q8 33 25 49t51 16h7q25 0 39 -12t14 -34q0 -11 -3 -23l-1 -4q-8 -33 -25 -49t-51 -16zM391 567h-7q-25 0 -39 12t-14 34q0 11 3 23l1 4q8 33 25 49t51 16h7q25 0 39 -12t14 -34q0 -11 -3 -23l-1 -4 q-8 -33 -25 -49t-51 -16z" />
<glyph unicode="&#xfd;" horiz-adv-x="488" d="M492 460q-134 -334 -329 -641q-14 -23 -31 -23q-8 0 -30 9l-53 21q-21 9 -21 22q0 8 9 21q47 68 79 123q-40 13 -52 74q-23 124 -41 395q-1 15 8.5 22t27.5 7h84q17 0 23.5 -4.5t6.5 -19.5q3 -181 17 -334h5q89 180 142 331q9 27 38 27h96q34 0 21 -30zM203 634l176 129 q13 9 21 9q10 0 17 -13l36 -62q5 -8 5 -15q0 -12 -23 -26l-175 -105q-11 -7 -19 -7q-9 0 -18 13l-29 44q-6 9 -6 14q0 8 15 19z" />
<glyph unicode="&#xfe;" horiz-adv-x="531" d="M243 -9h-5q-58 0 -98 20l-30 -153q-4 -21 -13.5 -28t-35.5 -7h-78q-33 0 -33 19q0 11 6 42l151 769q5 24 33 24h98q28 0 28 -17q0 -12 -8 -48l-26 -134q46 21 114 21h7q137 0 137 -120q0 -38 -25 -171q-13 -69 -29 -110t-46 -66q-50 -41 -147 -41zM197 305l-20 -102 q-8 -38 -8 -51q0 -36 51 -36h5q42 0 56.5 22.5t28.5 84.5q17 80 17 108q0 42 -51 42h-7q-32 0 -48.5 -14.5t-23.5 -53.5z" />
<glyph unicode="&#xff;" horiz-adv-x="488" d="M492 460q-134 -334 -329 -641q-14 -23 -31 -23q-8 0 -30 9l-53 21q-21 9 -21 22q0 8 9 21q47 68 79 123q-40 13 -52 74q-23 124 -41 395q-1 15 8.5 22t27.5 7h84q17 0 23.5 -4.5t6.5 -19.5q3 -181 17 -334h5q89 180 142 331q9 27 38 27h96q34 0 21 -30zM182 567h-7 q-25 0 -39 12t-14 34q0 11 3 23l1 4q8 33 25 49t51 16h7q25 0 39 -12t14 -34q0 -11 -3 -23l-1 -4q-8 -33 -25 -49t-51 -16zM368 567h-7q-25 0 -39 12t-14 34q0 11 3 23l1 4q8 33 25 49t51 16h7q25 0 39 -12t14 -34q0 -11 -3 -23l-1 -4q-8 -33 -25 -49t-51 -16z" />
<glyph unicode="&#x100;" horiz-adv-x="605" d="M220 248h129q-4 84 -14 224h-11q-87 -186 -104 -224zM360 33l-7 83h-187l-39 -83q-10 -20 -20 -26.5t-39 -6.5h-89q-29 0 -29 19q0 12 13 40q140 289 278 543q14 25 31.5 35t47.5 10h86q30 0 44 -10t17 -35q27 -197 62 -525q4 -46 4 -53q0 -24 -40 -24h-88q-23 0 -33.5 7 t-11.5 26zM274 824h229q12 0 15.5 -5t1.5 -19l-9 -49q-3 -16 -8 -20.5t-19 -4.5h-229q-12 0 -15.5 5t-1.5 19l9 49q3 16 8 20.5t19 4.5z" />
<glyph unicode="&#x101;" horiz-adv-x="503" d="M273 38h-2q-36 -47 -138 -47h-3q-68 0 -104 32t-36 90q0 92 44 139q49 52 172 52h6q47 0 75 -4q6 22 6 34v2q0 38 -69 38h-3q-39 0 -85 -11q-35 -7 -38 -7q-14 0 -15 16l-5 51q-2 26 -2 32q0 13 15 18q82 26 180 26h3q96 0 142 -34q38 -29 38 -92q0 -40 -18 -131 l-43 -214q-3 -15 -11.5 -21.5t-27.5 -6.5h-52q-16 0 -21.5 4t-6.5 16zM264 169l5 28q-21 3 -55 3h-11q-69 0 -69 -57q0 -38 49 -38h5q35 0 53 15q15 12 23 49zM204 681h229q12 0 15.5 -5t1.5 -19l-9 -49q-3 -16 -8 -20.5t-19 -4.5h-229q-12 0 -15.5 5t-1.5 19l9 49 q3 16 8 20.5t19 4.5z" />
<glyph unicode="&#x102;" horiz-adv-x="605" d="M220 248h129q-4 84 -14 224h-11q-87 -186 -104 -224zM360 33l-7 83h-187l-39 -83q-10 -20 -20 -26.5t-39 -6.5h-89q-29 0 -29 19q0 12 13 40q140 289 278 543q14 25 31.5 35t47.5 10h86q30 0 44 -10t17 -35q27 -197 62 -525q4 -46 4 -53q0 -24 -40 -24h-88q-23 0 -33.5 7 t-11.5 26zM388 800q44 0 82 59q10 16 30 8l45 -19q14 -6 14 -14q0 -10 -10 -26q-30 -47 -76 -76t-99 -29h-6q-56 0 -93.5 35t-37.5 88q0 18 16 24l53 15q20 6 24 -8q8 -32 20 -44.5t38 -12.5z" />
<glyph unicode="&#x103;" horiz-adv-x="503" d="M273 38h-2q-36 -47 -138 -47h-3q-68 0 -104 32t-36 90q0 92 44 139q49 52 172 52h6q47 0 75 -4q6 22 6 34v2q0 38 -69 38h-3q-39 0 -85 -11q-35 -7 -38 -7q-14 0 -15 16l-5 51q-2 26 -2 32q0 13 15 18q82 26 180 26h3q96 0 142 -34q38 -29 38 -92q0 -40 -18 -131 l-43 -214q-3 -15 -11.5 -21.5t-27.5 -6.5h-52q-16 0 -21.5 4t-6.5 16zM264 169l5 28q-21 3 -55 3h-11q-69 0 -69 -57q0 -38 49 -38h5q35 0 53 15q15 12 23 49zM303 650q44 0 82 59q10 16 30 8l45 -19q14 -6 14 -14q0 -10 -10 -26q-30 -47 -76 -76t-99 -29h-6q-56 0 -93.5 35 t-37.5 88q0 18 16 24l53 15q20 6 24 -8q8 -32 20 -44.5t38 -12.5z" />
<glyph unicode="&#x104;" horiz-adv-x="605" d="M353 116h-187l-39 -83q-10 -20 -20 -26.5t-39 -6.5h-89q-29 0 -29 19q0 12 13 40q140 289 278 543q14 25 31.5 35t47.5 10h86q30 0 44 -10t17 -35q27 -197 62 -525q4 -46 4 -53q0 -13 -6 -18.5t-27 -5.5h-6q-60 0 -99.5 -32t-39.5 -74q0 -22 27 -22q19 0 45 8q23 7 23 -9 v-40q0 -13 -17 -20q-43 -16 -85 -16h-4q-45 0 -67.5 21t-22.5 54q0 43 29.5 83.5t79.5 66.5zM220 248h129q-4 84 -14 224h-11z" />
<glyph unicode="&#x105;" horiz-adv-x="503" d="M436 242l-45 -223q-2 -11 -7 -15t-15 -4q-41 0 -77 -35t-36 -67q0 -26 27 -26q21 0 44 7q15 3 16 3q8 0 8 -11v-40q0 -13 -17 -20q-43 -16 -85 -16h-4q-45 0 -67.5 21t-22.5 54q0 39 32.5 78.5t87.5 58.5l-2 31h-2q-36 -47 -138 -47h-3q-68 0 -104 32t-36 90q0 92 44 139 q49 52 172 52h6q47 0 75 -4q6 22 6 34v2q0 38 -69 38h-3q-39 0 -85 -11q-35 -7 -38 -7q-14 0 -15 16l-5 51q-2 26 -2 32q0 13 15 18q82 26 180 26h3q96 0 142 -34q38 -29 38 -92q0 -40 -18 -131zM264 169l5 28q-21 3 -55 3h-11q-69 0 -69 -57q0 -38 49 -38h5q35 0 53 15 q15 12 23 49z" />
<glyph unicode="&#x106;" horiz-adv-x="555" d="M259 -9h-10q-144 0 -192 67q-29 40 -29 109q0 54 37 234q16 77 37 122.5t57 75.5q67 57 202 57h7q99 0 177 -40q13 -6 13 -15q0 -11 -15 -45l-26 -57q-7 -15 -17 -15t-20 5q-59 27 -114 27h-4q-61 0 -92 -34q-24 -26 -42 -119q-25 -125 -25 -171q0 -32 22 -46.5t76 -14.5 h6q62 0 126 23q11 4 18 4q12 0 15 -19l6 -44q5 -35 5 -45q0 -17 -36 -30q-80 -29 -182 -29zM270 798l195 98q10 5 17 5q12 0 19 -16l26 -67q3 -7 3 -13q0 -13 -28 -24l-190 -74q-10 -4 -17 -4q-12 0 -19 16l-21 48q-3 7 -3 13q0 9 18 18z" />
<glyph unicode="&#x107;" horiz-adv-x="452" d="M230 116h5q39 0 90 15q11 3 16 3q14 0 15 -17l5 -50q2 -22 2 -30q0 -16 -27 -24q-69 -22 -152 -22h-10q-111 0 -150 49q-26 31 -26 89q0 39 10 93l14 76q22 115 86 160q58 41 155 41h5q82 0 152 -34q15 -7 15 -19q0 -9 -11 -34l-21 -46q-9 -19 -20 -19q-6 0 -18 5 q-48 21 -85 21h-5q-39 0 -63 -21q-26 -23 -37 -84l-8 -45q-7 -39 -7 -56q0 -27 16 -39t54 -12zM200 634l176 129q13 9 21 9q10 0 17 -13l36 -62q5 -8 5 -15q0 -12 -23 -26l-175 -105q-11 -7 -19 -7q-9 0 -18 13l-29 44q-6 9 -6 14q0 8 15 19z" />
<glyph unicode="&#x108;" horiz-adv-x="555" d="M259 -9h-10q-144 0 -192 67q-29 40 -29 109q0 54 37 234q16 77 37 122.5t57 75.5q67 57 202 57h7q99 0 177 -40q13 -6 13 -15q0 -11 -15 -45l-26 -57q-7 -15 -17 -15t-20 5q-59 27 -114 27h-4q-61 0 -92 -34q-24 -26 -42 -119q-25 -125 -25 -171q0 -32 22 -46.5t76 -14.5 h6q62 0 126 23q11 4 18 4q12 0 15 -19l6 -44q5 -35 5 -45q0 -17 -36 -30q-80 -29 -182 -29zM370 774l-83 -75q-12 -11 -20 -11q-6 0 -12 6l-38 37q-12 12 1 25l114 107q13 13 30 13h61q16 0 24 -13l70 -105q6 -9 6 -15q0 -8 -11 -15l-51 -33q-12 -7 -16 -7q-8 0 -16 11 l-54 75h-5z" />
<glyph unicode="&#x109;" horiz-adv-x="452" d="M230 116h5q39 0 90 15q11 3 16 3q14 0 15 -17l5 -50q2 -22 2 -30q0 -16 -27 -24q-69 -22 -152 -22h-10q-111 0 -150 49q-26 31 -26 89q0 39 10 93l14 76q22 115 86 160q58 41 155 41h5q82 0 152 -34q15 -7 15 -19q0 -9 -11 -34l-21 -46q-9 -19 -20 -19q-6 0 -18 5 q-48 21 -85 21h-5q-39 0 -63 -21q-26 -23 -37 -84l-8 -45q-7 -39 -7 -56q0 -27 16 -39t54 -12zM290 640l-83 -75q-12 -11 -20 -11q-6 0 -12 6l-38 37q-12 12 1 25l114 107q13 13 30 13h61q16 0 24 -13l70 -105q6 -9 6 -15q0 -8 -11 -15l-51 -33q-12 -7 -16 -7q-8 0 -16 11 l-54 75h-5z" />
<glyph unicode="&#x10a;" horiz-adv-x="555" d="M259 -9h-10q-144 0 -192 67q-29 40 -29 109q0 54 37 234q16 77 37 122.5t57 75.5q67 57 202 57h7q99 0 177 -40q13 -6 13 -15q0 -11 -15 -45l-26 -57q-7 -15 -17 -15t-20 5q-59 27 -114 27h-4q-61 0 -92 -34q-24 -26 -42 -119q-25 -125 -25 -171q0 -32 22 -46.5t76 -14.5 h6q62 0 126 23q11 4 18 4q12 0 15 -19l6 -44q5 -35 5 -45q0 -17 -36 -30q-80 -29 -182 -29zM387 863q26 0 42 -16t16 -41q0 -35 -24.5 -61t-61.5 -26q-26 0 -42.5 16t-16.5 41q0 35 25 61t62 26z" />
<glyph unicode="&#x10b;" horiz-adv-x="452" d="M230 116h5q39 0 90 15q11 3 16 3q14 0 15 -17l5 -50q2 -22 2 -30q0 -16 -27 -24q-69 -22 -152 -22h-10q-111 0 -150 49q-26 31 -26 89q0 39 10 93l14 76q22 115 86 160q58 41 155 41h5q82 0 152 -34q15 -7 15 -19q0 -9 -11 -34l-21 -46q-9 -19 -20 -19q-6 0 -18 5 q-48 21 -85 21h-5q-39 0 -63 -21q-26 -23 -37 -84l-8 -45q-7 -39 -7 -56q0 -27 16 -39t54 -12zM302 713q26 0 42 -16t16 -41q0 -35 -24.5 -61t-61.5 -26q-26 0 -42.5 16t-16.5 41q0 35 25 61t62 26z" />
<glyph unicode="&#x10c;" horiz-adv-x="555" d="M259 -9h-10q-144 0 -192 67q-29 40 -29 109q0 54 37 234q16 77 37 122.5t57 75.5q67 57 202 57h7q99 0 177 -40q13 -6 13 -15q0 -11 -15 -45l-26 -57q-7 -15 -17 -15t-20 5q-59 27 -114 27h-4q-61 0 -92 -34q-24 -26 -42 -119q-25 -125 -25 -171q0 -32 22 -46.5t76 -14.5 h6q62 0 126 23q11 4 18 4q12 0 15 -19l6 -44q5 -35 5 -45q0 -17 -36 -30q-80 -29 -182 -29zM378 806l83 75q12 11 20 11q6 0 12 -6l38 -37q12 -12 -1 -25l-114 -107q-13 -13 -30 -13h-61q-16 0 -24 13l-70 105q-6 9 -6 15q0 8 11 15l51 33q12 7 16 7q8 0 16 -11l54 -75h5z " />
<glyph unicode="&#x10d;" horiz-adv-x="452" d="M230 116h5q39 0 90 15q11 3 16 3q14 0 15 -17l5 -50q2 -22 2 -30q0 -16 -27 -24q-69 -22 -152 -22h-10q-111 0 -150 49q-26 31 -26 89q0 39 10 93l14 76q22 115 86 160q58 41 155 41h5q82 0 152 -34q15 -7 15 -19q0 -9 -11 -34l-21 -46q-9 -19 -20 -19q-6 0 -18 5 q-48 21 -85 21h-5q-39 0 -63 -21q-26 -23 -37 -84l-8 -45q-7 -39 -7 -56q0 -27 16 -39t54 -12zM297 656l83 75q12 11 20 11q6 0 12 -6l38 -37q12 -12 -1 -25l-114 -107q-13 -13 -30 -13h-61q-16 0 -24 13l-70 105q-6 9 -6 15q0 8 11 15l51 33q12 7 16 7q8 0 16 -11l54 -75h5 z" />
<glyph unicode="&#x10e;" horiz-adv-x="625" d="M281 510q-18 -1 -21 -17l-55 -288q-9 -49 -9 -54q0 -10 13 -12q12 -1 38 -1h9q61 0 94 29q24 20 38 49.5t27 89.5q17 75 17 120q0 38 -17 59q-22 27 -83 27h-9q-20 0 -42 -2zM194 0h-21q-102 0 -137 4q-30 3 -30 28q0 7 12 66l97 505q4 23 13.5 30.5t28.5 9.5q66 6 170 6 h11q169 0 222 -69q28 -36 34.5 -87.5t-5.5 -136.5q-17 -122 -45.5 -186t-75.5 -102q-83 -68 -274 -68zM383 806l83 75q12 11 20 11q6 0 12 -6l38 -37q12 -12 -1 -25l-114 -107q-13 -13 -30 -13h-61q-16 0 -24 13l-70 105q-6 9 -6 15q0 8 11 15l51 33q12 7 16 7q8 0 16 -11 l54 -75h5z" />
<glyph unicode="&#x10f;" horiz-adv-x="675" d="M291 181l24 123q8 40 -3 54q-12 15 -46 15h-8q-33 0 -50 -17q-18 -18 -28 -71l-11 -59q-9 -50 -9 -75q0 -35 48 -35h6q34 0 51 13q18 14 26 52zM347 481h2l33 167q6 29 40 29h91q28 0 28 -18q0 -7 -6 -40l-82 -426q-13 -69 -27 -101.5t-42 -54.5q-61 -46 -193 -46h-9 q-100 0 -145 39q-38 33 -38 92q0 45 10 99l15 78q21 110 70 153q52 47 150 47h9q56 0 94 -18zM668 730h21q46 0 46 -36q0 -11 -3 -26l-4 -18q-17 -87 -105 -155q-15 -11 -22 -11q-5 0 -11 7l-23 28q-9 10 5 24l33 33q14 16 15 20q0 4 -3 6q-21 12 -21 36q0 7 2 21l3 16 q10 55 67 55z" />
<glyph unicode="&#x110;" horiz-adv-x="659" d="M228 0h-21q-102 0 -137 4q-30 3 -30 28q0 7 12 66l32 170h-51q-21 0 -21 14q0 3 4 27l8 41q3 16 9.5 22t20.5 6h51l44 225q4 23 13.5 30.5t28.5 9.5q66 6 170 6h11q169 0 222 -69q28 -36 34.5 -87.5t-5.5 -136.5q-17 -122 -45.5 -186t-75.5 -102q-83 -68 -274 -68z M315 510q-18 -1 -21 -17l-22 -115h69q21 0 21 -14q0 -3 -4 -27l-8 -41q-3 -16 -9.5 -22t-20.5 -6h-69l-12 -63q-9 -49 -9 -54q0 -10 13 -12q12 -1 38 -1h9q61 0 94 29q24 20 38 49.5t27 89.5q17 75 17 120q0 38 -17 59q-22 27 -83 27h-9q-20 0 -42 -2z" />
<glyph unicode="&#x111;" horiz-adv-x="553" d="M296 533q-21 0 -21 14q0 3 4 27l4 18q3 16 9.5 22t20.5 6h63l6 28q6 29 40 29h91q28 0 28 -18q0 -7 -6 -39h47q21 0 21 -14q0 -3 -4 -27l-4 -18q-3 -16 -9.5 -22t-20.5 -6h-47l-65 -340q-12 -68 -26.5 -101t-42.5 -55q-61 -46 -193 -46h-9q-100 0 -145 39q-38 33 -38 92 q0 45 10 99l15 78q22 113 70 153q56 47 150 47h9q56 0 94 -18h2l10 52h-63zM293 181l22 123q8 40 -3 54q-12 15 -46 15h-8q-33 0 -50 -17q-19 -19 -28 -71l-10 -59q-10 -63 -10 -75q0 -35 48 -35h8q34 0 51 13q18 14 26 52z" />
<glyph unicode="&#x112;" horiz-adv-x="521" d="M408 264h-208q-8 -43 -12 -71q-4 -25 -4 -42q0 -15 18 -15h208q26 0 26 -17q0 -9 -6 -46l-7 -42q-4 -18 -11.5 -24.5t-28.5 -6.5h-261q-56 0 -78 15.5t-22 56.5q0 68 34 263q19 107 40 185q21 77 59.5 102t120.5 25h239q23 0 23 -13q0 -5 -7 -44l-9 -49q-4 -19 -10 -24.5 t-29 -5.5h-207q-22 0 -28 -20q-8 -30 -22 -101h205q27 0 27 -13q0 -14 -8 -49l-9 -41q-5 -23 -33 -23zM253 824h229q12 0 15.5 -5t1.5 -19l-9 -49q-3 -16 -8 -20.5t-19 -4.5h-229q-12 0 -15.5 5t-1.5 19l9 49q3 16 8 20.5t19 4.5z" />
<glyph unicode="&#x113;" horiz-adv-x="493" d="M238 116h6q46 0 106 14q15 3 19 3q13 0 15 -17l4 -46q2 -24 2 -30q0 -16 -31 -26q-75 -23 -160 -23h-14q-93 0 -140 34.5t-47 114.5q0 46 11 105l7 35q27 135 91 180q55 39 165 39h3q97 0 139 -41q36 -34 36 -99q0 -31 -15 -114l-5 -27q-3 -16 -10.5 -22t-23.5 -6h-237 q-4 -19 -4 -35q0 -21 17.5 -30t65.5 -9zM178 294h109q11 0 13 10l2 9q4 19 4 31q0 43 -51 43h-2q-30 0 -47 -15t-25 -61zM185 681h229q12 0 15.5 -5t1.5 -19l-9 -49q-3 -16 -8 -20.5t-19 -4.5h-229q-12 0 -15.5 5t-1.5 19l9 49q3 16 8 20.5t19 4.5z" />
<glyph unicode="&#x114;" horiz-adv-x="521" d="M408 264h-208q-8 -43 -12 -71q-4 -25 -4 -42q0 -15 18 -15h208q26 0 26 -17q0 -9 -6 -46l-7 -42q-4 -18 -11.5 -24.5t-28.5 -6.5h-261q-56 0 -78 15.5t-22 56.5q0 68 34 263q19 107 40 185q21 77 59.5 102t120.5 25h239q23 0 23 -13q0 -5 -7 -44l-9 -49q-4 -19 -10 -24.5 t-29 -5.5h-207q-22 0 -28 -20q-8 -30 -22 -101h205q27 0 27 -13q0 -14 -8 -49l-9 -41q-5 -23 -33 -23zM367 800q44 0 82 59q10 16 30 8l45 -19q14 -6 14 -14q0 -10 -10 -26q-30 -47 -76 -76t-99 -29h-6q-56 0 -93.5 35t-37.5 88q0 18 16 24l53 15q20 6 24 -8q8 -32 20 -44.5 t38 -12.5z" />
<glyph unicode="&#x115;" horiz-adv-x="493" d="M238 116h6q46 0 106 14q15 3 19 3q13 0 15 -17l4 -46q2 -24 2 -30q0 -16 -31 -26q-75 -23 -160 -23h-14q-93 0 -140 34.5t-47 114.5q0 46 11 105l7 35q27 135 91 180q55 39 165 39h3q97 0 139 -41q36 -34 36 -99q0 -31 -15 -114l-5 -27q-3 -16 -10.5 -22t-23.5 -6h-237 q-4 -19 -4 -35q0 -21 17.5 -30t65.5 -9zM178 294h109q11 0 13 10l2 9q4 19 4 31q0 43 -51 43h-2q-30 0 -47 -15t-25 -61zM289 650q44 0 82 59q10 16 30 8l45 -19q14 -6 14 -14q0 -10 -10 -26q-30 -47 -76 -76t-99 -29h-6q-56 0 -93.5 35t-37.5 88q0 18 16 24l53 15 q20 6 24 -8q8 -32 20 -44.5t38 -12.5z" />
<glyph unicode="&#x116;" horiz-adv-x="521" d="M408 264h-208q-8 -43 -12 -71q-4 -25 -4 -42q0 -15 18 -15h208q26 0 26 -17q0 -9 -6 -46l-7 -42q-4 -18 -11.5 -24.5t-28.5 -6.5h-261q-56 0 -78 15.5t-22 56.5q0 68 34 263q19 107 40 185q21 77 59.5 102t120.5 25h239q23 0 23 -13q0 -5 -7 -44l-9 -49q-4 -19 -10 -24.5 t-29 -5.5h-207q-22 0 -28 -20q-8 -30 -22 -101h205q27 0 27 -13q0 -14 -8 -49l-9 -41q-5 -23 -33 -23zM365 863q26 0 42 -16t16 -41q0 -35 -24.5 -61t-61.5 -26q-26 0 -42.5 16t-16.5 41q0 35 25 61t62 26z" />
<glyph unicode="&#x117;" horiz-adv-x="493" d="M238 116h6q46 0 106 14q15 3 19 3q13 0 15 -17l4 -46q2 -24 2 -30q0 -16 -31 -26q-75 -23 -160 -23h-14q-93 0 -140 34.5t-47 114.5q0 46 11 105l7 35q27 135 91 180q55 39 165 39h3q97 0 139 -41q36 -34 36 -99q0 -31 -15 -114l-5 -27q-3 -16 -10.5 -22t-23.5 -6h-237 q-4 -19 -4 -35q0 -21 17.5 -30t65.5 -9zM178 294h109q11 0 13 10l2 9q4 19 4 31q0 43 -51 43h-2q-30 0 -47 -15t-25 -61zM305 713q26 0 42 -16t16 -41q0 -35 -24.5 -61t-61.5 -26q-26 0 -42.5 16t-16.5 41q0 35 25 61t62 26z" />
<glyph unicode="&#x118;" horiz-adv-x="521" d="M408 264h-208q-8 -43 -12 -71q-4 -25 -4 -42q0 -15 18 -15h208q26 0 26 -17q0 -9 -6 -46l-7 -42q-3 -15 -7.5 -21t-18.5 -11q-41 -17 -68.5 -46.5t-27.5 -58.5q0 -22 27 -22q19 0 45 8q23 7 23 -9v-40q0 -13 -17 -20q-43 -16 -85 -16h-4q-45 0 -67.5 21t-22.5 54 q0 43 29.5 76.5t78.5 53.5h-186q-56 0 -78 15.5t-22 56.5q0 68 34 263q19 107 40 185q21 77 59.5 102t120.5 25h239q23 0 23 -13q0 -5 -7 -44l-9 -49q-4 -19 -10 -24.5t-29 -5.5h-207q-22 0 -28 -20q-8 -30 -22 -101h205q27 0 27 -13q0 -14 -8 -49l-9 -41q-5 -23 -33 -23z " />
<glyph unicode="&#x119;" horiz-adv-x="493" d="M390 40q0 -13 -19 -21q-48 -21 -76 -55t-28 -67q0 -25 27 -25q19 0 45 8q10 2 12 2q11 0 11 -11v-40q0 -13 -17 -20q-40 -16 -85 -16h-4q-45 0 -67.5 21t-22.5 54q0 35 29.5 72t69.5 54q-35 -5 -66 -5h-14q-93 0 -140 34.5t-47 114.5q0 46 11 105l7 35q27 135 91 180 q55 39 165 39h3q97 0 139 -41q36 -34 36 -99q0 -31 -15 -114l-5 -27q-3 -16 -10.5 -22t-23.5 -6h-237q-4 -19 -4 -35q0 -21 17.5 -30t65.5 -9h6q46 0 106 14q15 3 19 3q13 0 15 -17l4 -46q2 -24 2 -30zM178 294h109q11 0 13 10l2 9q4 19 4 31q0 43 -51 43h-2q-30 0 -47 -15 t-25 -61z" />
<glyph unicode="&#x11a;" horiz-adv-x="521" d="M408 264h-208q-8 -43 -12 -71q-4 -25 -4 -42q0 -15 18 -15h208q26 0 26 -17q0 -9 -6 -46l-7 -42q-4 -18 -11.5 -24.5t-28.5 -6.5h-261q-56 0 -78 15.5t-22 56.5q0 68 34 263q19 107 40 185q21 77 59.5 102t120.5 25h239q23 0 23 -13q0 -5 -7 -44l-9 -49q-4 -19 -10 -24.5 t-29 -5.5h-207q-22 0 -28 -20q-8 -30 -22 -101h205q27 0 27 -13q0 -14 -8 -49l-9 -41q-5 -23 -33 -23zM358 806l83 75q12 11 20 11q6 0 12 -6l38 -37q12 -12 -1 -25l-114 -107q-13 -13 -30 -13h-61q-16 0 -24 13l-70 105q-6 9 -6 15q0 8 11 15l51 33q12 7 16 7q8 0 16 -11 l54 -75h5z" />
<glyph unicode="&#x11b;" horiz-adv-x="493" d="M238 116h6q46 0 106 14q15 3 19 3q13 0 15 -17l4 -46q2 -24 2 -30q0 -16 -31 -26q-75 -23 -160 -23h-14q-93 0 -140 34.5t-47 114.5q0 46 11 105l7 35q27 135 91 180q55 39 165 39h3q97 0 139 -41q36 -34 36 -99q0 -31 -15 -114l-5 -27q-3 -16 -10.5 -22t-23.5 -6h-237 q-4 -19 -4 -35q0 -21 17.5 -30t65.5 -9zM178 294h109q11 0 13 10l2 9q4 19 4 31q0 43 -51 43h-2q-30 0 -47 -15t-25 -61zM299 656l83 75q12 11 20 11q6 0 12 -6l38 -37q12 -12 -1 -25l-114 -107q-13 -13 -30 -13h-61q-16 0 -24 13l-70 105q-6 9 -6 15q0 8 11 15l51 33 q12 7 16 7q8 0 16 -11l54 -75h5z" />
<glyph unicode="&#x11c;" horiz-adv-x="622" d="M61 381q18 95 40 141.5t59 77.5q68 56 218 56h4q117 0 200 -43q12 -6 12 -17q0 -9 -9 -30l-29 -67q-7 -17 -20 -17q-8 0 -36 10q-64 24 -122 24h-4q-70 0 -101 -31q-16 -16 -25 -42t-20 -82q-26 -136 -26 -166q0 -33 17 -47q21 -18 64 -18h6q42 0 62 6q21 5 24 24l19 92 h-63q-18 0 -18 12q0 9 4 30l10 52q4 19 11 25t24 6h188q25 0 25 -17q0 -10 -10 -58l-47 -233q-3 -16 -10.5 -24.5t-26.5 -16.5q-85 -37 -209 -37h-11q-151 0 -200 62q-33 42 -33 109q0 51 33 219zM393 774l-83 -75q-12 -11 -20 -11q-6 0 -12 6l-38 37q-12 12 1 25l114 107 q13 13 30 13h61q16 0 24 -13l70 -105q6 -9 6 -15q0 -8 -11 -15l-51 -33q-12 -7 -16 -7q-8 0 -16 11l-54 75h-5z" />
<glyph unicode="&#x11d;" horiz-adv-x="526" d="M146 0h-8q-76 0 -113 43q-40 47 -17 171l14 75q12 63 30 100.5t50 65.5q50 44 146 44h10q94 0 123 -48h2l9 20q5 12 10.5 15.5t17.5 3.5h63q24 0 19 -26l-86 -443q-23 -120 -77 -164t-161 -44h-9q-79 0 -143 20q-16 4 -16 15q0 7 6 31l14 55q4 13 8.5 15.5t24.5 -1.5 q54 -13 97 -13h6q47 0 70.5 18t31.5 58l3 15h-2q-35 -26 -123 -26zM291 188l22 116q8 39 -1 54q-8 15 -43 15h-8q-35 0 -50 -14q-19 -19 -32 -89l-9 -46q-8 -42 -8 -58q0 -14 6 -25q9 -16 43 -16h7q32 0 49 15q18 15 24 48zM313 640l-83 -75q-12 -11 -20 -11q-6 0 -12 6 l-38 37q-12 12 1 25l114 107q13 13 30 13h61q16 0 24 -13l70 -105q6 -9 6 -15q0 -8 -11 -15l-51 -33q-12 -7 -16 -7q-8 0 -16 11l-54 75h-5z" />
<glyph unicode="&#x11e;" horiz-adv-x="622" d="M61 381q18 95 40 141.5t59 77.5q68 56 218 56h4q117 0 200 -43q12 -6 12 -17q0 -9 -9 -30l-29 -67q-7 -17 -20 -17q-8 0 -36 10q-64 24 -122 24h-4q-70 0 -101 -31q-16 -16 -25 -42t-20 -82q-26 -136 -26 -166q0 -33 17 -47q21 -18 64 -18h6q42 0 62 6q21 5 24 24l19 92 h-63q-18 0 -18 12q0 9 4 30l10 52q4 19 11 25t24 6h188q25 0 25 -17q0 -10 -10 -58l-47 -233q-3 -16 -10.5 -24.5t-26.5 -16.5q-85 -37 -209 -37h-11q-151 0 -200 62q-33 42 -33 109q0 51 33 219zM395 800q44 0 82 59q10 16 30 8l45 -19q14 -6 14 -14q0 -10 -10 -26 q-30 -47 -76 -76t-99 -29h-6q-56 0 -93.5 35t-37.5 88q0 18 16 24l53 15q20 6 24 -8q8 -32 20 -44.5t38 -12.5z" />
<glyph unicode="&#x11f;" horiz-adv-x="526" d="M146 0h-8q-76 0 -113 43q-40 47 -17 171l14 75q12 63 30 100.5t50 65.5q50 44 146 44h10q94 0 123 -48h2l9 20q5 12 10.5 15.5t17.5 3.5h63q24 0 19 -26l-86 -443q-23 -120 -77 -164t-161 -44h-9q-79 0 -143 20q-16 4 -16 15q0 7 6 31l14 55q4 13 8.5 15.5t24.5 -1.5 q54 -13 97 -13h6q47 0 70.5 18t31.5 58l3 15h-2q-35 -26 -123 -26zM291 188l22 116q8 39 -1 54q-8 15 -43 15h-8q-35 0 -50 -14q-19 -19 -32 -89l-9 -46q-8 -42 -8 -58q0 -14 6 -25q9 -16 43 -16h7q32 0 49 15q18 15 24 48zM316 650q44 0 82 59q10 16 30 8l45 -19 q14 -6 14 -14q0 -10 -10 -26q-30 -47 -76 -76t-99 -29h-6q-56 0 -93.5 35t-37.5 88q0 18 16 24l53 15q20 6 24 -8q8 -32 20 -44.5t38 -12.5z" />
<glyph unicode="&#x120;" horiz-adv-x="622" d="M61 381q18 95 40 141.5t59 77.5q68 56 218 56h4q117 0 200 -43q12 -6 12 -17q0 -9 -9 -30l-29 -67q-7 -17 -20 -17q-8 0 -36 10q-64 24 -122 24h-4q-70 0 -101 -31q-16 -16 -25 -42t-20 -82q-26 -136 -26 -166q0 -33 17 -47q21 -18 64 -18h6q42 0 62 6q21 5 24 24l19 92 h-63q-18 0 -18 12q0 9 4 30l10 52q4 19 11 25t24 6h188q25 0 25 -17q0 -10 -10 -58l-47 -233q-3 -16 -10.5 -24.5t-26.5 -16.5q-85 -37 -209 -37h-11q-151 0 -200 62q-33 42 -33 109q0 51 33 219zM403 863q26 0 42 -16t16 -41q0 -35 -24.5 -61t-61.5 -26q-26 0 -42.5 16 t-16.5 41q0 35 25 61t62 26z" />
<glyph unicode="&#x121;" horiz-adv-x="526" d="M146 0h-8q-76 0 -113 43q-40 47 -17 171l14 75q12 63 30 100.5t50 65.5q50 44 146 44h10q94 0 123 -48h2l9 20q5 12 10.5 15.5t17.5 3.5h63q24 0 19 -26l-86 -443q-23 -120 -77 -164t-161 -44h-9q-79 0 -143 20q-16 4 -16 15q0 7 6 31l14 55q4 13 8.5 15.5t24.5 -1.5 q54 -13 97 -13h6q47 0 70.5 18t31.5 58l3 15h-2q-35 -26 -123 -26zM291 188l22 116q8 39 -1 54q-8 15 -43 15h-8q-35 0 -50 -14q-19 -19 -32 -89l-9 -46q-8 -42 -8 -58q0 -14 6 -25q9 -16 43 -16h7q32 0 49 15q18 15 24 48zM329 713q26 0 42 -16t16 -41q0 -35 -24.5 -61 t-61.5 -26q-26 0 -42.5 16t-16.5 41q0 35 25 61t62 26z" />
<glyph unicode="&#x122;" horiz-adv-x="622" d="M61 381q18 95 40 141.5t59 77.5q68 56 218 56h4q117 0 200 -43q12 -6 12 -17q0 -9 -9 -30l-29 -67q-7 -17 -20 -17q-8 0 -36 10q-64 24 -122 24h-4q-70 0 -101 -31q-16 -16 -25 -42t-20 -82q-26 -136 -26 -166q0 -33 17 -47q21 -18 64 -18h6q42 0 62 6q21 5 24 24l19 92 h-63q-18 0 -18 12q0 9 4 30l10 52q4 19 11 25t24 6h188q25 0 25 -17q0 -10 -10 -58l-47 -233q-3 -16 -10.5 -24.5t-26.5 -16.5q-85 -37 -209 -37h-11q-151 0 -200 62q-33 42 -33 109q0 51 33 219zM249 -56h21q46 0 46 -36q0 -11 -3 -26l-4 -18q-17 -87 -105 -155 q-15 -11 -22 -11q-5 0 -11 7l-23 28q-9 10 5 24l33 33q14 16 15 20q0 4 -3 6q-21 12 -21 36q0 7 2 21l3 16q10 55 67 55z" />
<glyph unicode="&#x123;" horiz-adv-x="526" d="M146 0h-8q-76 0 -113 43q-40 47 -17 171l14 75q12 63 30 100.5t50 65.5q50 44 146 44h10q94 0 123 -48h2l9 20q5 12 10.5 15.5t17.5 3.5h63q24 0 19 -26l-86 -443q-23 -120 -77 -164t-161 -44h-9q-79 0 -143 20q-16 4 -16 15q0 7 6 31l14 55q4 13 8.5 15.5t24.5 -1.5 q54 -13 97 -13h6q47 0 70.5 18t31.5 58l3 15h-2q-35 -26 -123 -26zM291 188l22 116q8 39 -1 54q-8 15 -43 15h-8q-35 0 -50 -14q-19 -19 -32 -89l-9 -46q-8 -42 -8 -58q0 -14 6 -25q9 -16 43 -16h7q32 0 49 15q18 15 24 48zM296 562h-21q-46 0 -46 36q0 11 3 26l4 18 q17 87 105 155q15 11 22 11q5 0 11 -7l23 -28q9 -10 -5 -24l-33 -33q-14 -16 -15 -20q0 -4 3 -6q21 -12 21 -36q0 -7 -2 -21l-3 -16q-10 -55 -67 -55z" />
<glyph unicode="&#x124;" horiz-adv-x="651" d="M490 0h-99q-28 0 -28 17q0 9 7 44l37 196h-191l-43 -226q-4 -18 -12.5 -24.5t-28.5 -6.5h-98q-28 0 -28 17q0 9 7 44l108 560q3 17 10 21.5t29 4.5h97q31 0 31 -16q0 -3 -7 -41l-38 -197h191l43 223q4 21 11 26t30 5h96q31 0 31 -15q0 -4 -1 -10.5t-3 -16t-3 -15.5 l-108 -559q-4 -21 -10.5 -26t-29.5 -5zM406 774l-83 -75q-12 -11 -20 -11q-6 0 -12 6l-38 37q-12 12 1 25l114 107q13 13 30 13h61q16 0 24 -13l70 -105q6 -9 6 -15q0 -8 -11 -15l-51 -33q-12 -7 -16 -7q-8 0 -16 11l-54 75h-5z" />
<glyph unicode="&#x125;" horiz-adv-x="526" d="M263 57l48 248q3 16 3 28q0 38 -48 38q-27 0 -44 -13q-17 -14 -24 -53l-54 -276q-3 -16 -10.5 -22.5t-26.5 -6.5h-93q-30 0 -30 17q0 9 7 42l116 594q5 24 33 24h98q28 0 28 -17q0 -12 -8 -48l-27 -138h3q47 25 111 25h2q133 0 133 -104q0 -41 -11 -94l-54 -272 q-3 -16 -10.5 -22.5t-26.5 -6.5h-91q-30 0 -30 19q0 11 6 38zM208 796l-83 -75q-12 -11 -20 -11q-6 0 -12 6l-38 37q-12 12 1 25l114 107q13 13 30 13h61q16 0 24 -13l70 -105q6 -9 6 -15q0 -8 -11 -15l-51 -33q-12 -7 -16 -7q-8 0 -16 11l-54 75h-5z" />
<glyph unicode="&#x126;" horiz-adv-x="671" d="M500 0h-99q-28 0 -28 17q0 9 7 44l37 196h-191l-43 -226q-4 -18 -12.5 -24.5t-28.5 -6.5h-98q-28 0 -28 17q0 9 7 44l78 406h-33q-15 0 -18.5 6t-0.5 22l9 46q4 18 9.5 23t20.5 5h33l10 52q3 17 10 21.5t29 4.5h97q31 0 31 -16q0 -3 -7 -41l-4 -21h191l9 47q4 21 11 26 t30 5h96q31 0 31 -15q0 -4 -1 -10.5t-3 -16t-3 -15.5l-4 -21h33q15 0 18.5 -6t0.5 -22l-9 -46q-4 -18 -9.5 -23t-20.5 -5h-33l-84 -436q-4 -21 -10.5 -26t-29.5 -5zM253 393h191l14 74h-191z" />
<glyph unicode="&#x127;" horiz-adv-x="526" d="M243 533l-12 -59h3q47 25 111 25h2q133 0 133 -104q0 -41 -11 -94l-54 -272q-3 -16 -10.5 -22.5t-26.5 -6.5h-91q-30 0 -30 19q0 11 6 38l48 248q3 16 3 28q0 38 -48 38q-27 0 -44 -13q-17 -14 -24 -53l-54 -276q-3 -16 -10.5 -22.5t-26.5 -6.5h-93q-30 0 -30 17 q0 9 7 42l92 474h-38q-21 0 -21 15q0 7 4 24l4 20q3 16 9.5 22t20.5 6h38l7 33q5 24 33 24h98q28 0 28 -17q0 -10 -6 -40h78q21 0 21 -15q0 -7 -4 -24l-4 -20q-5 -28 -31 -28h-77z" />
<glyph unicode="&#x128;" horiz-adv-x="301" d="M285 590l-109 -564q-3 -17 -10 -21.5t-29 -4.5h-97q-31 0 -31 16q0 9 6 41l110 564q3 17 10 21.5t29 4.5h97q31 0 31 -16q0 -4 -1 -10t-3 -15t-3 -16zM296 800q24 0 50 37q10 14 26 4l37 -24q15 -9 5 -26q-56 -95 -129 -95q-34 0 -64.5 23t-47.5 23q-24 0 -50 -37 q-10 -14 -26 -4l-37 24q-15 9 -5 26q56 95 129 95q35 0 65.5 -23t46.5 -23z" />
<glyph unicode="&#x129;" horiz-adv-x="266" d="M224 418l-76 -389q-5 -29 -38 -29h-92q-29 0 -29 17q0 7 7 40l78 404q6 29 39 29h92q28 0 28 -18q0 -9 -9 -54zM249 660q24 0 50 37q10 14 26 4l37 -24q15 -9 5 -26q-56 -95 -129 -95q-34 0 -64.5 23t-47.5 23q-24 0 -50 -37q-10 -14 -26 -4l-37 24q-15 9 -5 26 q56 95 129 95q35 0 65.5 -23t46.5 -23z" />
<glyph unicode="&#x12a;" horiz-adv-x="301" d="M285 590l-109 -564q-3 -17 -10 -21.5t-29 -4.5h-97q-31 0 -31 16q0 9 6 41l110 564q3 17 10 21.5t29 4.5h97q31 0 31 -16q0 -4 -1 -10t-3 -15t-3 -16zM132 824h229q12 0 15.5 -5t1.5 -19l-9 -49q-3 -16 -8 -20.5t-19 -4.5h-229q-12 0 -15.5 5t-1.5 19l9 49q3 16 8 20.5 t19 4.5z" />
<glyph unicode="&#x12b;" horiz-adv-x="266" d="M224 418l-76 -389q-5 -29 -38 -29h-92q-29 0 -29 17q0 7 7 40l78 404q6 29 39 29h92q28 0 28 -18q0 -9 -9 -54zM85 681h229q12 0 15.5 -5t1.5 -19l-9 -49q-3 -16 -8 -20.5t-19 -4.5h-229q-12 0 -15.5 5t-1.5 19l9 49q3 16 8 20.5t19 4.5z" />
<glyph unicode="&#x12c;" horiz-adv-x="301" d="M285 590l-109 -564q-3 -17 -10 -21.5t-29 -4.5h-97q-31 0 -31 16q0 9 6 41l110 564q3 17 10 21.5t29 4.5h97q31 0 31 -16q0 -4 -1 -10t-3 -15t-3 -16zM235 800q44 0 82 59q10 16 30 8l45 -19q14 -6 14 -14q0 -10 -10 -26q-30 -47 -76 -76t-99 -29h-6q-56 0 -93.5 35 t-37.5 88q0 18 16 24l53 15q20 6 24 -8q8 -32 20 -44.5t38 -12.5z" />
<glyph unicode="&#x12d;" horiz-adv-x="266" d="M224 418l-76 -389q-5 -29 -38 -29h-92q-29 0 -29 17q0 7 7 40l78 404q6 29 39 29h92q28 0 28 -18q0 -9 -9 -54zM191 650q44 0 82 59q10 16 30 8l45 -19q14 -6 14 -14q0 -10 -10 -26q-30 -47 -76 -76t-99 -29h-6q-56 0 -93.5 35t-37.5 88q0 18 16 24l53 15q20 6 24 -8 q8 -32 20 -44.5t38 -12.5z" />
<glyph unicode="&#x12e;" horiz-adv-x="304" d="M69 0h-29q-31 0 -31 16q0 9 6 41l110 564q3 17 10 21.5t29 4.5h97q31 0 31 -16q0 -4 -1 -10t-3 -15t-3 -16l-109 -564q-3 -15 -23 -26q-39 -19 -66 -48.5t-27 -57.5q0 -22 27 -22q19 0 45 8q23 7 23 -9v-40q0 -13 -17 -20q-43 -16 -85 -16h-4q-45 0 -67.5 21t-22.5 54 q0 42 30.5 76t79.5 54z" />
<glyph unicode="&#x12f;" horiz-adv-x="266" d="M224 418l-76 -389q-4 -23 -23 -28q-37 -11 -64 -42.5t-27 -62.5q0 -24 27 -24q19 0 45 8q10 2 12 2q11 0 11 -11v-40q0 -13 -17 -20q-43 -16 -85 -16h-4q-45 0 -67.5 21t-22.5 54q0 43 30.5 77.5t79.5 52.5h-25q-29 0 -29 17q0 7 7 40l78 404q6 29 39 29h92q28 0 28 -18 q0 -9 -9 -54zM180 532h-7q-34 0 -53 14.5t-19 39.5q0 15 4 35q7 41 29.5 59t66.5 18h7q34 0 53 -15t19 -41q0 -14 -4 -33q-8 -43 -29 -60t-67 -17z" />
<glyph unicode="&#x130;" horiz-adv-x="386" d="M324 590l-109 -564q-3 -17 -10 -21.5t-29 -4.5h-97q-31 0 -31 16q0 9 6 41l110 564q3 17 10 21.5t29 4.5h97q31 0 31 -16q0 -4 -1 -10t-3 -15t-3 -16zM288 863q26 0 42 -16t16 -41q0 -35 -24.5 -61t-61.5 -26q-26 0 -42.5 16t-16.5 41q0 35 25 61t62 26z" />
<glyph unicode="&#x131;" horiz-adv-x="266" d="M224 418l-76 -389q-5 -29 -38 -29h-92q-29 0 -29 17q0 7 7 40l78 404q6 29 39 29h92q28 0 28 -18q0 -9 -9 -54z" />
<glyph unicode="&#x132;" horiz-adv-x="687" d="M285 590l-109 -564q-3 -17 -10 -21.5t-29 -4.5h-97q-31 0 -31 16q0 9 6 41l110 564q3 17 10 21.5t29 4.5h97q31 0 31 -16q0 -4 -1 -10t-3 -15t-3 -16zM682 591l-70 -360q-18 -96 -37 -134.5t-52 -64.5q-25 -20 -61.5 -26t-97.5 -6h-65q-28 0 -28 17q0 12 7 44l8 41 q4 22 12.5 29t28.5 7h31q40 0 58.5 17.5t27.5 62.5l77 398q4 21 11.5 26t30.5 5h101q16 0 20.5 -3t4.5 -11t-7 -42z" />
<glyph unicode="&#x133;" horiz-adv-x="527" d="M224 418l-76 -389q-5 -29 -38 -29h-92q-29 0 -29 17q0 7 7 40l78 404q6 29 39 29h92q28 0 28 -18q0 -9 -9 -54zM173 532h-7q-72 0 -72 56q0 110 100 110h7q72 0 72 -56q0 -110 -100 -110zM262 52l79 409q6 29 39 29h92q28 0 28 -18q0 -9 -9 -54l-72 -370 q-14 -73 -30 -112t-41 -62q-54 -51 -161 -51h-54q-22 0 -22 17q0 8 5 36l9 49q2 14 8.5 19t21.5 5h19q39 0 57.5 20.5t30.5 82.5zM440 532h-7q-72 0 -72 56q0 110 100 110h7q72 0 72 -56q0 -110 -100 -110z" />
<glyph unicode="&#x134;" horiz-adv-x="386" d="M381 591l-70 -360q-18 -96 -37 -134.5t-52 -64.5q-25 -20 -61.5 -26t-97.5 -6h-65q-28 0 -28 17q0 12 7 44l8 41q4 22 12.5 29t28.5 7h31q40 0 58.5 17.5t27.5 62.5l77 398q4 21 11.5 26t30.5 5h101q16 0 20.5 -3t4.5 -11t-7 -42zM328 774l-83 -75q-12 -11 -20 -11 q-6 0 -12 6l-38 37q-12 12 1 25l114 107q13 13 30 13h61q16 0 24 -13l70 -105q6 -9 6 -15q0 -8 -11 -15l-51 -33q-12 -7 -16 -7q-8 0 -16 11l-54 75h-5z" />
<glyph unicode="&#x135;" horiz-adv-x="261" d="M-4 52l79 409q6 29 39 29h92q28 0 28 -18q0 -9 -9 -54l-72 -370q-14 -73 -30 -112t-41 -62q-54 -51 -161 -51h-54q-22 0 -22 17q0 8 5 36l9 49q2 14 8.5 19t21.5 5h19q39 0 57.5 20.5t30.5 82.5zM186 640l-83 -75q-12 -11 -20 -11q-6 0 -12 6l-38 37q-12 12 1 25l114 107 q13 13 30 13h61q16 0 24 -13l70 -105q6 -9 6 -15q0 -8 -11 -15l-51 -33q-12 -7 -16 -7q-8 0 -16 11l-54 75h-5z" />
<glyph unicode="&#x136;" horiz-adv-x="590" d="M219 264l-46 -236q-3 -17 -10 -22.5t-30 -5.5h-103q-14 0 -19 3t-5 13q0 6 7 42l108 558q4 20 11.5 25.5t28.5 5.5h97q18 0 24.5 -2.5t6.5 -10.5q0 -9 -11 -64l-33 -172h7q8 0 26 20l167 204q21 25 55 25h109q51 0 17 -38l-216 -253q-27 -30 -27 -38q0 -9 14 -34 l124 -236q11 -19 11 -30q0 -18 -25 -18h-112q-20 0 -29 5.5t-17 21.5l-99 203q-16 34 -24 34h-7zM244 -56h21q46 0 46 -36q0 -11 -3 -26l-4 -18q-17 -87 -105 -155q-15 -11 -22 -11q-5 0 -11 7l-23 28q-9 10 5 24l33 33q14 16 15 20q0 4 -3 6q-21 12 -21 36q0 7 2 21l3 16 q10 55 67 55z" />
<glyph unicode="&#x137;" horiz-adv-x="506" d="M176 194l-32 -164q-6 -30 -41 -30h-91q-28 0 -28 18q0 8 6 40l116 590q6 29 40 29h91q28 0 28 -18q0 -10 -6 -40l-58 -297h10q6 0 23 21l97 124q11 14 21 18.5t30 4.5h112q17 0 17 -12q0 -7 -13 -23l-147 -172q-21 -24 -21 -33q0 -8 14 -39l79 -178q4 -10 3 -17 q-3 -16 -24 -16h-100q-21 0 -29.5 5.5t-13.5 20.5l-54 138q-11 30 -19 30h-10zM187 -56h21q46 0 46 -36q0 -11 -3 -26l-4 -18q-17 -87 -105 -155q-15 -11 -22 -11q-5 0 -11 7l-23 28q-9 10 5 24l33 33q14 16 15 20q0 4 -3 6q-21 12 -21 36q0 7 2 21l3 16q10 55 67 55z" />
<glyph unicode="&#x138;" horiz-adv-x="506" d="M179 194l-32 -164q-6 -30 -41 -30h-94q-28 0 -28 18q0 8 6 40l80 403q6 29 40 29h94q28 0 28 -18q0 -10 -6 -40l-22 -110h7q6 0 23 21l97 124q11 14 21 18.5t30 4.5h112q17 0 17 -12q0 -7 -13 -23l-147 -172q-21 -22 -21 -33q0 -8 14 -39l79 -178q4 -10 3 -17 q-3 -16 -24 -16h-100q-21 0 -29.5 5.5t-13.5 20.5l-54 138q-11 30 -19 30h-7z" />
<glyph unicode="&#x139;" horiz-adv-x="473" d="M277 571l-80 -412q-5 -23 20 -23h163q26 0 26 -16q0 -7 -7 -43l-9 -45q-4 -20 -11 -26t-30 -6h-239q-92 0 -92 66q0 26 12 87l90 463q4 21 11 26t30 5h103q24 0 24 -13q0 -8 -11 -63zM140 798l195 98q10 5 17 5q12 0 19 -16l26 -67q3 -7 3 -13q0 -13 -28 -24l-190 -74 q-10 -4 -17 -4q-12 0 -19 16l-21 48q-3 7 -3 13q0 9 18 18z" />
<glyph unicode="&#x13a;" horiz-adv-x="308" d="M185 124h28q14 0 19 -4t5 -14q0 -8 -6 -38l-7 -34q-4 -21 -12.5 -27.5t-26.5 -6.5h-68q-76 0 -101 29q-16 19 -16 49q0 26 15 103l91 467q4 18 11.5 23.5t27.5 5.5h91q20 0 26 -6t3 -23l-90 -465q-8 -36 -8 -45q0 -14 18 -14zM124 800l176 129q13 9 21 9q10 0 17 -13 l36 -62q5 -8 5 -15q0 -12 -23 -26l-175 -105q-11 -7 -19 -7q-9 0 -18 13l-29 44q-6 9 -6 14q0 8 15 19z" />
<glyph unicode="&#x13b;" horiz-adv-x="473" d="M277 571l-80 -412q-5 -23 20 -23h163q26 0 26 -16q0 -7 -7 -43l-9 -45q-4 -20 -11 -26t-30 -6h-239q-92 0 -92 66q0 26 12 87l90 463q4 21 11 26t30 5h103q24 0 24 -13q0 -8 -11 -63zM177 -56h21q46 0 46 -36q0 -11 -3 -26l-4 -18q-17 -87 -105 -155q-15 -11 -22 -11 q-5 0 -11 7l-23 28q-9 10 5 24l33 33q14 16 15 20q0 4 -3 6q-21 12 -21 36q0 7 2 21l3 16q10 55 67 55z" />
<glyph unicode="&#x13c;" horiz-adv-x="308" d="M185 124h28q14 0 19 -4t5 -14q0 -8 -6 -38l-7 -34q-4 -21 -12.5 -27.5t-26.5 -6.5h-68q-76 0 -101 29q-16 19 -16 49q0 26 15 103l91 467q4 18 11.5 23.5t27.5 5.5h91q20 0 26 -6t3 -23l-90 -465q-8 -36 -8 -45q0 -14 18 -14zM74 -56h21q46 0 46 -36q0 -11 -3 -26l-4 -18 q-17 -87 -105 -155q-15 -11 -22 -11q-5 0 -11 7l-23 28q-9 10 5 24l33 33q14 16 15 20q0 4 -3 6q-21 12 -21 36q0 7 2 21l3 16q10 55 67 55z" />
<glyph unicode="&#x13d;" horiz-adv-x="473" d="M277 571l-80 -412q-5 -23 20 -23h163q26 0 26 -16q0 -7 -7 -43l-9 -45q-4 -20 -11 -26t-30 -6h-239q-92 0 -92 66q0 26 12 87l90 463q4 21 11 26t30 5h103q24 0 24 -13q0 -8 -11 -63zM428 686h21q46 0 46 -36q0 -11 -3 -26l-4 -18q-17 -87 -105 -155q-15 -11 -22 -11 q-5 0 -11 7l-23 28q-9 10 5 24l33 33q14 16 15 20q0 4 -3 6q-21 12 -21 36q0 7 2 21l3 16q10 55 67 55z" />
<glyph unicode="&#x13e;" horiz-adv-x="397" d="M185 124h28q14 0 19 -4t5 -14q0 -8 -6 -38l-7 -34q-4 -21 -12.5 -27.5t-26.5 -6.5h-68q-76 0 -101 29q-16 19 -16 49q0 26 15 103l91 467q4 18 11.5 23.5t27.5 5.5h91q20 0 26 -6t3 -23l-90 -465q-8 -36 -8 -45q0 -14 18 -14zM390 730h21q46 0 46 -36q0 -11 -3 -26 l-4 -18q-17 -87 -105 -155q-15 -11 -22 -11q-5 0 -11 7l-23 28q-9 10 5 24l33 33q14 16 15 20q0 4 -3 6q-21 12 -21 36q0 7 2 21l3 16q10 55 67 55z" />
<glyph unicode="&#x13f;" horiz-adv-x="477" d="M277 571l-80 -412q-5 -23 20 -23h163q26 0 26 -16q0 -7 -7 -43l-9 -45q-4 -20 -11 -26t-30 -6h-239q-92 0 -92 66q0 26 12 87l90 463q4 21 11 26t30 5h103q24 0 24 -13q0 -8 -11 -63zM408 448q26 0 42 -16t16 -41q0 -35 -24.5 -61t-61.5 -26q-26 0 -42.5 16t-16.5 41 q0 35 25 61t62 26z" />
<glyph unicode="&#x140;" horiz-adv-x="418" d="M185 124h28q14 0 19 -4t5 -14q0 -8 -6 -38l-7 -34q-4 -21 -12.5 -27.5t-26.5 -6.5h-68q-76 0 -101 29q-16 19 -16 49q0 26 15 103l91 467q4 18 11.5 23.5t27.5 5.5h91q20 0 26 -6t3 -23l-90 -465q-8 -36 -8 -45q0 -14 18 -14zM351 431q26 0 42 -16t16 -41 q0 -35 -24.5 -61t-61.5 -26q-26 0 -42.5 16t-16.5 41q0 35 25 61t62 26z" />
<glyph unicode="&#x141;" horiz-adv-x="503" d="M303 571l-18 -93l78 47q14 8 20 8q9 0 9 -10q0 -1 -5 -28l-12 -63q-3 -17 -20 -28l-96 -57l-36 -188q-5 -23 20 -23h163q26 0 26 -16q0 -7 -7 -43l-9 -45q-4 -20 -11 -26t-30 -6h-239q-92 0 -92 66q0 26 12 87l16 83l-58 -34q-8 -4 -14 -4q-8 0 -8 7q0 5 5 30l12 64 q3 17 21 28l67 40l49 249q4 21 11 26t30 5h103q24 0 24 -13q0 -8 -11 -63z" />
<glyph unicode="&#x142;" horiz-adv-x="346" d="M223 124h28q14 0 19 -4t5 -14q0 -8 -6 -38l-7 -34q-4 -20 -12.5 -27t-26.5 -7h-68q-76 0 -101 29q-16 19 -16 49q0 26 15 103l11 56l-37 -21q-18 -10 -28 -10q-9 0 -9 11q0 6 6 33l13 66q3 15 9.5 22t22.5 17l51 29l52 264q4 17 11.5 23t27.5 6h91q20 0 26 -6t3 -23 l-31 -162l51 29q23 12 28 12q9 0 9 -8q0 -6 -7 -40l-12 -63q-3 -15 -9 -22t-23 -17l-66 -38l-30 -156q-8 -36 -8 -45q0 -14 18 -14z" />
<glyph unicode="&#x143;" horiz-adv-x="643" d="M387 28l-163 322h-2l-61 -316q-4 -21 -12 -27.5t-29 -6.5h-86q-28 0 -28 18q0 4 6 40l108 556q4 20 12.5 26.5t27.5 6.5h40q41 0 54 -28l161 -331h2l64 325q4 20 12.5 27t28.5 7h85q30 0 30 -17q0 -5 -8 -45l-107 -552q-6 -33 -40 -33h-41q-39 0 -54 28zM296 798l195 98 q10 5 17 5q12 0 19 -16l26 -67q3 -7 3 -13q0 -13 -28 -24l-190 -74q-10 -4 -17 -4q-12 0 -19 16l-21 48q-3 7 -3 13q0 9 18 18z" />
<glyph unicode="&#x144;" horiz-adv-x="525" d="M262 57l48 248q3 16 3 28q0 38 -48 38q-27 0 -44 -13q-17 -14 -24 -53l-54 -276q-3 -16 -10.5 -22.5t-26.5 -6.5h-93q-29 0 -29 18q0 4 7 42l78 402q6 28 36 28h52q15 0 21.5 -3.5t7.5 -14.5l3 -21h3q54 48 152 48h2q133 0 133 -104q0 -41 -11 -94l-54 -272 q-3 -16 -10.5 -22.5t-26.5 -6.5h-91q-30 0 -30 19q0 11 6 38zM210 634l176 129q13 9 21 9q10 0 17 -13l36 -62q5 -8 5 -15q0 -12 -23 -26l-175 -105q-11 -7 -19 -7q-9 0 -18 13l-29 44q-6 9 -6 14q0 8 15 19z" />
<glyph unicode="&#x145;" horiz-adv-x="643" d="M387 28l-163 322h-2l-61 -316q-4 -21 -12 -27.5t-29 -6.5h-86q-28 0 -28 18q0 4 6 40l108 556q4 20 12.5 26.5t27.5 6.5h40q41 0 54 -28l161 -331h2l64 325q4 20 12.5 27t28.5 7h85q30 0 30 -17q0 -5 -8 -45l-107 -552q-6 -33 -40 -33h-41q-39 0 -54 28zM265 -56h21 q46 0 46 -36q0 -11 -3 -26l-4 -18q-17 -87 -105 -155q-15 -11 -22 -11q-5 0 -11 7l-23 28q-9 10 5 24l33 33q14 16 15 20q0 4 -3 6q-21 12 -21 36q0 7 2 21l3 16q10 55 67 55z" />
<glyph unicode="&#x146;" horiz-adv-x="525" d="M262 57l48 248q3 16 3 28q0 38 -48 38q-27 0 -44 -13q-17 -14 -24 -53l-54 -276q-3 -16 -10.5 -22.5t-26.5 -6.5h-93q-29 0 -29 18q0 4 7 42l78 402q6 28 36 28h52q15 0 21.5 -3.5t7.5 -14.5l3 -21h3q54 48 152 48h2q133 0 133 -104q0 -41 -11 -94l-54 -272 q-3 -16 -10.5 -22.5t-26.5 -6.5h-91q-30 0 -30 19q0 11 6 38zM187 -56h21q46 0 46 -36q0 -11 -3 -26l-4 -18q-17 -87 -105 -155q-15 -11 -22 -11q-5 0 -11 7l-23 28q-9 10 5 24l33 33q14 16 15 20q0 4 -3 6q-21 12 -21 36q0 7 2 21l3 16q10 55 67 55z" />
<glyph unicode="&#x147;" horiz-adv-x="643" d="M387 28l-163 322h-2l-61 -316q-4 -21 -12 -27.5t-29 -6.5h-86q-28 0 -28 18q0 4 6 40l108 556q4 20 12.5 26.5t27.5 6.5h40q41 0 54 -28l161 -331h2l64 325q4 20 12.5 27t28.5 7h85q30 0 30 -17q0 -5 -8 -45l-107 -552q-6 -33 -40 -33h-41q-39 0 -54 28zM396 806l83 75 q12 11 20 11q6 0 12 -6l38 -37q12 -12 -1 -25l-114 -107q-13 -13 -30 -13h-61q-16 0 -24 13l-70 105q-6 9 -6 15q0 8 11 15l51 33q12 7 16 7q8 0 16 -11l54 -75h5z" />
<glyph unicode="&#x148;" horiz-adv-x="525" d="M262 57l48 248q3 16 3 28q0 38 -48 38q-27 0 -44 -13q-17 -14 -24 -53l-54 -276q-3 -16 -10.5 -22.5t-26.5 -6.5h-93q-29 0 -29 18q0 4 7 42l78 402q6 28 36 28h52q15 0 21.5 -3.5t7.5 -14.5l3 -21h3q54 48 152 48h2q133 0 133 -104q0 -41 -11 -94l-54 -272 q-3 -16 -10.5 -22.5t-26.5 -6.5h-91q-30 0 -30 19q0 11 6 38zM320 656l83 75q12 11 20 11q6 0 12 -6l38 -37q12 -12 -1 -25l-114 -107q-13 -13 -30 -13h-61q-16 0 -24 13l-70 105q-6 9 -6 15q0 8 11 15l51 33q12 7 16 7q8 0 16 -11l54 -75h5z" />
<glyph unicode="&#x149;" horiz-adv-x="525" d="M262 57l48 248q3 16 3 28q0 38 -48 38q-27 0 -44 -13q-17 -14 -24 -53l-54 -276q-3 -16 -10.5 -22.5t-26.5 -6.5h-93q-29 0 -29 18q0 4 7 42l78 402q6 28 36 28h52q15 0 21.5 -3.5t7.5 -14.5l3 -21h3q54 48 152 48h2q133 0 133 -104q0 -41 -11 -94l-54 -272 q-3 -16 -10.5 -22.5t-26.5 -6.5h-91q-30 0 -30 19q0 11 6 38zM121 839h10q69 0 70 -54q0 -15 -6 -44q-9 -46 -47.5 -111t-101.5 -122q-17 -15 -36 -2l-37 26q-16 11 1 28q23 25 45 50q29 32 29 45q0 5 -6 13l-10 9q-13 12 -13 31q0 14 8 54t30 58.5t64 18.5z" />
<glyph unicode="&#x14a;" horiz-adv-x="643" d="M400 219h2l79 394q4 20 12.5 27t28.5 7h85q30 0 30 -17q0 -5 -8 -45l-107 -552q-16 -80 -34.5 -122t-48.5 -65q-53 -40 -166 -40h-39q-28 0 -28 20q0 8 6 39l6 31q4 22 13 29t29 7h27q41 0 60.5 12.5t27.5 51.5q-32 3 -42 32l-110 315h-2l-60 -309q-4 -21 -12 -27.5 t-29 -6.5h-86q-28 0 -28 18q0 4 6 40l108 556q4 20 12.5 26.5t27.5 6.5h51q41 0 54 -28z" />
<glyph unicode="&#x14b;" horiz-adv-x="525" d="M255 21l57 292q7 35 -3 46q-9 12 -41 12h-5q-29 0 -44 -12t-21 -48l-55 -282q-3 -16 -10.5 -22.5t-26.5 -6.5h-93q-29 0 -29 18q0 4 7 42l78 402q6 28 36 28h52q15 0 21.5 -3.5t7.5 -14.5l3 -21h3q54 48 153 48h7q74 0 105 -31q24 -24 24 -73q0 -35 -11 -94l-52 -264 q-14 -68 -27 -105.5t-37 -59.5q-56 -50 -162 -50h-51q-24 0 -24 16q0 3 7 40l7 38q5 29 34 29h23q30 0 45 18.5t22 57.5z" />
<glyph unicode="&#x14c;" horiz-adv-x="633" d="M414 305q20 104 20 139q0 34 -12 49q-19 23 -62 23h-12q-42 0 -70 -24q-34 -29 -57 -150q-21 -112 -21 -138q0 -33 13 -49q20 -24 62 -24h12q41 0 70 24q32 28 57 150zM579 285q-20 -105 -45 -158.5t-72 -86.5q-71 -49 -205 -49h-11q-116 0 -170 47q-48 41 -48 134 q0 58 27 196q19 99 47 154t81 91q63 43 192 43h8q118 0 171 -47q51 -45 51 -125q0 -64 -26 -199zM295 824h229q12 0 15.5 -5t1.5 -19l-9 -49q-3 -16 -8 -20.5t-19 -4.5h-229q-12 0 -15.5 5t-1.5 19l9 49q3 16 8 20.5t19 4.5z" />
<glyph unicode="&#x14d;" horiz-adv-x="520" d="M177 274q-19 -82 -19 -117q0 -41 47 -41h2q32 0 49 13q24 19 39 87q19 82 19 117q0 41 -47 41h-2q-32 0 -49 -13q-23 -18 -39 -87zM199 -9h-20q-92 0 -139 39q-42 35 -42 103q0 57 29 181q13 56 34.5 90.5t58.5 58.5q57 36 157 36h18q92 0 139 -39q42 -35 42 -103 q0 -65 -29 -178q-16 -62 -36 -96.5t-52 -54.5q-58 -37 -160 -37zM211 681h229q12 0 15.5 -5t1.5 -19l-9 -49q-3 -16 -8 -20.5t-19 -4.5h-229q-12 0 -15.5 5t-1.5 19l9 49q3 16 8 20.5t19 4.5z" />
<glyph unicode="&#x14e;" horiz-adv-x="633" d="M414 305q20 104 20 139q0 34 -12 49q-19 23 -62 23h-12q-42 0 -70 -24q-34 -29 -57 -150q-21 -112 -21 -138q0 -33 13 -49q20 -24 62 -24h12q41 0 70 24q32 28 57 150zM579 285q-20 -105 -45 -158.5t-72 -86.5q-71 -49 -205 -49h-11q-116 0 -170 47q-48 41 -48 134 q0 58 27 196q19 99 47 154t81 91q63 43 192 43h8q118 0 171 -47q51 -45 51 -125q0 -64 -26 -199zM407 800q44 0 82 59q10 16 30 8l45 -19q14 -6 14 -14q0 -10 -10 -26q-30 -47 -76 -76t-99 -29h-6q-56 0 -93.5 35t-37.5 88q0 18 16 24l53 15q20 6 24 -8q8 -32 20 -44.5 t38 -12.5z" />
<glyph unicode="&#x14f;" horiz-adv-x="520" d="M177 274q-19 -82 -19 -117q0 -41 47 -41h2q32 0 49 13q24 19 39 87q19 82 19 117q0 41 -47 41h-2q-32 0 -49 -13q-23 -18 -39 -87zM199 -9h-20q-92 0 -139 39q-42 35 -42 103q0 57 29 181q13 56 34.5 90.5t58.5 58.5q57 36 157 36h18q92 0 139 -39q42 -35 42 -103 q0 -65 -29 -178q-16 -62 -36 -96.5t-52 -54.5q-58 -37 -160 -37zM317 650q44 0 82 59q10 16 30 8l45 -19q14 -6 14 -14q0 -10 -10 -26q-30 -47 -76 -76t-99 -29h-6q-56 0 -93.5 35t-37.5 88q0 18 16 24l53 15q20 6 24 -8q8 -32 20 -44.5t38 -12.5z" />
<glyph unicode="&#x150;" horiz-adv-x="633" d="M414 305q20 104 20 139q0 34 -12 49q-19 23 -62 23h-12q-42 0 -70 -24q-34 -29 -57 -150q-21 -112 -21 -138q0 -33 13 -49q20 -24 62 -24h12q41 0 70 24q32 28 57 150zM579 285q-20 -105 -45 -158.5t-72 -86.5q-71 -49 -205 -49h-11q-116 0 -170 47q-48 41 -48 134 q0 58 27 196q19 99 47 154t81 91q63 43 192 43h8q118 0 171 -47q51 -45 51 -125q0 -64 -26 -199zM229 800l172 112q22 15 34 -6l34 -59q8 -15 5 -22t-18 -15l-180 -93q-24 -13 -34 5l-26 43q-11 18 13 35zM469 775l172 112q22 15 34 -6l34 -59q8 -15 5 -22t-18 -15l-180 -93 q-24 -13 -34 5l-26 43q-11 19 13 35z" />
<glyph unicode="&#x151;" horiz-adv-x="520" d="M177 274q-19 -82 -19 -117q0 -41 47 -41h2q32 0 49 13q24 19 39 87q19 82 19 117q0 41 -47 41h-2q-32 0 -49 -13q-23 -18 -39 -87zM199 -9h-20q-92 0 -139 39q-42 35 -42 103q0 57 29 181q13 56 34.5 90.5t58.5 58.5q57 36 157 36h18q92 0 139 -39q42 -35 42 -103 q0 -65 -29 -178q-16 -62 -36 -96.5t-52 -54.5q-58 -37 -160 -37zM138 623l149 140q12 10 19 10t16 -10l44 -52q8 -10 8 -16q0 -11 -15 -22l-160 -124q-22 -17 -35 -1l-33 38q-14 16 7 37zM363 623l149 140q12 10 19 10t16 -10l44 -52q8 -10 8 -16q0 -11 -15 -22l-160 -124 q-22 -17 -35 -1l-33 38q-14 16 7 37z" />
<glyph unicode="&#x152;" horiz-adv-x="882" d="M769 264h-208q-8 -43 -12 -71q-4 -25 -4 -42q0 -15 18 -15h208q26 0 26 -17q0 -9 -6 -46l-7 -42q-4 -18 -11.5 -24.5t-28.5 -6.5h-261q-75 0 -92 30q-68 -39 -147 -39h-8q-110 0 -160 47q-48 44 -48 134q0 58 27 196q19 99 47 154t81 91q63 43 165 43h8q80 0 144 -48 q36 39 137 39h239q23 0 23 -13q0 -5 -7 -44l-9 -49q-4 -19 -10 -24.5t-29 -5.5h-207q-22 0 -28 -20q-8 -30 -22 -101h205q27 0 27 -13q0 -14 -8 -49l-9 -41q-5 -23 -33 -23zM283 131q56 0 107 34q8 63 27 170q17 99 31 151q-42 30 -90 30h-10q-42 0 -70 -24 q-34 -29 -57 -150q-21 -112 -21 -138q0 -33 13 -49q20 -24 62 -24h8z" />
<glyph unicode="&#x153;" horiz-adv-x="781" d="M190 -9h-13q-90 0 -137 39q-42 35 -42 103q0 57 29 181q13 56 34.5 90.5t58.5 58.5q57 36 156 36h12q79 0 124 -34q56 34 148 34h10q46 0 82.5 -12.5t53.5 -31.5q32 -37 32 -96q0 -31 -15 -114l-5 -27q-5 -28 -34 -28h-237q-4 -19 -4 -35q0 -21 17.5 -30t65.5 -9h6 q46 0 106 14q15 3 19 3q13 0 15 -17l4 -46q2 -24 2 -30q0 -16 -31 -26q-75 -23 -160 -23h-14q-79 0 -132 36q-65 -36 -151 -36zM466 294h109q12 0 13 10l2 9q4 19 4 39q0 12 -6 21q-10 14 -42 14h-5q-30 0 -45 -14q-19 -18 -26 -57l-4 -20v-2zM177 274q-19 -82 -19 -117 q0 -41 47 -41h2q32 0 49 13q24 19 39 87q19 82 19 117q0 41 -47 41h-2q-32 0 -49 -13q-23 -18 -39 -87z" />
<glyph unicode="&#x154;" horiz-adv-x="591" d="M213 231l-38 -200q-4 -19 -11.5 -25t-29.5 -6h-98q-21 0 -26 6.5t-2 24.5l112 578q4 21 13 29.5t29 10.5q65 7 169 7h11q111 0 172 -33t61 -119q0 -92 -40 -161t-124 -96l88 -207q6 -14 6 -22q0 -18 -27 -18h-103q-25 0 -34.5 5.5t-14.5 22.5l-67 192q-3 11 -17 11h-29z M337 520h-17q-26 0 -35 -1q-16 -2 -20 -22l-26 -133h53q56 0 78 19q33 29 33 92q0 26 -14.5 35.5t-51.5 9.5zM277 798l195 98q10 5 17 5q12 0 19 -16l26 -67q3 -7 3 -13q0 -13 -28 -24l-190 -74q-10 -4 -17 -4q-12 0 -19 16l-21 48q-3 7 -3 13q0 9 18 18z" />
<glyph unicode="&#x155;" horiz-adv-x="370" d="M-9 60l78 402q3 16 10.5 22t25.5 6h52q28 0 29 -21l2 -30h2q39 51 121 51h46q19 0 19 -11q0 -5 -6 -41l-9 -49q-3 -16 -9.5 -22t-21.5 -6h-28q-57 0 -81 -21q-21 -19 -33 -81l-45 -230q-3 -16 -10.5 -22.5t-26.5 -6.5h-93q-29 0 -29 18q0 7 7 42zM168 634l176 129 q13 9 21 9q10 0 17 -13l36 -62q5 -8 5 -15q0 -12 -23 -26l-175 -105q-11 -7 -19 -7q-9 0 -18 13l-29 44q-6 9 -6 14q0 8 15 19z" />
<glyph unicode="&#x156;" horiz-adv-x="591" d="M213 231l-38 -200q-4 -19 -11.5 -25t-29.5 -6h-98q-21 0 -26 6.5t-2 24.5l112 578q4 21 13 29.5t29 10.5q65 7 169 7h11q111 0 172 -33t61 -119q0 -92 -40 -161t-124 -96l88 -207q6 -14 6 -22q0 -18 -27 -18h-103q-25 0 -34.5 5.5t-14.5 22.5l-67 192q-3 11 -17 11h-29z M337 520h-17q-26 0 -35 -1q-16 -2 -20 -22l-26 -133h53q56 0 78 19q33 29 33 92q0 26 -14.5 35.5t-51.5 9.5zM238 -56h21q46 0 46 -36q0 -11 -3 -26l-4 -18q-17 -87 -105 -155q-15 -11 -22 -11q-5 0 -11 7l-23 28q-9 10 5 24l33 33q14 16 15 20q0 4 -3 6q-21 12 -21 36 q0 7 2 21l3 16q10 55 67 55z" />
<glyph unicode="&#x157;" horiz-adv-x="370" d="M-9 60l78 402q3 16 10.5 22t25.5 6h52q28 0 29 -21l2 -30h2q39 51 121 51h46q19 0 19 -11q0 -5 -6 -41l-9 -49q-3 -16 -9.5 -22t-21.5 -6h-28q-57 0 -81 -21q-21 -19 -33 -81l-45 -230q-3 -16 -10.5 -22.5t-26.5 -6.5h-93q-29 0 -29 18q0 7 7 42zM38 -56h21q46 0 46 -36 q0 -11 -3 -26l-4 -18q-17 -87 -105 -155q-15 -11 -22 -11q-5 0 -11 7l-23 28q-9 10 5 24l33 33q14 16 15 20q0 4 -3 6q-21 12 -21 36q0 7 2 21l3 16q10 55 67 55z" />
<glyph unicode="&#x158;" horiz-adv-x="591" d="M213 231l-38 -200q-4 -19 -11.5 -25t-29.5 -6h-98q-21 0 -26 6.5t-2 24.5l112 578q4 21 13 29.5t29 10.5q65 7 169 7h11q111 0 172 -33t61 -119q0 -92 -40 -161t-124 -96l88 -207q6 -14 6 -22q0 -18 -27 -18h-103q-25 0 -34.5 5.5t-14.5 22.5l-67 192q-3 11 -17 11h-29z M337 520h-17q-26 0 -35 -1q-16 -2 -20 -22l-26 -133h53q56 0 78 19q33 29 33 92q0 26 -14.5 35.5t-51.5 9.5zM370 806l83 75q12 11 20 11q6 0 12 -6l38 -37q12 -12 -1 -25l-114 -107q-13 -13 -30 -13h-61q-16 0 -24 13l-70 105q-6 9 -6 15q0 8 11 15l51 33q12 7 16 7 q8 0 16 -11l54 -75h5z" />
<glyph unicode="&#x159;" horiz-adv-x="370" d="M-9 60l78 402q3 16 10.5 22t25.5 6h52q28 0 29 -21l2 -30h2q39 51 121 51h46q19 0 19 -11q0 -5 -6 -41l-9 -49q-3 -16 -9.5 -22t-21.5 -6h-28q-57 0 -81 -21q-21 -19 -33 -81l-45 -230q-3 -16 -10.5 -22.5t-26.5 -6.5h-93q-29 0 -29 18q0 7 7 42zM250 656l83 75 q12 11 20 11q6 0 12 -6l38 -37q12 -12 -1 -25l-114 -107q-13 -13 -30 -13h-61q-16 0 -24 13l-70 105q-6 9 -6 15q0 8 11 15l51 33q12 7 16 7q8 0 16 -11l54 -75h5z" />
<glyph unicode="&#x15a;" horiz-adv-x="537" d="M209 -9h-9q-44 0 -101 8t-87 20q-17 7 -21 14t0 23l18 83q7 31 34 21q85 -31 157 -31h5q77 0 94 40q8 19 8 41q0 18 -13.5 29t-49.5 20l-61 14q-68 15 -97.5 49t-29.5 90q0 134 77 195q62 49 193 49h4q92 0 167 -28q17 -6 17 -20q0 -8 -15 -48l-17 -45q-6 -16 -14 -19.5 t-23 1.5q-67 19 -120 19h-5q-100 0 -100 -64q0 -20 14 -31t57 -22l63 -16q66 -17 94 -44t28 -77q0 -147 -60 -210q-60 -61 -207 -61zM234 798l195 98q10 5 17 5q12 0 19 -16l26 -67q3 -7 3 -13q0 -13 -28 -24l-190 -74q-10 -4 -17 -4q-12 0 -19 16l-21 48q-3 7 -3 13 q0 9 18 18z" />
<glyph unicode="&#x15b;" horiz-adv-x="453" d="M157 -9h-6q-36 0 -82 8t-73 19q-12 5 -14 14t4 27l19 63q6 19 21 19q6 0 49 -12.5t82 -12.5h2q36 0 52 7.5t16 26.5q0 11 -11.5 16.5t-53.5 16.5l-16 4q-55 14 -79 38q-31 31 -31 91q0 93 54.5 138t172.5 45h5q72 0 130 -18q13 -4 13 -13q0 -6 -9 -37l-15 -55 q-4 -15 -17 -15q-5 0 -41.5 6.5t-62.5 6.5h-2q-67 0 -67 -30q0 -11 10.5 -17.5t48.5 -15.5l16 -4q66 -16 91 -43q25 -26 25 -73q0 -200 -231 -200zM183 634l176 129q13 9 21 9q10 0 17 -13l36 -62q5 -8 5 -15q0 -12 -23 -26l-175 -105q-11 -7 -19 -7q-9 0 -18 13l-29 44 q-6 9 -6 14q0 8 15 19z" />
<glyph unicode="&#x15c;" horiz-adv-x="537" d="M209 -9h-9q-44 0 -101 8t-87 20q-17 7 -21 14t0 23l18 83q7 31 34 21q85 -31 157 -31h5q77 0 94 40q8 19 8 41q0 18 -13.5 29t-49.5 20l-61 14q-68 15 -97.5 49t-29.5 90q0 134 77 195q62 49 193 49h4q92 0 167 -28q17 -6 17 -20q0 -8 -15 -48l-17 -45q-6 -16 -14 -19.5 t-23 1.5q-67 19 -120 19h-5q-100 0 -100 -64q0 -20 14 -31t57 -22l63 -16q66 -17 94 -44t28 -77q0 -147 -60 -210q-60 -61 -207 -61zM331 774l-83 -75q-12 -11 -20 -11q-6 0 -12 6l-38 37q-12 12 1 25l114 107q13 13 30 13h61q16 0 24 -13l70 -105q6 -9 6 -15q0 -8 -11 -15 l-51 -33q-12 -7 -16 -7q-8 0 -16 11l-54 75h-5z" />
<glyph unicode="&#x15d;" horiz-adv-x="453" d="M157 -9h-6q-36 0 -82 8t-73 19q-12 5 -14 14t4 27l19 63q6 19 21 19q6 0 49 -12.5t82 -12.5h2q36 0 52 7.5t16 26.5q0 11 -11.5 16.5t-53.5 16.5l-16 4q-55 14 -79 38q-31 31 -31 91q0 93 54.5 138t172.5 45h5q72 0 130 -18q13 -4 13 -13q0 -6 -9 -37l-15 -55 q-4 -15 -17 -15q-5 0 -41.5 6.5t-62.5 6.5h-2q-67 0 -67 -30q0 -11 10.5 -17.5t48.5 -15.5l16 -4q66 -16 91 -43q25 -26 25 -73q0 -200 -231 -200zM276 640l-83 -75q-12 -11 -20 -11q-6 0 -12 6l-38 37q-12 12 1 25l114 107q13 13 30 13h61q16 0 24 -13l70 -105q6 -9 6 -15 q0 -8 -11 -15l-51 -33q-12 -7 -16 -7q-8 0 -16 11l-54 75h-5z" />
<glyph unicode="&#x15e;" horiz-adv-x="537" d="M140 -72l30 64q-105 6 -158 27q-17 7 -21 14t0 23l18 83q7 31 34 21q85 -31 157 -31h5q77 0 94 40q8 19 8 41q0 18 -13.5 29t-49.5 20l-61 14q-68 15 -97.5 49t-29.5 90q0 134 77 195q62 49 193 49h4q92 0 167 -28q17 -6 17 -20q0 -8 -15 -48l-17 -45q-6 -16 -14 -19.5 t-23 1.5q-67 19 -120 19h-5q-100 0 -100 -64q0 -20 14 -31t57 -22l63 -16q66 -17 94 -44t28 -77q0 -147 -60 -210q-48 -50 -160 -59q-1 -1 -1 -2q-1 -2 -1 -3l-18 -41q15 3 28 3q33 0 53.5 -17.5t21.5 -53.5q0 -53 -38.5 -87.5t-99.5 -34.5q-63 0 -99 15q-16 6 -10 26l11 35 q6 18 25 12q32 -10 64 -10q37 0 37 27q0 16 -26 16h-3q-11 0 -25 -2.5t-18 -2.5q-6 0 -11 7l-9 14q-4 7 -4 13q0 5 7 21z" />
<glyph unicode="&#x15f;" horiz-adv-x="453" d="M83 -93q0 5 7 21l30 65q-78 5 -124 25q-12 5 -14 14t4 27l19 63q6 19 21 19q6 0 49 -12.5t82 -12.5h2q36 0 52 7.5t16 26.5q0 11 -11.5 16.5t-53.5 16.5l-16 4q-55 14 -79 38q-31 31 -31 91q0 93 54.5 138t172.5 45h5q72 0 130 -18q13 -4 13 -13q0 -6 -9 -37l-15 -55 q-4 -15 -17 -15q-5 0 -41.5 6.5t-62.5 6.5h-2q-67 0 -67 -30q0 -11 10.5 -17.5t48.5 -15.5l16 -4q66 -16 91 -43q25 -26 25 -73q0 -178 -181 -196l-21 -48q15 3 28 3q33 0 53.5 -17.5t21.5 -53.5q0 -53 -38.5 -87.5t-99.5 -34.5q-63 0 -99 15q-16 6 -10 26l11 35q6 18 25 12 q32 -10 64 -10q37 0 37 27q0 16 -26 16h-3q-11 0 -25 -2.5t-18 -2.5q-6 0 -11 7l-9 14q-4 7 -4 13z" />
<glyph unicode="&#x160;" horiz-adv-x="537" d="M209 -9h-9q-44 0 -101 8t-87 20q-17 7 -21 14t0 23l18 83q7 31 34 21q85 -31 157 -31h5q77 0 94 40q8 19 8 41q0 18 -13.5 29t-49.5 20l-61 14q-68 15 -97.5 49t-29.5 90q0 134 77 195q62 49 193 49h4q92 0 167 -28q17 -6 17 -20q0 -8 -15 -48l-17 -45q-6 -16 -14 -19.5 t-23 1.5q-67 19 -120 19h-5q-100 0 -100 -64q0 -20 14 -31t57 -22l63 -16q66 -17 94 -44t28 -77q0 -147 -60 -210q-60 -61 -207 -61zM344 806l83 75q12 11 20 11q6 0 12 -6l38 -37q12 -12 -1 -25l-114 -107q-13 -13 -30 -13h-61q-16 0 -24 13l-70 105q-6 9 -6 15q0 8 11 15 l51 33q12 7 16 7q8 0 16 -11l54 -75h5z" />
<glyph unicode="&#x161;" horiz-adv-x="453" d="M157 -9h-6q-36 0 -82 8t-73 19q-12 5 -14 14t4 27l19 63q6 19 21 19q6 0 49 -12.5t82 -12.5h2q36 0 52 7.5t16 26.5q0 11 -11.5 16.5t-53.5 16.5l-16 4q-55 14 -79 38q-31 31 -31 91q0 93 54.5 138t172.5 45h5q72 0 130 -18q13 -4 13 -13q0 -6 -9 -37l-15 -55 q-4 -15 -17 -15q-5 0 -41.5 6.5t-62.5 6.5h-2q-67 0 -67 -30q0 -11 10.5 -17.5t48.5 -15.5l16 -4q66 -16 91 -43q25 -26 25 -73q0 -200 -231 -200zM281 656l83 75q12 11 20 11q6 0 12 -6l38 -37q12 -12 -1 -25l-114 -107q-13 -13 -30 -13h-61q-16 0 -24 13l-70 105 q-6 9 -6 15q0 8 11 15l51 33q12 7 16 7q8 0 16 -11l54 -75h5z" />
<glyph unicode="&#x162;" horiz-adv-x="529" d="M213 511h-131q-27 0 -27 15q0 4 5 31l11 59q4 19 11.5 25t26.5 6h427q28 0 28 -16q0 -5 -7 -40l-9 -50q-4 -19 -11 -24.5t-27 -5.5h-130l-93 -479q-4 -20 -12 -26t-30 -6h-96q-18 0 -24.5 4t-6.5 14q0 4 9 49zM174 -56h21q46 0 46 -36q0 -11 -3 -26l-4 -18 q-17 -87 -105 -155q-15 -11 -22 -11q-5 0 -11 7l-23 28q-9 10 5 24l33 33q14 16 15 20q0 4 -3 6q-21 12 -21 36q0 7 2 21l3 16q10 55 67 55z" />
<glyph unicode="&#x163;" horiz-adv-x="387" d="M306 62l-5 -25q-5 -22 -12 -29.5t-26 -7.5h-80q-107 0 -133 37q-14 20 -14 50t8 71l41 207h-53q-22 0 -22 13q0 7 4 28l7 33q4 18 10 25t23 11l55 13l19 98q5 29 39 29h91q19 0 24.5 -7t3.5 -22l-19 -96h83q21 0 21 -13q0 -5 -6 -35l-9 -48q-4 -18 -10 -23.5t-20 -5.5 h-83l-38 -196q-3 -15 -3 -23q0 -13 9 -17.5t32 -4.5h46q14 0 19 -3.5t5 -13.5q0 -7 -7 -45zM136 -56h21q46 0 46 -36q0 -11 -3 -26l-4 -18q-17 -87 -105 -155q-15 -11 -22 -11q-5 0 -11 7l-23 28q-9 10 5 24l33 33q14 16 15 20q0 4 -3 6q-21 12 -21 36q0 7 2 21l3 16 q10 55 67 55z" />
<glyph unicode="&#x164;" horiz-adv-x="529" d="M213 511h-131q-27 0 -27 15q0 4 5 31l11 59q4 19 11.5 25t26.5 6h427q28 0 28 -16q0 -5 -7 -40l-9 -50q-4 -19 -11 -24.5t-27 -5.5h-130l-93 -479q-4 -20 -12 -26t-30 -6h-96q-18 0 -24.5 4t-6.5 14q0 4 9 49zM351 806l83 75q12 11 20 11q6 0 12 -6l38 -37q12 -12 -1 -25 l-114 -107q-13 -13 -30 -13h-61q-16 0 -24 13l-70 105q-6 9 -6 15q0 8 11 15l51 33q12 7 16 7q8 0 16 -11l54 -75h5z" />
<glyph unicode="&#x165;" horiz-adv-x="387" d="M306 62l-5 -25q-5 -22 -12 -29.5t-26 -7.5h-80q-107 0 -133 37q-14 20 -14 50t8 71l41 207h-53q-22 0 -22 13q0 7 4 28l7 33q4 18 10 25t23 11l55 13l19 98q5 29 39 29h91q19 0 24.5 -7t3.5 -22l-19 -96h83q21 0 21 -13q0 -5 -6 -35l-9 -48q-4 -18 -10 -23.5t-20 -5.5 h-83l-38 -196q-3 -15 -3 -23q0 -13 9 -17.5t32 -4.5h46q14 0 19 -3.5t5 -13.5q0 -7 -7 -45zM420 768h21q46 0 46 -36q0 -11 -3 -26l-4 -18q-17 -87 -105 -155q-15 -11 -22 -11q-5 0 -11 7l-23 28q-9 10 5 24l33 33q14 16 15 20q0 4 -3 6q-21 12 -21 36q0 7 2 21l3 16 q10 55 67 55z" />
<glyph unicode="&#x166;" horiz-adv-x="529" d="M214 511h-130q-28 0 -28 15q0 3 1 7.5t2 11.5t2 12l11 59q4 19 11 25t27 6h427q28 0 28 -16q0 -5 -7 -40l-9 -50q-4 -18 -11.5 -24t-26.5 -6h-130l-32 -165h94q20 0 20 -13q0 -12 -4 -33l-7 -36q-5 -28 -31 -28h-94l-39 -204q-4 -19 -12 -25.5t-30 -6.5h-95q-18 0 -25 4 t-7 14q0 6 9 49l32 169h-93q-20 0 -20 15q0 10 4 31l7 36q5 28 31 28h93z" />
<glyph unicode="&#x167;" horiz-adv-x="395" d="M306 62l-5 -25q-5 -22 -12 -29.5t-26 -7.5h-80q-107 0 -133 37q-14 20 -14 50t8 71l5 28h-52q-22 0 -22 13q0 7 4 28l7 33q4 19 9.5 25.5t23.5 10.5l55 13l11 56h-53q-22 0 -22 13q0 7 4 28l7 33q4 19 9.5 25.5t23.5 10.5l55 13l19 98q5 29 39 29h91q19 0 24.5 -7 t3.5 -22l-19 -96h83q21 0 21 -13q0 -5 -6 -35l-9 -48q-4 -18 -10 -23.5t-20 -5.5h-83l-11 -54h86q21 0 21 -13q0 -5 -6 -35l-9 -48q-4 -18 -10 -23.5t-20 -5.5h-86l-3 -17q-3 -15 -3 -23q0 -14 9 -18t32 -4h46q14 0 19 -3.5t5 -13.5q0 -7 -7 -45z" />
<glyph unicode="&#x168;" horiz-adv-x="632" d="M276 601l-72 -370q-5 -28 -5 -44q0 -25 10 -36q16 -20 65 -20h5q49 0 73 20q23 19 35 80l75 385q4 21 11 26t30 5h98q27 0 27 -21q0 -7 -3 -25l-73 -375q-14 -70 -32.5 -110t-56.5 -70q-72 -55 -205 -55h-12q-133 0 -183 55q-35 41 -35 103q0 37 8 77l76 390q4 21 11 26 t30 5h99q27 0 27 -21q0 -7 -3 -25zM465 800q24 0 50 37q10 14 26 4l37 -24q15 -9 5 -26q-56 -95 -129 -95q-34 0 -64.5 23t-47.5 23q-24 0 -50 -37q-10 -14 -26 -4l-37 24q-15 9 -5 26q56 95 129 95q35 0 65.5 -23t46.5 -23z" />
<glyph unicode="&#x169;" horiz-adv-x="514" d="M485 434l-52 -266q-19 -98 -70 -135q-58 -42 -167 -42h-11q-88 0 -136 30.5t-48 90.5q0 26 10 76l53 273q3 16 11.5 22.5t27.5 6.5h91q30 0 30 -17q0 -9 -10 -57l-46 -237q-3 -15 -3 -27q0 -32 44 -32h4q23 0 41 13q15 13 23 51l54 277q3 16 11.5 22.5t27.5 6.5h91 q30 0 30 -19q0 -7 -6 -37zM375 660q24 0 50 37q10 14 26 4l37 -24q15 -9 5 -26q-56 -95 -129 -95q-34 0 -64.5 23t-47.5 23q-24 0 -50 -37q-10 -14 -26 -4l-37 24q-15 9 -5 26q56 95 129 95q35 0 65.5 -23t46.5 -23z" />
<glyph unicode="&#x16a;" horiz-adv-x="632" d="M276 601l-72 -370q-5 -28 -5 -44q0 -25 10 -36q16 -20 65 -20h5q49 0 73 20q23 19 35 80l75 385q4 21 11 26t30 5h98q27 0 27 -21q0 -7 -3 -25l-73 -375q-14 -70 -32.5 -110t-56.5 -70q-72 -55 -205 -55h-12q-133 0 -183 55q-35 41 -35 103q0 37 8 77l76 390q4 21 11 26 t30 5h99q27 0 27 -21q0 -7 -3 -25zM289 824h229q12 0 15.5 -5t1.5 -19l-9 -49q-3 -16 -8 -20.5t-19 -4.5h-229q-12 0 -15.5 5t-1.5 19l9 49q3 16 8 20.5t19 4.5z" />
<glyph unicode="&#x16b;" horiz-adv-x="514" d="M485 434l-52 -266q-19 -98 -70 -135q-58 -42 -167 -42h-11q-88 0 -136 30.5t-48 90.5q0 26 10 76l53 273q3 16 11.5 22.5t27.5 6.5h91q30 0 30 -17q0 -9 -10 -57l-46 -237q-3 -15 -3 -27q0 -32 44 -32h4q23 0 41 13q15 13 23 51l54 277q3 16 11.5 22.5t27.5 6.5h91 q30 0 30 -19q0 -7 -6 -37zM206 681h229q12 0 15.5 -5t1.5 -19l-9 -49q-3 -16 -8 -20.5t-19 -4.5h-229q-12 0 -15.5 5t-1.5 19l9 49q3 16 8 20.5t19 4.5z" />
<glyph unicode="&#x16c;" horiz-adv-x="632" d="M276 601l-72 -370q-5 -28 -5 -44q0 -25 10 -36q16 -20 65 -20h5q49 0 73 20q23 19 35 80l75 385q4 21 11 26t30 5h98q27 0 27 -21q0 -7 -3 -25l-73 -375q-14 -70 -32.5 -110t-56.5 -70q-72 -55 -205 -55h-12q-133 0 -183 55q-35 41 -35 103q0 37 8 77l76 390q4 21 11 26 t30 5h99q27 0 27 -21q0 -7 -3 -25zM397 800q44 0 82 59q10 16 30 8l45 -19q14 -6 14 -14q0 -10 -10 -26q-30 -47 -76 -76t-99 -29h-6q-56 0 -93.5 35t-37.5 88q0 18 16 24l53 15q20 6 24 -8q8 -32 20 -44.5t38 -12.5z" />
<glyph unicode="&#x16d;" horiz-adv-x="514" d="M485 434l-52 -266q-19 -98 -70 -135q-58 -42 -167 -42h-11q-88 0 -136 30.5t-48 90.5q0 26 10 76l53 273q3 16 11.5 22.5t27.5 6.5h91q30 0 30 -17q0 -9 -10 -57l-46 -237q-3 -15 -3 -27q0 -32 44 -32h4q23 0 41 13q15 13 23 51l54 277q3 16 11.5 22.5t27.5 6.5h91 q30 0 30 -19q0 -7 -6 -37zM314 650q44 0 82 59q10 16 30 8l45 -19q14 -6 14 -14q0 -10 -10 -26q-30 -47 -76 -76t-99 -29h-6q-56 0 -93.5 35t-37.5 88q0 18 16 24l53 15q20 6 24 -8q8 -32 20 -44.5t38 -12.5z" />
<glyph unicode="&#x16e;" horiz-adv-x="632" d="M276 601l-72 -370q-5 -28 -5 -44q0 -25 10 -36q16 -20 65 -20h5q49 0 73 20q23 19 35 80l75 385q4 21 11 26t30 5h98q27 0 27 -21q0 -7 -3 -25l-73 -375q-14 -70 -32.5 -110t-56.5 -70q-72 -55 -205 -55h-12q-133 0 -183 55q-35 41 -35 103q0 37 8 77l76 390q4 21 11 26 t30 5h99q27 0 27 -21q0 -7 -3 -25zM392 752q14 0 24.5 10t10.5 26q0 22 -24 22q-14 0 -24.5 -10t-10.5 -26q0 -22 24 -22zM381 679q-38 0 -62 23t-24 61q0 51 34.5 85.5t84.5 34.5q40 0 63 -23t23 -61q0 -51 -34 -85.5t-85 -34.5z" />
<glyph unicode="&#x16f;" horiz-adv-x="514" d="M485 434l-52 -266q-19 -98 -70 -135q-58 -42 -167 -42h-11q-88 0 -136 30.5t-48 90.5q0 26 10 76l53 273q3 16 11.5 22.5t27.5 6.5h91q30 0 30 -17q0 -9 -10 -57l-46 -237q-3 -15 -3 -27q0 -32 44 -32h4q23 0 41 13q15 13 23 51l54 277q3 16 11.5 22.5t27.5 6.5h91 q30 0 30 -19q0 -7 -6 -37zM306 622q14 0 24.5 10t10.5 26q0 22 -24 22q-14 0 -24.5 -10t-10.5 -26q0 -22 24 -22zM295 549q-38 0 -62 23t-24 61q0 51 34.5 85.5t84.5 34.5q40 0 63 -23t23 -61q0 -51 -34 -85.5t-85 -34.5z" />
<glyph unicode="&#x170;" horiz-adv-x="632" d="M276 601l-72 -370q-5 -28 -5 -44q0 -25 10 -36q16 -20 65 -20h5q49 0 73 20q23 19 35 80l75 385q4 21 11 26t30 5h98q27 0 27 -21q0 -7 -3 -25l-73 -375q-14 -70 -32.5 -110t-56.5 -70q-72 -55 -205 -55h-12q-133 0 -183 55q-35 41 -35 103q0 37 8 77l76 390q4 21 11 26 t30 5h99q27 0 27 -21q0 -7 -3 -25zM206 800l172 112q22 15 34 -6l34 -59q8 -15 5 -22t-18 -15l-180 -93q-24 -13 -34 5l-26 43q-11 18 13 35zM446 775l172 112q22 15 34 -6l34 -59q8 -15 5 -22t-18 -15l-180 -93q-24 -13 -34 5l-26 43q-11 19 13 35z" />
<glyph unicode="&#x171;" horiz-adv-x="514" d="M485 434l-52 -266q-19 -98 -70 -135q-58 -42 -167 -42h-11q-88 0 -136 30.5t-48 90.5q0 26 10 76l53 273q3 16 11.5 22.5t27.5 6.5h91q30 0 30 -17q0 -9 -10 -57l-46 -237q-3 -15 -3 -27q0 -32 44 -32h4q23 0 41 13q15 13 23 51l54 277q3 16 11.5 22.5t27.5 6.5h91 q30 0 30 -19q0 -7 -6 -37zM140 623l149 140q12 10 19 10t16 -10l44 -52q8 -10 8 -16q0 -11 -15 -22l-160 -124q-22 -17 -35 -1l-33 38q-14 16 7 37zM365 623l149 140q12 10 19 10t16 -10l44 -52q8 -10 8 -16q0 -11 -15 -22l-160 -124q-22 -17 -35 -1l-33 38q-14 16 7 37z " />
<glyph unicode="&#x172;" horiz-adv-x="632" d="M152 647h100q30 0 30 -12q0 -7 -5 -29l-73 -375q-5 -28 -5 -44q0 -25 10 -36q16 -20 65 -20h5q49 0 73 20q23 19 35 80l75 385q5 21 11 26t30 5h98q30 0 30 -12q0 -7 -5 -29l-74 -380q-14 -70 -32.5 -110t-56.5 -70q-41 -31 -99 -44q-46 -9 -77 -40.5t-31 -63.5 q0 -15 6 -20.5t21 -5.5q21 0 44 7q9 3 13 3q11 0 11 -11v-40q0 -13 -17 -20q-43 -16 -85 -16h-4q-45 0 -67.5 21t-22.5 54q0 40 25 71.5t67 49.5h-1q-133 0 -183 55q-35 41 -35 103q0 37 8 77l76 390q4 21 11.5 26t28.5 5z" />
<glyph unicode="&#x173;" horiz-adv-x="514" d="M485 434l-52 -266q-19 -98 -70 -135q-16 -11 -64 -30t-68 -41q-29 -32 -29 -68q0 -22 27 -22q19 0 45 8q10 2 12 2q11 0 11 -11v-40q0 -13 -17 -20q-43 -16 -85 -16h-4q-45 0 -67.5 21t-22.5 54q0 40 25.5 71.5t66.5 49.5h-6q-111 0 -157 46q-29 29 -29 75q0 26 10 76 l53 273q5 29 39 29h91q30 0 30 -18q0 -6 -10 -56l-46 -237q-3 -15 -3 -27q0 -32 44 -32h4q23 0 41 13q15 13 23 51l54 277q5 29 39 29h91q30 0 30 -19q0 -7 -6 -37z" />
<glyph unicode="&#x174;" horiz-adv-x="825" d="M424 363h6q2 -238 8 -330q2 -17 13 -25t38 -8h83q26 0 38.5 7t21.5 24q104 233 224 551q17 46 17 51q0 14 -29 14h-98q-19 0 -28.5 -5t-14.5 -21q-54 -159 -153 -441h-4q-4 256 -5 402q0 26 -36 26h-73q-19 0 -28.5 -5.5t-14.5 -20.5q-105 -257 -167 -402h-4 q6 181 19 441q1 16 -6.5 21t-26.5 5h-98q-35 0 -36 -26q-8 -313 10 -590q1 -17 11.5 -24t36.5 -7h92q48 0 63 33q65 142 141 330zM494 774l-83 -75q-12 -11 -20 -11q-6 0 -12 6l-38 37q-12 12 1 25l114 107q13 13 30 13h61q16 0 24 -13l70 -105q6 -9 6 -15q0 -8 -11 -15 l-51 -33q-12 -7 -16 -7q-8 0 -16 11l-54 75h-5z" />
<glyph unicode="&#x175;" horiz-adv-x="689" d="M310 466h90q16 0 21.5 -5.5t5.5 -18.5q-2 -157 2 -269h3q67 167 104 295q6 22 33 22h103q20 0 20 -12q0 -13 -16 -52q-92 -229 -173 -402q-7 -15 -15.5 -19.5t-25.5 -4.5h-93q-32 0 -34 23q-11 154 -8 258h-4q-23 -61 -106 -258q-10 -23 -40 -23h-96q-31 0 -34 22 q-23 186 -25 438q0 17 7.5 23.5t24.5 6.5h97q26 0 26 -18q0 -15 -2 -53q-7 -150 -6 -246h4q78 195 103 270q5 14 11.5 18.5t22.5 4.5zM377 640l-83 -75q-12 -11 -20 -11q-6 0 -12 6l-38 37q-12 12 1 25l114 107q13 13 30 13h61q16 0 24 -13l70 -105q6 -9 6 -15q0 -8 -11 -15 l-51 -33q-12 -7 -16 -7q-8 0 -16 11l-54 75h-5z" />
<glyph unicode="&#x176;" horiz-adv-x="530" d="M253 0h-103q-28 0 -28 17q0 10 7 42l26 132q-71 210 -88 423q-3 33 24 33h99q18 0 23.5 -1t10 -6t5.5 -17q8 -136 33 -284h5q54 95 141 284q7 18 14 21t31 3h104q20 0 20 -14q0 -10 -20 -52q-100 -208 -236 -394l-30 -156q-4 -18 -11.5 -24.5t-26.5 -6.5zM345 774 l-83 -75q-12 -11 -20 -11q-6 0 -12 6l-38 37q-12 12 1 25l114 107q13 13 30 13h61q16 0 24 -13l70 -105q6 -9 6 -15q0 -8 -11 -15l-51 -33q-12 -7 -16 -7q-8 0 -16 11l-54 75h-5z" />
<glyph unicode="&#x177;" horiz-adv-x="488" d="M492 460q-134 -334 -329 -641q-14 -23 -31 -23q-8 0 -30 9l-53 21q-21 9 -21 22q0 8 9 21q47 68 79 123q-40 13 -52 74q-23 124 -41 395q-1 15 8.5 22t27.5 7h84q17 0 23.5 -4.5t6.5 -19.5q3 -181 17 -334h5q89 180 142 331q9 27 38 27h96q34 0 21 -30zM284 640l-83 -75 q-12 -11 -20 -11q-6 0 -12 6l-38 37q-12 12 1 25l114 107q13 13 30 13h61q16 0 24 -13l70 -105q6 -9 6 -15q0 -8 -11 -15l-51 -33q-12 -7 -16 -7q-8 0 -16 11l-54 75h-5z" />
<glyph unicode="&#x178;" horiz-adv-x="530" d="M253 0h-103q-28 0 -28 17q0 10 7 42l26 132q-71 210 -88 423q-3 33 24 33h99q18 0 23.5 -1t10 -6t5.5 -17q8 -136 33 -284h5q54 95 141 284q7 18 14 21t31 3h104q20 0 20 -14q0 -10 -20 -52q-100 -208 -236 -394l-30 -156q-4 -18 -11.5 -24.5t-26.5 -6.5zM245 724h-7 q-25 0 -39 12t-14 34q0 11 3 23l1 4q8 33 25 49t51 16h7q25 0 39 -12t14 -34q0 -11 -3 -23l-1 -4q-8 -33 -25 -49t-51 -16zM431 724h-7q-25 0 -39 12t-14 34q0 11 3 23l1 4q8 33 25 49t51 16h7q25 0 39 -12t14 -34q0 -11 -3 -23l-1 -4q-8 -33 -25 -49t-51 -16z" />
<glyph unicode="&#x179;" horiz-adv-x="529" d="M191 136h230q30 0 30 -18q0 -12 -6 -43l-9 -43q-4 -19 -12 -25.5t-29 -6.5h-397q-30 0 -30 17q0 11 4 28l4 19q5 26 26 52l313 395h-205q-30 0 -30 18q0 9 6 38l9 48q4 19 12 25.5t29 6.5h384q18 0 24 -5.5t3 -23.5l-7 -34q-5 -27 -31 -59zM249 798l195 98q10 5 17 5 q12 0 19 -16l26 -67q3 -7 3 -13q0 -13 -28 -24l-190 -74q-10 -4 -17 -4q-12 0 -19 16l-21 48q-3 7 -3 13q0 9 18 18z" />
<glyph unicode="&#x17a;" horiz-adv-x="441" d="M211 363h-161q-19 0 -19 14q0 5 6 40l8 44q4 18 10.5 23.5t21.5 5.5h340q20 0 20 -17q0 -9 -4 -31q-6 -36 -36 -71l-218 -244h166q25 0 25 -17q0 -2 -8 -45l-8 -42q-2 -13 -8.5 -18t-21.5 -5h-340q-27 0 -27 18q0 9 6 34q10 41 36 71zM194 634l176 129q13 9 21 9 q10 0 17 -13l36 -62q5 -8 5 -15q0 -12 -23 -26l-175 -105q-11 -7 -19 -7q-9 0 -18 13l-29 44q-6 9 -6 14q0 8 15 19z" />
<glyph unicode="&#x17b;" horiz-adv-x="529" d="M191 136h230q30 0 30 -18q0 -12 -6 -43l-9 -43q-4 -19 -12 -25.5t-29 -6.5h-397q-30 0 -30 17q0 11 4 28l4 19q5 26 26 52l313 395h-205q-30 0 -30 18q0 9 6 38l9 48q4 19 12 25.5t29 6.5h384q18 0 24 -5.5t3 -23.5l-7 -34q-5 -27 -31 -59zM358 863q26 0 42 -16t16 -41 q0 -35 -24.5 -61t-61.5 -26q-26 0 -42.5 16t-16.5 41q0 35 25 61t62 26z" />
<glyph unicode="&#x17c;" horiz-adv-x="441" d="M211 363h-161q-19 0 -19 14q0 5 6 40l8 44q4 18 10.5 23.5t21.5 5.5h340q20 0 20 -17q0 -9 -4 -31q-6 -36 -36 -71l-218 -244h166q25 0 25 -17q0 -2 -8 -45l-8 -42q-2 -13 -8.5 -18t-21.5 -5h-340q-27 0 -27 18q0 9 6 34q10 41 36 71zM284 713q26 0 42 -16t16 -41 q0 -35 -24.5 -61t-61.5 -26q-26 0 -42.5 16t-16.5 41q0 35 25 61t62 26z" />
<glyph unicode="&#x17d;" horiz-adv-x="529" d="M191 136h230q30 0 30 -18q0 -12 -6 -43l-9 -43q-4 -19 -12 -25.5t-29 -6.5h-397q-30 0 -30 17q0 11 4 28l4 19q5 26 26 52l313 395h-205q-30 0 -30 18q0 9 6 38l9 48q4 19 12 25.5t29 6.5h384q18 0 24 -5.5t3 -23.5l-7 -34q-5 -27 -31 -59zM352 806l83 75q12 11 20 11 q6 0 12 -6l38 -37q12 -12 -1 -25l-114 -107q-13 -13 -30 -13h-61q-16 0 -24 13l-70 105q-6 9 -6 15q0 8 11 15l51 33q12 7 16 7q8 0 16 -11l54 -75h5z" />
<glyph unicode="&#x17e;" horiz-adv-x="441" d="M211 363h-161q-19 0 -19 14q0 5 6 40l8 44q4 18 10.5 23.5t21.5 5.5h340q20 0 20 -17q0 -9 -4 -31q-6 -36 -36 -71l-218 -244h166q25 0 25 -17q0 -2 -8 -45l-8 -42q-2 -13 -8.5 -18t-21.5 -5h-340q-27 0 -27 18q0 9 6 34q10 41 36 71zM276 656l83 75q12 11 20 11 q6 0 12 -6l38 -37q12 -12 -1 -25l-114 -107q-13 -13 -30 -13h-61q-16 0 -24 13l-70 105q-6 9 -6 15q0 8 11 15l51 33q12 7 16 7q8 0 16 -11l54 -75h5z" />
<glyph unicode="&#x17f;" horiz-adv-x="334" d="M280 506l-75 -382q-39 -200 -75 -275q-8 -16 -17 -21t-27 -5h-80q-29 0 -29 21q0 8 8 35q43 147 58 225l51 261h-61q-18 0 -18 14q0 5 4 25l8 41q3 15 7.5 20t16.5 8l67 15l8 43q17 84 64 119q48 36 137 36h10q53 0 98 -13q18 -5 18 -16q0 -10 -8 -38l-11 -43 q-6 -23 -20 -23q-6 0 -30 4.5t-40 4.5h-3q-31 0 -44 -13q-10 -10 -17 -43z" />
<glyph unicode="&#x192;" d="M343 287l-79 -285q-27 -98 -67 -141q-52 -56 -154 -56h-2q-56 0 -103 18q-16 6 -18 15.5t4 25.5l21 63q5 14 11.5 17t20.5 -1q39 -12 60 -12q29 0 42.5 16t26.5 62l77 278h-65q-24 0 -18 22l15 62q5 17 22 19l78 11l24 88q27 98 67 141q52 56 154 56h2q56 0 103 -18 q16 -6 18 -15.5t-4 -25.5l-21 -63q-5 -14 -11.5 -17t-20.5 1q-39 12 -60 12q-29 0 -43 -16t-26 -62l-21 -76h97q16 0 19.5 -6t-1.5 -23l-20 -68q-6 -22 -32 -22h-96z" />
<glyph unicode="&#x1cd;" horiz-adv-x="605" d="M220 248h129q-4 84 -14 224h-11q-87 -186 -104 -224zM360 33l-7 83h-187l-39 -83q-10 -20 -20 -26.5t-39 -6.5h-89q-29 0 -29 19q0 12 13 40q140 289 278 543q14 25 31.5 35t47.5 10h86q30 0 44 -10t17 -35q27 -197 62 -525q4 -46 4 -53q0 -24 -40 -24h-88q-23 0 -33.5 7 t-11.5 26zM390 806l83 75q12 11 20 11q6 0 12 -6l38 -37q12 -12 -1 -25l-114 -107q-13 -13 -30 -13h-61q-16 0 -24 13l-70 105q-6 9 -6 15q0 8 11 15l51 33q12 7 16 7q8 0 16 -11l54 -75h5z" />
<glyph unicode="&#x1ce;" horiz-adv-x="503" d="M273 38h-2q-36 -47 -138 -47h-3q-68 0 -104 32t-36 90q0 92 44 139q49 52 172 52h6q47 0 75 -4q6 22 6 34v2q0 38 -69 38h-3q-39 0 -85 -11q-35 -7 -38 -7q-14 0 -15 16l-5 51q-2 26 -2 32q0 13 15 18q82 26 180 26h3q96 0 142 -34q38 -29 38 -92q0 -40 -18 -131 l-43 -214q-3 -15 -11.5 -21.5t-27.5 -6.5h-52q-16 0 -21.5 4t-6.5 16zM264 169l5 28q-21 3 -55 3h-11q-69 0 -69 -57q0 -38 49 -38h5q35 0 53 15q15 12 23 49zM311 656l83 75q12 11 20 11q6 0 12 -6l38 -37q12 -12 -1 -25l-114 -107q-13 -13 -30 -13h-61q-16 0 -24 13 l-70 105q-6 9 -6 15q0 8 11 15l51 33q12 7 16 7q8 0 16 -11l54 -75h5z" />
<glyph unicode="&#x1fa;" horiz-adv-x="605" d="M220 248h129q-4 84 -14 224h-11q-87 -186 -104 -224zM360 33l-7 83h-187l-39 -83q-10 -20 -20 -26.5t-39 -6.5h-89q-29 0 -29 19q0 12 13 40q140 289 278 543q14 25 31.5 35t47.5 10h86q30 0 44 -10t17 -35q27 -197 62 -525q4 -46 4 -53q0 -24 -40 -24h-88q-23 0 -33.5 7 t-11.5 26zM371 762q14 0 24.5 10t10.5 26q0 22 -24 22q-14 0 -24.5 -10t-10.5 -26q0 -22 24 -22zM360 689q-38 0 -62 23t-24 61q0 51 34 85.5t85 34.5q40 0 63 -23t23 -61q0 -51 -34.5 -85.5t-84.5 -34.5zM291 1002l176 129q13 9 21 9q10 0 17 -13l36 -62q5 -8 5 -15 q0 -12 -23 -26l-175 -105q-11 -7 -19 -7q-9 0 -18 13l-29 44q-6 9 -6 14q0 8 15 19z" />
<glyph unicode="&#x1fb;" horiz-adv-x="503" d="M273 38h-2q-36 -47 -138 -47h-3q-68 0 -104 32t-36 90q0 92 44 139q49 52 172 52h6q47 0 75 -4q6 22 6 34v2q0 38 -69 38h-3q-39 0 -85 -11q-35 -7 -38 -7q-14 0 -15 16l-5 51q-2 26 -2 32q0 13 15 18q82 26 180 26h3q96 0 142 -34q38 -29 38 -92q0 -40 -18 -131 l-43 -214q-3 -15 -11.5 -21.5t-27.5 -6.5h-52q-16 0 -21.5 4t-6.5 16zM264 169l5 28q-21 3 -55 3h-11q-69 0 -69 -57q0 -38 49 -38h5q35 0 53 15q15 12 23 49zM230 865l176 129q13 9 21 9q10 0 17 -13l36 -62q5 -8 5 -15q0 -12 -23 -26l-175 -105q-11 -7 -19 -7q-9 0 -18 13 l-29 44q-6 9 -6 14q0 8 15 19zM302 612q14 0 24.5 10t10.5 26q0 22 -24 22q-14 0 -24.5 -10t-10.5 -26q0 -22 24 -22zM291 539q-38 0 -62 23t-24 61q0 51 34.5 85.5t84.5 34.5q40 0 63 -23t23 -61q0 -51 -34 -85.5t-85 -34.5z" />
<glyph unicode="&#x1fc;" horiz-adv-x="905" d="M762 264h-208q-8 -43 -12 -71q-4 -25 -4 -42q0 -15 18 -15h208q26 0 26 -17q0 -9 -6 -46l-7 -42q-4 -18 -11.5 -24.5t-28.5 -6.5h-261q-56 0 -78.5 15.5t-22.5 56.5q0 18 3 44h-184l-55 -83q-14 -20 -25.5 -26.5t-40.5 -6.5h-88q-25 0 -25 19q0 10 21 40q246 359 379 543 q18 25 38 35t50 10h421q23 0 23 -13q0 -5 -7 -44l-9 -49q-4 -19 -10 -24.5t-29 -5.5h-207q-22 0 -28 -20q-8 -30 -22 -101h205q27 0 27 -13q0 -14 -8 -49l-9 -41q-5 -23 -33 -23zM437 511q-24 -37 -82.5 -132.5t-81.5 -130.5h124l15 87l36 176h-11zM539 798l195 98 q10 5 17 5q12 0 19 -16l26 -67q3 -7 3 -13q0 -13 -28 -24l-190 -74q-10 -4 -17 -4q-12 0 -19 16l-21 48q-3 7 -3 13q0 9 18 18z" />
<glyph unicode="&#x1fd;" horiz-adv-x="762" d="M541 499h3q97 0 139 -41q36 -34 36 -99q0 -31 -15 -114l-5 -27q-5 -28 -34 -28h-237q-4 -19 -4 -35q0 -21 17.5 -30t65.5 -9h6q46 0 106 14q15 3 19 3q13 0 15 -17l4 -46q2 -24 2 -30q0 -16 -31 -26q-75 -23 -160 -23h-14q-112 0 -156 55h-2q-58 -55 -163 -55h-7 q-65 0 -100.5 32t-35.5 87q0 45 13 87q33 107 202 107h7q47 0 75 -4q6 22 6 34v2q0 38 -69 38h-3q-39 0 -85 -11q-35 -7 -38 -7q-14 0 -15 16l-5 51q-2 26 -2 32q0 13 15 18q82 26 180 26h5q92 0 125 -42h4q59 42 136 42zM264 169l5 28q-21 3 -55 3h-8q-33 0 -47 -7t-21 -26 q-4 -11 -4 -29q0 -33 45 -33h9q35 0 53 15q16 14 23 49zM447 294h109q10 0 13 10l2 9q4 19 4 31q0 43 -51 43h-2q-30 0 -47 -15t-25 -61zM350 634l176 129q13 9 21 9q10 0 17 -13l36 -62q5 -8 5 -15q0 -12 -23 -26l-175 -105q-11 -7 -19 -7q-9 0 -18 13l-29 44q-6 9 -6 14 q0 8 15 19z" />
<glyph unicode="&#x1fe;" horiz-adv-x="633" d="M14 -12l48 64q-34 41 -34 120q0 58 27 196q19 99 47 154t81 91q63 43 192 43h8q66 0 115 -17l58 79q10 13 16 14.5t23 -8.5l21 -15q17 -13 18.5 -20t-9.5 -22l-55 -75q35 -43 35 -108q0 -64 -26 -199q-20 -105 -45 -158.5t-72 -86.5q-71 -49 -205 -49h-8q-57 0 -114 16 l-52 -70q-10 -13 -16 -14.5t-23 8.5l-21 15q-17 13 -18.5 20t9.5 22zM414 305q12 63 17 101l-198 -267q15 -8 42 -8h12q41 0 70 24q32 28 57 150zM221 342q-6 -30 -18 -99l198 266q-15 7 -41 7h-12q-42 0 -70 -24q-34 -29 -57 -150zM267 798l195 98q10 5 17 5q12 0 19 -16 l26 -67q3 -7 3 -13q0 -13 -28 -24l-190 -74q-10 -4 -17 -4q-12 0 -19 16l-21 48q-3 7 -3 13q0 9 18 18z" />
<glyph unicode="&#x1ff;" horiz-adv-x="520" d="M199 -9h-20q-49 0 -95 14l-45 -56q-13 -18 -29 -6l-24 19q-10 8 -10.5 14t7.5 16l42 52q-27 33 -27 89q0 57 29 181q13 56 34.5 90.5t58.5 58.5q57 36 157 36h18q46 0 87 -12l48 59q13 18 29 6l24 -19q10 -8 10.5 -14t-7.5 -16l-42 -52q32 -35 32 -94q0 -65 -29 -178 q-16 -62 -36 -96.5t-52 -54.5q-58 -37 -160 -37zM295 216q8 38 13 67l-131 -163q9 -4 28 -4h2q32 0 49 13q24 19 39 87zM177 274l-12 -57l124 154q-9 3 -22 3h-2q-32 0 -49 -13q-23 -18 -39 -87zM208 634l176 129q13 9 21 9q10 0 17 -13l36 -62q5 -8 5 -15q0 -12 -23 -26 l-175 -105q-11 -7 -19 -7q-9 0 -18 13l-29 44q-6 9 -6 14q0 8 15 19z" />
<glyph unicode="&#x218;" horiz-adv-x="537" d="M209 -9h-9q-44 0 -101 8t-87 20q-17 7 -21 14t0 23l18 83q7 31 34 21q85 -31 157 -31h5q77 0 94 40q8 19 8 41q0 18 -13.5 29t-49.5 20l-61 14q-68 15 -97.5 49t-29.5 90q0 134 77 195q62 49 193 49h4q92 0 167 -28q17 -6 17 -20q0 -8 -15 -48l-17 -45q-6 -16 -14 -19.5 t-23 1.5q-67 19 -120 19h-5q-100 0 -100 -64q0 -20 14 -31t57 -22l63 -16q66 -17 94 -44t28 -77q0 -147 -60 -210q-60 -61 -207 -61zM218 -56h21q46 0 46 -36q0 -11 -3 -26l-4 -18q-17 -87 -105 -155q-15 -11 -22 -11q-5 0 -11 7l-23 28q-9 10 5 24l33 33q14 16 15 20 q0 4 -3 6q-21 12 -21 36q0 7 2 21l3 16q10 55 67 55z" />
<glyph unicode="&#x219;" horiz-adv-x="453" d="M157 -9h-6q-36 0 -82 8t-73 19q-12 5 -14 14t4 27l19 63q6 19 21 19q6 0 49 -12.5t82 -12.5h2q36 0 52 7.5t16 26.5q0 11 -11.5 16.5t-53.5 16.5l-16 4q-55 14 -79 38q-31 31 -31 91q0 93 54.5 138t172.5 45h5q72 0 130 -18q13 -4 13 -13q0 -6 -9 -37l-15 -55 q-4 -15 -17 -15q-5 0 -41.5 6.5t-62.5 6.5h-2q-67 0 -67 -30q0 -11 10.5 -17.5t48.5 -15.5l16 -4q66 -16 91 -43q25 -26 25 -73q0 -200 -231 -200zM163 -56h21q46 0 46 -36q0 -11 -3 -26l-4 -18q-17 -87 -105 -155q-15 -11 -22 -11q-5 0 -11 7l-23 28q-9 10 5 24l33 33 q14 16 15 20q0 4 -3 6q-21 12 -21 36q0 7 2 21l3 16q10 55 67 55z" />
<glyph unicode="&#x21a;" horiz-adv-x="529" d="M213 511h-131q-27 0 -27 15q0 4 5 31l11 59q4 19 11.5 25t26.5 6h427q28 0 28 -16q0 -5 -7 -40l-9 -50q-4 -19 -11 -24.5t-27 -5.5h-130l-93 -479q-4 -20 -12 -26t-30 -6h-96q-18 0 -24.5 4t-6.5 14q0 4 9 49zM174 -56h21q46 0 46 -36q0 -11 -3 -26l-4 -18 q-17 -87 -105 -155q-15 -11 -22 -11q-5 0 -11 7l-23 28q-9 10 5 24l33 33q14 16 15 20q0 4 -3 6q-21 12 -21 36q0 7 2 21l3 16q10 55 67 55z" />
<glyph unicode="&#x21b;" horiz-adv-x="387" d="M306 62l-5 -25q-5 -22 -12 -29.5t-26 -7.5h-80q-107 0 -133 37q-14 20 -14 50t8 71l41 207h-53q-22 0 -22 13q0 7 4 28l7 33q4 18 10 25t23 11l55 13l19 98q5 29 39 29h91q19 0 24.5 -7t3.5 -22l-19 -96h83q21 0 21 -13q0 -5 -6 -35l-9 -48q-4 -18 -10 -23.5t-20 -5.5 h-83l-38 -196q-3 -15 -3 -23q0 -13 9 -17.5t32 -4.5h46q14 0 19 -3.5t5 -13.5q0 -7 -7 -45zM136 -56h21q46 0 46 -36q0 -11 -3 -26l-4 -18q-17 -87 -105 -155q-15 -11 -22 -11q-5 0 -11 7l-23 28q-9 10 5 24l33 33q14 16 15 20q0 4 -3 6q-21 12 -21 36q0 7 2 21l3 16 q10 55 67 55z" />
<glyph unicode="&#x2c6;" horiz-adv-x="365" d="M234 640l-83 -75q-12 -11 -20 -11q-6 0 -12 6l-38 37q-12 12 1 25l114 107q13 13 30 13h61q16 0 24 -13l70 -105q6 -9 6 -15q0 -8 -11 -15l-51 -33q-12 -7 -16 -7q-8 0 -16 11l-54 75h-5z" />
<glyph unicode="&#x2c7;" horiz-adv-x="365" d="M243 656l83 75q12 11 20 11q6 0 12 -6l38 -37q12 -12 -1 -25l-114 -107q-13 -13 -30 -13h-61q-16 0 -24 13l-70 105q-6 9 -6 15q0 8 11 15l51 33q12 7 16 7q8 0 16 -11l54 -75h5z" />
<glyph unicode="&#x2d8;" horiz-adv-x="364" d="M240 650q44 0 82 59q10 16 30 8l45 -19q14 -6 14 -14q0 -10 -10 -26q-30 -47 -76 -76t-99 -29h-6q-56 0 -93.5 35t-37.5 88q0 18 16 24l53 15q20 6 24 -8q8 -32 20 -44.5t38 -12.5z" />
<glyph unicode="&#x2d9;" horiz-adv-x="492" d="M314 713q26 0 42 -16t16 -41q0 -35 -24.5 -61t-61.5 -26q-26 0 -42.5 16t-16.5 41q0 35 25 61t62 26z" />
<glyph unicode="&#x2da;" horiz-adv-x="446" d="M267 622q14 0 24.5 10t10.5 26q0 22 -24 22q-14 0 -24.5 -10t-10.5 -26q0 -22 24 -22zM256 549q-38 0 -62 23t-24 61q0 51 34 85.5t85 34.5q40 0 63 -23t23 -61q0 -51 -34.5 -85.5t-84.5 -34.5z" />
<glyph unicode="&#x2db;" horiz-adv-x="445" d="M247 4h39q9 0 10 -4.5t-5 -8.5q-39 -26 -59.5 -48t-20.5 -49q0 -22 27 -22q19 0 45 8q10 2 12 2q11 0 11 -11v-40q0 -13 -17 -20q-43 -16 -85 -16h-4q-45 0 -67.5 21t-22.5 54q0 77 104 127q14 7 33 7z" />
<glyph unicode="&#x2dc;" horiz-adv-x="345" d="M293 660q24 0 50 37q10 14 26 4l37 -24q15 -9 5 -26q-56 -95 -129 -95q-34 0 -64.5 23t-47.5 23q-24 0 -50 -37q-10 -14 -26 -4l-37 24q-15 9 -5 26q56 95 129 95q35 0 65.5 -23t46.5 -23z" />
<glyph unicode="&#x2dd;" horiz-adv-x="486" d="M92 623l149 140q12 10 19 10t16 -10l44 -52q8 -10 8 -16q0 -11 -15 -22l-160 -124q-22 -17 -35 -1l-33 38q-14 16 7 37zM317 623l149 140q12 10 19 10t16 -10l44 -52q8 -10 8 -16q0 -11 -15 -22l-160 -124q-22 -17 -35 -1l-33 38q-14 16 7 37z" />
<glyph unicode="&#x394;" horiz-adv-x="626" d="M186 141h192l-38 286h-9zM334 647h87q19 0 27 -7t12 -28l81 -446q9 -47 4 -73l-11 -58q-4 -21 -13 -28t-33 -7h-474q-19 0 -26.5 7t-3.5 28l9 47q8 39 34 84l261 456q10 17 18.5 21t27.5 4z" />
<glyph unicode="&#x3a9;" horiz-adv-x="679" d="M377 518h-3q-72 0 -109 -69t-37 -180q0 -61 20 -113q18 -45 18 -61q0 -9 -4 -31l-9 -48q-3 -16 -19 -16h-230q-24 0 -20 28l16 77q3 13 9.5 18.5t21.5 5.5h77l1 3q-48 62 -49 168q1 156 88 256t244 100h9q104 0 169 -51t65 -157q0 -83 -37.5 -167.5t-103.5 -148.5l-1 -3 h77q16 0 21 -5t2 -19l-16 -77q-4 -17 -10 -22.5t-22 -5.5h-229q-15 0 -12 16l10 53q4 19 12 33.5t37 51.5q44 55 72.5 132t28.5 139q0 93 -87 93z" />
<glyph unicode="&#x3bc;" horiz-adv-x="557" d="M282 184l54 277q3 17 10.5 23t28.5 6h91q34 0 28 -29l-59 -304q-4 -20 0.5 -28.5t19.5 -8.5q13 0 29 4q11 2 15 -2t2 -13l-9 -72q-3 -18 -24 -28q-40 -18 -95 -18h-1q-71 0 -91 38h-3q-36 -38 -90 -38q-32 0 -51 8l-28 -146q-3 -16 -11.5 -22.5t-28.5 -6.5h-91 q-32 0 -27 29l118 608q4 18 11 23.5t27 5.5h94q19 0 24 -7t2 -22l-54 -282q-3 -15 -3 -27q0 -32 44 -32h4q23 0 41 13q15 13 23 51z" />
<glyph unicode="&#x3c0;" horiz-adv-x="683" d="M544 365l-40 -204q-5 -22 1.5 -30t28.5 -8q12 0 36 3q10 1 13.5 -3.5t2.5 -13.5l-8 -59q-2 -15 -7 -22t-18 -12q-44 -19 -104 -19q-61 0 -86.5 23.5t-25.5 70.5q0 27 9 72l40 202h-86l-64 -332q-4 -23 -11 -28t-31 -5h-87q-21 0 -27 8t-1 30l63 327h-67q-17 0 -21 7 t-1 23l15 69q4 17 10.5 21.5t24.5 4.5h535q19 0 23.5 -6t0.5 -23l-14 -66q-4 -18 -10 -24t-23 -6h-71z" />
<glyph unicode="&#x1e80;" horiz-adv-x="825" d="M424 363h6q2 -238 8 -330q2 -17 13 -25t38 -8h83q26 0 38.5 7t21.5 24q104 233 224 551q17 46 17 51q0 14 -29 14h-98q-19 0 -28.5 -5t-14.5 -21q-54 -159 -153 -441h-4q-4 256 -5 402q0 26 -36 26h-73q-19 0 -28.5 -5.5t-14.5 -20.5q-105 -257 -167 -402h-4 q6 181 19 441q1 16 -6.5 21t-26.5 5h-98q-35 0 -36 -26q-8 -313 10 -590q1 -17 11.5 -24t36.5 -7h92q48 0 63 33q65 142 141 330zM426 906l169 -122q9 -6 9 -15t-12 -25l-29 -39q-13 -17 -23 -17q-8 0 -20 6l-177 99q-15 8 -15 21q0 7 8 19l46 69q9 14 21 14q10 0 23 -10z " />
<glyph unicode="&#x1e81;" horiz-adv-x="689" d="M310 466h90q16 0 21.5 -5.5t5.5 -18.5q-2 -157 2 -269h3q67 167 104 295q6 22 33 22h103q20 0 20 -12q0 -13 -16 -52q-92 -229 -173 -402q-7 -15 -15.5 -19.5t-25.5 -4.5h-93q-32 0 -34 23q-11 154 -8 258h-4q-23 -61 -106 -258q-10 -23 -40 -23h-96q-31 0 -34 22 q-23 186 -25 438q0 17 7.5 23.5t24.5 6.5h97q26 0 26 -18q0 -15 -2 -53q-7 -150 -6 -246h4q78 195 103 270q5 14 11.5 18.5t22.5 4.5zM341 785l150 -145q7 -7 7 -14q0 -9 -16 -25l-34 -34q-14 -14 -23 -14q-8 0 -21 9l-161 123q-13 10 -13 20q0 9 11 21l56 61q11 11 21 11 q9 0 23 -13z" />
<glyph unicode="&#x1e82;" horiz-adv-x="825" d="M424 363h6q2 -238 8 -330q2 -17 13 -25t38 -8h83q26 0 38.5 7t21.5 24q104 233 224 551q17 46 17 51q0 14 -29 14h-98q-19 0 -28.5 -5t-14.5 -21q-54 -159 -153 -441h-4q-4 256 -5 402q0 26 -36 26h-73q-19 0 -28.5 -5.5t-14.5 -20.5q-105 -257 -167 -402h-4 q6 181 19 441q1 16 -6.5 21t-26.5 5h-98q-35 0 -36 -26q-8 -313 10 -590q1 -17 11.5 -24t36.5 -7h92q48 0 63 33q65 142 141 330zM402 798l195 98q10 5 17 5q12 0 19 -16l26 -67q3 -7 3 -13q0 -13 -28 -24l-190 -74q-10 -4 -17 -4q-12 0 -19 16l-21 48q-3 7 -3 13q0 9 18 18 z" />
<glyph unicode="&#x1e83;" horiz-adv-x="689" d="M310 466h90q16 0 21.5 -5.5t5.5 -18.5q-2 -157 2 -269h3q67 167 104 295q6 22 33 22h103q20 0 20 -12q0 -13 -16 -52q-92 -229 -173 -402q-7 -15 -15.5 -19.5t-25.5 -4.5h-93q-32 0 -34 23q-11 154 -8 258h-4q-23 -61 -106 -258q-10 -23 -40 -23h-96q-31 0 -34 22 q-23 186 -25 438q0 17 7.5 23.5t24.5 6.5h97q26 0 26 -18q0 -15 -2 -53q-7 -150 -6 -246h4q78 195 103 270q5 14 11.5 18.5t22.5 4.5zM284 634l176 129q13 9 21 9q10 0 17 -13l36 -62q5 -8 5 -15q0 -12 -23 -26l-175 -105q-11 -7 -19 -7q-9 0 -18 13l-29 44q-6 9 -6 14 q0 8 15 19z" />
<glyph unicode="&#x1e84;" horiz-adv-x="825" d="M424 363h6q2 -238 8 -330q2 -17 13 -25t38 -8h83q26 0 38.5 7t21.5 24q104 233 224 551q17 46 17 51q0 14 -29 14h-98q-19 0 -28.5 -5t-14.5 -21q-54 -159 -153 -441h-4q-4 256 -5 402q0 26 -36 26h-73q-19 0 -28.5 -5.5t-14.5 -20.5q-105 -257 -167 -402h-4 q6 181 19 441q1 16 -6.5 21t-26.5 5h-98q-35 0 -36 -26q-8 -313 10 -590q1 -17 11.5 -24t36.5 -7h92q48 0 63 33q65 142 141 330zM399 724h-7q-25 0 -39 12t-14 34q0 11 3 23l1 4q8 33 25 49t51 16h7q25 0 39 -12t14 -34q0 -11 -3 -23l-1 -4q-8 -33 -25 -49t-51 -16z M585 724h-7q-25 0 -39 12t-14 34q0 11 3 23l1 4q8 33 25 49t51 16h7q25 0 39 -12t14 -34q0 -11 -3 -23l-1 -4q-8 -33 -25 -49t-51 -16z" />
<glyph unicode="&#x1e85;" horiz-adv-x="689" d="M310 466h90q16 0 21.5 -5.5t5.5 -18.5q-2 -157 2 -269h3q67 167 104 295q6 22 33 22h103q20 0 20 -12q0 -13 -16 -52q-92 -229 -173 -402q-7 -15 -15.5 -19.5t-25.5 -4.5h-93q-32 0 -34 23q-11 154 -8 258h-4q-23 -61 -106 -258q-10 -23 -40 -23h-96q-31 0 -34 22 q-23 186 -25 438q0 17 7.5 23.5t24.5 6.5h97q26 0 26 -18q0 -15 -2 -53q-7 -150 -6 -246h4q78 195 103 270q5 14 11.5 18.5t22.5 4.5zM285 567h-7q-25 0 -39 12t-14 34q0 11 3 23l1 4q8 33 25 49t51 16h7q25 0 39 -12t14 -34q0 -11 -3 -23l-1 -4q-8 -33 -25 -49t-51 -16z M471 567h-7q-25 0 -39 12t-14 34q0 11 3 23l1 4q8 33 25 49t51 16h7q25 0 39 -12t14 -34q0 -11 -3 -23l-1 -4q-8 -33 -25 -49t-51 -16z" />
<glyph unicode="&#x1ef2;" horiz-adv-x="530" d="M253 0h-103q-28 0 -28 17q0 10 7 42l26 132q-71 210 -88 423q-3 33 24 33h99q18 0 23.5 -1t10 -6t5.5 -17q8 -136 33 -284h5q54 95 141 284q7 18 14 21t31 3h104q20 0 20 -14q0 -10 -20 -52q-100 -208 -236 -394l-30 -156q-4 -18 -11.5 -24.5t-26.5 -6.5zM262 906 l169 -122q9 -6 9 -15t-12 -25l-29 -39q-13 -17 -23 -17q-8 0 -20 6l-177 99q-15 8 -15 21q0 7 8 19l46 69q9 14 21 14q10 0 23 -10z" />
<glyph unicode="&#x1ef3;" horiz-adv-x="488" d="M492 460q-134 -334 -329 -641q-14 -23 -31 -23q-8 0 -30 9l-53 21q-21 9 -21 22q0 8 9 21q47 68 79 123q-40 13 -52 74q-23 124 -41 395q-1 15 8.5 22t27.5 7h84q17 0 23.5 -4.5t6.5 -19.5q3 -181 17 -334h5q89 180 142 331q9 27 38 27h96q34 0 21 -30zM222 785l150 -145 q7 -7 7 -14q0 -9 -16 -25l-34 -34q-14 -14 -23 -14q-8 0 -21 9l-161 123q-13 10 -13 20q0 9 11 21l56 61q11 11 21 11q9 0 23 -13z" />
<glyph unicode="&#x2013;" horiz-adv-x="500" d="M416 188h-360q-24 0 -32 6.5t-8 25.5v75q0 18 9 25t31 7h360q22 0 31 -7t9 -25v-75q0 -19 -8 -25.5t-32 -6.5z" />
<glyph unicode="&#x2014;" horiz-adv-x="1000" d="M916 188h-860q-24 0 -32 6.5t-8 25.5v75q0 18 9 25t31 7h860q22 0 31 -7t9 -25v-75q0 -19 -8 -25.5t-32 -6.5z" />
<glyph unicode="&#x2018;" horiz-adv-x="272" d="M144 402h-10q-37 0 -53 13t-17 41q0 15 6 44q9 46 47.5 111t101.5 122q17 15 36 2l37 -26q16 -11 -1 -28q-23 -25 -45 -50q-29 -32 -29 -45q0 -6 6 -13l10 -9q13 -12 13 -31q0 -14 -8 -54t-30 -58.5t-64 -18.5z" />
<glyph unicode="&#x2019;" horiz-adv-x="273" d="M221 743h10q69 0 70 -54q0 -15 -6 -44q-9 -46 -47.5 -111t-101.5 -122q-17 -15 -36 -2l-37 26q-16 11 1 28q23 25 45 50q29 32 29 45q0 5 -6 13l-10 9q-13 12 -13 31q0 14 8 54t30 58.5t64 18.5z" />
<glyph unicode="&#x201a;" horiz-adv-x="272" d="M98 165h10q37 0 53 -13t17 -41q0 -15 -6 -44q-9 -46 -47.5 -111t-101.5 -122q-17 -15 -36 -2l-37 26q-16 11 1 28q23 25 45 50q29 32 29 45q0 5 -6 13l-10 9q-13 12 -13 31q0 14 8 54t30 58.5t64 18.5z" />
<glyph unicode="&#x201c;" horiz-adv-x="519" d="M391 402h-10q-69 0 -70 54q0 15 6 44q9 46 47.5 111t101.5 122q17 15 36 2l37 -26q16 -11 -1 -28q-23 -25 -45 -50q-29 -32 -29 -45q0 -6 6 -13l10 -9q13 -12 13 -31q0 -14 -8 -54t-30 -58.5t-64 -18.5zM144 402h-10q-37 0 -53 13t-17 41q0 15 6 44q9 46 47.5 111 t101.5 122q17 15 36 2l37 -26q16 -11 -1 -28q-23 -25 -45 -50q-29 -32 -29 -45q0 -6 6 -13l10 -9q13 -12 13 -31q0 -14 -8 -54t-30 -58.5t-64 -18.5z" />
<glyph unicode="&#x201d;" horiz-adv-x="519" d="M467 744h10q69 0 70 -54q0 -15 -6 -44q-9 -46 -47.5 -111t-101.5 -122q-17 -15 -36 -2l-37 26q-16 11 1 28q23 25 45 50q29 32 29 45q0 6 -6 13l-10 9q-13 12 -13 31q0 14 8 54t30 58.5t64 18.5zM221 744h10q69 0 70 -54q0 -15 -6 -44q-9 -46 -47.5 -111t-101.5 -122 q-17 -15 -36 -2l-37 26q-16 11 1 28q23 25 45 50q29 32 29 45q0 6 -6 13l-10 9q-13 12 -13 31q0 14 8 54t30 58.5t64 18.5z" />
<glyph unicode="&#x201e;" horiz-adv-x="519" d="M345 165h10q69 0 70 -54q0 -15 -6 -44q-9 -46 -47.5 -111t-101.5 -122q-17 -15 -36 -2l-37 26q-16 11 1 28q23 25 45 50q29 32 29 45q0 5 -6 13l-10 9q-13 12 -13 31q0 14 8 54t30 58.5t64 18.5zM98 165h10q37 0 53 -13t17 -41q0 -15 -6 -44q-9 -46 -47.5 -111 t-101.5 -122q-17 -15 -36 -2l-37 26q-16 11 1 28q23 25 45 50q29 32 29 45q0 5 -6 13l-10 9q-13 12 -13 31q0 14 8 54t30 58.5t64 18.5z" />
<glyph unicode="&#x2020;" horiz-adv-x="462" d="M309 347l-67 -321q-4 -16 -11 -21t-29 -5h-82q-29 0 -29 21q0 7 3 23l56 303l-82 -2q-17 -1 -23.5 3.5t-6.5 16.5q0 4 2 20l11 58q5 27 13 34.5t29 6.5l82 -2l20 125q4 23 12.5 29.5t32.5 6.5h94q30 0 30 -18q0 -6 -3 -21l-25 -122l82 2q17 1 23 -3t6 -15q0 -5 -3 -23 l-11 -58q-5 -25 -11.5 -33t-27.5 -7z" />
<glyph unicode="&#x2021;" horiz-adv-x="462" d="M343 130l-75 2l-20 -98q-4 -22 -12 -28t-31 -6h-73q-26 0 -33 6.5t-3 27.5l18 98l-78 -2q-26 0 -26 18q0 7 3 22l11 58q5 26 13 34t30 7l72 -2l15 80l-87 -2q-26 0 -26 18q0 7 3 22l11 58q5 26 13 34t30 7l81 -2l20 125q4 22 12.5 29t35.5 7h86q20 0 27.5 -5t7.5 -16 q0 -3 -2 -15l-26 -125l85 2q26 0 26 -18q0 -7 -3 -22l-11 -58q-5 -26 -13 -34t-30 -7l-81 2l-17 -80l78 2q26 0 26 -18q0 -7 -3 -22l-11 -58q-5 -26 -13 -34t-30 -7z" />
<glyph unicode="&#x2022;" horiz-adv-x="400" d="M155 122q-52 0 -84.5 32.5t-32.5 81.5q0 67 51 118.5t121 51.5q52 0 84.5 -32.5t32.5 -81.5q0 -67 -51 -118.5t-121 -51.5z" />
<glyph unicode="&#x2026;" horiz-adv-x="723" d="M162 118q0 -26 -7 -53q-10 -42 -32 -58t-61 -16h-9q-68 0 -68 50q0 22 6 50q10 42 32.5 58t61.5 16h9q68 0 68 -47zM403 118q0 -26 -7 -53q-10 -42 -32 -58t-61 -16h-9q-68 0 -68 50q0 22 6 50q10 42 32.5 58t61.5 16h9q68 0 68 -47zM644 118q0 -26 -7 -53 q-10 -42 -32 -58t-61 -16h-9q-68 0 -68 50q0 22 6 50q10 42 32.5 58t61.5 16h9q68 0 68 -47z" />
<glyph unicode="&#x2030;" horiz-adv-x="1287" d="M219 389h2q32 0 42 55l11 56q4 23 4 31q0 24 -26 24h-2q-32 0 -42 -55l-11 -56q-4 -23 -4 -31q0 -24 26 -24zM199 288q-62 0 -97.5 30t-35.5 85q0 21 5 48l7 36q18 88 62.5 128.5t130.5 40.5q62 0 98 -30t36 -85q0 -21 -5 -48l-7 -36q-17 -88 -62.5 -128.5t-131.5 -40.5z M673 92h2q32 0 42 55l11 56q4 23 4 31q0 24 -26 24h-2q-32 0 -42 -55l-11 -56q-4 -23 -4 -31q0 -24 26 -24zM653 -9q-62 0 -97.5 30t-35.5 85q0 21 5 48l7 36q18 88 62.5 128.5t130.5 40.5q62 0 98 -30t36 -85q0 -21 -5 -48l-7 -36q-17 -88 -62.5 -128.5t-131.5 -40.5z M155 17l476 621q14 18 39 18h86q13 0 17.5 -7.5t-3.5 -18.5l-476 -621q-14 -18 -39 -18h-86q-13 0 -17.5 7.5t3.5 18.5zM1035 92h2q32 0 42 55l11 56q4 23 4 31q0 24 -26 24h-2q-32 0 -42 -55l-11 -56q-4 -23 -4 -31q0 -24 26 -24zM1015 -9q-62 0 -97.5 30t-35.5 85 q0 21 5 48l7 36q18 88 62.5 128.5t130.5 40.5q62 0 98 -30t36 -85q0 -21 -5 -48l-7 -36q-17 -88 -62.5 -128.5t-131.5 -40.5z" />
<glyph unicode="&#x2039;" horiz-adv-x="408" d="M353 337l-157 -118l96 -104q13 -14 13 -25q0 -13 -18 -28l-47 -37q-20 -15 -27 -15q-10 0 -22 12l-164 157q-18 18 -18 36q0 11 3 24q5 19 11 28t25 22l224 156q15 11 24 11q10 0 22 -15l36 -45q17 -21 17 -32q0 -13 -18 -27z" />
<glyph unicode="&#x203a;" horiz-adv-x="408" d="M23 129l157 118l-96 104q-13 14 -13 25q0 13 18 28l47 37q20 15 27 15q10 0 22 -12l164 -157q18 -18 18 -36q0 -11 -3 -24q-5 -19 -11 -28t-25 -22l-224 -156q-15 -11 -24 -11q-10 0 -22 15l-36 45q-17 21 -17 32q0 13 18 27z" />
<glyph unicode="&#x2044;" horiz-adv-x="307" d="M-154 17l476 621q14 18 39 18h86q13 0 17.5 -7.5t-3.5 -18.5l-476 -621q-14 -18 -39 -18h-86q-13 0 -17.5 7.5t3.5 18.5z" />
<glyph unicode="&#x20ac;" d="M304 -9h-3q-144 0 -192 67q-29 40 -29 102q0 23 1 39h-49q-14 0 -17 5.5t0 20.5l7 38q3 17 8 21.5t19 4.5h46l11 59h-46q-14 0 -17 5.5t0 20.5l7 38q3 17 8 21.5t19 4.5h48q29 115 94 166.5t187 51.5q87 0 159 -30q27 -12 14 -45l-24 -66q-5 -13 -13 -15.5t-25 3.5 q-52 15 -102 15h-1q-45 0 -74.5 -17t-44.5 -63h163q14 0 17 -5.5t0 -20.5l-7 -38q-3 -17 -8 -21.5t-19 -4.5h-166l-11 -59h166q14 0 17.5 -6t-0.5 -20l-7 -38q-3 -17 -8 -21.5t-19 -4.5h-160v-7q0 -32 23 -47.5t77 -15.5q58 0 115 16q26 7 26 -18v-76q0 -14 -5.5 -21 t-23.5 -13q-72 -26 -161 -26z" />
<glyph unicode="&#x2113;" horiz-adv-x="541" d="M91 109q0 21 5 49l-60 -18q-15 -4 -21.5 -1t-10.5 17l-14 55q-6 26 13 33q54 17 117 41l29 148q23 118 69 164q56 55 151 55q76 0 115.5 -39t39.5 -106q0 -104 -63 -170.5t-197 -119.5l-5 -29q-5 -25 -5 -35q0 -27 29 -27h2q35 0 97 23q28 11 32 -11l14 -67 q5 -23 -20 -36q-88 -44 -172 -44h-7q-137 0 -138 118zM314 472l-20 -103q84 56 84 123q0 31 -27 31q-17 0 -24.5 -12.5t-12.5 -38.5z" />
<glyph unicode="&#x2116;" horiz-adv-x="979" d="M886 63l-10 -50q-3 -13 -17 -13h-246q-13 0 -13 9q0 4 5 27l9 48q3 15 18 15h246q13 0 13 -9q0 -2 -5 -27zM387 28l-163 322h-2l-61 -316q-4 -21 -12 -27.5t-29 -6.5h-86q-28 0 -28 18q0 4 6 40l108 556q4 20 12.5 26.5t27.5 6.5h40q41 0 54 -28l161 -331h2l64 325 q4 20 12.5 27t28.5 7h85q30 0 30 -17q0 -5 -8 -45l-107 -552q-6 -33 -40 -33h-41q-39 0 -54 28zM832 293q12 57 12 74q0 28 -31 28h-4q-20 0 -32 -12t-18 -42q-12 -58 -12 -72q0 -27 33 -27h4q20 0 30.5 10.5t17.5 40.5zM937 300q-15 -78 -53 -112t-114 -34h-6 q-122 0 -122 95q0 28 12 88q15 77 54.5 111.5t113.5 34.5h6q121 0 121 -94q0 -28 -12 -89z" />
<glyph unicode="&#x2122;" horiz-adv-x="755" d="M539 365h-62q-16 0 -21 4.5t-6 15.5q-5 70 -5 168q-22 -88 -44 -198q-5 -21 -28 -21h-50q-25 0 -21 21q30 142 67 265q5 17 11.5 22t22.5 5h99q16 0 22 -5.5t6 -18.5v-140q5 14 54 140q6 15 13.5 19.5t25.5 4.5h100q16 0 22 -5t4 -22q-13 -113 -39 -265q-3 -13 -8 -17 t-19 -4h-55q-24 0 -20 21q15 77 33 194q-38 -96 -69 -164q-6 -13 -12 -16.5t-21 -3.5zM93 647h223q12 0 15 -4.5t1 -16.5l-8 -42q-3 -14 -7.5 -17.5t-18.5 -3.5h-58l-41 -208q-3 -13 -8 -17t-19 -4h-56q-13 0 -17.5 4.5t-2.5 16.5l41 208h-58q-13 0 -16 4.5t-1 16.5l8 42 q2 13 6.5 17t16.5 4z" />
<glyph unicode="&#x212e;" horiz-adv-x="812" d="M776 316h-599q-5 0 -5 -5v-182q0 -10 9 -21q42 -45 101.5 -71t125.5 -26q70 0 132 29t105 80h54q-53 -59 -129 -94t-163 -35q-153 0 -262 97t-109 235t109 235.5t262 97.5t261 -97.5t108 -235.5v-7zM640 338v183q0 12 -10 22q-90 93 -222 93q-135 0 -226 -96 q-10 -8 -10 -23v-179q0 -5 5 -5h458q5 0 5 5z" />
<glyph unicode="&#x2190;" horiz-adv-x="670" d="M600 291l-13 -62q-4 -18 -10 -23t-23 -5h-340l58 -74q10 -13 10 -21q0 -9 -18 -24l-42 -35q-15 -12 -23 -12q-7 0 -18 12l-139 176q-15 18 -15 30q0 18 30 44l214 179q11 9 19 9q10 0 19 -12l28 -35q10 -11 10 -20q0 -8 -20 -25l-88 -74h340q15 0 19.5 -6t1.5 -22z" />
<glyph unicode="&#x2191;" horiz-adv-x="670" d="M291 -23h-62q-16 0 -21 5.5t-2 21.5l70 340l-93 -77q-14 -11 -21 -11q-9 0 -20 14l-28 35q-8 11 -8 18q0 10 16 23l212 175q26 22 41 22t33 -22l140 -175q8 -11 8 -18q0 -10 -16 -23l-42 -35q-16 -13 -25 -13t-20 14l-59 73l-70 -340q-4 -17 -10.5 -22t-22.5 -5z" />
<glyph unicode="&#x2192;" horiz-adv-x="670" d="M29 229l13 62q4 18 10 23t23 5h340l-58 74q-10 13 -10 21q0 9 18 24l42 35q15 12 23 12t18 -12l139 -176q15 -18 15 -30q0 -18 -30 -44l-214 -179q-10 -9 -19 -9q-10 0 -19 12l-28 35q-10 11 -10 20q0 8 20 25l88 74h-340q-16 0 -20 6t-1 22z" />
<glyph unicode="&#x2193;" horiz-adv-x="670" d="M349 543h62q16 0 21 -5.5t2 -21.5l-70 -340l93 77q14 11 21 11q9 0 20 -14l28 -35q8 -11 8 -18q0 -10 -16 -23l-212 -175q-26 -22 -41 -22t-33 22l-140 175q-8 11 -8 18q0 10 16 23l42 35q16 13 25 13t20 -14l59 -73l70 340q4 17 10.5 22t22.5 5z" />
<glyph unicode="&#x2202;" d="M296 307h-3q-49 0 -77 -35q-29 -35 -29 -93q0 -59 60 -59h4q42 0 65 30.5t36 94.5l10 51q-31 11 -66 11zM154 638q90 32 196 32h4q200 0 200 -188q0 -58 -15.5 -146t-38.5 -157q-34 -99 -94.5 -143.5t-170.5 -44.5h-9q-100 0 -150 50t-50 138q0 115 69.5 185.5 t182.5 70.5h4q59 0 101 -16q6 32 6 48q0 36 -18 52t-57 16h-4q-45 0 -124 -17q-16 -4 -23.5 -1t-10.5 17l-16 72q-5 24 18 32z" />
<glyph unicode="&#x220f;" horiz-adv-x="651" d="M415 511h-112l-111 -575q-4 -19 -12 -25.5t-30 -6.5h-95q-22 0 -28 6.5t-2 25.5l111 575h-55q-19 0 -24.5 6t-1.5 24l14 75q4 19 11 25t27 6h554q20 0 25 -6t1 -25l-14 -75q-4 -18 -11.5 -24t-26.5 -6h-53l-111 -575q-4 -19 -12 -25.5t-30 -6.5h-95q-22 0 -28 6.5 t-2 25.5z" />
<glyph unicode="&#x2211;" horiz-adv-x="530" d="M487 518h-224l138 -190q14 -19 10 -37l-2 -10q-5 -21 -23 -38l-227 -210h226q18 0 24 -6.5t2 -23.5l-14 -69q-4 -19 -11.5 -24.5t-26.5 -5.5h-385q-17 0 -22 6.5t-2 23.5l11 56q5 24 31 49l215 197q36 33 36 43v1q0 9 -20 36l-132 183q-13 19 -8 44l16 81q4 23 26 23h388 q18 0 24 -6.5t2 -23.5l-14 -69q-4 -19 -11.5 -24.5t-26.5 -5.5z" />
<glyph unicode="&#x2212;" d="M463 189h-403q-19 0 -24.5 8.5t-1.5 27.5l12 62q5 24 12.5 32t27.5 8h403q19 0 24.5 -8.5t1.5 -27.5l-12 -62q-5 -24 -12.5 -32t-27.5 -8z" />
<glyph unicode="&#x221a;" horiz-adv-x="713" d="M63 385l18 91q4 24 28 24h165q17 0 23 -5.5t7 -21.5l21 -334h7q145 278 245 499q8 18 28 18h130q25 0 15 -21q-161 -317 -313 -589q-16 -29 -31 -37.5t-49 -8.5h-119q-27 0 -37.5 9t-14.5 32q-25 140 -43 322h-58q-15 0 -20 4.5t-2 17.5z" />
<glyph unicode="&#x221e;" horiz-adv-x="856" d="M349 320q-30 65 -80 65q-32 0 -54 -22.5t-22 -56.5q0 -51 53 -51t103 65zM405 227q-89 -101 -199 -101q-71 0 -113.5 40.5t-42.5 118.5q0 93 65 161t163 68q57 0 94 -22t73 -81q89 101 199 101q71 0 113.5 -40.5t42.5 -118.5q0 -93 -65 -161t-163 -68q-57 0 -94 22 t-73 81zM501 318q30 -65 80 -65q32 0 54 22.5t22 56.5q0 51 -53 51t-103 -65z" />
<glyph unicode="&#x222b;" horiz-adv-x="388" d="M256 238q0 -136 -10.5 -195.5t-46.5 -99.5q-44 -48 -136 -48h-2q-57 0 -108 20q-13 6 -14.5 15t4.5 23l24 65q4 11 9 13.5t17 -0.5q26 -8 49 -8h1q47 0 57 42q7 31 7 90q0 16 -0.5 74.5t-0.5 83.5q0 136 10.5 195.5t46.5 99.5q44 48 136 48h2q57 0 108 -20 q13 -6 14.5 -15t-4.5 -23l-24 -65q-4 -11 -9 -13.5t-17 0.5q-26 8 -49 8h-1q-47 0 -57 -42q-7 -31 -7 -90q0 -28 0.5 -81.5t0.5 -76.5z" />
<glyph unicode="&#x2248;" d="M489 484l44 -30q12 -8 12 -18q0 -13 -18 -40q-70 -99 -151 -99q-41 0 -92.5 28.5t-75.5 28.5q-33 0 -61 -42q-14 -22 -36 -7l-44 30q-12 8 -12 18q0 13 18 40q70 99 151 99q41 0 92.5 -28.5t75.5 -28.5q33 0 61 42q14 22 36 7zM440 232l44 -30q12 -8 12 -18 q0 -13 -18 -40q-70 -99 -151 -99q-41 0 -92.5 28.5t-75.5 28.5q-33 0 -61 -42q-14 -22 -36 -7l-44 30q-12 8 -12 18q0 13 18 40q70 99 151 99q41 0 92.5 -28.5t75.5 -28.5q33 0 61 42q14 22 36 7z" />
<glyph unicode="&#x2260;" d="M54 -6l45 72h-60q-19 0 -24.5 8.5t-1.5 27.5l12 62q5 24 12.5 32t27.5 8h121l68 108h-167q-19 0 -24.5 8.5t-1.5 27.5l12 62q5 24 12.5 32t27.5 8h228l48 76q14 21 23 26.5t33 5.5h50q37 0 18 -30l-49 -78h52q19 0 24.5 -8.5t1.5 -27.5l-12 -62q-5 -24 -12.5 -32 t-27.5 -8h-113l-68 -108h159q19 0 24.5 -8.5t1.5 -27.5l-12 -62q-5 -24 -12.5 -32t-27.5 -8h-220l-44 -70q-14 -21 -23 -26.5t-33 -5.5h-50q-37 0 -18 30z" />
<glyph unicode="&#x2264;" d="M421 0h-403q-19 0 -24.5 8.5t-1.5 27.5l12 62q5 24 12.5 32t27.5 8h403q19 0 24.5 -8.5t1.5 -27.5l-12 -62q-5 -24 -12.5 -32t-27.5 -8zM260 414l200 -108q18 -10 18 -22q0 -9 -13 -28l-41 -54q-13 -17 -25 -17q-10 0 -18 5l-293 168q-11 8 -14 15t0 23l6 35q4 18 9 24 t21 14l349 158q13 5 19 5q12 0 19 -17l19 -50q6 -20 6 -26q0 -13 -24 -25z" />
<glyph unicode="&#x2265;" d="M421 0h-403q-19 0 -24.5 8.5t-1.5 27.5l12 62q5 24 12.5 32t27.5 8h403q19 0 24.5 -8.5t1.5 -27.5l-12 -62q-5 -24 -12.5 -32t-27.5 -8zM332 403l-200 108q-18 10 -18 22q0 9 13 28l41 54q13 17 25 17q10 0 18 -5l293 -168q11 -8 14 -15t0 -23l-6 -35q-4 -18 -9 -24 t-21 -14l-349 -158q-13 -5 -19 -5q-12 0 -19 17l-19 50q-6 20 -6 26q0 13 24 25z" />
<glyph unicode="&#x25ca;" horiz-adv-x="570" d="M332 656h41q18 0 28 -6.5t17 -24.5l106 -261q8 -19 8 -38q-1 -25 -25 -54l-207 -250q-16 -20 -27.5 -25.5t-34.5 -5.5h-41q-18 0 -28 6.5t-17 24.5l-106 261q-8 19 -8 38q1 25 25 54l207 250q16 19 27.5 25t34.5 6zM251 152l137 168l-70 173l-136 -166z" />
<glyph unicode="&#x25fc;" horiz-adv-x="490" d="M0 490h490v-490h-490v490z" />
<glyph unicode="&#x2713;" horiz-adv-x="734" d="M687 416l-484 -409q-29 -24 -42 -24q-16 0 -29 17l-128 160q-10 13 -10 20q0 10 16 24l48 41q13 11 23 11q8 0 20 -15l84 -105l434 366q17 14 24 14q11 0 20 -11l34 -42q11 -14 11 -20q0 -10 -21 -27z" />
<glyph horiz-adv-x="215" />
<glyph horiz-adv-x="467" d="M227 -56h21q46 0 46 -36q0 -11 -3 -26l-4 -18q-17 -87 -105 -155q-15 -11 -22 -11q-5 0 -11 7l-23 28q-9 10 5 24l33 33q14 16 15 20q0 4 -3 6q-21 12 -21 36q0 7 2 21l3 16q10 55 67 55z" />
<glyph horiz-adv-x="415" d="M232 906l169 -122q9 -6 9 -15t-12 -25l-29 -39q-13 -17 -23 -17q-8 0 -20 6l-177 99q-15 8 -15 21q0 7 8 19l46 69q9 14 21 14q10 0 23 -10z" />
<glyph horiz-adv-x="415" d="M199 798l195 98q10 5 17 5q12 0 19 -16l26 -67q3 -7 3 -13q0 -13 -28 -24l-190 -74q-10 -4 -17 -4q-12 0 -19 16l-21 48q-3 7 -3 13q0 9 18 18z" />
<glyph horiz-adv-x="391" d="M183 724h-7q-25 0 -39 12t-14 34q0 11 3 23l1 4q8 33 25 49t51 16h7q25 0 39 -12t14 -34q0 -11 -3 -23l-1 -4q-8 -33 -25 -49t-51 -16zM369 724h-7q-25 0 -39 12t-14 34q0 11 3 23l1 4q8 33 25 49t51 16h7q25 0 39 -12t14 -34q0 -11 -3 -23l-1 -4q-8 -33 -25 -49t-51 -16 z" />
<glyph horiz-adv-x="365" d="M260 774l-83 -75q-12 -11 -20 -11q-6 0 -12 6l-38 37q-12 12 1 25l114 107q13 13 30 13h61q16 0 24 -13l70 -105q6 -9 6 -15q0 -8 -11 -15l-51 -33q-12 -7 -16 -7q-8 0 -16 11l-54 75h-5z" />
<glyph horiz-adv-x="341" d="M317 800q24 0 50 37q10 14 26 4l37 -24q15 -9 5 -26q-56 -95 -129 -95q-34 0 -64.5 23t-47.5 23q-24 0 -50 -37q-10 -14 -26 -4l-37 24q-15 9 -5 26q56 95 129 95q35 0 65.5 -23t46.5 -23z" />
<glyph horiz-adv-x="392" d="M160 824h229q12 0 15.5 -5t1.5 -19l-9 -49q-3 -16 -8 -20.5t-19 -4.5h-229q-12 0 -15.5 5t-1.5 19l9 49q3 16 8 20.5t19 4.5z" />
<glyph horiz-adv-x="364" d="M253 800q44 0 82 59q10 16 30 8l45 -19q14 -6 14 -14q0 -10 -10 -26q-30 -47 -76 -76t-99 -29h-6q-56 0 -93.5 35t-37.5 88q0 18 16 24l53 15q20 6 24 -8q8 -32 20 -44.5t38 -12.5z" />
<glyph horiz-adv-x="492" d="M339 863q26 0 42 -16t16 -41q0 -35 -24.5 -61t-61.5 -26q-26 0 -42.5 16t-16.5 41q0 35 25 61t62 26z" />
<glyph horiz-adv-x="446" d="M289 752q14 0 24.5 10t10.5 26q0 22 -24 22q-14 0 -24.5 -10t-10.5 -26q0 -22 24 -22zM278 679q-38 0 -62 23t-24 61q0 51 34 85.5t85 34.5q40 0 63 -23t23 -61q0 -51 -34.5 -85.5t-84.5 -34.5z" />
<glyph horiz-adv-x="520" d="M120 800l172 112q22 15 34 -6l34 -59q8 -15 5 -22t-18 -15l-180 -93q-24 -13 -34 5l-26 43q-11 18 13 35zM360 775l172 112q22 15 34 -6l34 -59q8 -15 5 -22t-18 -15l-180 -93q-24 -13 -34 5l-26 43q-11 19 13 35z" />
<glyph horiz-adv-x="365" d="M259 806l83 75q12 11 20 11q6 0 12 -6l38 -37q12 -12 -1 -25l-114 -107q-13 -13 -30 -13h-61q-16 0 -24 13l-70 105q-6 9 -6 15q0 8 11 15l51 33q12 7 16 7q8 0 16 -11l54 -75h5z" />
<glyph horiz-adv-x="583" d="M483 199h-255v64h193v63h-193v192h255v-64h-191v-64h191v-191zM483 583h-319v-519h72v-64h-136v647h383v-64z" />
<glyph horiz-adv-x="633" d="M524 271l-40 -207q-4 -24 -12.5 -33t-28.5 -14q-93 -26 -206 -26h-9q-117 0 -168.5 39.5t-51.5 115.5q0 66 32.5 120t103.5 71q-66 31 -66 116q0 99 71.5 151t187.5 52h9q91 0 154 -25q14 -5 16.5 -13t-5.5 -31l-23 -64q-8 -22 -35 -14q-65 19 -109 19h-7q-98 0 -98 -79 q0 -57 82 -57h278q17 0 17 -12q0 -6 -3 -21l-14 -70q-3 -18 -20 -18h-55zM344 125l29 146h-75q-72 0 -99 -31q-21 -24 -21 -63q0 -31 20 -45t62 -14h7q44 0 77 7z" />
</font>
</defs>
</svg>
