<?xml version="1.0" encoding="UTF-8"?>
<svg width="153px" height="32px" viewBox="0 0 153 32" version="1.1" xmlns="http://www.w3.org/2000/svg" xmlns:xlink="http://www.w3.org/1999/xlink">
    <title>6AF45726-818D-41A0-AB08-AA608D02BD6F</title>
    <g id="Page-1" stroke="none" stroke-width="1" fill="none" fill-rule="evenodd">
        <g id="Modale" transform="translate(-223.000000, -67.000000)" fill="#FFFFFF">
            <g id="Components/Content-containers/Modal/Desktop" transform="translate(-10.500327, 0.000000)">
                <g id="Group" transform="translate(131.000000, 67.000000)">
                    <g id="Basics/Logo/Negative" transform="translate(103.000000, 0.000000)">
                        <path d="M48.9053908,2.5783438 L48.9053908,21.1077288 C48.9053908,25.1928811 45.2638887,28.2953098 40.4528899,28.2953098 C35.6434468,28.2953098 32,25.1932648 32,21.1077288 L32,6.9332558 C32,4.53765129 33.957847,2.5783438 36.3995164,2.5783438 L36.7075448,2.5783438 L36.7075448,21.0739609 C36.7075448,23.2700277 38.700784,24.6184426 40.6240167,24.6184426 C42.4795766,24.6184426 44.4751493,23.3694128 44.4751493,21.0739609 L44.4751493,6.69726401 C44.4751493,4.43634749 46.3633788,2.5783438 48.6642575,2.5783438 L48.9053908,2.5783438 L48.9053908,2.5783438 Z M58.1796897,9.12510155 C64.6047261,9.12510155 65.6365434,12.6707344 65.6365434,14.7965792 L65.6365434,28.0263176 L65.4311911,28.0263176 C63.0595282,28.0263176 61.0316747,26.068545 61.0316747,23.7389414 L61.0316747,14.8652662 C61.0316747,13.6158527 60.5155716,12.1281451 58.0085628,12.1281451 C56.8417887,12.1281451 56.153003,12.264368 55.3977112,12.5352789 L55.3977112,28.0267013 L50.7920646,28.0267013 L50.7920646,10.5107379 C52.7549677,9.66538846 55.9130364,9.12510155 58.1796897,9.12510155 L58.1796897,9.12510155 Z M69.9489407,2.5783438 C71.3230117,2.5783438 72.4213351,3.59099802 72.4213351,4.83887659 C72.4213351,6.05490585 71.3230117,7.03340842 69.9489407,7.03340842 C68.5744807,7.03340842 67.4411541,6.05567331 67.4411541,4.83887659 C67.4403762,3.59099802 68.5744807,2.5783438 69.9489407,2.5783438 L69.9489407,2.5783438 Z M72.2155939,9.12510155 L72.2155939,9.12510155 L72.2155939,23.7734768 C72.2155939,26.0996268 70.2919723,28.0267013 67.8880286,28.0267013 L67.6787871,28.0267013 L67.6787871,9.12510155 L72.2155939,9.12510155 Z M85.2978548,2.20689655 C87.4637765,2.20689655 89.4892965,2.67964759 91.1725627,3.69153437 L91.1725627,8.14736644 C90.1438568,6.83080083 88.6659428,5.92098531 86.2958356,5.92098531 C81.6201826,5.92098531 78.7359169,10.4408997 78.7359169,15.1338748 C78.7359169,19.5582413 81.7598066,24.3824508 86.2958356,24.3824508 C88.287908,24.3824508 90.1092425,23.8091634 91.1725627,22.3897591 L91.1725627,26.7765204 C89.8350505,27.7569416 87.7383574,28.296461 85.2644072,28.296461 C77.84139,28.296461 73.9260849,21.6130966 73.9260849,15.1680264 C73.9268627,8.82387625 77.8421679,2.20689655 85.2978548,2.20689655 L85.2978548,2.20689655 Z M99.3088678,9.12510155 C100.066493,9.12510155 101.029082,9.19340487 101.887828,9.32962777 L101.887828,12.9385755 C100.307626,11.8265361 98.2101555,12.1987508 97.2841257,12.6703506 L97.2841257,23.7730931 C97.2841257,26.0996268 95.3274454,28.0263176 92.9553936,28.0263176 L92.7142602,28.0263176 L92.7142602,10.5790412 C94.5021472,9.73484295 96.3227038,9.12510155 99.3088678,9.12510155 L99.3088678,9.12510155 Z M117.829074,18.778509 L106.387298,20.3318339 C106.764166,23.402797 108.347867,25.0240415 111.232911,25.0240415 C114.426761,25.0240415 116.043521,24.0113872 117.213795,23.2017243 L117.213795,26.94536 C116.043521,27.5570201 113.879932,28.2956936 110.786814,28.2956936 C105.186298,28.2956936 101.853213,24.5865933 101.853213,18.643821 C101.853213,12.8744931 104.945943,9.12625273 110.028411,9.12625273 C115.046707,9.12625273 117.828685,12.4005909 117.828685,18.0713011 L117.828685,18.778509 L117.829074,18.778509 Z M113.843762,16.2125299 L113.843762,16.2125299 C113.706861,12.4662082 111.336365,12.0640628 110.063803,12.0640628 L109.893454,12.0640628 C107.316828,12.1285288 106.114661,13.9205316 106.114661,17.2601033 L113.843762,16.2125299 Z M134.329205,2.5783438 L134.329205,27.7891746 C133.229715,28.027085 129.623994,28.2953098 128.111077,28.2953098 L127.79877,28.2953098 C122.200588,28.2300763 119.142862,25.0570419 119.142862,19.3521801 C119.142862,13.5828523 122.336712,9.8687635 127.286556,9.8687635 C128.247978,9.8687635 129.071332,9.97198593 129.794343,10.1377558 L129.794343,6.86533621 C129.794343,4.50349963 131.71952,2.57872753 134.124631,2.57872753 L134.329205,2.57872753 L134.329205,2.5783438 Z M129.827402,12.770887 L129.827402,12.770887 C129.348635,12.6358153 128.832143,12.5682794 128.247978,12.5682794 C124.46763,12.5682794 123.676168,16.1461453 123.676168,19.1150372 C123.676168,23.2696439 125.088354,25.3264179 127.938005,25.3264179 C128.418716,25.3264179 129.482037,25.2243467 129.827402,25.1598806 L129.827402,12.770887 L129.827402,12.770887 Z M138.742334,2.5783438 C140.116794,2.5783438 141.218229,3.59099802 141.218229,4.83887659 C141.218229,6.05490585 140.117183,7.03340842 138.742334,7.03340842 C137.367485,7.03340842 136.23377,6.05567331 136.23377,4.83887659 C136.23377,3.59099802 137.367874,2.5783438 138.742334,2.5783438 L138.742334,2.5783438 Z M141.010154,9.12510155 L141.010154,9.12510155 L141.010154,23.7734768 C141.010154,26.0996268 139.084977,28.0267013 136.680255,28.0267013 L136.476848,28.0267013 L136.476848,9.12510155 L141.010154,9.12510155 Z M149.043783,2.5783438 L149.043783,9.12548528 L151.999611,9.12548528 L151.999611,12.7375028 L149.044561,12.7375028 L149.044561,22.7631249 C149.044561,23.9768519 149.45721,24.3479154 150.797834,24.3479154 C151.140476,24.3479154 151.656579,24.2466116 152,24.1115399 L152,27.8582454 C151.79387,27.9242463 150.901288,28.2960773 149.700677,28.2960773 C146.331422,28.2960773 144.475862,26.675984 144.475862,23.7397089 L144.475862,12.7367353 L142.480679,12.7367353 L142.480679,9.12510155 L144.475862,9.12510155 L144.475862,6.83080083 C144.475862,4.5031159 146.398706,2.57757635 148.772314,2.57757635 L149.044561,2.57757635 L149.044561,2.5783438 L149.043783,2.5783438 Z" id="Shape"></path>
                        <g id="Basics/Logo/Icon">
                            <path d="M29.2610026,5.78682387 C30.1123188,6.39393445 29.998939,7.43663293 29.916903,7.76691385 C29.7973665,8.24013569 29.3547063,8.77487383 28.5818907,9.53557417 C29.5652617,11.5450081 30.119929,13.8197294 30.119929,16.2293104 C30.119929,24.3878151 23.7634149,30.9998648 15.9225628,30.9998648 C12.6816325,30.9998648 9.69410689,29.869613 7.30442046,27.9671638 C6.49217591,28.5910853 5.88612752,29.05628 5.78054176,29.1378448 C5.45936338,29.387151 4.57515545,30.1179175 4.07171803,29.6129228 C3.7845923,29.3261209 3.50907543,29.0744213 3.35429067,28.8474529 C3.83373646,28.8590207 4.92496901,28.6990658 5.16952892,28.5075986 C5.3389775,28.3765947 6.79075992,27.2627303 8.31434382,26.0867265 L8.7723625,25.7329819 C9.99303361,24.7896023 11.1821836,23.8653797 11.7200199,23.4317233 C12.9973811,22.3993959 19.569155,16.6944711 21.6239226,14.8436214 C23.6794642,12.9927718 26.4915163,10.3026576 26.4915163,10.3026576 C28.1953096,8.71986208 29.2722245,7.62690346 29.4537096,6.906907 C29.5036277,6.70825978 29.389087,6.1047392 29.2610026,5.78682387 Z M15.9232899,1.4614033 C19.7533813,1.4614033 23.2291187,3.03893529 25.7827865,5.60352567 C24.6104668,5.530865 22.9774979,5.56124891 21.3336436,5.63787997 L20.6914481,5.67006604 C18.0215812,5.81293077 15.4776695,6.05861993 14.9951698,6.1586325 C14.1248527,6.33978973 14.0732298,7.2073778 14.3673345,7.44261745 C14.6636204,7.67747891 16.1490489,8.58439966 16.5940231,8.87258715 C17.0386337,9.16190924 16.9768317,9.37899535 16.8190549,9.6501639 C16.752195,9.76789883 16.4040547,10.2517502 16.0318645,10.7610998 L15.8077223,11.0670444 C15.3990494,11.623561 15.023526,12.1285007 15.023526,12.1285007 C14.6813277,12.5563657 12.2354081,16.1113092 9.81221278,19.6506432 L9.35864912,20.3133182 C7.75987368,22.6498609 6.22947183,24.893251 5.38668309,26.1283104 C3.11181423,23.5081771 1.72701437,20.037113 1.72701437,16.2293104 C1.72701437,8.07307487 8.08352854,1.4614033 15.9232899,1.4614033 Z" id="Shape-3"></path>
                        </g>
                    </g>
                </g>
            </g>
        </g>
    </g>
</svg>