<?xml version="1.0" encoding="UTF-8"?>
<svg width="187px" height="41px" viewBox="0 0 187 41" version="1.1" xmlns="http://www.w3.org/2000/svg" xmlns:xlink="http://www.w3.org/1999/xlink">
    <title>Logo_Black</title>
    <g id="Logo_Black" stroke="none" stroke-width="1" fill="none" fill-rule="evenodd">
        <g id="Group-2" transform="translate(7.000000, 7.000000)" fill="#262626">
            <text id="One" font-family="UniCredit-Bold, UniCredit" font-size="28" font-weight="bold">
                <tspan x="0" y="25">One</tspan>
            </text>
            <g id="Group" transform="translate(53.000000, 4.000000)">
                <path d="M12.023887,5.93095136 C12.023887,5.93095136 12.0503131,5.90470822 12.0503131,5.90470822 C12.235296,5.64227674 12.1560176,5.45857471 12.023887,5.35360212 C11.9446086,5.27487267 10.1476321,4.19890362 10.1476321,4.19890362 C10.0155015,4.12017418 9.93622309,3.96271529 9.93622309,3.80525641 C9.93622309,3.54282493 10.0947798,3.33287975 10.4647456,3.25415031 C11.6274951,2.93923253 15.6706923,2.78177365 17.0448508,2.78177365 C17.520521,2.78177365 18.3397309,2.78177365 19.0796624,2.8080168 L19.0532363,2.78177365 C17.0448508,1.02348276 14.4022383,1.37033242e-14 11.5482167,1.37033242e-14 C5.17952055,1.37033242e-14 -8.28114555e-14,5.14365693 -8.28114555e-14,11.4682555 C-8.28114555e-14,14.2500292 1.00419276,16.8218576 2.66903865,18.7900937 L2.66903865,18.7900937 C4.12247554,16.716885 7.71642857,11.5994712 8.4827862,10.5497453 C9.38127446,9.34256055 11.4425122,6.6657595 11.812478,6.21962599 L11.8389041,6.19338284 L12.023887,5.93095136 Z" id="Shape"></path>
                <path d="M4.49244129,20.5746277 C6.44797456,22.0704872 8.87917808,22.9627542 11.5482167,22.9627542 C17.943339,22.9627542 23.0964335,17.8190972 23.0964335,11.4682555 C23.0964335,9.55250573 22.6207632,7.74172855 21.7751272,6.14089654 L21.7751272,6.14089654 C22.1715191,5.77349248 22.6207632,5.16990008 22.3300758,4.4088488 C22.2243713,4.17266047 21.7751272,3.67404067 21.6694227,3.54282493 L21.6958488,3.59531122 C21.9865362,4.43509195 21.4315876,4.9599549 21.0087696,5.32735897 C20.7973606,5.53730415 17.8640607,8.2665915 14.4022383,11.2583103 C11.4160861,13.9088682 8.00711594,16.5856693 6.05158268,18.0552856 C3.27683953,20.1022511 2.74831702,20.4171689 2.74831702,20.4171689 C2.66903865,20.4696551 2.56333415,20.4958983 2.45762965,20.4958983 C2.2990729,20.4958983 2.14051614,20.4171689 2.06123777,20.3121963 L2.06123777,20.3121963 C2.03481164,20.3384394 2.03481164,20.3909257 2.06123777,20.3909257 C2.35192515,20.8633024 2.85402152,21.4144085 3.1447089,21.4144085 C3.22398728,21.4144085 3.3561179,21.3881653 3.43539628,21.335679 C3.40897015,21.3094359 3.62037916,21.2044633 4.49244129,20.5746277 L4.49244129,20.5746277 Z" id="Shape"></path>
                <path d="M40.299841,1.99447922 L40.299841,16.4019673 C40.299841,19.5773881 37.4986717,21.9917577 33.7990142,21.9917577 C30.0993566,21.9917577 27.2981874,19.5773881 27.2981874,16.4019673 L27.2981874,5.37984526 C27.2981874,3.51658178 28.8044765,1.99447922 30.6807314,1.99447922 L30.9185665,1.99447922 L30.9185665,16.3757241 C30.9185665,18.0815287 32.4512818,19.1312546 33.9311448,19.1312546 C35.3581556,19.1312546 36.8908708,18.1602582 36.8908708,16.3757241 L36.8908708,5.19614323 C36.8908708,3.43785234 38.3443077,1.99447922 40.1148581,1.99447922 L40.299841,1.99447922 Z" id="Shape" fill-rule="nonzero"></path>
                <path d="M47.4348948,7.08564986 C52.3765802,7.08564986 53.169364,9.84118036 53.169364,11.4944987 L53.169364,21.7818125 L53.0108072,21.7818125 C51.1874046,21.7818125 49.6282632,20.25971 49.6282632,18.4489328 L49.6282632,11.546985 C49.6282632,10.5759885 49.2318713,9.42129 47.3027642,9.42129 C46.4042759,9.42129 45.8757534,9.52626259 45.2943786,9.73620777 C45.2943786,9.9723961 45.2943786,21.7818125 45.2943786,21.7818125 L41.7532779,21.7818125 L41.7532779,8.16161891 C43.259567,7.50554022 45.6907705,7.08564986 47.4348948,7.08564986 Z" id="Shape" fill-rule="nonzero"></path>
                <path d="M56.4726296,1.99447922 C57.5296746,1.99447922 58.3753106,2.78177365 58.3753106,3.75277011 C58.3753106,4.69752342 57.5296746,5.45857471 56.4726296,5.45857471 C55.4155846,5.45857471 54.5435225,4.69752342 54.5435225,3.75277011 C54.5435225,2.78177365 55.4155846,1.99447922 56.4726296,1.99447922 Z M58.2167539,7.08564986 L58.2167539,18.4751759 C58.2167539,20.2859531 56.7368909,21.7818125 54.8870621,21.7818125 L54.7285054,21.7818125 L54.7285054,7.08564986 L58.2167539,7.08564986 Z" id="Shape" fill-rule="nonzero"></path>
                <path d="M68.2851076,1.7058046 C69.9499535,1.7058046 71.5090949,2.07320866 72.803975,2.86050309 L72.803975,6.32459858 C72.0111913,5.30111582 70.8748679,4.59255083 69.0514652,4.59255083 C65.4575122,4.59255083 63.2377177,8.10913262 63.2377177,11.7569301 C63.2377177,15.1947825 65.5632167,18.9475526 69.0514652,18.9475526 C70.5841805,18.9475526 71.9847651,18.5014191 72.803975,17.3992069 L72.803975,20.8108161 C71.7733561,21.5718673 70.1613625,21.9917577 68.2586815,21.9917577 C62.5506384,21.9917577 59.5380601,16.7956145 59.5380601,11.7831733 C59.5380601,6.84946153 62.5506384,1.7058046 68.2851076,1.7058046 Z" id="Shape" fill-rule="nonzero"></path>
                <path d="M79.0669667,7.08564986 C79.6483414,7.08564986 80.388273,7.13813615 81.0489261,7.24310874 L81.0489261,10.0511255 C79.8333243,9.18510167 78.2213307,9.47377629 77.5078253,9.84118036 L77.5078253,18.4751759 C77.5078253,20.2859531 76.0015362,21.7818125 74.1781335,21.7818125 L73.9931506,21.7818125 L73.9931506,8.21410521 C75.3673092,7.55802652 76.7678938,7.08564986 79.0669667,7.08564986 Z" id="Shape" fill-rule="nonzero"></path>
                <path d="M93.3106482,14.5911901 L84.5107485,15.7983749 C84.8014359,18.1865013 86.0170376,19.4461724 88.2368321,19.4461724 C90.6944618,19.4461724 91.9364897,18.658878 92.8349779,18.0290424 L92.8349779,20.9420318 C91.9364897,21.4144085 90.2716438,21.9917577 87.8932925,21.9917577 C83.5858341,21.9917577 81.0225,19.1050115 81.0225,14.4862175 C81.0225,9.99863924 83.4008512,7.08564986 87.3119178,7.08564986 C91.170132,7.08564986 93.3106482,9.63123518 93.3106482,14.040084 L93.3106482,14.5911901 Z M90.2452177,12.5967109 C90.1395132,9.68372147 88.3161105,9.3688037 87.3383439,9.3688037 L87.2062133,9.3688037 C85.2242539,9.42129 84.2993395,10.8121768 84.2993395,13.4102484 L90.2452177,12.5967109 Z" id="Shape" fill-rule="nonzero"></path>
                <path d="M105.995188,1.99447922 L105.995188,21.5981105 C105.149552,21.7818125 102.374809,21.9917577 101.21206,21.9917577 L100.974225,21.9917577 C96.6667661,21.9392714 94.3148409,19.4724155 94.3148409,15.0373236 C94.3148409,10.5497453 96.7724706,7.66299911 100.577833,7.66299911 C101.317764,7.66299911 101.951991,7.74172855 102.50694,7.87294429 L102.50694,5.32735897 C102.50694,3.49033863 103.986803,1.99447922 105.836632,1.99447922 L105.995188,1.99447922 Z M102.533366,9.9199098 C102.1634,9.81493721 101.767008,9.76245092 101.317764,9.76245092 C98.4108904,9.76245092 97.8030895,12.5442246 97.8030895,14.8536216 C97.8030895,18.0815287 98.8865606,19.6823607 101.079929,19.6823607 C101.449895,19.6823607 102.269105,19.6036313 102.533366,19.551145 L102.533366,9.9199098 L102.533366,9.9199098 Z" id="Shape" fill-rule="nonzero"></path>
                <path d="M109.404158,1.99447922 C110.461203,1.99447922 111.306839,2.78177365 111.306839,3.75277011 C111.306839,4.69752342 110.461203,5.45857471 109.404158,5.45857471 C108.347113,5.45857471 107.475051,4.69752342 107.475051,3.75277011 C107.475051,2.78177365 108.347113,1.99447922 109.404158,1.99447922 Z M111.148283,7.08564986 L111.148283,18.4751759 C111.148283,20.2859531 109.66842,21.7818125 107.818591,21.7818125 L107.660034,21.7818125 L107.660034,7.08564986 L111.148283,7.08564986 Z" id="Shape" fill-rule="nonzero"></path>
                <path d="M117.30557,1.99447922 L117.30557,7.08564986 L119.578217,7.08564986 L119.578217,9.89366665 L117.30557,9.89366665 L117.30557,17.6878815 C117.30557,18.6326348 117.622683,18.9213094 118.653302,18.9213094 C118.917564,18.9213094 119.313955,18.84258 119.578217,18.7376074 L119.578217,21.6505968 C119.41966,21.7030831 118.732581,21.9917577 117.807666,21.9917577 C115.217906,21.9917577 113.790895,20.7320866 113.790895,18.4489328 L113.790895,9.89366665 L112.25818,9.89366665 L112.25818,7.08564986 L113.790895,7.08564986 L113.790895,5.30111582 C113.790895,3.49033863 115.270758,1.99447922 117.094161,1.99447922 L117.30557,1.99447922 Z" id="Shape" fill-rule="nonzero"></path>
            </g>
        </g>
    </g>
</svg>